<svg width="116" height="132" viewBox="0 0 116 132" fill="none" xmlns="http://www.w3.org/2000/svg">
<path d="M56.1428 132.001C82.6769 132.001 104.187 130.099 104.187 127.753C104.187 125.407 82.6769 123.506 56.1428 123.506C29.6087 123.506 8.09863 125.407 8.09863 127.753C8.09863 130.099 29.6087 132.001 56.1428 132.001Z" fill="#D1D3D4"/>
<path d="M85.7126 108.128C85.3684 108.129 85.0286 108.051 84.7197 107.899C84.4109 107.747 84.1413 107.525 83.9322 107.252C79.1211 100.945 66.697 85.1219 65.3742 83.7266C64.9497 83.3509 64.684 82.8277 64.6311 82.2633C64.5782 81.6988 64.742 81.1354 65.0892 80.6873C65.4365 80.2392 65.9412 79.9399 66.501 79.8503C67.0608 79.7607 67.6337 79.8875 68.1035 80.2048C69.4263 81.109 87.3089 104.311 87.4819 104.545C87.7331 104.876 87.8871 105.269 87.9267 105.683C87.9663 106.096 87.8899 106.512 87.7062 106.884C87.5224 107.256 87.2385 107.57 86.8863 107.79C86.5342 108.009 86.1277 108.127 85.7126 108.128ZM65.4021 83.7489C65.458 83.7999 65.5178 83.8466 65.5808 83.8885C65.5189 83.8451 65.4592 83.7985 65.4021 83.7489Z" fill="#F47B20"/>
<path d="M89.4355 48.3079C86.395 48.3051 83.363 47.9872 80.3881 47.359C80.1023 47.2931 79.8322 47.1715 79.5933 47.0011C79.3545 46.8308 79.1515 46.6151 78.9961 46.3663C78.8406 46.1175 78.7356 45.8406 78.6872 45.5512C78.6387 45.2619 78.6477 44.9659 78.7137 44.68C78.7797 44.3941 78.9013 44.1241 79.0716 43.8852C79.242 43.6464 79.4577 43.4434 79.7064 43.288C79.9552 43.1325 80.2322 43.0275 80.5215 42.9791C80.8109 42.9306 81.1069 42.9396 81.3927 43.0056C84.1232 43.5687 86.9043 43.8493 89.6922 43.8428C93.5991 43.8428 98.8344 43.1228 101.77 39.9359C104.706 36.7489 105.007 31.3071 102.613 23.8337C102.524 23.5544 102.49 23.2603 102.514 22.9681C102.539 22.6759 102.62 22.3913 102.754 22.1306C102.889 21.8699 103.073 21.6382 103.297 21.4487C103.52 21.2593 103.779 21.1157 104.059 21.0263C104.338 20.9369 104.632 20.9033 104.924 20.9276C105.216 20.9518 105.501 21.0334 105.762 21.1676C106.022 21.3019 106.254 21.4861 106.444 21.7099C106.633 21.9337 106.777 22.1926 106.866 22.4718C109.785 31.5862 109.177 38.4847 105.052 42.9665C101.095 47.2586 94.7321 48.3079 89.4355 48.3079Z" fill="#F47B20"/>
<path d="M15.3152 79.0401C14.7357 79.0392 14.1793 78.813 13.7636 78.4094C11.4641 76.1769 0 64.7798 0 58.2161C0 51.0609 16.4091 46.579 21.4435 45.379C21.7302 45.3063 22.0285 45.2913 22.321 45.3349C22.6135 45.3784 22.8945 45.4796 23.1476 45.6327C23.4006 45.7857 23.6208 45.9875 23.7952 46.2264C23.9697 46.4652 24.0949 46.7363 24.1636 47.024C24.2324 47.3116 24.2434 47.6101 24.1958 47.902C24.1483 48.1939 24.0432 48.4734 23.8867 48.7244C23.7302 48.9753 23.5254 49.1927 23.2842 49.3639C23.043 49.535 22.7702 49.6565 22.4816 49.7213C13.0548 51.9539 4.46507 56.0282 4.46507 58.2161C4.46507 61.6654 11.7208 70.2272 16.8612 75.2002C17.1815 75.5088 17.4022 75.9061 17.4952 76.341C17.5881 76.776 17.549 77.2288 17.3829 77.6414C17.2168 78.054 16.9312 78.4076 16.5628 78.6568C16.1944 78.906 15.76 79.0395 15.3152 79.0401Z" fill="#F47B20"/>
<path d="M37.8359 111.281C37.3483 111.281 36.8743 111.121 36.4863 110.826C36.0982 110.53 35.8176 110.116 35.6871 109.646C32.2211 97.183 37.9643 84.7813 39.8564 80.7069C40.0071 80.3776 40.1745 80.0204 40.2527 79.8362C40.3708 79.3197 40.6688 78.862 41.0934 78.5451C41.518 78.2281 42.0415 78.0725 42.5703 78.106C43.0991 78.1396 43.5988 78.3601 43.9799 78.7282C44.361 79.0963 44.5988 79.588 44.6508 80.1153C44.7177 80.8297 44.5168 81.2706 43.9084 82.5822C42.1894 86.2882 36.9597 97.5681 40.0015 108.452C40.0936 108.784 40.1077 109.132 40.0427 109.47C39.9777 109.809 39.8353 110.127 39.6266 110.401C39.418 110.675 39.1488 110.897 38.8401 111.05C38.5314 111.203 38.1915 111.282 37.8471 111.281H37.8359Z" fill="#F47B20"/>
<path d="M53.5529 91.0441C73.7278 91.0441 90.0828 74.6891 90.0828 54.5142C90.0828 34.3394 73.7278 17.9844 53.5529 17.9844C33.3781 17.9844 17.0231 34.3394 17.0231 54.5142C17.0231 74.6891 33.3781 91.0441 53.5529 91.0441Z" fill="#FEEFD2"/>
<path d="M53.553 17.9898C60.7782 17.9898 67.8411 20.1324 73.8485 24.1466C79.8559 28.1608 84.538 33.8663 87.3027 40.5416C90.0674 47.2168 90.7905 54.5621 89.3806 61.6483C87.9706 68.7346 84.4909 75.2436 79.3816 80.3521C74.2722 85.4607 67.7627 88.9394 60.6762 90.3483C53.5897 91.7572 46.2446 91.033 39.5698 88.2672C32.8949 85.5015 27.1901 80.8185 23.1768 74.8105C19.1635 68.8025 17.022 61.7392 17.0231 54.5141C17.0231 49.7172 17.968 44.9672 19.8039 40.5355C21.6398 36.1038 24.3306 32.0772 27.7228 28.6855C31.115 25.2939 35.1421 22.6036 39.574 20.7684C44.006 18.9332 48.7561 17.989 53.553 17.9898ZM53.553 17.4316C46.2144 17.4316 39.0406 19.6078 32.9387 23.6849C26.8369 27.762 22.0811 33.557 19.2727 40.337C16.4643 47.117 15.7295 54.5776 17.1612 61.7752C18.5929 68.9728 22.1268 75.5842 27.316 80.7734C32.5052 85.9626 39.1166 89.4965 46.3142 90.9282C53.5118 92.3599 60.9724 91.6251 67.7524 88.8167C74.5324 86.0083 80.3274 81.2525 84.4045 75.1507C88.4816 69.0488 90.6578 61.875 90.6578 54.5364C90.6459 44.6992 86.7329 35.2684 79.777 28.3124C72.821 21.3565 63.3902 17.4435 53.553 17.4316Z" fill="#F47B20"/>
<path d="M41.5308 52.0697C43.1337 52.0697 44.4331 48.9861 44.4331 45.1823C44.4331 41.3785 43.1337 38.2949 41.5308 38.2949C39.9279 38.2949 38.6285 41.3785 38.6285 45.1823C38.6285 48.9861 39.9279 52.0697 41.5308 52.0697Z" fill="#F47B20"/>
<path d="M65.5808 52.0697C67.1837 52.0697 68.4831 48.9861 68.4831 45.1823C68.4831 41.3785 67.1837 38.2949 65.5808 38.2949C63.9779 38.2949 62.6785 41.3785 62.6785 45.1823C62.6785 48.9861 63.9779 52.0697 65.5808 52.0697Z" fill="#F47B20"/>
<path d="M53.553 78.4241C41.8712 78.4241 32.3439 71.1292 32.3439 62.1712C32.3439 61.9491 32.4321 61.7362 32.5891 61.5792C32.7461 61.4222 32.959 61.334 33.1811 61.334C33.4031 61.334 33.6161 61.4222 33.7731 61.5792C33.9301 61.7362 34.0183 61.9491 34.0183 62.1712C34.0183 70.2083 42.7754 76.7497 53.553 76.7497C64.3305 76.7497 73.0877 70.2083 73.0877 62.1712C73.0877 61.9491 73.1759 61.7362 73.3329 61.5792C73.4899 61.4222 73.7028 61.334 73.9249 61.334C74.1469 61.334 74.3598 61.4222 74.5168 61.5792C74.6738 61.7362 74.7621 61.9491 74.7621 62.1712C74.7397 71.1292 65.2347 78.4241 53.553 78.4241Z" fill="#F47B20"/>
<path d="M97.9359 27.0157C97.9359 27.0157 88.3193 16.9135 87.6774 14.3851C87.0355 11.8568 89.709 11.5052 91.4671 12.9117C93.2252 14.3182 96.4066 18.1581 96.4066 18.1581C96.4066 18.1581 92.6839 3.42339 93.5657 1.66526C94.4476 -0.092859 108.194 -1.17564 109.874 5.18151C111.428 11.5074 112.363 17.9694 112.665 24.4762L97.9359 27.0157Z" fill="white"/>
<path d="M97.9357 27.3004C97.8969 27.3018 97.8582 27.2945 97.8224 27.279C97.7867 27.2636 97.7549 27.2404 97.7292 27.2111C97.333 26.7981 88.0512 17.0252 87.3982 14.4522C87.041 13.0345 87.6717 12.3871 88.0791 12.1247C89.0112 11.5331 90.5126 11.7787 91.6512 12.6829C93.1426 14.0345 94.5411 15.4852 95.8372 17.0252C94.933 13.3303 92.5274 3.07181 93.3144 1.51462C93.8725 0.398347 98.0641 -0.282576 101.921 0.113699C104.578 0.392766 109.177 1.40299 110.159 5.08667C112.598 14.307 112.95 24.3423 112.95 24.4428C112.952 24.5119 112.93 24.5797 112.887 24.634C112.844 24.6882 112.783 24.7253 112.715 24.7386L97.9692 27.2781L97.9357 27.3004ZM89.2735 12.3871C88.9646 12.3787 88.6594 12.4559 88.3917 12.6103C87.9061 12.9229 87.7554 13.5089 87.9563 14.2847C88.4419 16.2047 94.6986 23.1646 98.0362 26.6753L112.38 24.2083C112.308 22.6009 111.822 13.5759 109.59 5.23179C108.708 1.88298 104.36 0.9509 101.854 0.688577C97.9469 0.28114 94.1795 1.05136 93.8167 1.77136C93.2028 2.99367 95.1953 12.1861 96.6799 18.0633C96.6959 18.1271 96.6896 18.1945 96.6623 18.2543C96.6349 18.3142 96.588 18.3629 96.5293 18.3926C96.4706 18.4198 96.4048 18.4274 96.3415 18.4144C96.2781 18.4013 96.2207 18.3682 96.1776 18.32C96.1441 18.281 92.9795 14.5136 91.2772 13.1294C90.7083 12.6698 90.0046 12.4091 89.2735 12.3871Z" fill="#F47B20"/>
<path d="M112.015 23.2232L97.3344 25.751C96.1223 25.9597 95.309 27.1115 95.5177 28.3236L95.5679 28.6151C95.7766 29.8272 96.9283 30.6405 98.1404 30.4318L112.821 27.904C114.033 27.6953 114.846 26.5435 114.638 25.3314L114.588 25.0399C114.379 23.8278 113.227 23.0144 112.015 23.2232Z" fill="white"/>
<path d="M97.7572 30.7713C97.1623 30.767 96.5882 30.5523 96.1366 30.165C95.685 29.7778 95.3851 29.2432 95.2902 28.6559L95.24 28.3601C95.1839 28.0351 95.1923 27.7021 95.2649 27.3803C95.3375 27.0585 95.4727 26.7542 95.663 26.4847C95.8532 26.2152 96.0946 25.9858 96.3735 25.8096C96.6524 25.6334 96.9632 25.5139 97.2883 25.4578L111.967 22.9574C112.292 22.9005 112.626 22.9085 112.948 22.9807C113.27 23.053 113.574 23.1882 113.844 23.3785C114.114 23.5688 114.343 23.8106 114.519 24.0898C114.695 24.3691 114.814 24.6803 114.87 25.0057L114.925 25.3016C114.981 25.627 114.973 25.9603 114.9 26.2825C114.827 26.6046 114.691 26.9091 114.5 27.1787C114.31 27.4483 114.067 27.6776 113.788 27.8535C113.508 28.0294 113.197 28.1485 112.871 28.2039L98.1869 30.7322C98.0448 30.756 97.9012 30.7691 97.7572 30.7713ZM112.397 23.5155C112.287 23.5073 112.177 23.5073 112.068 23.5155L97.3832 26.0271C97.1324 26.069 96.8924 26.1601 96.677 26.2952C96.4616 26.4303 96.2751 26.6067 96.1283 26.8143C95.9814 27.0218 95.8771 27.2564 95.8214 27.5045C95.7657 27.7526 95.7597 28.0092 95.8037 28.2597L95.8483 28.5387C95.8909 28.7892 95.9824 29.0288 96.1177 29.2438C96.253 29.4588 96.4294 29.645 96.6368 29.7918C96.8442 29.9385 97.0785 30.0429 97.3263 30.0989C97.5741 30.1549 97.8305 30.1615 98.0809 30.1183L112.771 27.5899C113.275 27.5012 113.724 27.2169 114.02 26.7987C114.316 26.3806 114.435 25.8626 114.35 25.3574L114.3 25.0616C114.219 24.6151 113.985 24.211 113.637 23.9194C113.289 23.6278 112.851 23.4672 112.397 23.4653V23.5155Z" fill="#F47B20"/>
<path d="M105.532 19.8832C105.49 19.8826 105.449 19.8728 105.411 19.8544C105.374 19.8361 105.341 19.8097 105.314 19.7771C103.858 18.1027 102.272 17.1483 100.615 17.0367C99.1599 16.9821 97.7345 17.4559 96.6018 18.3706C96.5746 18.4009 96.5413 18.4252 96.504 18.4418C96.4668 18.4583 96.4265 18.4669 96.3857 18.4669C96.345 18.4668 96.3047 18.4582 96.2675 18.4416C96.2303 18.425 96.197 18.4007 96.1698 18.3703C96.1426 18.34 96.1221 18.3042 96.1096 18.2654C96.0971 18.2266 96.093 18.1856 96.0974 18.1451C96.1018 18.1046 96.1147 18.0655 96.1353 18.0303C96.1559 17.9951 96.1836 17.9646 96.2167 17.9409C97.4574 16.9157 99.035 16.3886 100.643 16.4618C102.468 16.5846 104.187 17.5781 105.75 19.4032C105.775 19.4319 105.794 19.4653 105.806 19.5015C105.818 19.5377 105.822 19.576 105.819 19.614C105.816 19.652 105.805 19.689 105.788 19.7227C105.77 19.7565 105.746 19.7864 105.716 19.8106C105.692 19.8343 105.663 19.8529 105.631 19.8653C105.6 19.8778 105.566 19.8839 105.532 19.8832Z" fill="#F47B20"/>
<path d="M20.1375 70.7617C20.1375 70.7617 25.3895 77.2975 26.8016 80.25C28.2137 83.2025 24.6249 90.6313 22.1858 92.4285C19.7468 94.2257 9.49386 94.7336 9.34874 92.4285C9.20363 90.1234 13.691 89.8722 13.691 89.8722C13.691 89.8722 9.60549 88.3262 11.0176 83.3253L8.22131 76.41L20.1375 70.7617Z" fill="white"/>
<path d="M14.4054 94.2595C12.625 94.2595 11.0064 94.0586 10.0631 93.6121C9.43803 93.3163 9.10315 92.9256 9.08082 92.4456C9.03617 91.6865 9.40454 90.6484 11.4027 90.0121C11.8542 89.8725 12.3148 89.7643 12.7812 89.6884C11.6203 88.907 9.73384 87.0093 10.7273 83.3424L7.93665 76.522C7.90645 76.4546 7.90417 76.378 7.93033 76.309C7.95648 76.24 8.00892 76.1841 8.07618 76.1536L20.0035 70.4997C20.0617 70.4727 20.1272 70.4656 20.1899 70.4798C20.2525 70.4939 20.3086 70.5284 20.3495 70.5779C20.5616 70.8458 25.6407 77.1806 27.0472 80.122C28.4537 83.0633 24.9542 90.7265 22.3421 92.6577C21.0026 93.6567 17.4696 94.2595 14.4054 94.2595ZM8.58408 76.5388L11.2966 83.2364C11.3188 83.2977 11.3188 83.3648 11.2966 83.4261C9.97384 88.12 13.6408 89.5656 13.7971 89.627C13.8581 89.6512 13.9093 89.6951 13.9427 89.7517C13.976 89.8083 13.9896 89.8744 13.9812 89.9395C13.9703 90.0045 13.938 90.0639 13.8894 90.1083C13.8409 90.1528 13.7789 90.1798 13.7133 90.1851C13.6687 90.1851 9.53291 90.4419 9.64454 92.4177C9.64454 92.6688 9.87895 92.8977 10.2976 93.0986C12.6919 94.2149 20.0202 93.6567 22.0184 92.2C24.4407 90.414 27.862 83.1359 26.5448 80.3787C25.289 77.7611 20.9021 72.1909 20.0537 71.1249L8.58408 76.5388Z" fill="#F47B20"/>
<path d="M19.0869 67.9816L6.3395 75.6895C5.28703 76.3259 4.94974 77.695 5.58613 78.7475L5.73919 79.0006C6.37559 80.0531 7.74468 80.3904 8.79714 79.754L21.5445 72.046C22.597 71.4096 22.9343 70.0405 22.2979 68.9881L22.1449 68.7349C21.5085 67.6825 20.1394 67.3452 19.0869 67.9816Z" fill="white"/>
<path d="M7.6632 80.3724C7.46023 80.3702 7.25811 80.3459 7.06042 80.2998C6.73906 80.221 6.43649 80.0793 6.17018 79.8829C5.90387 79.6865 5.67909 79.4394 5.50881 79.1557L5.35253 78.8989C5.01108 78.3276 4.90923 77.6445 5.06918 76.9984C5.22913 76.3524 5.63791 75.7957 6.20647 75.4496L18.9598 67.7418C19.242 67.571 19.5551 67.4575 19.8811 67.4077C20.2072 67.3579 20.5399 67.3728 20.8602 67.4516C21.1805 67.5304 21.4821 67.6715 21.7479 67.8668C22.0137 68.0622 22.2383 68.308 22.4091 68.5902L22.5654 68.8469C22.7367 69.1292 22.8505 69.4426 22.9002 69.769C22.95 70.0955 22.9348 70.4285 22.8554 70.7491C22.7761 71.0696 22.6342 71.3713 22.4378 71.6368C22.2415 71.9023 21.9946 72.1264 21.7114 72.2962L8.95807 80.0096C8.56779 80.2468 8.1199 80.3723 7.6632 80.3724ZM20.2547 67.9539C19.9025 67.9546 19.5572 68.0511 19.2556 68.233L6.50228 75.9464C6.06384 76.2125 5.74886 76.6417 5.62644 77.1397C5.50402 77.6378 5.58416 78.1641 5.84927 78.6031L5.99996 78.8598C6.26714 79.2987 6.69729 79.6138 7.19626 79.7361C7.69522 79.8585 8.22236 79.7782 8.66226 79.5129L21.4156 71.805C21.8544 71.5379 22.1695 71.1077 22.2919 70.6087C22.4143 70.1098 22.334 69.5826 22.0686 69.1427L21.9179 68.8916C21.7448 68.6029 21.4992 68.3645 21.2055 68.2C20.9118 68.0356 20.5802 67.9507 20.2435 67.9539H20.2547Z" fill="#F47B20"/>
<path d="M44.6172 107.236C44.6172 107.236 28.8667 104.161 28.7383 105.701C28.6099 107.242 29.2518 119.805 29.2518 119.805C29.2518 119.805 14.1821 127.898 16.4984 128.925C18.8147 129.952 44.6172 125.186 44.6172 125.186V107.236Z" fill="white"/>
<path d="M17.8044 129.365C17.3242 129.394 16.8425 129.34 16.3812 129.203C16.2655 129.161 16.165 129.085 16.0924 128.986C16.0199 128.887 15.9786 128.768 15.9738 128.645C15.9738 128.293 15.9235 127.356 22.5821 123.309C25.4006 121.596 28.2527 120.033 28.9504 119.653C28.8722 118.04 28.3309 107.146 28.4481 105.7C28.4575 105.623 28.4828 105.55 28.5221 105.483C28.5615 105.417 28.6142 105.36 28.6769 105.315C30.1336 104.199 42.2563 106.509 44.673 106.989C44.7375 107.002 44.7956 107.037 44.8373 107.088C44.879 107.139 44.9018 107.203 44.9019 107.268V125.218C44.9029 125.285 44.8799 125.351 44.837 125.403C44.794 125.455 44.7339 125.491 44.6674 125.503C42.3009 125.921 23.4751 129.365 17.8044 129.365ZM30.3178 105.56C29.5978 105.56 29.1346 105.627 29.0118 105.778C28.9001 107.246 29.5308 119.681 29.5364 119.81C29.5403 119.864 29.5281 119.919 29.5013 119.966C29.4745 120.014 29.4343 120.053 29.3857 120.078C23.0453 123.488 16.5096 127.618 16.5486 128.628C16.5486 128.628 16.5486 128.662 16.6156 128.684C18.424 129.488 37.0043 126.317 44.327 124.967V107.497C38.7624 106.409 32.8908 105.56 30.3178 105.56Z" fill="#F47B20"/>
<path d="M88.7769 95.1406C88.7769 95.1406 78.6132 97.5183 76.2747 106.677L89.6699 125.14L107.837 99.7843L94.4419 104.372L88.7769 95.1406Z" fill="white"/>
<path d="M89.6588 125.426C89.6131 125.427 89.5678 125.417 89.527 125.396C89.4861 125.376 89.4509 125.346 89.4244 125.308L76.0292 106.845C76.004 106.811 75.9869 106.772 75.9792 106.731C75.9715 106.689 75.9733 106.646 75.9845 106.605C78.3343 97.385 88.5983 94.8846 88.6988 94.8567C88.7584 94.8433 88.8206 94.849 88.8768 94.8731C88.9329 94.8971 88.98 94.9383 89.0114 94.9906L94.5201 104.027L107.72 99.5115C107.778 99.4922 107.84 99.4915 107.898 99.5096C107.956 99.5276 108.007 99.5634 108.044 99.612C108.08 99.6611 108.1 99.7208 108.1 99.7822C108.1 99.8436 108.08 99.9033 108.044 99.9524L89.8765 125.308C89.8487 125.344 89.8132 125.374 89.7727 125.394C89.7321 125.414 89.6874 125.425 89.642 125.426H89.6588ZM76.5873 106.622L89.6532 124.65L107.067 100.349L94.4978 104.646C94.4362 104.665 94.3702 104.663 94.3098 104.641C94.2493 104.619 94.1978 104.578 94.1629 104.524L88.643 95.4706C87.2253 95.8669 78.7305 98.5459 76.5873 106.622Z" fill="#F47B20"/>
<path d="M90.4009 125.826C85.4391 121.919 90.8865 115.752 96.0939 108.836C99.8334 103.864 106.765 97.791 110.12 100.42C113.977 103.439 96.2893 130.442 90.4009 125.826Z" fill="#D1D3D4"/>
<path d="M91.9861 126.648C91.3472 126.656 90.7246 126.445 90.2224 126.05C85.4615 122.316 89.8708 116.529 94.5424 110.423C94.9777 109.864 95.4242 109.273 95.8595 108.687C98.9125 104.629 103.874 100.047 107.58 99.5613C108.058 99.4776 108.549 99.4923 109.021 99.6046C109.493 99.7169 109.937 99.9243 110.326 100.214C110.885 100.661 111.091 101.515 110.918 102.754C110.086 108.586 100.369 123.634 93.7889 126.279C93.2171 126.516 92.6051 126.641 91.9861 126.648ZM90.5796 125.598C91.3163 126.156 92.3154 126.218 93.5489 125.721C99.4428 123.355 109.45 108.77 110.321 102.653C110.421 101.95 110.432 101.035 109.941 100.65C109.614 100.403 109.239 100.227 108.841 100.131C108.443 100.035 108.029 100.021 107.625 100.092C104.276 100.532 99.3981 104.903 96.3228 109.022L95 110.763C90.3117 116.903 86.2652 122.227 90.5796 125.609V125.598Z" fill="#F47B20"/>
<path d="M28.7607 55.5468C31.2144 55.5468 33.2035 54.2823 33.2035 52.7226C33.2035 51.1629 31.2144 49.8984 28.7607 49.8984C26.3071 49.8984 24.318 51.1629 24.318 52.7226C24.318 54.2823 26.3071 55.5468 28.7607 55.5468Z" fill="white"/>
<path d="M78.3509 55.5468C80.8046 55.5468 82.7937 54.2823 82.7937 52.7226C82.7937 51.1629 80.8046 49.8984 78.3509 49.8984C75.8973 49.8984 73.9082 51.1629 73.9082 52.7226C73.9082 54.2823 75.8973 55.5468 78.3509 55.5468Z" fill="white"/>
</svg>
