<svg width="190" height="142" viewBox="0 0 190 142" fill="none" xmlns="http://www.w3.org/2000/svg">
<path d="M62.8729 112.828C62.8729 112.828 64.6763 98.1173 65.7129 94.9034C66.7495 91.6894 66.456 60.8991 66.4892 60.5867C66.5223 60.2743 49.8373 68.5908 48.3794 71.0663C46.9216 73.5418 50.7177 89.6872 49.6527 92.0208C48.5877 94.3543 45.1182 104.578 45.1182 104.578L62.8729 112.828Z" fill="white"/>
<path d="M62.8724 113.066C62.838 113.065 62.8042 113.056 62.773 113.042L45.0135 104.792C44.9597 104.769 44.9166 104.726 44.8929 104.673C44.8692 104.619 44.8666 104.558 44.8857 104.503C45.0277 104.082 48.3789 94.2364 49.4344 91.9218C49.9078 90.8947 49.3208 86.6442 48.7528 82.5356C48.0665 77.523 47.3328 72.34 48.1706 70.9484C49.0084 69.5568 53.808 66.7784 57.7272 64.6531C59.0147 63.9573 66.1005 60.218 66.5549 60.3552C66.6072 60.3731 66.652 60.408 66.682 60.4543C66.7121 60.5007 66.7257 60.5558 66.7206 60.6108C66.7206 60.6818 66.7206 61.5149 66.7206 62.6604C66.7442 69.9734 66.8152 92.22 65.9254 94.9796C64.9124 98.132 63.1232 112.711 63.0854 112.857C63.0757 112.914 63.0469 112.965 63.0038 113.003C62.9608 113.041 62.906 113.063 62.8487 113.066H62.8724ZM45.4064 104.451L62.6783 112.498C62.9528 110.273 64.5243 97.8243 65.4804 94.8565C66.0532 93.0768 66.3135 82.2516 66.252 62.6698C66.252 61.7232 66.252 61.193 66.252 60.9043C64.0557 61.7752 49.8794 68.9841 48.5824 71.1946C47.8488 72.4442 48.5824 77.7739 49.2309 82.4741C49.8557 87.0323 50.3953 90.9941 49.8699 92.1254C48.8996 94.2317 45.9128 103.007 45.4064 104.451Z" fill="#F47B20"/>
<path d="M62.6078 125.746L65.462 106.718L46.0506 97.1094L36.2432 124.785L62.6078 125.746Z" fill="#F47B20"/>
<path d="M62.6077 125.983L36.2477 125.036C36.2105 125.036 36.1739 125.027 36.1409 125.01C36.108 124.992 36.0797 124.967 36.0584 124.937C36.0379 124.906 36.0247 124.871 36.0197 124.834C36.0148 124.797 36.0183 124.759 36.03 124.724L45.828 97.0339C45.8404 97.0029 45.8589 96.9747 45.8825 96.9511C45.9061 96.9275 45.9342 96.9089 45.9652 96.8965C45.9962 96.8841 46.0294 96.8781 46.0628 96.879C46.0962 96.8798 46.129 96.8874 46.1593 96.9014L65.566 106.51C65.6119 106.531 65.6496 106.566 65.6735 106.611C65.6974 106.655 65.7062 106.706 65.6985 106.756L62.8585 125.784C62.8482 125.842 62.817 125.894 62.7708 125.931C62.7246 125.968 62.6666 125.986 62.6077 125.983ZM36.5743 124.563L62.4041 125.51L65.2015 106.86L46.1877 97.441L36.5743 124.563Z" fill="#F47B20"/>
<path d="M125.183 23.8125H65.8457C64.1727 23.8125 62.8164 25.1688 62.8164 26.8418V105.401C62.8164 107.074 64.1727 108.43 65.8457 108.43H125.183C126.856 108.43 128.212 107.074 128.212 105.401V26.8418C128.212 25.1688 126.856 23.8125 125.183 23.8125Z" fill="white"/>
<path d="M125.182 108.672H65.8404C64.9754 108.669 64.1466 108.324 63.5354 107.712C62.9242 107.1 62.5803 106.271 62.5791 105.406V26.8324C62.5803 25.9674 62.9242 25.1381 63.5354 24.526C64.1466 23.914 64.9754 23.5689 65.8404 23.5664H125.182C126.048 23.5677 126.878 23.9122 127.49 24.5244C128.102 25.1366 128.447 25.9666 128.448 26.8324V105.406C128.447 106.272 128.102 107.102 127.49 107.714C126.878 108.326 126.048 108.67 125.182 108.672ZM65.8404 24.0492C65.1005 24.0505 64.3914 24.3452 63.8687 24.8688C63.346 25.3924 63.0524 26.102 63.0524 26.8419V105.415C63.0524 106.155 63.346 106.865 63.8687 107.388C64.3914 107.912 65.1005 108.207 65.8404 108.208H125.182C125.922 108.207 126.632 107.912 127.155 107.389C127.679 106.865 127.974 106.155 127.975 105.415V26.8419C127.974 26.1016 127.679 25.392 127.155 24.8685C126.632 24.3451 125.922 24.0505 125.182 24.0492H65.8404Z" fill="#F47B20"/>
<path d="M124.203 29H66.8203V103.252H124.203V29Z" fill="white"/>
<path d="M124.203 103.491H66.8207C66.7579 103.491 66.6977 103.466 66.6533 103.421C66.6089 103.377 66.584 103.317 66.584 103.254V29.0023C66.584 28.9395 66.6089 28.8793 66.6533 28.8349C66.6977 28.7906 66.7579 28.7656 66.8207 28.7656H124.203C124.266 28.7656 124.326 28.7906 124.37 28.8349C124.415 28.8793 124.44 28.9395 124.44 29.0023V103.254C124.44 103.317 124.415 103.377 124.37 103.421C124.326 103.466 124.266 103.491 124.203 103.491ZM67.0573 103.017H123.966V29.239H67.0573V103.017Z" fill="#F47B20"/>
<path d="M110.509 20.8271H102.24C101.936 19.2614 101.097 17.8501 99.8672 16.8354C98.6369 15.8206 97.0918 15.2656 95.4971 15.2656C93.9023 15.2656 92.3572 15.8206 91.1269 16.8354C89.8966 17.8501 89.0578 19.2614 88.7544 20.8271H80.5184C79.9932 20.8271 79.4895 21.0354 79.1177 21.4063C78.7459 21.7772 78.5364 22.2804 78.5352 22.8056V29.7021C78.5364 30.2273 78.7459 30.7305 79.1177 31.1014C79.4895 31.4723 79.9932 31.6806 80.5184 31.6806H110.509C111.034 31.6806 111.537 31.4722 111.908 31.1011C112.279 30.7301 112.487 30.2268 112.487 29.7021V22.8009C112.486 22.277 112.277 21.7749 111.906 21.4049C111.535 21.0349 111.033 20.8271 110.509 20.8271ZM95.5136 21.7264C95.1652 21.7273 94.8243 21.6249 94.5341 21.432C94.2439 21.2391 94.0175 20.9644 93.8835 20.6427C93.7495 20.3211 93.7139 19.9669 93.7813 19.625C93.8488 19.2831 94.0161 18.9689 94.2621 18.7222C94.5082 18.4755 94.8219 18.3073 95.1636 18.239C95.5053 18.1707 95.8596 18.2053 96.1816 18.3384C96.5036 18.4715 96.7789 18.6972 96.9726 18.9869C97.1663 19.2765 97.2697 19.6172 97.2697 19.9656C97.2684 20.4314 97.0832 20.8778 96.7543 21.2076C96.4253 21.5375 95.9794 21.7239 95.5136 21.7264Z" fill="#F47B20"/>
<path d="M88.9295 52.7578H75.0703C75.0125 52.7578 74.9571 52.7348 74.9163 52.694C74.8755 52.6532 74.8525 52.5978 74.8525 52.5401V37.7295C74.8525 37.6717 74.8755 37.6163 74.9163 37.5755C74.9571 37.5347 75.0125 37.5117 75.0703 37.5117H88.9295C88.9868 37.5129 89.0415 37.5363 89.0821 37.5768C89.1227 37.6174 89.146 37.6721 89.1472 37.7295V52.5401C89.146 52.5974 89.1227 52.6521 89.0821 52.6927C89.0415 52.7332 88.9868 52.7566 88.9295 52.7578ZM75.288 52.3176H88.7117V37.9472H75.288V52.3176Z" fill="#9E9D9D"/>
<path d="M92.1771 41.352C92.1044 41.4747 92.0204 41.5904 91.9263 41.6976L82.9708 50.6483C82.9255 50.7197 82.8629 50.7784 82.7889 50.8191C82.7148 50.8599 82.6317 50.8812 82.5472 50.8812C82.4626 50.8812 82.3795 50.8599 82.3054 50.8191C82.2314 50.7784 82.1688 50.7197 82.1235 50.6483L77.0873 45.4416C77.0191 45.3971 76.9636 45.3357 76.9261 45.2634C76.8887 45.1911 76.8705 45.1103 76.8733 45.0289C76.8762 44.9476 76.9 44.8683 76.9425 44.7988C76.9849 44.7293 77.0446 44.6719 77.1157 44.6322L78.3795 43.4962C78.4235 43.4365 78.4809 43.388 78.547 43.3546C78.6132 43.3211 78.6863 43.3037 78.7605 43.3037C78.8346 43.3037 78.9078 43.3211 78.9739 43.3546C79.0401 43.388 79.0975 43.4365 79.1415 43.4962C80.1292 44.5092 81.1216 45.5205 82.1188 46.5303C82.1647 46.6016 82.2277 46.6603 82.3021 46.7009C82.3766 46.7416 82.46 46.7629 82.5448 46.7629C82.6296 46.7629 82.713 46.7416 82.7875 46.7009C82.8619 46.6603 82.9249 46.6016 82.9708 46.5303L89.9335 39.6244C89.9794 39.556 90.0414 39.5 90.1141 39.4613C90.1867 39.4226 90.2677 39.4023 90.3501 39.4023C90.4324 39.4023 90.5134 39.4226 90.5861 39.4613C90.6587 39.5 90.7207 39.556 90.7666 39.6244C91.1595 40.022 91.5523 40.4148 91.9405 40.8124C92.0277 40.9178 92.1083 41.0284 92.1819 41.1438L92.1771 41.352Z" fill="#F47B20"/>
<path d="M116.998 43.0261H97.0944C97.0416 43.0184 96.9933 42.9919 96.9584 42.9515C96.9235 42.911 96.9043 42.8594 96.9043 42.806C96.9043 42.7526 96.9235 42.701 96.9584 42.6606C96.9933 42.6202 97.0416 42.5937 97.0944 42.5859H116.998C117.051 42.5937 117.099 42.6202 117.134 42.6606C117.169 42.701 117.188 42.7526 117.188 42.806C117.188 42.8594 117.169 42.911 117.134 42.9515C117.099 42.9919 117.051 43.0184 116.998 43.0261Z" fill="#9E9D9D"/>
<path d="M111.706 47.6777H97.0947C97.0369 47.6777 96.9816 47.6547 96.9407 47.6139C96.8999 47.573 96.877 47.5177 96.877 47.4599C96.877 47.4022 96.8999 47.3468 96.9407 47.306C96.9816 47.2651 97.0369 47.2422 97.0947 47.2422H111.706C111.764 47.2422 111.82 47.2651 111.86 47.306C111.901 47.3468 111.924 47.4022 111.924 47.4599C111.924 47.5177 111.901 47.573 111.86 47.6139C111.82 47.6547 111.764 47.6777 111.706 47.6777Z" fill="#9E9D9D"/>
<path d="M88.9295 72.9796H75.0703C75.0416 72.9803 75.013 72.9751 74.9862 72.9644C74.9595 72.9536 74.9353 72.9376 74.9149 72.9173C74.8946 72.8969 74.8786 72.8727 74.8678 72.846C74.8571 72.8193 74.8519 72.7907 74.8526 72.7619V57.956C74.8526 57.8983 74.8755 57.8429 74.9164 57.8021C74.9572 57.7612 75.0126 57.7383 75.0703 57.7383H88.9295C88.9869 57.7395 89.0416 57.7628 89.0821 57.8034C89.1227 57.844 89.146 57.8986 89.1473 57.956V72.7619C89.1473 72.8196 89.1243 72.875 89.0835 72.9158C89.0427 72.9567 88.9873 72.9796 88.9295 72.9796ZM75.2881 72.5441H88.7118V58.1737H75.2881V72.5441Z" fill="#9E9D9D"/>
<path d="M92.1771 61.5747C92.1044 61.6974 92.0204 61.8131 91.9263 61.9202L82.9708 70.8615C82.9255 70.9329 82.8629 70.9916 82.7889 71.0323C82.7148 71.073 82.6317 71.0944 82.5472 71.0944C82.4626 71.0944 82.3795 71.073 82.3054 71.0323C82.2314 70.9916 82.1688 70.9329 82.1235 70.8615L77.0873 65.6548C77.0191 65.6102 76.9636 65.5488 76.9261 65.4765C76.8887 65.4042 76.8705 65.3235 76.8733 65.2421C76.8762 65.1607 76.9 65.0815 76.9425 65.012C76.9849 64.9425 77.0446 64.8851 77.1157 64.8454L78.3795 63.7094C78.4235 63.6497 78.4809 63.6012 78.547 63.5678C78.6132 63.5343 78.6863 63.5169 78.7605 63.5169C78.8346 63.5169 78.9078 63.5343 78.9739 63.5678C79.0401 63.6012 79.0975 63.6497 79.1415 63.7094C80.1292 64.7224 81.1216 65.7337 82.1188 66.7435C82.1647 66.8148 82.2277 66.8735 82.3021 66.9141C82.3766 66.9547 82.46 66.976 82.5448 66.976C82.6296 66.976 82.713 66.9547 82.7875 66.9141C82.8619 66.8735 82.9249 66.8148 82.9708 66.7435L89.9335 59.847C89.9794 59.7787 90.0414 59.7227 90.1141 59.684C90.1867 59.6453 90.2677 59.625 90.3501 59.625C90.4324 59.625 90.5134 59.6453 90.5861 59.684C90.6587 59.7227 90.7207 59.7787 90.7666 59.847C91.1595 60.2399 91.5523 60.6328 91.9405 61.0351C92.0277 61.1404 92.1083 61.2511 92.1819 61.3664L92.1771 61.5747Z" fill="#F47B20"/>
<path d="M116.998 63.2527H97.0944C97.0416 63.2449 96.9933 63.2184 96.9584 63.178C96.9235 63.1376 96.9043 63.086 96.9043 63.0326C96.9043 62.9792 96.9235 62.9276 96.9584 62.8872C96.9933 62.8468 97.0416 62.8203 97.0944 62.8125H116.998C117.051 62.8203 117.099 62.8468 117.134 62.8872C117.169 62.9276 117.188 62.9792 117.188 63.0326C117.188 63.086 117.169 63.1376 117.134 63.178C117.099 63.2184 117.051 63.2449 116.998 63.2527Z" fill="#9E9D9D"/>
<path d="M111.706 67.9042H97.0947C97.0369 67.9042 96.9816 67.8813 96.9407 67.8404C96.8999 67.7996 96.877 67.7442 96.877 67.6865C96.877 67.6287 96.8999 67.5734 96.9407 67.5325C96.9816 67.4917 97.0369 67.4687 97.0947 67.4688H111.706C111.764 67.4687 111.82 67.4917 111.86 67.5325C111.901 67.5734 111.924 67.6287 111.924 67.6865C111.924 67.7442 111.901 67.7996 111.86 67.8404C111.82 67.8813 111.764 67.9042 111.706 67.9042Z" fill="#9E9D9D"/>
<path d="M88.9295 93.1194H75.0703C75.0125 93.1194 74.9571 93.0965 74.9163 93.0556C74.8755 93.0148 74.8525 92.9594 74.8525 92.9017V78.1005C74.8525 78.0428 74.8755 77.9874 74.9163 77.9466C74.9571 77.9058 75.0125 77.8828 75.0703 77.8828H88.9295C88.9868 77.884 89.0415 77.9073 89.0821 77.9479C89.1227 77.9885 89.146 78.0432 89.1472 78.1005V92.9111C89.1437 92.9668 89.1193 93.0192 89.079 93.0578C89.0386 93.0963 88.9853 93.1183 88.9295 93.1194ZM75.288 92.6839H88.7117V78.3088H75.288V92.6839Z" fill="#9E9D9D"/>
<path d="M92.1771 81.7137C92.1044 81.8364 92.0204 81.952 91.9263 82.0592L82.9708 91.0005C82.6631 91.3081 82.4265 91.3129 82.1235 91.0005C80.4416 89.2681 78.7629 87.5325 77.0873 85.7938C77.0191 85.7492 76.9636 85.6878 76.9261 85.6155C76.8887 85.5432 76.8705 85.4625 76.8733 85.3811C76.8762 85.2997 76.9 85.2204 76.9425 85.151C76.9849 85.0815 77.0446 85.0241 77.1157 84.9844L78.3795 83.8484C78.4235 83.7887 78.4809 83.7402 78.547 83.7067C78.6132 83.6733 78.6863 83.6559 78.7605 83.6559C78.8346 83.6559 78.9078 83.6733 78.9739 83.7067C79.0401 83.7402 79.0975 83.7887 79.1415 83.8484L82.1188 86.8872C82.1647 86.9585 82.2277 87.0172 82.3021 87.0578C82.3766 87.0985 82.46 87.1197 82.5448 87.1197C82.6296 87.1197 82.713 87.0985 82.7875 87.0578C82.8619 87.0172 82.9249 86.9585 82.9708 86.8872L89.9335 79.9955C89.9794 79.9271 90.0414 79.8711 90.1141 79.8324C90.1867 79.7937 90.2677 79.7734 90.3501 79.7734C90.4324 79.7734 90.5134 79.7937 90.5861 79.8324C90.6587 79.8711 90.7207 79.9271 90.7666 79.9955C91.1595 80.3931 91.5523 80.7859 91.9405 81.1835C92.0277 81.2889 92.1083 81.3995 92.1819 81.5149L92.1771 81.7137Z" fill="#F47B20"/>
<path d="M116.998 83.3886H97.0947C97.0373 83.3874 96.9826 83.3641 96.9421 83.3235C96.9015 83.2829 96.8782 83.2282 96.877 83.1709C96.877 83.1131 96.8999 83.0577 96.9407 83.0169C96.9816 82.9761 97.0369 82.9531 97.0947 82.9531H116.998C117.056 82.9531 117.111 82.9761 117.152 83.0169C117.193 83.0577 117.216 83.1131 117.216 83.1709C117.215 83.2282 117.192 83.2829 117.151 83.3235C117.11 83.3641 117.056 83.3874 116.998 83.3886Z" fill="#9E9D9D"/>
<path d="M111.706 88.0409H97.0947C97.0369 88.0409 96.9816 88.018 96.9407 87.9772C96.8999 87.9363 96.877 87.8809 96.877 87.8232C96.8782 87.7658 96.9015 87.7112 96.9421 87.6706C96.9826 87.63 97.0373 87.6067 97.0947 87.6055H111.706C111.764 87.6067 111.819 87.63 111.859 87.6706C111.9 87.7112 111.923 87.7658 111.924 87.8232C111.924 87.8809 111.901 87.9363 111.86 87.9772C111.82 88.018 111.764 88.0409 111.706 88.0409Z" fill="#9E9D9D"/>
<path d="M53.7422 75.2098C57.2307 71.4231 61.3865 68.266 65.7317 65.4875C66.8062 64.7965 67.9658 64.1054 69.2438 64.0675C70.5218 64.0297 71.9135 64.9385 71.9513 66.2165C71.9797 67.2199 71.2224 68.053 70.5313 68.763L61.2398 78.1019C62.3644 80.2328 62.8388 82.647 62.604 85.0451C62.3693 87.4431 61.4357 89.7195 59.9192 91.5919" fill="white"/>
<path d="M59.9188 91.8274C59.8636 91.829 59.8098 91.8105 59.7673 91.7753C59.7196 91.7341 59.69 91.6758 59.6847 91.613C59.6794 91.5502 59.6988 91.4879 59.7389 91.4392C61.2185 89.6 62.129 87.3689 62.3585 85.0196C62.588 82.6703 62.1267 80.3051 61.0311 78.2143C61.0072 78.1693 60.9985 78.1179 61.0061 78.0676C61.0138 78.0173 61.0375 77.9708 61.0737 77.935L70.3463 68.6198C71.0515 67.9098 71.7426 67.143 71.7142 66.2532C71.6811 65.0935 70.3794 64.3078 69.2482 64.3598C68.1169 64.4119 66.962 65.0225 65.8591 65.7325C60.8086 68.9606 57.0125 72.0373 53.9169 75.4169C53.8742 75.4633 53.8148 75.4909 53.7518 75.4936C53.6888 75.4963 53.6273 75.4738 53.5808 75.4311C53.5344 75.3884 53.5068 75.329 53.5041 75.266C53.5015 75.203 53.5239 75.1415 53.5666 75.095C56.6906 71.687 60.5152 68.5867 65.6035 65.3302C66.7679 64.587 67.9228 63.9102 69.2387 63.9102C70.5546 63.9102 72.1449 64.8568 72.1875 66.2768C72.2207 67.356 71.4634 68.2128 70.6824 68.9938L61.5328 78.1291C62.65 80.2876 63.1108 82.726 62.8585 85.1434C62.6061 87.5608 61.6517 89.8514 60.1128 91.7327C60.0898 91.7622 60.0603 91.786 60.0267 91.8024C59.9931 91.8188 59.9562 91.8274 59.9188 91.8274Z" fill="#F47B20"/>
<path d="M134.961 103.221L123.502 111.429L102.079 84.9456C102.112 83.5256 101.132 77.2918 103.248 78.3189C105.364 79.346 113.254 88.3394 114.556 88.6328C115.858 88.9263 118.873 87.4495 118.418 84.5385C117.964 81.6275 117.415 76.7285 114.565 76.525C110.244 76.2173 106.225 79.0857 104.517 78.4183C102.808 77.7509 101.397 75.4836 104.185 73.808C107.376 71.9147 114.244 70.684 119.748 71.2804C125.253 71.8768 129.428 82.9528 129.816 91.0658C131.265 96.2251 134.062 100.925 134.961 103.221Z" fill="white"/>
<path d="M123.502 111.665C123.466 111.666 123.431 111.658 123.399 111.642C123.367 111.626 123.339 111.604 123.317 111.575L101.899 85.0971C101.862 85.0536 101.842 84.9982 101.842 84.9409C101.842 84.6569 101.814 84.1599 101.771 83.5872C101.586 81.0312 101.492 78.6929 102.363 78.0965C102.511 78.0062 102.681 77.9585 102.855 77.9585C103.029 77.9585 103.199 78.0062 103.347 78.0965C104.474 78.6314 107.058 81.2347 109.562 83.7529C111.664 85.8687 114.045 88.2637 114.608 88.3963C115.171 88.5288 116.354 88.2069 117.197 87.4212C117.589 87.0701 117.885 86.6254 118.058 86.1287C118.231 85.6321 118.275 85.0996 118.186 84.5812L118.096 84.0037C117.67 81.1969 117.027 76.9511 114.551 76.7712C112.236 76.6055 109.974 77.3818 108.161 78.0066C106.556 78.5557 105.293 78.9911 104.431 78.6645C103.902 78.4805 103.432 78.1575 103.071 77.7294C102.709 77.3014 102.47 76.7841 102.377 76.2316C102.315 75.5453 102.557 74.5323 104.062 73.6283C107.375 71.6355 114.428 70.4901 119.772 71.0675C125.57 71.7018 129.66 83.1233 130.053 91.0517C131.042 94.5638 132.67 97.8961 133.863 100.329C134.417 101.456 134.895 102.431 135.179 103.169C135.197 103.217 135.199 103.27 135.185 103.32C135.17 103.369 135.14 103.413 135.098 103.444L123.639 111.656C123.595 111.673 123.548 111.676 123.502 111.665ZM102.32 84.8652L123.54 111.107L134.668 103.136C134.384 102.445 133.939 101.541 133.432 100.509C132.23 98.0523 130.592 94.6869 129.584 91.1274C129.582 91.1101 129.582 91.0926 129.584 91.0753C129.22 83.502 125.201 72.1089 119.729 71.5125C114.466 70.9397 107.55 72.0568 104.313 74.0022C103.286 74.6223 102.784 75.3654 102.855 76.1606C102.938 76.6256 103.144 77.0599 103.452 77.4179C103.76 77.776 104.159 78.0447 104.606 78.1959C105.302 78.4563 106.556 78.0303 108.01 77.5285C109.87 76.8943 112.175 76.1085 114.589 76.2695C117.429 76.4777 118.12 80.946 118.57 83.9043L118.66 84.4818C118.761 85.0793 118.71 85.6926 118.512 86.2652C118.313 86.8377 117.973 87.3509 117.524 87.7573C116.653 88.5714 115.356 89.04 114.508 88.8459C113.841 88.6945 112.066 86.9526 109.231 84.0795C106.864 81.7128 104.199 79.0148 103.153 78.5131C102.822 78.3569 102.68 78.4563 102.633 78.4894C101.913 78.9627 102.131 81.9542 102.249 83.5493C102.282 84.1079 102.315 84.5575 102.32 84.8652Z" fill="#F47B20"/>
<path d="M94.9368 80.0039L95.4243 83.871L91.3394 83.109L89.1621 82.7019L91.169 81.7647L94.9368 80.0039Z" fill="white"/>
<path d="M95.4241 84.1081H95.3815L89.1193 82.939C89.07 82.9301 89.0249 82.9054 88.9908 82.8687C88.9566 82.832 88.9353 82.7853 88.93 82.7355C88.9231 82.6857 88.9322 82.635 88.956 82.5907C88.9799 82.5465 89.0171 82.511 89.0625 82.4893L94.8324 79.7961C94.8661 79.7786 94.9034 79.7695 94.9413 79.7695C94.9792 79.7695 95.0165 79.7786 95.0502 79.7961C95.0825 79.8148 95.11 79.8409 95.1305 79.8721C95.151 79.9033 95.164 79.9388 95.1685 79.9759L95.6418 83.8431C95.6444 83.8762 95.6403 83.9094 95.6297 83.9409C95.619 83.9723 95.6022 84.0013 95.5801 84.0261C95.5579 84.0508 95.531 84.0709 95.501 84.085C95.4709 84.0991 95.4384 84.1069 95.4052 84.1081H95.4241ZM89.9334 82.6029L95.1401 83.578L94.733 80.3546L89.9334 82.6029Z" fill="#F47B20"/>
<path d="M125.433 80.0641L95.419 83.8508C95.1048 83.2597 94.8935 82.6194 94.7942 81.9574C94.7259 81.2934 94.7724 80.6225 94.9315 79.9742L124.941 76.1875L125.433 80.0641Z" fill="#F47B20"/>
<path d="M95.4234 84.108C95.3821 84.1077 95.3416 84.0967 95.3059 84.0759C95.2702 84.0551 95.2405 84.0254 95.2199 83.9896C94.8883 83.375 94.6672 82.7069 94.5667 82.0158C94.4937 81.3236 94.5402 80.6239 94.704 79.9474C94.7153 79.9014 94.7404 79.8599 94.7759 79.8286C94.8114 79.7973 94.8557 79.7776 94.9028 79.7722L124.917 75.9619C124.979 75.9564 125.041 75.9748 125.091 76.0135C125.14 76.0522 125.173 76.1082 125.182 76.1702L125.655 80.0373C125.66 80.0682 125.659 80.0998 125.651 80.13C125.642 80.1603 125.628 80.1884 125.608 80.2124C125.589 80.2364 125.565 80.2563 125.538 80.271C125.512 80.2856 125.482 80.2947 125.452 80.2976L95.4424 84.108H95.4234ZM95.13 80.2219C95.0068 80.7923 94.9748 81.3786 95.0353 81.959C95.1202 82.5359 95.2977 83.0953 95.5607 83.6157L125.172 79.8574L124.742 76.4636L95.13 80.2219Z" fill="#F47B20"/>
<path d="M130.24 79.46L125.441 80.0688L124.951 76.2043L129.75 75.5955C130.034 75.5595 130.32 75.6377 130.546 75.813C130.773 75.9883 130.92 76.2463 130.956 76.5303L131.175 78.2536C131.211 78.5375 131.133 78.8242 130.957 79.0504C130.782 79.2767 130.524 79.424 130.24 79.46Z" fill="white"/>
<path d="M125.434 80.3001C125.376 80.2995 125.32 80.2782 125.277 80.24C125.233 80.2017 125.205 80.1492 125.197 80.0919L124.724 76.2247C124.72 76.1938 124.722 76.1625 124.73 76.1324C124.738 76.1024 124.752 76.0742 124.771 76.0496C124.81 76.0013 124.866 75.9692 124.927 75.9596L129.727 75.3538C130.073 75.3109 130.422 75.4068 130.698 75.6205C130.974 75.8342 131.154 76.1485 131.199 76.4945L131.417 78.2175C131.46 78.5638 131.364 78.913 131.15 79.1888C130.936 79.4646 130.622 79.6446 130.276 79.6895L125.476 80.2954L125.434 80.3001ZM125.206 76.3999L125.637 79.7984L130.205 79.2209C130.426 79.1903 130.627 79.0739 130.763 78.8968C130.899 78.7197 130.961 78.4961 130.934 78.2742L130.716 76.5513C130.702 76.4412 130.666 76.3349 130.611 76.2386C130.556 76.1422 130.482 76.0578 130.394 75.99C130.306 75.9223 130.206 75.8726 130.099 75.8438C129.991 75.8151 129.879 75.8078 129.769 75.8224L125.206 76.3999Z" fill="#F47B20"/>
<path d="M126.523 75.9967L125.974 76.0664L126.464 79.931L127.013 79.8613L126.523 75.9967Z" fill="#F47B20"/>
<path d="M127.614 75.86L127.064 75.9297L127.555 79.7942L128.104 79.7245L127.614 75.86Z" fill="#F47B20"/>
<path d="M91.169 81.7656L91.3394 83.1099L89.1621 82.7028L91.169 81.7656Z" fill="#F47B20"/>
<path d="M91.3529 83.3456H91.3056L89.133 82.9385C89.0837 82.9296 89.0386 82.9049 89.0044 82.8682C88.9703 82.8315 88.949 82.7848 88.9437 82.7349C88.9367 82.6852 88.9459 82.6345 88.9697 82.5902C88.9935 82.546 89.0308 82.5105 89.0762 82.4888L91.0784 81.5422C91.112 81.5247 91.1494 81.5156 91.1872 81.5156C91.2251 81.5156 91.2625 81.5247 91.2961 81.5422C91.3284 81.5609 91.3559 81.587 91.3764 81.6182C91.397 81.6494 91.41 81.6849 91.4145 81.722L91.5849 83.0615C91.5896 83.0949 91.5871 83.1289 91.5777 83.1612C91.5682 83.1935 91.5519 83.2234 91.53 83.249C91.508 83.2745 91.4809 83.2951 91.4503 83.3093C91.4198 83.3235 91.3866 83.331 91.3529 83.3314V83.3456ZM89.9329 82.6024L91.0642 82.8154L90.979 82.1149L89.9329 82.6024Z" fill="#F47B20"/>
<path d="M103.159 86.2809C103.159 86.2809 100.195 82.6031 99.3293 81.2447C97.9093 79.0295 101.398 77.0699 102.643 77.9976C103.537 78.6555 108.147 82.7309 109.075 83.6066" fill="white"/>
<path d="M103.158 86.5157C103.122 86.5159 103.087 86.5079 103.055 86.4923C103.023 86.4767 102.995 86.4539 102.973 86.4258C102.855 86.279 99.9961 82.7243 99.1299 81.3658C98.8326 80.912 98.7162 80.3631 98.8039 79.8277C98.8915 79.2923 99.1767 78.8091 99.6032 78.4738C100.479 77.6549 101.97 77.191 102.822 77.8064C103.674 78.4217 108.336 82.5397 109.273 83.4343C109.296 83.4557 109.314 83.4814 109.327 83.5099C109.34 83.5384 109.347 83.5692 109.348 83.6004C109.349 83.6316 109.343 83.6626 109.332 83.6918C109.321 83.721 109.304 83.7477 109.283 83.7704C109.261 83.793 109.236 83.8113 109.207 83.824C109.179 83.8368 109.148 83.8438 109.117 83.8447C109.086 83.8456 109.055 83.8403 109.025 83.8292C108.996 83.818 108.97 83.8013 108.947 83.7798C108 82.89 103.418 78.8335 102.538 78.1898C101.97 77.7732 100.725 78.0714 99.9251 78.8193C99.5892 79.0873 99.3646 79.4704 99.2946 79.8944C99.2247 80.3184 99.3144 80.7532 99.5464 81.115C100.398 82.4498 103.333 86.0944 103.361 86.1323C103.382 86.156 103.397 86.1835 103.406 86.2132C103.415 86.2429 103.418 86.2741 103.415 86.305C103.412 86.3359 103.403 86.3658 103.388 86.3931C103.373 86.4203 103.353 86.4443 103.328 86.4636C103.305 86.4833 103.278 86.4981 103.248 86.5071C103.219 86.516 103.188 86.5189 103.158 86.5157Z" fill="#F47B20"/>
<path d="M132.874 94.3008L116.662 106.603L124.202 126.738L153.09 125.323L132.874 94.3008Z" fill="#F47B20"/>
<path d="M124.203 126.977C124.155 126.978 124.107 126.963 124.068 126.936C124.028 126.909 123.997 126.871 123.98 126.826L116.44 106.69C116.421 106.643 116.419 106.591 116.432 106.543C116.446 106.494 116.475 106.451 116.516 106.42L132.727 94.1137C132.753 94.0937 132.783 94.0796 132.815 94.0722C132.847 94.0649 132.88 94.0645 132.912 94.0711C132.944 94.0766 132.974 94.0887 133.001 94.1066C133.028 94.1246 133.051 94.1479 133.068 94.1752L153.279 125.197C153.303 125.232 153.318 125.272 153.321 125.314C153.323 125.356 153.315 125.398 153.296 125.435C153.277 125.472 153.248 125.504 153.213 125.526C153.178 125.549 153.137 125.561 153.095 125.562L124.222 126.982L124.203 126.977ZM116.946 106.69L124.364 126.499L152.664 125.112L132.813 94.6675L116.946 106.69Z" fill="#F47B20"/>
</svg>
