<svg width="16" height="17" viewBox="0 0 16 17" fill="none" xmlns="http://www.w3.org/2000/svg">
<g clip-path="url(#clip0_76_13590)">
<path d="M2.66683 2.28027H13.3335L14.6668 4.94694V13.6136C14.6668 13.7904 14.5966 13.96 14.4716 14.085C14.3465 14.21 14.177 14.2803 14.0002 14.2803H2.00016C1.82335 14.2803 1.65378 14.21 1.52876 14.085C1.40373 13.96 1.3335 13.7904 1.3335 13.6136V4.94961L2.66683 2.28027ZM13.3335 6.28027H2.66683V12.9469H13.3335V6.28027ZM13.1762 4.94694L12.5095 3.61361H3.4915L2.82483 4.94694H13.1762ZM8.66683 9.61361H10.6668L8.00016 12.2803L5.3335 9.61361H7.3335V6.94694H8.66683V9.61361Z" fill="#F47B20"/>
</g>
<defs>
<clipPath id="clip0_76_13590">
<rect width="16" height="16" fill="white" transform="translate(0 0.280273)"/>
</clipPath>
</defs>
</svg>
