<svg width="235" height="116" viewBox="0 0 235 116" fill="none" xmlns="http://www.w3.org/2000/svg">
<path d="M198.93 32.5085C200.141 32.4882 201.344 32.7068 202.47 33.1519C203.597 33.597 204.624 34.2597 205.494 35.1023C206.365 35.9449 207.06 36.9507 207.541 38.0623C208.022 39.1739 208.279 40.3694 208.298 41.5805V104.888C208.262 106.988 207.395 108.989 205.887 110.451C204.379 111.913 202.353 112.718 200.253 112.69H111.063C108.963 112.718 106.937 111.913 105.429 110.451C103.921 108.989 103.054 106.988 103.018 104.888V30.7354C103.054 28.6353 103.921 26.6351 105.429 25.1728C106.937 23.7106 108.963 22.9054 111.063 22.9338H145.466C150.923 22.9338 155.343 27.2263 155.343 32.5138H198.93V32.5085Z" fill="#F47B20"/>
<path d="M200.237 112.955H111.063C108.892 112.984 106.798 112.152 105.24 110.64C103.682 109.127 102.788 107.059 102.753 104.888V30.7354C102.788 28.5646 103.682 26.4963 105.24 24.9841C106.798 23.4719 108.892 22.6394 111.063 22.6691H145.466C150.965 22.6691 155.459 26.9457 155.602 32.2545H198.929C204.222 32.2545 208.541 36.4411 208.541 41.5857V104.888C208.506 107.058 207.613 109.126 206.056 110.638C204.499 112.15 202.407 112.983 200.237 112.955ZM111.063 23.1931C109.031 23.1634 107.071 23.9409 105.612 25.3549C104.154 26.769 103.316 28.7041 103.282 30.7354V104.888C103.317 106.919 104.156 108.852 105.614 110.265C107.073 111.678 109.032 112.455 111.063 112.425H200.237C202.267 112.455 204.226 111.678 205.685 110.265C207.144 108.852 207.982 106.919 208.017 104.888V41.5805C208.017 36.7269 203.942 32.7731 198.929 32.7731H155.369C155.299 32.7731 155.232 32.7453 155.182 32.6956C155.132 32.646 155.104 32.5787 155.104 32.5085C155.104 27.3744 150.791 23.1931 145.493 23.1931H111.063Z" fill="#F47B20"/>
<path d="M117.525 102.305V3.72595H183.247L198.607 19.0911V100.596L117.525 102.305Z" fill="#FDDAA5"/>
<path d="M190.471 24.1881H124.258C124.223 24.1881 124.189 24.1812 124.157 24.1679C124.126 24.1545 124.097 24.1349 124.073 24.1103C124.049 24.0856 124.03 24.0564 124.017 24.0243C124.004 23.9923 123.998 23.958 123.999 23.9235C123.999 23.8542 124.026 23.7877 124.074 23.7382C124.123 23.6887 124.189 23.6602 124.258 23.6588H190.471C190.541 23.6602 190.607 23.6887 190.655 23.7382C190.704 23.7877 190.731 23.8542 190.731 23.9235C190.732 23.958 190.725 23.9923 190.713 24.0243C190.7 24.0564 190.681 24.0856 190.657 24.1103C190.633 24.1349 190.604 24.1545 190.572 24.1679C190.54 24.1812 190.506 24.1881 190.471 24.1881Z" fill="white"/>
<path d="M190.472 34.7633H124.258C124.188 34.7633 124.121 34.7354 124.071 34.6858C124.021 34.6362 123.993 34.5688 123.993 34.4987C123.993 34.4285 124.021 34.3612 124.071 34.3115C124.121 34.2619 124.188 34.234 124.258 34.234H190.472C190.542 34.234 190.609 34.2619 190.659 34.3115C190.708 34.3612 190.736 34.4285 190.736 34.4987C190.736 34.5688 190.708 34.6362 190.659 34.6858C190.609 34.7354 190.542 34.7633 190.472 34.7633Z" fill="white"/>
<path d="M190.471 45.3384H124.258C124.189 45.337 124.123 45.3086 124.074 45.2591C124.026 45.2096 123.999 45.1431 123.999 45.0738C123.998 45.0393 124.004 45.005 124.017 44.9729C124.03 44.9408 124.049 44.9116 124.073 44.887C124.097 44.8623 124.126 44.8427 124.157 44.8294C124.189 44.816 124.223 44.8091 124.258 44.8091H190.471C190.506 44.8091 190.54 44.816 190.572 44.8294C190.604 44.8427 190.633 44.8623 190.657 44.887C190.681 44.9116 190.7 44.9408 190.713 44.9729C190.725 45.005 190.732 45.0393 190.731 45.0738C190.731 45.1431 190.704 45.2096 190.655 45.2591C190.607 45.3086 190.541 45.337 190.471 45.3384Z" fill="white"/>
<path d="M190.472 55.9082H124.258C124.188 55.9082 124.121 55.8803 124.071 55.8307C124.021 55.7811 123.993 55.7137 123.993 55.6435C123.993 55.5734 124.021 55.5061 124.071 55.4564C124.121 55.4068 124.188 55.3789 124.258 55.3789H190.472C190.542 55.3789 190.609 55.4068 190.659 55.4564C190.708 55.5061 190.736 55.5734 190.736 55.6435C190.736 55.7137 190.708 55.7811 190.659 55.8307C190.609 55.8803 190.542 55.9082 190.472 55.9082Z" fill="white"/>
<path d="M133.176 11.48H124.448C124.378 11.48 124.311 11.4521 124.261 11.4025C124.212 11.3529 124.184 11.2856 124.184 11.2154C124.185 11.1456 124.214 11.0791 124.263 11.0298C124.312 10.9804 124.379 10.9521 124.448 10.9507H133.176C133.246 10.9521 133.312 10.9806 133.36 11.0301C133.409 11.0796 133.436 11.1461 133.436 11.2154C133.436 11.2499 133.43 11.2842 133.418 11.3163C133.405 11.3483 133.386 11.3776 133.362 11.4022C133.338 11.4269 133.309 11.4464 133.277 11.4598C133.245 11.4732 133.211 11.48 133.176 11.48Z" fill="white"/>
<path d="M93.1309 47.2808C93.4659 47.6857 93.6528 48.1928 93.6605 48.7183C93.6682 49.2438 93.4963 49.7562 93.1732 50.1707H93.3214" fill="white"/>
<path d="M68.8527 111.367L68.4028 114.659C68.4028 114.659 77.57 115.612 77.2207 114.818C76.5451 113.675 75.8065 112.57 75.0083 111.51" fill="white"/>
<path d="M79.1524 49.6785C79.3271 45.9047 78.5649 38.2512 78.5649 38.2512C78.5649 38.2512 83.3708 38.5265 84.9905 36.2135C86.97 37.7643 87.3775 42.1362 87.0176 43.4435C86.2978 46.0211 82.9474 45.4548 82.9474 45.4548L83.3761 50.176L79.1524 49.6785Z" fill="white"/>
<path d="M79.3534 40.9347C79.2931 40.6381 79.152 40.3639 78.9455 40.1425C78.7391 39.9211 78.4754 39.7612 78.1837 39.6803C78.053 39.6372 77.9145 39.6225 77.7776 39.6371C77.6407 39.6517 77.5085 39.6953 77.3898 39.765C77.2521 39.8833 77.1472 40.035 77.0851 40.2056C77.023 40.3761 77.0058 40.5598 77.0352 40.7389C77.0807 41.3114 77.3394 41.846 77.7603 42.2368C78.1844 42.6216 78.7385 42.8315 79.3111 42.8243" fill="white"/>
<path d="M88.9331 111.785C88.9331 111.785 88.7585 114.516 89.1131 114.96C89.4677 115.405 98.2591 115.95 97.8198 114.892C97.3805 113.833 94.6441 111.594 94.6441 111.594" fill="white"/>
<path d="M86.1973 38.7911C86.1973 38.7911 88.1292 40.993 87.6528 41.4693C87.1764 41.9457 86.0649 41.7075 86.0649 41.7075" fill="white"/>
<path d="M83.281 42.3214C83.3978 42.6119 83.5925 42.8645 83.8437 43.0513C84.095 43.2381 84.393 43.3518 84.7048 43.38C85.0131 43.3988 85.3218 43.3487 85.6083 43.2334C85.8949 43.118 86.1522 42.9403 86.3614 42.7131" fill="white"/>
<path d="M72.7626 51.0705C73.8688 51.4939 75.6948 51.8909 76.1659 50.3507C76.2416 50.077 76.265 49.7915 76.2347 49.5091C76.1955 49.0943 76.1211 48.6835 76.0124 48.2812C75.7179 47.1488 75.3265 46.0438 74.8427 44.9785C74.7263 44.7085 74.4987 44.3857 74.2234 44.4809C73.9482 44.5762 73.9482 44.8726 73.9535 45.1161C73.9535 45.8147 74.0699 46.5187 74.0541 47.2332C72.5827 46.8574 71.6564 45.3013 70.2591 44.9679C69.8621 44.8726 69.3858 44.8461 69.3434 45.3542C69.2905 45.9841 70.4285 46.4816 70.8095 46.8098C70.3846 46.4415 69.8946 46.1561 69.3646 45.9682C69.217 45.9018 69.0544 45.8763 68.8935 45.8941C68.8136 45.9039 68.7391 45.9398 68.6816 45.9962C68.6242 46.0527 68.5871 46.1266 68.576 46.2064C68.5861 46.3401 68.6467 46.4649 68.7453 46.5557C68.9617 46.8022 69.2029 47.0257 69.4652 47.2226C69.2027 46.9154 68.8449 46.7049 68.4489 46.6245C68.3511 46.5919 68.246 46.5886 68.1463 46.6149C68.0466 46.6412 67.9568 46.6961 67.8879 46.7727C67.7291 47.0427 68.0414 47.3391 68.3113 47.4926C68.0954 47.3015 67.8322 47.1717 67.5492 47.1168C67.4078 47.0929 67.2628 47.124 67.1437 47.2038C67.0246 47.2835 66.9405 47.4057 66.9087 47.5455C66.9154 47.6567 66.9458 47.7653 66.9979 47.8639C67.0499 47.9624 67.1224 48.0488 67.2104 48.1171C68.6607 49.5303 70.8995 50.3507 72.7626 51.0705Z" fill="white"/>
<path d="M74.536 51.7163C74.8791 51.7241 75.2194 51.6535 75.531 51.5099C75.7452 51.4056 75.935 51.2575 76.0882 51.0751C76.2414 50.8928 76.3545 50.6802 76.4202 50.4513C76.5059 50.1451 76.5329 49.8254 76.4996 49.5092C76.4565 49.0805 76.3804 48.6559 76.272 48.2389C75.9709 47.0927 75.5743 45.9738 75.0864 44.8938C74.8641 44.3645 74.4989 44.1316 74.139 44.2534C73.9273 44.3222 73.6733 44.5392 73.6891 45.1479C73.6891 45.4443 73.6891 45.746 73.7368 46.0477C73.7844 46.3494 73.7791 46.5769 73.7897 46.8733C73.2426 46.617 72.7362 46.2818 72.2865 45.8783C71.7281 45.3483 71.0567 44.9519 70.3229 44.7192C70.165 44.6629 69.997 44.6408 69.83 44.6545C69.663 44.6682 69.5009 44.7173 69.3543 44.7985C69.273 44.8617 69.2063 44.9417 69.1588 45.0331C69.1113 45.1244 69.0841 45.225 69.0791 45.3278C69.0707 45.4278 69.0815 45.5283 69.1108 45.6242C69.0231 45.611 68.9339 45.611 68.8462 45.6242C68.7082 45.6459 68.5814 45.7127 68.4856 45.8143C68.3898 45.9158 68.3305 46.0463 68.3169 46.1853C68.3139 46.2329 68.3139 46.2806 68.3169 46.3282C68.1901 46.3129 68.0615 46.3325 67.945 46.3847C67.8285 46.4369 67.7283 46.5198 67.6553 46.6246C67.6181 46.692 67.5931 46.7655 67.5812 46.8416C67.3402 46.817 67.0991 46.8872 66.909 47.0374C66.8369 47.0958 66.7773 47.168 66.7337 47.2499C66.6901 47.3317 66.6633 47.4214 66.6549 47.5138C66.655 47.6641 66.6888 47.8126 66.7539 47.9481C66.8189 48.0837 66.9135 48.2029 67.0307 48.2971C68.4545 49.6997 70.5611 50.5095 72.4241 51.2241L72.6729 51.3193C73.2659 51.5598 73.8965 51.6941 74.536 51.7163ZM74.319 44.7297C74.3825 44.7297 74.5095 44.8726 74.5995 45.0791C75.076 46.1317 75.4637 47.2223 75.7586 48.3395C75.8595 48.7307 75.932 49.1287 75.9756 49.5304C76.0011 49.7791 75.9796 50.0305 75.9121 50.2714C75.8722 50.4358 75.7965 50.5893 75.6904 50.7211C75.5843 50.8529 75.4503 50.9595 75.2982 51.0335C74.573 51.3881 73.4562 51.0335 72.8582 50.8218L72.6094 50.7265C70.7939 50.0279 68.7403 49.2392 67.3959 47.916C67.2954 47.8155 67.1631 47.6726 67.1736 47.5561C67.1766 47.5338 67.1842 47.5123 67.1961 47.4931C67.2079 47.474 67.2237 47.4576 67.2424 47.445C67.2813 47.413 67.3261 47.3891 67.3742 47.3746C67.4224 47.3601 67.4729 47.3552 67.523 47.3603C67.6666 47.3855 67.8024 47.4434 67.9199 47.5297C68.0023 47.5953 68.089 47.6554 68.1793 47.7096C68.2383 47.7424 68.3074 47.7519 68.373 47.7362C68.4387 47.7205 68.4961 47.6808 68.5339 47.6249C68.5704 47.5679 68.5841 47.4992 68.5723 47.4326C68.5606 47.3659 68.5242 47.3061 68.4704 47.265L68.2428 47.1009C68.1828 47.0567 68.1368 46.996 68.1105 46.9263C68.1369 46.8628 68.2428 46.8363 68.3963 46.8681C68.5604 46.8991 68.718 46.9582 68.8621 47.0427C69.005 47.175 69.1532 47.3021 69.3067 47.4185C69.3582 47.461 69.4239 47.4825 69.4905 47.4786C69.5572 47.4747 69.6199 47.4457 69.6662 47.3975C69.7124 47.3493 69.7386 47.2854 69.7397 47.2186C69.7408 47.1518 69.7165 47.0871 69.6719 47.0374C69.5314 46.8745 69.3672 46.7335 69.1849 46.6193C69.1002 46.5399 69.0208 46.4552 68.9414 46.3652C68.8621 46.2753 68.8409 46.217 68.8409 46.2064C68.8409 46.1959 68.8832 46.1482 68.9414 46.1376C69.0577 46.1327 69.1736 46.1544 69.2802 46.2012C69.4616 46.2668 69.6385 46.3446 69.8095 46.434C69.9524 46.5399 70.1006 46.6352 70.2435 46.7251C70.3771 46.8062 70.5061 46.8945 70.6299 46.9898C70.6848 47.0333 70.7542 47.0543 70.8241 47.0484C70.8939 47.0425 70.9588 47.0102 71.0057 46.958C71.0541 46.9086 71.0813 46.8421 71.0813 46.7728C71.0813 46.7035 71.0541 46.637 71.0057 46.5875C70.7351 46.3532 70.4385 46.1507 70.1218 45.9841C69.8465 45.783 69.5925 45.5554 69.6295 45.3543C69.6295 45.2379 69.6772 45.2061 69.6877 45.2008C69.6983 45.1955 69.8518 45.1161 70.217 45.2008C70.8728 45.4182 71.4715 45.78 71.969 46.2594C72.5502 46.8052 73.244 47.2171 74.0014 47.4661C74.0405 47.4757 74.0812 47.4763 74.1206 47.4681C74.16 47.4598 74.197 47.4429 74.229 47.4185C74.2602 47.3947 74.2858 47.3644 74.3041 47.3296C74.3224 47.2949 74.3329 47.2566 74.3349 47.2174C74.3387 46.8039 74.321 46.3905 74.2819 45.9789C74.2819 45.6877 74.2396 45.3966 74.2343 45.1055C74.229 44.8144 74.2766 44.7403 74.3243 44.7297C74.3719 44.7192 74.3137 44.7297 74.319 44.7297Z" fill="#F47B20"/>
<path d="M73.943 50.4354C73.9931 50.4363 74.0423 50.4227 74.0849 50.3962C74.1274 50.3698 74.1613 50.3316 74.1826 50.2862C74.2038 50.2409 74.2115 50.1904 74.2047 50.1408C74.1979 50.0911 74.1769 50.0446 74.1441 50.0067C73.8617 49.6396 73.7117 49.1878 73.7184 48.7246C73.7251 48.2615 73.8882 47.8143 74.1812 47.4555C74.23 47.4051 74.2573 47.3378 74.2573 47.2676C74.2573 47.1975 74.23 47.1301 74.1812 47.0797C74.1553 47.0567 74.1251 47.0391 74.0923 47.028C74.0596 47.0168 74.0249 47.0124 73.9904 47.0148C73.9558 47.0173 73.9221 47.0266 73.8913 47.0423C73.8604 47.058 73.833 47.0797 73.8107 47.1062C73.4686 47.5156 73.2619 48.0211 73.2193 48.5529C73.1766 49.0848 73.3 49.6167 73.5725 50.0755C73.567 50.0999 73.567 50.1252 73.5725 50.1496C73.5696 50.2194 73.5938 50.2877 73.6403 50.3401C73.6867 50.3924 73.7516 50.4247 73.8213 50.4301H73.9854L73.943 50.4354Z" fill="#F47B20"/>
<path d="M0.276397 35.4805L71.4138 28.6558L76.3567 80.178L5.21927 87.0027L0.276397 35.4805Z" fill="white"/>
<path d="M91.8437 115.421C93.8232 115.421 96.729 115.162 98.7244 114.95C98.7599 114.947 98.7944 114.937 98.8255 114.92C98.8566 114.902 98.8835 114.878 98.9043 114.849C98.927 114.823 98.9435 114.791 98.9527 114.757C98.9618 114.724 98.9634 114.688 98.9573 114.654L98.5074 111.356C98.4981 111.287 98.4618 111.224 98.4062 111.181C98.3506 111.138 98.2804 111.12 98.211 111.129C98.1415 111.138 98.0786 111.174 98.0359 111.23C97.9933 111.285 97.9744 111.355 97.9834 111.425L98.3962 114.452C94.8235 114.812 90.9862 115.029 90.1923 114.807C90.6634 113.923 92.3094 111.721 92.3094 111.695C92.3346 111.668 92.3538 111.635 92.3657 111.6C92.3775 111.565 92.3818 111.527 92.3783 111.49C92.3748 111.453 92.3635 111.417 92.3451 111.385C92.3268 111.353 92.3019 111.325 92.2719 111.303C92.242 111.28 92.2078 111.265 92.1714 111.257C92.1351 111.249 92.0975 111.249 92.0611 111.256C92.0247 111.264 91.9903 111.279 91.9601 111.301C91.9299 111.323 91.9047 111.35 91.886 111.383C91.0743 112.456 90.3267 113.577 89.6471 114.738C89.6187 114.796 89.607 114.86 89.6136 114.924C89.6201 114.987 89.6446 115.048 89.6842 115.098C89.8641 115.305 90.6951 115.421 91.8437 115.421Z" fill="#F47B20"/>
<path d="M68.354 60.5712C71.4238 60.5712 74.2449 58.8193 76.7908 57.242L77.1772 57.0038C77.2368 56.9666 77.2793 56.9072 77.2951 56.8388C77.311 56.7703 77.2991 56.6983 77.2619 56.6386C77.2247 56.579 77.1653 56.5365 77.0968 56.5206C77.0283 56.5048 76.9563 56.5167 76.8966 56.5539L76.5103 56.7921C73.3346 58.7769 70.0001 60.8305 66.2845 59.7455C63.1882 58.8351 60.7111 56.2046 58.5305 53.8863L58.1176 53.447C56.371 51.5998 54.6879 49.6626 53.2429 47.9795C53.7117 48.2928 54.1324 48.6726 54.492 49.1069C54.5166 49.1317 54.5459 49.1514 54.5781 49.1648C54.6104 49.1783 54.645 49.1852 54.6799 49.1852C54.7149 49.1852 54.7494 49.1783 54.7817 49.1648C54.8139 49.1514 54.8432 49.1317 54.8678 49.1069C54.9163 49.0574 54.9435 48.9909 54.9435 48.9216C54.9435 48.8524 54.9163 48.7859 54.8678 48.7364L53.9522 47.6778C54.191 47.8734 54.4189 48.0819 54.6349 48.3024C54.9366 48.694 55.2542 49.054 55.4606 49.2816C55.5098 49.3285 55.5752 49.3546 55.6432 49.3546C55.7112 49.3546 55.7766 49.3285 55.8258 49.2816C55.8771 49.2382 55.9104 49.1773 55.9192 49.1108C55.928 49.0443 55.9117 48.9768 55.8735 48.9216C55.6218 48.5792 55.3477 48.2539 55.0531 47.9478C54.6818 47.5612 54.4126 47.0882 54.2697 46.5716C54.5108 46.6968 54.7305 46.8593 54.9207 47.0533C55.3175 47.4094 55.6939 47.7875 56.0481 48.1859L56.4557 48.6676C56.4776 48.6944 56.5047 48.7166 56.5354 48.7327C56.5661 48.7489 56.5997 48.7588 56.6342 48.7617C56.6688 48.7647 56.7035 48.7607 56.7365 48.75C56.7695 48.7393 56.8 48.722 56.8262 48.6993C56.8799 48.6549 56.9139 48.5911 56.9209 48.5217C56.9278 48.4523 56.9071 48.383 56.8632 48.3288C56.7256 48.1648 56.588 47.9954 56.4451 47.8366L55.2171 46.3969C55.1385 46.3178 55.0788 46.2219 55.0425 46.1164C55.0332 46.0908 55.0332 46.0627 55.0425 46.037C55.0425 46.037 55.0742 46.037 55.1801 46.1376C56.2387 46.9686 57.2549 47.8948 58.107 48.694C58.153 48.7357 58.2121 48.7599 58.2741 48.7624C58.3361 48.7649 58.397 48.7456 58.4461 48.7077C58.4953 48.6699 58.5296 48.616 58.5431 48.5555C58.5566 48.4949 58.5484 48.4316 58.5199 48.3765C58.2976 47.9742 57.9112 46.5134 58.16 46.2276C58.2023 46.1799 58.3558 46.2276 58.3981 46.2276C58.5606 46.3248 58.6856 46.474 58.7528 46.651C59.0441 47.2025 59.2918 47.7758 59.4938 48.3659C59.5408 48.5517 59.6138 48.7299 59.7108 48.8952C59.8154 49.0487 59.942 49.186 60.0866 49.3027C61.0827 50.1556 62.131 50.9458 63.2252 51.6686L63.5163 51.8698C63.9345 52.1609 64.342 52.4731 64.739 52.7748C65.5236 53.4092 66.3632 53.9725 67.2478 54.458C69.6666 55.7018 75.5205 51.838 75.764 51.6686C75.7933 51.6499 75.8185 51.6255 75.8381 51.5968C75.8578 51.5681 75.8715 51.5358 75.8784 51.5017C75.8853 51.4677 75.8853 51.4325 75.8784 51.3985C75.8715 51.3644 75.8577 51.3321 75.8381 51.3034C75.7993 51.2454 75.7391 51.2051 75.6707 51.1912C75.6023 51.1773 75.5312 51.191 75.4729 51.2293C73.8533 52.2879 69.2697 54.9026 67.486 53.9869C66.6286 53.5159 65.8155 52.9685 65.0565 52.3514C64.6596 52.0444 64.2467 51.7321 63.818 51.4357L63.5269 51.2346C62.4512 50.5229 61.4206 49.7451 60.4412 48.9058C60.3326 48.8207 60.2364 48.721 60.1554 48.6094C60.0909 48.4955 60.0394 48.3748 60.0019 48.2494C59.7912 47.6246 59.531 47.0175 59.2238 46.434C59.1007 46.1403 58.8749 45.9014 58.5887 45.7618C58.4575 45.6861 58.3045 45.6569 58.1547 45.679C58.0048 45.7011 57.8668 45.7732 57.763 45.8835C57.4613 46.2276 57.5407 46.9686 57.6995 47.5984C57.022 46.9792 56.281 46.3281 55.503 45.7248C55.4245 45.648 55.3287 45.5911 55.2238 45.5589C55.1188 45.5266 55.0076 45.52 54.8996 45.5395C54.775 45.5777 54.6672 45.6573 54.5941 45.7651C54.5209 45.8729 54.4868 46.0024 54.4973 46.1323C54.4055 46.0887 54.3038 46.0702 54.2024 46.0785C54.1011 46.0869 54.0038 46.1219 53.9204 46.1799C53.8648 46.2205 53.8189 46.2728 53.7859 46.3332C53.753 46.3936 53.7338 46.4606 53.7299 46.5293C53.7222 46.6612 53.7439 46.7931 53.7934 46.9157C53.6671 46.8593 53.5292 46.8339 53.3911 46.8416C53.3269 46.8465 53.2666 46.8747 53.2217 46.9209C53.1734 46.9676 53.1368 47.025 53.1147 47.0884C53.0926 47.1518 53.0858 47.2196 53.0947 47.2861C52.9493 47.2278 52.7987 47.1835 52.6448 47.1538C52.58 47.1434 52.5135 47.1571 52.458 47.1921C52.4025 47.2272 52.3616 47.2813 52.3431 47.3444C52.3222 47.4582 52.3301 47.5755 52.3662 47.6856C52.4023 47.7956 52.4653 47.8948 52.5495 47.9742C54.0527 49.7314 55.8417 51.7957 57.7048 53.7646L58.1123 54.1986C60.3406 56.5698 62.8759 59.2586 66.1045 60.206C66.8329 60.4353 67.5905 60.5583 68.354 60.5712Z" fill="#F47B20"/>
<path d="M77.7536 66.7426L71.9209 111.949L78.1824 111.785L85.9681 79.8319L91.515 111.864L98.5439 111.367L94.5955 64.6096L77.7536 66.7426Z" fill="#F47B20"/>
<path d="M83.7294 50.4406H83.7612L87.9955 49.9378C88.0619 49.9299 88.1228 49.8971 88.166 49.846C88.2092 49.7949 88.2315 49.7294 88.2284 49.6626C88.0537 45.9576 88.8053 38.3518 88.8159 38.2777C88.8187 38.2392 88.8137 38.2005 88.8009 38.1641C88.7882 38.1277 88.768 38.0942 88.7418 38.066C88.7147 38.0392 88.6824 38.0183 88.6469 38.0046C88.6114 37.9909 88.5734 37.9848 88.5353 37.9866C88.4877 37.9866 83.8565 38.2247 82.3427 36.0653C82.3225 36.0349 82.2959 36.0092 82.2649 35.9901C82.2338 35.9709 82.199 35.9586 82.1628 35.9541C82.0914 35.9448 82.0192 35.9638 81.9616 36.007C79.8868 37.6319 79.4634 42.1309 79.8445 43.5123C80.4743 45.7829 82.962 45.82 83.8776 45.7512L83.4754 50.1495C83.4724 50.1893 83.478 50.2292 83.4917 50.2666C83.5054 50.304 83.5269 50.3381 83.5548 50.3665C83.6018 50.412 83.6641 50.4384 83.7294 50.4406ZM87.6779 49.4456L84.0205 49.8743L84.4228 45.4812C84.4258 45.441 84.4197 45.4007 84.4051 45.3631C84.3904 45.3256 84.3675 45.2918 84.3381 45.2642C84.3095 45.2355 84.2743 45.2142 84.2355 45.2022C84.1968 45.1902 84.1557 45.1879 84.1158 45.1954C83.9888 45.1954 80.9877 45.6877 80.3473 43.3747C80.0403 42.2685 80.3473 38.2406 82.0781 36.5998C83.6659 38.4576 87.1804 38.5423 88.2495 38.5264C88.1172 39.9449 87.5668 46.0846 87.6832 49.4456H87.6779Z" fill="#F47B20"/>
<path d="M84.1636 45.4549C84.919 45.3642 85.635 45.0675 86.2332 44.5974C86.2332 44.5974 85.3228 46.8839 83.9096 47.2438L84.1636 45.4549Z" fill="#F47B20"/>
<path d="M83.9097 47.4661H83.9679C85.4817 47.1009 86.4185 44.7879 86.4608 44.6927C86.4817 44.6407 86.4836 44.583 86.4662 44.5298C86.4488 44.4765 86.4132 44.4311 86.3656 44.4016C86.3198 44.3699 86.2642 44.3557 86.2089 44.3616C86.1535 44.3674 86.1021 44.3928 86.0639 44.4333C85.5026 44.8651 84.8352 45.1376 84.132 45.2219C84.0796 45.2286 84.0308 45.2525 83.9935 45.2898C83.9561 45.3272 83.9322 45.3759 83.9256 45.4284L83.6715 47.1962C83.666 47.2348 83.6698 47.2742 83.6827 47.3111C83.6956 47.3479 83.7172 47.3811 83.7456 47.4079C83.7915 47.4464 83.8498 47.4671 83.9097 47.4661ZM85.6193 45.2908C85.2978 45.9363 84.81 46.4844 84.2061 46.8786L84.3755 45.6877C84.8042 45.6047 85.2217 45.4715 85.6193 45.2908Z" fill="#F47B20"/>
<path d="M77.05 70.9187C77.05 70.9187 76.6001 61.0052 77.5793 55.0402C77.9974 52.4996 77.8333 50.7159 78.6749 49.3398C81.5013 44.7244 92.5104 46.1005 94.1088 49.3027C95.7073 52.5049 96.9617 71.014 96.9617 71.014L77.05 70.9187Z" fill="#FDDAA5"/>
<path d="M87.8423 43.0889C88.4777 43.0906 89.09 42.8511 89.5556 42.4188C90.0213 41.9866 90.3056 41.3938 90.3512 40.7601C90.3846 40.534 90.3582 40.3032 90.2746 40.0905C90.1911 39.8778 90.0532 39.6908 89.8748 39.548C89.7256 39.4547 89.5579 39.395 89.3833 39.3731C89.2087 39.3512 89.0315 39.3675 88.8639 39.421C88.5251 39.5165 88.219 39.7033 87.9791 39.9609C87.7393 40.2185 87.5748 40.5371 87.5036 40.8818C87.4966 40.9159 87.4965 40.951 87.5031 40.9851C87.5097 41.0192 87.5229 41.0517 87.5421 41.0807C87.5613 41.1097 87.586 41.1346 87.6148 41.1541C87.6436 41.1735 87.676 41.1871 87.71 41.1941C87.7794 41.2066 87.8509 41.1914 87.9093 41.1518C87.9676 41.1123 88.0082 41.0514 88.0223 40.9824C88.0738 40.7336 88.1923 40.5035 88.3648 40.317C88.5373 40.1305 88.7574 39.9945 89.0015 39.9238C89.0949 39.8906 89.1944 39.8781 89.2931 39.8873C89.3918 39.8964 89.4874 39.9269 89.5731 39.9767C89.6695 40.0711 89.7423 40.187 89.7856 40.3148C89.8288 40.4426 89.8412 40.5789 89.8219 40.7124C89.7822 41.2168 89.5535 41.6875 89.1814 42.0303C88.8078 42.3703 88.321 42.559 87.8159 42.5596C87.7461 42.561 87.6796 42.5893 87.6302 42.6386C87.5809 42.688 87.5526 42.7545 87.5512 42.8243C87.5512 42.8945 87.5791 42.9618 87.6287 43.0114C87.6784 43.061 87.7457 43.0889 87.8159 43.0889H87.8423Z" fill="#F47B20"/>
<path d="M81.8384 39.0858C81.7157 39.0475 81.6733 38.8332 81.7438 38.6072C81.8144 38.3812 81.9711 38.229 82.0938 38.2673C82.2166 38.3056 82.259 38.5199 82.1885 38.7459C82.1179 38.972 81.9612 39.1241 81.8384 39.0858Z" fill="#F47B20"/>
<path d="M72.5088 115.77C74.9752 115.77 77.9339 115.469 78.2092 115.119C78.5956 114.638 78.4897 112.436 78.4473 111.769C78.4406 111.699 78.4072 111.634 78.3541 111.588C78.3009 111.541 78.232 111.517 78.1615 111.52C78.1267 111.523 78.0928 111.532 78.0617 111.548C78.0306 111.564 78.003 111.586 77.9803 111.612C77.9577 111.639 77.9406 111.67 77.9299 111.703C77.9192 111.736 77.9152 111.771 77.9181 111.806C77.9975 113.071 77.971 114.574 77.7963 114.791C76.4261 115.063 75.033 115.203 73.6362 115.209C71.048 115.299 69.82 115.109 69.566 114.939C69.9629 114.103 71.8895 112.399 72.6146 111.801C72.642 111.779 72.6647 111.751 72.6814 111.72C72.6981 111.689 72.7085 111.656 72.712 111.621C72.7154 111.586 72.7119 111.55 72.7015 111.517C72.6912 111.483 72.6742 111.452 72.6517 111.425C72.6073 111.371 72.5434 111.337 72.474 111.33C72.4047 111.323 72.3354 111.344 72.2812 111.388C72.1647 111.483 69.513 113.685 69.0525 114.791C69.0077 114.904 69.008 115.029 69.0534 115.142C69.0987 115.254 69.1856 115.345 69.296 115.395C69.7512 115.664 71.0268 115.77 72.5088 115.77Z" fill="#F47B20"/>
<path d="M80.4374 42.0303C80.6629 42.0296 80.8879 42.0084 81.1096 41.9668C81.1437 41.9593 81.176 41.9451 81.2046 41.925C81.2333 41.905 81.2576 41.8794 81.2763 41.8499C81.295 41.8204 81.3077 41.7875 81.3136 41.753C81.3195 41.7186 81.3185 41.6833 81.3107 41.6492C81.3038 41.6153 81.2902 41.5831 81.2707 41.5545C81.2511 41.5259 81.2261 41.5016 81.197 41.4828C81.1679 41.4641 81.1353 41.4513 81.1012 41.4454C81.0671 41.4394 81.0322 41.4403 80.9984 41.4481C80.7444 41.501 79.9399 41.5857 79.6487 41.284C79.5588 41.0564 80.2574 39.9502 81.1149 38.9657C81.1402 38.942 81.1604 38.9133 81.1742 38.8814C81.1879 38.8496 81.1951 38.8152 81.1951 38.7805C81.1951 38.7458 81.1879 38.7114 81.1742 38.6796C81.1604 38.6477 81.1402 38.619 81.1149 38.5952C81.0903 38.5704 81.061 38.5508 81.0287 38.5373C80.9965 38.5239 80.9619 38.517 80.927 38.517C80.892 38.517 80.8574 38.5239 80.8252 38.5373C80.7929 38.5508 80.7637 38.5704 80.7391 38.5952C79.9557 39.4897 78.7278 41.067 79.2941 41.6333C79.611 41.906 80.0197 42.048 80.4374 42.0303Z" fill="#F47B20"/>
<path d="M72.2177 61.6986C72.2604 61.6988 72.3024 61.6879 72.3395 61.6668C72.4188 61.6298 80.0088 57.5755 82.7717 56.0723C82.8028 56.0562 82.8304 56.034 82.8527 56.0069C82.8751 55.9799 82.8917 55.9486 82.9016 55.915C82.9115 55.8813 82.9144 55.846 82.9103 55.8112C82.9062 55.7764 82.895 55.7428 82.8775 55.7124C82.8614 55.6819 82.8394 55.655 82.8128 55.6331C82.7861 55.6112 82.7554 55.5949 82.7224 55.5851C82.6894 55.5752 82.6547 55.572 82.6205 55.5757C82.5862 55.5794 82.5531 55.5899 82.5229 55.6065C79.7547 57.1097 72.1701 61.1587 72.0907 61.2011C72.06 61.2177 72.033 61.2402 72.0111 61.2673C71.9891 61.2944 71.9728 61.3256 71.963 61.359C71.9531 61.3925 71.95 61.4275 71.9537 61.4622C71.9575 61.4968 71.9681 61.5304 71.9848 61.561C72.0072 61.6031 72.0408 61.6383 72.0819 61.6625C72.123 61.6868 72.17 61.6993 72.2177 61.6986Z" fill="#F47B20"/>
<path d="M85.9685 80.0966C86.0008 80.0972 86.0328 80.0915 86.0628 80.0797C86.0928 80.0679 86.1201 80.0502 86.1432 80.0278C86.1908 79.9854 87.3023 78.9374 88.4509 75.0737C88.4693 75.0056 88.4609 74.9331 88.4274 74.871C88.3939 74.809 88.3379 74.7622 88.2709 74.7402C88.2036 74.722 88.1318 74.7305 88.0706 74.7641C88.0094 74.7976 87.9636 74.8536 87.9428 74.9202C86.8472 78.6252 85.8256 79.6308 85.7886 79.6361C85.7638 79.6607 85.7441 79.69 85.7307 79.7222C85.7172 79.7545 85.7103 79.7891 85.7103 79.824C85.7103 79.8589 85.7172 79.8935 85.7307 79.9258C85.7441 79.958 85.7638 79.9873 85.7886 80.0119C85.8115 80.0372 85.8392 80.0576 85.8701 80.0722C85.901 80.0867 85.9345 80.095 85.9685 80.0966Z" fill="white"/>
<path d="M82.2579 43.6235H82.4379C82.7955 43.594 83.1382 43.4669 83.4285 43.2559C83.7187 43.045 83.9455 42.7583 84.0839 42.4273C84.1092 42.3613 84.1072 42.288 84.0785 42.2235C84.0497 42.1589 83.9964 42.1085 83.9304 42.0832C83.8645 42.058 83.7912 42.0599 83.7266 42.0887C83.6621 42.1175 83.6117 42.1708 83.5864 42.2367C83.4853 42.4764 83.3202 42.6836 83.1093 42.8358C82.8983 42.9879 82.6496 43.0792 82.3902 43.0995C82.1214 43.1142 81.8527 43.0698 81.603 42.9691C81.3533 42.8685 81.1287 42.7143 80.9453 42.5172C80.9207 42.4924 80.8914 42.4728 80.8592 42.4593C80.8269 42.4459 80.7923 42.439 80.7574 42.439C80.7225 42.439 80.6879 42.4459 80.6556 42.4593C80.6234 42.4728 80.5941 42.4924 80.5695 42.5172C80.5448 42.5414 80.5253 42.5702 80.5119 42.602C80.4985 42.6338 80.4916 42.668 80.4916 42.7025C80.4916 42.737 80.4985 42.7712 80.5119 42.803C80.5253 42.8348 80.5448 42.8636 80.5695 42.8877C80.7876 43.1168 81.0494 43.2999 81.3394 43.4262C81.6293 43.5526 81.9416 43.6196 82.2579 43.6235Z" fill="#F47B20"/>
<path d="M89.8694 45.169C90.934 45.1693 91.9838 44.9191 92.9339 44.4386C93.4063 44.2289 93.8034 43.8799 94.0719 43.4382C94.217 43.1697 94.2744 42.8625 94.236 42.5596C94.6625 42.6217 95.0978 42.5476 95.4798 42.3479C96.0336 42.0368 96.5081 41.6021 96.8665 41.0776C96.9946 40.9309 97.066 40.7431 97.0676 40.5484C97.0464 40.3613 96.958 40.1883 96.8189 40.0614L96.4642 39.675C95.8115 39.0179 95.241 38.2838 94.7652 37.4891C94.4777 36.9162 94.2404 36.3193 94.056 35.7054C93.9025 35.2449 93.7437 34.7686 93.5267 34.3134C92.0976 31.0847 89.4565 30.5607 87.0536 30.4708C85.5398 30.4178 83.5232 30.8942 82.6076 32.4027C82.5477 32.3581 82.4818 32.3224 82.4117 32.2968C82.1244 32.1907 81.8068 32.2021 81.5278 32.3286C81.1328 32.5519 80.8166 32.8921 80.6227 33.3024C79.7291 34.916 79.328 36.7562 79.4689 38.5953C79.4709 38.6303 79.4799 38.6646 79.4955 38.6961C79.5111 38.7275 79.5329 38.7555 79.5597 38.7782C79.5864 38.801 79.6175 38.8181 79.651 38.8285C79.6845 38.8389 79.7198 38.8424 79.7547 38.8388C79.824 38.8333 79.8884 38.8009 79.9339 38.7484C79.9795 38.6959 80.0026 38.6276 79.9982 38.5582C79.868 36.8296 80.2451 35.1005 81.0832 33.583C81.233 33.2752 81.473 33.0204 81.7713 32.8525C81.9206 32.7919 82.0877 32.7919 82.2371 32.8525C82.281 32.8674 82.3214 32.8911 82.356 32.922C82.3906 32.9529 82.4185 32.9905 82.4382 33.0325C82.4585 33.079 82.4917 33.1187 82.534 33.1469C82.5762 33.175 82.6256 33.1904 82.6764 33.1913C82.7277 33.1902 82.7778 33.1747 82.8208 33.1467C82.8638 33.1186 82.8981 33.0791 82.9198 33.0325C83.6079 31.4923 85.5663 31.0001 87.0483 31.0636C90.2557 31.18 91.9971 32.2015 93.0504 34.5886C93.2388 35.0281 93.4048 35.4768 93.5479 35.933C93.7505 36.5644 94.0073 37.1771 94.3153 37.7643C94.81 38.598 95.4075 39.3662 96.0937 40.0508L96.4431 40.4372C96.4915 40.4824 96.531 40.5362 96.5595 40.596C96.5337 40.6706 96.4901 40.7378 96.4325 40.7918C96.1246 41.2522 95.7154 41.636 95.2363 41.9139C95.0189 42.0337 94.7736 42.0938 94.5254 42.0882C94.2772 42.0827 94.035 42.0116 93.8231 41.8821C93.7674 41.8443 93.6993 41.8292 93.6328 41.8399C93.5662 41.8505 93.5063 41.8861 93.4651 41.9394C93.424 41.9928 93.4047 42.0598 93.4112 42.1268C93.4177 42.1939 93.4496 42.2559 93.5002 42.3003C93.6158 42.4214 93.6883 42.5773 93.7065 42.7437C93.7247 42.9102 93.6875 43.078 93.6008 43.2212C93.374 43.5511 93.0583 43.8098 92.6904 43.9675C91.709 44.4651 90.6132 44.6934 89.5147 44.6291C89.4798 44.6263 89.4447 44.6305 89.4114 44.6415C89.3782 44.6526 89.3475 44.6703 89.3213 44.6936C89.2951 44.7168 89.2739 44.7451 89.2589 44.7768C89.2439 44.8085 89.2355 44.8429 89.2342 44.8779C89.2321 44.9127 89.2368 44.9475 89.2481 44.9804C89.2595 45.0134 89.2772 45.0438 89.3003 45.0698C89.3235 45.0959 89.3515 45.1171 89.3828 45.1323C89.4142 45.1475 89.4482 45.1564 89.483 45.1584L89.8694 45.169Z" fill="#F47B20"/>
<path d="M138.628 50.2872H229.564C233.518 50.2872 235.619 53.0342 234.249 56.4216L213.797 107.027C212.431 110.414 208.112 113.161 204.159 113.161H113.217C109.263 113.161 107.167 110.414 108.538 107.027L128.984 56.4216C130.355 53.0342 134.669 50.2872 138.628 50.2872Z" fill="white"/>
<path d="M204.159 113.436H113.217C111.137 113.436 109.428 112.674 108.528 111.319C107.734 110.128 107.623 108.54 108.263 106.952L128.709 56.3475C130.117 52.8701 134.532 50.0437 138.607 50.0437H229.565C231.65 50.0437 233.36 50.8059 234.254 52.1344C235.075 53.3464 235.164 54.9184 234.503 56.5539L214.051 107.154C212.649 110.604 208.208 113.436 204.159 113.436ZM138.628 50.5624C134.78 50.5624 130.567 53.2088 129.239 56.5274L108.792 107.127C108.205 108.588 108.263 109.98 108.988 111.038C109.782 112.214 111.322 112.891 113.223 112.891H204.159C208.007 112.891 212.215 110.213 213.549 106.926L233.995 56.321C234.588 54.8602 234.524 53.4735 233.804 52.4149C233.01 51.2346 231.465 50.5624 229.57 50.5624H138.628Z" fill="#F47B20"/>
<path d="M198.607 19.3451H183.258C183.222 19.3458 183.186 19.3394 183.153 19.3261C183.119 19.3129 183.089 19.2931 183.063 19.268C183.038 19.2428 183.017 19.2128 183.004 19.1797C182.99 19.1466 182.983 19.1111 182.983 19.0752V3.74182C182.971 3.70086 182.969 3.65774 182.977 3.61586C182.984 3.57398 183.002 3.53448 183.027 3.50047C183.053 3.46646 183.086 3.43888 183.124 3.41988C183.163 3.40088 183.205 3.39099 183.247 3.39099C183.29 3.39099 183.332 3.40088 183.37 3.41988C183.408 3.43888 183.441 3.46646 183.467 3.50047C183.493 3.53448 183.51 3.57398 183.518 3.61586C183.526 3.65774 183.523 3.70086 183.512 3.74182V18.8H198.602C198.643 18.7883 198.686 18.7862 198.728 18.794C198.77 18.8018 198.809 18.8192 198.843 18.8449C198.877 18.8705 198.905 18.9037 198.924 18.9419C198.943 18.98 198.953 19.022 198.953 19.0646C198.953 19.1072 198.943 19.1492 198.924 19.1874C198.905 19.2255 198.877 19.2587 198.843 19.2843C198.809 19.31 198.77 19.3274 198.728 19.3352C198.686 19.343 198.643 19.341 198.602 19.3293L198.607 19.3451Z" fill="#F47B20"/>
<path d="M144.604 13.7983C144.184 13.7864 143.776 13.6597 143.423 13.432C143.07 13.2043 142.787 12.8843 142.603 12.5068C141.984 11.3159 140.263 5.09682 139.957 2.61976C139.862 2.06403 139.988 1.49327 140.309 1.02944C140.629 0.565605 141.118 0.245466 141.671 0.137416C142.873 -0.196033 144.519 0.137418 144.958 1.12718C145.318 1.94228 145.953 3.4772 145.953 3.4772L145.45 3.68892C145.45 3.68892 144.784 2.15399 144.445 1.34419C144.164 0.69846 142.857 0.36501 141.798 0.661409C141.373 0.737578 140.995 0.979092 140.747 1.33316C140.499 1.68723 140.401 2.12507 140.475 2.55096C140.814 5.19738 142.529 11.1942 143.079 12.2527C143.235 12.5907 143.498 12.8679 143.827 13.0411C144.156 13.2143 144.533 13.274 144.9 13.2108C145.169 13.1233 145.397 12.9419 145.543 12.6998C145.689 12.4578 145.742 12.1713 145.694 11.8928C145.625 9.89214 142.926 2.57742 142.899 2.50332C142.887 2.46964 142.881 2.43379 142.882 2.39787C142.884 2.36195 142.893 2.32668 142.908 2.29414C142.923 2.2616 142.945 2.23244 142.972 2.20838C142.998 2.18431 143.029 2.16582 143.063 2.15399C143.131 2.12978 143.205 2.13282 143.27 2.16247C143.336 2.19212 143.387 2.24604 143.413 2.31278C143.524 2.61976 146.165 9.78628 146.239 11.8717C146.295 12.2753 146.205 12.6857 145.985 13.0285C145.764 13.3713 145.428 13.6237 145.038 13.74C144.896 13.7774 144.75 13.7969 144.604 13.7983Z" fill="#F47B20"/>
<path d="M219.048 67.0126H187.899C187.575 67.0332 187.25 66.9706 186.957 66.8307C186.663 66.6909 186.41 66.4784 186.221 66.2134C186.038 65.8927 185.937 65.5319 185.926 65.1627C185.914 64.7936 185.994 64.4273 186.158 64.0962L187.216 61.5398C187.559 60.7773 188.1 60.1212 188.784 59.6405C189.467 59.1599 190.268 58.8725 191.101 58.8087H222.255C222.579 58.7906 222.903 58.8543 223.196 58.9939C223.489 59.1336 223.743 59.3447 223.933 59.6079C224.116 59.9286 224.218 60.2894 224.229 60.6585C224.24 61.0277 224.16 61.3939 223.996 61.725L222.938 64.2868C222.595 65.0494 222.053 65.7052 221.368 66.185C220.683 66.6648 219.881 66.9507 219.048 67.0126ZM191.112 59.3168C190.386 59.3757 189.688 59.6289 189.093 60.0498C188.498 60.4707 188.027 61.0438 187.73 61.7092L186.671 64.2709C186.538 64.5211 186.469 64.8 186.469 65.0834C186.469 65.3667 186.538 65.6456 186.671 65.8958C186.816 66.0785 187.004 66.2225 187.219 66.3149C187.433 66.4072 187.667 66.4451 187.899 66.4251H219.048C219.769 66.3717 220.464 66.1261 221.058 65.7138C221.653 65.3014 222.127 64.7375 222.43 64.0804L223.488 61.5239C223.622 61.2729 223.692 60.9931 223.692 60.7088C223.692 60.4246 223.622 60.1447 223.488 59.8937C223.348 59.7058 223.162 59.5564 222.948 59.4593C222.734 59.3622 222.5 59.3204 222.266 59.338L191.112 59.3168Z" fill="#F47B20"/>
<path d="M5.21026 87.2789L76.3779 80.4564C76.4501 80.4484 76.5162 80.4122 76.5618 80.3557C76.6074 80.2992 76.6288 80.227 76.6214 80.1547L71.6831 28.6183C71.6764 28.5461 71.6415 28.4796 71.586 28.433C71.5305 28.3864 71.4589 28.3636 71.3867 28.3695L0.245567 35.192C0.209785 35.1946 0.174911 35.2044 0.143051 35.2209C0.111191 35.2374 0.0830154 35.2602 0.0602417 35.288C0.0374756 35.3157 0.0205841 35.3477 0.010582 35.3822C0.000587463 35.4167 -0.00230408 35.4528 0.00209808 35.4884L4.94032 87.0143C4.94318 87.0505 4.95362 87.0857 4.97094 87.1176C4.98827 87.1495 5.01209 87.1774 5.04089 87.1995C5.0866 87.2446 5.14638 87.2726 5.21026 87.2789ZM76.055 79.9589L5.45902 86.7284L0.568436 35.7424L71.1644 28.957L76.055 79.9589Z" fill="#F47B20"/>
<rect x="9" y="41.0546" width="0.6" height="38.9642" transform="rotate(-5.21646 9 41.0546)" fill="#D0D5DD"/>
<rect x="14" y="41.0546" width="0.6" height="38.9642" transform="rotate(-5.21646 14 41.0546)" fill="#D0D5DD"/>
<rect x="19" y="40.0546" width="0.6" height="38.9642" transform="rotate(-5.21646 19 40.0546)" fill="#D0D5DD"/>
<rect x="24" y="39.0546" width="0.6" height="38.9642" transform="rotate(-5.21646 24 39.0546)" fill="#D0D5DD"/>
<rect x="29" y="39.0546" width="0.6" height="38.9642" transform="rotate(-5.21646 29 39.0546)" fill="#D0D5DD"/>
<rect x="34" y="39.0546" width="0.6" height="38.9642" transform="rotate(-5.21646 34 39.0546)" fill="#D0D5DD"/>
<rect x="39" y="39.0546" width="0.6" height="38.9642" transform="rotate(-5.21646 39 39.0546)" fill="#D0D5DD"/>
<rect x="44" y="38.0546" width="0.6" height="38.9642" transform="rotate(-5.21646 44 38.0546)" fill="#D0D5DD"/>
<rect x="49" y="37.0546" width="0.6" height="38.9642" transform="rotate(-5.21646 49 37.0546)" fill="#D0D5DD"/>
<rect x="56.7034" y="55.7129" width="0.6" height="20.2283" transform="rotate(-5.21646 56.7034 55.7129)" fill="#D0D5DD"/>
<rect x="61.6345" y="62.0039" width="0.6" height="13.25" transform="rotate(-5.21646 61.6345 62.0039)" fill="#D0D5DD"/>
<path d="M80.5539 47.736L69.5765 53.754L72.2229 61.4339C72.2229 61.4339 86.0161 54.1298 86.1114 52.1556C86.2066 50.1813 80.5539 47.736 80.5539 47.736Z" fill="#FDDAA5"/>
</svg>
