<svg width="107" height="132" viewBox="0 0 107 132" fill="none" xmlns="http://www.w3.org/2000/svg">
<path d="M89.5759 103.2H89.4411C88.8212 103.167 88.2398 102.889 87.8245 102.427C87.4091 101.966 87.1938 101.358 87.2258 100.738L90.5136 39.1123C90.5471 38.4906 90.8261 37.9076 91.2894 37.4915C91.7527 37.0755 92.3622 36.8606 92.984 36.894C93.6057 36.9274 94.1887 37.2065 94.6047 37.6697C95.0208 38.133 95.2357 38.7426 95.2023 39.3643L91.9144 100.985C91.8814 101.583 91.6208 102.145 91.1859 102.557C90.751 102.969 90.175 103.199 89.5759 103.2Z" fill="#F47B20"/>
<path d="M11.9799 80.7187C10.8258 80.7378 9.67851 80.539 8.59821 80.1326C4.31984 78.4564 2.93084 75.6843 2.52058 73.6858C1.02023 66.3246 9.91688 57.3459 10.9367 56.3496C11.1545 56.1255 11.415 55.9473 11.7028 55.8254C11.9906 55.7035 12.2998 55.6403 12.6123 55.6397C12.9249 55.639 13.2344 55.7008 13.5227 55.8215C13.811 55.9422 14.0722 56.1193 14.291 56.3425C14.5099 56.5656 14.6819 56.8303 14.7969 57.1208C14.912 57.4114 14.9678 57.7221 14.9611 58.0345C14.9543 58.347 14.8852 58.6549 14.7577 58.9403C14.6302 59.2256 14.4469 59.4826 14.2187 59.6961C11.0715 62.7906 6.35939 69.0733 7.11543 72.7539C7.21506 73.2345 7.51397 74.6997 10.3096 75.7956C15.3557 77.7766 25.5945 69.7063 30.8633 64.1561C31.2974 63.7348 31.8775 63.4976 32.4824 63.4941C33.0873 63.4906 33.6702 63.721 34.1091 64.1373C34.5481 64.5535 34.8091 65.1233 34.8377 65.7276C34.8663 66.3318 34.6602 66.9237 34.2625 67.3796C32.8325 68.8389 21.2809 80.7187 11.9799 80.7187Z" fill="#F47B20"/>
<path d="M23.2152 30.6676C23.2152 30.6676 17.9405 28.1533 16.5867 32.584C15.2328 37.0148 14.9691 50.2308 13.7266 51.7488C12.4069 53.1764 10.989 54.51 9.4834 55.74L15.1684 67.0337L27.7807 61.3604C27.7807 61.3604 23.3852 36.7686 23.2152 30.6676Z" fill="white"/>
<path d="M15.1386 67.3203C15.0816 67.3194 15.026 67.3031 14.9775 67.2732C14.929 67.2433 14.8895 67.2009 14.8631 67.1504L9.18402 55.8625C9.15238 55.8016 9.14268 55.7316 9.15656 55.6644C9.17043 55.5971 9.20704 55.5367 9.26021 55.4933C10.749 54.2714 12.153 52.9496 13.4624 51.5372C14.0485 50.8222 14.447 46.708 14.8279 42.7461C15.2089 38.7842 15.6074 34.6524 16.2697 32.4956C16.4059 31.9513 16.6618 31.4443 17.0187 31.0114C17.3756 30.5785 17.8244 30.2306 18.3327 29.993C20.4719 29.0553 23.203 30.3388 23.3202 30.3974C23.3693 30.4209 23.4111 30.4573 23.4411 30.5027C23.471 30.5482 23.488 30.6009 23.4902 30.6553C23.6836 36.6685 28.0088 61.061 28.0499 61.3013C28.0623 61.3686 28.0518 61.4382 28.0199 61.4988C27.988 61.5594 27.9366 61.6075 27.874 61.6354L15.2616 67.3203C15.221 67.3284 15.1792 67.3284 15.1386 67.3203ZM9.82871 55.8039L15.2734 66.6229L27.411 61.1606C26.9715 58.664 23.1561 36.8736 22.8924 30.8487C22.3063 30.6026 20.1788 29.8231 18.573 30.5322C18.1462 30.7357 17.7701 31.0316 17.4721 31.3986C17.174 31.7656 16.9615 32.1944 16.8499 32.6538C16.2052 34.752 15.8126 38.8369 15.4316 42.7871C14.9393 47.9329 14.5877 51.1211 13.9312 51.9241C12.6603 53.3212 11.2892 54.6238 9.82871 55.8215V55.8039Z" fill="#F47B20"/>
<path d="M51.9326 116.135C51.3681 116.142 50.8202 115.945 50.3895 115.58C49.9589 115.215 49.6744 114.706 49.5883 114.149L42.2096 65.9085C42.1156 65.2937 42.2696 64.6668 42.6378 64.1656C43.006 63.6644 43.5582 63.33 44.1729 63.236C44.7877 63.1419 45.4146 63.2959 45.9158 63.6641C46.417 64.0323 46.7514 64.5846 46.8455 65.1993L54.2769 113.439C54.3236 113.744 54.3098 114.054 54.2363 114.353C54.1629 114.653 54.0313 114.934 53.8489 115.182C53.6666 115.431 53.4372 115.64 53.1737 115.8C52.9103 115.959 52.618 116.065 52.3136 116.112C52.1874 116.13 52.06 116.137 51.9326 116.135Z" fill="#F47B20"/>
<path d="M65.8703 116.135H65.6007C65.2948 116.1 64.9987 116.005 64.7294 115.856C64.4601 115.707 64.2229 115.506 64.0313 115.264C63.8398 115.023 63.6976 114.747 63.6129 114.451C63.5282 114.155 63.5026 113.845 63.5377 113.539C65.2549 98.6584 67.8981 74.342 67.8044 71.4175C67.6819 70.886 67.7486 70.3285 67.993 69.8409C68.2373 69.3533 68.6441 68.9661 69.1431 68.7461C69.6421 68.5261 70.2023 68.4869 70.7271 68.6354C71.2519 68.7839 71.7085 69.1107 72.0183 69.5596C72.6981 70.5384 72.9032 70.8314 70.5414 92.9382C69.4219 103.441 68.197 113.973 68.197 114.078C68.127 114.646 67.8517 115.168 67.4232 115.547C66.9946 115.926 66.4423 116.135 65.8703 116.135Z" fill="#F47B20"/>
<path d="M57.9338 132C78.6591 132 95.4603 130.003 95.4603 127.54C95.4603 125.077 78.6591 123.08 57.9338 123.08C37.2084 123.08 20.4072 125.077 20.4072 127.54C20.4072 130.003 37.2084 132 57.9338 132Z" fill="#E6E7E8"/>
<path d="M56.9672 84.7508C78.1521 84.7508 95.326 67.5769 95.326 46.392C95.326 25.207 78.1521 8.0332 56.9672 8.0332C35.7822 8.0332 18.6084 25.207 18.6084 46.392C18.6084 67.5769 35.7822 84.7508 56.9672 84.7508Z" fill="#FEEFD2"/>
<path d="M57.0084 8.02165C66.8691 8.01566 76.3544 11.8021 83.5003 18.5969C90.6462 25.3917 94.9053 34.6744 95.3957 44.5229C95.886 54.3714 92.5702 64.0313 86.1346 71.5024C79.699 78.9734 70.6367 83.6834 60.8242 84.657C51.0117 85.6306 41.2006 82.7932 33.4224 76.7324C25.6442 70.6716 20.4947 61.8517 19.0403 52.0988C17.5859 42.346 19.9378 32.4073 25.6092 24.3408C31.2806 16.2743 39.837 10.6978 49.5066 8.76596C51.9767 8.27222 54.4894 8.02291 57.0084 8.02165ZM57.0084 7.43557C46.6718 7.42469 36.7542 11.5204 29.4375 18.8218C22.1207 26.1232 18.0041 36.0321 17.9932 46.3687C17.9823 56.7053 22.0781 66.6228 29.3794 73.9396C36.6808 81.2564 46.5897 85.373 56.9263 85.3839C62.0445 85.3893 67.1136 84.3865 71.8442 82.4328C76.5748 80.4792 80.8743 77.6129 84.4972 73.9976C88.1201 70.3823 90.9954 66.0889 92.9591 61.3624C94.9227 56.6359 95.9361 51.5689 95.9415 46.4507C95.9469 41.3326 94.9441 36.2635 92.9905 31.5329C91.0368 26.8022 88.1705 22.5027 84.5552 18.8798C80.94 15.2569 76.6465 12.3816 71.92 10.418C67.1935 8.45439 62.1265 7.44096 57.0084 7.43557Z" fill="#F47B20"/>
<path d="M43.6773 46.7504C45.3268 46.4306 46.0487 42.9981 45.2898 39.0838C44.5309 35.1694 42.5785 32.2555 40.929 32.5753C39.2796 32.895 38.5576 36.3275 39.3165 40.2418C40.0754 44.1562 42.0278 47.0702 43.6773 46.7504Z" fill="#F47B20"/>
<path d="M68.4468 41.9554C70.0963 41.6356 70.8182 38.2032 70.0593 34.2888C69.3004 30.3745 67.348 27.4605 65.6986 27.7803C64.0491 28.1001 63.3271 31.5326 64.086 35.4469C64.8449 39.3613 66.7973 42.2752 68.4468 41.9554Z" fill="#F47B20"/>
<path d="M40.7209 75.1855C40.5174 75.1853 40.3203 75.1145 40.1631 74.9851C40.006 74.8558 39.8987 74.676 39.8593 74.4764C38.9626 69.9577 40.4454 65.2749 43.9619 61.2779C47.4783 57.2808 52.5772 54.5556 58.3794 53.4127C70.4115 51.0215 81.6877 56.5893 83.5221 65.82C83.5672 66.0532 83.5178 66.2947 83.3848 66.4914C83.2518 66.6881 83.0461 66.824 82.8129 66.8691C82.5798 66.9141 82.3383 66.8648 82.1415 66.7318C81.9448 66.5988 81.8089 66.3931 81.7639 66.1599C80.1228 57.8845 69.7727 52.938 58.69 55.1358C53.2805 56.2083 48.5157 58.8046 45.2805 62.4442C42.0454 66.0837 40.7853 70.1687 41.5707 74.1364C41.6155 74.3649 41.5678 74.6018 41.4382 74.7952C41.3085 74.9886 41.1075 75.1226 40.8791 75.1679L40.7209 75.1855Z" fill="#F47B20"/>
<path d="M16.1796 66.6818L10.3697 54.9419C9.83705 53.8657 8.53278 53.4249 7.4565 53.9576L6.88395 54.2409C5.80768 54.7736 5.36697 56.0778 5.8996 57.1541L11.7095 68.894C12.2421 69.9703 13.5464 70.411 14.6226 69.8783L15.1952 69.595C16.2715 69.0624 16.7122 67.7581 16.1796 66.6818Z" fill="white"/>
<path d="M13.6675 70.4087C13.2043 70.4086 12.7503 70.2791 12.3568 70.0347C11.9632 69.7903 11.6458 69.4408 11.4404 69.0255L5.63242 57.304C5.48767 57.0123 5.40181 56.695 5.37973 56.3701C5.35765 56.0452 5.39979 55.7192 5.50374 55.4106C5.60769 55.102 5.77142 54.8169 5.98557 54.5716C6.19971 54.3263 6.4601 54.1256 6.75183 53.9809L7.33791 53.6996C7.62832 53.5544 7.94465 53.4683 8.26858 53.4461C8.59251 53.424 8.91761 53.4663 9.22507 53.5707C9.84816 53.7812 10.3624 54.2301 10.6551 54.819L16.4631 66.5406C16.6079 66.8323 16.6937 67.1496 16.7158 67.4745C16.7379 67.7994 16.6958 68.1254 16.5918 68.434C16.4879 68.7426 16.3241 69.0277 16.11 69.273C15.8958 69.5183 15.6355 69.719 15.3437 69.8636L14.7576 70.145C14.4186 70.3134 14.0461 70.4036 13.6675 70.4087ZM11.9855 68.7618C12.207 69.2056 12.5953 69.5435 13.0655 69.7017C13.5356 69.8599 14.0492 69.8254 14.4939 69.6058L15.08 69.3244C15.5248 69.1039 15.864 68.7161 16.0233 68.2459C16.1826 67.7757 16.149 67.2615 15.9298 66.816L10.1218 55.0945C9.89846 54.6496 9.50894 54.3106 9.03753 54.1509C8.80433 54.0726 8.55798 54.0411 8.31258 54.0582C8.06719 54.0753 7.82759 54.1407 7.6075 54.2505L7.02142 54.5318C6.8006 54.6403 6.60344 54.7915 6.44133 54.9766C6.27922 55.1617 6.15536 55.377 6.0769 55.6102C5.99844 55.8434 5.96693 56.0899 5.98419 56.3353C6.00145 56.5807 6.06714 56.8203 6.17747 57.0403L11.9855 68.7618Z" fill="#F47B20"/>
<path d="M31.6402 52.5155C34.1675 52.0141 35.9579 50.3054 35.6392 48.6989C35.3205 47.0923 33.0134 46.1964 30.4862 46.6977C27.9589 47.1991 26.1685 48.9078 26.4872 50.5143C26.8059 52.1209 29.113 53.0168 31.6402 52.5155Z" fill="white"/>
<path d="M83.8902 42.3846C86.4175 41.8833 88.2079 40.1745 87.8892 38.568C87.5705 36.9615 85.2634 36.0655 82.7362 36.5669C80.2089 37.0682 78.4185 38.777 78.7372 40.3835C79.0559 41.99 81.363 42.886 83.8902 42.3846Z" fill="white"/>
<path d="M35.1182 36.4982C35.1182 36.4982 43.124 32.9817 44.1262 27.625L35.1182 36.4982Z" fill="#FEEFD2"/>
<path d="M35.118 37.3781C34.9057 37.3936 34.695 37.3316 34.525 37.2035C34.355 37.0754 34.2372 36.89 34.1935 36.6817C34.1498 36.4733 34.1832 36.2562 34.2875 36.0706C34.3918 35.8851 34.5599 35.7436 34.7605 35.6726C34.8367 35.6374 42.3795 32.2558 43.2586 27.4382C43.2802 27.3228 43.3243 27.2127 43.3884 27.1143C43.4524 27.0159 43.5353 26.931 43.6322 26.8646C43.729 26.7982 43.838 26.7516 43.9529 26.7273C44.0679 26.703 44.1864 26.7016 44.3019 26.7232C44.4173 26.7447 44.5274 26.7888 44.6258 26.8529C44.7242 26.917 44.809 26.9998 44.8754 27.0967C44.9418 27.1936 44.9885 27.3026 45.0128 27.4175C45.037 27.5324 45.0384 27.651 45.0169 27.7664C43.9444 33.4865 35.8448 37.1436 35.499 37.2784C35.3819 37.3419 35.2512 37.3761 35.118 37.3781Z" fill="#F47B20"/>
<path d="M72.9911 29.2257C72.9911 29.2257 64.2351 29.0148 61.2695 24.4609L72.9911 29.2257Z" fill="#FEEFD2"/>
<path d="M72.991 30.0989C72.6159 30.0989 63.7427 29.8176 60.5662 24.9356C60.4884 24.8413 60.4311 24.7317 60.398 24.614C60.3649 24.4963 60.3568 24.3729 60.3741 24.2519C60.3914 24.1308 60.4337 24.0147 60.4984 23.9109C60.5632 23.8072 60.6488 23.7181 60.7499 23.6493C60.8511 23.5805 60.9654 23.5336 61.0857 23.5115C61.206 23.4894 61.3295 23.4927 61.4485 23.5211C61.5674 23.5495 61.6791 23.6024 61.7765 23.6764C61.8738 23.7504 61.9547 23.844 62.0138 23.951C64.6863 28.0535 72.9266 28.3114 73.0145 28.3173C73.2476 28.3173 73.4712 28.4099 73.6361 28.5748C73.801 28.7396 73.8936 28.9632 73.8936 29.1964C73.8936 29.4295 73.801 29.6531 73.6361 29.818C73.4712 29.9829 73.2476 30.0755 73.0145 30.0755L72.991 30.0989Z" fill="#F47B20"/>
<path d="M15.6777 53.0089C15.6777 53.0089 15.4667 42.9107 17.8169 39.2302C20.1671 35.5496 25.2777 34.1841 24.1759 38.1459C23.074 42.1078 20.0733 46.8492 20.0733 46.8492C20.0733 46.8492 22.2828 55.318 19.5341 60.3759" fill="white"/>
<path d="M19.5286 60.68C19.4777 60.6803 19.4274 60.6682 19.3821 60.6449C19.3117 60.6064 19.2594 60.5418 19.2363 60.465C19.2133 60.3882 19.2214 60.3055 19.259 60.2346C21.9198 55.3409 19.7982 47.0069 19.7748 46.9248C19.7642 46.8844 19.7618 46.8424 19.7679 46.8011C19.7739 46.7598 19.7882 46.7202 19.8099 46.6845C19.8451 46.6376 22.8106 41.9314 23.8832 38.0633C24.0824 37.36 24.1703 36.4575 23.5022 36.1586C22.3301 35.637 19.5872 37.026 18.0751 39.3937C15.8011 42.9512 15.977 52.9028 15.977 53.0024C15.9777 53.0417 15.9708 53.0807 15.9565 53.1173C15.9422 53.1538 15.9208 53.1872 15.8936 53.2155C15.8664 53.2438 15.8339 53.2665 15.7979 53.2822C15.7619 53.2979 15.7232 53.3064 15.6839 53.3072C15.6051 53.3072 15.5293 53.2768 15.4725 53.2221C15.4157 53.1675 15.3822 53.0929 15.3792 53.0142C15.3792 52.598 15.1975 42.7812 17.5711 39.0714C19.1594 36.5805 22.166 34.8985 23.7542 35.6077C24.2348 35.8186 24.9674 36.4457 24.4751 38.2216C23.4553 41.8963 20.8649 46.1453 20.3726 46.8955C20.6539 48.0208 22.4004 55.6867 19.7865 60.5218C19.7615 60.5687 19.7244 60.6082 19.679 60.636C19.6337 60.6638 19.5818 60.679 19.5286 60.68Z" fill="#F47B20"/>
<path d="M95.4605 91.0214C95.4605 91.0214 93.8605 100.041 93.7023 102.848C93.544 105.656 89.3653 116.615 83.9616 117.278C78.558 117.94 86.6752 111.868 86.5521 107.9C86.429 103.933 83.358 107.443 82.2034 111.563C81.0488 115.684 78.8511 111.37 79.8591 107.572C80.8672 103.774 81.4005 103.722 81.7287 100.586C82.0569 97.4506 81.5118 87.3877 81.5118 87.3877L95.4605 91.0214Z" fill="white"/>
<path d="M83.2469 117.623C82.5554 117.623 82.1275 117.459 81.9224 117.119C81.4653 116.346 82.3503 115.103 83.5752 113.374C84.8001 111.645 86.2946 109.541 86.2477 107.918C86.2125 106.892 85.9781 106.499 85.7671 106.476C85.0638 106.394 83.3466 108.574 82.4851 111.651C81.9869 113.409 81.3129 113.65 80.8206 113.521C79.6484 113.21 78.8338 110.233 79.5429 107.502C79.9473 105.96 80.2814 105.017 80.551 104.261C81.0128 103.076 81.301 101.83 81.4067 100.563C81.729 97.4856 81.1898 87.5106 81.184 87.4051C81.1809 87.3581 81.1895 87.311 81.2089 87.2681C81.2283 87.2252 81.258 87.1877 81.2953 87.1589C81.3322 87.1282 81.376 87.1069 81.423 87.0967C81.4699 87.0865 81.5186 87.0877 81.5649 87.1003L95.537 90.7281C95.6106 90.7476 95.6743 90.7938 95.7155 90.8578C95.7567 90.9218 95.7725 90.9989 95.7597 91.0739C95.7597 91.1618 94.1597 100.111 94.0015 102.866C93.8432 105.62 89.6352 116.885 83.9971 117.576C83.7483 117.608 83.4977 117.623 83.2469 117.623ZM85.7319 105.872H85.8374C86.4704 105.949 86.8103 106.628 86.8513 107.894C86.9041 109.717 85.3979 111.845 84.0675 113.72C83.1825 114.962 82.1862 116.369 82.444 116.803C82.5026 116.897 82.7605 117.107 83.9209 116.967C89.1546 116.328 93.2454 105.357 93.3978 102.825C93.5502 100.293 94.8396 92.797 95.115 91.238L81.8111 87.7802C81.9107 89.7318 82.3034 97.8197 82.0103 100.621C81.8958 101.936 81.5959 103.229 81.1195 104.46C80.8558 105.204 80.5334 106.13 80.129 107.648C79.4668 110.186 80.2931 112.747 80.9788 112.923C81.2015 112.982 81.5649 112.636 81.9048 111.475C82.6667 108.779 84.3957 105.872 85.7319 105.872Z" fill="#F47B20"/>
<path d="M81.3275 89.4403L96.4256 93.531C97.6721 93.8688 98.9564 93.1321 99.2942 91.8855L99.3754 91.5857C99.7131 90.3392 98.9764 89.0548 97.7299 88.7171L82.6318 84.6264C81.3853 84.2886 80.1009 85.0253 79.7632 86.2719L79.682 86.5717C79.3442 87.8182 80.081 89.1026 81.3275 89.4403Z" fill="white"/>
<path d="M97.0608 93.9224C96.8273 93.9205 96.5949 93.889 96.3693 93.8287L81.2602 89.7261C80.5843 89.5423 80.009 89.0978 79.6606 88.4901C79.3123 87.8824 79.2194 87.1612 79.4023 86.4851L79.4844 86.1862C79.6659 85.5133 80.1058 84.9394 80.7084 84.5892C81.311 84.2391 82.0275 84.1411 82.7019 84.3166L97.8051 88.4192C98.1396 88.5095 98.453 88.6649 98.7274 88.8764C99.0018 89.0879 99.2318 89.3514 99.4043 89.6518C99.5769 89.9523 99.6885 90.2838 99.7329 90.6273C99.7773 90.9709 99.7535 91.3199 99.663 91.6543L99.581 91.9591C99.4285 92.5176 99.0973 93.0109 98.6379 93.3634C98.1786 93.7158 97.6164 93.9081 97.0374 93.9107L97.0608 93.9224ZM82.0338 84.85C81.5867 84.8511 81.1524 84.9991 80.7976 85.2713C80.4429 85.5434 80.1874 85.9246 80.0704 86.3562L79.9884 86.6551C79.9182 86.9129 79.8996 87.182 79.9335 87.4471C79.9674 87.7121 80.0532 87.9679 80.186 88.1998C80.3188 88.4316 80.496 88.635 80.7075 88.7984C80.919 88.9617 81.1605 89.0818 81.4184 89.1518L96.5216 93.2543C96.7795 93.3245 97.0486 93.3431 97.3137 93.3092C97.5787 93.2753 97.8345 93.1895 98.0663 93.0567C98.2982 92.9239 98.5016 92.7467 98.665 92.5352C98.8283 92.3237 98.9484 92.0822 99.0183 91.8243L99.1004 91.5195C99.1728 91.259 99.1925 90.9866 99.1584 90.7183C99.1242 90.4501 99.037 90.1913 98.9016 89.9572C98.7663 89.7231 98.5856 89.5183 98.3702 89.3548C98.1547 89.1914 97.9088 89.0725 97.6469 89.0052L82.5437 84.9027C82.3689 84.8626 82.1897 84.8449 82.0104 84.85H82.0338Z" fill="#F47B20"/>
<path d="M57.9343 106.125C57.9343 106.125 41.3952 102.896 41.2604 104.507C41.1256 106.119 41.7996 119.317 41.7996 119.317C41.7996 119.317 25.9755 127.821 28.4135 128.9C30.8516 129.978 57.9343 124.973 57.9343 124.973V106.125Z" fill="white"/>
<path d="M29.7856 129.345C29.2814 129.376 28.7755 129.319 28.2911 129.175C28.1694 129.131 28.0635 129.051 27.9864 128.947C27.9093 128.843 27.8644 128.719 27.8574 128.589C27.8574 128.214 27.8105 127.235 34.7966 122.98C37.7563 121.181 40.757 119.54 41.4896 119.142C41.4017 117.454 40.8332 106.013 40.9621 104.49C40.9706 104.409 40.9958 104.331 41.0362 104.26C41.0765 104.189 41.1311 104.128 41.1966 104.079C42.7262 102.907 55.4617 105.34 57.9935 105.838C58.0634 105.85 58.1265 105.887 58.1716 105.942C58.2167 105.997 58.2408 106.066 58.2397 106.137V124.985C58.2396 125.055 58.2151 125.124 58.1702 125.178C58.1253 125.233 58.0628 125.27 57.9935 125.284C55.5086 125.729 35.7402 129.345 29.7856 129.345ZM42.9255 104.343C42.1636 104.343 41.683 104.414 41.5541 104.566C41.431 106.113 42.0991 119.171 42.105 119.306C42.1063 119.363 42.0923 119.419 42.0644 119.468C42.0366 119.518 41.9959 119.559 41.9467 119.587C35.2889 123.168 28.4259 127.505 28.467 128.566C28.467 128.566 28.467 128.601 28.5373 128.624C30.4362 129.468 49.9408 126.134 57.636 124.721V106.377C51.787 105.24 45.6214 104.343 42.9255 104.343Z" fill="#F47B20"/>
<path d="M59.751 106.125C59.751 106.125 76.2901 102.896 76.4249 104.507C76.5597 106.119 75.8857 119.317 75.8857 119.317C75.8857 119.317 91.7098 127.821 89.2717 128.9C86.8336 129.978 59.751 124.973 59.751 124.973V106.125Z" fill="white"/>
<path d="M87.9003 129.345C81.9517 129.345 62.1774 125.729 59.6924 125.271C59.6231 125.258 59.5607 125.221 59.5158 125.166C59.4709 125.112 59.4463 125.043 59.4463 124.973V106.124C59.4463 106.054 59.4709 105.985 59.5158 105.931C59.5607 105.876 59.6231 105.839 59.6924 105.825C62.2302 105.333 74.9304 102.895 76.4894 104.067C76.5565 104.114 76.6123 104.175 76.6529 104.246C76.6934 104.317 76.7177 104.396 76.7239 104.477C76.8528 106.007 76.2843 117.447 76.1964 119.129C78.8572 120.565 89.8989 126.649 89.8285 128.577C89.8215 128.706 89.7767 128.831 89.6996 128.935C89.6225 129.039 89.5166 129.118 89.3949 129.163C88.9111 129.31 88.4053 129.372 87.9003 129.345ZM60.0499 124.721C67.7451 126.133 87.2498 129.462 89.1487 128.624C89.1956 128.624 89.2249 128.583 89.2249 128.565C89.2659 127.504 82.4029 123.167 75.7451 119.587C75.695 119.559 75.6537 119.518 75.6257 119.469C75.5977 119.419 75.5843 119.362 75.5869 119.305C75.5869 119.17 76.255 106.113 76.1261 104.536C75.54 103.856 67.54 104.923 60.0499 106.376V124.721Z" fill="#F47B20"/>
<path d="M16.4815 4.27637C15.5144 2.61777 13.2756 2.03756 11.4119 2.51814C9.54817 2.99872 8.00679 4.27637 6.66467 5.64779C6.22685 6.01442 5.93049 6.52217 5.82658 7.08368C5.79142 7.66976 6.3306 8.25584 6.86393 8.06829C4.29105 7.61115 2.17531 10.0903 1.04419 12.4404C0.458108 13.6126 0.00683093 14.9606 0.534301 16.1269C1.06177 17.2932 2.4918 17.8851 3.80461 18.0257C6.30451 18.2916 8.80886 17.5655 10.7789 16.0038C11.5625 16.7665 12.5271 17.3173 13.5821 17.6045C14.6372 17.8918 15.7479 17.9059 16.8099 17.6457C17.8719 17.3855 18.8503 16.8594 19.653 16.117C20.4558 15.3745 21.0565 14.4401 21.3987 13.4016C20.9063 13.7122 21.68 14.3393 22.2543 14.3686C23.6551 14.4507 25.1027 14.5269 26.4096 14.0111C29.3752 12.839 29.7268 5.70054 27.7459 3.37381C25.6477 0.894704 17.8412 1.02364 16.4815 4.27637Z" fill="white"/>
<path d="M4.84737 18.3715C4.48709 18.3724 4.12704 18.3528 3.76898 18.3129C2.04005 18.1195 0.762405 17.3634 0.252518 16.2382C-0.33356 14.9136 0.211494 13.4367 0.762407 12.2997C1.31332 11.1627 3.00708 8.12099 5.67374 7.73418C5.56075 7.52401 5.50801 7.28671 5.52135 7.04847C5.62602 6.41539 5.95211 5.84006 6.4415 5.42503C7.61365 4.20013 9.26639 2.72322 11.3294 2.20747C13.0407 1.78549 15.2502 2.20747 16.4458 3.69025C17.155 2.59428 18.6554 1.80308 20.6539 1.49246C23.2385 1.08806 26.5791 1.52762 27.9681 3.15692C29.2165 4.62211 29.6502 7.96275 28.9527 10.7759C28.4956 12.5928 27.6341 13.8411 26.5147 14.2924C25.1257 14.8374 23.5843 14.7495 22.2304 14.6733C21.9086 14.6442 21.6017 14.5243 21.3454 14.3276C20.8946 15.2748 20.2284 16.1033 19.4 16.7469C18.5717 17.3906 17.6042 17.8314 16.575 18.0342C15.5457 18.2369 14.4833 18.196 13.4727 17.9147C12.4622 17.6334 11.5314 17.1194 10.755 16.414C9.04963 17.6888 6.97657 18.3757 4.84737 18.3715ZM6.25981 8.30268C4.14993 8.30268 2.34481 10.436 1.31332 12.5635C0.821012 13.5832 0.316985 14.9078 0.80929 15.992C1.39537 17.299 3.1536 17.633 3.83931 17.7092C6.26102 17.9744 8.68904 17.2683 10.5909 15.7459C10.6463 15.698 10.717 15.6717 10.7902 15.6717C10.8634 15.6717 10.9341 15.698 10.9895 15.7459C11.7051 16.4534 12.5843 16.9734 13.5491 17.2595C14.5138 17.5457 15.5344 17.5893 16.52 17.3863C17.5057 17.1834 18.426 16.7403 19.1993 16.0962C19.9726 15.4522 20.5749 14.6273 20.9528 13.6946C20.9377 13.5788 20.9575 13.4612 21.0097 13.3568C21.062 13.2524 21.1442 13.1659 21.2458 13.1085C21.296 13.0718 21.3565 13.0521 21.4187 13.0521C21.4809 13.0521 21.5414 13.0718 21.5916 13.1085C21.6406 13.1458 21.6766 13.1976 21.6945 13.2565C21.7123 13.3154 21.7112 13.3785 21.6912 13.4367C21.6912 13.5188 21.6385 13.6008 21.6092 13.6829C21.7874 13.8661 22.0234 13.982 22.2773 14.0111C23.5725 14.0873 25.0377 14.1693 26.3037 13.6711C27.2355 13.3019 27.974 12.206 28.3784 10.5825C29.0231 7.99791 28.6363 4.82138 27.5168 3.51442C26.3974 2.20747 23.5315 1.68 20.7535 2.09025C18.6905 2.4126 17.237 3.26241 16.7623 4.38768C16.741 4.44096 16.7048 4.48697 16.658 4.52023C16.6113 4.55349 16.5559 4.57258 16.4986 4.57522C16.4428 4.57898 16.387 4.56729 16.3374 4.54145C16.2877 4.5156 16.2462 4.47659 16.2173 4.4287C15.2795 2.81699 13.1228 2.38915 11.4818 2.79941C9.56529 3.27413 8.01804 4.68072 6.88105 5.84701C6.49857 6.16519 6.23432 6.60285 6.13088 7.0895C6.13019 7.20273 6.15576 7.31459 6.20559 7.41628C6.25542 7.51797 6.32814 7.60672 6.41805 7.67557C6.57629 7.67557 6.7404 7.67557 6.91036 7.73418C6.97541 7.74561 7.03484 7.77826 7.07937 7.82703C7.12391 7.87581 7.15103 7.93796 7.15651 8.00378C7.16184 8.07022 7.14523 8.13657 7.10924 8.19268C7.07325 8.24878 7.01986 8.29154 6.95725 8.3144C6.72743 8.39639 6.47445 8.38374 6.25395 8.27923L6.25981 8.30268Z" fill="#D1D3D4"/>
<path d="M21.2867 13.7118C20.9551 13.7063 20.6242 13.6789 20.2962 13.6297C19.0948 13.4539 17.571 12.9675 17.1373 11.6253C17.1131 11.5492 17.1199 11.4665 17.1561 11.3953C17.1922 11.324 17.255 11.2698 17.3307 11.2444C17.4069 11.2202 17.4895 11.227 17.5607 11.2632C17.632 11.2993 17.6862 11.362 17.7116 11.4378C18.0633 12.5396 19.5402 12.9088 20.3842 13.0319C21.0128 13.1581 21.6629 13.1279 22.2772 12.944C22.7706 12.7252 23.2017 12.3868 23.5314 11.9594C24.042 11.345 24.439 10.6444 24.7035 9.89054C24.73 9.81282 24.7862 9.74879 24.8598 9.71252C24.9335 9.67625 25.0185 9.67071 25.0962 9.69714C25.1739 9.72356 25.238 9.77978 25.2742 9.85342C25.3105 9.92706 25.316 10.0121 25.2896 10.0898C25.0034 10.9141 24.5684 11.6789 24.0061 12.3462C23.6135 12.8578 23.0972 13.2612 22.5058 13.5184C22.1151 13.6587 21.7016 13.7243 21.2867 13.7118Z" fill="#D1D3D4"/>
<path d="M84.5891 3.43811C83.6173 3.22161 82.5997 3.36966 81.7298 3.85414C80.86 4.33861 80.1984 5.12574 79.8707 6.06599C79.5431 7.00624 79.5722 8.03408 79.9527 8.95423C80.3331 9.87439 81.0383 10.6227 81.9342 11.0571C82.3999 11.2002 82.8394 11.4179 83.2353 11.7018C83.4953 11.9856 83.716 12.3029 83.8917 12.6454C85.1225 14.6146 87.7481 15.3999 90.0221 14.9369C92.2961 14.4739 94.2418 12.9619 95.7539 11.1978C95.5629 11.3744 95.449 11.6192 95.437 11.8791C95.4249 12.139 95.5156 12.3932 95.6895 12.5868C96.0603 12.9663 96.5393 13.2221 97.0609 13.3194C98.6609 13.7472 100.437 13.9055 101.914 13.1494C102.647 12.8025 103.238 12.2127 103.586 11.48C103.934 10.7472 104.018 9.91661 103.824 9.12892C104.117 10.1311 105.383 9.715 105.817 9.26372C106.403 8.67764 106.344 6.98388 106.245 6.25128C105.952 3.98902 103.836 1.62127 101.363 1.81467C100.871 1.91446 100.368 1.9421 99.8682 1.89672C99.0535 1.7209 98.5378 0.923835 97.7935 0.542885C97.3462 0.348391 96.857 0.270047 96.3714 0.315129C95.8857 0.360211 95.4193 0.527256 95.0155 0.800758C94.2058 1.34782 93.5077 2.04396 92.9583 2.85203C92.6184 2.0198 91.5459 1.82053 90.6492 1.83225C88.3049 1.86156 86.9745 2.34214 85.3745 3.86008C85.1314 3.68705 84.8676 3.54528 84.5891 3.43811Z" fill="white"/>
<path d="M88.7091 15.3882C87.7156 15.417 86.7307 15.1966 85.8442 14.7472C84.9577 14.2978 84.1977 13.6337 83.6337 12.8153C83.581 12.7391 83.5341 12.657 83.4872 12.575C83.3677 12.3063 83.1875 12.0691 82.9607 11.8819C82.7339 11.6948 82.4667 11.5629 82.1802 11.4966L81.8227 11.3501C80.8282 10.9031 80.0373 10.0997 79.6058 9.09828C79.1744 8.0969 79.1338 6.97022 79.4921 5.94039C79.8503 4.91055 80.5814 4.05231 81.5411 3.53486C82.5009 3.01741 83.6197 2.87832 84.6769 3.14501C84.9119 3.22232 85.1319 3.33927 85.3275 3.49079C86.8923 2.07248 88.2578 1.58018 90.6432 1.55088C91.745 1.55088 92.5362 1.80875 92.9875 2.33622C93.4908 1.62888 94.1207 1.02083 94.8454 0.542823C95.2938 0.241892 95.8111 0.0593532 96.3491 0.0122139C96.8871 -0.0349253 97.4283 0.0548666 97.9223 0.273226C98.2455 0.452045 98.5465 0.668443 98.819 0.917913C99.06 1.21487 99.3826 1.43474 99.7472 1.55035C100.112 1.66596 100.502 1.67226 100.87 1.56846L101.327 1.51571C104.006 1.29886 106.227 3.819 106.543 6.20433C106.543 6.30397 106.854 8.64828 106.022 9.46878C105.795 9.68233 105.522 9.84094 105.225 9.9324C104.927 10.0239 104.612 10.0457 104.305 9.99625H104.24C104.219 10.7117 104.002 11.4076 103.612 12.0081C103.222 12.6085 102.675 13.0905 102.031 13.4014C100.689 14.0695 98.9831 14.134 96.967 13.5948C96.3973 13.4943 95.8718 13.2223 95.4607 12.8153C95.3356 12.6598 95.2438 12.4803 95.1911 12.2878C93.8179 13.763 92.0403 14.8006 90.0806 15.2709C89.6286 15.3563 89.1691 15.3956 88.7091 15.3882ZM83.6689 3.61387C82.8786 3.61956 82.1081 3.86146 81.4565 4.30845C80.8048 4.75544 80.3016 5.38712 80.0117 6.12228C79.7358 7.01859 79.7897 7.98405 80.1638 8.84403C80.5379 9.70401 81.2075 10.4017 82.0513 10.8109L82.3971 10.9457C82.7478 11.0373 83.0741 11.205 83.3526 11.437C83.6312 11.669 83.8552 11.9594 84.0088 12.2878L84.1436 12.5105C85.2396 14.2688 87.6601 15.1479 89.9633 14.6732C92.0593 14.1435 93.9305 12.9563 95.3025 11.2856C95.3741 11.1605 95.4721 11.0525 95.5897 10.9691C95.6504 10.9297 95.7231 10.9132 95.7948 10.9225C95.8665 10.9318 95.9327 10.9663 95.9813 11.0199C96.0299 11.0735 96.0579 11.1426 96.0602 11.2149C96.0626 11.2872 96.0391 11.358 95.9941 11.4146L95.8007 11.6314C95.7802 11.6822 95.7664 11.7354 95.7596 11.7896C95.7336 12.0118 95.7968 12.2353 95.9355 12.4109C96.2706 12.7187 96.688 12.9224 97.1369 12.997C99.0065 13.501 100.571 13.4482 101.773 12.8505C102.445 12.5379 102.987 12.0018 103.308 11.3338C103.629 10.6658 103.707 9.90718 103.531 9.18747C103.508 9.10975 103.518 9.02626 103.557 8.95537C103.596 8.88447 103.661 8.83198 103.739 8.80945C103.817 8.78691 103.9 8.79617 103.971 8.83518C104.042 8.8742 104.095 8.93979 104.117 9.0175C104.135 9.10612 104.177 9.18793 104.239 9.25333C104.301 9.31874 104.381 9.36501 104.469 9.38673C104.675 9.40979 104.883 9.3888 105.08 9.32514C105.277 9.26148 105.458 9.15661 105.612 9.0175C106.039 8.58967 106.069 7.14792 105.952 6.26294C105.676 4.14134 103.666 1.90838 101.392 2.09007L100.964 2.13695C100.512 2.25301 100.036 2.24102 99.5897 2.10235C99.1436 1.96367 98.7449 1.70375 98.438 1.35161C98.2036 1.12711 97.944 0.930442 97.6644 0.765531C97.2612 0.597565 96.8227 0.532136 96.388 0.575091C95.9533 0.618047 95.5361 0.768048 95.1736 1.01169C94.4044 1.54838 93.7425 2.22423 93.2219 3.00435C93.1892 3.04632 93.146 3.07898 93.0967 3.09908C93.0474 3.11917 92.9937 3.12601 92.9409 3.11889C92.8882 3.11178 92.8382 3.09097 92.796 3.05853C92.7538 3.02609 92.7208 2.98317 92.7003 2.93402C92.3956 2.19556 91.2937 2.09593 90.6783 2.10765C88.3633 2.10765 87.1267 2.60582 85.5971 4.04757C85.5486 4.09196 85.4873 4.11984 85.422 4.12722C85.3568 4.13459 85.2908 4.12106 85.2337 4.08859L84.9934 3.93035C84.8548 3.82201 84.7007 3.73508 84.5363 3.67248C84.2508 3.61628 83.9593 3.59658 83.6689 3.61387Z" fill="#D1D3D4"/>
<path d="M96.3637 11.6782C96.1677 11.6754 95.9721 11.6617 95.7776 11.6372C94.828 11.4941 93.9397 11.0802 93.2193 10.4451C92.499 9.80993 91.977 8.98053 91.7161 8.05628C91.7055 8.01818 91.7025 7.97835 91.7074 7.93909C91.7122 7.89984 91.7248 7.86194 91.7445 7.8276C91.7641 7.79325 91.7903 7.76314 91.8217 7.73902C91.853 7.71489 91.8889 7.69723 91.9271 7.68705C92.0048 7.66739 92.0871 7.67912 92.1562 7.7197C92.2253 7.76029 92.2756 7.82647 92.2963 7.9039C92.5137 8.7206 92.9682 9.45461 93.6023 10.0133C94.2364 10.572 95.0218 10.9304 95.8594 11.0433C96.697 11.1561 97.5492 11.0184 98.3086 10.6474C99.068 10.2764 99.7005 9.68887 100.126 8.95884C100.146 8.92412 100.173 8.89376 100.205 8.86957C100.237 8.84537 100.273 8.82784 100.312 8.818C100.351 8.80816 100.391 8.80622 100.431 8.81229C100.47 8.81836 100.508 8.83232 100.542 8.85335C100.61 8.8947 100.658 8.96061 100.678 9.03715C100.698 9.11369 100.687 9.19488 100.648 9.2636C100.2 9.99923 99.5713 10.6076 98.8211 11.0304C98.071 11.4532 97.2248 11.6763 96.3637 11.6782Z" fill="#D1D3D4"/>
<path d="M84.0674 6.6793C83.9935 6.25766 84.0366 5.82385 84.1918 5.42493C84.347 5.02601 84.6084 4.6772 84.9478 4.41633C85.2872 4.15546 85.6915 3.99248 86.1169 3.94508C86.5424 3.89768 86.9726 3.96767 87.3611 4.14744" fill="white"/>
<path d="M84.0668 6.95472C83.9959 6.95583 83.9269 6.93168 83.8721 6.88658C83.8174 6.84149 83.7804 6.77839 83.7679 6.70857C83.6826 6.23176 83.7299 5.74067 83.9047 5.28893C84.0795 4.83719 84.3751 4.44217 84.7591 4.14701C85.1432 3.85186 85.601 3.66791 86.0825 3.61527C86.564 3.56262 87.0507 3.64331 87.4895 3.84851C87.5574 3.88575 87.6086 3.94747 87.6327 4.0211C87.6567 4.09474 87.6518 4.17477 87.619 4.24492C87.5862 4.31508 87.5278 4.3701 87.4559 4.3988C87.3839 4.4275 87.3037 4.42772 87.2316 4.39942C86.8937 4.24062 86.5185 4.17792 86.1473 4.21821C85.7761 4.2585 85.4231 4.40022 85.1271 4.62784C84.8311 4.85545 84.6034 5.16016 84.4691 5.50858C84.3348 5.857 84.2991 6.23566 84.3657 6.60307C84.3794 6.6823 84.3612 6.76372 84.3151 6.82958C84.2689 6.89545 84.1987 6.94042 84.1196 6.95472H84.0668Z" fill="#D1D3D4"/>
<path d="M11.5285 20.3233C11.527 20.2461 11.4956 20.1724 11.441 20.1178C11.3863 20.0631 11.3127 20.0318 11.2354 20.0303C11.1577 20.0303 11.0832 20.0611 11.0282 20.1161C10.9733 20.1711 10.9424 20.2456 10.9424 20.3233C11.042 21.2083 11.1475 22.0815 11.2471 22.9782C11.2486 23.0555 11.28 23.1292 11.3346 23.1838C11.3893 23.2384 11.4629 23.2698 11.5402 23.2713C11.6174 23.2698 11.6911 23.2384 11.7457 23.1838C11.8004 23.1292 11.8317 23.0555 11.8332 22.9782C11.7336 22.0933 11.6281 21.2083 11.5285 20.3233Z" fill="#D1D3D4"/>
<path d="M17.3547 24.1505C17.3354 24.117 17.3098 24.0876 17.2792 24.0641C17.2486 24.0405 17.2137 24.0232 17.1764 24.0131C17.1391 24.003 17.1002 24.0004 17.0619 24.0054C17.0236 24.0103 16.9867 24.0228 16.9532 24.042C16.9197 24.0613 16.8903 24.0869 16.8668 24.1175C16.8432 24.1481 16.8259 24.183 16.8158 24.2203C16.8058 24.2576 16.8031 24.2965 16.8081 24.3348C16.8131 24.3731 16.8255 24.41 16.8448 24.4435C16.9205 24.5541 16.9853 24.6719 17.0382 24.7951V24.842V24.9124C17.0382 24.9768 17.0851 25.0413 17.1026 25.1058C17.139 25.2287 17.1664 25.354 17.1847 25.4809V25.5336C17.1847 25.5336 17.1847 25.5864 17.1847 25.6098C17.1847 25.6332 17.1847 25.7563 17.1847 25.8266C17.1847 25.9044 17.2156 25.9789 17.2705 26.0339C17.3255 26.0888 17.4 26.1197 17.4777 26.1197C17.5555 26.1197 17.63 26.0888 17.6849 26.0339C17.7399 25.9789 17.7708 25.9044 17.7708 25.8266C17.7854 25.2407 17.6416 24.6616 17.3547 24.1505Z" fill="#D1D3D4"/>
<path d="M22.0431 21.7885C21.9669 21.3489 21.8966 20.9093 21.8204 20.4698C21.7998 20.3954 21.7507 20.3322 21.6838 20.2938C21.6169 20.2553 21.5375 20.2449 21.4629 20.2647C21.3889 20.2878 21.3265 20.3382 21.2884 20.4057C21.2503 20.4732 21.2393 20.5527 21.2578 20.628C21.3281 21.0676 21.4043 21.5071 21.4746 21.9467C21.4965 22.0215 21.5467 22.0848 21.6146 22.1232C21.6825 22.1615 21.7626 22.1718 21.838 22.1518C21.912 22.1287 21.9744 22.0783 22.0125 22.0108C22.0506 21.9433 22.0615 21.8638 22.0431 21.7885Z" fill="#D1D3D4"/>
<path d="M89.799 20.2523L89.3536 18.711C89.3436 18.6725 89.3261 18.6363 89.3022 18.6046C89.2782 18.5729 89.2482 18.5462 89.2139 18.5261C89.1796 18.5059 89.1417 18.4928 89.1023 18.4873C89.063 18.4818 89.0229 18.4841 88.9844 18.4941C88.9459 18.5041 88.9098 18.5216 88.8781 18.5456C88.8463 18.5695 88.8196 18.5995 88.7995 18.6338C88.7794 18.6681 88.7662 18.706 88.7607 18.7454C88.7552 18.7848 88.7575 18.8249 88.7676 18.8633L89.2071 20.4047C89.2273 20.4824 89.2776 20.549 89.3468 20.5896C89.4161 20.6303 89.4986 20.6418 89.5763 20.6216C89.6541 20.6014 89.7206 20.5511 89.7612 20.4819C89.8019 20.4126 89.8134 20.3301 89.7932 20.2523H89.799Z" fill="#D1D3D4"/>
<path d="M95.8887 22.0166C95.8115 22.0181 95.7378 22.0495 95.6832 22.1041C95.6286 22.1587 95.5972 22.2324 95.5957 22.3096V24.0679C95.5957 24.1456 95.6266 24.2201 95.6815 24.2751C95.7365 24.33 95.811 24.3609 95.8887 24.3609C95.966 24.3594 96.0397 24.3281 96.0943 24.2734C96.1489 24.2188 96.1803 24.1451 96.1818 24.0679V22.3096C96.1803 22.2324 96.1489 22.1587 96.0943 22.1041C96.0397 22.0495 95.966 22.0181 95.8887 22.0166Z" fill="#D1D3D4"/>
<path d="M101.708 22.3096C101.705 22.2328 101.674 22.16 101.619 22.1056C101.565 22.0513 101.492 22.0195 101.415 22.0166C101.269 22.0166 101.099 22.1514 101.122 22.3096L101.456 24.9587C101.456 25.0364 101.487 25.111 101.542 25.1659C101.597 25.2209 101.672 25.2518 101.749 25.2518C101.827 25.2518 101.902 25.2209 101.957 25.1659C102.012 25.111 102.042 25.0364 102.042 24.9587L101.708 22.3096Z" fill="#D1D3D4"/>
<path d="M98.9659 35.2207C98.8886 35.2222 98.815 35.2536 98.7603 35.3082C98.7057 35.3628 98.6744 35.4365 98.6729 35.5137V36.6097C98.6729 36.6874 98.7037 36.762 98.7587 36.8169C98.8136 36.8719 98.8882 36.9027 98.9659 36.9027C99.0436 36.9027 99.1181 36.8719 99.1731 36.8169C99.2281 36.762 99.2589 36.6874 99.2589 36.6097V35.5137C99.2589 35.436 99.2281 35.3615 99.1731 35.3065C99.1181 35.2516 99.0436 35.2207 98.9659 35.2207Z" fill="#D1D3D4"/>
<path d="M104.984 41.3687C104.761 40.6361 104.545 39.9035 104.322 39.1709C104.299 39.0969 104.248 39.0345 104.181 38.9964C104.113 38.9583 104.034 38.9473 103.958 38.9658C103.885 38.9876 103.823 39.0372 103.786 39.104C103.749 39.1708 103.739 39.2495 103.759 39.3233C103.976 40.0617 104.199 40.7943 104.421 41.5269C104.432 41.5654 104.45 41.6015 104.474 41.6331C104.498 41.6646 104.529 41.6911 104.563 41.711C104.598 41.7308 104.636 41.7437 104.675 41.7488C104.715 41.7539 104.755 41.7512 104.794 41.7409C104.832 41.7305 104.868 41.7126 104.9 41.6883C104.931 41.6639 104.958 41.6336 104.978 41.5991C104.998 41.5645 105.01 41.5264 105.016 41.4869C105.021 41.4473 105.018 41.4072 105.008 41.3687H104.984Z" fill="#D1D3D4"/>
<path d="M7.25014 27.1563C7.24864 27.0791 7.21728 27.0054 7.16265 26.9508C7.10801 26.8961 7.03435 26.8648 6.9571 26.8633C6.87938 26.8633 6.80485 26.8942 6.74989 26.9491C6.69494 27.0041 6.66406 27.0786 6.66406 27.1563C6.73439 27.8127 6.80472 28.475 6.88091 29.1373C6.88091 29.215 6.91178 29.2895 6.96674 29.3445C7.02169 29.3994 7.09623 29.4303 7.17395 29.4303C7.2512 29.4288 7.32486 29.3974 7.3795 29.3428C7.43413 29.2882 7.46549 29.2145 7.46699 29.1373C7.3908 28.475 7.32047 27.8127 7.25014 27.1563Z" fill="#D1D3D4"/>
<path d="M10.1226 39.8395C9.9004 39.003 9.84071 38.1316 9.94676 37.2725C9.94676 37.1948 9.91589 37.1203 9.86093 37.0653C9.80598 37.0104 9.73144 36.9795 9.65372 36.9795C9.57601 36.9795 9.50147 37.0104 9.44651 37.0653C9.39156 37.1203 9.36069 37.1948 9.36069 37.2725C9.25171 38.185 9.31735 39.1099 9.55409 39.9978C9.57508 40.0732 9.62515 40.1371 9.69329 40.1756C9.76144 40.2141 9.84207 40.2239 9.91746 40.2029C9.99284 40.1819 10.0568 40.1319 10.0953 40.0637C10.1337 39.9956 10.1436 39.9149 10.1226 39.8395Z" fill="#D1D3D4"/>
<path d="M13.1583 29.7178C13.081 29.7193 13.0074 29.7506 12.9527 29.8053C12.8981 29.8599 12.8667 29.9336 12.8652 30.0108V31.3295C12.8652 31.4072 12.8961 31.4817 12.9511 31.5367C13.006 31.5917 13.0806 31.6225 13.1583 31.6225C13.236 31.6225 13.3105 31.5917 13.3655 31.5367C13.4204 31.4817 13.4513 31.4072 13.4513 31.3295V30.0108C13.4498 29.9336 13.4185 29.8599 13.3638 29.8053C13.3092 29.7506 13.2355 29.7193 13.1583 29.7178Z" fill="#D1D3D4"/>
</svg>
