<svg width="390" height="130" viewBox="0 0 390 130" fill="none" xmlns="http://www.w3.org/2000/svg">
<g clip-path="url(#clip0_3279_30685)">
<path d="M0 0H390V106C390 119.255 379.255 130 366 130H24C10.7452 130 0 119.255 0 106V0Z" fill="#F47B20"/>
<path d="M391 6.53611V417.911H42.2791C42.2834 418.028 42.2672 418.031 42.2292 417.911H42.2791C42.1816 415.223 31.4551 352.523 26.4993 317.415C-0.621279 125.287 201.078 196.876 239.667 108.642C281.975 11.9053 332.239 3.31457 391 6.53611Z" fill="url(#paint0_linear_3279_30685)"/>
<path d="M0 -74.4574V341.91H348.721C348.717 342.029 348.733 342.031 348.771 341.91H348.721C348.818 339.19 359.545 275.728 364.501 240.194C391.621 45.7349 189.922 118.192 151.333 28.8882C109.025 -69.023 58.7613 -77.718 0 -74.4574Z" fill="url(#paint1_linear_3279_30685)"/>
<path d="M20.944 82.128C20.0907 82.128 19.2747 82 18.496 81.744C17.7173 81.4773 17.104 81.136 16.656 80.72L17.248 79.472C17.6747 79.8453 18.2187 80.1547 18.88 80.4C19.5413 80.6453 20.2293 80.768 20.944 80.768C21.5947 80.768 22.1227 80.6933 22.528 80.544C22.9333 80.3947 23.232 80.192 23.424 79.936C23.616 79.6693 23.712 79.3707 23.712 79.04C23.712 78.656 23.584 78.3467 23.328 78.112C23.0827 77.8773 22.7573 77.6907 22.352 77.552C21.9573 77.4027 21.52 77.2747 21.04 77.168C20.56 77.0613 20.0747 76.9387 19.584 76.8C19.104 76.6507 18.6613 76.464 18.256 76.24C17.8613 76.016 17.5413 75.7173 17.296 75.344C17.0507 74.96 16.928 74.4693 16.928 73.872C16.928 73.296 17.0773 72.768 17.376 72.288C17.6853 71.7973 18.1547 71.408 18.784 71.12C19.424 70.8213 20.2347 70.672 21.216 70.672C21.8667 70.672 22.512 70.7573 23.152 70.928C23.792 71.0987 24.3467 71.344 24.816 71.664L24.288 72.944C23.808 72.624 23.3013 72.3947 22.768 72.256C22.2347 72.1067 21.7173 72.032 21.216 72.032C20.5867 72.032 20.0693 72.112 19.664 72.272C19.2587 72.432 18.96 72.6453 18.768 72.912C18.5867 73.1787 18.496 73.4773 18.496 73.808C18.496 74.2027 18.6187 74.5173 18.864 74.752C19.12 74.9867 19.4453 75.1733 19.84 75.312C20.2453 75.4507 20.688 75.5787 21.168 75.696C21.648 75.8027 22.128 75.9253 22.608 76.064C23.0987 76.2027 23.5413 76.384 23.936 76.608C24.3413 76.832 24.6667 77.1307 24.912 77.504C25.1573 77.8773 25.28 78.3573 25.28 78.944C25.28 79.5093 25.1253 80.0373 24.816 80.528C24.5067 81.008 24.0267 81.3973 23.376 81.696C22.736 81.984 21.9253 82.128 20.944 82.128ZM31.6695 82.096C30.7628 82.096 29.9628 81.9093 29.2695 81.536C28.5868 81.1627 28.0535 80.6507 27.6695 80C27.2962 79.3493 27.1095 78.6027 27.1095 77.76C27.1095 76.9173 27.2908 76.1707 27.6535 75.52C28.0268 74.8693 28.5335 74.3627 29.1735 74C29.8242 73.6267 30.5548 73.44 31.3655 73.44C32.1868 73.44 32.9122 73.6213 33.5415 73.984C34.1708 74.3467 34.6615 74.8587 35.0135 75.52C35.3762 76.1707 35.5575 76.9333 35.5575 77.808C35.5575 77.872 35.5522 77.9467 35.5415 78.032C35.5415 78.1173 35.5362 78.1973 35.5255 78.272H28.3095V77.168H34.7255L34.1015 77.552C34.1122 77.008 34.0002 76.5227 33.7655 76.096C33.5308 75.6693 33.2055 75.3387 32.7895 75.104C32.3842 74.8587 31.9095 74.736 31.3655 74.736C30.8322 74.736 30.3575 74.8587 29.9415 75.104C29.5255 75.3387 29.2002 75.6747 28.9655 76.112C28.7308 76.5387 28.6135 77.0293 28.6135 77.584V77.84C28.6135 78.4053 28.7415 78.912 28.9975 79.36C29.2642 79.7973 29.6322 80.1387 30.1015 80.384C30.5708 80.6293 31.1095 80.752 31.7175 80.752C32.2188 80.752 32.6722 80.6667 33.0775 80.496C33.4935 80.3253 33.8562 80.0693 34.1655 79.728L35.0135 80.72C34.6295 81.168 34.1495 81.5093 33.5735 81.744C33.0082 81.9787 32.3735 82.096 31.6695 82.096ZM38.1904 82V70.128H39.7264V82H38.1904ZM48.4231 82V80.208L48.3431 79.872V76.816C48.3431 76.1653 48.1511 75.664 47.7671 75.312C47.3938 74.9493 46.8285 74.768 46.0711 74.768C45.5698 74.768 45.0791 74.8533 44.5991 75.024C44.1191 75.184 43.7138 75.4027 43.3831 75.68L42.7431 74.528C43.1805 74.176 43.7031 73.9093 44.3111 73.728C44.9298 73.536 45.5751 73.44 46.2471 73.44C47.4098 73.44 48.3058 73.7227 48.9351 74.288C49.5645 74.8533 49.8791 75.7173 49.8791 76.88V82H48.4231ZM45.6391 82.096C45.0098 82.096 44.4551 81.9893 43.9751 81.776C43.5058 81.5627 43.1431 81.2693 42.8871 80.896C42.6311 80.512 42.5031 80.08 42.5031 79.6C42.5031 79.1413 42.6098 78.7253 42.8231 78.352C43.0471 77.9787 43.4045 77.68 43.8951 77.456C44.3965 77.232 45.0685 77.12 45.9111 77.12H48.5991V78.224H45.9751C45.2071 78.224 44.6898 78.352 44.4231 78.608C44.1565 78.864 44.0231 79.1733 44.0231 79.536C44.0231 79.952 44.1885 80.288 44.5191 80.544C44.8498 80.7893 45.3085 80.912 45.8951 80.912C46.4711 80.912 46.9725 80.784 47.3991 80.528C47.8365 80.272 48.1511 79.8987 48.3431 79.408L48.6471 80.464C48.4445 80.9653 48.0871 81.3653 47.5751 81.664C47.0631 81.952 46.4178 82.096 45.6391 82.096ZM63.8296 73.44C64.5123 73.44 65.115 73.5733 65.6376 73.84C66.1603 74.1067 66.5656 74.512 66.8536 75.056C67.1523 75.6 67.3016 76.288 67.3016 77.12V82H65.7656V77.296C65.7656 76.4747 65.5736 75.856 65.1896 75.44C64.8056 75.024 64.267 74.816 63.5736 74.816C63.0616 74.816 62.6136 74.9227 62.2296 75.136C61.8456 75.3493 61.547 75.664 61.3336 76.08C61.131 76.496 61.0296 77.0133 61.0296 77.632V82H59.4936V77.296C59.4936 76.4747 59.3016 75.856 58.9176 75.44C58.5443 75.024 58.0056 74.816 57.3016 74.816C56.8003 74.816 56.3576 74.9227 55.9736 75.136C55.5896 75.3493 55.291 75.664 55.0776 76.08C54.8643 76.496 54.7576 77.0133 54.7576 77.632V82H53.2216V73.52H54.6936V75.776L54.4536 75.2C54.7203 74.6453 55.131 74.2133 55.6856 73.904C56.2403 73.5947 56.8856 73.44 57.6216 73.44C58.4323 73.44 59.131 73.6427 59.7176 74.048C60.3043 74.4427 60.6883 75.0453 60.8696 75.856L60.2456 75.6C60.5016 74.9493 60.9496 74.4267 61.5896 74.032C62.2296 73.6373 62.9763 73.44 63.8296 73.44ZM75.8919 82V80.208L75.8119 79.872V76.816C75.8119 76.1653 75.6199 75.664 75.2359 75.312C74.8625 74.9493 74.2972 74.768 73.5399 74.768C73.0385 74.768 72.5479 74.8533 72.0679 75.024C71.5879 75.184 71.1825 75.4027 70.8519 75.68L70.2119 74.528C70.6492 74.176 71.1719 73.9093 71.7799 73.728C72.3985 73.536 73.0439 73.44 73.7159 73.44C74.8785 73.44 75.7745 73.7227 76.4039 74.288C77.0332 74.8533 77.3479 75.7173 77.3479 76.88V82H75.8919ZM73.1079 82.096C72.4785 82.096 71.9239 81.9893 71.4439 81.776C70.9745 81.5627 70.6119 81.2693 70.3559 80.896C70.0999 80.512 69.9719 80.08 69.9719 79.6C69.9719 79.1413 70.0785 78.7253 70.2919 78.352C70.5159 77.9787 70.8732 77.68 71.3639 77.456C71.8652 77.232 72.5372 77.12 73.3799 77.12H76.0679V78.224H73.4439C72.6759 78.224 72.1585 78.352 71.8919 78.608C71.6252 78.864 71.4919 79.1733 71.4919 79.536C71.4919 79.952 71.6572 80.288 71.9879 80.544C72.3185 80.7893 72.7772 80.912 73.3639 80.912C73.9399 80.912 74.4412 80.784 74.8679 80.528C75.3052 80.272 75.6199 79.8987 75.8119 79.408L76.1159 80.464C75.9132 80.9653 75.5559 81.3653 75.0439 81.664C74.5319 81.952 73.8865 82.096 73.1079 82.096ZM83.6024 82.096C82.749 82.096 82.0877 81.8667 81.6184 81.408C81.149 80.9493 80.9144 80.2933 80.9144 79.44V71.664H82.4504V79.376C82.4504 79.8347 82.5624 80.1867 82.7864 80.432C83.021 80.6773 83.3517 80.8 83.7784 80.8C84.2584 80.8 84.6584 80.6667 84.9784 80.4L85.4584 81.504C85.2237 81.7067 84.941 81.856 84.6104 81.952C84.2904 82.048 83.9544 82.096 83.6024 82.096ZM79.4744 74.784V73.52H84.8824V74.784H79.4744ZM92.8363 82V70.8H97.5563C98.7509 70.8 99.8016 71.0347 100.708 71.504C101.626 71.9733 102.335 72.6293 102.836 73.472C103.348 74.3147 103.604 75.2907 103.604 76.4C103.604 77.5093 103.348 78.4853 102.836 79.328C102.335 80.1707 101.626 80.8267 100.708 81.296C99.8016 81.7653 98.7509 82 97.5563 82H92.8363ZM94.4363 80.608H97.4603C98.3883 80.608 99.1883 80.432 99.8603 80.08C100.543 79.728 101.071 79.2373 101.444 78.608C101.818 77.968 102.004 77.232 102.004 76.4C102.004 75.5573 101.818 74.8213 101.444 74.192C101.071 73.5627 100.543 73.072 99.8603 72.72C99.1883 72.368 98.3883 72.192 97.4603 72.192H94.4363V80.608ZM111.595 82V80.208L111.515 79.872V76.816C111.515 76.1653 111.323 75.664 110.939 75.312C110.566 74.9493 110 74.768 109.243 74.768C108.742 74.768 108.251 74.8533 107.771 75.024C107.291 75.184 106.886 75.4027 106.555 75.68L105.915 74.528C106.352 74.176 106.875 73.9093 107.483 73.728C108.102 73.536 108.747 73.44 109.419 73.44C110.582 73.44 111.478 73.7227 112.107 74.288C112.736 74.8533 113.051 75.7173 113.051 76.88V82H111.595ZM108.811 82.096C108.182 82.096 107.627 81.9893 107.147 81.776C106.678 81.5627 106.315 81.2693 106.059 80.896C105.803 80.512 105.675 80.08 105.675 79.6C105.675 79.1413 105.782 78.7253 105.995 78.352C106.219 77.9787 106.576 77.68 107.067 77.456C107.568 77.232 108.24 77.12 109.083 77.12H111.771V78.224H109.147C108.379 78.224 107.862 78.352 107.595 78.608C107.328 78.864 107.195 79.1733 107.195 79.536C107.195 79.952 107.36 80.288 107.691 80.544C108.022 80.7893 108.48 80.912 109.067 80.912C109.643 80.912 110.144 80.784 110.571 80.528C111.008 80.272 111.323 79.8987 111.515 79.408L111.819 80.464C111.616 80.9653 111.259 81.3653 110.747 81.664C110.235 81.952 109.59 82.096 108.811 82.096ZM119.306 82.096C118.452 82.096 117.791 81.8667 117.322 81.408C116.852 80.9493 116.618 80.2933 116.618 79.44V71.664H118.154V79.376C118.154 79.8347 118.266 80.1867 118.49 80.432C118.724 80.6773 119.055 80.8 119.482 80.8C119.962 80.8 120.362 80.6667 120.682 80.4L121.162 81.504C120.927 81.7067 120.644 81.856 120.314 81.952C119.994 82.048 119.658 82.096 119.306 82.096ZM115.178 74.784V73.52H120.586V74.784H115.178ZM128.783 82V80.208L128.703 79.872V76.816C128.703 76.1653 128.511 75.664 128.127 75.312C127.753 74.9493 127.188 74.768 126.431 74.768C125.929 74.768 125.439 74.8533 124.959 75.024C124.479 75.184 124.073 75.4027 123.743 75.68L123.103 74.528C123.54 74.176 124.063 73.9093 124.671 73.728C125.289 73.536 125.935 73.44 126.607 73.44C127.769 73.44 128.665 73.7227 129.295 74.288C129.924 74.8533 130.239 75.7173 130.239 76.88V82H128.783ZM125.999 82.096C125.369 82.096 124.815 81.9893 124.335 81.776C123.865 81.5627 123.503 81.2693 123.247 80.896C122.991 80.512 122.863 80.08 122.863 79.6C122.863 79.1413 122.969 78.7253 123.183 78.352C123.407 77.9787 123.764 77.68 124.255 77.456C124.756 77.232 125.428 77.12 126.271 77.12H128.959V78.224H126.335C125.567 78.224 125.049 78.352 124.783 78.608C124.516 78.864 124.383 79.1733 124.383 79.536C124.383 79.952 124.548 80.288 124.879 80.544C125.209 80.7893 125.668 80.912 126.255 80.912C126.831 80.912 127.332 80.784 127.759 80.528C128.196 80.272 128.511 79.8987 128.703 79.408L129.007 80.464C128.804 80.9653 128.447 81.3653 127.935 81.664C127.423 81.952 126.777 82.096 125.999 82.096ZM138.109 73.44C138.802 73.44 139.41 73.5733 139.933 73.84C140.466 74.1067 140.882 74.512 141.181 75.056C141.48 75.6 141.629 76.288 141.629 77.12V82H140.093V77.296C140.093 76.4747 139.89 75.856 139.485 75.44C139.09 75.024 138.53 74.816 137.805 74.816C137.261 74.816 136.786 74.9227 136.381 75.136C135.976 75.3493 135.661 75.664 135.437 76.08C135.224 76.496 135.117 77.0133 135.117 77.632V82H133.581V73.52H135.053V75.808L134.813 75.2C135.09 74.6453 135.517 74.2133 136.093 73.904C136.669 73.5947 137.341 73.44 138.109 73.44ZM148.684 85.2C147.905 85.2 147.148 85.088 146.412 84.864C145.686 84.6507 145.094 84.3413 144.636 83.936L145.372 82.752C145.766 83.0933 146.252 83.36 146.828 83.552C147.404 83.7547 148.006 83.856 148.636 83.856C149.638 83.856 150.374 83.6213 150.844 83.152C151.313 82.6827 151.548 81.968 151.548 81.008V79.216L151.708 77.536L151.628 75.84V73.52H153.084V80.848C153.084 82.3413 152.71 83.44 151.964 84.144C151.217 84.848 150.124 85.2 148.684 85.2ZM148.492 81.648C147.67 81.648 146.934 81.4773 146.284 81.136C145.644 80.784 145.132 80.2987 144.748 79.68C144.374 79.0613 144.188 78.3467 144.188 77.536C144.188 76.7147 144.374 76 144.748 75.392C145.132 74.7733 145.644 74.2933 146.284 73.952C146.934 73.6107 147.67 73.44 148.492 73.44C149.217 73.44 149.878 73.5893 150.476 73.888C151.073 74.176 151.548 74.624 151.9 75.232C152.262 75.84 152.444 76.608 152.444 77.536C152.444 78.4533 152.262 79.216 151.9 79.824C151.548 80.432 151.073 80.8907 150.476 81.2C149.878 81.4987 149.217 81.648 148.492 81.648ZM148.668 80.304C149.233 80.304 149.734 80.1867 150.172 79.952C150.609 79.7173 150.95 79.392 151.196 78.976C151.452 78.56 151.58 78.08 151.58 77.536C151.58 76.992 151.452 76.512 151.196 76.096C150.95 75.68 150.609 75.36 150.172 75.136C149.734 74.9013 149.233 74.784 148.668 74.784C148.102 74.784 147.596 74.9013 147.148 75.136C146.71 75.36 146.364 75.68 146.108 76.096C145.862 76.512 145.74 76.992 145.74 77.536C145.74 78.08 145.862 78.56 146.108 78.976C146.364 79.392 146.71 79.7173 147.148 79.952C147.596 80.1867 148.102 80.304 148.668 80.304ZM17.68 102V90.8H22.4C23.5947 90.8 24.6453 91.0347 25.552 91.504C26.4693 91.9733 27.1787 92.6293 27.68 93.472C28.192 94.3147 28.448 95.2907 28.448 96.4C28.448 97.5093 28.192 98.4853 27.68 99.328C27.1787 100.171 26.4693 100.827 25.552 101.296C24.6453 101.765 23.5947 102 22.4 102H17.68ZM19.28 100.608H22.304C23.232 100.608 24.032 100.432 24.704 100.08C25.3867 99.728 25.9147 99.2373 26.288 98.608C26.6613 97.968 26.848 97.232 26.848 96.4C26.848 95.5573 26.6613 94.8213 26.288 94.192C25.9147 93.5627 25.3867 93.072 24.704 92.72C24.032 92.368 23.232 92.192 22.304 92.192H19.28V100.608ZM31.1748 102V93.52H32.7108V102H31.1748ZM31.9428 91.888C31.6441 91.888 31.3934 91.792 31.1908 91.6C30.9988 91.408 30.9028 91.1733 30.9028 90.896C30.9028 90.608 30.9988 90.368 31.1908 90.176C31.3934 89.984 31.6441 89.888 31.9428 89.888C32.2414 89.888 32.4868 89.984 32.6788 90.176C32.8814 90.3573 32.9828 90.5867 32.9828 90.864C32.9828 91.152 32.8868 91.3973 32.6948 91.6C32.5028 91.792 32.2521 91.888 31.9428 91.888ZM41.1644 102V90.8H42.7644V102H41.1644ZM50.9215 93.44C51.6148 93.44 52.2228 93.5733 52.7455 93.84C53.2788 94.1067 53.6948 94.512 53.9935 95.056C54.2922 95.6 54.4415 96.288 54.4415 97.12V102H52.9055V97.296C52.9055 96.4747 52.7028 95.856 52.2975 95.44C51.9028 95.024 51.3428 94.816 50.6175 94.816C50.0735 94.816 49.5988 94.9227 49.1935 95.136C48.7882 95.3493 48.4735 95.664 48.2495 96.08C48.0362 96.496 47.9295 97.0133 47.9295 97.632V102H46.3935V93.52H47.8655V95.808L47.6255 95.2C47.9028 94.6453 48.3295 94.2133 48.9055 93.904C49.4815 93.5947 50.1535 93.44 50.9215 93.44ZM60.6961 102.096C59.8428 102.096 59.1815 101.867 58.7121 101.408C58.2428 100.949 58.0081 100.293 58.0081 99.44V91.664H59.5441V99.376C59.5441 99.8347 59.6561 100.187 59.8801 100.432C60.1148 100.677 60.4455 100.8 60.8721 100.8C61.3521 100.8 61.7521 100.667 62.0721 100.4L62.5521 101.504C62.3175 101.707 62.0348 101.856 61.7041 101.952C61.3841 102.048 61.0481 102.096 60.6961 102.096ZM56.5681 94.784V93.52H61.9761V94.784H56.5681ZM68.4039 102.096C67.4972 102.096 66.6972 101.909 66.0039 101.536C65.3212 101.163 64.7879 100.651 64.4039 100C64.0305 99.3493 63.8439 98.6027 63.8439 97.76C63.8439 96.9173 64.0252 96.1707 64.3879 95.52C64.7612 94.8693 65.2679 94.3627 65.9079 94C66.5585 93.6267 67.2892 93.44 68.0999 93.44C68.9212 93.44 69.6465 93.6213 70.2759 93.984C70.9052 94.3467 71.3959 94.8587 71.7479 95.52C72.1105 96.1707 72.2919 96.9333 72.2919 97.808C72.2919 97.872 72.2865 97.9467 72.2759 98.032C72.2759 98.1173 72.2705 98.1973 72.2599 98.272H65.0439V97.168H71.4599L70.8359 97.552C70.8465 97.008 70.7345 96.5227 70.4999 96.096C70.2652 95.6693 69.9399 95.3387 69.5239 95.104C69.1185 94.8587 68.6439 94.736 68.0999 94.736C67.5665 94.736 67.0919 94.8587 66.6759 95.104C66.2599 95.3387 65.9345 95.6747 65.6999 96.112C65.4652 96.5387 65.3479 97.0293 65.3479 97.584V97.84C65.3479 98.4053 65.4759 98.912 65.7319 99.36C65.9985 99.7973 66.3665 100.139 66.8359 100.384C67.3052 100.629 67.8439 100.752 68.4519 100.752C68.9532 100.752 69.4065 100.667 69.8119 100.496C70.2279 100.325 70.5905 100.069 70.8999 99.728L71.7479 100.72C71.3639 101.168 70.8839 101.509 70.3079 101.744C69.7425 101.979 69.1079 102.096 68.4039 102.096ZM74.9248 102V93.52H76.3968V95.824L76.2528 95.248C76.4874 94.6613 76.8821 94.2133 77.4368 93.904C77.9914 93.5947 78.6741 93.44 79.4848 93.44V94.928C79.4208 94.9173 79.3568 94.912 79.2928 94.912C79.2394 94.912 79.1861 94.912 79.1328 94.912C78.3114 94.912 77.6608 95.1573 77.1808 95.648C76.7008 96.1387 76.4608 96.848 76.4608 97.776V102H74.9248ZM86.4059 93.44C87.0992 93.44 87.7072 93.5733 88.2299 93.84C88.7632 94.1067 89.1792 94.512 89.4779 95.056C89.7765 95.6 89.9259 96.288 89.9259 97.12V102H88.3899V97.296C88.3899 96.4747 88.1872 95.856 87.7819 95.44C87.3872 95.024 86.8272 94.816 86.1019 94.816C85.5579 94.816 85.0832 94.9227 84.6779 95.136C84.2725 95.3493 83.9579 95.664 83.7339 96.08C83.5205 96.496 83.4139 97.0133 83.4139 97.632V102H81.8779V93.52H83.3499V95.808L83.1099 95.2C83.3872 94.6453 83.8139 94.2133 84.3899 93.904C84.9659 93.5947 85.6379 93.44 86.4059 93.44ZM98.5325 102V100.208L98.4525 99.872V96.816C98.4525 96.1653 98.2605 95.664 97.8765 95.312C97.5032 94.9493 96.9378 94.768 96.1805 94.768C95.6792 94.768 95.1885 94.8533 94.7085 95.024C94.2285 95.184 93.8232 95.4027 93.4925 95.68L92.8525 94.528C93.2898 94.176 93.8125 93.9093 94.4205 93.728C95.0392 93.536 95.6845 93.44 96.3565 93.44C97.5192 93.44 98.4152 93.7227 99.0445 94.288C99.6738 94.8533 99.9885 95.7173 99.9885 96.88V102H98.5325ZM95.7485 102.096C95.1192 102.096 94.5645 101.989 94.0845 101.776C93.6152 101.563 93.2525 101.269 92.9965 100.896C92.7405 100.512 92.6125 100.08 92.6125 99.6C92.6125 99.1413 92.7192 98.7253 92.9325 98.352C93.1565 97.9787 93.5138 97.68 94.0045 97.456C94.5058 97.232 95.1778 97.12 96.0205 97.12H98.7085V98.224H96.0845C95.3165 98.224 94.7992 98.352 94.5325 98.608C94.2658 98.864 94.1325 99.1733 94.1325 99.536C94.1325 99.952 94.2978 100.288 94.6285 100.544C94.9592 100.789 95.4178 100.912 96.0045 100.912C96.5805 100.912 97.0818 100.784 97.5085 100.528C97.9458 100.272 98.2605 99.8987 98.4525 99.408L98.7565 100.464C98.5538 100.965 98.1965 101.365 97.6845 101.664C97.1725 101.952 96.5272 102.096 95.7485 102.096ZM103.331 102V90.128H104.867V102H103.331ZM111.625 102L116.697 90.8H118.281L123.369 102H121.689L117.161 91.696H117.801L113.273 102H111.625ZM113.785 99.2L114.217 97.92H120.521L120.985 99.2H113.785ZM129.811 102.096C129.107 102.096 128.462 101.936 127.875 101.616C127.299 101.285 126.835 100.8 126.483 100.16C126.142 99.52 125.971 98.72 125.971 97.76C125.971 96.8 126.137 96 126.467 95.36C126.809 94.72 127.267 94.24 127.843 93.92C128.43 93.6 129.086 93.44 129.811 93.44C130.643 93.44 131.379 93.6213 132.019 93.984C132.659 94.3467 133.166 94.8533 133.539 95.504C133.913 96.144 134.099 96.896 134.099 97.76C134.099 98.624 133.913 99.3813 133.539 100.032C133.166 100.683 132.659 101.189 132.019 101.552C131.379 101.915 130.643 102.096 129.811 102.096ZM125.315 105.104V93.52H126.787V95.808L126.691 97.776L126.851 99.744V105.104H125.315ZM129.683 100.752C130.227 100.752 130.713 100.629 131.139 100.384C131.577 100.139 131.918 99.792 132.163 99.344C132.419 98.8853 132.547 98.3573 132.547 97.76C132.547 97.152 132.419 96.6293 132.163 96.192C131.918 95.744 131.577 95.3973 131.139 95.152C130.713 94.9067 130.227 94.784 129.683 94.784C129.15 94.784 128.665 94.9067 128.227 95.152C127.801 95.3973 127.459 95.744 127.203 96.192C126.958 96.6293 126.835 97.152 126.835 97.76C126.835 98.3573 126.958 98.8853 127.203 99.344C127.459 99.792 127.801 100.139 128.227 100.384C128.665 100.629 129.15 100.752 129.683 100.752ZM141.218 102.096C140.514 102.096 139.868 101.936 139.282 101.616C138.706 101.285 138.242 100.8 137.89 100.16C137.548 99.52 137.378 98.72 137.378 97.76C137.378 96.8 137.543 96 137.874 95.36C138.215 94.72 138.674 94.24 139.25 93.92C139.836 93.6 140.492 93.44 141.218 93.44C142.05 93.44 142.786 93.6213 143.426 93.984C144.066 94.3467 144.572 94.8533 144.946 95.504C145.319 96.144 145.506 96.896 145.506 97.76C145.506 98.624 145.319 99.3813 144.946 100.032C144.572 100.683 144.066 101.189 143.426 101.552C142.786 101.915 142.05 102.096 141.218 102.096ZM136.722 105.104V93.52H138.194V95.808L138.098 97.776L138.258 99.744V105.104H136.722ZM141.09 100.752C141.634 100.752 142.119 100.629 142.546 100.384C142.983 100.139 143.324 99.792 143.57 99.344C143.826 98.8853 143.954 98.3573 143.954 97.76C143.954 97.152 143.826 96.6293 143.57 96.192C143.324 95.744 142.983 95.3973 142.546 95.152C142.119 94.9067 141.634 94.784 141.09 94.784C140.556 94.784 140.071 94.9067 139.634 95.152C139.207 95.3973 138.866 95.744 138.61 96.192C138.364 96.6293 138.242 97.152 138.242 97.76C138.242 98.3573 138.364 98.8853 138.61 99.344C138.866 99.792 139.207 100.139 139.634 100.384C140.071 100.629 140.556 100.752 141.09 100.752ZM148.208 98.464L147.92 90.8H149.728L149.424 98.464H148.208ZM148.832 102.096C148.533 102.096 148.283 101.995 148.08 101.792C147.877 101.589 147.776 101.349 147.776 101.072C147.776 100.773 147.877 100.528 148.08 100.336C148.283 100.144 148.533 100.048 148.832 100.048C149.131 100.048 149.376 100.144 149.568 100.336C149.76 100.528 149.856 100.773 149.856 101.072C149.856 101.349 149.76 101.589 149.568 101.792C149.376 101.995 149.131 102.096 148.832 102.096Z" fill="white"/>
</g>
<defs>
<linearGradient id="paint0_linear_3279_30685" x1="207.665" y1="6.09009" x2="207.665" y2="354.298" gradientUnits="userSpaceOnUse">
<stop stop-color="#FF994D"/>
<stop offset="1" stop-color="#F47B20" stop-opacity="0"/>
</linearGradient>
<linearGradient id="paint1_linear_3279_30685" x1="183.335" y1="-74.9088" x2="183.335" y2="277.525" gradientUnits="userSpaceOnUse">
<stop stop-color="#FF994D"/>
<stop offset="1" stop-color="#F47B20" stop-opacity="0"/>
</linearGradient>
<clipPath id="clip0_3279_30685">
<path d="M0 0H390V106C390 119.255 379.255 130 366 130H24C10.7452 130 0 119.255 0 106V0Z" fill="white"/>
</clipPath>
</defs>
</svg>
