<svg width="360" height="86" viewBox="0 0 360 86" fill="none" xmlns="http://www.w3.org/2000/svg">
<g clip-path="url(#clip0_596_15507)">
<path d="M0 0H360V62C360 75.2548 349.255 86 336 86H24C10.7452 86 0 75.2548 0 62V0Z" fill="#F47B20"/>
<path d="M360 0.49317V378.918H38.8347C38.8386 379.026 38.8237 379.028 38.7888 378.918H38.8347C38.7449 376.446 28.866 318.767 24.3018 286.472C-0.67573 109.733 185.086 175.587 220.625 94.4211C259.59 5.43235 305.882 -2.47034 360 0.49317Z" fill="url(#paint0_linear_596_15507)"/>
<path d="M3.05176e-05 -74.5008V308.584H321.454C321.45 308.694 321.465 308.696 321.5 308.584H321.454C321.544 306.082 331.432 247.693 336 214.999C361 36.084 175.072 102.749 139.5 20.5839C100.5 -69.5008 54.1667 -77.5008 3.05176e-05 -74.5008Z" fill="url(#paint1_linear_596_15507)"/>
</g>
<defs>
<linearGradient id="paint0_linear_596_15507" x1="191.152" y1="0.0828741" x2="191.152" y2="320.4" gradientUnits="userSpaceOnUse">
<stop stop-color="#FF994D"/>
<stop offset="1" stop-color="#F47B20" stop-opacity="0"/>
</linearGradient>
<linearGradient id="paint1_linear_596_15507" x1="169" y1="-74.9161" x2="169" y2="249.346" gradientUnits="userSpaceOnUse">
<stop stop-color="#FF994D"/>
<stop offset="1" stop-color="#F47B20" stop-opacity="0"/>
</linearGradient>
<clipPath id="clip0_596_15507">
<path d="M0 0H360V62C360 75.2548 349.255 86 336 86H24C10.7452 86 0 75.2548 0 62V0Z" fill="white"/>
</clipPath>
</defs>
</svg>
