<svg width="40" height="41" viewBox="0 0 40 41" fill="none" xmlns="http://www.w3.org/2000/svg">
<rect y="0.5" width="40" height="40" rx="6" fill="#FFF6ED"/>
<g clip-path="url(#clip0_3228_39568)">
<path d="M20 10.5C21.5913 10.5 23.1174 11.1321 24.2426 12.2574C25.3679 13.3826 26 14.9087 26 16.5V17.5H30V19.5H28.833L28.076 28.583C28.0552 28.8329 27.9413 29.0658 27.7568 29.2357C27.5723 29.4055 27.3308 29.4999 27.08 29.5H12.92C12.6692 29.4999 12.4277 29.4055 12.2432 29.2357C12.0587 29.0658 11.9448 28.8329 11.924 28.583L11.166 19.5H10V17.5H14V16.5C14 14.9087 14.6321 13.3826 15.7574 12.2574C16.8826 11.1321 18.4087 10.5 20 10.5ZM26.826 19.5H13.173L13.84 27.5H26.159L26.826 19.5ZM21 21.5V25.5H19V21.5H21ZM17 21.5V25.5H15V21.5H17ZM25 21.5V25.5H23V21.5H25ZM20 12.5C18.9738 12.5 17.9868 12.8944 17.2432 13.6017C16.4996 14.309 16.0563 15.275 16.005 16.3L16 16.5V17.5H24V16.5C24 15.4738 23.6056 14.4868 22.8983 13.7432C22.191 12.9996 21.225 12.5563 20.2 12.505L20 12.5Z" fill="#F47B20"/>
</g>
<defs>
<clipPath id="clip0_3228_39568">
<rect width="24" height="24" fill="white" transform="translate(8 8.5)"/>
</clipPath>
</defs>
</svg>
