<svg width="186" height="142" viewBox="0 0 186 142" fill="none" xmlns="http://www.w3.org/2000/svg">
<path d="M185.657 126.642H0.303322C0.222876 126.642 0.145724 126.61 0.0888406 126.553C0.0319568 126.496 0 126.419 0 126.338C0 126.258 0.0319568 126.181 0.0888406 126.124C0.145724 126.067 0.222876 126.035 0.303322 126.035H185.657C185.738 126.035 185.815 126.067 185.872 126.124C185.928 126.181 185.96 126.258 185.96 126.338C185.96 126.419 185.928 126.496 185.872 126.553C185.815 126.61 185.738 126.642 185.657 126.642Z" fill="#D1D3D4"/>
<path d="M148.409 82.4424H113.934V126.339H148.409V82.4424Z" fill="white"/>
<path d="M148.415 126.642H113.934C113.853 126.642 113.776 126.61 113.719 126.553C113.662 126.496 113.63 126.419 113.63 126.339V82.442C113.63 82.3615 113.662 82.2844 113.719 82.2275C113.776 82.1706 113.853 82.1387 113.934 82.1387H148.415C148.496 82.1387 148.573 82.1706 148.63 82.2275C148.687 82.2844 148.719 82.3615 148.719 82.442V126.351C148.715 126.429 148.682 126.503 148.626 126.558C148.569 126.612 148.494 126.642 148.415 126.642ZM114.237 126.035H148.112V82.7453H114.213L114.237 126.035Z" fill="#D1D3D4"/>
<path d="M145.164 85.4385H117.185V123.335H145.164V85.4385Z" fill="white"/>
<path d="M145.152 123.639H117.185C117.105 123.639 117.028 123.607 116.971 123.551C116.914 123.494 116.882 123.417 116.882 123.336V85.4391C116.882 85.3586 116.914 85.2815 116.971 85.2246C117.028 85.1677 117.105 85.1357 117.185 85.1357H145.152C145.232 85.1357 145.309 85.1677 145.366 85.2246C145.423 85.2815 145.455 85.3586 145.455 85.4391V123.318C145.457 123.359 145.451 123.401 145.437 123.44C145.423 123.478 145.401 123.514 145.373 123.544C145.344 123.574 145.31 123.598 145.272 123.615C145.234 123.631 145.193 123.639 145.152 123.639ZM117.477 123.033H144.848V85.7424H117.489L117.477 123.033Z" fill="#D1D3D4"/>
<path d="M145.164 119.702V123.335H142.871L130.616 107.199L128.105 103.911L117.185 89.5333V85.4385H119.084L130.616 100.598L133.122 103.911L145.164 119.702Z" fill="white"/>
<path d="M145.152 123.639H142.859C142.812 123.64 142.766 123.629 142.725 123.608C142.684 123.587 142.649 123.556 142.622 123.518L116.943 89.7159C116.905 89.6627 116.884 89.5993 116.882 89.5339V85.4391C116.882 85.3587 116.914 85.2815 116.971 85.2246C117.028 85.1677 117.105 85.1358 117.185 85.1358H119.066C119.113 85.1351 119.159 85.1451 119.201 85.1651C119.243 85.1851 119.28 85.2145 119.309 85.251L133.346 103.729L145.388 119.502C145.426 119.555 145.447 119.619 145.449 119.684V123.324C145.451 123.364 145.444 123.405 145.43 123.442C145.416 123.48 145.394 123.515 145.367 123.544C145.339 123.574 145.306 123.597 145.269 123.613C145.232 123.63 145.192 123.639 145.152 123.639ZM143.01 123.033H144.83V119.805L130.343 100.781L118.902 85.7424H117.489V89.4308L143.01 123.033Z" fill="#D1D3D4"/>
<path d="M145.164 85.4385V88.0956L133.122 103.911L130.616 107.199L118.356 123.335H117.185V118.264L128.105 103.911L130.616 100.598L142.167 85.4385H145.164Z" fill="white"/>
<path d="M118.356 123.639H117.185C117.105 123.639 117.028 123.607 116.971 123.551C116.914 123.494 116.882 123.417 116.882 123.336V118.265C116.884 118.199 116.905 118.136 116.943 118.083L141.924 85.251C141.953 85.2148 141.99 85.1856 142.032 85.1657C142.075 85.1457 142.12 85.1355 142.167 85.1357H145.152C145.232 85.1357 145.309 85.1677 145.366 85.2246C145.423 85.2815 145.455 85.3586 145.455 85.4391V88.0962C145.453 88.1615 145.432 88.2249 145.394 88.2782L118.587 123.518C118.559 123.554 118.525 123.583 118.485 123.604C118.445 123.625 118.401 123.637 118.356 123.639ZM117.489 123.033H118.205L144.86 87.993V85.7424H142.319L117.489 118.368V123.033Z" fill="#D1D3D4"/>
<path d="M70.8013 126.339H113.94V82.4422H70.8013V126.339Z" fill="white"/>
<path d="M113.934 126.642H70.7953C70.7148 126.642 70.6377 126.61 70.5808 126.553C70.5239 126.496 70.4919 126.419 70.4919 126.339V82.442C70.4919 82.3615 70.5239 82.2844 70.5808 82.2275C70.6377 82.1706 70.7148 82.1387 70.7953 82.1387H113.934C114.014 82.1387 114.091 82.1706 114.148 82.2275C114.205 82.2844 114.237 82.3615 114.237 82.442V126.351C114.234 126.429 114.201 126.503 114.144 126.558C114.087 126.612 114.012 126.642 113.934 126.642ZM71.0986 126.035H113.606V82.7453H71.0986V126.035Z" fill="#D1D3D4"/>
<path d="M110.809 85.4385H73.9194V123.335H110.809V85.4385Z" fill="white"/>
<path d="M110.81 123.639H73.9195C73.8391 123.639 73.7619 123.607 73.705 123.551C73.6482 123.494 73.6162 123.417 73.6162 123.336V85.4391C73.6162 85.3586 73.6482 85.2815 73.705 85.2246C73.7619 85.1677 73.8391 85.1357 73.9195 85.1357H110.81C110.89 85.1357 110.967 85.1677 111.024 85.2246C111.081 85.2815 111.113 85.3586 111.113 85.4391V123.318C111.115 123.359 111.109 123.401 111.095 123.44C111.081 123.478 111.059 123.514 111.031 123.544C111.002 123.574 110.968 123.598 110.93 123.615C110.892 123.631 110.851 123.639 110.81 123.639ZM74.2229 123.033H110.506V85.7424H74.2229V123.033Z" fill="#D1D3D4"/>
<path d="M73.9255 119.702V123.335H76.9406L93.1076 107.199L96.4138 103.911L110.809 89.5333V85.4385H108.304L93.1076 100.598L89.7953 103.911L73.9255 119.702Z" fill="white"/>
<path d="M76.9405 123.64H73.9073C73.8269 123.64 73.7497 123.608 73.6928 123.551C73.636 123.494 73.604 123.417 73.604 123.336V119.697C73.6058 119.617 73.6384 119.541 73.695 119.484L92.8771 100.375L108.08 85.209C108.137 85.154 108.213 85.1236 108.292 85.124H110.797C110.878 85.124 110.955 85.156 111.012 85.2129C111.069 85.2698 111.101 85.3469 111.101 85.4274V89.5222C111.101 89.6013 111.071 89.6775 111.016 89.7345L77.1468 123.537C77.121 123.567 77.0895 123.591 77.0541 123.609C77.0187 123.627 76.9801 123.637 76.9405 123.64ZM74.2228 123.033H76.8192L110.506 89.4069V85.7671H108.431L90.0137 104.148L74.241 119.854L74.2228 123.033Z" fill="#D1D3D4"/>
<path d="M73.9255 85.4385V88.0956L89.7953 103.911L93.1076 107.199L109.269 123.335H110.809V118.264L96.4138 103.911L93.1076 100.598L77.8748 85.4385H73.9255Z" fill="white"/>
<path d="M110.81 123.639H109.269C109.229 123.639 109.189 123.632 109.153 123.616C109.116 123.6 109.083 123.577 109.056 123.548L89.5831 104.135L73.7072 88.3202C73.6506 88.2638 73.618 88.1878 73.6162 88.1079V85.4508C73.6162 85.3703 73.6482 85.2932 73.705 85.2363C73.7619 85.1794 73.8391 85.1475 73.9195 85.1475H77.8748C77.954 85.147 78.0302 85.1775 78.0872 85.2324L96.6201 103.699L111.016 118.052C111.071 118.109 111.101 118.185 111.101 118.264V123.317C111.103 123.358 111.098 123.398 111.084 123.436C111.071 123.474 111.05 123.51 111.023 123.539C110.996 123.569 110.963 123.594 110.926 123.611C110.89 123.628 110.85 123.637 110.81 123.639ZM109.396 123.032H110.506V118.392L92.9135 100.799L77.7475 85.7298H74.2229V87.9562L93.32 106.974L109.396 123.032Z" fill="#D1D3D4"/>
<path d="M165.086 38.5391H130.61V82.4358H165.086V38.5391Z" fill="white"/>
<path d="M165.092 82.7457H130.592C130.512 82.7457 130.435 82.7138 130.378 82.6569C130.321 82.6 130.289 82.5229 130.289 82.4424V38.5396C130.29 38.4597 130.323 38.3834 130.379 38.3269C130.436 38.2703 130.512 38.2379 130.592 38.2363H165.074C165.154 38.2379 165.23 38.2703 165.287 38.3269C165.343 38.3834 165.376 38.4597 165.377 38.5396V82.4424C165.377 82.5198 165.348 82.5943 165.295 82.6507C165.242 82.7071 165.169 82.7411 165.092 82.7457ZM130.914 82.1391H164.789V38.843H130.914V82.1391Z" fill="#D1D3D4"/>
<path d="M161.84 41.5361H133.862V79.4331H161.84V41.5361Z" fill="white"/>
<path d="M161.84 79.7421H133.862C133.781 79.7421 133.704 79.7102 133.647 79.6533C133.591 79.5964 133.559 79.5193 133.559 79.4388V41.5357C133.559 41.4553 133.591 41.3781 133.647 41.3213C133.704 41.2644 133.781 41.2324 133.862 41.2324H161.84C161.921 41.2324 161.998 41.2644 162.055 41.3213C162.112 41.3781 162.144 41.4553 162.144 41.5357V79.4388C162.144 79.5193 162.112 79.5964 162.055 79.6533C161.998 79.7102 161.921 79.7421 161.84 79.7421ZM134.165 79.1355H161.531V41.8391H134.165V79.1355Z" fill="#D1D3D4"/>
<path d="M161.84 75.8054V79.4331H159.547L147.293 63.3025L144.782 60.0145L133.862 45.631V41.5361H135.761L147.293 56.6961L149.799 60.0145L161.84 75.8054Z" fill="white"/>
<path d="M161.84 79.7421H159.547C159.501 79.7412 159.456 79.7298 159.415 79.7088C159.374 79.6878 159.338 79.6577 159.311 79.6208L133.625 45.8126C133.586 45.7599 133.565 45.6961 133.565 45.6306V41.5357C133.565 41.4553 133.597 41.3781 133.654 41.3213C133.71 41.2644 133.788 41.2324 133.868 41.2324H135.767C135.814 41.2329 135.86 41.244 135.902 41.2651C135.944 41.2861 135.981 41.3164 136.009 41.3537L150.047 59.826L162.089 75.5988C162.128 75.6515 162.149 75.7152 162.15 75.7808V79.4206C162.152 79.4625 162.146 79.5044 162.132 79.5437C162.117 79.5831 162.095 79.619 162.066 79.6492C162.036 79.6794 162.001 79.7033 161.963 79.7193C161.924 79.7353 161.882 79.743 161.84 79.7421ZM159.699 79.1355H161.519V75.9082L147.032 56.8778L135.591 41.8391H134.147V45.5275L159.699 79.1355Z" fill="#D1D3D4"/>
<path d="M161.84 41.5361V44.1932L149.799 60.0145L147.293 63.3025L135.033 79.4331H133.862V74.3677L144.782 60.0145L147.293 56.6961L158.844 41.5361H161.84Z" fill="white"/>
<path d="M135.033 79.7421H133.862C133.781 79.7421 133.704 79.7102 133.647 79.6533C133.591 79.5964 133.559 79.5193 133.559 79.4388V74.3673C133.559 74.3017 133.58 74.238 133.619 74.1853L158.601 41.3537C158.63 41.3167 158.666 41.2867 158.708 41.2657C158.75 41.2447 158.797 41.2333 158.843 41.2324H161.84C161.921 41.2324 161.998 41.2644 162.055 41.3213C162.112 41.3781 162.144 41.4553 162.144 41.5357V44.1928C162.143 44.2584 162.122 44.3221 162.083 44.3748L135.275 79.639C135.244 79.6721 135.207 79.6983 135.165 79.7161C135.123 79.7338 135.078 79.7427 135.033 79.7421ZM134.165 79.1355H134.881L161.531 44.0897V41.8391H158.989L134.159 74.4704L134.165 79.1355Z" fill="#D1D3D4"/>
<path d="M87.4778 82.4424H130.616V38.5457L87.4778 38.5457V82.4424Z" fill="white"/>
<path d="M130.592 82.7457H87.4718C87.3913 82.7457 87.3142 82.7138 87.2573 82.6569C87.2004 82.6 87.1685 82.5229 87.1685 82.4424V38.5396C87.17 38.4597 87.2025 38.3834 87.259 38.3269C87.3156 38.2703 87.3918 38.2379 87.4718 38.2363H130.592C130.672 38.2363 130.75 38.2683 130.806 38.3252C130.863 38.3821 130.895 38.4592 130.895 38.5396V82.4424C130.895 82.5229 130.863 82.6 130.806 82.6569C130.75 82.7138 130.672 82.7457 130.592 82.7457ZM87.7569 82.1391H130.289V38.843H87.7751L87.7569 82.1391Z" fill="#D1D3D4"/>
<path d="M127.486 41.5361H90.5962V79.4331H127.486V41.5361Z" fill="white"/>
<path d="M127.486 79.7421H90.6021C90.5217 79.7421 90.4445 79.7102 90.3877 79.6533C90.3308 79.5964 90.2988 79.5193 90.2988 79.4388V41.5357C90.2988 41.4553 90.3308 41.3781 90.3877 41.3213C90.4445 41.2644 90.5217 41.2324 90.6021 41.2324H127.486C127.567 41.2324 127.644 41.2644 127.701 41.3213C127.757 41.3781 127.789 41.4553 127.789 41.5357V79.4388C127.789 79.5193 127.757 79.5964 127.701 79.6533C127.644 79.7102 127.567 79.7421 127.486 79.7421ZM90.9055 79.1355H127.183V41.8391H90.9055V79.1355Z" fill="#D1D3D4"/>
<path d="M90.5962 75.8054V79.4331H93.6173L109.784 63.3025L113.091 60.0145L127.486 45.631V41.5361H124.981L109.784 56.6961L106.472 60.0145L90.5962 75.8054Z" fill="white"/>
<path d="M93.6171 79.7426H90.5838C90.5034 79.7426 90.4262 79.7106 90.3694 79.6537C90.3125 79.5968 90.2805 79.5197 90.2805 79.4392V75.7994C90.2809 75.7186 90.3112 75.6408 90.3654 75.581L109.548 56.4778L124.75 41.3117C124.806 41.2551 124.882 41.2225 124.962 41.2207H127.468C127.548 41.2207 127.625 41.2527 127.682 41.3095C127.739 41.3664 127.771 41.4436 127.771 41.524V45.6189C127.771 45.6996 127.74 45.7774 127.686 45.8373L93.8354 79.6394C93.7788 79.7009 93.7005 79.7379 93.6171 79.7426ZM90.9054 79.1359H93.4957L127.183 45.5036V41.8637H125.132L106.69 60.2268L90.9175 75.9328L90.9054 79.1359Z" fill="#D1D3D4"/>
<path d="M90.5962 41.5361V44.1932L106.472 60.0145L109.784 63.3025L125.945 79.4331H127.486V74.3677L113.091 60.0145L109.784 56.6961L94.5515 41.5361H90.5962Z" fill="white"/>
<path d="M127.486 79.7422H125.945C125.866 79.7356 125.792 79.6987 125.739 79.639L106.266 60.2264L90.3899 44.4113C90.3356 44.3514 90.3053 44.2736 90.3049 44.1929V41.5358C90.3049 41.4553 90.3369 41.3782 90.3938 41.3213C90.4507 41.2644 90.5278 41.2324 90.6083 41.2324H94.5575C94.5973 41.232 94.6367 41.2398 94.6733 41.2555C94.7099 41.2711 94.7427 41.2943 94.7698 41.3234L113.315 59.7957L127.704 74.1792C127.759 74.2391 127.789 74.3169 127.789 74.3976V79.4692C127.782 79.5443 127.747 79.6138 127.691 79.6643C127.634 79.7148 127.562 79.7425 127.486 79.7422ZM126.073 79.1355H127.183V74.4947L109.59 56.902L94.424 41.827H90.9055V44.0533L109.997 63.0716L126.073 79.1355Z" fill="#D1D3D4"/>
<path d="M182.891 82.4424H148.415V126.339H182.891V82.4424Z" fill="white"/>
<path d="M182.891 126.642H148.415C148.335 126.642 148.258 126.61 148.201 126.553C148.144 126.496 148.112 126.419 148.112 126.339V82.442C148.112 82.3615 148.144 82.2844 148.201 82.2275C148.258 82.1706 148.335 82.1387 148.415 82.1387H182.891C182.971 82.1387 183.049 82.1706 183.105 82.2275C183.162 82.2844 183.194 82.3615 183.194 82.442V126.351C183.191 126.429 183.158 126.503 183.101 126.558C183.045 126.612 182.969 126.642 182.891 126.642ZM148.719 126.035H182.588V82.7453H148.719V126.035Z" fill="#D1D3D4"/>
<path d="M179.639 85.4385H151.661V123.335H179.639V85.4385Z" fill="white"/>
<path d="M179.639 123.639H151.661C151.58 123.639 151.503 123.607 151.446 123.551C151.389 123.494 151.357 123.417 151.357 123.336V85.4391C151.357 85.3586 151.389 85.2815 151.446 85.2246C151.503 85.1677 151.58 85.1357 151.661 85.1357H179.639C179.72 85.1357 179.797 85.1677 179.854 85.2246C179.91 85.2815 179.942 85.3586 179.942 85.4391V123.318C179.945 123.359 179.939 123.401 179.925 123.44C179.911 123.478 179.889 123.514 179.86 123.544C179.832 123.574 179.798 123.598 179.76 123.615C179.722 123.631 179.681 123.639 179.639 123.639ZM151.964 123.033H179.336V85.7424H151.964V123.033Z" fill="#D1D3D4"/>
<path d="M179.639 119.702V123.335H177.352L165.092 107.199L162.58 103.911L151.661 89.5333V85.4385H153.566L165.092 100.598L167.603 103.911L179.639 119.702Z" fill="white"/>
<path d="M179.639 123.639H177.352C177.305 123.64 177.258 123.63 177.216 123.609C177.173 123.588 177.137 123.556 177.109 123.518L151.418 89.7159C151.38 89.6627 151.359 89.5993 151.357 89.5339V85.4391C151.357 85.3586 151.389 85.2815 151.446 85.2246C151.503 85.1677 151.58 85.1357 151.661 85.1357H153.566C153.611 85.1355 153.656 85.1458 153.697 85.1658C153.738 85.1858 153.774 85.2149 153.802 85.251L167.846 103.729L179.882 119.502C179.922 119.554 179.944 119.618 179.942 119.684V123.324C179.944 123.365 179.937 123.406 179.923 123.444C179.908 123.482 179.886 123.517 179.858 123.546C179.83 123.576 179.796 123.599 179.758 123.615C179.72 123.631 179.68 123.639 179.639 123.639ZM177.504 123.033H179.324V119.805L164.837 100.781L153.402 85.7424H151.952V89.4308L177.504 123.033Z" fill="#D1D3D4"/>
<path d="M179.639 85.4385V88.0956L167.603 103.911L165.092 107.199L152.832 123.335H151.661V118.264L162.58 103.911L165.092 100.598L176.642 85.4385H179.639Z" fill="white"/>
<path d="M152.832 123.639H151.661C151.58 123.639 151.503 123.607 151.446 123.551C151.389 123.494 151.357 123.417 151.357 123.336V118.265C151.359 118.199 151.38 118.136 151.418 118.083L176.4 85.251C176.429 85.2154 176.466 85.1867 176.508 85.1668C176.55 85.1469 176.596 85.1363 176.642 85.1357H179.639C179.72 85.1357 179.797 85.1677 179.854 85.2246C179.91 85.2815 179.942 85.3586 179.942 85.4391V88.0962C179.944 88.162 179.922 88.2263 179.882 88.2782L153.074 123.518C153.046 123.556 153.01 123.587 152.968 123.608C152.925 123.629 152.879 123.64 152.832 123.639ZM151.964 123.033H152.68L179.336 87.993V85.7424H176.794L151.964 118.368V123.033Z" fill="#D1D3D4"/>
<path d="M132.084 90.249H120.055V100.483H132.084V90.249Z" fill="white"/>
<path d="M132.085 100.787H120.055C119.974 100.787 119.897 100.755 119.84 100.698C119.783 100.641 119.751 100.564 119.751 100.484V90.2496C119.751 90.1692 119.783 90.092 119.84 90.0351C119.897 89.9782 119.974 89.9463 120.055 89.9463H132.085C132.165 89.9463 132.242 89.9782 132.299 90.0351C132.356 90.092 132.388 90.1692 132.388 90.2496V100.484C132.388 100.564 132.356 100.641 132.299 100.698C132.242 100.755 132.165 100.787 132.085 100.787ZM120.358 100.18H131.805V90.559H120.358V100.18Z" fill="#D1D3D4"/>
<path d="M130.028 93.0891H122.099C122.019 93.0875 121.943 93.0551 121.886 92.9985C121.83 92.942 121.797 92.8657 121.796 92.7857C121.796 92.7053 121.828 92.6282 121.884 92.5713C121.941 92.5144 122.019 92.4824 122.099 92.4824H129.985C130.066 92.4824 130.143 92.5144 130.2 92.5713C130.257 92.6282 130.289 92.7053 130.289 92.7857C130.288 92.859 130.262 92.9297 130.214 92.9852C130.166 93.0408 130.1 93.0776 130.028 93.0891Z" fill="#D1D3D4"/>
<path d="M130.028 95.673H122.099C122.019 95.6715 121.943 95.639 121.886 95.5825C121.83 95.5259 121.797 95.4497 121.796 95.3697C121.796 95.2893 121.828 95.2121 121.884 95.1553C121.941 95.0984 122.019 95.0664 122.099 95.0664H129.985C130.066 95.0664 130.143 95.0984 130.2 95.1553C130.257 95.2121 130.289 95.2893 130.289 95.3697C130.288 95.443 130.262 95.5137 130.214 95.5692C130.166 95.6248 130.1 95.6616 130.028 95.673Z" fill="#D1D3D4"/>
<path d="M127.413 98.257H122.099C122.019 98.2555 121.943 98.223 121.886 98.1665C121.83 98.1099 121.797 98.0337 121.796 97.9537C121.796 97.8733 121.828 97.7961 121.884 97.7392C121.941 97.6823 122.019 97.6504 122.099 97.6504H127.401C127.481 97.6504 127.559 97.6823 127.616 97.7392C127.672 97.7961 127.704 97.8733 127.704 97.9537C127.703 98.0317 127.672 98.1062 127.618 98.1624C127.564 98.2187 127.491 98.2525 127.413 98.257Z" fill="#D1D3D4"/>
<path d="M167.858 90.249H155.829V100.483H167.858V90.249Z" fill="white"/>
<path d="M167.852 100.787H155.828C155.748 100.787 155.671 100.755 155.614 100.698C155.557 100.641 155.525 100.564 155.525 100.484V90.2496C155.525 90.1692 155.557 90.092 155.614 90.0351C155.671 89.9782 155.748 89.9463 155.828 89.9463H167.852C167.933 89.9463 168.01 89.9782 168.067 90.0351C168.124 90.092 168.155 90.1692 168.155 90.2496V100.484C168.155 100.564 168.124 100.641 168.067 100.698C168.01 100.755 167.933 100.787 167.852 100.787ZM156.132 100.18H167.549V90.559H156.132V100.18Z" fill="#D1D3D4"/>
<path d="M165.777 93.0891H157.891C157.811 93.0891 157.733 93.0571 157.676 93.0002C157.62 92.9433 157.588 92.8662 157.588 92.7857C157.588 92.7053 157.62 92.6282 157.676 92.5713C157.733 92.5144 157.811 92.4824 157.891 92.4824H165.777C165.858 92.4824 165.935 92.5144 165.992 92.5713C166.049 92.6282 166.081 92.7053 166.081 92.7857C166.081 92.8662 166.049 92.9433 165.992 93.0002C165.935 93.0571 165.858 93.0891 165.777 93.0891Z" fill="#D1D3D4"/>
<path d="M165.777 95.673H157.891C157.811 95.673 157.733 95.6411 157.676 95.5842C157.62 95.5273 157.588 95.4502 157.588 95.3697C157.588 95.2893 157.62 95.2121 157.676 95.1553C157.733 95.0984 157.811 95.0664 157.891 95.0664H165.777C165.858 95.0664 165.935 95.0984 165.992 95.1553C166.049 95.2121 166.081 95.2893 166.081 95.3697C166.081 95.4502 166.049 95.5273 165.992 95.5842C165.935 95.6411 165.858 95.673 165.777 95.673Z" fill="#D1D3D4"/>
<path d="M163.181 98.257H157.891C157.811 98.257 157.733 98.2251 157.676 98.1682C157.62 98.1113 157.588 98.0342 157.588 97.9537C157.588 97.8733 157.62 97.7961 157.676 97.7392C157.733 97.6823 157.811 97.6504 157.891 97.6504H163.187C163.267 97.6504 163.345 97.6823 163.401 97.7392C163.458 97.7961 163.49 97.8733 163.49 97.9537C163.49 97.9941 163.482 98.034 163.467 98.0712C163.451 98.1084 163.428 98.1421 163.399 98.1704C163.371 98.1986 163.336 98.2208 163.299 98.2357C163.261 98.2506 163.221 98.2578 163.181 98.257Z" fill="#D1D3D4"/>
<path d="M149.914 45.6982H137.884V55.9323H149.914V45.6982Z" fill="white"/>
<path d="M149.914 56.2352H137.872C137.791 56.2352 137.714 56.2033 137.657 56.1464C137.601 56.0895 137.569 56.0124 137.569 55.9319V45.6979C137.569 45.6174 137.601 45.5403 137.657 45.4834C137.714 45.4265 137.791 45.3945 137.872 45.3945H149.902C149.982 45.3945 150.059 45.4265 150.116 45.4834C150.173 45.5403 150.205 45.6174 150.205 45.6979V55.9319C150.205 56.0103 150.175 56.0857 150.12 56.1422C150.066 56.1988 149.992 56.2321 149.914 56.2352ZM138.187 55.6286H149.61V46.0012H138.187V55.6286Z" fill="#D1D3D4"/>
<path d="M147.857 48.5305H139.971C139.89 48.5305 139.813 48.4985 139.756 48.4416C139.699 48.3847 139.667 48.3076 139.667 48.2271C139.669 48.1472 139.701 48.0709 139.758 48.0144C139.815 47.9578 139.891 47.9254 139.971 47.9238H147.857C147.937 47.9254 148.013 47.9578 148.07 48.0144C148.126 48.0709 148.159 48.1472 148.16 48.2271C148.16 48.3076 148.129 48.3847 148.072 48.4416C148.015 48.4985 147.938 48.5305 147.857 48.5305Z" fill="#D1D3D4"/>
<path d="M147.857 51.1272H139.971C139.89 51.1272 139.813 51.0952 139.756 51.0383C139.699 50.9814 139.667 50.9043 139.667 50.8238C139.669 50.7439 139.701 50.6676 139.758 50.6111C139.815 50.5545 139.891 50.5221 139.971 50.5205H147.857C147.937 50.5221 148.013 50.5545 148.07 50.6111C148.126 50.6676 148.159 50.7439 148.16 50.8238C148.16 50.9043 148.129 50.9814 148.072 51.0383C148.015 51.0952 147.938 51.1272 147.857 51.1272Z" fill="#D1D3D4"/>
<path d="M145.243 53.7053H139.941C139.861 53.7037 139.784 53.6713 139.728 53.6147C139.671 53.5582 139.639 53.4819 139.637 53.402C139.637 53.3215 139.669 53.2444 139.726 53.1875C139.783 53.1306 139.86 53.0986 139.941 53.0986H145.243C145.323 53.0986 145.4 53.1306 145.457 53.1875C145.514 53.2444 145.546 53.3215 145.546 53.402C145.544 53.4819 145.512 53.5582 145.455 53.6147C145.399 53.6713 145.323 53.7037 145.243 53.7053Z" fill="#D1D3D4"/>
<path d="M24.5508 28.5234C24.5508 28.5234 2.67527 61.1548 3.14239 61.4945C3.6095 61.8342 13.8436 66.0261 13.8436 66.0261L26.7165 53.5535L24.5508 28.5234Z" fill="#F47B20"/>
<path d="M13.8436 66.3295C13.8053 66.3351 13.7665 66.3351 13.7283 66.3295C12.0115 65.6257 3.41536 62.083 2.96644 61.7614C2.61459 61.5066 2.43866 61.3792 13.4189 44.739C18.7695 36.6343 24.2475 28.4628 24.3021 28.3597C24.3371 28.3084 24.3871 28.2691 24.4451 28.2472C24.5032 28.2252 24.5666 28.2216 24.6268 28.2368C24.687 28.252 24.7411 28.2853 24.7817 28.3322C24.8224 28.3792 24.8476 28.4374 24.8541 28.4992L27.0138 53.5535C27.0189 53.5983 27.0133 53.6436 26.9974 53.6858C26.9816 53.728 26.956 53.7658 26.9228 53.7962L14.0559 66.2445C13.9982 66.2984 13.9225 66.3287 13.8436 66.3295ZM3.53062 61.3428C4.62864 61.8767 10.052 64.1273 13.8072 65.6682L26.4314 53.4504L24.3264 29.4091C16.1791 41.5663 4.51945 59.2014 3.50029 61.3428H3.53062Z" fill="#F47B20"/>
<path d="M59.5543 28.7119L73.5677 52.6015C73.5677 52.6015 70.3768 60.2816 66.5489 59.3595C62.721 58.4374 53.3362 38.3879 53.3362 38.3879L59.5543 28.7119Z" fill="#F47B20"/>
<path d="M67.222 59.7353C66.9788 59.7367 66.7364 59.7081 66.5001 59.6503C62.5751 58.6979 53.4451 39.3096 53.063 38.4845C53.0362 38.4407 53.022 38.3903 53.022 38.339C53.022 38.2876 53.0362 38.2372 53.063 38.1934L59.2811 28.5477C59.3085 28.505 59.3461 28.4699 59.3907 28.4455C59.4352 28.4211 59.4851 28.4083 59.5358 28.4082C59.5868 28.41 59.6365 28.4249 59.6801 28.4515C59.7236 28.478 59.7596 28.5154 59.7846 28.5599L73.8284 52.4495C73.8492 52.4909 73.86 52.5366 73.86 52.5829C73.86 52.6293 73.8492 52.675 73.8284 52.7164C73.7434 53.0197 70.9043 59.7353 67.222 59.7353ZM53.6757 38.3875C56.3388 44.0414 63.6428 58.346 66.6396 59.068C69.9034 59.8566 72.8031 53.6082 73.2521 52.6254L59.5419 29.2878L53.6757 38.3875Z" fill="#F47B20"/>
<path d="M25.5823 61.4951L22.907 129.33H32.1704L40.4572 80.9502L45.0737 128.481H54.5434L54.8528 66.0267L25.5823 61.4951Z" fill="#F47B20"/>
<path d="M32.1703 129.633H22.9068C22.866 129.633 22.8255 129.625 22.7879 129.609C22.7503 129.593 22.7163 129.57 22.6879 129.54C22.6596 129.511 22.6375 129.476 22.623 129.438C22.6085 129.399 22.6019 129.359 22.6035 129.318L25.2788 61.4828C25.2804 61.4399 25.291 61.3978 25.3098 61.3591C25.3286 61.3205 25.3552 61.2862 25.388 61.2584C25.4217 61.2312 25.4606 61.2112 25.5024 61.1998C25.5441 61.1883 25.5878 61.1855 25.6307 61.1916L54.8951 65.7293C54.9675 65.7383 55.0341 65.7735 55.0822 65.8283C55.1303 65.8831 55.1565 65.9537 55.156 66.0266L54.8466 128.511C54.8435 128.59 54.8104 128.664 54.754 128.72C54.6976 128.775 54.6222 128.807 54.5433 128.808H45.0554C44.9799 128.808 44.907 128.781 44.851 128.73C44.7949 128.68 44.7596 128.61 44.7521 128.535L40.3539 83.2553L32.4675 129.415C32.4489 129.479 32.4097 129.535 32.3559 129.574C32.3022 129.614 32.2369 129.634 32.1703 129.633ZM23.2223 129.027H31.9155L40.1537 80.9015C40.1537 80.821 40.1857 80.7439 40.2425 80.687C40.2994 80.6301 40.3766 80.5982 40.457 80.5982C40.5375 80.5982 40.6146 80.6301 40.6715 80.687C40.7284 80.7439 40.7603 80.821 40.7603 80.9015L45.3526 128.159H54.246L54.5554 66.2814L25.8794 61.8408L23.2223 129.027Z" fill="#F47B20"/>
<path d="M43.3083 118.665C44.3821 118.823 50.6669 120.054 51.1522 118.665C51.4372 117.841 51.9877 117.135 52.7174 116.657H56.7334L54.8831 135.5C54.8831 135.5 63.6855 140.905 63.6855 141.827C63.6855 142.749 48.8106 139.698 48.8106 139.698L48.4709 141.166L45.8502 140.856L43.3083 118.665Z" fill="#FEEFD2"/>
<path d="M34.4148 118.665C33.3411 118.822 27.0563 120.054 26.5709 118.665C26.2963 117.84 25.7566 117.13 25.0361 116.645H20.9898L22.8098 135.487C22.8098 135.487 14.0134 140.892 14.0134 141.814C14.0134 142.736 28.9126 139.697 28.9126 139.697L29.2523 141.165L31.873 140.856L34.4148 118.665Z" fill="#FEEFD2"/>
<path d="M50.9885 26.8065C50.9885 26.8065 32.9955 24.9865 29.4952 27.8499C25.9948 30.7132 24.551 68.495 24.551 68.495L54.6102 69.6051C54.6102 69.6051 57.5585 33.158 50.9885 26.8065Z" fill="#F47B20"/>
<path d="M54.6101 69.9331L24.5509 68.823C24.4728 68.8164 24.3996 68.7819 24.3447 68.7259C24.3176 68.6967 24.2966 68.6623 24.283 68.6247C24.2695 68.5872 24.2636 68.5474 24.2658 68.5075C24.3204 66.9606 25.7521 30.5377 29.3131 27.6198C32.8741 24.7018 50.2908 26.4065 51.0309 26.5036C51.0996 26.5099 51.1639 26.5399 51.2129 26.5885C53.9974 29.282 55.4594 37.3564 55.5747 50.5934C55.6596 60.4088 54.9316 69.5631 54.9256 69.6541C54.9194 69.7324 54.883 69.8052 54.8242 69.8573C54.7653 69.9093 54.6886 69.9365 54.6101 69.9331ZM24.8846 68.2285L54.3311 69.3265C54.5859 65.899 56.8486 33.1888 50.855 27.1102C49.3687 26.9646 32.9166 25.4601 29.6832 28.099C26.929 30.3436 25.285 57.5334 24.8664 68.2285H24.8846Z" fill="#F47B20"/>
<path d="M40.8939 47.1169C40.8339 47.1136 40.7761 47.093 40.7276 47.0574C40.6791 47.0219 40.642 46.973 40.6209 46.9167C39.5653 44.0594 34.3239 29.7426 34.9124 28.4019C34.9467 28.3299 35.0075 28.2739 35.0821 28.2456C35.1567 28.2174 35.2394 28.219 35.3128 28.2503C35.3854 28.2823 35.4427 28.3415 35.4722 28.4152C35.5016 28.4889 35.501 28.5713 35.4705 28.6446C35.1732 29.4878 38.0184 38.0779 40.9303 45.9946C41.9798 43.5316 45.4619 35.075 46.3901 29.7669C46.4049 29.6878 46.4499 29.6176 46.5156 29.5712C46.5813 29.5248 46.6625 29.5057 46.7419 29.5181C46.8206 29.5329 46.8903 29.5782 46.9358 29.6441C46.9812 29.71 46.9988 29.7912 46.9846 29.87C45.9169 36.167 41.2639 46.856 41.2154 46.9349C41.1902 46.997 41.1447 47.0488 41.0864 47.0819C41.028 47.1149 40.9601 47.1273 40.8939 47.1169Z" fill="white"/>
<path d="M36.1316 25.7516L35.525 39.6256L35.3673 43.4474L35.1489 48.7798L34.9911 52.6017L34.4998 64.5889L20.4014 63.9823C20.4014 63.9823 20.5045 58.838 20.7532 52.4561C20.8018 51.2428 20.8563 49.9324 20.917 48.6281C21.0019 46.8628 21.0929 45.0611 21.1961 43.3018C21.2749 41.9975 21.3599 40.7115 21.4569 39.48C21.8452 34.3114 22.3608 29.9739 23.0403 28.5604C25.1332 24.1744 36.1316 25.7516 36.1316 25.7516Z" fill="#FEEFD2"/>
<path d="M60.5189 43.7625C60.5189 45.5218 60.4704 47.3114 60.4279 49.0889C60.3976 50.3871 60.3612 51.6671 60.3248 52.9107C60.0942 60.0873 59.7606 66.0264 59.7606 66.0264L45.7168 64.8919L45.9595 52.7591L46.0383 48.9311L46.1414 43.6048L46.2203 39.783L46.4994 25.9697C46.4994 25.9697 57.4978 24.3985 59.5543 28.736C60.2216 30.1495 60.4764 34.6022 60.525 39.9589C60.525 41.1722 60.525 42.4522 60.5189 43.7625Z" fill="#FEEFD2"/>
<path d="M26.7165 76.2117C26.6583 76.2109 26.6014 76.1941 26.5521 76.1631C26.5029 76.132 26.4632 76.0879 26.4374 76.0357C26.4046 75.9625 26.4021 75.8792 26.4306 75.8042C26.459 75.7292 26.516 75.6684 26.5891 75.6353C27.6482 75.1427 28.5811 74.4152 29.3169 73.508C30.0527 72.6009 30.5721 71.538 30.8356 70.4C30.8504 70.3222 30.8945 70.2529 30.9589 70.2067C31.0232 70.1604 31.1028 70.1406 31.1814 70.1513C31.2209 70.1579 31.2587 70.1722 31.2926 70.1935C31.3266 70.2148 31.3559 70.2427 31.3791 70.2754C31.4022 70.3081 31.4186 70.345 31.4274 70.3841C31.4361 70.4232 31.4371 70.4637 31.4301 70.5031C31.1624 71.7404 30.6095 72.898 29.8154 73.8838C29.0213 74.8696 28.0079 75.6564 26.856 76.1813C26.8129 76.2034 26.7648 76.2138 26.7165 76.2117Z" fill="white"/>
<path d="M53.5787 76.2116C53.5104 76.2107 53.4443 76.1873 53.3907 76.1449C52.5576 75.4486 51.8929 74.5728 51.4464 73.5832C50.9999 72.5935 50.7832 71.5156 50.8124 70.4303C50.8181 70.3499 50.8554 70.2749 50.9163 70.222C50.9771 70.1691 51.0565 70.1426 51.137 70.1482C51.2174 70.1538 51.2923 70.1912 51.3452 70.2521C51.3981 70.3129 51.4247 70.3923 51.4191 70.4728C51.4071 71.4594 51.6123 72.4365 52.0201 73.335C52.428 74.2334 53.0284 75.0312 53.7789 75.6717C53.8282 75.7112 53.8639 75.7652 53.8811 75.826C53.8982 75.8868 53.896 75.9515 53.8746 76.0109C53.8532 76.0704 53.8138 76.1217 53.7618 76.1577C53.7099 76.1937 53.648 76.2125 53.5848 76.2116H53.5787Z" fill="white"/>
<path d="M40.4025 80.1192C40.3236 80.1192 40.248 80.0878 40.1923 80.0321C40.1365 79.9763 40.1052 79.9007 40.1052 79.8219C40.1052 79.5065 40.5966 70.8072 40.6209 70.4371C40.6206 70.397 40.6289 70.3573 40.6451 70.3205C40.6613 70.2838 40.685 70.2509 40.7148 70.224C40.7446 70.1971 40.7797 70.1768 40.8179 70.1643C40.8561 70.1519 40.8964 70.1477 40.9363 70.152C40.9759 70.1535 41.0148 70.163 41.0507 70.1798C41.0866 70.1965 41.1187 70.2203 41.1453 70.2497C41.1719 70.2791 41.1923 70.3135 41.2054 70.3509C41.2184 70.3883 41.2239 70.4279 41.2215 70.4675C41.0819 72.985 40.7058 79.5671 40.7058 79.8219C40.7058 79.8615 40.6979 79.9006 40.6826 79.9371C40.6673 79.9735 40.6449 80.0066 40.6166 80.0343C40.5884 80.062 40.5549 80.0837 40.5181 80.0983C40.4813 80.1129 40.442 80.12 40.4025 80.1192Z" fill="white"/>
<path d="M54.6101 69.9336L24.5509 68.8234C24.4704 68.8234 24.3933 68.7915 24.3364 68.7346C24.2795 68.6777 24.2476 68.6006 24.2476 68.5201C24.2476 68.4397 24.2795 68.3625 24.3364 68.3056C24.3933 68.2488 24.4704 68.2168 24.5509 68.2168L54.6222 69.327C54.7026 69.327 54.7798 69.3589 54.8367 69.4158C54.8936 69.4727 54.9255 69.5498 54.9255 69.6303C54.9255 69.7107 54.8936 69.7879 54.8367 69.8448C54.7798 69.9016 54.7026 69.9336 54.6222 69.9336H54.6101Z" fill="white"/>
<path d="M21.4874 39.4492L35.5555 39.6251L35.3978 43.447L21.2266 43.2711C21.3054 41.9668 21.3964 40.6807 21.4874 39.4492Z" fill="#FBBF78"/>
<path d="M60.5188 43.7626L46.1414 43.5806L46.2202 39.7588L60.5249 39.9347C60.5249 41.1723 60.5249 42.4523 60.5188 43.7626Z" fill="#FBBF78"/>
<path d="M20.9473 48.5977L35.1791 48.7796L35.0214 52.6015L20.7896 52.4256C20.832 51.188 20.8866 49.9141 20.9473 48.5977Z" fill="#FBBF78"/>
<path d="M60.4279 49.0892C60.3976 50.3874 60.3612 51.6675 60.3248 52.9111L45.9595 52.7351L46.0383 48.9072L60.4279 49.0892Z" fill="#FBBF78"/>
<path d="M49.2474 15.5836C49.1382 15.3591 50.218 12.8294 49.854 8.8377C49.4901 4.84598 42.1557 3.43857 39.5411 3.77829C36.9265 4.11801 34.2572 6.81151 33.7113 9.46861C33.1653 12.1257 34.3179 16.8515 34.3179 16.8515L49.2474 15.5836Z" fill="white"/>
<path d="M34.3056 17.1552C34.2358 17.1558 34.1678 17.1327 34.1127 17.0898C34.0576 17.0468 34.0187 16.9865 34.0023 16.9186C33.9537 16.7245 32.8375 12.0655 33.3956 9.4023C34.0023 6.53288 36.7746 3.80905 39.4621 3.46327C41.282 3.22667 45.8743 3.83332 48.4222 5.88984C48.8972 6.22946 49.2963 6.66433 49.594 7.16672C49.8917 7.66912 50.0814 8.22801 50.1511 8.80779C50.3433 10.8944 50.1708 12.9984 49.6415 15.0259C49.593 15.2321 49.5445 15.4445 49.5384 15.5233C49.5505 15.5982 49.5378 15.6749 49.502 15.7417C49.4761 15.7859 49.44 15.8233 49.3968 15.8507C49.3535 15.8782 49.3043 15.8949 49.2533 15.8995L34.3299 17.1552H34.3056ZM40.372 4.03958C40.0904 4.03702 39.8088 4.0512 39.5288 4.08204C37.1022 4.3975 34.5058 6.93933 33.9719 9.54183C33.523 11.7379 34.2935 15.5051 34.5179 16.5304L48.9257 15.3171C48.9257 15.2079 48.9803 15.0744 49.0228 14.8985C49.536 12.9365 49.7023 10.8999 49.5142 8.88059C49.4512 8.3861 49.286 7.91012 49.0291 7.48295C48.7722 7.05578 48.4291 6.68677 48.0218 6.39942C46.1169 4.82215 42.5802 4.04564 40.4024 4.04564L40.372 4.03958Z" fill="#F47B20"/>
<path d="M47.033 15.3351C47.4394 12.7932 51.6616 12.1623 51.4554 15.1591C51.4217 16.2009 51.0223 17.1975 50.327 17.974C49.9743 18.3576 49.5148 18.6267 49.0077 18.7467C48.5006 18.8668 47.9691 18.8321 47.4819 18.6473" fill="white"/>
<path d="M48.3739 19.1451C48.0269 19.1471 47.6835 19.0747 47.3669 18.9328C47.2918 18.8983 47.2333 18.8358 47.2038 18.7587C47.1743 18.6816 47.1762 18.596 47.2091 18.5202C47.2448 18.4448 47.3084 18.3861 47.3865 18.3567C47.4646 18.3272 47.5511 18.3293 47.6277 18.3625C48.0543 18.5151 48.5164 18.539 48.9564 18.4311C49.3965 18.3233 49.7951 18.0885 50.1028 17.7559C50.7333 17.0323 51.0934 16.1126 51.122 15.1534C51.1887 14.1949 50.7459 13.5943 49.9087 13.4972C49.3207 13.4452 48.7339 13.6094 48.2582 13.9589C47.7825 14.3084 47.4505 14.8194 47.3244 15.396C47.311 15.4778 47.2659 15.551 47.1989 15.5998C47.1319 15.6486 47.0484 15.6691 46.9665 15.6569C46.8847 15.6435 46.8115 15.5984 46.7627 15.5314C46.7139 15.4644 46.6934 15.3809 46.7056 15.299C46.8526 14.5598 47.2695 13.9019 47.8751 13.4533C48.4807 13.0047 49.2316 12.7976 49.9815 12.8724C50.2549 12.8957 50.5204 12.9761 50.7609 13.1082C51.0014 13.2404 51.2116 13.4214 51.3779 13.6397C51.5442 13.858 51.6629 14.1087 51.7265 14.3757C51.79 14.6427 51.7969 14.92 51.7468 15.1898C51.7148 16.3127 51.2848 17.3877 50.5335 18.223C49.9624 18.8017 49.1868 19.1328 48.3739 19.1451Z" fill="#F47B20"/>
<path d="M36.5201 15.3351C36.1136 12.7932 31.8914 12.1623 32.1037 15.1591C32.132 16.2009 32.5298 17.1985 33.226 17.974C33.5786 18.3519 34.0356 18.6165 34.539 18.7342C35.0423 18.8519 35.5692 18.8175 36.0529 18.6352" fill="white"/>
<path d="M35.1793 19.1448C34.3573 19.1325 33.574 18.7943 33.0014 18.2045C32.2511 17.3687 31.8212 16.294 31.7881 15.1713C31.7463 14.9074 31.7588 14.6377 31.8247 14.3787C31.8907 14.1198 32.0087 13.877 32.1717 13.6652C32.3346 13.4534 32.5391 13.2771 32.7725 13.147C33.0059 13.0169 33.2634 12.9358 33.5292 12.9085C34.2791 12.8338 35.03 13.0408 35.6356 13.4894C36.2411 13.938 36.6581 14.5959 36.8051 15.3351C36.8173 15.4171 36.7968 15.5006 36.748 15.5675C36.6992 15.6345 36.626 15.6796 36.5442 15.693C36.4622 15.7053 36.3787 15.6848 36.3118 15.636C36.2448 15.5872 36.1997 15.5139 36.1863 15.4322C36.0645 14.8566 35.7377 14.3449 35.2668 13.9922C34.7958 13.6396 34.2128 13.4701 33.6262 13.5152C32.7891 13.6122 32.3462 14.2128 32.413 15.1713C32.4494 16.1286 32.8159 17.0439 33.4503 17.7617C33.7605 18.1002 34.1644 18.3387 34.6106 18.4467C35.0568 18.5548 35.5251 18.5275 35.9558 18.3683C36.0324 18.3351 36.1189 18.333 36.197 18.3625C36.2751 18.3919 36.3387 18.4506 36.3743 18.526C36.4073 18.6018 36.4092 18.6874 36.3797 18.7645C36.3502 18.8416 36.2917 18.9041 36.2166 18.9386C35.8902 19.0828 35.536 19.1532 35.1793 19.1448Z" fill="#F47B20"/>
<path d="M36.52 26.9156C36.52 26.9156 38.0306 30.5554 41.3732 30.5554C42.3021 30.5806 43.2217 30.3647 44.0425 29.9288C44.8632 29.4929 45.557 28.8519 46.0565 28.0682L45.9048 26.2543L45.5772 22.1231L45.2678 18.2588H37.6666L37.4118 21.4194L37.3329 22.4446L36.52 26.9156Z" fill="white"/>
<path d="M41.3609 30.8469C37.8605 30.8469 36.2954 27.207 36.2286 27.0372C36.2109 26.9799 36.2109 26.9185 36.2286 26.8612L37.0415 22.4024L37.3691 18.253C37.3753 18.1741 37.4115 18.1007 37.4701 18.0476C37.5288 17.9946 37.6055 17.9661 37.6846 17.9679H45.2858C45.3643 17.9661 45.4403 17.9949 45.498 18.0481C45.5557 18.1012 45.5905 18.1747 45.5952 18.253L46.3717 28.026C46.3784 28.0851 46.3656 28.1447 46.3353 28.1959C45.811 29.0347 45.0755 29.7211 44.2025 30.1863C43.3295 30.6516 42.3496 30.8794 41.3609 30.8469ZM36.8414 26.8612C37.0901 27.383 38.5521 30.2099 41.3609 30.2099C42.2194 30.2375 43.0708 30.0452 43.8341 29.6513C44.5975 29.2574 45.2476 28.675 45.7226 27.9593L44.9764 18.5806H37.9515L37.6421 22.4752L36.8414 26.8612Z" fill="#F47B20"/>
<path d="M36.8171 21.1465C36.9013 21.6148 37.0765 22.062 37.3328 22.4629C37.9716 23.3872 38.8306 24.1377 39.8322 24.6468C41.4701 25.5568 43.9149 26.5759 45.8986 26.2726L45.571 22.1414C44.1141 22.3146 42.6418 22.3146 41.185 22.1414C39.8953 22.094 38.6206 21.8485 37.4056 21.4134C37.2054 21.3467 37.0113 21.2496 36.8171 21.1465Z" fill="#F47B20"/>
<path d="M45.1463 26.6243C43.1141 26.6243 40.8998 25.5869 39.6865 24.9136C38.6376 24.3813 37.7403 23.5925 37.078 22.6205C36.7999 22.1866 36.6102 21.7022 36.5199 21.1948C36.5109 21.1383 36.5181 21.0804 36.5406 21.0278C36.5632 20.9752 36.6001 20.9301 36.6473 20.8976C36.6957 20.8681 36.7513 20.8525 36.808 20.8525C36.8647 20.8525 36.9203 20.8681 36.9688 20.8976C37.1519 21.0003 37.3402 21.0934 37.533 21.1766C38.7191 21.5995 39.9629 21.8389 41.2213 21.8864C42.6539 22.0592 44.102 22.0592 45.5346 21.8864C45.6172 21.8774 45.7001 21.9014 45.7651 21.9531C45.7976 21.9785 45.8241 22.0107 45.843 22.0473C45.8619 22.084 45.8725 22.1243 45.8743 22.1655L46.2019 26.2967C46.2089 26.3728 46.1863 26.4486 46.1388 26.5085C46.0914 26.5683 46.0227 26.6076 45.9471 26.6182C45.6806 26.6387 45.4131 26.6408 45.1463 26.6243ZM37.26 21.7105C37.337 21.9228 37.4367 22.1262 37.5572 22.3171C38.1642 23.2041 38.9867 23.9222 39.9474 24.404C41.2031 25.0956 43.5873 26.2239 45.5467 26.0237L45.2677 22.4991C43.8944 22.645 42.5096 22.645 41.1364 22.4991C39.8154 22.4481 38.51 22.1944 37.266 21.7469L37.26 21.7105Z" fill="#F47B20"/>
<path d="M41.2456 23.1126H41.9251C43.4696 23.1126 44.9509 22.499 46.0431 21.4068C47.1353 20.3146 47.7488 18.8333 47.7488 17.2888V8.05566H35.4158V17.2888C35.4158 18.0541 35.5666 18.8119 35.8597 19.5188C36.1527 20.2258 36.5822 20.8681 37.1237 21.409C37.6651 21.9498 38.3078 22.3787 39.0151 22.671C39.7224 22.9633 40.4803 23.1133 41.2456 23.1126Z" fill="white"/>
<path d="M47.749 8.05586V17.289C47.749 18.8335 47.1355 20.3148 46.0433 21.407C44.9511 22.4992 43.4698 23.1127 41.9252 23.1127H41.2458C40.4805 23.1135 39.7226 22.9635 39.0153 22.6712C38.308 22.3789 37.6653 21.95 37.1239 21.4092C36.5824 20.8683 36.1529 20.226 35.8599 19.519C35.5668 18.8121 35.416 18.0543 35.416 17.289V8.05586H47.749ZM47.749 7.44922H35.416C35.2551 7.44922 35.1008 7.51313 34.987 7.6269C34.8732 7.74067 34.8093 7.89497 34.8093 8.05586V17.289C34.8125 18.9993 35.4938 20.6386 36.7038 21.8474C37.9137 23.0563 39.5537 23.736 41.264 23.7376H41.9435C43.6532 23.736 45.2925 23.0561 46.5015 21.8471C47.7105 20.6381 48.3905 18.9988 48.3921 17.289V8.05586C48.3921 7.89497 48.3282 7.74067 48.2144 7.6269C48.1006 7.51313 47.9463 7.44922 47.7854 7.44922H47.749Z" fill="#F47B20"/>
<path d="M41.6765 17.5067C41.3906 17.5055 41.1049 17.4873 40.8212 17.4521C40.7395 17.4428 40.6613 17.4143 40.5927 17.3689C40.5242 17.3236 40.4674 17.2627 40.4268 17.1913C39.9719 16.433 41.0335 13.5514 41.355 12.6778C41.3692 12.6395 41.3908 12.6043 41.4186 12.5743C41.4465 12.5444 41.48 12.5202 41.5172 12.5033C41.5545 12.4864 41.5947 12.477 41.6356 12.4757C41.6764 12.4745 41.7172 12.4813 41.7554 12.4959C41.8333 12.5257 41.8962 12.5853 41.9304 12.6615C41.9645 12.7377 41.967 12.8243 41.9374 12.9023C41.2458 14.7222 40.809 16.4633 40.9486 16.8394C41.4689 16.8937 41.9934 16.8937 42.5137 16.8394C42.5544 16.8343 42.5956 16.8374 42.6351 16.8484C42.6746 16.8594 42.7115 16.8782 42.7437 16.9036C42.7758 16.929 42.8027 16.9605 42.8225 16.9964C42.8424 17.0322 42.855 17.0717 42.8595 17.1124C42.8654 17.1532 42.863 17.1948 42.8523 17.2346C42.8416 17.2744 42.8229 17.3117 42.7974 17.344C42.7718 17.3764 42.74 17.4032 42.7037 17.4228C42.6674 17.4425 42.6276 17.4545 42.5865 17.4582C42.2846 17.4951 41.9806 17.5113 41.6765 17.5067Z" fill="#F47B20"/>
<path d="M49.86 8.83807C49.86 8.83807 47.4819 12.4051 46.0442 11.6954C44.6065 10.9856 43.8603 9.02613 41.3549 8.9776C39.1831 8.9412 37.9394 12.1018 36.1317 11.6468C35.5903 11.4916 35.091 11.2163 34.6708 10.8413C34.2507 10.4663 33.9206 10.0014 33.7051 9.48111C34.6855 8.0535 36.0299 6.9142 37.5991 6.18137C39.1682 5.44854 40.9048 5.14888 42.6288 5.31347C48.7741 5.76845 49.86 8.83807 49.86 8.83807Z" fill="white"/>
<path d="M46.4446 12.0953C46.2545 12.0958 46.0671 12.05 45.8986 11.9619C45.3822 11.6663 44.912 11.2963 44.5033 10.8639C43.7026 10.0995 42.8715 9.31085 41.3488 9.28052C40.4085 9.28052 39.6077 9.97816 38.8373 10.6637C38.0668 11.3492 37.1326 12.2106 36.0589 11.9376C35.465 11.7737 34.9166 11.4757 34.456 11.0666C33.9954 10.6574 33.6347 10.1481 33.4018 9.57777C33.3825 9.53484 33.3726 9.48832 33.3726 9.44128C33.3726 9.39423 33.3825 9.34771 33.4018 9.30478C34.4211 7.83612 35.8131 6.6653 37.4347 5.9126C39.0563 5.15991 40.8491 4.85247 42.6288 5.02188C48.9258 5.48293 50.1026 8.61928 50.1451 8.75274C50.1629 8.79825 50.1694 8.8474 50.1642 8.89598C50.1589 8.94457 50.1419 8.99116 50.1148 9.03179C49.9085 9.35938 48.0037 12.0953 46.4446 12.0953ZM41.3124 8.66174H41.3609C43.1323 8.66174 44.0908 9.6081 44.934 10.421C45.3012 10.8086 45.7221 11.1416 46.1837 11.4098C47.0027 11.8284 48.6103 10.0934 49.5021 8.8134C49.1987 8.20676 47.6821 6.00464 42.5924 5.63459C40.9552 5.48326 39.3069 5.76051 37.8093 6.4391C36.3117 7.11769 35.0165 8.17426 34.0509 9.50497C34.2596 9.94524 34.5604 10.3356 34.933 10.6495C35.3056 10.9635 35.7412 11.1938 36.2105 11.3249C36.9567 11.513 37.6361 10.9003 38.4187 10.1965C39.2013 9.49284 40.1355 8.66174 41.3124 8.66174Z" fill="#F47B20"/>
<path d="M33.6928 9.46843C33.6821 7.64513 33.8857 5.82688 34.2994 4.05111C34.9546 1.62453 39.9412 -0.0862032 42.5437 0.362713C45.1462 0.811629 48.7193 2.78929 49.2168 3.96011C49.7142 5.13093 49.8234 8.81325 49.8234 8.81325C49.8234 8.81325 39.8199 3.57792 33.6928 9.46843Z" fill="white"/>
<path d="M33.693 9.7844C33.6548 9.79004 33.616 9.79004 33.5778 9.7844C33.5212 9.76085 33.4727 9.72135 33.4383 9.67072C33.4038 9.62009 33.3848 9.56052 33.3836 9.49928C33.3682 7.64769 33.5718 5.80078 33.9903 3.99702C34.7061 1.32779 39.8747 -0.395075 42.5925 0.0781064C45.3102 0.551288 48.944 2.55321 49.5203 3.8575C50.0967 5.16178 50.1573 8.71064 50.1573 8.85624C50.1598 8.91062 50.1476 8.96466 50.1219 9.01269C50.0963 9.06072 50.0583 9.10098 50.0117 9.12923C49.9641 9.15471 49.911 9.16805 49.857 9.16805C49.803 9.16805 49.7499 9.15471 49.7023 9.12923C49.6053 9.07463 39.7898 4.03949 33.8993 9.73587C33.8388 9.77683 33.7654 9.79411 33.693 9.7844ZM41.6522 0.605888C39.1103 0.605888 35.155 2.0861 34.609 4.13048C34.2365 5.64625 34.0331 7.19861 34.0024 8.75917C39.4622 4.22148 47.482 7.41242 49.5082 8.33452C49.4657 7.28503 49.3201 4.93732 48.944 4.08802C48.489 3.06279 45.0676 1.12154 42.4772 0.672619C42.2044 0.628355 41.9285 0.606039 41.6522 0.605888Z" fill="#F47B20"/>
<path d="M42.0221 21.2808C41.1539 21.2421 40.3074 20.9967 39.5531 20.5649C39.5167 20.5464 39.4844 20.5207 39.458 20.4896C39.4315 20.4584 39.4115 20.4224 39.3991 20.3835C39.3867 20.3445 39.3822 20.3036 39.3857 20.2629C39.3892 20.2222 39.4007 20.1826 39.4196 20.1464C39.4584 20.0725 39.5248 20.017 39.6044 19.992C39.684 19.9669 39.7702 19.9745 39.8443 20.0129C40.9908 20.6195 41.9675 20.7894 42.7501 20.5407C43.2087 20.4066 43.5992 20.1029 43.842 19.6914C43.8808 19.6175 43.9472 19.562 44.0268 19.537C44.1064 19.512 44.1926 19.5195 44.2667 19.5579C44.3396 19.5944 44.3952 19.6582 44.4213 19.7355C44.4474 19.8127 44.442 19.8972 44.4062 19.9704C44.0869 20.5275 43.5691 20.9435 42.9563 21.1352C42.6547 21.2331 42.3393 21.2823 42.0221 21.2808Z" fill="#F47B20"/>
<path d="M44.2753 13.0391C44.4692 13.0263 44.6026 12.6555 44.5732 12.2108C44.5439 11.7662 44.3629 11.4161 44.169 11.429C43.9751 11.4418 43.8417 11.8126 43.8711 12.2572C43.9004 12.7019 44.0814 13.0519 44.2753 13.0391Z" fill="#F47B20"/>
<path d="M39.0822 13.417C39.2761 13.4042 39.4095 13.0334 39.3801 12.5888C39.3507 12.1441 39.1697 11.7941 38.9758 11.8069C38.7819 11.8197 38.6486 12.1905 38.6779 12.6352C38.7073 13.0798 38.8883 13.4299 39.0822 13.417Z" fill="#F47B20"/>
<path d="M43.5933 54.573H38.1942C38.1137 54.573 38.0366 54.5411 37.9797 54.4842C37.9228 54.4273 37.8909 54.3502 37.8909 54.2697V46.8141C37.8909 46.7336 37.9228 46.6565 37.9797 46.5996C38.0366 46.5427 38.1137 46.5107 38.1942 46.5107H43.5933C43.6738 46.5107 43.7509 46.5427 43.8078 46.5996C43.8647 46.6565 43.8966 46.7336 43.8966 46.8141V54.2697C43.8951 54.3497 43.8626 54.4259 43.8061 54.4825C43.7495 54.539 43.6733 54.5715 43.5933 54.573ZM38.4914 53.9664H43.29V47.1174H38.4914V53.9664Z" fill="white"/>
<path d="M81.5814 39.5467C81.4904 39.4921 73.3553 56.836 68.4172 57.6064C63.4791 58.3769 61.0647 54.5732 63.2365 50.3267C65.4082 46.0802 73.5676 38.5882 73.5676 38.5882L82.9645 35.1182L81.5814 39.5467Z" fill="white"/>
<path d="M67.1919 58.0125C66.3816 58.0618 65.5715 57.913 64.8317 57.579C64.0918 57.245 63.4444 56.7358 62.9454 56.0955C61.8353 54.5546 61.8353 52.3525 62.9454 50.1989C65.1233 45.9524 73.0278 38.6727 73.3675 38.3572C73.397 38.3282 73.4321 38.3055 73.4707 38.2905L82.8676 34.8266C82.9228 34.8052 82.9831 34.8001 83.0412 34.8119C83.0992 34.8237 83.1527 34.852 83.1952 34.8933C83.2368 34.9343 83.2662 34.9861 83.2802 35.0429C83.2941 35.0997 83.292 35.1592 83.274 35.2148L81.8727 39.6373C81.8578 39.6777 81.8352 39.7148 81.806 39.7465C81.7514 39.8435 81.5694 40.2014 81.3631 40.6079C75.7153 51.6367 71.3717 57.4604 68.4537 57.9154C68.0361 57.9789 67.6143 58.0114 67.1919 58.0125ZM73.7558 38.8608C73.1006 39.4674 65.554 46.5287 63.5156 50.484C62.5147 52.4253 62.4965 54.3848 63.4671 55.7315C64.4378 57.0783 66.2091 57.6303 68.3688 57.2966C70.2312 57.0055 73.9014 53.8267 80.8171 40.3106C81.078 39.795 81.2114 39.5402 81.2964 39.4007L82.5097 35.6213L73.7558 38.8608Z" fill="#F47B20"/>
<path d="M76.8556 45.2366H60.3792L68.1442 24.4287H84.6206L76.8556 45.2366Z" fill="white"/>
<path d="M76.8556 45.546H60.3792C60.329 45.5463 60.2795 45.5344 60.235 45.5112C60.1904 45.4881 60.1522 45.4545 60.1235 45.4133C60.0949 45.3721 60.0767 45.3246 60.0705 45.2747C60.0643 45.2249 60.0703 45.1744 60.088 45.1274L67.8531 24.3196C67.8744 24.2593 67.9138 24.2072 67.9659 24.1702C68.0181 24.1333 68.0804 24.1134 68.1442 24.1133H84.6207C84.6709 24.1127 84.7204 24.1246 84.7649 24.1479C84.8094 24.1712 84.8474 24.2052 84.8755 24.2468C84.9052 24.2885 84.924 24.3369 84.9304 24.3878C84.9367 24.4386 84.9304 24.4902 84.9119 24.5379L77.1468 45.3458C77.1238 45.4044 77.0838 45.4548 77.0319 45.4905C76.98 45.5262 76.9186 45.5455 76.8556 45.546ZM60.8281 44.9394H76.6373L84.1718 24.7381H68.3626L60.8281 44.9394Z" fill="#F47B20"/>
<path d="M80.6412 41.3537C80.7322 41.0868 83.9899 35.7423 83.7957 33.9163C83.6562 32.5816 78.5786 30.2097 77.4927 30.4038C76.4068 30.5979 79.6645 32.7697 79.6645 32.7697C79.6645 32.7697 74.6779 30.5919 74.3624 31.8719C74.047 33.1519 79.0882 34.4319 79.0882 34.4319C79.0882 34.4319 73.7194 33.4734 73.592 34.5593C73.4646 35.6452 78.0023 36.2822 78.0023 36.2822C78.0023 36.2822 73.7861 36.0274 74.4898 36.9859C75.1935 37.9444 79.7009 39.2547 79.7009 39.2547" fill="white"/>
<path d="M80.6349 41.6639C80.599 41.6724 80.5617 41.6724 80.5258 41.6639C80.4502 41.6365 80.3885 41.5802 80.3544 41.5074C80.3203 41.4346 80.3164 41.3512 80.3438 41.2756C80.4438 41.0675 80.5552 40.8649 80.6774 40.669C81.4054 39.3647 83.6318 35.3972 83.4862 33.9959C83.4862 33.9049 83.383 33.5713 82.5762 32.9646C80.9989 31.7513 78.4086 30.7443 77.6442 30.7443C78.2921 31.4458 79.0306 32.0578 79.8402 32.5642C79.9042 32.6076 79.9501 32.6729 79.9691 32.7478C79.9881 32.8228 79.979 32.9021 79.9434 32.9707C79.907 33.0405 79.8452 33.0939 79.7708 33.1198C79.6964 33.1457 79.615 33.1423 79.543 33.1102C78.0567 32.4672 75.4481 31.5693 74.7505 31.8969C74.6838 31.9333 74.6716 31.9636 74.6656 31.994C74.52 32.6006 76.9223 33.6016 79.1669 34.1718C79.2464 34.1906 79.3152 34.24 79.3584 34.3094C79.4016 34.3787 79.4156 34.4623 79.3974 34.5419C79.3799 34.6215 79.3322 34.6913 79.2643 34.7366C79.1964 34.7818 79.1137 34.799 79.0334 34.7845C76.2974 34.2932 74.0286 34.3053 73.9012 34.6389C73.7738 34.9726 75.8728 35.7127 78.0446 36.016C78.1256 36.0281 78.1989 36.0706 78.2496 36.1348C78.3003 36.1991 78.3246 36.2803 78.3176 36.3618C78.3099 36.4429 78.2705 36.5176 78.2081 36.5699C78.1456 36.6221 78.0651 36.6476 77.9839 36.6409C76.5158 36.5499 75.072 36.6409 74.7505 36.8471C75.3147 37.5205 78.1174 38.5154 79.7856 39.0007C79.8255 39.0123 79.8626 39.0315 79.895 39.0575C79.9274 39.0834 79.9544 39.1154 79.9744 39.1518C79.9944 39.1881 80.007 39.228 80.0116 39.2692C80.0161 39.3104 80.0126 39.3522 80.001 39.392C79.9895 39.4318 79.9702 39.469 79.9443 39.5014C79.9183 39.5338 79.8863 39.5607 79.85 39.5807C79.8136 39.6007 79.7737 39.6134 79.7325 39.6179C79.6913 39.6225 79.6496 39.6189 79.6097 39.6074C79.1365 39.4678 74.981 38.2363 74.2349 37.2232C74.1658 37.1398 74.1221 37.0382 74.1092 36.9306C74.0963 36.8231 74.1147 36.714 74.1621 36.6166C74.3016 36.3557 74.7262 36.198 75.2662 36.1131C74.1499 35.7734 73.2036 35.282 73.2824 34.6025C73.2946 34.5098 73.3256 34.4205 73.3736 34.3401C73.4216 34.2598 73.4856 34.1901 73.5615 34.1354C73.9922 33.82 74.9932 33.7714 76.0366 33.826C74.8597 33.3104 73.8648 32.6128 74.0589 31.8787C74.0862 31.7679 74.138 31.6646 74.2104 31.5765C74.2829 31.4883 74.3741 31.4174 74.4775 31.3691C75.1266 31.0476 76.5098 31.3691 77.7231 31.7695C77.1589 31.2599 76.9102 30.8535 76.9708 30.5562C76.9944 30.4477 77.0528 30.3499 77.1371 30.2776C77.2215 30.2053 77.3271 30.1626 77.4379 30.1558C78.4146 29.986 81.4661 31.3691 82.9523 32.4793C83.6864 33.0313 84.0625 33.5106 84.111 33.9474C84.2566 35.3669 82.6429 38.4608 81.2234 40.9966C81.0657 41.2756 80.9565 41.4697 80.9322 41.5304C80.8982 41.5762 80.853 41.6125 80.801 41.6359C80.7489 41.6593 80.6918 41.6689 80.6349 41.6639Z" fill="#F47B20"/>
<path d="M73.7862 23.8037L72.7124 26.6792L79.3005 26.4851L80.3561 23.8037H73.7862Z" fill="#F47B20"/>
<path d="M72.7122 26.9821C72.6645 26.9819 72.6176 26.9703 72.5753 26.9481C72.5331 26.9259 72.4968 26.8939 72.4696 26.8547C72.4409 26.8149 72.422 26.7689 72.4147 26.7203C72.4073 26.6718 72.4115 26.6222 72.4271 26.5757L73.5009 23.6941C73.523 23.6366 73.5622 23.5873 73.6131 23.5526C73.6641 23.5179 73.7244 23.4996 73.786 23.5H80.3559C80.4049 23.5006 80.4529 23.5131 80.496 23.5363C80.539 23.5595 80.5758 23.5928 80.6032 23.6333C80.6307 23.6739 80.6479 23.7204 80.6534 23.769C80.6589 23.8177 80.6526 23.8669 80.635 23.9125L79.5794 26.6C79.5577 26.6549 79.5202 26.7021 79.4716 26.7356C79.423 26.7691 79.3655 26.7873 79.3064 26.788L72.7183 26.9821H72.7122ZM73.9922 24.1067L73.149 26.3634L79.088 26.1935L79.9131 24.1067H73.9922Z" fill="#F47B20"/>
<path d="M78.6453 24.3071C78.7244 24.044 78.7244 23.7634 78.6453 23.5003C78.5644 23.2866 78.4288 23.0979 78.2521 22.9531C78.0753 22.8084 77.8637 22.7125 77.6383 22.6753C77.4125 22.6433 77.1826 22.6563 76.9619 22.7136C76.7412 22.7709 76.534 22.8712 76.3522 23.0089C75.9971 23.2567 75.7448 23.6256 75.6424 24.0463C75.5995 24.2395 75.5975 24.4396 75.6365 24.6337C75.6755 24.8278 75.7547 25.0116 75.8689 25.1733C75.9832 25.335 76.13 25.471 76.2999 25.5725C76.4699 25.6741 76.6592 25.739 76.8557 25.7631C77.2725 25.7505 77.6735 25.6012 77.997 25.338C78.3204 25.0749 78.5482 24.7126 78.6453 24.3071Z" fill="#F47B20"/>
<path d="M76.9406 26.0728H76.8314C76.5993 26.056 76.3737 25.9887 76.1704 25.8755C75.9671 25.7623 75.791 25.6061 75.6545 25.4177C75.5045 25.2144 75.3984 24.9821 75.3431 24.7357C75.2877 24.4892 75.2843 24.2339 75.333 23.986C75.4581 23.4961 75.7525 23.0663 76.1641 22.7727C76.5993 22.4499 77.1445 22.3125 77.6807 22.3905C77.9548 22.4405 78.2111 22.5615 78.424 22.7414C78.6369 22.9213 78.7989 23.1538 78.894 23.4157C78.9889 23.7344 78.9889 24.0738 78.894 24.3924C78.7772 24.8376 78.5279 25.2367 78.179 25.5368C77.8301 25.837 77.3982 26.0239 76.9406 26.0728ZM77.3774 22.9547C77.0661 22.9607 76.7647 23.0647 76.5159 23.2519C76.2161 23.4562 76.0006 23.7623 75.9093 24.1134C75.8773 24.2757 75.8802 24.4429 75.9178 24.604C75.9555 24.7651 76.027 24.9163 76.1277 25.0476C76.2112 25.1676 76.3204 25.2674 76.4474 25.3398C76.5744 25.4122 76.7159 25.4554 76.8617 25.4662C77.2059 25.4493 77.5355 25.3223 77.802 25.1038C78.0686 24.8854 78.2578 24.5871 78.3419 24.2529C78.397 24.0544 78.397 23.8447 78.3419 23.6463C78.2763 23.4875 78.171 23.3484 78.0361 23.2421C77.9012 23.1359 77.7412 23.0661 77.5715 23.0396C77.5096 23.0052 77.4446 22.9768 77.3774 22.9547Z" fill="#F47B20"/>
<path d="M16.3128 63.6367C16.3128 63.6367 13.6436 59.2992 9.77926 59.4327C7.11609 59.5298 3.14258 61.4953 3.14258 61.4953L21.2266 79.822C21.2266 79.822 27.0565 84.2748 27.9846 82.8552C28.9128 81.4357 29.4709 80.0161 28.9249 79.094C28.3789 78.1719 25.2851 76.5461 25.2851 76.5461L24.9029 72.8395C24.9029 72.8395 22.7372 73.61 22.0456 73.2217C21.354 72.8335 16.3128 63.6367 16.3128 63.6367Z" fill="white"/>
<path d="M27.3839 83.4676C25.564 83.4676 21.5116 80.4344 21.0384 80.0704L2.91798 61.7134C2.88291 61.6781 2.85688 61.6348 2.84209 61.5873C2.82731 61.5398 2.8242 61.4894 2.83305 61.4404C2.84206 61.3917 2.86203 61.3456 2.89146 61.3056C2.92088 61.2657 2.95899 61.233 3.00291 61.2099C3.1667 61.131 7.06742 59.214 9.76698 59.123H9.96111C13.8497 59.123 16.4704 63.2968 16.5796 63.4788C18.9576 67.8284 21.7361 72.6391 22.2032 72.9788C22.5914 73.1911 23.9503 72.8696 24.7935 72.5663C24.8385 72.5513 24.8862 72.5462 24.9334 72.5514C24.9805 72.5567 25.0259 72.5721 25.0665 72.5966C25.1068 72.6214 25.1408 72.655 25.1661 72.695C25.1913 72.7349 25.2071 72.7801 25.2121 72.8271L25.5822 76.3699C26.2616 76.7339 28.67 78.0685 29.1856 78.9603C29.8711 80.1311 29.0461 81.8358 28.2332 83.0551C28.1589 83.1596 28.0641 83.2479 27.9546 83.3147C27.8451 83.3814 27.7232 83.4252 27.5962 83.4434C27.5262 83.4571 27.4552 83.4652 27.3839 83.4676ZM3.67628 61.586L21.4509 79.5973C22.6642 80.5497 26.2677 83.0369 27.5174 82.8307C27.5596 82.8271 27.6008 82.8151 27.6383 82.7953C27.6758 82.7755 27.709 82.7483 27.7358 82.7154C28.7428 81.1988 29.0764 79.9795 28.67 79.2818C28.2635 78.5842 26.0008 77.292 25.1636 76.8552C25.1187 76.831 25.0804 76.7963 25.0518 76.7541C25.0233 76.7118 25.0055 76.6632 24.9998 76.6126L24.654 73.2942C23.9382 73.5187 22.549 73.9009 21.918 73.5308C21.1961 73.1365 17.253 65.9902 16.0579 63.8245C15.9426 63.6425 13.3644 59.663 9.80338 59.7782C7.70439 59.8207 4.73184 61.1007 3.67628 61.586Z" fill="#F47B20"/>
<path d="M31.1026 122.553H24.842C24.8054 122.553 24.7691 122.546 24.7353 122.532C24.7014 122.518 24.6706 122.497 24.6447 122.471C24.6188 122.446 24.5983 122.415 24.5842 122.381C24.5702 122.347 24.563 122.311 24.563 122.274C24.563 122.238 24.5702 122.201 24.5842 122.167C24.5983 122.134 24.6188 122.103 24.6447 122.077C24.6706 122.051 24.7014 122.03 24.7353 122.016C24.7691 122.002 24.8054 121.995 24.842 121.995H31.1026C31.1766 121.995 31.2476 122.025 31.2999 122.077C31.3523 122.129 31.3817 122.2 31.3817 122.274C31.3817 122.348 31.3523 122.419 31.2999 122.471C31.2476 122.524 31.1766 122.553 31.1026 122.553Z" fill="#F47B20"/>
<path d="M52.3351 122.553H46.0928C46.0188 122.553 45.9478 122.524 45.8955 122.471C45.8431 122.419 45.8137 122.348 45.8137 122.274C45.8137 122.2 45.8431 122.129 45.8955 122.077C45.9478 122.025 46.0188 121.995 46.0928 121.995H52.3351C52.4091 121.995 52.4801 122.025 52.5325 122.077C52.5848 122.129 52.6142 122.2 52.6142 122.274C52.6142 122.348 52.5848 122.419 52.5325 122.471C52.4801 122.524 52.4091 122.553 52.3351 122.553Z" fill="#F47B20"/>
<path d="M41.7249 5.31902C42.5994 5.31902 43.3083 4.61014 43.3083 3.73568C43.3083 2.86123 42.5994 2.15234 41.7249 2.15234C40.8505 2.15234 40.1416 2.86123 40.1416 3.73568C40.1416 4.61014 40.8505 5.31902 41.7249 5.31902Z" fill="#FEEFD2"/>
</svg>
