<svg width="25" height="24" viewBox="0 0 25 24" fill="none" xmlns="http://www.w3.org/2000/svg">
<g clip-path="url(#clip0_3266_42230)">
<path d="M19.5 22H5.5C4.70435 22 3.94129 21.6839 3.37868 21.1213C2.81607 20.5587 2.5 19.7956 2.5 19V3C2.5 2.73478 2.60536 2.48043 2.79289 2.29289C2.98043 2.10536 3.23478 2 3.5 2H17.5C17.7652 2 18.0196 2.10536 18.2071 2.29289C18.3946 2.48043 18.5 2.73478 18.5 3V15H22.5V19C22.5 19.7956 22.1839 20.5587 21.6213 21.1213C21.0587 21.6839 20.2956 22 19.5 22ZM18.5 17V19C18.5 19.2652 18.6054 19.5196 18.7929 19.7071C18.9804 19.8946 19.2348 20 19.5 20C19.7652 20 20.0196 19.8946 20.2071 19.7071C20.3946 19.5196 20.5 19.2652 20.5 19V17H18.5ZM6.5 7V9H14.5V7H6.5ZM6.5 11V13H14.5V11H6.5ZM6.5 15V17H11.5V15H6.5Z" fill="#F47B20"/>
</g>
<defs>
<clipPath id="clip0_3266_42230">
<rect width="24" height="24" fill="white" transform="translate(0.5)"/>
</clipPath>
</defs>
</svg>
