<svg width="192" height="192" viewBox="0 0 192 192" fill="none" xmlns="http://www.w3.org/2000/svg">
<g clip-path="url(#clip0_1_764)">
<rect width="192" height="192" rx="38.4" fill="#F47B20"/>
<path d="M66 98.5C46.2849 79.7609 18.5 81.5 0 120.5V191.645H192.5C192.333 177.811 208.014 187.656 192.5 143.5C173 88 116.5 146.5 66 98.5Z" fill="#F8A556" fill-opacity="0.6"/>
<path d="M65.1714 108.272C45.4051 91.4276 25.0675 65.125 -1 85.0309V192H192C191.833 179.565 192 116.818 192 74.7478C192 16.7688 115.803 151.419 65.1714 108.272Z" fill="#FBBF78" fill-opacity="0.3"/>
<path fill-rule="evenodd" clip-rule="evenodd" d="M102.259 36.6784C121.676 36.6784 135.693 52.9605 141.141 69.22C147.352 87.7532 143.793 110.822 126.961 123.362C119.974 128.57 111.592 131.157 102.728 131.157H101.722C92.8625 131.157 84.4801 128.57 77.4935 123.362C60.6492 110.807 57.0862 87.7343 63.2975 69.2011C68.7651 52.8926 82.7822 36.6595 102.267 36.6595L102.259 36.6784ZM102.259 44.0584C88.7389 44.0584 79.092 57.1189 75.378 68.2003C68.0215 90.1477 78.7819 114.441 101.71 114.441H102.704C125.633 114.441 136.393 90.1477 129.037 68.2003C125.37 57.202 115.719 44.0471 102.259 44.0471V44.0584Z" fill="white"/>
<path fill-rule="evenodd" clip-rule="evenodd" d="M76.7459 45.3275C72.5468 40.0399 76.5789 32.3577 84.3569 34.1328C85.4265 34.2499 85.8322 33.6494 85.4584 32.6863C82.8856 23.9201 93.6499 19.7656 99.3164 26.1409C100.06 26.8774 101.066 26.8397 101.444 25.8765C101.778 12.5668 121.577 12.8614 120.344 25.8237C119.855 30.9565 113.894 34.0875 105.738 34.5105C94.0396 35.077 84.846 37.4225 76.7459 45.3275Z" fill="white"/>
<path fill-rule="evenodd" clip-rule="evenodd" d="M66.7451 62.3083L48 68.5666L60.9752 79.0777L66.7451 62.3083Z" fill="white"/>
<path fill-rule="evenodd" clip-rule="evenodd" d="M107.078 63.1053C108.741 64.0177 110.08 65.3778 110.929 67.0136C111.777 68.6493 112.095 70.4872 111.844 72.2949C111.593 74.1026 110.782 75.7988 109.516 77.1691C108.249 78.5395 106.584 79.5224 104.729 79.9935C102.875 80.4646 100.915 80.4029 99.0969 79.816C97.2793 79.2291 95.6858 78.1435 94.5178 76.6964C93.3498 75.2494 92.6597 73.5058 92.535 71.6863C92.4102 69.8668 92.8563 68.053 93.8169 66.4742C94.4547 65.4259 95.3037 64.5072 96.3154 63.7706C97.327 63.0339 98.4816 62.4937 99.713 62.1809C100.944 61.8681 102.229 61.7887 103.493 61.9473C104.756 62.1059 105.975 62.4994 107.078 63.1053ZM100.648 66.41C100.053 66.0812 99.3691 65.9274 98.682 65.9681C97.9949 66.0088 97.336 66.2421 96.7886 66.6387C96.2412 67.0352 95.8299 67.577 95.6069 68.1956C95.3838 68.8142 95.359 69.4818 95.5355 70.1138C95.712 70.7458 96.0819 71.3139 96.5985 71.7461C97.115 72.1784 97.755 72.4554 98.4373 72.542C99.1197 72.6287 99.8138 72.5212 100.432 72.233C101.05 71.9449 101.564 71.4891 101.909 70.9234C102.371 70.165 102.496 69.2637 102.258 68.4174C102.02 67.5711 101.439 66.8491 100.641 66.41H100.648Z" fill="white"/>
<path fill-rule="evenodd" clip-rule="evenodd" d="M48 68.5628L62.9396 70.2171C63.043 69.8848 63.1504 69.5524 63.2617 69.22C64.0313 66.9466 64.9477 64.7203 66.0055 62.5538L48 68.5628Z" fill="white"/>
<path fill-rule="evenodd" clip-rule="evenodd" d="M113.31 112.514L112.749 112.73L112.463 112.835C112.237 112.916 112.011 112.994 111.783 113.07L111.584 113.134C111.341 113.213 111.095 113.289 110.844 113.36L110.665 113.413C110.407 113.485 110.148 113.553 109.87 113.621L109.747 113.651C109.482 113.719 109.206 113.782 108.92 113.84L108.796 113.867C108.502 113.927 108.208 113.984 107.91 114.036H107.874C107.564 114.089 107.252 114.137 106.939 114.18H106.904C106.589 114.225 106.271 114.263 105.949 114.293H105.85C104.825 114.395 103.795 114.445 102.764 114.444H101.758C78.8296 114.444 68.0693 90.1515 75.4258 68.204L75.5848 67.7395V67.6828L75.7359 67.2523L75.8115 67.0408L75.899 66.8066L75.9626 66.6404L75.9904 66.5724L76.1694 66.1117L76.3602 65.6395V65.5942L76.4398 65.4016L76.5392 65.1637L76.5829 65.0617L76.6426 64.9257C76.7672 64.6362 76.8997 64.3478 77.0402 64.0608L77.068 64.0004V63.9777L77.0999 63.9135L77.2907 63.5018V63.4678L77.3862 63.2639L77.5015 63.0259L77.5452 62.9353V62.9051L77.7321 62.5274L77.8395 62.3159L77.9588 62.0779L78.0622 61.874V61.84L78.1854 61.6021V61.5681L78.4121 61.1451L78.5393 60.9109L78.6586 60.6956V60.6767L78.7899 60.4426V60.4199L78.9091 60.2084L79.0443 59.9742V59.944L79.1636 59.7438L79.3028 59.5097L79.5851 59.0451L79.7283 58.8147L79.8714 58.5843L80.0186 58.3539C80.7542 57.2209 81.5456 56.0878 82.4045 55.0114L82.5755 54.7961L82.7464 54.5846L82.9214 54.3731L83.0964 54.1616L83.2713 53.9539L83.6292 53.5384C67.6875 64.4385 59.333 89.3017 62.9516 103.114C64.037 107.084 65.9236 110.817 68.5067 114.104C83.331 126.032 110.51 121.881 121.632 107.336C133.375 96.9952 137.419 78.0541 131.478 60.3255C129.442 54.2523 125.911 47.6767 121.119 42.3551C115.648 38.8501 109.317 36.6898 102.275 36.6898C101.716 36.6898 101.16 36.7036 100.609 36.7313V44.1604C101.158 44.1151 101.71 44.0924 102.275 44.0924C115.735 44.0924 125.374 57.2322 129.06 68.2343C135.196 86.469 128.798 106.32 113.31 112.514Z" fill="white"/>
<path fill-rule="evenodd" clip-rule="evenodd" d="M37.0064 169.956V177.283H32V160.287C32 155.306 34.4495 151.155 39.3803 149.104C41.1639 148.367 43.0898 147.991 45.0349 148.001C46.727 147.98 48.4056 148.29 49.9661 148.912C51.5265 149.534 52.9355 150.454 54.1052 151.615C55.3153 152.748 56.2717 154.102 56.9168 155.595C57.5619 157.087 57.8824 158.689 57.859 160.302C57.8898 161.932 57.5756 163.551 56.9348 165.064C56.2941 166.576 55.34 167.951 54.1291 169.106C52.9746 170.273 51.5775 171.199 50.0263 171.826C48.4752 172.452 46.8039 172.766 45.1184 172.747C42.1402 172.789 39.2504 171.785 37.0024 169.93L37.0064 169.956ZM63.7323 148.016C64.1499 148.013 64.5641 148.088 64.9506 148.239C65.3371 148.389 65.6881 148.611 65.9829 148.892C66.287 149.17 66.5278 149.504 66.6906 149.874C66.8534 150.243 66.9346 150.641 66.9293 151.041C66.9211 151.84 66.5832 152.604 65.9884 153.169C65.3936 153.734 64.5893 154.055 63.7482 154.063C63.327 154.067 62.9094 153.99 62.5209 153.835C62.1325 153.681 61.7815 153.452 61.4895 153.164C61.0436 152.741 60.7401 152.202 60.6174 151.615C60.4947 151.027 60.5583 150.419 60.8003 149.866C61.0423 149.313 61.4517 148.841 61.9765 148.51C62.5013 148.179 63.1179 148.003 63.7482 148.005L63.7323 148.016ZM61.2271 155.702H66.2653V177.378H61.2271V155.698V155.702ZM74.8704 155.702H80.2982V160.079H74.8902V168.294C74.8544 169.571 75.0493 171.637 76.4092 172.301C77.4312 172.804 78.9621 172.985 80.0119 172.449L81.0736 171.909L81.4713 172.985C81.7655 173.74 82.0558 174.496 82.374 175.251L82.7716 176.188L81.7775 176.566C80.3477 177.125 78.8147 177.409 77.2682 177.4C74.5443 177.253 72.3373 176.158 70.9058 173.895C70.0071 172.385 69.7646 170.443 69.7924 168.736V148.012H74.8346V155.698L74.8704 155.702ZM87.1298 148.016C87.5475 148.012 87.9618 148.088 88.3483 148.238C88.7348 148.389 89.0858 148.611 89.3805 148.892C89.6766 149.174 89.9115 149.507 90.0717 149.875C90.2319 150.242 90.3144 150.636 90.3144 151.034C90.3144 151.432 90.2319 151.825 90.0717 152.193C89.9115 152.56 89.6766 152.894 89.3805 153.175C89.0844 153.457 88.7329 153.68 88.3461 153.832C87.9592 153.984 87.5446 154.062 87.1258 154.062C86.7071 154.062 86.2925 153.984 85.9056 153.832C85.5188 153.68 85.1673 153.457 84.8712 153.175C84.4253 152.752 84.1217 152.213 83.999 151.626C83.8763 151.039 83.94 150.43 84.182 149.878C84.424 149.325 84.8333 148.853 85.3581 148.521C85.883 148.19 86.4996 148.014 87.1298 148.016ZM84.6207 155.702H89.6469V177.378H84.6207V155.698V155.702ZM98.6377 162.905L107.342 155.729H114.778L104.165 164.884L113.844 177.378H107.223L99.8625 167.815L98.6377 168.774V177.374H93.5956V148.012H98.6377V162.905ZM44.7923 152.662C43.7349 152.64 42.6843 152.827 41.7073 153.212C40.7304 153.597 39.8485 154.171 39.1179 154.898C38.3508 155.636 37.7495 156.514 37.3503 157.479C36.9511 158.445 36.7624 159.477 36.7956 160.514C36.7754 161.893 37.1316 163.254 37.8295 164.464C38.5145 165.63 39.5317 166.588 40.7641 167.229C42.0024 167.907 43.4067 168.264 44.8361 168.264C46.2215 168.267 47.5818 167.913 48.7728 167.24C50.0133 166.551 51.0322 165.554 51.7193 164.355C52.4389 163.162 52.8198 161.813 52.8248 160.438C52.8259 159.07 52.4488 157.726 51.7313 156.541C51.0434 155.361 50.0356 154.378 48.8125 153.693C47.5963 153.008 46.2062 152.651 44.7923 152.662Z" fill="white"/>
<path fill-rule="evenodd" clip-rule="evenodd" d="M104.296 165.072H93.5956V148.012H98.6377V162.905L107.342 155.729H114.778L104.165 164.884L104.312 165.072H104.296ZM89.6469 165.072H84.6207V155.698H89.6469V165.072ZM74.8902 165.072H69.8441V148.012H74.8863V155.698H80.3141V160.076H74.9061V165.072H74.8902ZM66.2533 165.072H61.2271V155.698H66.2653V165.072H66.2533ZM56.9444 165.072H51.2382C51.4103 164.839 51.5696 164.597 51.7154 164.347C52.4349 163.155 52.8158 161.805 52.8208 160.431C52.8217 159.063 52.4446 157.719 51.7273 156.533C51.0394 155.353 50.0316 154.37 48.8086 153.685C47.5927 153.003 46.2042 152.65 44.7923 152.662C43.7349 152.64 42.6844 152.828 41.7075 153.213C40.7305 153.598 39.8487 154.171 39.1179 154.898C38.3508 155.636 37.7495 156.514 37.3503 157.479C36.9511 158.445 36.7624 159.477 36.7956 160.514C36.7756 161.893 37.1318 163.254 37.8295 164.464C37.9512 164.673 38.084 164.876 38.2272 165.072H32V160.299C32 155.317 34.4495 151.166 39.3803 149.115C41.1639 148.378 43.0898 148.002 45.0349 148.012C46.727 147.991 48.4056 148.301 49.9661 148.923C51.5265 149.545 52.9355 150.465 54.1052 151.627C55.3153 152.76 56.2717 154.113 56.9168 155.606C57.5619 157.099 57.8824 158.7 57.859 160.314C57.8746 161.935 57.5642 163.543 56.9444 165.054V165.072ZM63.7323 148.016C64.1499 148.013 64.5641 148.088 64.9506 148.239C65.3371 148.389 65.6881 148.611 65.9829 148.892C66.287 149.17 66.5278 149.504 66.6906 149.874C66.8534 150.243 66.9346 150.641 66.9293 151.041C66.9211 151.84 66.5832 152.604 65.9884 153.169C65.3936 153.734 64.5893 154.055 63.7482 154.063C63.327 154.067 62.9094 153.99 62.5209 153.835C62.1325 153.681 61.7815 153.452 61.4895 153.164C61.0436 152.741 60.7401 152.202 60.6174 151.615C60.4947 151.027 60.5583 150.419 60.8003 149.866C61.0423 149.313 61.4517 148.842 61.9765 148.51C62.5013 148.179 63.1179 148.003 63.7482 148.005L63.7323 148.016ZM87.1298 148.016C87.5475 148.012 87.9618 148.088 88.3483 148.238C88.7348 148.389 89.0858 148.611 89.3805 148.892C89.6766 149.174 89.9115 149.507 90.0717 149.875C90.2319 150.242 90.3144 150.636 90.3144 151.034C90.3144 151.432 90.2319 151.825 90.0717 152.193C89.9115 152.56 89.6766 152.894 89.3805 153.175C89.0844 153.457 88.7329 153.68 88.3461 153.832C87.9592 153.984 87.5446 154.062 87.1258 154.062C86.7071 154.062 86.2925 153.984 85.9056 153.832C85.5188 153.68 85.1673 153.457 84.8712 153.175C84.4253 152.752 84.1217 152.213 83.999 151.626C83.8763 151.039 83.94 150.43 84.182 149.878C84.424 149.325 84.8333 148.853 85.3581 148.521C85.883 148.19 86.4996 148.014 87.1298 148.016Z" fill="white"/>
<path d="M123.976 163.16C123.101 163.16 122.264 163.037 121.464 162.792C120.664 162.536 120.029 162.211 119.56 161.816L120.28 160.2C120.728 160.552 121.283 160.845 121.944 161.08C122.605 161.315 123.283 161.432 123.976 161.432C124.563 161.432 125.037 161.368 125.4 161.24C125.763 161.112 126.029 160.941 126.2 160.728C126.371 160.504 126.456 160.253 126.456 159.976C126.456 159.635 126.333 159.363 126.088 159.16C125.843 158.947 125.523 158.781 125.128 158.664C124.744 158.536 124.312 158.419 123.832 158.312C123.363 158.205 122.888 158.083 122.408 157.944C121.939 157.795 121.507 157.608 121.112 157.384C120.728 157.149 120.413 156.84 120.168 156.456C119.923 156.072 119.8 155.581 119.8 154.984C119.8 154.376 119.96 153.821 120.28 153.32C120.611 152.808 121.107 152.403 121.768 152.104C122.44 151.795 123.288 151.64 124.312 151.64C124.984 151.64 125.651 151.725 126.312 151.896C126.973 152.067 127.549 152.312 128.04 152.632L127.384 154.248C126.883 153.949 126.365 153.731 125.832 153.592C125.299 153.443 124.787 153.368 124.296 153.368C123.72 153.368 123.251 153.437 122.888 153.576C122.536 153.715 122.275 153.896 122.104 154.12C121.944 154.344 121.864 154.6 121.864 154.888C121.864 155.229 121.981 155.507 122.216 155.72C122.461 155.923 122.776 156.083 123.16 156.2C123.555 156.317 123.992 156.435 124.472 156.552C124.952 156.659 125.427 156.781 125.896 156.92C126.376 157.059 126.808 157.24 127.192 157.464C127.587 157.688 127.901 157.992 128.136 158.376C128.381 158.76 128.504 159.245 128.504 159.832C128.504 160.429 128.339 160.984 128.008 161.496C127.688 161.997 127.192 162.403 126.52 162.712C125.848 163.011 125 163.16 123.976 163.16ZM135.788 163V161.272L135.676 160.904V157.88C135.676 157.293 135.5 156.84 135.148 156.52C134.797 156.189 134.263 156.024 133.549 156.024C133.068 156.024 132.594 156.099 132.124 156.248C131.666 156.397 131.276 156.605 130.956 156.872L130.172 155.416C130.631 155.064 131.175 154.803 131.804 154.632C132.444 154.451 133.106 154.36 133.788 154.36C135.026 154.36 135.98 154.659 136.653 155.256C137.335 155.843 137.677 156.755 137.677 157.992V163H135.788ZM133.1 163.112C132.46 163.112 131.9 163.005 131.42 162.792C130.94 162.568 130.567 162.264 130.3 161.88C130.044 161.485 129.916 161.043 129.916 160.552C129.916 160.072 130.028 159.64 130.252 159.256C130.487 158.872 130.866 158.568 131.388 158.344C131.911 158.12 132.604 158.008 133.468 158.008H135.949V159.336H133.612C132.93 159.336 132.471 159.448 132.236 159.672C132.002 159.885 131.884 160.152 131.884 160.472C131.884 160.835 132.028 161.123 132.316 161.336C132.604 161.549 133.004 161.656 133.516 161.656C134.007 161.656 134.444 161.544 134.828 161.32C135.223 161.096 135.506 160.765 135.676 160.328L136.012 161.528C135.82 162.029 135.474 162.419 134.972 162.696C134.482 162.973 133.858 163.112 133.1 163.112ZM140.393 163V151.128H142.393V163H140.393ZM149.184 163.112C148.235 163.112 147.403 162.925 146.688 162.552C145.984 162.168 145.435 161.645 145.04 160.984C144.656 160.323 144.464 159.571 144.464 158.728C144.464 157.875 144.651 157.123 145.024 156.472C145.408 155.811 145.931 155.293 146.592 154.92C147.264 154.547 148.027 154.36 148.88 154.36C149.712 154.36 150.454 154.541 151.104 154.904C151.755 155.267 152.267 155.779 152.64 156.44C153.014 157.101 153.2 157.88 153.2 158.776C153.2 158.861 153.195 158.957 153.184 159.064C153.184 159.171 153.179 159.272 153.168 159.368H146.048V158.04H152.112L151.328 158.456C151.339 157.965 151.238 157.533 151.024 157.16C150.811 156.787 150.518 156.493 150.144 156.28C149.782 156.067 149.36 155.96 148.88 155.96C148.39 155.96 147.958 156.067 147.584 156.28C147.222 156.493 146.934 156.792 146.72 157.176C146.518 157.549 146.416 157.992 146.416 158.504V158.824C146.416 159.336 146.534 159.789 146.768 160.184C147.003 160.579 147.334 160.883 147.76 161.096C148.187 161.309 148.678 161.416 149.232 161.416C149.712 161.416 150.144 161.341 150.528 161.192C150.912 161.043 151.254 160.808 151.552 160.488L152.624 161.72C152.24 162.168 151.755 162.515 151.168 162.76C150.592 162.995 149.931 163.112 149.184 163.112ZM157.911 163.112C157.197 163.112 156.509 163.021 155.847 162.84C155.197 162.648 154.679 162.419 154.295 162.152L155.063 160.632C155.447 160.877 155.906 161.08 156.439 161.24C156.973 161.4 157.506 161.48 158.039 161.48C158.669 161.48 159.122 161.395 159.399 161.224C159.687 161.053 159.831 160.824 159.831 160.536C159.831 160.301 159.735 160.125 159.543 160.008C159.351 159.88 159.101 159.784 158.791 159.72C158.482 159.656 158.135 159.597 157.751 159.544C157.378 159.491 156.999 159.421 156.615 159.336C156.242 159.24 155.901 159.107 155.591 158.936C155.282 158.755 155.031 158.515 154.839 158.216C154.647 157.917 154.551 157.523 154.551 157.032C154.551 156.488 154.706 156.019 155.015 155.624C155.325 155.219 155.757 154.909 156.311 154.696C156.877 154.472 157.543 154.36 158.311 154.36C158.887 154.36 159.469 154.424 160.055 154.552C160.642 154.68 161.127 154.861 161.511 155.096L160.743 156.616C160.338 156.371 159.927 156.205 159.511 156.12C159.106 156.024 158.701 155.976 158.295 155.976C157.687 155.976 157.234 156.067 156.935 156.248C156.647 156.429 156.503 156.659 156.503 156.936C156.503 157.192 156.599 157.384 156.791 157.512C156.983 157.64 157.234 157.741 157.543 157.816C157.853 157.891 158.194 157.955 158.567 158.008C158.951 158.051 159.33 158.12 159.703 158.216C160.077 158.312 160.418 158.445 160.727 158.616C161.047 158.776 161.303 159.005 161.495 159.304C161.687 159.603 161.783 159.992 161.783 160.472C161.783 161.005 161.623 161.469 161.303 161.864C160.994 162.259 160.551 162.568 159.975 162.792C159.399 163.005 158.711 163.112 157.911 163.112ZM118.92 177L123.96 165.8H126.008L131.064 177H128.888L124.552 166.904H125.384L121.064 177H118.92ZM121.24 174.408L121.8 172.776H127.848L128.408 174.408H121.24ZM137.182 177.112C136.489 177.112 135.854 176.952 135.278 176.632C134.713 176.312 134.26 175.832 133.918 175.192C133.588 174.541 133.422 173.72 133.422 172.728C133.422 171.725 133.582 170.904 133.902 170.264C134.233 169.624 134.681 169.149 135.246 168.84C135.812 168.52 136.457 168.36 137.182 168.36C138.025 168.36 138.766 168.541 139.406 168.904C140.057 169.267 140.569 169.773 140.942 170.424C141.326 171.075 141.518 171.843 141.518 172.728C141.518 173.613 141.326 174.387 140.942 175.048C140.569 175.699 140.057 176.205 139.406 176.568C138.766 176.931 138.025 177.112 137.182 177.112ZM132.446 180.104V168.456H134.35V170.472L134.286 172.744L134.446 175.016V180.104H132.446ZM136.958 175.4C137.438 175.4 137.865 175.293 138.238 175.08C138.622 174.867 138.926 174.557 139.15 174.152C139.374 173.747 139.486 173.272 139.486 172.728C139.486 172.173 139.374 171.699 139.15 171.304C138.926 170.899 138.622 170.589 138.238 170.376C137.865 170.163 137.438 170.056 136.958 170.056C136.478 170.056 136.046 170.163 135.662 170.376C135.278 170.589 134.974 170.899 134.75 171.304C134.526 171.699 134.414 172.173 134.414 172.728C134.414 173.272 134.526 173.747 134.75 174.152C134.974 174.557 135.278 174.867 135.662 175.08C136.046 175.293 136.478 175.4 136.958 175.4ZM148.301 177.112C147.608 177.112 146.973 176.952 146.397 176.632C145.832 176.312 145.378 175.832 145.037 175.192C144.706 174.541 144.541 173.72 144.541 172.728C144.541 171.725 144.701 170.904 145.021 170.264C145.352 169.624 145.8 169.149 146.365 168.84C146.93 168.52 147.576 168.36 148.301 168.36C149.144 168.36 149.885 168.541 150.525 168.904C151.176 169.267 151.688 169.773 152.061 170.424C152.445 171.075 152.637 171.843 152.637 172.728C152.637 173.613 152.445 174.387 152.061 175.048C151.688 175.699 151.176 176.205 150.525 176.568C149.885 176.931 149.144 177.112 148.301 177.112ZM143.565 180.104V168.456H145.469V170.472L145.405 172.744L145.565 175.016V180.104H143.565ZM148.077 175.4C148.557 175.4 148.984 175.293 149.357 175.08C149.741 174.867 150.045 174.557 150.269 174.152C150.493 173.747 150.605 173.272 150.605 172.728C150.605 172.173 150.493 171.699 150.269 171.304C150.045 170.899 149.741 170.589 149.357 170.376C148.984 170.163 148.557 170.056 148.077 170.056C147.597 170.056 147.165 170.163 146.781 170.376C146.397 170.589 146.093 170.899 145.869 171.304C145.645 171.699 145.533 172.173 145.533 172.728C145.533 173.272 145.645 173.747 145.869 174.152C146.093 174.557 146.397 174.867 146.781 175.08C147.165 175.293 147.597 175.4 148.077 175.4Z" fill="white"/>
</g>
<defs>
<clipPath id="clip0_1_764">
<rect width="192" height="192" rx="38.4" fill="white"/>
</clipPath>
</defs>
</svg>
