<svg width="22" height="22" viewBox="0 0 22 22" fill="none" xmlns="http://www.w3.org/2000/svg">
<path d="M3.34202 0.407997L21.373 18.44C21.6544 18.7213 21.8126 19.1028 21.8126 19.5006C21.8127 19.8985 21.6548 20.2801 21.3735 20.5615C21.0923 20.8429 20.7107 21.001 20.3129 21.0011C19.915 21.0012 19.5334 20.8433 19.252 20.562L14.656 15.965L11.12 19.5L3.34202 11.722C1.87209 10.2523 1.03193 8.26813 0.999452 6.18974C0.966974 4.11135 1.74473 2.10193 3.16802 0.586997L3.34202 0.407997ZM3.58302 3.478L3.53202 3.588C3.0471 4.66005 2.88783 5.85095 3.07396 7.01276C3.2601 8.17456 3.78345 9.25609 4.57902 10.123L4.75602 10.308L11.119 16.671L13.948 13.843L3.58302 3.478Z" fill="#F47B20"/>
</svg>
