<svg width="25" height="24" viewBox="0 0 25 24" fill="none" xmlns="http://www.w3.org/2000/svg">
<g clip-path="url(#clip0_60_1291)">
<path d="M20.5 17H22.5V19H2.5V17H4.5V10C4.5 7.87827 5.34285 5.84344 6.84315 4.34315C8.34344 2.84285 10.3783 2 12.5 2C14.6217 2 16.6566 2.84285 18.1569 4.34315C19.6571 5.84344 20.5 7.87827 20.5 10V17ZM18.5 17V10C18.5 8.4087 17.8679 6.88258 16.7426 5.75736C15.6174 4.63214 14.0913 4 12.5 4C10.9087 4 9.38258 4.63214 8.25736 5.75736C7.13214 6.88258 6.5 8.4087 6.5 10V17H18.5ZM9.5 21H15.5V23H9.5V21Z" fill="#F4B420"/>
</g>
<defs>
<clipPath id="clip0_60_1291">
<rect width="24" height="24" fill="white" transform="translate(0.5)"/>
</clipPath>
</defs>
</svg>
