<svg width="40" height="41" viewBox="0 0 40 41" fill="none" xmlns="http://www.w3.org/2000/svg">
<rect y="0.5" width="40" height="40" rx="6" fill="#CACACA"/>
<g clip-path="url(#clip0_3228_39561)">
<path d="M12 14.914L8.757 11.672L10.172 10.257L13.414 13.5H28.656C28.8119 13.5 28.9656 13.5364 29.1049 13.6064C29.2442 13.6763 29.3652 13.7779 29.4582 13.9029C29.5513 14.0279 29.6139 14.173 29.6409 14.3265C29.6679 14.48 29.6587 14.6377 29.614 14.787L27.214 22.787C27.1523 22.9931 27.0257 23.1738 26.8531 23.3022C26.6805 23.4307 26.4711 23.5 26.256 23.5H14V25.5H25V27.5H13C12.7348 27.5 12.4804 27.3947 12.2929 27.2071C12.1054 27.0196 12 26.7652 12 26.5V14.914ZM14 15.5V21.5H25.512L27.312 15.5H14ZM13.5 31.5C13.1022 31.5 12.7206 31.342 12.4393 31.0607C12.158 30.7794 12 30.3978 12 30C12 29.6022 12.158 29.2207 12.4393 28.9394C12.7206 28.6581 13.1022 28.5 13.5 28.5C13.8978 28.5 14.2794 28.6581 14.5607 28.9394C14.842 29.2207 15 29.6022 15 30C15 30.3978 14.842 30.7794 14.5607 31.0607C14.2794 31.342 13.8978 31.5 13.5 31.5ZM25.5 31.5C25.1022 31.5 24.7206 31.342 24.4393 31.0607C24.158 30.7794 24 30.3978 24 30C24 29.6022 24.158 29.2207 24.4393 28.9394C24.7206 28.6581 25.1022 28.5 25.5 28.5C25.8978 28.5 26.2794 28.6581 26.5607 28.9394C26.842 29.2207 27 29.6022 27 30C27 30.3978 26.842 30.7794 26.5607 31.0607C26.2794 31.342 25.8978 31.5 25.5 31.5Z" fill="white"/>
</g>
<defs>
<clipPath id="clip0_3228_39561">
<rect width="24" height="24" fill="white" transform="translate(8 8.5)"/>
</clipPath>
</defs>
</svg>
