<svg width="107" height="132" viewBox="0 0 107 132" fill="none" xmlns="http://www.w3.org/2000/svg">
<path d="M89.5759 103.2H89.4411C88.8212 103.167 88.2398 102.889 87.8245 102.427C87.4091 101.966 87.1938 101.359 87.2258 100.739L90.5136 39.1126C90.5471 38.4908 90.8261 37.9078 91.2894 37.4918C91.7527 37.0758 92.3622 36.8609 92.984 36.8943C93.6057 36.9277 94.1887 37.2067 94.6047 37.67C95.0208 38.1333 95.2357 38.7429 95.2023 39.3646L91.9144 100.985C91.8814 101.583 91.6208 102.146 91.1859 102.558C90.751 102.97 90.175 103.2 89.5759 103.2Z" fill="#F47B20"/>
<path d="M11.9799 80.7182C10.8258 80.7374 9.67851 80.5385 8.59821 80.1321C4.31984 78.456 2.93084 75.6838 2.52058 73.6853C1.02023 66.3242 9.91688 57.3455 10.9367 56.3491C11.1545 56.1251 11.415 55.9468 11.7028 55.8249C11.9906 55.703 12.2998 55.6399 12.6123 55.6392C12.9249 55.6385 13.2344 55.7004 13.5227 55.8211C13.811 55.9418 14.0722 56.1189 14.291 56.342C14.5099 56.5652 14.6819 56.8298 14.7969 57.1204C14.912 57.4109 14.9678 57.7216 14.9611 58.0341C14.9543 58.3465 14.8852 58.6545 14.7577 58.9398C14.6302 59.2252 14.4469 59.4821 14.2187 59.6956C11.0715 62.7901 6.35939 69.0729 7.11543 72.7534C7.21506 73.234 7.51397 74.6992 10.3096 75.7952C15.3557 77.7761 25.5945 69.7058 30.8633 64.1557C31.2974 63.7344 31.8775 63.4972 32.4824 63.4936C33.0873 63.4901 33.6702 63.7206 34.1091 64.1368C34.5481 64.5531 34.8091 65.1229 34.8377 65.7271C34.8663 66.3314 34.6602 66.9233 34.2625 67.3791C32.8325 68.8384 21.2809 80.7182 11.9799 80.7182Z" fill="#F47B20"/>
<path d="M23.2152 30.6672C23.2152 30.6672 17.9405 28.1529 16.5867 32.5837C15.2328 37.0144 14.9691 50.2305 13.7266 51.7484C12.4069 53.176 10.989 54.5097 9.4834 55.7396L15.1684 67.0333L27.7807 61.3601C27.7807 61.3601 23.3852 36.7683 23.2152 30.6672Z" fill="white"/>
<path d="M15.1386 67.3205C15.0816 67.3196 15.026 67.3033 14.9775 67.2734C14.929 67.2435 14.8895 67.201 14.8631 67.1505L9.18402 55.8627C9.15238 55.8017 9.14268 55.7318 9.15656 55.6645C9.17043 55.5973 9.20704 55.5369 9.26021 55.4935C10.749 54.2716 12.153 52.9498 13.4624 51.5374C14.0485 50.8224 14.447 46.7081 14.8279 42.7463C15.2089 38.7844 15.6074 34.6525 16.2697 32.4958C16.4059 31.9515 16.6618 31.4445 17.0187 31.0116C17.3756 30.5787 17.8244 30.2308 18.3327 29.9932C20.4719 29.0555 23.203 30.339 23.3202 30.3976C23.3693 30.421 23.4111 30.4575 23.4411 30.5029C23.471 30.5483 23.488 30.6011 23.4902 30.6555C23.6836 36.6686 28.0088 61.0612 28.0499 61.3015C28.0623 61.3688 28.0518 61.4384 28.0199 61.499C27.988 61.5596 27.9366 61.6077 27.874 61.6355L15.2616 67.3205C15.221 67.3285 15.1792 67.3285 15.1386 67.3205ZM9.82871 55.8041L15.2734 66.6231L27.411 61.1608C26.9715 58.6641 23.1561 36.8738 22.8924 30.8489C22.3063 30.6027 20.1788 29.8233 18.573 30.5324C18.1462 30.7359 17.7701 31.0318 17.4721 31.3988C17.174 31.7658 16.9615 32.1946 16.8499 32.654C16.2052 34.7522 15.8126 38.8371 15.4316 42.7873C14.9393 47.9331 14.5877 51.1213 13.9312 51.9242C12.6603 53.3214 11.2892 54.624 9.82871 55.8217V55.8041Z" fill="#F47B20"/>
<path d="M51.9326 116.135C51.3681 116.141 50.8202 115.944 50.3895 115.579C49.9589 115.214 49.6744 114.706 49.5883 114.148L42.2096 65.908C42.1156 65.2933 42.2696 64.6664 42.6378 64.1652C43.006 63.664 43.5582 63.3296 44.1729 63.2355C44.7877 63.1415 45.4146 63.2955 45.9158 63.6637C46.417 64.0319 46.7514 64.5841 46.8455 65.1989L54.2769 113.439C54.3236 113.743 54.3098 114.054 54.2363 114.353C54.1629 114.652 54.0313 114.934 53.8489 115.182C53.6666 115.43 53.4372 115.64 53.1737 115.799C52.9103 115.959 52.618 116.065 52.3136 116.111C52.1874 116.129 52.06 116.137 51.9326 116.135Z" fill="#F47B20"/>
<path d="M65.8703 116.135H65.6007C65.2948 116.1 64.9987 116.005 64.7294 115.856C64.4601 115.706 64.2229 115.505 64.0313 115.264C63.8398 115.023 63.6976 114.747 63.6129 114.45C63.5282 114.154 63.5026 113.845 63.5377 113.539C65.2549 98.6581 67.8981 74.3417 67.8044 71.4172C67.6819 70.8857 67.7486 70.3282 67.993 69.8406C68.2373 69.353 68.6441 68.9658 69.1431 68.7458C69.6421 68.5258 70.2023 68.4866 70.7271 68.6351C71.2519 68.7836 71.7085 69.1104 72.0183 69.5593C72.6981 70.5381 72.9032 70.8311 70.5414 92.9379C69.4219 103.44 68.197 113.972 68.197 114.078C68.127 114.645 67.8517 115.168 67.4232 115.547C66.9946 115.926 66.4423 116.135 65.8703 116.135Z" fill="#F47B20"/>
<path d="M57.9338 132C78.6591 132 95.4603 130.003 95.4603 127.54C95.4603 125.077 78.6591 123.08 57.9338 123.08C37.2084 123.08 20.4072 125.077 20.4072 127.54C20.4072 130.003 37.2084 132 57.9338 132Z" fill="#E6E7E8"/>
<path d="M56.9672 84.7504C78.1521 84.7504 95.326 67.5766 95.326 46.3917C95.326 25.2067 78.1521 8.03288 56.9672 8.03288C35.7822 8.03288 18.6084 25.2067 18.6084 46.3917C18.6084 67.5766 35.7822 84.7504 56.9672 84.7504Z" fill="#FEEFD2"/>
<path d="M57.0084 8.02116C66.8691 8.01517 76.3544 11.8016 83.5003 18.5964C90.6462 25.3912 94.9053 34.6739 95.3957 44.5224C95.886 54.3709 92.5702 64.0308 86.1346 71.5019C79.699 78.973 70.6367 83.6829 60.8242 84.6565C51.0117 85.6301 41.2006 82.7927 33.4224 76.7319C25.6442 70.6711 20.4947 61.8512 19.0403 52.0983C17.5859 42.3455 19.9378 32.4068 25.6092 24.3403C31.2806 16.2738 39.837 10.6973 49.5066 8.76548C51.9767 8.27173 54.4894 8.02242 57.0084 8.02116ZM57.0084 7.43508C46.6718 7.4242 36.7542 11.52 29.4375 18.8213C22.1207 26.1227 18.0041 36.0316 17.9932 46.3682C17.9823 56.7048 22.0781 66.6223 29.3794 73.9391C36.6808 81.2559 46.5897 85.3725 56.9263 85.3834C62.0445 85.3888 67.1136 84.386 71.8442 82.4324C76.5748 80.4787 80.8743 77.6124 84.4972 73.9971C88.1201 70.3819 90.9954 66.0884 92.9591 61.3619C94.9227 56.6354 95.9361 51.5684 95.9415 46.4503C95.9469 41.3321 94.9441 36.263 92.9905 31.5324C91.0368 26.8018 88.1705 22.5022 84.5552 18.8794C80.94 15.2565 76.6465 12.3811 71.92 10.4175C67.1935 8.4539 62.1265 7.44047 57.0084 7.43508Z" fill="#F47B20"/>
<path d="M43.6773 46.7503C45.3268 46.4305 46.0487 42.998 45.2898 39.0837C44.5309 35.1693 42.5785 32.2554 40.929 32.5752C39.2796 32.895 38.5576 36.3274 39.3165 40.2418C40.0754 44.1561 42.0278 47.0701 43.6773 46.7503Z" fill="#F47B20"/>
<path d="M68.4468 41.9551C70.0963 41.6353 70.8182 38.2029 70.0593 34.2885C69.3004 30.3742 67.348 27.4602 65.6986 27.78C64.0491 28.0998 63.3271 31.5323 64.086 35.4466C64.8449 39.361 66.7973 42.2749 68.4468 41.9551Z" fill="#F47B20"/>
<path d="M40.7209 75.1857C40.5174 75.1854 40.3203 75.1146 40.1631 74.9853C40.006 74.856 39.8987 74.6762 39.8593 74.4765C38.9626 69.9579 40.4454 65.2751 43.9619 61.278C47.4783 57.281 52.5772 54.5557 58.3794 53.4129C70.4115 51.0217 81.6877 56.5894 83.5221 65.8202C83.5672 66.0533 83.5178 66.2948 83.3848 66.4916C83.2518 66.6883 83.0461 66.8241 82.8129 66.8692C82.5798 66.9143 82.3383 66.8649 82.1415 66.7319C81.9448 66.5989 81.8089 66.3932 81.7639 66.1601C80.1228 57.8847 69.7727 52.9382 58.69 55.136C53.2805 56.2085 48.5157 58.8048 45.2805 62.4443C42.0454 66.0839 40.7853 70.1688 41.5707 74.1366C41.6155 74.3651 41.5678 74.602 41.4382 74.7953C41.3085 74.9887 41.1075 75.1228 40.8791 75.1681L40.7209 75.1857Z" fill="#F47B20"/>
<path d="M16.1796 66.6819L10.3697 54.9421C9.83705 53.8658 8.53278 53.4251 7.4565 53.9577L6.88395 54.241C5.80768 54.7737 5.36697 56.0779 5.8996 57.1542L11.7095 68.8941C12.2421 69.9704 13.5464 70.4111 14.6226 69.8785L15.1952 69.5951C16.2715 69.0625 16.7122 67.7582 16.1796 66.6819Z" fill="white"/>
<path d="M13.6675 70.4091C13.2043 70.4091 12.7503 70.2796 12.3568 70.0352C11.9632 69.7908 11.6458 69.4412 11.4404 69.026L5.63242 57.3044C5.48767 57.0128 5.40181 56.6954 5.37973 56.3705C5.35765 56.0457 5.39979 55.7196 5.50374 55.411C5.60769 55.1024 5.77142 54.8174 5.98557 54.5721C6.19971 54.3268 6.4601 54.126 6.75183 53.9814L7.33791 53.7001C7.62832 53.5549 7.94465 53.4687 8.26858 53.4466C8.59251 53.4245 8.91761 53.4668 9.22507 53.5711C9.84816 53.7816 10.3624 54.2305 10.6551 54.8195L16.4631 66.541C16.6079 66.8327 16.6937 67.1501 16.7158 67.4749C16.7379 67.7998 16.6958 68.1259 16.5918 68.4344C16.4879 68.743 16.3241 69.0281 16.11 69.2734C15.8958 69.5187 15.6355 69.7194 15.3437 69.8641L14.7576 70.1454C14.4186 70.3139 14.0461 70.404 13.6675 70.4091ZM11.9855 68.7623C12.207 69.206 12.5953 69.544 13.0655 69.7022C13.5356 69.8603 14.0492 69.8258 14.4939 69.6062L15.08 69.3249C15.5248 69.1044 15.864 68.7165 16.0233 68.2463C16.1826 67.7761 16.149 67.2619 15.9298 66.8165L10.1218 55.0949C9.89846 54.6501 9.50894 54.3111 9.03753 54.1513C8.80433 54.0731 8.55798 54.0416 8.31258 54.0587C8.06719 54.0758 7.82759 54.1411 7.6075 54.251L7.02142 54.5323C6.8006 54.6408 6.60344 54.792 6.44133 54.977C6.27922 55.1621 6.15536 55.3775 6.0769 55.6107C5.99844 55.8439 5.96693 56.0903 5.98419 56.3358C6.00145 56.5812 6.06714 56.8208 6.17747 57.0407L11.9855 68.7623Z" fill="#F47B20"/>
<path d="M31.6402 52.5153C34.1675 52.0139 35.9579 50.3052 35.6392 48.6987C35.3205 47.0921 33.0134 46.1962 30.4862 46.6975C27.9589 47.1988 26.1685 48.9076 26.4872 50.5141C26.8059 52.1207 29.113 53.0166 31.6402 52.5153Z" fill="white"/>
<path d="M83.8902 42.3843C86.4175 41.883 88.2079 40.1742 87.8892 38.5677C87.5705 36.9611 85.2634 36.0652 82.7362 36.5665C80.2089 37.0679 78.4185 38.7766 78.7372 40.3831C79.0559 41.9897 81.363 42.8856 83.8902 42.3843Z" fill="white"/>
<path d="M35.1182 36.4987C35.1182 36.4987 43.124 32.9822 44.1262 27.6255L35.1182 36.4987Z" fill="#FEEFD2"/>
<path d="M35.118 37.3778C34.9057 37.3933 34.695 37.3313 34.525 37.2032C34.355 37.0751 34.2372 36.8897 34.1935 36.6814C34.1498 36.473 34.1832 36.2559 34.2875 36.0704C34.3918 35.8848 34.5599 35.7433 34.7605 35.6723C34.8367 35.6371 42.3795 32.2555 43.2586 27.4379C43.2802 27.3225 43.3243 27.2124 43.3884 27.114C43.4524 27.0156 43.5353 26.9307 43.6322 26.8644C43.729 26.798 43.838 26.7513 43.9529 26.727C44.0679 26.7028 44.1864 26.7014 44.3019 26.7229C44.4173 26.7445 44.5274 26.7885 44.6258 26.8526C44.7242 26.9167 44.809 26.9996 44.8754 27.0964C44.9418 27.1933 44.9885 27.3023 45.0128 27.4172C45.037 27.5321 45.0384 27.6507 45.0169 27.7661C43.9444 33.4862 35.8448 37.1434 35.499 37.2782C35.3819 37.3416 35.2512 37.3758 35.118 37.3778Z" fill="#F47B20"/>
<path d="M72.9911 29.2255C72.9911 29.2255 64.2351 29.0145 61.2695 24.4606L72.9911 29.2255Z" fill="#FEEFD2"/>
<path d="M72.991 30.0987C72.6159 30.0987 63.7427 29.8174 60.5662 24.9354C60.4884 24.841 60.4311 24.7315 60.398 24.6138C60.3649 24.496 60.3568 24.3727 60.3741 24.2516C60.3914 24.1306 60.4337 24.0144 60.4984 23.9107C60.5632 23.8069 60.6488 23.7178 60.7499 23.649C60.8511 23.5803 60.9654 23.5333 61.0857 23.5113C61.206 23.4892 61.3295 23.4925 61.4485 23.5209C61.5674 23.5492 61.6791 23.6022 61.7765 23.6762C61.8738 23.7502 61.9547 23.8437 62.0138 23.9507C64.6863 28.0533 72.9266 28.3112 73.0145 28.317C73.2476 28.317 73.4712 28.4096 73.6361 28.5745C73.801 28.7394 73.8936 28.963 73.8936 29.1961C73.8936 29.4293 73.801 29.6529 73.6361 29.8178C73.4712 29.9826 73.2476 30.0753 73.0145 30.0753L72.991 30.0987Z" fill="#F47B20"/>
<path d="M15.6777 53.0085C15.6777 53.0085 15.4667 42.9104 17.8169 39.2298C20.1671 35.5492 25.2777 34.1837 24.1759 38.1456C23.074 42.1075 20.0733 46.8488 20.0733 46.8488C20.0733 46.8488 22.2828 55.3176 19.5341 60.3755" fill="white"/>
<path d="M19.5286 60.6802C19.4777 60.6805 19.4274 60.6684 19.3821 60.6451C19.3117 60.6066 19.2594 60.542 19.2363 60.4652C19.2133 60.3884 19.2214 60.3056 19.259 60.2348C21.9198 55.3411 19.7982 47.007 19.7748 46.925C19.7642 46.8846 19.7618 46.8426 19.7679 46.8013C19.7739 46.76 19.7882 46.7203 19.8099 46.6847C19.8451 46.6378 22.8106 41.9316 23.8832 38.0635C24.0824 37.3602 24.1703 36.4576 23.5022 36.1587C22.3301 35.6371 19.5872 37.0261 18.0751 39.3939C15.8011 42.9514 15.977 52.903 15.977 53.0026C15.9777 53.0419 15.9708 53.0809 15.9565 53.1175C15.9422 53.154 15.9208 53.1874 15.8936 53.2157C15.8664 53.244 15.8339 53.2667 15.7979 53.2824C15.7619 53.2981 15.7232 53.3066 15.6839 53.3074C15.6051 53.3074 15.5293 53.2769 15.4725 53.2223C15.4157 53.1677 15.3822 53.0931 15.3792 53.0143C15.3792 52.5982 15.1975 42.7814 17.5711 39.0716C19.1594 36.5807 22.166 34.8987 23.7542 35.6078C24.2348 35.8188 24.9674 36.4459 24.4751 38.2217C23.4553 41.8964 20.8649 46.1455 20.3726 46.8957C20.6539 48.021 22.4004 55.6868 19.7865 60.522C19.7615 60.5689 19.7244 60.6083 19.679 60.6362C19.6337 60.664 19.5818 60.6792 19.5286 60.6802Z" fill="#F47B20"/>
<path d="M95.4605 91.0215C95.4605 91.0215 93.8605 100.041 93.7023 102.849C93.544 105.656 89.3653 116.616 83.9616 117.278C78.558 117.94 86.6752 111.868 86.5521 107.901C86.429 103.933 83.358 107.443 82.2034 111.564C81.0488 115.684 78.8511 111.37 79.8591 107.572C80.8672 103.775 81.4005 103.722 81.7287 100.586C82.0569 97.4508 81.5118 87.3878 81.5118 87.3878L95.4605 91.0215Z" fill="white"/>
<path d="M83.2469 117.624C82.5554 117.624 82.1275 117.459 81.9224 117.12C81.4653 116.346 82.3503 115.103 83.5752 113.374C84.8001 111.646 86.2946 109.542 86.2477 107.918C86.2125 106.892 85.9781 106.5 85.7671 106.476C85.0638 106.394 83.3466 108.575 82.4851 111.651C81.9869 113.41 81.3129 113.65 80.8206 113.521C79.6484 113.21 78.8338 110.233 79.5429 107.502C79.9473 105.961 80.2814 105.017 80.551 104.261C81.0128 103.076 81.301 101.83 81.4067 100.563C81.729 97.4859 81.1898 87.5109 81.184 87.4054C81.1809 87.3584 81.1895 87.3113 81.2089 87.2684C81.2283 87.2255 81.258 87.188 81.2953 87.1592C81.3322 87.1285 81.376 87.1072 81.423 87.097C81.4699 87.0868 81.5186 87.088 81.5649 87.1006L95.537 90.7285C95.6106 90.7479 95.6743 90.7941 95.7155 90.8581C95.7567 90.9221 95.7725 90.9992 95.7597 91.0742C95.7597 91.1621 94.1597 100.112 94.0015 102.866C93.8432 105.621 89.6352 116.885 83.9971 117.577C83.7483 117.608 83.4977 117.624 83.2469 117.624ZM85.7319 105.873H85.8374C86.4704 105.949 86.8103 106.629 86.8513 107.895C86.9041 109.717 85.3979 111.845 84.0675 113.72C83.1825 114.963 82.1862 116.369 82.444 116.803C82.5026 116.897 82.7605 117.108 83.9209 116.967C89.1546 116.328 93.2454 105.357 93.3978 102.825C93.5502 100.293 94.8396 92.7973 95.115 91.2383L81.8111 87.7805C81.9107 89.7321 82.3034 97.82 82.0103 100.621C81.8958 101.937 81.5959 103.229 81.1195 104.46C80.8558 105.205 80.5334 106.131 80.129 107.649C79.4668 110.186 80.2931 112.747 80.9788 112.923C81.2015 112.982 81.5649 112.636 81.9048 111.476C82.6667 108.78 84.3957 105.873 85.7319 105.873Z" fill="#F47B20"/>
<path d="M81.3275 89.44L96.4256 93.5308C97.6721 93.8685 98.9564 93.1318 99.2942 91.8852L99.3754 91.5854C99.7131 90.3389 98.9764 89.0546 97.7299 88.7168L82.6318 84.6261C81.3853 84.2883 80.1009 85.0251 79.7632 86.2716L79.682 86.5714C79.3442 87.818 80.081 89.1023 81.3275 89.44Z" fill="white"/>
<path d="M97.0608 93.9226C96.8273 93.9206 96.5949 93.8891 96.3693 93.8288L81.2602 89.7262C80.5843 89.5424 80.009 89.0979 79.6606 88.4902C79.3123 87.8825 79.2194 87.1614 79.4023 86.4852L79.4844 86.1863C79.6659 85.5135 80.1058 84.9395 80.7084 84.5894C81.311 84.2392 82.0275 84.1413 82.7019 84.3167L97.8051 88.4193C98.1396 88.5097 98.453 88.665 98.7274 88.8765C99.0018 89.088 99.2318 89.3515 99.4043 89.652C99.5769 89.9524 99.6885 90.2839 99.7329 90.6275C99.7773 90.9711 99.7535 91.32 99.663 91.6544L99.581 91.9592C99.4285 92.5178 99.0973 93.011 98.6379 93.3635C98.1786 93.7159 97.6164 93.9082 97.0374 93.9108L97.0608 93.9226ZM82.0338 84.8501C81.5867 84.8512 81.1524 84.9993 80.7976 85.2714C80.4429 85.5436 80.1874 85.9247 80.0704 86.3563L79.9884 86.6552C79.9182 86.913 79.8996 87.1822 79.9335 87.4472C79.9674 87.7122 80.0532 87.968 80.186 88.1999C80.3188 88.4317 80.496 88.6352 80.7075 88.7985C80.919 88.9619 81.1605 89.0819 81.4184 89.1519L96.5216 93.2544C96.7795 93.3246 97.0486 93.3432 97.3137 93.3093C97.5787 93.2754 97.8345 93.1896 98.0663 93.0568C98.2982 92.924 98.5016 92.7468 98.665 92.5353C98.8283 92.3239 98.9484 92.0823 99.0183 91.8244L99.1004 91.5196C99.1728 91.2591 99.1925 90.9867 99.1584 90.7184C99.1242 90.4502 99.037 90.1914 98.9016 89.9573C98.7663 89.7232 98.5856 89.5184 98.3702 89.3549C98.1547 89.1915 97.9088 89.0726 97.6469 89.0054L82.5437 84.9028C82.3689 84.8627 82.1897 84.845 82.0104 84.8501H82.0338Z" fill="#F47B20"/>
<path d="M57.9343 106.125C57.9343 106.125 41.3952 102.895 41.2604 104.507C41.1256 106.119 41.7996 119.317 41.7996 119.317C41.7996 119.317 25.9755 127.821 28.4135 128.9C30.8516 129.978 57.9343 124.973 57.9343 124.973V106.125Z" fill="white"/>
<path d="M29.7856 129.345C29.2814 129.376 28.7755 129.319 28.2911 129.175C28.1694 129.131 28.0635 129.051 27.9864 128.947C27.9093 128.843 27.8644 128.718 27.8574 128.589C27.8574 128.214 27.8105 127.235 34.7966 122.98C37.7563 121.181 40.757 119.54 41.4896 119.141C41.4017 117.454 40.8332 106.013 40.9621 104.49C40.9706 104.409 40.9958 104.33 41.0362 104.26C41.0765 104.189 41.1311 104.128 41.1966 104.079C42.7262 102.907 55.4617 105.339 57.9935 105.838C58.0634 105.85 58.1265 105.887 58.1716 105.942C58.2167 105.996 58.2408 106.065 58.2397 106.136V124.985C58.2396 125.055 58.2151 125.124 58.1702 125.178C58.1253 125.233 58.0628 125.27 57.9935 125.284C55.5086 125.729 35.7402 129.345 29.7856 129.345ZM42.9255 104.343C42.1636 104.343 41.683 104.413 41.5541 104.566C41.431 106.113 42.0991 119.171 42.105 119.306C42.1063 119.362 42.0923 119.418 42.0644 119.468C42.0366 119.517 41.9959 119.559 41.9467 119.587C35.2889 123.168 28.4259 127.505 28.467 128.566C28.467 128.566 28.467 128.601 28.5373 128.624C30.4362 129.468 49.9408 126.133 57.636 124.721V106.377C51.787 105.24 45.6214 104.343 42.9255 104.343Z" fill="#F47B20"/>
<path d="M59.751 106.125C59.751 106.125 76.2901 102.895 76.4249 104.507C76.5597 106.119 75.8857 119.317 75.8857 119.317C75.8857 119.317 91.7098 127.821 89.2717 128.9C86.8336 129.978 59.751 124.973 59.751 124.973V106.125Z" fill="white"/>
<path d="M87.9003 129.345C81.9517 129.345 62.1774 125.729 59.6924 125.272C59.6231 125.258 59.5607 125.221 59.5158 125.167C59.4709 125.112 59.4463 125.044 59.4463 124.973V106.125C59.4463 106.054 59.4709 105.986 59.5158 105.931C59.5607 105.877 59.6231 105.839 59.6924 105.826C62.2302 105.333 74.9304 102.895 76.4894 104.068C76.5565 104.114 76.6123 104.175 76.6529 104.246C76.6934 104.317 76.7177 104.396 76.7239 104.478C76.8528 106.007 76.2843 117.448 76.1964 119.13C78.8572 120.566 89.8989 126.649 89.8285 128.577C89.8215 128.707 89.7767 128.831 89.6996 128.935C89.6225 129.04 89.5166 129.119 89.3949 129.163C88.9111 129.311 88.4053 129.372 87.9003 129.345ZM60.0499 124.721C67.7451 126.133 87.2498 129.462 89.1487 128.624C89.1956 128.624 89.2249 128.583 89.2249 128.566C89.2659 127.505 82.4029 123.168 75.7451 119.587C75.695 119.56 75.6537 119.519 75.6257 119.469C75.5977 119.419 75.5843 119.363 75.5869 119.306C75.5869 119.171 76.255 106.113 76.1261 104.536C75.54 103.857 67.54 104.923 60.0499 106.377V124.721Z" fill="#F47B20"/>
<path d="M16.4815 4.27614C15.5144 2.61754 13.2756 2.03733 11.4119 2.51791C9.54817 2.99849 8.00679 4.27614 6.66467 5.64756C6.22685 6.01419 5.93049 6.52194 5.82658 7.08346C5.79142 7.66953 6.3306 8.25561 6.86393 8.06807C4.29105 7.61093 2.17531 10.09 1.04419 12.4402C0.458108 13.6124 0.00683093 14.9603 0.534301 16.1266C1.06177 17.2929 2.4918 17.8849 3.80461 18.0255C6.30451 18.2913 8.80886 17.5653 10.7789 16.0036C11.5625 16.7662 12.5271 17.3171 13.5821 17.6043C14.6372 17.8915 15.7479 17.9057 16.8099 17.6455C17.8719 17.3852 18.8503 16.8592 19.653 16.1167C20.4558 15.3743 21.0565 14.4399 21.3987 13.4014C20.9063 13.712 21.68 14.3391 22.2543 14.3684C23.6551 14.4504 25.1027 14.5266 26.4096 14.0109C29.3752 12.8387 29.7268 5.70031 27.7459 3.37358C25.6477 0.894476 17.8412 1.02341 16.4815 4.27614Z" fill="white"/>
<path d="M4.84737 18.3713C4.48709 18.3722 4.12704 18.3527 3.76898 18.3127C2.04005 18.1193 0.762405 17.3632 0.252518 16.238C-0.33356 14.9134 0.211494 13.4365 0.762407 12.2995C1.31332 11.1626 3.00708 8.12081 5.67374 7.734C5.56075 7.52383 5.50801 7.28653 5.52135 7.04829C5.62602 6.41521 5.95211 5.83987 6.4415 5.42485C7.61365 4.19995 9.26639 2.72304 11.3294 2.20729C13.0407 1.78531 15.2502 2.20729 16.4458 3.69006C17.155 2.5941 18.6554 1.80289 20.6539 1.49227C23.2385 1.08788 26.5791 1.52744 27.9681 3.15673C29.2165 4.62193 29.6502 7.96257 28.9527 10.7757C28.4956 12.5926 27.6341 13.8409 26.5147 14.2922C25.1257 14.8373 23.5843 14.7493 22.2304 14.6732C21.9086 14.644 21.6017 14.5241 21.3454 14.3274C20.8946 15.2746 20.2284 16.1031 19.4 16.7468C18.5717 17.3904 17.6042 17.8312 16.575 18.034C15.5457 18.2367 14.4833 18.1958 13.4727 17.9145C12.4622 17.6332 11.5314 17.1192 10.755 16.4138C9.04963 17.6886 6.97657 18.3755 4.84737 18.3713ZM6.25981 8.30249C4.14993 8.30249 2.34481 10.4358 1.31332 12.5633C0.821012 13.5831 0.316985 14.9076 0.80929 15.9918C1.39537 17.2988 3.1536 17.6328 3.83931 17.709C6.26102 17.9742 8.68904 17.2681 10.5909 15.7457C10.6463 15.6978 10.717 15.6715 10.7902 15.6715C10.8634 15.6715 10.9341 15.6978 10.9895 15.7457C11.7051 16.4532 12.5843 16.9732 13.5491 17.2593C14.5138 17.5455 15.5344 17.5891 16.52 17.3861C17.5057 17.1832 18.426 16.7401 19.1993 16.0961C19.9726 15.4521 20.5749 14.6271 20.9528 13.6944C20.9377 13.5786 20.9575 13.461 21.0097 13.3566C21.062 13.2522 21.1442 13.1657 21.2458 13.1083C21.296 13.0717 21.3565 13.0519 21.4187 13.0519C21.4809 13.0519 21.5414 13.0717 21.5916 13.1083C21.6406 13.1456 21.6766 13.1974 21.6945 13.2563C21.7123 13.3152 21.7112 13.3783 21.6912 13.4365C21.6912 13.5186 21.6385 13.6006 21.6092 13.6827C21.7874 13.8659 22.0234 13.9818 22.2773 14.0109C23.5725 14.0871 25.0377 14.1691 26.3037 13.671C27.2355 13.3017 27.974 12.2058 28.3784 10.5823C29.0231 7.99773 28.6363 4.82119 27.5168 3.51424C26.3974 2.20729 23.5315 1.67982 20.7535 2.09007C18.6905 2.41241 17.237 3.26223 16.7623 4.38749C16.741 4.44077 16.7048 4.48679 16.658 4.52005C16.6113 4.5533 16.5559 4.57239 16.4986 4.57504C16.4428 4.57879 16.387 4.56711 16.3374 4.54126C16.2877 4.51542 16.2462 4.47641 16.2173 4.42852C15.2795 2.81681 13.1228 2.38897 11.4818 2.79922C9.56529 3.27395 8.01804 4.68053 6.88105 5.84683C6.49857 6.165 6.23432 6.60266 6.13088 7.08931C6.13019 7.20255 6.15576 7.31441 6.20559 7.4161C6.25542 7.51779 6.32814 7.60654 6.41805 7.67539C6.57629 7.67539 6.7404 7.67539 6.91036 7.734C6.97541 7.74543 7.03484 7.77808 7.07937 7.82685C7.12391 7.87562 7.15103 7.93778 7.15651 8.00359C7.16184 8.07004 7.14523 8.13639 7.10924 8.19249C7.07325 8.2486 7.01986 8.29135 6.95725 8.31421C6.72743 8.39621 6.47445 8.38356 6.25395 8.27905L6.25981 8.30249Z" fill="#D1D3D4"/>
<path d="M21.2867 13.712C20.9551 13.7065 20.6242 13.6791 20.2962 13.6299C19.0948 13.4541 17.571 12.9677 17.1373 11.6256C17.1131 11.5494 17.1199 11.4668 17.1561 11.3955C17.1922 11.3243 17.255 11.2701 17.3307 11.2446C17.4069 11.2205 17.4895 11.2272 17.5607 11.2634C17.632 11.2996 17.6862 11.3623 17.7116 11.438C18.0633 12.5398 19.5402 12.9091 20.3842 13.0321C21.0128 13.1583 21.6629 13.1281 22.2772 12.9442C22.7706 12.7254 23.2017 12.387 23.5314 11.9596C24.042 11.3452 24.439 10.6446 24.7035 9.89077C24.73 9.81305 24.7862 9.74902 24.8598 9.71275C24.9335 9.67647 25.0185 9.67094 25.0962 9.69737C25.1739 9.72379 25.238 9.78001 25.2742 9.85365C25.3105 9.92729 25.316 10.0123 25.2896 10.09C25.0034 10.9144 24.5684 11.6791 24.0061 12.3464C23.6135 12.858 23.0972 13.2614 22.5058 13.5186C22.1151 13.6589 21.7016 13.7245 21.2867 13.712Z" fill="#D1D3D4"/>
<path d="M84.5891 3.43806C83.6173 3.22157 82.5997 3.36962 81.7298 3.85409C80.86 4.33856 80.1984 5.1257 79.8707 6.06594C79.5431 7.00619 79.5722 8.03403 79.9527 8.95419C80.3331 9.87434 81.0383 10.6227 81.9342 11.0571C82.3999 11.2001 82.8394 11.4179 83.2353 11.7018C83.4953 11.9855 83.716 12.3029 83.8917 12.6453C85.1225 14.6146 87.7481 15.3999 90.0221 14.9369C92.2961 14.4739 94.2418 12.9618 95.7539 11.1977C95.5629 11.3744 95.449 11.6191 95.437 11.879C95.4249 12.1389 95.5156 12.3931 95.6895 12.5867C96.0603 12.9662 96.5393 13.222 97.0609 13.3193C98.6609 13.7472 100.437 13.9054 101.914 13.1494C102.647 12.8025 103.238 12.2127 103.586 11.4799C103.934 10.7472 104.018 9.91656 103.824 9.12887C104.117 10.1311 105.383 9.71495 105.817 9.26367C106.403 8.67759 106.344 6.98383 106.245 6.25123C105.952 3.98897 103.836 1.62122 101.363 1.81463C100.871 1.91442 100.368 1.94206 99.8682 1.89668C99.0535 1.72085 98.5378 0.92379 97.7935 0.542839C97.3462 0.348345 96.857 0.270001 96.3714 0.315083C95.8857 0.360165 95.4193 0.52721 95.0155 0.800712C94.2058 1.34777 93.5077 2.04391 92.9583 2.85198C92.6184 2.01975 91.5459 1.82049 90.6492 1.83221C88.3049 1.86151 86.9745 2.3421 85.3745 3.86004C85.1314 3.687 84.8676 3.54523 84.5891 3.43806Z" fill="white"/>
<path d="M88.7091 15.3882C87.7156 15.417 86.7307 15.1966 85.8442 14.7472C84.9577 14.2978 84.1977 13.6337 83.6337 12.8153C83.581 12.7391 83.5341 12.657 83.4872 12.575C83.3677 12.3063 83.1875 12.0691 82.9607 11.8819C82.7339 11.6948 82.4667 11.5629 82.1802 11.4966L81.8227 11.3501C80.8282 10.9031 80.0373 10.0997 79.6058 9.09828C79.1744 8.0969 79.1338 6.97022 79.4921 5.94039C79.8503 4.91055 80.5814 4.05231 81.5411 3.53486C82.5009 3.01741 83.6197 2.87832 84.6769 3.14501C84.9119 3.22232 85.1319 3.33927 85.3275 3.49079C86.8923 2.07248 88.2578 1.58018 90.6432 1.55088C91.745 1.55088 92.5362 1.80875 92.9875 2.33622C93.4908 1.62888 94.1207 1.02083 94.8454 0.542823C95.2938 0.241892 95.8111 0.0593532 96.3491 0.0122139C96.8871 -0.0349253 97.4283 0.0548666 97.9223 0.273226C98.2455 0.452045 98.5465 0.668443 98.819 0.917913C99.06 1.21487 99.3826 1.43474 99.7472 1.55035C100.112 1.66596 100.502 1.67226 100.87 1.56846L101.327 1.51571C104.006 1.29886 106.227 3.819 106.543 6.20433C106.543 6.30397 106.854 8.64828 106.022 9.46878C105.795 9.68233 105.522 9.84094 105.225 9.9324C104.927 10.0239 104.612 10.0457 104.305 9.99625H104.24C104.219 10.7117 104.002 11.4076 103.612 12.0081C103.222 12.6085 102.675 13.0905 102.031 13.4014C100.689 14.0695 98.9831 14.134 96.967 13.5948C96.3973 13.4943 95.8718 13.2223 95.4607 12.8153C95.3356 12.6598 95.2438 12.4803 95.1911 12.2878C93.8179 13.763 92.0403 14.8006 90.0806 15.2709C89.6286 15.3563 89.1691 15.3956 88.7091 15.3882ZM83.6689 3.61387C82.8786 3.61956 82.1081 3.86146 81.4565 4.30845C80.8048 4.75544 80.3016 5.38712 80.0117 6.12228C79.7358 7.01859 79.7897 7.98405 80.1638 8.84403C80.5379 9.70401 81.2075 10.4017 82.0513 10.8109L82.3971 10.9457C82.7478 11.0373 83.0741 11.205 83.3526 11.437C83.6312 11.669 83.8552 11.9594 84.0088 12.2878L84.1436 12.5105C85.2396 14.2688 87.6601 15.1479 89.9633 14.6732C92.0593 14.1435 93.9305 12.9563 95.3025 11.2856C95.3741 11.1605 95.4721 11.0525 95.5897 10.9691C95.6504 10.9297 95.7231 10.9132 95.7948 10.9225C95.8665 10.9318 95.9327 10.9663 95.9813 11.0199C96.0299 11.0735 96.0579 11.1426 96.0602 11.2149C96.0626 11.2872 96.0391 11.358 95.9941 11.4146L95.8007 11.6314C95.7802 11.6822 95.7664 11.7354 95.7596 11.7896C95.7336 12.0118 95.7968 12.2353 95.9355 12.4109C96.2706 12.7187 96.688 12.9224 97.1369 12.997C99.0065 13.501 100.571 13.4482 101.773 12.8505C102.445 12.5379 102.987 12.0018 103.308 11.3338C103.629 10.6658 103.707 9.90718 103.531 9.18747C103.508 9.10975 103.518 9.02626 103.557 8.95537C103.596 8.88447 103.661 8.83198 103.739 8.80945C103.817 8.78691 103.9 8.79617 103.971 8.83518C104.042 8.8742 104.095 8.93979 104.117 9.0175C104.135 9.10612 104.177 9.18793 104.239 9.25333C104.301 9.31874 104.381 9.36501 104.469 9.38673C104.675 9.40979 104.883 9.3888 105.08 9.32514C105.277 9.26148 105.458 9.15661 105.612 9.0175C106.039 8.58967 106.069 7.14792 105.952 6.26294C105.676 4.14134 103.666 1.90838 101.392 2.09007L100.964 2.13695C100.512 2.25301 100.036 2.24102 99.5897 2.10235C99.1436 1.96367 98.7449 1.70375 98.438 1.35161C98.2036 1.12711 97.944 0.930442 97.6644 0.765531C97.2612 0.597565 96.8227 0.532136 96.388 0.575091C95.9533 0.618047 95.5361 0.768048 95.1736 1.01169C94.4044 1.54838 93.7425 2.22423 93.2219 3.00435C93.1892 3.04632 93.146 3.07898 93.0967 3.09908C93.0474 3.11917 92.9937 3.12601 92.9409 3.11889C92.8882 3.11178 92.8382 3.09097 92.796 3.05853C92.7538 3.02609 92.7208 2.98317 92.7003 2.93402C92.3956 2.19556 91.2937 2.09593 90.6783 2.10765C88.3633 2.10765 87.1267 2.60582 85.5971 4.04757C85.5486 4.09196 85.4873 4.11984 85.422 4.12722C85.3568 4.13459 85.2908 4.12106 85.2337 4.08859L84.9934 3.93035C84.8548 3.82201 84.7007 3.73508 84.5363 3.67248C84.2508 3.61628 83.9593 3.59658 83.6689 3.61387Z" fill="#D1D3D4"/>
<path d="M96.3637 11.6783C96.1677 11.6754 95.9721 11.6617 95.7776 11.6373C94.828 11.4942 93.9397 11.0802 93.2193 10.4451C92.499 9.80997 91.977 8.98058 91.7161 8.05633C91.7055 8.01823 91.7025 7.9784 91.7074 7.93914C91.7122 7.89988 91.7248 7.86199 91.7445 7.82764C91.7641 7.7933 91.7903 7.76319 91.8217 7.73906C91.853 7.71494 91.8889 7.69727 91.9271 7.6871C92.0048 7.66743 92.0871 7.67916 92.1562 7.71975C92.2253 7.76034 92.2756 7.82651 92.2963 7.90395C92.5137 8.72065 92.9682 9.45466 93.6023 10.0134C94.2364 10.5721 95.0218 10.9305 95.8594 11.0433C96.697 11.1562 97.5492 11.0184 98.3086 10.6475C99.068 10.2765 99.7005 9.68892 100.126 8.95888C100.146 8.92417 100.173 8.89381 100.205 8.86961C100.237 8.84542 100.273 8.82788 100.312 8.81804C100.351 8.8082 100.391 8.80626 100.431 8.81233C100.47 8.81841 100.508 8.83237 100.542 8.85339C100.61 8.89475 100.658 8.96065 100.678 9.03719C100.698 9.11374 100.687 9.19493 100.648 9.26365C100.2 9.99927 99.5713 10.6076 98.8211 11.0304C98.071 11.4532 97.2248 11.6763 96.3637 11.6783Z" fill="#D1D3D4"/>
<path d="M84.0674 6.67905C83.9935 6.25741 84.0366 5.82361 84.1918 5.42469C84.347 5.02577 84.6084 4.67695 84.9478 4.41608C85.2872 4.15521 85.6915 3.99224 86.1169 3.94484C86.5424 3.89744 86.9726 3.96742 87.3611 4.1472" fill="white"/>
<path d="M84.0668 6.95452C83.9959 6.95563 83.9269 6.93148 83.8721 6.88639C83.8174 6.84129 83.7804 6.77819 83.7679 6.70837C83.6826 6.23156 83.7299 5.74047 83.9047 5.28873C84.0795 4.83699 84.3751 4.44197 84.7591 4.14682C85.1432 3.85166 85.601 3.66771 86.0825 3.61507C86.564 3.56243 87.0507 3.64311 87.4895 3.84831C87.5574 3.88556 87.6086 3.94727 87.6327 4.0209C87.6567 4.09454 87.6518 4.17457 87.619 4.24472C87.5862 4.31488 87.5278 4.3699 87.4559 4.3986C87.3839 4.4273 87.3037 4.42752 87.2316 4.39922C86.8937 4.24042 86.5185 4.17772 86.1473 4.21801C85.7761 4.25831 85.4231 4.40003 85.1271 4.62764C84.8311 4.85525 84.6034 5.15996 84.4691 5.50838C84.3348 5.8568 84.2991 6.23547 84.3657 6.60287C84.3794 6.6821 84.3612 6.76352 84.3151 6.82938C84.2689 6.89525 84.1987 6.94023 84.1196 6.95452H84.0668Z" fill="#D1D3D4"/>
<path d="M11.5285 20.3229C11.527 20.2457 11.4956 20.172 11.441 20.1174C11.3863 20.0628 11.3127 20.0314 11.2354 20.0299C11.1577 20.0299 11.0832 20.0608 11.0282 20.1157C10.9733 20.1707 10.9424 20.2452 10.9424 20.3229C11.042 21.2079 11.1475 22.0812 11.2471 22.9779C11.2486 23.0551 11.28 23.1288 11.3346 23.1834C11.3893 23.2381 11.4629 23.2694 11.5402 23.2709C11.6174 23.2694 11.6911 23.2381 11.7457 23.1834C11.8004 23.1288 11.8317 23.0551 11.8332 22.9779C11.7336 22.0929 11.6281 21.2079 11.5285 20.3229Z" fill="#D1D3D4"/>
<path d="M17.3547 24.15C17.3354 24.1166 17.3098 24.0872 17.2792 24.0636C17.2486 24.0401 17.2137 24.0227 17.1764 24.0127C17.1391 24.0026 17.1002 24 17.0619 24.0049C17.0236 24.0099 16.9867 24.0224 16.9532 24.0416C16.9197 24.0608 16.8903 24.0865 16.8668 24.1171C16.8432 24.1477 16.8259 24.1826 16.8158 24.2199C16.8058 24.2572 16.8031 24.2961 16.8081 24.3344C16.8131 24.3727 16.8255 24.4096 16.8448 24.4431C16.9205 24.5537 16.9853 24.6715 17.0382 24.7947V24.8416V24.9119C17.0382 24.9764 17.0851 25.0409 17.1026 25.1053C17.139 25.2282 17.1664 25.3536 17.1847 25.4804V25.5332C17.1847 25.5332 17.1847 25.5859 17.1847 25.6094C17.1847 25.6328 17.1847 25.7559 17.1847 25.8262C17.1847 25.9039 17.2156 25.9785 17.2705 26.0334C17.3255 26.0884 17.4 26.1193 17.4777 26.1193C17.5555 26.1193 17.63 26.0884 17.6849 26.0334C17.7399 25.9785 17.7708 25.9039 17.7708 25.8262C17.7854 25.2402 17.6416 24.6612 17.3547 24.15Z" fill="#D1D3D4"/>
<path d="M22.0431 21.7881C21.9669 21.3486 21.8966 20.909 21.8204 20.4695C21.7998 20.3951 21.7507 20.3318 21.6838 20.2934C21.6169 20.255 21.5375 20.2446 21.4629 20.2643C21.3889 20.2875 21.3265 20.3379 21.2884 20.4054C21.2503 20.4729 21.2393 20.5524 21.2578 20.6277C21.3281 21.0673 21.4043 21.5068 21.4746 21.9464C21.4965 22.0212 21.5467 22.0845 21.6146 22.1228C21.6825 22.1612 21.7626 22.1715 21.838 22.1515C21.912 22.1284 21.9744 22.0779 22.0125 22.0104C22.0506 21.9429 22.0615 21.8634 22.0431 21.7881Z" fill="#D1D3D4"/>
<path d="M89.799 20.2526L89.3536 18.7112C89.3436 18.6727 89.3261 18.6366 89.3022 18.6049C89.2782 18.5732 89.2482 18.5465 89.2139 18.5263C89.1796 18.5062 89.1417 18.493 89.1023 18.4875C89.063 18.482 89.0229 18.4844 88.9844 18.4944C88.9459 18.5044 88.9098 18.5219 88.8781 18.5458C88.8463 18.5698 88.8196 18.5998 88.7995 18.6341C88.7794 18.6684 88.7662 18.7063 88.7607 18.7457C88.7552 18.785 88.7575 18.8251 88.7676 18.8636L89.2071 20.405C89.2273 20.4827 89.2776 20.5492 89.3468 20.5899C89.4161 20.6306 89.4986 20.642 89.5763 20.6218C89.6541 20.6016 89.7206 20.5514 89.7612 20.4821C89.8019 20.4129 89.8134 20.3303 89.7932 20.2526H89.799Z" fill="#D1D3D4"/>
<path d="M95.8887 22.0167C95.8115 22.0182 95.7378 22.0496 95.6832 22.1042C95.6286 22.1588 95.5972 22.2325 95.5957 22.3097V24.068C95.5957 24.1457 95.6266 24.2202 95.6815 24.2752C95.7365 24.3301 95.811 24.361 95.8887 24.361C95.966 24.3595 96.0397 24.3281 96.0943 24.2735C96.1489 24.2189 96.1803 24.1452 96.1818 24.068V22.3097C96.1803 22.2325 96.1489 22.1588 96.0943 22.1042C96.0397 22.0496 95.966 22.0182 95.8887 22.0167Z" fill="#D1D3D4"/>
<path d="M101.708 22.3097C101.705 22.2329 101.674 22.1601 101.619 22.1057C101.565 22.0514 101.492 22.0196 101.415 22.0167C101.269 22.0167 101.099 22.1515 101.122 22.3097L101.456 24.9588C101.456 25.0365 101.487 25.1111 101.542 25.166C101.597 25.221 101.672 25.2518 101.749 25.2518C101.827 25.2518 101.902 25.221 101.957 25.166C102.012 25.1111 102.042 25.0365 102.042 24.9588L101.708 22.3097Z" fill="#D1D3D4"/>
<path d="M98.9659 35.221C98.8886 35.2225 98.815 35.2539 98.7603 35.3085C98.7057 35.3632 98.6744 35.4368 98.6729 35.5141V36.61C98.6729 36.6878 98.7037 36.7623 98.7587 36.8172C98.8136 36.8722 98.8882 36.9031 98.9659 36.9031C99.0436 36.9031 99.1181 36.8722 99.1731 36.8172C99.2281 36.7623 99.2589 36.6878 99.2589 36.61V35.5141C99.2589 35.4364 99.2281 35.3618 99.1731 35.3069C99.1181 35.2519 99.0436 35.221 98.9659 35.221Z" fill="#D1D3D4"/>
<path d="M104.984 41.369C104.761 40.6364 104.545 39.9038 104.322 39.1712C104.299 39.0972 104.248 39.0348 104.181 38.9967C104.113 38.9586 104.034 38.9476 103.958 38.9661C103.885 38.9879 103.823 39.0375 103.786 39.1043C103.749 39.1711 103.739 39.2498 103.759 39.3236C103.976 40.062 104.199 40.7946 104.421 41.5272C104.432 41.5657 104.45 41.6018 104.474 41.6334C104.498 41.6649 104.529 41.6914 104.563 41.7113C104.598 41.7311 104.636 41.744 104.675 41.7491C104.715 41.7543 104.755 41.7515 104.794 41.7412C104.832 41.7308 104.868 41.7129 104.9 41.6886C104.931 41.6642 104.958 41.6339 104.978 41.5994C104.998 41.5648 105.01 41.5267 105.016 41.4872C105.021 41.4476 105.018 41.4075 105.008 41.369H104.984Z" fill="#D1D3D4"/>
<path d="M7.25014 27.1566C7.24864 27.0794 7.21728 27.0057 7.16265 26.9511C7.10801 26.8964 7.03435 26.8651 6.9571 26.8636C6.87938 26.8636 6.80485 26.8944 6.74989 26.9494C6.69494 27.0044 6.66406 27.0789 6.66406 27.1566C6.73439 27.813 6.80472 28.4753 6.88091 29.1376C6.88091 29.2153 6.91178 29.2898 6.96674 29.3448C7.02169 29.3997 7.09623 29.4306 7.17395 29.4306C7.2512 29.4291 7.32486 29.3977 7.3795 29.3431C7.43413 29.2885 7.46549 29.2148 7.46699 29.1376C7.3908 28.4753 7.32047 27.813 7.25014 27.1566Z" fill="#D1D3D4"/>
<path d="M10.1226 39.8393C9.9004 39.0027 9.84071 38.1313 9.94676 37.2723C9.94676 37.1946 9.91589 37.12 9.86093 37.0651C9.80598 37.0101 9.73144 36.9792 9.65372 36.9792C9.57601 36.9792 9.50147 37.0101 9.44651 37.0651C9.39156 37.12 9.36069 37.1946 9.36069 37.2723C9.25171 38.1848 9.31735 39.1096 9.55409 39.9975C9.57508 40.0729 9.62515 40.1369 9.69329 40.1754C9.76144 40.2138 9.84207 40.2237 9.91746 40.2027C9.99284 40.1817 10.0568 40.1316 10.0953 40.0635C10.1337 39.9953 10.1436 39.9147 10.1226 39.8393Z" fill="#D1D3D4"/>
<path d="M13.1583 29.7177C13.081 29.7192 13.0074 29.7506 12.9527 29.8052C12.8981 29.8599 12.8667 29.9335 12.8652 30.0108V31.3295C12.8652 31.4072 12.8961 31.4817 12.9511 31.5367C13.006 31.5916 13.0806 31.6225 13.1583 31.6225C13.236 31.6225 13.3105 31.5916 13.3655 31.5367C13.4204 31.4817 13.4513 31.4072 13.4513 31.3295V30.0108C13.4498 29.9335 13.4185 29.8599 13.3638 29.8052C13.3092 29.7506 13.2355 29.7192 13.1583 29.7177Z" fill="#D1D3D4"/>
</svg>
