<svg width="151" height="128" viewBox="0 0 151 128" fill="none" xmlns="http://www.w3.org/2000/svg">
<path d="M110.127 127.09C121.471 127.09 130.667 125.889 130.667 124.409C130.667 122.929 121.471 121.729 110.127 121.729C98.7823 121.729 89.5859 122.929 89.5859 124.409C89.5859 125.889 98.7823 127.09 110.127 127.09Z" fill="#D1D3D4"/>
<path d="M74.086 106.95C74.0419 106.95 73.9983 106.94 73.9591 106.919C73.9012 106.885 73.859 106.829 73.841 106.764C73.8231 106.698 73.8308 106.629 73.8626 106.569C74.6798 105.23 75.9346 104.214 77.4148 103.693C78.8949 103.172 80.5095 103.178 81.9855 103.711C83.0414 98.8677 87.7933 95.0195 92.7584 95.0195H92.8802C92.9475 95.0195 93.0121 95.0463 93.0597 95.0939C93.1073 95.1415 93.1341 95.206 93.1341 95.2734C93.1341 95.3407 93.1073 95.4053 93.0597 95.4529C93.0121 95.5005 92.9475 95.5272 92.8802 95.5272H92.7584C87.9253 95.5272 83.3054 99.3551 82.4272 104.112C82.4206 104.15 82.4053 104.187 82.3825 104.218C82.3597 104.249 82.33 104.275 82.2956 104.293C82.2613 104.311 82.2233 104.321 82.1845 104.323C82.1457 104.324 82.1071 104.316 82.0718 104.3C80.6872 103.72 79.1403 103.657 77.7133 104.123C76.2863 104.589 75.0746 105.553 74.2992 106.838C74.2757 106.873 74.2439 106.901 74.2067 106.921C74.1695 106.94 74.128 106.95 74.086 106.95Z" fill="#D1D3D4"/>
<path d="M145.212 106.447C145.161 106.447 145.111 106.431 145.07 106.401C145.014 106.363 144.975 106.304 144.962 106.238C144.948 106.171 144.962 106.102 144.999 106.045C146.74 103.507 147.217 101.395 146.41 99.8315C144.846 96.7854 138.972 96.6433 138.917 96.6382C138.877 96.6381 138.837 96.6283 138.802 96.6097C138.767 96.5912 138.736 96.5644 138.714 96.5316C138.691 96.4987 138.676 96.4611 138.669 96.4215C138.663 96.3819 138.666 96.3414 138.678 96.3032C139.521 93.846 139.506 92.0996 138.627 91.1096C137.434 89.7643 134.997 90.2719 134.972 90.277C134.915 90.2892 134.857 90.2818 134.805 90.256C134.753 90.2301 134.712 90.1874 134.688 90.1349C132.53 85.6775 128.555 86.9923 128.387 87.0533C128.323 87.0755 128.253 87.0714 128.192 87.0419C128.131 87.0124 128.085 86.9598 128.062 86.8959C128.04 86.8319 128.044 86.7618 128.074 86.7008C128.103 86.6399 128.156 86.5932 128.22 86.571C128.266 86.571 132.677 85.0784 135.063 89.744C135.713 89.6424 137.82 89.4343 139.008 90.7593C139.973 91.8457 140.059 93.6531 139.267 96.1305C140.602 96.2118 145.359 96.6991 146.882 99.5827C147.776 101.324 147.293 103.593 145.44 106.32C145.417 106.36 145.384 106.392 145.344 106.415C145.303 106.437 145.258 106.448 145.212 106.447Z" fill="#D1D3D4"/>
<path d="M150.355 108.351H0.254815C0.187493 108.351 0.12293 108.325 0.0753259 108.277C0.027722 108.229 0.000976562 108.165 0.000976562 108.098C0.000976562 108.03 0.027722 107.966 0.0753259 107.918C0.12293 107.87 0.187493 107.844 0.254815 107.844H150.355C150.422 107.844 150.487 107.87 150.534 107.918C150.582 107.966 150.609 108.03 150.609 108.098C150.609 108.165 150.582 108.229 150.534 108.277C150.487 108.325 150.422 108.351 150.355 108.351Z" fill="#D1D3D4"/>
<path d="M135.221 49.6328H82.0062C80.6183 49.6328 79.4932 50.7579 79.4932 52.1458V52.6789C79.4932 54.0668 80.6183 55.1919 82.0062 55.1919H135.221C136.609 55.1919 137.734 54.0668 137.734 52.6789V52.1458C137.734 50.7579 136.609 49.6328 135.221 49.6328Z" fill="white"/>
<path d="M135.211 55.4496H82.006C81.2726 55.4482 80.5696 55.1563 80.051 54.6377C79.5324 54.1191 79.2405 53.4161 79.2391 52.6827V52.175C79.2331 51.8076 79.3001 51.4427 79.4364 51.1014C79.5727 50.7601 79.7754 50.4494 80.0329 50.1872C80.2904 49.925 80.5974 49.7166 80.9361 49.5742C81.2749 49.4317 81.6385 49.358 82.006 49.3574H135.211C135.944 49.3574 136.648 49.6489 137.167 50.1678C137.686 50.6867 137.977 51.3905 137.977 52.1243V52.6319C137.983 52.9994 137.916 53.3643 137.78 53.7056C137.644 54.0468 137.441 54.3576 137.184 54.6198C136.926 54.882 136.619 55.0903 136.28 55.2328C135.942 55.3752 135.578 55.4489 135.211 55.4496ZM82.006 49.8651C81.4072 49.8664 80.8334 50.1049 80.41 50.5283C79.9866 50.9517 79.7482 51.5255 79.7468 52.1243V52.6319C79.7408 52.9327 79.7947 53.2316 79.9054 53.5113C80.0162 53.791 80.1815 54.0458 80.3919 54.2608C80.6022 54.4759 80.8532 54.6468 81.1304 54.7638C81.4075 54.8807 81.7052 54.9413 82.006 54.9419H135.211C135.809 54.9405 136.383 54.7021 136.807 54.2787C137.23 53.8553 137.468 53.2815 137.47 52.6827V52.175C137.476 51.8743 137.422 51.5754 137.311 51.2957C137.2 51.016 137.035 50.7612 136.825 50.5462C136.614 50.3311 136.363 50.1601 136.086 50.0432C135.809 49.9263 135.511 49.8657 135.211 49.8651H82.006Z" fill="#F47B20"/>
<path d="M133.612 55.1914L133.317 58.4913L127.733 120.54C127.627 121.72 127.084 122.818 126.209 123.618C125.334 124.418 124.191 124.861 123.006 124.86H94.2057C93.0204 124.861 91.8778 124.418 91.003 123.618C90.1282 122.818 89.5845 121.72 89.4792 120.54L84.7629 67.9341L83.6206 55.1914H133.612Z" fill="white"/>
<path d="M123.026 125.114H94.2054C92.9521 125.12 91.7426 124.653 90.8191 123.806C89.8955 122.959 89.3262 121.794 89.2251 120.545L83.3665 55.2116C83.3634 55.1413 83.3869 55.0724 83.4325 55.0187C83.4568 54.9934 83.486 54.9731 83.5182 54.9592C83.5505 54.9452 83.5852 54.9379 83.6203 54.9375H133.611C133.646 54.9379 133.681 54.9452 133.713 54.9592C133.746 54.9731 133.775 54.9934 133.799 55.0187C133.845 55.0724 133.868 55.1413 133.865 55.2116L133.571 58.5115L127.986 120.56C127.882 121.803 127.314 122.961 126.395 123.805C125.476 124.648 124.274 125.116 123.026 125.114ZM83.8995 55.4503L89.7328 120.524C89.8284 121.643 90.3417 122.684 91.1705 123.442C91.9993 124.199 93.0828 124.617 94.2054 124.611H123.026C124.149 124.617 125.232 124.199 126.061 123.442C126.89 122.684 127.403 121.643 127.499 120.524L133.332 55.4503H83.8995Z" fill="#F47B20"/>
<path d="M128.301 55.451H83.6254C83.5581 55.451 83.4935 55.4243 83.4459 55.3767C83.3983 55.3291 83.3716 55.2645 83.3716 55.1972C83.3716 55.1299 83.3983 55.0653 83.4459 55.0177C83.4935 54.9701 83.5581 54.9434 83.6254 54.9434H128.301C128.368 54.9434 128.433 54.9701 128.481 55.0177C128.528 55.0653 128.555 55.1299 128.555 55.1972C128.555 55.2645 128.528 55.3291 128.481 55.3767C128.433 55.4243 128.368 55.451 128.301 55.451Z" fill="#F47B20"/>
<path d="M125.402 118.64H92.8857C92.8184 118.64 92.7538 118.614 92.7062 118.566C92.6586 118.519 92.6318 118.454 92.6318 118.387C92.6318 118.319 92.6586 118.255 92.7062 118.207C92.7538 118.16 92.8184 118.133 92.8857 118.133H125.402C125.47 118.133 125.534 118.16 125.582 118.207C125.63 118.255 125.656 118.319 125.656 118.387C125.656 118.454 125.63 118.519 125.582 118.566C125.534 118.614 125.47 118.64 125.402 118.64Z" fill="#D1D3D4"/>
<path d="M54.2717 30.9141L61.694 40.0015C61.694 40.0015 70.6291 36.6051 72.2283 35.5948C73.8275 34.5846 77.6401 30.0104 78.7469 31.3456C79.8536 32.6808 81.7929 35.4425 79.6861 38.7221C77.5792 42.0017 60.0745 48.0533 57.9981 48.2919C55.9217 48.5305 45.6768 32.3609 45.6768 32.3609L54.2717 30.9141Z" fill="white"/>
<path d="M57.9679 48.5515C55.729 48.5515 47.1696 35.1945 45.4587 32.4937C45.4387 32.4571 45.4282 32.4161 45.4282 32.3744C45.4282 32.3327 45.4387 32.2917 45.4587 32.2551C45.4763 32.2175 45.5024 32.1846 45.535 32.159C45.5677 32.1334 45.6059 32.1159 45.6465 32.1078L54.2466 30.661C54.2909 30.6532 54.3365 30.6576 54.3785 30.6737C54.4206 30.6898 54.4574 30.717 54.4852 30.7523L61.7755 39.7129C63.0193 39.2356 70.6547 36.3013 72.0965 35.3976C72.78 34.8929 73.4264 34.3398 74.0308 33.7426C75.5944 32.2906 77.1987 30.7879 78.2851 30.859C78.4129 30.866 78.5377 30.8999 78.6514 30.9586C78.7652 31.0172 78.8652 31.0991 78.9451 31.1991C79.7574 32.2145 82.2349 35.2199 79.8995 38.8752C77.7216 42.2512 60.024 48.3434 58.044 48.5464L57.9679 48.5515ZM46.0933 32.5444C50.043 38.7584 56.6022 48.2063 57.973 48.0438C59.9174 47.8205 77.4221 41.7943 79.4731 38.5858C81.6053 35.2402 79.3056 32.4277 78.5491 31.4783C78.5134 31.4325 78.4681 31.3951 78.4163 31.3688C78.3645 31.3425 78.3076 31.3279 78.2496 31.326C77.3967 31.2753 75.7112 32.8491 74.376 34.0726C73.7456 34.6959 73.0665 35.268 72.3453 35.7834C70.741 36.7988 62.1308 40.0733 61.7653 40.2104C61.7161 40.2304 61.6617 40.2338 61.6104 40.2201C61.559 40.2063 61.5136 40.1762 61.481 40.1342L54.1704 31.1889L46.0933 32.5444Z" fill="#F47B20"/>
<path d="M37.8736 78.4321C37.8736 78.4321 41.3868 84.5243 41.5695 86.9357C41.7523 89.3472 35.2896 114.35 35.2896 114.35H43.9759C43.9759 114.35 50.6265 90.4489 50.9971 86.5651C51.3677 82.6814 48.0424 74.3809 48.0424 74.3809L37.8736 78.4321Z" fill="white"/>
<path d="M43.9758 114.604H35.2895C35.2506 114.604 35.2121 114.596 35.1769 114.579C35.1418 114.562 35.1108 114.538 35.0864 114.508C35.0632 114.476 35.0471 114.44 35.0393 114.401C35.0314 114.362 35.0319 114.323 35.0407 114.284C35.1067 114.036 41.4984 89.2863 41.3207 86.9561C41.143 84.6258 37.6908 78.62 37.6553 78.5591C37.6402 78.5264 37.6325 78.4909 37.6325 78.455C37.6325 78.4191 37.6402 78.3836 37.6553 78.3509C37.6668 78.3161 37.686 78.2843 37.7115 78.2579C37.737 78.2316 37.7681 78.2113 37.8025 78.1986L47.956 74.1372C47.987 74.1248 48.0202 74.1187 48.0535 74.1192C48.0869 74.1196 48.1199 74.1267 48.1505 74.1399C48.1812 74.1531 48.2089 74.1722 48.2322 74.1961C48.2554 74.22 48.2737 74.2483 48.286 74.2794C48.4231 74.6195 51.6316 82.6967 51.261 86.5956C50.8904 90.4946 44.4988 113.447 44.2297 114.421C44.2139 114.476 44.1803 114.523 44.1343 114.557C44.0883 114.59 44.0325 114.606 43.9758 114.604ZM35.6144 114.097H43.7829C44.4023 111.853 50.3827 90.1747 50.7432 86.5398C51.0681 83.1282 48.4282 76.0765 47.8951 74.6957L38.2493 78.5591C38.9245 79.7572 41.6659 84.7375 41.8335 86.9154C42.001 89.2101 36.4013 111.056 35.6144 114.097Z" fill="#F47B20"/>
<path d="M21.6026 77.3259L23.3287 86.8754C23.3287 86.8754 17.597 110.406 16.2212 114.721L24.542 115.828C24.542 115.828 33.7818 90.3225 34.0305 88.2309C34.2793 86.1392 32.4263 76.4629 32.4263 76.4629L21.6026 77.3259Z" fill="white"/>
<path d="M24.562 116.082H24.5366L16.2107 114.971C16.1741 114.966 16.1388 114.954 16.1073 114.935C16.0757 114.915 16.0487 114.89 16.028 114.859C16.0118 114.826 16.0034 114.789 16.0034 114.752C16.0034 114.715 16.0118 114.679 16.028 114.646C17.3327 110.488 22.7902 88.1094 23.0948 86.8656L21.3789 77.3721C21.3731 77.3365 21.3746 77.3002 21.3833 77.2653C21.392 77.2304 21.4078 77.1976 21.4297 77.169C21.4507 77.1411 21.4774 77.1181 21.508 77.1015C21.5387 77.0848 21.5726 77.075 21.6074 77.0725L32.4513 76.2095C32.513 76.2056 32.5741 76.224 32.6235 76.2612C32.6728 76.2985 32.7072 76.3522 32.7204 76.4126C32.7966 76.8136 34.5734 86.1498 34.3247 88.2567C34.0759 90.3635 25.1865 114.874 24.826 115.915C24.807 115.968 24.7707 116.014 24.7229 116.044C24.675 116.075 24.6184 116.088 24.562 116.082ZM16.5763 114.509L24.3945 115.524C25.2423 113.168 33.5682 90.1402 33.7967 88.1754C34.015 86.3173 32.5123 78.1691 32.2381 76.707L21.9018 77.5295L23.5771 86.8047C23.5847 86.8398 23.5847 86.8762 23.5771 86.9113C23.5213 87.1652 18.0587 109.574 16.5763 114.509Z" fill="#F47B20"/>
<path d="M34.929 12.6788C34.5838 12.3589 34.3858 10.2978 34.2081 9.72917C33.6997 8.07179 33.721 6.2971 34.269 4.6524C34.8872 3.16379 36.0702 1.98085 37.5588 1.36265C38.3423 0.960294 39.2486 0.867852 40.0972 1.10373C40.3328 1.22102 40.587 1.2966 40.8485 1.32711C41.0747 1.30578 41.2941 1.2384 41.4933 1.12912C44.387 -0.175614 47.027 0.00207293 49.7887 1.51495C50.5122 1.87181 51.1576 2.36879 51.6874 2.97706C52.1166 3.56835 52.4031 4.25089 52.5247 4.97132C52.6462 5.69174 52.5994 6.43051 52.388 7.12986C52.119 8.14522 51.4437 9.84086 50.5198 10.4501C50.0121 10.775 49.4486 10.6075 48.9663 10.7953C47.9509 11.171 47.0066 12.1102 46.0421 12.6077C42.6406 14.3795 38.0918 15.5675 34.929 12.6788Z" fill="white"/>
<path d="M39.6356 14.6789C37.837 14.7236 36.0901 14.0747 34.7569 12.8665C34.4878 12.6177 34.3406 11.8511 34.1527 10.7596C34.0867 10.3636 34.0207 9.98796 33.9649 9.8052C33.4403 8.0943 33.4652 6.26201 34.036 4.56597C34.3522 3.79615 34.8172 3.09631 35.4044 2.50652C35.9915 1.91674 36.6893 1.44862 37.4577 1.12899C38.2971 0.694382 39.2716 0.599838 40.1788 0.864997L40.3718 0.941149C40.5185 1.01218 40.6766 1.05686 40.8388 1.07315C41.0171 1.053 41.1896 0.997784 41.3465 0.910688C44.2961 -0.419426 47.0071 -0.292507 49.9009 1.29145C50.6539 1.66509 51.3265 2.18249 51.8808 2.81448C52.3409 3.43958 52.6488 4.16338 52.7801 4.92835C52.9115 5.69332 52.8625 6.47837 52.6373 7.22112C52.3123 8.42939 51.6219 10.0641 50.6573 10.6886C50.3488 10.8675 49.9986 10.9621 49.642 10.9627C49.4492 10.9676 49.2579 10.9983 49.0734 11.0541C48.4949 11.3151 47.9495 11.644 47.4488 12.0339C47.0443 12.3397 46.6184 12.6162 46.1745 12.8614C44.5499 13.6737 42.103 14.6789 39.6356 14.6789ZM35.097 12.4908C38.4527 15.5369 43.3214 13.7397 45.9258 12.3842C46.3469 12.1486 46.7522 11.8857 47.1391 11.5973C47.6736 11.1882 48.2568 10.8472 48.8754 10.5819C49.1066 10.5055 49.3477 10.4628 49.5912 10.455C49.8651 10.4598 50.1358 10.3952 50.3781 10.2672C51.2614 9.68335 51.9011 7.99279 52.1448 7.08912C52.3487 6.42833 52.3956 5.7291 52.2819 5.04698C52.1682 4.36487 51.8971 3.71866 51.4899 3.1597C50.9781 2.58118 50.3592 2.1071 49.6673 1.76359C46.9259 0.240554 44.3621 0.139019 41.5953 1.38791C41.3625 1.5115 41.1067 1.58581 40.8439 1.60621C40.6158 1.58962 40.3924 1.5329 40.1839 1.43867L40.0113 1.37267C39.2248 1.15189 38.3836 1.24091 37.6608 1.62144C36.9538 1.91254 36.3114 2.34047 35.7703 2.88063C35.2293 3.4208 34.8003 4.06256 34.5081 4.76904C33.9755 6.35916 33.9559 8.07645 34.4522 9.67828C34.5182 9.8915 34.5792 10.2621 34.6553 10.6936C34.7221 11.3097 34.8706 11.914 35.097 12.4908Z" fill="#F47B20"/>
<path d="M43.9048 57.7344L52.9973 83.1842L38.6351 85.6008L34.5737 72.2133L36.0967 85.7531L20.2623 86.6974C20.2623 86.6974 15.815 66.6187 17.536 58.4959L43.9048 57.7344Z" fill="#F47B20"/>
<path d="M20.2319 86.9514C20.1747 86.9515 20.1193 86.9318 20.0749 86.8957C20.0305 86.8597 19.9999 86.8094 19.9882 86.7535C19.8055 85.931 15.5714 66.5124 17.2925 58.42C17.3029 58.3639 17.3323 58.3131 17.3758 58.2762C17.4192 58.2392 17.474 58.2183 17.5311 58.2169L43.8998 57.4808C43.9532 57.4781 44.006 57.4931 44.05 57.5233C44.094 57.5536 44.1269 57.5975 44.1435 57.6483L53.236 83.0982C53.2523 83.1323 53.2607 83.1696 53.2607 83.2073C53.2607 83.2451 53.2523 83.2824 53.236 83.3165C53.217 83.3474 53.1918 83.3741 53.1622 83.395C53.1325 83.416 53.0989 83.4307 53.0634 83.4383L38.6961 85.8549C38.6355 85.8627 38.574 85.8493 38.5222 85.8169C38.4703 85.7845 38.4313 85.7351 38.4118 85.6772L35.1322 74.9093L36.3354 85.7229C36.3404 85.7571 36.3379 85.7921 36.3283 85.8253C36.3187 85.8586 36.3021 85.8894 36.2796 85.9158C36.2569 85.9422 36.2288 85.9635 36.1974 85.9783C36.1659 85.9932 36.1316 86.0013 36.0968 86.0021L20.2674 86.9514H20.2319ZM17.7443 58.7195C16.2517 66.3753 19.9781 84.276 20.435 86.4285L35.7821 85.5147L34.3047 72.244C34.2981 72.2107 34.298 72.1764 34.3046 72.143C34.3112 72.1097 34.3243 72.078 34.3432 72.0497C34.362 72.0214 34.3863 71.9971 34.4145 71.9782C34.4428 71.9593 34.4745 71.9461 34.5078 71.9394C34.5411 71.9328 34.5754 71.9327 34.6088 71.9393C34.6421 71.9459 34.6739 71.959 34.7022 71.9779C34.7304 71.9967 34.7547 72.021 34.7737 72.0492C34.7926 72.0775 34.8057 72.1092 34.8124 72.1425L38.8231 85.3421L52.6674 83.0119L43.7272 57.9884L17.7443 58.7195Z" fill="#F47B20"/>
<path d="M36.8684 20.0709C36.8684 20.0709 23.0138 17.9184 19.6784 24.9903C16.0333 32.7476 16.2059 60.2282 16.2059 60.2282L46.3315 59.1113L45.3973 42.094L49.9207 45.4751L57.1958 32.0978C57.1958 32.0978 51.2915 26.4575 47.2656 23.5637C43.2397 20.67 36.8684 20.0709 36.8684 20.0709Z" fill="#FDDAA5"/>
<path d="M43.2397 20.6699L42.4071 26.0056C42.4071 26.0056 41.3359 28.3409 37.8888 26.9549C34.4417 25.569 34.269 23.0255 34.269 23.0255L36.1728 13.1106C36.1728 13.1106 42.2142 10.9479 42.265 5.0791C43.3102 6.30989 44.6022 7.30741 46.0575 8.00705C47.5127 8.70669 49.0987 9.09285 50.7127 9.14052C50.7127 9.14052 50.205 15.187 49.3572 17.8929C48.5094 20.5988 43.2397 20.6699 43.2397 20.6699Z" fill="white"/>
<path d="M39.8889 27.6601C39.1671 27.6439 38.4552 27.4888 37.7922 27.2032C34.2384 25.7715 34.0252 23.1418 34.0151 23.0555C34.0126 23.0352 34.0126 23.0148 34.0151 22.9945L35.9188 13.0745C35.9277 13.0314 35.9472 12.9911 35.9755 12.9574C36.0039 12.9237 36.0403 12.8977 36.0813 12.8816C36.1422 12.8816 41.9602 10.7138 42.0211 5.08876C42.0223 5.03617 42.0394 4.98516 42.0702 4.94253C42.101 4.8999 42.1441 4.86768 42.1937 4.85016C42.2434 4.83242 42.2974 4.83124 42.3477 4.8468C42.3981 4.86236 42.442 4.89382 42.473 4.93646C43.4978 6.13554 44.761 7.10819 46.1821 7.79256C47.6033 8.47692 49.1513 8.85801 50.7278 8.91158C50.7623 8.91142 50.7964 8.91857 50.8279 8.93258C50.8594 8.94658 50.8876 8.96711 50.9106 8.99281C50.9346 9.01847 50.9529 9.04894 50.9642 9.08219C50.9756 9.11544 50.9798 9.15073 50.9766 9.18572C50.9766 9.43448 50.4435 15.2779 49.6109 17.9939C48.8189 20.5323 44.4884 20.8775 43.4528 20.9181L42.6608 26.0558C42.663 26.0795 42.663 26.1033 42.6608 26.1269C42.3838 26.6121 41.9787 27.0118 41.4898 27.2822C41.0009 27.5526 40.4471 27.6833 39.8889 27.6601ZM34.5227 23.0555C34.5583 23.3448 34.8933 25.4923 37.98 26.7311C40.9855 27.9393 42.0414 26.2234 42.1633 25.9391L42.9857 20.6338C42.9961 20.5746 43.0264 20.5206 43.0716 20.4809C43.1169 20.4412 43.1743 20.4181 43.2345 20.4155C43.2852 20.4155 48.362 20.3445 49.1337 17.8467C49.8495 15.5165 50.342 10.6072 50.4537 9.4091C47.4289 9.25851 44.5799 7.94314 42.5034 5.73859C42.0668 10.7595 37.2743 12.9476 36.4113 13.3081L34.5227 23.0555Z" fill="#F47B20"/>
<path d="M37.9093 13.0845C37.8109 12.4528 37.4994 11.8738 37.0266 11.4435C36.5538 11.0132 35.9481 10.7575 35.31 10.7188C33.721 10.7188 33.4722 12.4855 33.787 13.6937C33.8833 14.0626 34.0523 14.4085 34.2841 14.7112C34.5159 15.0139 34.8058 15.2673 35.1368 15.4564C35.4678 15.6456 35.8333 15.7667 36.2117 15.8127C36.5902 15.8588 36.974 15.8287 37.3407 15.7244" fill="white"/>
<path d="M36.5637 16.0746C35.8759 16.0763 35.2069 15.85 34.6613 15.4311C34.1157 15.0123 33.7243 14.4245 33.5481 13.7596C33.4148 13.3223 33.3761 12.8615 33.4348 12.4081C33.4934 11.9546 33.648 11.5189 33.8883 11.1299C34.0561 10.9149 34.2723 10.7426 34.5193 10.627C34.7663 10.5114 35.0372 10.4558 35.3098 10.4648C36.0074 10.5113 36.6686 10.7933 37.1851 11.2646C37.7016 11.7359 38.0427 12.3685 38.1527 13.059C38.1595 13.1264 38.1392 13.1936 38.0964 13.246C38.0535 13.2983 37.9916 13.3315 37.9243 13.3383C37.857 13.345 37.7897 13.3247 37.7374 13.2819C37.685 13.239 37.6518 13.1771 37.6451 13.1098C37.5496 12.5443 37.2679 12.0269 36.8449 11.6397C36.4218 11.2525 35.8815 11.0176 35.3098 10.9725C35.1153 10.9619 34.9212 10.999 34.7443 11.0804C34.5674 11.1617 34.4129 11.285 34.2944 11.4395C34.1014 11.7662 33.9786 12.1295 33.934 12.5063C33.8895 12.883 33.924 13.265 34.0355 13.6276C34.1237 13.9619 34.2774 14.2753 34.4878 14.5497C34.6982 14.8241 34.9609 15.0539 35.2609 15.2258C35.5608 15.3978 35.8919 15.5084 36.235 15.5512C36.578 15.5941 36.9262 15.5684 37.2592 15.4756C37.2926 15.4666 37.3274 15.4642 37.3616 15.4687C37.3958 15.4731 37.4289 15.4843 37.4588 15.5015C37.4887 15.5187 37.515 15.5416 37.5361 15.569C37.5571 15.5963 37.5726 15.6275 37.5816 15.6609C37.5906 15.6942 37.593 15.729 37.5885 15.7632C37.5841 15.7975 37.5729 15.8305 37.5557 15.8604C37.5385 15.8904 37.5156 15.9166 37.4882 15.9377C37.4609 15.9588 37.4296 15.9743 37.3963 15.9833C37.1242 16.0512 36.8441 16.082 36.5637 16.0746Z" fill="#F47B20"/>
<path d="M45.4685 11.9883C45.4685 11.9883 47.0423 15.0343 46.5397 15.4456C46.0371 15.8568 44.8237 15.4456 44.8237 15.4456" fill="white"/>
<path d="M45.89 15.8918C45.4945 15.8773 45.1038 15.8002 44.7325 15.6634C44.701 15.6515 44.6722 15.6336 44.6477 15.6106C44.6233 15.5875 44.6036 15.5598 44.5899 15.5291C44.5762 15.4984 44.5687 15.4653 44.5679 15.4317C44.5671 15.3981 44.573 15.3647 44.5853 15.3334C44.6092 15.271 44.6567 15.2206 44.7175 15.1931C44.7783 15.1655 44.8475 15.163 44.9102 15.1861C45.3265 15.3435 46.0931 15.5009 46.3723 15.2572C46.5195 15.0186 45.9915 13.5463 45.2452 12.1045C45.2211 12.0482 45.2186 11.9848 45.2383 11.9267C45.258 11.8687 45.2984 11.8199 45.3519 11.7898C45.4112 11.7593 45.4801 11.7534 45.5438 11.7733C45.6075 11.7933 45.6607 11.8375 45.692 11.8964C46.3164 13.0894 47.276 15.1658 46.7074 15.6634C46.4703 15.8334 46.1809 15.9143 45.89 15.8918Z" fill="#F47B20"/>
<path d="M44.5222 10.4142C44.6498 9.86523 44.5607 9.37545 44.3231 9.32021C44.0855 9.26496 43.7894 9.66516 43.6618 10.2141C43.5341 10.763 43.6233 11.2528 43.8609 11.308C44.0985 11.3633 44.3945 10.9631 44.5222 10.4142Z" fill="#F47B20"/>
<path d="M48.8 11.4054C48.9276 10.8564 48.8385 10.3667 48.6009 10.3114C48.3633 10.2562 48.0672 10.6564 47.9396 11.2053C47.812 11.7542 47.9011 12.244 48.1387 12.2993C48.3763 12.3545 48.6724 11.9543 48.8 11.4054Z" fill="#F47B20"/>
<path d="M43.24 20.6696C43.24 20.6696 41.1483 20.7356 38.9653 18.7861C38.9653 18.7861 39.2953 22.6851 42.7881 23.5634L43.24 20.6696Z" fill="#F47B20"/>
<path d="M42.8131 23.8168H42.7522C39.1274 22.903 38.7416 18.8517 38.7416 18.8111C38.7363 18.7606 38.7466 18.7097 38.7711 18.6652C38.7956 18.6207 38.8331 18.5848 38.8786 18.5623C38.9241 18.5389 38.9756 18.5298 39.0263 18.5361C39.077 18.5425 39.1246 18.564 39.1629 18.5979C40.262 19.6646 41.7018 20.3099 43.2294 20.4204C43.2668 20.419 43.304 20.426 43.3383 20.441C43.3726 20.4559 43.403 20.4784 43.4274 20.5067C43.4518 20.5351 43.4698 20.5684 43.4803 20.6043C43.4908 20.6401 43.4935 20.6778 43.4884 20.7149L43.0416 23.6086C43.0364 23.6437 43.0237 23.6772 43.0044 23.707C42.9852 23.7368 42.9598 23.7621 42.9299 23.7812C42.8948 23.8032 42.8545 23.8155 42.8131 23.8168ZM39.3305 19.4051C39.5742 20.4712 40.3458 22.5273 42.5847 23.233L42.9451 20.9027C41.6229 20.7553 40.3696 20.236 39.3305 19.4051Z" fill="#F47B20"/>
<path d="M45.1386 18.172C44.3189 18.2113 43.5167 17.9269 42.9048 17.38C41.4732 16.0245 41.8387 13.4608 41.8539 13.3542C41.8652 13.2881 41.9016 13.2289 41.9556 13.1891C42.0096 13.1494 42.0769 13.1321 42.1433 13.1409C42.1763 13.1459 42.208 13.1573 42.2366 13.1746C42.2652 13.1918 42.2902 13.2145 42.31 13.2414C42.3298 13.2683 42.3441 13.2988 42.3521 13.3312C42.3601 13.3636 42.3616 13.3973 42.3565 13.4303C42.3565 13.4557 42.0164 15.8418 43.2551 17.0094C43.9202 17.639 44.9355 17.8166 46.2758 17.5171C46.3416 17.505 46.4096 17.5188 46.4655 17.5558C46.5213 17.5927 46.5607 17.6498 46.5753 17.7151C46.5827 17.7478 46.5834 17.7817 46.5774 17.8147C46.5713 17.8477 46.5587 17.8791 46.5402 17.9071C46.5217 17.9351 46.4977 17.959 46.4698 17.9775C46.4418 17.996 46.4103 18.0086 46.3773 18.0146C45.9708 18.1089 45.5558 18.1617 45.1386 18.172Z" fill="#F47B20"/>
<path d="M59.9017 39.9413C60.2418 40.5048 60.5718 41.0277 60.846 41.4643C61.1081 41.898 61.1901 42.4171 61.0744 42.9105C60.9586 43.4039 60.6543 43.8324 60.2266 44.1043L56.5206 46.4954C56.0927 46.7688 55.5748 46.8639 55.0777 46.7605C54.5806 46.6571 54.1437 46.3634 53.8603 45.942L52.845 44.419C51.1239 41.8248 48.9257 38.4386 48.7429 37.8192C48.6647 37.5559 48.6303 37.2814 48.6414 37.0069C48.6414 36.1591 48.8902 35.225 48.6008 34.5092C48.215 33.5547 46.5295 33.971 45.6715 32.3312C45.4205 31.8678 45.2981 31.3457 45.3168 30.8191C45.3356 30.2924 45.4948 29.7803 45.7781 29.3359L49.2202 27.1377C49.7427 27.0703 50.2737 27.143 50.7589 27.3481C51.2441 27.5533 51.6662 27.8836 51.9819 28.3053C53.1039 29.7776 52.0124 31.1331 52.7181 31.8591C53.2257 32.4277 54.1954 32.6003 54.962 32.9506C55.2153 33.0616 55.4513 33.2086 55.6626 33.3872C56.1398 33.8644 58.2771 37.2861 59.9017 39.9413Z" fill="white"/>
<path d="M55.4544 47.0581C55.0945 47.0585 54.7401 46.9696 54.4229 46.7995C54.1058 46.6294 53.8357 46.3834 53.6369 46.0834L53.0988 45.2965L52.6368 44.5959C51.1848 42.4078 48.7124 38.6307 48.5043 37.9453C48.4193 37.6554 48.3816 37.3537 48.3926 37.0518C48.3926 36.7827 48.3926 36.5035 48.4434 36.2344C48.5414 35.7094 48.5153 35.1687 48.3672 34.6555C48.2504 34.356 47.9357 34.224 47.4382 34.0413C46.9504 33.916 46.4994 33.6763 46.1228 33.3419C45.7462 33.0075 45.4547 32.5882 45.2726 32.1187C45.0904 31.6491 45.0228 31.1429 45.0754 30.6421C45.128 30.1412 45.2993 29.6601 45.575 29.2386C45.5934 29.2102 45.6176 29.1859 45.6461 29.1676L49.0881 26.9744C49.1158 26.9565 49.1469 26.9444 49.1795 26.9388C49.6767 26.8704 50.183 26.9208 50.6569 27.086C51.1308 27.2512 51.5587 27.5265 51.9056 27.8892C52.2525 28.2519 52.5083 28.6917 52.6522 29.1725C52.7961 29.6534 52.8238 30.1614 52.7332 30.6551C52.6875 31.1627 52.6723 31.5232 52.8906 31.7618C53.2965 32.1121 53.7777 32.3641 54.2969 32.4979C54.5507 32.5893 54.8046 32.6807 55.0584 32.7974C55.3344 32.916 55.591 33.0751 55.8199 33.2696C56.3276 33.7773 58.734 37.5848 60.1047 39.8288L60.521 40.5141C60.7088 40.8188 60.8865 41.1081 61.0287 41.3721C61.3284 41.8621 61.4235 42.4502 61.2933 43.0097C61.1632 43.5691 60.8183 44.055 60.3332 44.3623L56.6119 46.7332C56.2632 46.9457 55.8627 47.0581 55.4544 47.0581ZM45.9608 29.5585C45.7399 29.9176 45.6071 30.324 45.5735 30.7444C45.5398 31.1647 45.6062 31.5871 45.7671 31.9768C45.9281 32.3666 46.1791 32.7127 46.4995 32.9868C46.82 33.2609 47.2008 33.4553 47.6108 33.5539C48.1184 33.7468 48.6261 33.9296 48.8393 34.4525C49.0197 35.041 49.058 35.6638 48.951 36.27C48.9256 36.534 48.9003 36.7776 48.9003 37.0467C48.8911 37.2967 48.9202 37.5467 48.9866 37.7879C49.1236 38.2347 50.6467 40.6715 53.048 44.3065L53.5151 45.002L54.0481 45.8092C54.2885 46.1812 54.6661 46.4432 55.0986 46.5382C55.5312 46.6333 55.9838 46.5538 56.358 46.3169L60.0793 43.946C60.4525 43.7097 60.7179 43.3363 60.8186 42.9062C60.9192 42.4761 60.847 42.0237 60.6175 41.6463L60.1098 40.7984L59.6884 40.108C57.4089 36.3512 55.8453 33.9448 55.5051 33.6199C55.3153 33.4572 55.1012 33.3253 54.8706 33.229C54.6421 33.1224 54.3933 33.031 54.1496 32.9447C53.553 32.7913 53.0002 32.501 52.5352 32.0969C52.1494 31.6856 52.1951 31.1627 52.2408 30.6043C52.3102 30.2412 52.3056 29.8679 52.2271 29.5067C52.1485 29.1455 51.9978 28.8039 51.7839 28.5025C51.5036 28.1217 51.128 27.8213 50.695 27.6315C50.2619 27.4417 49.7865 27.3692 49.3166 27.4211L45.9608 29.5585Z" fill="#F47B20"/>
<path d="M48.0668 25.3532L44.873 27.3887L46.0327 29.2082L49.2265 27.1727L48.0668 25.3532Z" fill="white"/>
<path d="M46.0319 29.4621C45.9889 29.462 45.9466 29.4507 45.9092 29.4293C45.8718 29.408 45.8407 29.3773 45.8187 29.3403L44.6561 27.5278C44.6387 27.5002 44.627 27.4693 44.6218 27.437C44.6166 27.4048 44.6179 27.3718 44.6257 27.34C44.6405 27.2735 44.6805 27.2152 44.7373 27.1775L47.9306 25.1468C47.9583 25.1294 47.9892 25.1178 48.0215 25.1125C48.0537 25.1073 48.0867 25.1086 48.1185 25.1164C48.1517 25.1229 48.1833 25.1362 48.2112 25.1554C48.2392 25.1747 48.2629 25.1994 48.2809 25.2281L49.4384 27.0202C49.4747 27.0767 49.487 27.1454 49.4728 27.2111C49.4585 27.2767 49.4188 27.3341 49.3623 27.3705L46.169 29.4012C46.1296 29.4334 46.0822 29.4544 46.0319 29.4621ZM45.2247 27.4669L46.1081 28.8529L48.8749 27.0912L47.9865 25.7053L45.2247 27.4669Z" fill="#F47B20"/>
<path d="M59.9018 39.9411L52.8501 44.4391C51.1291 41.8449 48.9309 38.4587 48.7481 37.8393C48.6698 37.576 48.6355 37.3016 48.6466 37.0271L54.9671 32.9961C55.2205 33.1071 55.4565 33.2541 55.6677 33.4327C56.1399 33.8642 58.2772 37.286 59.9018 39.9411Z" fill="#F47B20"/>
<path d="M52.8504 44.6921C52.808 44.6916 52.7664 44.6807 52.7292 44.6603C52.692 44.64 52.6604 44.6108 52.6372 44.5754C51.1852 42.3873 48.7128 38.6102 48.5047 37.9248C48.4197 37.6349 48.382 37.3332 48.393 37.0313C48.3939 36.989 48.405 36.9475 48.4254 36.9104C48.4457 36.8733 48.4746 36.8416 48.5097 36.8181L54.8303 32.7922C54.8678 32.7722 54.9097 32.7617 54.9522 32.7617C54.9947 32.7617 55.0365 32.7722 55.074 32.7922C55.35 32.9107 55.6067 33.0698 55.8355 33.2643C56.3432 33.772 58.7496 37.5796 60.1203 39.8235C60.1545 39.8803 60.1652 39.9482 60.15 40.0127C60.1348 40.0772 60.095 40.1332 60.0391 40.1687L52.9671 44.6515C52.9317 44.6735 52.8918 44.6873 52.8504 44.6921ZM48.9057 37.1734C48.908 37.3777 48.937 37.5808 48.992 37.7776C49.1291 38.2193 50.5963 40.5698 52.9265 44.088L59.567 39.8591C57.3636 36.2596 55.8508 33.9395 55.5055 33.6298C55.3513 33.4969 55.1807 33.3843 54.9979 33.2948L48.9057 37.1734Z" fill="#F47B20"/>
<path d="M21.4048 40.895C21.4048 41.2605 23.3746 58.2677 26.0856 58.3895C28.7966 58.5114 47.2659 47.4237 47.2659 47.4237C50.5049 46.4947 58.5871 44.8853 55.739 39.6106C55.5438 39.2128 55.2345 38.8823 54.8506 38.6612C54.2509 38.4175 53.5829 38.4013 52.9722 38.6155C52.3277 38.7825 51.7055 39.0262 51.1191 39.3415C50.9246 39.4839 50.6834 39.5474 50.4439 39.5192C50.2997 39.4622 50.1722 39.3696 50.0733 39.2501L49.058 38.1992C48.4589 39.377 47.8852 40.9661 46.809 41.6768C46.2509 41.9508 45.6655 42.1652 45.0625 42.3165L39.2598 44.4487L30.5024 47.6674L29.025 38.5292" fill="white"/>
<path d="M26.1262 58.6437H26.0602C22.9786 58.5016 21.1357 41.068 21.1357 40.875C21.1357 40.8077 21.1625 40.7432 21.2101 40.6956C21.2577 40.6479 21.3223 40.6212 21.3896 40.6212C21.4569 40.6212 21.5215 40.6479 21.5691 40.6956C21.6167 40.7432 21.6434 40.8077 21.6434 40.875C21.684 42.2661 23.7807 58.0142 26.0805 58.1361C28.1468 58.2224 40.7524 51.0286 47.1187 47.2058L47.1796 47.1804L48.134 46.9164C50.642 46.2412 54.8405 45.1141 55.8406 42.789C56.2315 41.8853 56.1198 40.8852 55.5004 39.7429C55.3301 39.3913 55.0576 39.0994 54.7186 38.9053C54.1767 38.6854 53.5724 38.6746 53.023 38.8748C52.3965 39.0381 51.7915 39.275 51.2207 39.5805C51.0982 39.6691 50.9591 39.7323 50.8118 39.7663C50.6644 39.8003 50.5117 39.8044 50.3627 39.7785C50.1644 39.716 49.9883 39.5979 49.8551 39.4383L49.0885 38.6514L48.9108 39.0271C48.4031 40.0881 47.8447 41.2913 46.9156 41.9056C46.5254 42.133 46.1049 42.3039 45.6667 42.4133C45.4738 42.4692 45.286 42.525 45.1184 42.5859L30.6293 47.9064C30.5961 47.9225 30.5596 47.9309 30.5227 47.9309C30.4858 47.9309 30.4493 47.9225 30.4161 47.9064C30.3834 47.887 30.3555 47.8605 30.3344 47.8289C30.3133 47.7972 30.2996 47.7613 30.2942 47.7236L28.8118 38.5854C28.8068 38.5524 28.8083 38.5187 28.8163 38.4863C28.8243 38.4539 28.8386 38.4234 28.8584 38.3965C28.8782 38.3696 28.9031 38.3469 28.9317 38.3297C28.9603 38.3124 28.992 38.301 29.025 38.296C29.0578 38.2903 29.0913 38.2911 29.1237 38.2985C29.1561 38.3059 29.1867 38.3196 29.2137 38.3391C29.2406 38.3585 29.2634 38.3831 29.2808 38.4114C29.2981 38.4398 29.3095 38.4713 29.3144 38.5042L30.7258 47.3276L44.9763 42.0782C45.154 42.0173 45.352 41.9564 45.5601 41.8955C45.9484 41.8021 46.3223 41.657 46.6719 41.4639C47.4791 40.9563 48.0173 39.7988 48.4894 38.7986C48.6011 38.5499 48.7179 38.291 48.8296 38.0828C48.8494 38.047 48.8771 38.0161 48.9105 37.9924C48.9438 37.9687 48.9821 37.9527 49.0225 37.9457C49.0623 37.9402 49.1028 37.9443 49.1408 37.9575C49.1787 37.9708 49.213 37.9928 49.2408 38.0219L50.2561 39.0728C50.3255 39.1584 50.4143 39.2262 50.515 39.2708C50.642 39.3114 50.8247 39.2149 51.0227 39.1185C51.6285 38.7927 52.271 38.5404 52.9367 38.3671C53.6079 38.1405 54.3387 38.1658 54.9928 38.4382C55.4305 38.6766 55.7849 39.0434 56.0081 39.4891C56.6986 40.7684 56.8204 41.9513 56.3686 42.9921C55.272 45.5304 51.0887 46.6626 48.3269 47.4089L47.4131 47.6576C46.281 48.3125 29.0098 58.6437 26.1262 58.6437Z" fill="#F47B20"/>
<path d="M29.7814 24.5078C29.7814 25.1221 31.2638 41.2612 31.2638 41.2612L20.171 43.3579C20.171 43.3579 19.308 30.4223 19.5567 29.9247" fill="#FDDAA5"/>
<path d="M20.1711 43.6116C20.1154 43.611 20.0617 43.5913 20.0188 43.5558C19.9891 43.535 19.9645 43.5078 19.9469 43.4761C19.9293 43.4445 19.9192 43.4092 19.9172 43.373C19.6583 39.4639 19.0796 30.3156 19.3283 29.813C19.3429 29.7829 19.3633 29.756 19.3885 29.734C19.4136 29.712 19.4429 29.6953 19.4747 29.6849C19.5064 29.6745 19.54 29.6706 19.5733 29.6734C19.6066 29.6762 19.6389 29.6857 19.6685 29.7013C19.6985 29.7159 19.7254 29.7363 19.7475 29.7613C19.7697 29.7864 19.7866 29.8155 19.7975 29.8471C19.8083 29.8787 19.8128 29.9121 19.8107 29.9455C19.8086 29.9788 19.8 30.0114 19.7852 30.0414C19.6431 30.5491 20.0746 38.0069 20.4046 43.0532L30.9897 41.058C30.8018 39.0273 29.5276 25.0916 29.5276 24.5077C29.5276 24.4404 29.5543 24.3759 29.6019 24.3283C29.6495 24.2806 29.7141 24.2539 29.7814 24.2539C29.8487 24.2539 29.9133 24.2806 29.9609 24.3283C30.0085 24.3759 30.0353 24.4404 30.0353 24.5077C30.0353 24.985 31.0049 35.6766 31.5126 41.2611C31.5187 41.3233 31.5012 41.3854 31.4636 41.4353C31.426 41.4851 31.371 41.519 31.3095 41.5302L20.2219 43.6066L20.1711 43.6116Z" fill="#F47B20"/>
<path d="M22.0847 84.7335C22.0252 84.7343 21.9674 84.7138 21.9217 84.6756C21.8761 84.6374 21.8456 84.5841 21.8359 84.5254C20.6371 77.6819 19.8016 70.7796 19.3331 63.8477C19.3315 63.781 19.3552 63.7161 19.3995 63.6662C19.4438 63.6163 19.5053 63.585 19.5717 63.5786C19.605 63.5765 19.6385 63.5811 19.6701 63.592C19.7016 63.6029 19.7308 63.6199 19.7558 63.642C19.7808 63.6642 19.8011 63.6911 19.8157 63.7212C19.8303 63.7512 19.8388 63.7839 19.8408 63.8172C20.303 70.729 21.1351 77.6112 22.3335 84.434C22.3453 84.4999 22.3306 84.5679 22.2926 84.6231C22.2546 84.6782 22.1962 84.7161 22.1304 84.7285L22.0847 84.7335Z" fill="white"/>
<path d="M16.2416 114.723C16.2416 114.723 12.8199 121.744 13.4342 122.236C14.0485 122.729 31.0556 125.79 30.8069 123.592C30.5581 121.394 24.6843 118.419 24.5625 115.829L16.2416 114.723Z" fill="#F47B20"/>
<path d="M28.1416 124.622C23.2831 124.622 13.7591 122.82 13.2768 122.434C12.6371 121.926 14.414 117.895 16.0183 114.611C16.0412 114.563 16.0785 114.524 16.1249 114.498C16.1714 114.473 16.2246 114.462 16.2772 114.469L24.5929 115.58C24.6523 115.587 24.7073 115.615 24.7481 115.659C24.789 115.703 24.8132 115.759 24.8163 115.819C24.8772 117.073 26.4866 118.5 28.0502 119.88C29.5326 121.185 30.9338 122.419 31.0608 123.571C31.0733 123.72 31.0383 123.869 30.9608 123.997C30.8832 124.125 30.7671 124.224 30.6292 124.282C29.8331 124.569 28.9855 124.685 28.1416 124.622ZM13.617 122.048C14.5917 122.5 28.4411 125.069 30.4262 123.805C30.5683 123.718 30.5581 123.652 30.5531 123.622C30.4515 122.668 29.0605 121.444 27.7152 120.256C26.1515 118.88 24.5422 117.459 24.3289 116.058L16.4143 114.997C14.8912 118.078 13.485 121.48 13.617 122.048Z" fill="#F47B20"/>
<path d="M35.2893 114.342C35.2893 114.342 33.6343 116.139 32.5986 121.363C32.5986 121.363 51.5248 123.059 51.7381 122.135C51.9513 121.211 46.839 119.642 45.2703 117.794C43.7015 115.946 43.9757 114.342 43.9757 114.342H35.2893Z" fill="#F47B20"/>
<path d="M49.3318 122.672C47.8799 122.672 45.6156 122.586 42.072 122.358C37.3659 122.053 32.6242 121.632 32.5785 121.627C32.5431 121.624 32.5087 121.613 32.4776 121.596C32.4464 121.579 32.4192 121.556 32.3977 121.528C32.3762 121.499 32.3608 121.467 32.3526 121.432C32.3444 121.398 32.3435 121.362 32.35 121.327C33.3654 116.093 35.0305 114.255 35.1016 114.179C35.1258 114.153 35.1549 114.133 35.1872 114.119C35.2195 114.105 35.2543 114.098 35.2895 114.098H43.9758C44.0129 114.097 44.0498 114.104 44.0833 114.12C44.1169 114.136 44.1462 114.16 44.1687 114.189C44.1933 114.216 44.2112 114.249 44.2209 114.284C44.2306 114.319 44.2318 114.356 44.2246 114.392C44.2246 114.392 43.9961 115.915 45.4633 117.636C46.2147 118.525 47.8545 119.362 49.3014 120.104C51.1595 121.053 52.1241 121.576 51.987 122.2C51.9514 122.414 51.8753 122.672 49.3318 122.672ZM32.9034 121.149C39.6758 121.748 50.3116 122.485 51.4793 122.033C51.3372 121.713 49.9563 121.017 49.0678 120.555C47.5803 119.794 45.8948 118.931 45.0775 117.966C44.223 117.052 43.7335 115.856 43.7017 114.605H35.4062C35.0965 115.001 33.7918 116.88 32.9034 121.149Z" fill="#F47B20"/>
<path d="M78.1729 34.209C78.1729 34.209 79.696 37.1383 82.5187 44.4387C85.3413 51.7391 90.0323 67.5075 88.8037 78.2246C87.5751 88.9417 80.9753 100.527 72.8423 101.882C64.7093 103.238 58.1197 100.019 56.3377 96.1456C54.5558 92.2721 55.7793 72.3254 55.4138 66.7003C55.209 63.4464 54.8277 60.2061 54.2715 56.9935C54.2715 56.9935 77.6805 44.129 78.1729 34.209Z" fill="white"/>
<path d="M69.3243 102.421C63.7754 102.421 58.0183 100.391 56.1247 96.2531C54.9063 93.6131 55.0636 83.815 55.1855 75.946C55.2464 72.0013 55.3023 68.5948 55.1855 66.7418C54.981 63.4982 54.6014 60.268 54.0483 57.0654C54.0384 57.0129 54.0454 56.9587 54.0682 56.9104C54.091 56.8621 54.1284 56.8222 54.1752 56.7964C54.4087 56.6695 77.4675 43.8709 77.9497 34.2047C77.9536 34.1498 77.9753 34.0976 78.0114 34.056C78.0476 34.0145 78.0963 33.9858 78.1501 33.9743C78.204 33.9628 78.2602 33.9692 78.3101 33.9925C78.36 34.0157 78.4011 34.0546 78.427 34.1032C78.427 34.1337 79.9754 37.1493 82.7828 44.3532C85.702 51.8821 90.3168 67.4931 89.078 78.2661C87.885 88.6531 81.3664 100.736 72.9085 102.127C71.7238 102.322 70.5251 102.421 69.3243 102.421ZM54.556 57.1416C55.0903 60.3051 55.4597 63.4942 55.6627 66.6961C55.7896 68.5745 55.7338 71.9912 55.6627 75.946C55.5409 83.7693 55.3886 93.5065 56.5562 96.0398C58.3026 99.8271 64.8517 102.959 72.8019 101.624C81.0212 100.254 87.3773 88.3942 88.5399 78.1899C89.7685 67.5287 85.1791 52.0039 82.2701 44.5207C80.28 39.3881 78.9346 36.3979 78.3204 35.0982C77.6198 39.1241 73.5431 43.9674 66.1818 49.5214C62.4658 52.2965 58.5832 54.8413 54.556 57.1416Z" fill="#F47B20"/>
<path d="M78.6451 38.9247C78.1877 42.3332 77.0463 45.6142 75.2894 48.5706C74.9289 49.2001 74.5329 49.8398 74.1065 50.4744C73.0672 52.0035 71.8372 53.3939 70.4461 54.6119C69.5907 55.3652 68.6886 56.0638 67.7453 56.7036C66.7865 57.3587 65.7859 57.9506 64.75 58.4754C63.539 59.1023 62.2664 59.6025 60.9526 59.9679C60.424 60.1099 59.8837 60.2034 59.3381 60.2471C59.0565 60.2804 58.7719 60.2804 58.4903 60.2471C56.5104 60.0035 54.83 59.1556 54.3477 57.3585C54.0786 56.3431 54.1852 55.0942 54.7944 53.4747C56.5205 48.9056 62.836 44.4127 66.9025 41.4275C70.969 38.4424 77.3353 33.9291 77.3353 33.9291C78.3151 33.589 79.0259 35.6502 78.6451 38.9247Z" fill="#F47B20"/>
<path d="M58.9168 60.5269C58.7646 60.5352 58.6121 60.5352 58.4599 60.5269C56.0688 60.2325 54.561 59.1714 54.1041 57.4504C53.8096 56.3589 53.9619 54.9983 54.561 53.389C56.2414 48.9367 62.2675 44.5148 66.2375 41.5906L66.7452 41.2301C70.7711 38.2754 77.1272 33.7825 77.1932 33.7368L77.2541 33.7063C77.3941 33.6533 77.5458 33.639 77.6932 33.6649C77.8406 33.6908 77.9783 33.756 78.0918 33.8536C78.8635 34.4729 79.1782 36.4782 78.8889 38.9659C78.4211 42.4066 77.2698 45.7191 75.5027 48.7082C75.132 49.358 74.731 50.0028 74.3147 50.6272C73.2621 52.1734 72.0167 53.5792 70.6086 54.8105C69.7459 55.5714 68.8372 56.2784 67.8875 56.9275C66.9098 57.5851 65.8925 58.1819 64.8414 58.7145C63.6166 59.354 62.3287 59.8644 60.9983 60.2375C60.4548 60.384 59.8992 60.4809 59.3382 60.5269C59.2011 60.5269 59.059 60.5269 58.9168 60.5269ZM77.4572 34.1683C76.9495 34.5186 70.9234 38.7882 67.0498 41.6312L66.5421 41.9967C62.6026 44.8854 56.6475 49.2514 55.0179 53.5616C54.4594 55.0491 54.3122 56.3031 54.5813 57.293C55.0889 59.1917 56.9927 59.8314 58.5056 59.9939C58.7705 60.0225 59.0377 60.0225 59.3027 59.9939C59.8341 59.9447 60.3605 59.8513 60.8765 59.7146C62.1705 59.3546 63.4242 58.863 64.618 58.2475C65.6437 57.7244 66.6356 57.1377 67.588 56.4909C68.529 55.8653 69.4279 55.1785 70.2787 54.4348C71.654 53.2319 72.8704 51.8585 73.8984 50.348C74.3096 49.7337 74.7056 49.0991 75.0711 48.4594C76.8013 45.5303 77.9301 42.2856 78.3913 38.9151C78.6959 36.2904 78.2847 34.6608 77.7821 34.2546C77.7403 34.2128 77.6886 34.182 77.6319 34.1652C77.5752 34.1483 77.5151 34.1459 77.4572 34.1582V34.1683Z" fill="#F47B20"/>
<path d="M68.7049 53.6738C68.3927 54.2672 68.0434 54.8404 67.659 55.3898C66.084 57.6992 63.6968 59.3305 60.9729 59.9589C60.4443 60.1005 59.904 60.1939 59.3585 60.2381C59.0769 60.2714 58.7923 60.2714 58.5107 60.2381C57.0943 60.0503 55.5611 59.5528 54.764 58.2683C53.967 56.9839 54.9722 55.0852 56.3987 54.6029C56.3692 54.185 56.44 53.7661 56.6051 53.3811C56.7703 52.9961 57.025 52.6561 57.3481 52.3894C58.1858 51.7041 60.1911 51.3741 61.2268 51.5822C61.1482 50.5722 61.3559 49.5605 61.8258 48.6631C62.0657 48.2172 62.4216 47.8446 62.856 47.5845C63.2903 47.3244 63.7869 47.1866 64.2931 47.1857C64.3634 46.5572 64.6045 45.9599 64.9902 45.4587C65.376 44.9575 65.8916 44.5716 66.4812 44.3427C67.7149 43.8807 68.8368 44.2666 69.8877 44.9367C70.9386 45.6069 70.9031 46.4293 70.6899 47.6477C70.3393 49.7459 69.6699 51.7781 68.7049 53.6738Z" fill="white"/>
<path d="M58.9171 60.527C58.7649 60.5353 58.6124 60.5353 58.4602 60.527C56.5564 60.2732 55.2314 59.5726 54.5308 58.4404C54.3418 58.1272 54.2278 57.7744 54.1979 57.4098C54.168 57.0452 54.2228 56.6786 54.3581 56.3387C54.5075 55.9222 54.741 55.541 55.0441 55.2187C55.3472 54.8965 55.7133 54.64 56.1198 54.4653C56.1166 54.0379 56.2088 53.6151 56.3897 53.2277C56.5707 52.8404 56.8357 52.4984 57.1656 52.2265C58.0033 51.5462 59.8004 51.2111 60.9478 51.3228C60.908 50.363 61.1291 49.4103 61.5875 48.5661C61.8339 48.117 62.1877 47.7358 62.6174 47.4568C63.0471 47.1777 63.5391 47.0094 64.0497 46.9669C64.1612 46.3353 64.4338 45.7432 64.8411 45.2478C65.2484 44.7524 65.7767 44.3706 66.3749 44.1392C67.8979 43.5757 69.1671 44.2255 70.0048 44.7585C71.208 45.5251 71.1369 46.5151 70.9237 47.7285C70.5594 49.8503 69.8747 51.9045 68.8929 53.8206C68.5773 54.4233 68.2229 55.005 67.8319 55.5619C66.2199 57.9201 63.7812 59.587 60.9986 60.2325C60.4569 60.3794 59.9029 60.4763 59.3435 60.5219C59.2014 60.527 59.0592 60.527 58.9171 60.527ZM60.4807 51.7848C59.4654 51.7848 58.1099 52.0843 57.4854 52.592C57.1943 52.8335 56.9651 53.1409 56.8167 53.4888C56.6684 53.8367 56.6052 54.215 56.6325 54.5922C56.6375 54.6486 56.6231 54.705 56.5917 54.752C56.5603 54.7991 56.5139 54.8341 56.4599 54.8512C56.0871 54.99 55.7487 55.208 55.4683 55.4902C55.1878 55.7725 54.9719 56.1122 54.8354 56.4859C54.7267 56.7536 54.6816 57.0428 54.7037 57.3309C54.7257 57.6189 54.8142 57.8979 54.9623 58.146C55.5816 59.1613 56.7798 59.7655 58.516 59.999C58.7794 60.0248 59.0446 60.0248 59.308 59.999C59.8394 59.9495 60.3658 59.8561 60.8818 59.7198C63.5441 59.1022 65.8776 57.5079 67.4207 55.2522C67.7937 54.7102 68.1328 54.1456 68.436 53.5617C69.391 51.689 70.052 49.6804 70.3957 47.6066C70.6241 46.3374 70.5784 45.713 69.7052 45.1545C68.502 44.3879 67.5222 44.2102 66.5221 44.5859C65.9758 44.7972 65.4978 45.1539 65.1398 45.6175C64.7819 46.0811 64.5576 46.6338 64.4914 47.2157C64.485 47.2803 64.454 47.34 64.4049 47.3825C64.3558 47.425 64.2923 47.4471 64.2274 47.4442C63.7686 47.4502 63.3197 47.5785 62.927 47.8159C62.5344 48.0533 62.2122 48.3911 61.9936 48.7946C61.5432 49.6488 61.3476 50.6145 61.4301 51.5766C61.4313 51.6152 61.4237 51.6535 61.4079 51.6887C61.392 51.7239 61.3684 51.755 61.3387 51.7797C61.3099 51.8048 61.2756 51.8229 61.2386 51.8325C61.2016 51.8422 61.1629 51.8433 61.1255 51.8356C60.913 51.7947 60.6971 51.7743 60.4807 51.7746V51.7848Z" fill="#F47B20"/>
<path d="M76.8278 32.9142C77.4167 32.5842 78.1072 32.3609 78.0919 33.1731C78.0615 34.5794 77.2136 37.5747 76.3709 37.8184C74.6956 38.3261 75.5688 34.5794 75.5688 34.5794" fill="white"/>
<path d="M76.1068 38.1187C75.9992 38.1209 75.8923 38.1018 75.7921 38.0626C75.6919 38.0234 75.6004 37.9648 75.5229 37.8902C74.7513 37.1592 75.2793 34.7883 75.3402 34.5192C75.3558 34.454 75.3967 34.3977 75.4537 34.3625C75.5108 34.3273 75.5795 34.3161 75.6448 34.3314C75.6774 34.3385 75.7083 34.3522 75.7355 34.3715C75.7627 34.3908 75.7858 34.4154 75.8033 34.4438C75.8209 34.4723 75.8325 34.5039 75.8375 34.5369C75.8426 34.57 75.8409 34.6036 75.8326 34.636C75.6245 35.5397 75.4468 37.1185 75.8732 37.5247C75.9392 37.5856 76.0509 37.6567 76.32 37.5755C76.9495 37.3927 77.843 34.6462 77.843 33.1688C77.843 33.0216 77.8176 32.915 77.7719 32.8845C77.7263 32.8541 77.574 32.7881 76.9597 33.1333C76.9308 33.1503 76.8989 33.1612 76.8657 33.1656C76.8325 33.1699 76.7988 33.1675 76.7665 33.1585C76.7343 33.1495 76.7042 33.1341 76.6781 33.1132C76.652 33.0923 76.6303 33.0663 76.6144 33.0368C76.5816 32.9782 76.5732 32.909 76.5913 32.8443C76.6094 32.7796 76.6524 32.7247 76.7109 32.6916C77.31 32.3565 77.7263 32.2753 78.0359 32.453C78.1499 32.5335 78.2395 32.6439 78.295 32.7719C78.3505 32.8999 78.3698 33.0407 78.3507 33.179C78.3253 34.4329 77.5384 37.7481 76.4469 38.0628C76.3368 38.0978 76.2223 38.1166 76.1068 38.1187Z" fill="#F47B20"/>
<path d="M45.3162 65.051C45.2753 65.0513 45.235 65.0408 45.1995 65.0206C43.778 64.2641 42.0265 61.3551 41.9554 61.2282C41.938 61.2 41.9265 61.1686 41.9214 61.1358C41.9163 61.103 41.9178 61.0696 41.9259 61.0374C41.9339 61.0053 41.9483 60.975 41.9682 60.9485C41.9881 60.922 42.0131 60.8997 42.0417 60.883C42.0703 60.8655 42.1021 60.8538 42.1353 60.8487C42.1684 60.8436 42.2023 60.845 42.2349 60.8531C42.2674 60.8611 42.2981 60.8755 42.3251 60.8954C42.352 60.9154 42.3748 60.9405 42.392 60.9693C42.392 60.9997 44.1435 63.8834 45.4381 64.5738C45.4879 64.6007 45.5273 64.6435 45.55 64.6953C45.5727 64.7472 45.5775 64.8051 45.5635 64.86C45.5494 64.9148 45.5175 64.9634 45.4727 64.998C45.4279 65.0327 45.3728 65.0513 45.3162 65.051Z" fill="white"/>
<path d="M23.9276 66.1569C23.8686 66.1558 23.8118 66.1345 23.7666 66.0966C23.7213 66.0588 23.6904 66.0066 23.6788 65.9488C23.667 65.8828 23.6816 65.8149 23.7197 65.7597C23.7577 65.7046 23.816 65.6667 23.8819 65.6543C24.0139 65.6543 27.0143 65.04 26.4507 61.8823C26.4403 61.8158 26.4563 61.7478 26.4951 61.6929C26.534 61.6379 26.5927 61.6002 26.6589 61.5878C26.6919 61.582 26.7257 61.5828 26.7585 61.5901C26.7912 61.5975 26.8221 61.6112 26.8495 61.6305C26.8769 61.6499 26.9001 61.6745 26.918 61.7029C26.9358 61.7313 26.9478 61.7629 26.9533 61.796C27.6032 65.4513 24.0139 66.1468 23.9733 66.1569H23.9276Z" fill="white"/>
<path d="M78.6455 38.9258C78.1881 42.3343 77.0467 45.6152 75.2897 48.5717C74.9293 49.2012 74.5333 49.8408 74.1069 50.4754C72.3991 52.9352 70.2406 55.0489 67.7457 56.7046C67.9132 56.593 67.5477 53.2575 67.568 52.7905C67.5883 52.3234 67.7355 51.8106 67.7457 51.3537C67.7457 50.6937 67.3497 50.0845 67.238 49.4296C67.1447 48.9274 67.1774 48.4099 67.3334 47.9234C67.4893 47.437 67.7636 46.9968 68.1315 46.6425C67.8979 46.5545 67.7035 46.3859 67.5834 46.1671C67.4633 45.9483 67.4254 45.6937 67.4766 45.4494C67.5929 44.9629 67.8702 44.53 68.2635 44.2209C69.3084 43.244 70.5371 42.4847 71.8782 41.9871C72.0736 41.8916 72.2959 41.8665 72.5077 41.916C72.7311 42.0023 72.8478 42.246 73.056 42.3628C73.5078 42.6268 74.0409 42.1851 74.4521 41.8551C74.8633 41.5251 75.6553 41.3931 75.7771 41.9008C75.7598 41.5134 75.8218 41.1267 75.9595 40.7642C76.0971 40.4017 76.3075 40.0712 76.5775 39.7931C76.8476 39.5149 77.1718 39.2949 77.53 39.1466C77.8883 38.9984 78.2731 38.9249 78.6607 38.9309L78.6455 38.9258Z" fill="white"/>
<path d="M67.7455 56.973C67.701 56.9727 67.6575 56.9608 67.6191 56.9384C67.5807 56.916 67.5489 56.8839 67.5268 56.8454C67.5047 56.8068 67.4931 56.7632 67.4932 56.7188C67.4932 56.6743 67.5049 56.6307 67.5272 56.5922C67.5275 55.78 67.4852 54.9682 67.4002 54.1604C67.3444 53.4294 67.3089 52.9674 67.3139 52.7948C67.3291 52.5461 67.3596 52.2985 67.4053 52.0536C67.45 51.8257 67.4788 51.595 67.4916 51.3631C67.4719 50.9991 67.3823 50.6423 67.2276 50.3122C67.1218 50.0469 67.0369 49.7736 66.9738 49.4949C66.8846 49.0095 66.9034 48.5104 67.0289 48.0331C67.1544 47.5557 67.3834 47.1119 67.6998 46.7331C67.507 46.5791 67.3584 46.3768 67.2692 46.1467C67.18 45.9166 67.1534 45.667 67.1921 45.4233C67.3122 44.8775 67.6193 44.3908 68.0602 44.0475C69.1281 43.0479 70.3845 42.2712 71.7561 41.763C72.0099 41.6432 72.2986 41.6198 72.5684 41.697C72.7217 41.7651 72.8572 41.8675 72.9644 41.9965C73.0174 42.0589 73.079 42.1136 73.1472 42.1589C73.4365 42.3265 73.8731 41.9813 74.2234 41.702C74.3985 41.5512 74.6056 41.4423 74.829 41.3833C75.0524 41.3244 75.2863 41.3171 75.5129 41.3619C75.6166 40.6959 75.9299 40.0803 76.4074 39.6046C76.8849 39.129 77.5017 38.818 78.1681 38.7169C78.3202 38.7063 78.4729 38.7063 78.625 38.7169C78.6606 38.7158 78.6961 38.7225 78.7289 38.7366C78.7616 38.7506 78.7909 38.7717 78.8146 38.7984C78.8384 38.825 78.856 38.8565 78.8662 38.8907C78.8764 38.9248 78.879 38.9608 78.8738 38.9961C78.406 42.4369 77.2547 45.7493 75.4875 48.7384C75.1169 49.3883 74.7159 50.033 74.2996 50.6575C72.5763 53.1449 70.395 55.2814 67.8724 56.9527C67.832 56.9684 67.7887 56.9753 67.7455 56.973ZM72.3146 42.1539C72.1908 42.1644 72.0693 42.1935 71.9541 42.2402C70.6454 42.7277 69.4462 43.4697 68.4258 44.4232C68.0729 44.6946 67.8223 45.0776 67.715 45.5096C67.6767 45.6916 67.7029 45.8813 67.789 46.0461C67.8752 46.211 68.0159 46.3407 68.1871 46.4133C68.2305 46.4249 68.2699 46.448 68.3012 46.4802C68.3325 46.5123 68.3545 46.5524 68.3648 46.596C68.3764 46.6401 68.3759 46.6864 68.3634 46.7302C68.3509 46.7739 68.3268 46.8135 68.2938 46.8448C67.9604 47.1688 67.7115 47.5697 67.569 48.0122C67.4265 48.4548 67.3947 48.9255 67.4764 49.3832C67.5325 49.6333 67.6107 49.8779 67.7099 50.1142C67.8874 50.5078 67.9873 50.9318 68.0044 51.3631C67.9912 51.6187 67.9606 51.8732 67.913 52.1246C67.8702 52.3477 67.8414 52.5732 67.8267 52.7999C67.8267 52.9522 67.8673 53.5157 67.913 54.1046C67.9942 55.1555 68.0399 55.7952 68.0501 56.1912C70.3364 54.6046 72.3191 52.6202 73.9036 50.3325C74.3148 49.7183 74.7108 49.0837 75.0763 48.444C76.7472 45.6011 77.8586 42.4648 78.3509 39.2043H78.2493C77.6151 39.3069 77.0394 39.6352 76.628 40.1287C76.2166 40.6221 75.9973 41.2476 76.0105 41.8899C76.0199 41.9572 76.0022 42.0255 75.9612 42.0798C75.9203 42.134 75.8595 42.1698 75.7922 42.1792C75.7248 42.1887 75.6565 42.171 75.6023 42.13C75.548 42.0891 75.5122 42.0283 75.5028 41.9609C75.4957 41.9308 75.4807 41.9031 75.4592 41.8808C75.4378 41.8585 75.4108 41.8423 75.3809 41.834C75.2394 41.8118 75.0948 41.8197 74.9565 41.8573C74.8183 41.895 74.6895 41.9614 74.5788 42.0523C74.0965 42.4382 73.4873 42.9255 72.8933 42.56C72.7851 42.4918 72.6876 42.408 72.6039 42.3112C72.5436 42.2382 72.4695 42.1778 72.3856 42.1336C72.3604 42.1296 72.3347 42.1296 72.3095 42.1336L72.3146 42.1539Z" fill="#F47B20"/>
<path d="M75.3048 48.566C74.9444 49.1955 74.5484 49.8352 74.1219 50.4698C71.7206 54.054 68.0603 56.8107 64.7654 58.4708C63.5544 59.0978 62.2818 59.5979 60.968 59.9634C60.2979 59.0242 60.11 57.7245 60.6786 56.2116C61.5772 53.8205 64.8467 53.4448 67.0601 53.4702C66.9688 52.6122 66.7048 51.7491 66.9332 50.8709C67.1617 49.9926 67.9486 49.2158 68.8319 49.3478C69.0756 49.3478 69.3396 49.4595 69.5478 49.3224C69.6864 49.1841 69.7802 49.0072 69.8168 48.8148C69.9459 48.4562 70.156 48.1322 70.4307 47.868C70.7054 47.6039 71.0374 47.4067 71.4008 47.2917C72.1041 47.0851 72.8535 47.0962 73.5503 47.3237C74.2472 47.5511 74.8588 47.9842 75.3048 48.566Z" fill="white"/>
<path d="M60.9525 60.2185C60.9119 60.2179 60.872 60.208 60.8359 60.1895C60.7998 60.171 60.7685 60.1445 60.7443 60.1119C60.3613 59.5276 60.1313 58.8565 60.0754 58.1601C60.0195 57.4637 60.1395 56.7645 60.4245 56.1266C61.3129 53.7609 64.2981 53.2278 66.7552 53.2176C66.7552 53.0958 66.7197 52.974 66.6994 52.8521C66.5507 52.1842 66.542 51.4928 66.674 50.8214C66.9177 49.872 67.801 48.9633 68.8468 49.0852H69.0093C69.1331 49.1251 69.2663 49.1251 69.3901 49.0852C69.4611 49.0395 69.4967 48.9024 69.5373 48.7602V48.6942C69.6767 48.2951 69.9063 47.9335 70.2084 47.6376C70.5104 47.3417 70.8767 47.1196 71.2786 46.9884C72.0382 46.7666 72.8477 46.7841 73.5971 47.0384C74.3464 47.2927 74.9993 47.7716 75.467 48.4099C75.4967 48.4514 75.5127 48.5011 75.5127 48.5521C75.5127 48.6031 75.4967 48.6528 75.467 48.6942C75.0964 49.3441 74.6953 49.9888 74.279 50.6133C71.8473 54.053 68.5967 56.8326 64.821 58.7006C63.5962 59.34 62.3082 59.8505 60.9779 60.2236L60.9525 60.2185ZM66.8314 53.7253C64.5214 53.7253 61.6988 54.1873 60.9017 56.3043C60.6621 56.8386 60.5519 57.4219 60.5801 58.0067C60.6083 58.5916 60.7742 59.1615 61.0642 59.6702C62.2911 59.31 63.481 58.8341 64.6179 58.2487C68.3162 56.4194 71.5004 53.6975 73.883 50.329C74.2638 49.7654 74.6242 49.1816 74.9644 48.5927C74.5523 48.0831 74.0001 47.7052 73.3757 47.5059C72.7514 47.3065 72.0824 47.2943 71.4512 47.4707C71.1244 47.5736 70.8258 47.7509 70.5792 47.9888C70.3325 48.2267 70.1444 48.5185 70.0297 48.8415V48.9024C69.9883 49.1363 69.8661 49.3483 69.6845 49.5014C69.5726 49.5659 69.4488 49.6071 69.3206 49.6228C69.1924 49.6385 69.0624 49.6283 68.9382 49.5928H68.7961C68.0295 49.5014 67.3594 50.2274 67.1715 50.9483C67.054 51.5566 67.0662 52.1828 67.2071 52.7861C67.2426 53.0095 67.2781 53.2329 67.3035 53.4613C67.3065 53.4971 67.3023 53.5331 67.2909 53.5671C67.2796 53.6012 67.2614 53.6325 67.2375 53.6593C67.2124 53.6851 67.1824 53.7055 67.1493 53.7195C67.1161 53.7334 67.0805 53.7406 67.0446 53.7406L66.8314 53.7253Z" fill="#F47B20"/>
<path d="M64.5319 58.0809C64.5836 58.2219 64.6573 58.3539 64.7502 58.4718C63.0701 59.389 61.2357 59.9896 59.3384 60.2436C59.5684 59.8502 59.7039 59.4088 59.7344 58.9541C59.7344 57.9387 58.0133 57.6748 57.8357 55.8268C57.7796 55.303 57.8644 54.7736 58.0812 54.2935C58.2981 53.8133 58.6392 53.3998 59.0693 53.0955L59.3587 53.0447L63.08 52.3594C63.5914 52.4922 64.0578 52.7596 64.431 53.1336C64.8042 53.5077 65.0704 53.9748 65.2021 54.4865C65.6844 56.2736 64.1613 57.1163 64.5319 58.0809Z" fill="white"/>
<path d="M59.3382 60.4962C59.2969 60.4968 59.2561 60.4868 59.2197 60.4673C59.1833 60.4477 59.1524 60.4193 59.13 60.3845C59.1078 60.3459 59.096 60.3022 59.096 60.2576C59.096 60.213 59.1078 60.1693 59.13 60.1307C59.3412 59.7712 59.4679 59.3685 59.5006 58.9529C59.5006 58.633 59.2569 58.3944 58.866 58.034C58.4601 57.7347 58.1316 57.3427 57.908 56.8906C57.6844 56.4385 57.5721 55.9395 57.5805 55.4353C57.589 54.931 57.7179 54.436 57.9565 53.9917C58.1952 53.5474 58.5366 53.1666 58.9523 52.881C58.9809 52.8648 59.0117 52.8529 59.0437 52.8455L63.0544 52.1094H63.1204C63.6099 52.2305 64.0635 52.4666 64.4435 52.7981C64.8236 53.1295 65.1192 53.5468 65.3058 54.0153C65.4924 54.4838 65.5646 54.99 65.5166 55.492C65.4685 55.994 65.3014 56.4773 65.0292 56.9019C64.7856 57.3791 64.6434 57.6837 64.7602 57.9883C64.8029 58.109 64.8646 58.2221 64.9429 58.3233C64.9646 58.3529 64.9795 58.3869 64.9865 58.4229C64.9936 58.4589 64.9925 58.496 64.9836 58.5315C64.9747 58.5672 64.9584 58.6006 64.9356 58.6295C64.9128 58.6584 64.8842 58.6821 64.8516 58.699C63.1425 59.6297 61.2772 60.2388 59.3483 60.4962H59.3382ZM59.1656 53.338C58.7857 53.6177 58.4863 53.9925 58.2973 54.4248C58.1084 54.857 58.0366 55.3314 58.0893 55.8002C58.1368 56.1687 58.2585 56.5238 58.4469 56.844C58.6354 57.1642 58.8868 57.4429 59.1859 57.6634C59.4061 57.8062 59.5921 57.9958 59.7307 58.2187C59.8694 58.4415 59.9572 58.6922 59.988 58.9529C59.978 59.2947 59.9003 59.6312 59.7596 59.9428C61.371 59.6518 62.9299 59.1213 64.3845 58.369C64.3489 58.3038 64.3183 58.2359 64.2931 58.166C64.09 57.6583 64.3337 57.1506 64.5825 56.6734C64.7853 56.3644 64.9228 56.0172 64.9865 55.6532C65.0503 55.2891 65.0389 54.9159 64.9531 54.5564C64.8393 54.0965 64.6054 53.6752 64.2754 53.3353C63.9453 52.9955 63.531 52.7494 63.0747 52.6221L59.1656 53.338Z" fill="#F47B20"/>
<path d="M62.6929 50.2493L58.9673 50.9297L59.3549 53.0522L63.0806 52.3718L62.6929 50.2493Z" fill="white"/>
<path d="M59.3589 53.2976C59.3063 53.2973 59.2551 53.2814 59.2116 53.2519C59.1848 53.2329 59.162 53.2087 59.1446 53.1808C59.1272 53.153 59.1154 53.1219 59.1101 53.0894L58.7192 50.9673C58.7134 50.9343 58.7141 50.9005 58.7215 50.8678C58.7288 50.8351 58.7425 50.8041 58.7619 50.7767C58.7812 50.7494 58.8058 50.7261 58.8342 50.7083C58.8626 50.6904 58.8943 50.6784 58.9273 50.6729L62.6486 49.9926C62.7158 49.9802 62.7851 49.9948 62.8415 50.0332C62.8685 50.052 62.8915 50.0761 62.9089 50.1041C62.9264 50.132 62.938 50.1631 62.9431 50.1957L63.334 52.3178C63.3458 52.3837 63.3312 52.4517 63.2931 52.5068C63.2551 52.562 63.1968 52.5999 63.1309 52.6122L59.4045 53.2925L59.3589 53.2976ZM59.2675 51.1247L59.5619 52.7493L62.7857 52.1604L62.4912 50.5358L59.2675 51.1247Z" fill="#F47B20"/>
<path d="M71.6396 44.6937C71.59 44.6928 71.5418 44.6776 71.5006 44.65C71.4594 44.6224 71.427 44.5836 71.4073 44.5382C71.3875 44.4928 71.3812 44.4426 71.389 44.3937C71.3969 44.3448 71.4187 44.2991 71.4517 44.2622C71.9184 43.6985 72.5477 43.2926 73.2538 43.0999C73.9598 42.9073 74.7081 42.9373 75.3964 43.1859C75.4583 43.2135 75.5067 43.2646 75.531 43.3279C75.5553 43.3912 75.5534 43.4616 75.5258 43.5235C75.4982 43.5855 75.4472 43.6339 75.3838 43.6582C75.3205 43.6825 75.2502 43.6806 75.1882 43.653C75.1172 43.6175 73.4215 42.8966 71.8274 44.6125C71.7776 44.6628 71.7103 44.6919 71.6396 44.6937Z" fill="#D1D3D4"/>
<path d="M68.7964 54.7196C68.734 54.7201 68.6736 54.6975 68.6268 54.6563C68.58 54.6151 68.55 54.5582 68.5425 54.4962C68.3553 53.399 68.4585 52.2718 68.8421 51.2268C69.0469 50.6835 69.3929 50.2047 69.8445 49.8397C70.296 49.4747 70.8367 49.2368 71.4109 49.1504C71.4441 49.1462 71.4779 49.1488 71.51 49.1582C71.5421 49.1676 71.572 49.1835 71.5977 49.2049C71.6234 49.2264 71.6445 49.2529 71.6595 49.2828C71.6745 49.3127 71.6832 49.3454 71.685 49.3789C71.6885 49.4119 71.6854 49.4454 71.6757 49.4772C71.666 49.5091 71.6501 49.5386 71.6288 49.5642C71.6075 49.5898 71.5812 49.6108 71.5517 49.6261C71.5221 49.6413 71.4898 49.6505 71.4566 49.653C70.9749 49.7311 70.5226 49.9358 70.1462 50.2463C69.7697 50.5567 69.4826 50.9617 69.3142 51.4197C68.9616 52.3839 68.8688 53.4239 69.0451 54.4353C69.0538 54.5019 69.0357 54.5693 68.9947 54.6226C68.9538 54.6759 68.8934 54.7108 68.8268 54.7196H68.7964Z" fill="#D1D3D4"/>
<path d="M63.9685 49.6232C63.9352 49.6219 63.9024 49.6141 63.8721 49.6001C63.8418 49.5861 63.8146 49.5663 63.7919 49.5418C63.7693 49.5173 63.7517 49.4885 63.7402 49.4572C63.7287 49.4259 63.7235 49.3926 63.7248 49.3593C63.7639 48.8117 63.9794 48.2916 64.3391 47.8768C64.6811 47.4869 65.0819 47.1529 65.5271 46.8869C65.5835 46.8547 65.6502 46.8453 65.7133 46.8608C65.7764 46.8763 65.8312 46.9154 65.8664 46.9701C65.9015 47.0248 65.9144 47.0908 65.9022 47.1547C65.8901 47.2186 65.854 47.2753 65.8012 47.3133C65.3996 47.5512 65.0381 47.851 64.73 48.2018C64.437 48.5306 64.2588 48.9457 64.2223 49.3846C64.2173 49.4489 64.1885 49.5089 64.1416 49.553C64.0946 49.5971 64.0329 49.6222 63.9685 49.6232Z" fill="#D1D3D4"/>
<path d="M68.7046 79.8486C68.6638 79.8492 68.6235 79.8399 68.5872 79.8213C68.5509 79.8027 68.5198 79.7755 68.4965 79.742C68.4584 79.6865 68.4435 79.6183 68.4549 79.5519C68.4663 79.4856 68.503 79.4263 68.5574 79.3866C77.0102 73.4315 80.3203 51.0125 80.3507 50.7891C80.3602 50.7218 80.3959 50.661 80.4502 50.6201C80.5045 50.5791 80.5728 50.5614 80.6401 50.5708C80.7074 50.5803 80.7682 50.616 80.8092 50.6703C80.8501 50.7246 80.8678 50.7929 80.8584 50.8602C80.2133 54.9603 79.3061 59.0148 78.1423 62.9988C75.6039 71.5887 72.4868 77.2442 68.8569 79.8029C68.812 79.8334 68.7589 79.8494 68.7046 79.8486Z" fill="#D1D3D4"/>
<path d="M64.8366 91.3987C63.0668 91.3908 61.3252 90.9553 59.7598 90.1295C59.7019 90.0945 59.6603 90.038 59.6441 89.9723C59.6279 89.9066 59.6385 89.8371 59.6735 89.7792C59.7085 89.7213 59.7651 89.6797 59.8308 89.6635C59.8965 89.6474 59.9659 89.6579 60.0238 89.6929C60.3335 89.8757 67.6796 94.1047 73.2234 85.8295C73.2606 85.7739 73.3183 85.7352 73.384 85.7219C73.4496 85.7086 73.5178 85.7217 73.5737 85.7584C73.6297 85.7966 73.6685 85.8552 73.6818 85.9216C73.6951 85.9881 73.6818 86.0571 73.6448 86.1138C70.8526 90.3072 67.5273 91.3987 64.8366 91.3987Z" fill="#D1D3D4"/>
<path d="M140.064 101.487C139.997 101.487 139.932 101.46 139.885 101.412C139.837 101.365 139.81 101.3 139.81 101.233C139.81 99.2021 139.242 97.6791 138.12 96.7095C136.323 95.1204 133.667 95.42 133.642 95.425C133.575 95.4338 133.507 95.4154 133.453 95.374C133.399 95.3326 133.364 95.2715 133.355 95.2042C133.346 95.1369 133.365 95.0688 133.406 95.015C133.448 94.9612 133.509 94.9261 133.576 94.9174C133.698 94.9174 136.48 94.5772 138.455 96.3236C139.694 97.4151 140.318 99.0651 140.318 101.228C140.319 101.262 140.313 101.295 140.3 101.326C140.288 101.358 140.269 101.386 140.245 101.411C140.222 101.435 140.194 101.454 140.162 101.467C140.131 101.48 140.098 101.487 140.064 101.487Z" fill="#D1D3D4"/>
<path d="M6.06767 107.158C3.3059 107.158 0.173535 102.538 0.0415389 102.34C0.0144134 102.298 0 102.248 0 102.198C0 102.148 0.0144134 102.098 0.0415389 102.056C0.0711682 102.015 0.111613 101.984 0.158279 101.965C0.204945 101.946 0.255961 101.94 0.305531 101.949C2.26009 102.355 4.60048 103.609 6.22505 104.599C4.05378 101.974 2.57071 98.8489 1.90979 95.5068C1.903 95.4661 1.9064 95.4245 1.91969 95.3855C1.93298 95.3465 1.95575 95.3114 1.98594 95.2834C2.01722 95.2554 2.05472 95.2353 2.09534 95.2247C2.13595 95.2141 2.17851 95.2133 2.21948 95.2225C5.61076 96.0703 7.7227 99.4869 8.91066 102.259C8.20993 98.1369 8.00201 93.9462 8.2913 89.7751C8.29559 89.7251 8.31459 89.6775 8.34591 89.6383C8.37722 89.5992 8.41944 89.5701 8.46724 89.5549C8.51504 89.5397 8.56627 89.539 8.61447 89.5529C8.66267 89.5668 8.70567 89.5946 8.73805 89.6329C14.6017 96.5018 13.6219 106.026 13.6118 106.122C13.6093 106.156 13.6 106.188 13.5844 106.218C13.5688 106.248 13.5472 106.274 13.5209 106.295C13.4947 106.316 13.4645 106.331 13.432 106.34C13.3996 106.349 13.3657 106.351 13.3325 106.346C13.266 106.338 13.2052 106.304 13.1633 106.252C13.1215 106.2 13.102 106.133 13.1092 106.066C13.1092 105.975 14.023 97.0958 8.74821 90.4452C8.49147 95.645 8.9631 100.855 10.1494 105.924C10.1494 105.985 10.1494 106.021 10.1494 106.041C10.1642 106.108 10.1517 106.179 10.1145 106.237C10.0774 106.295 10.0187 106.336 9.9514 106.351C9.88408 106.366 9.81363 106.353 9.75556 106.316C9.69748 106.279 9.65653 106.22 9.64172 106.153V106.117C9.49449 105.508 7.49424 97.4613 2.45808 95.8266C2.76777 97.2735 4.10803 102.34 8.19484 105.904C8.24415 105.947 8.27487 106.008 8.28055 106.073C8.28622 106.138 8.26643 106.203 8.2253 106.254C8.18518 106.306 8.12656 106.339 8.06201 106.348C7.99747 106.356 7.93216 106.339 7.88008 106.3C7.83947 106.3 3.95066 103.518 0.833516 102.614C1.75241 103.838 4.07758 106.65 6.03721 106.65C6.10413 106.652 6.16794 106.679 6.21526 106.726C6.26259 106.773 6.28975 106.837 6.29105 106.904C6.2915 106.966 6.26898 107.027 6.22778 107.074C6.18658 107.12 6.12958 107.15 6.06767 107.158Z" fill="#D1D3D4"/>
</svg>
