<svg width="167" height="132" viewBox="0 0 167 132" fill="none" xmlns="http://www.w3.org/2000/svg">
<path d="M10.5348 37.8619C12.8331 34.5408 15.2282 31.2941 17.72 28.1217C18.3071 27.2226 19.1237 26.4965 20.0853 26.0186C21.0783 25.6225 22.4283 25.9238 22.8244 26.9112C23.1144 27.6308 22.8244 28.4341 22.5454 29.1426C20.8843 33.1899 18.7195 37.0116 16.1022 40.5173C18.6859 35.8015 22.4082 31.8069 26.9302 28.8971C27.9217 33.2842 27.1696 37.8849 24.8326 41.7278C25.6227 39.8584 26.8143 38.1856 28.3231 36.8282C29.8319 35.4708 31.6208 34.4619 33.5631 33.8732C33.0393 37.526 31.5872 40.9833 29.3457 43.9146C30.8154 41.5877 32.7007 39.5511 34.9075 37.9065C35.0908 37.7265 35.3126 37.5903 35.556 37.5081C35.7995 37.426 36.0584 37.4001 36.3133 37.4323C37.1836 37.6834 37.1278 38.9386 36.821 39.7865C36.1844 41.5609 35.2774 43.2262 34.1321 44.7235C34.5635 43.4682 35.3622 42.3714 36.4246 41.5756C37.487 40.7798 38.764 40.3217 40.09 40.2607C41.1555 40.2272 36.185 49.8 35.8057 50.4192C33.6356 54.2684 33.803 57.0075 33.5743 61.2138C32.9773 71.6847 31.9007 82.8251 32.8825 93.257C33.1614 96.2304 38.0315 125.501 40.2239 125.328C32.9383 125.886 26.3444 128.145 19.0811 127.649C15.5945 127.415 9.09551 128.034 5.99941 126.422C1.92148 124.296 4.15848 113.033 4.13617 109.351C4.06922 100.425 2.50723 91.6337 1.40267 82.814C0.415263 74.9314 -0.220693 66.876 0.883863 58.9712C1.994 50.793 5.89899 44.545 10.5348 37.8619Z" fill="white"/>
<path d="M21.1394 127.983C20.4365 127.983 19.728 127.983 19.0196 127.91C18.06 127.843 16.8495 127.843 15.5776 127.849C12.0798 127.849 8.1302 127.849 5.83184 126.65C2.4847 124.92 3.13181 117.886 3.60041 112.748C3.72314 111.353 3.83471 110.154 3.82913 109.334C3.77892 102.517 2.83615 95.6439 1.92126 88.9998C1.63675 86.9413 1.36341 84.8884 1.10121 82.8299C0.197485 75.628 -0.572357 67.1486 0.582406 58.9146C1.73717 50.6807 5.67563 44.4104 10.317 37.7161C12.5931 34.3913 15.0197 31.1111 17.4966 27.948C18.2497 26.9885 18.9582 26.1573 19.9791 25.7556C21 25.354 22.6177 25.6497 23.0863 26.81C23.4155 27.6245 23.0863 28.4836 22.8018 29.2534C22.1882 30.741 21.5057 32.2082 20.7545 33.6549C22.5531 31.7446 24.5761 30.0588 26.7793 28.6342C26.819 28.6136 26.863 28.6029 26.9077 28.6029C26.9523 28.6029 26.9963 28.6136 27.036 28.6342C27.078 28.6501 27.1154 28.6763 27.1446 28.7104C27.1739 28.7445 27.194 28.7855 27.2033 28.8294C27.8806 31.8281 27.7594 34.9519 26.8519 37.889C28.6037 35.8442 30.9059 34.3456 33.4848 33.5712C33.5297 33.5578 33.5772 33.5558 33.623 33.5655C33.6688 33.5753 33.7115 33.5964 33.747 33.627C33.7822 33.6578 33.8093 33.6968 33.8258 33.7406C33.8424 33.7844 33.8479 33.8316 33.8418 33.878C33.5394 36.0186 32.9189 38.1019 32.0009 40.0591C32.8399 39.1977 33.7465 38.4048 34.7121 37.6882C34.9295 37.4747 35.1949 37.3162 35.486 37.226C35.7771 37.1357 36.0855 37.1163 36.3856 37.1694C36.5422 37.2128 36.6879 37.289 36.8129 37.3928C36.9379 37.4967 37.0394 37.6259 37.1108 37.7719C37.3706 38.455 37.3586 39.2116 37.0774 39.8862C36.9323 40.299 36.765 40.7118 36.592 41.1079C37.6272 40.4176 38.835 40.0311 40.0786 39.9921C40.1499 39.9875 40.221 40.0028 40.2841 40.0363C40.3471 40.0698 40.3996 40.1202 40.4357 40.1818C41.0437 41.2027 36.0732 50.452 36.023 50.5189C34.1654 53.8102 34.0538 56.2481 33.892 59.6175C33.892 60.1252 33.8474 60.644 33.8139 61.1907C33.7079 63.0595 33.5852 64.9506 33.4625 66.8585C32.9046 75.6001 32.3077 84.643 33.1166 93.1949C33.5294 97.5239 38.3493 124.658 40.1623 124.993C40.2363 124.987 40.3096 125.011 40.3661 125.059C40.4226 125.107 40.4576 125.175 40.4636 125.249C40.4695 125.323 40.4458 125.397 40.3976 125.453C40.3495 125.51 40.2809 125.545 40.207 125.551C37.4177 125.768 34.6898 126.242 32.0511 126.7C28.5143 127.352 24.8659 127.983 21.1394 127.983ZM15.8119 127.291C17.0113 127.291 18.1437 127.291 19.0586 127.352C23.5215 127.659 27.5994 126.945 31.9451 126.192C34.3774 125.768 36.8821 125.333 39.4538 125.076C38.7398 124.005 37.5516 120.686 35.521 110.494C34.0371 103.03 32.7317 94.8741 32.5643 93.2507C31.7498 84.6541 32.3356 75.5945 32.9046 66.825C33.0273 64.9227 33.1501 63.0316 33.2561 61.1684C33.2895 60.6105 33.3118 60.1029 33.3397 59.6008C33.4904 56.2537 33.6131 53.654 35.5377 50.2511C36.3354 48.8397 39.9224 41.7048 39.9392 40.5054C38.4764 40.6074 37.0953 41.2171 36.0342 42.2291C35.5488 43.1562 34.9891 44.0424 34.3606 44.879C34.3221 44.9353 34.2642 44.9755 34.1979 44.992C34.1317 45.0086 34.0617 45.0002 34.0012 44.9686C33.9407 44.937 33.8939 44.8843 33.8697 44.8205C33.8455 44.7567 33.8455 44.6862 33.8697 44.6224C34.2141 43.5881 34.8058 42.6536 35.5935 41.9C35.9673 41.1791 36.2916 40.4335 36.5642 39.6686C36.789 39.1371 36.8109 38.5415 36.6255 37.995C36.5878 37.9186 36.5346 37.8508 36.4693 37.7961C36.404 37.7413 36.328 37.7008 36.2462 37.677C36.0322 37.659 35.8169 37.6881 35.6155 37.7623C35.414 37.8365 35.2313 37.954 35.0802 38.1066C33.4553 39.3181 32.0076 40.7508 30.7792 42.363C30.411 42.9209 30.0205 43.5122 29.6021 44.0366C29.558 44.0926 29.4941 44.1296 29.4235 44.14C29.353 44.1504 29.2811 44.1333 29.2228 44.0924C29.1635 44.0526 29.1222 43.9912 29.1076 43.9214C29.093 43.8516 29.1063 43.7788 29.1447 43.7186C29.5073 43.1608 29.9033 42.5639 30.3162 42.0451C31.8015 39.661 32.8007 37.0068 33.2561 34.2351C30.3428 35.214 27.8511 37.1586 26.1936 39.7467C25.8768 40.4651 25.5134 41.162 25.1058 41.8331C25.0678 41.8925 25.009 41.9356 24.941 41.9542C24.873 41.9727 24.8005 41.9654 24.7376 41.9335C24.6751 41.9011 24.6272 41.8464 24.6034 41.7801C24.5796 41.7139 24.5817 41.6412 24.6093 41.5765C24.9204 40.8484 25.2937 40.1485 25.725 39.4845C27.1155 36.2924 27.4932 32.7506 26.8072 29.3371C24.0193 31.163 21.5362 33.4164 19.4491 36.0146C18.4942 37.6343 17.4513 39.2005 16.3251 40.7062C16.2828 40.7625 16.2207 40.8007 16.1514 40.8131C16.0821 40.8255 16.0106 40.8112 15.9514 40.7731C15.8929 40.7343 15.8509 40.6752 15.8334 40.6072C15.8159 40.5393 15.8241 40.4672 15.8565 40.405C16.7631 38.7476 17.8121 37.1722 18.9917 35.6967C20.2457 33.5643 21.3474 31.3459 22.2886 29.0582C22.5564 28.3999 22.8465 27.6524 22.5675 27.0276C22.2217 26.174 21.0334 25.9509 20.1855 26.2856C19.3375 26.6203 18.6402 27.4013 17.9541 28.2995C15.4828 31.4569 13.0672 34.7316 10.7856 38.0285C6.18329 44.6726 2.27829 50.8592 1.14026 58.9983C0.00223539 67.1374 0.76092 75.6057 1.65907 82.7742C1.91568 84.8271 2.21692 86.88 2.47912 88.9106C3.394 95.577 4.34236 102.466 4.39256 109.317C4.39256 110.165 4.28657 111.381 4.16384 112.787C3.74545 117.484 3.1095 124.585 6.11076 126.147C8.2864 127.263 12.3364 127.263 15.5943 127.263L15.8119 127.291Z" fill="#F47B20"/>
<path d="M43.5986 132C43.342 130.505 37.0327 105.123 37.0327 105.123L0.626953 98.6738L1.27407 130.806L43.5986 132Z" fill="#FEEFD2"/>
<path d="M79.5361 6.13672V55.6576H141.352C141.352 54.3801 141.469 51.0497 141.352 49.8001C138.931 24.2336 112.081 6.13672 79.5361 6.13672Z" fill="#F47B20"/>
<path d="M141.631 55.9362H79.2515V5.85742H79.5304C95.4684 5.85742 110.514 10.2199 121.9 18.1303C133.453 26.1746 140.459 37.4098 141.625 49.7496C141.715 50.6589 141.676 52.5779 141.625 54.1176C141.625 54.7256 141.625 55.2668 141.625 55.6349L141.631 55.9362ZM79.8093 55.3783H141.073C141.073 55.0325 141.073 54.6029 141.073 54.1287C141.101 52.6839 141.14 50.6979 141.073 49.8277C139.924 37.6497 133.001 26.5595 121.582 18.5877C110.358 10.7777 95.5297 6.44317 79.8093 6.39297V55.3783Z" fill="#F47B20"/>
<path d="M10.8525 64.2319C10.8525 91.5668 38.5334 113.753 72.6742 113.753C106.815 113.753 134.496 91.5836 134.496 64.2319V57.8221L72.6742 64.2319V14.7109C38.5334 14.7109 10.8525 36.8969 10.8525 64.2319Z" fill="#F47B20"/>
<path d="M10.8525 57.8217C10.8525 85.1567 38.5334 107.343 72.6742 107.343C106.815 107.343 134.496 85.1734 134.496 57.8217H72.6742V8.30078C38.5334 8.30078 10.8525 30.4812 10.8525 57.8217Z" fill="#FEEFD2"/>
<path d="M79.5361 0.279297V49.8002H141.352C141.352 22.4652 113.671 0.279297 79.5361 0.279297Z" fill="white"/>
<path d="M141.352 50.0788H79.5358C79.4618 50.0788 79.3908 50.0494 79.3385 49.9971C79.2862 49.9448 79.2568 49.8738 79.2568 49.7998V0.278928C79.2568 0.204952 79.2862 0.134005 79.3385 0.081696C79.3908 0.0293868 79.4618 0 79.5358 0C113.777 0 141.636 22.3421 141.636 49.7998C141.636 49.837 141.629 49.8737 141.615 49.9079C141.6 49.9421 141.579 49.9731 141.553 49.9991C141.526 50.0251 141.495 50.0455 141.46 50.0592C141.426 50.0729 141.389 50.0795 141.352 50.0788ZM79.8091 49.5209H141.067C140.9 22.5709 113.498 0.680584 79.8091 0.557855V49.5209Z" fill="#F47B20"/>
<path d="M71.6255 112.999C71.5888 112.998 71.5527 112.99 71.5191 112.975C71.4856 112.961 71.4552 112.939 71.4298 112.913C71.4045 112.887 71.3845 112.855 71.3712 112.821C71.3579 112.787 71.3514 112.751 71.3521 112.714L72.4009 57.8322C72.4037 57.7792 72.4207 57.7279 72.4501 57.6838C72.4796 57.6396 72.5204 57.6042 72.5682 57.5812C72.618 57.5601 72.6728 57.5536 72.7262 57.5625C72.7795 57.5714 72.8292 57.5953 72.8695 57.6314L114.965 95.3481C114.995 95.3719 115.019 95.4015 115.037 95.4351C115.055 95.4687 115.066 95.5056 115.069 95.5435C115.072 95.5814 115.067 95.6195 115.055 95.6555C115.042 95.6915 115.023 95.7246 114.997 95.7528C114.972 95.781 114.941 95.8036 114.906 95.8194C114.872 95.8352 114.834 95.8437 114.796 95.8444C114.758 95.8452 114.72 95.8382 114.685 95.8238C114.65 95.8095 114.618 95.788 114.592 95.7609L72.9476 58.4515L71.91 112.725C71.9092 112.762 71.9013 112.798 71.8866 112.832C71.8719 112.865 71.8508 112.896 71.8243 112.921C71.7979 112.946 71.7668 112.966 71.7326 112.98C71.6985 112.993 71.6621 112.999 71.6255 112.999Z" fill="white"/>
<path d="M5.19043 61.3079L15.3657 50.7087C17.2457 48.7617 19.4046 46.6809 22.1046 46.5805C23.1367 46.5415 24.3361 46.9766 24.6038 47.9696C24.7991 48.7339 24.3584 49.5037 23.9344 50.1675C20.7509 55.1659 17.3331 60.0007 13.681 64.6718C14.9229 65.8249 15.9114 67.2237 16.5836 68.7794C17.2557 70.3351 17.5969 72.0136 17.5853 73.7082C17.5738 75.4029 17.2098 77.0766 16.5165 78.6229C15.8232 80.1693 14.8158 81.5545 13.5583 82.6906" fill="white"/>
<path d="M13.558 83.0083C13.5189 83.0078 13.4803 82.9992 13.4447 82.9828C13.4092 82.9665 13.3774 82.9428 13.3516 82.9134C13.3255 82.8875 13.3047 82.8567 13.2906 82.8227C13.2764 82.7887 13.2691 82.7522 13.2691 82.7154C13.2691 82.6786 13.2764 82.6421 13.2906 82.6081C13.3047 82.5741 13.3255 82.5433 13.3516 82.5174C14.581 81.4084 15.566 80.0557 16.244 78.5453C16.922 77.0348 17.2781 75.3998 17.2897 73.7442C17.3012 72.0886 16.9679 70.4488 16.3111 68.929C15.6542 67.4093 14.6881 66.043 13.4743 64.917C13.4239 64.8684 13.3928 64.8033 13.3866 64.7336C13.3805 64.6639 13.3998 64.5943 13.4409 64.5377C17.0669 59.8907 20.5089 55.015 23.6831 50.0334C24.0959 49.3918 24.4809 48.7113 24.3135 48.0586C24.1015 47.2329 23.036 46.8369 22.0821 46.8759C19.5438 46.9707 17.4574 48.9232 15.5328 50.9204L5.35753 61.5196C5.30519 61.5667 5.23699 61.5923 5.1666 61.5911C5.09621 61.59 5.02885 61.5623 4.97803 61.5136C4.9272 61.4649 4.89667 61.3988 4.89257 61.3285C4.88846 61.2583 4.91107 61.189 4.95588 61.1347L15.1312 50.5354C17.1339 48.4546 19.3151 46.4185 22.0653 46.3181C23.181 46.2846 24.5422 46.7588 24.8546 47.9191C25.0778 48.7894 24.6092 49.5927 24.1517 50.3346C21.0166 55.2493 17.6136 60.0692 14.0378 64.6715C15.2687 65.8613 16.2418 67.2915 16.8968 68.8731C17.5518 70.4548 17.8747 72.1542 17.8454 73.8659C17.8161 75.5776 17.4353 77.265 16.7265 78.8233C16.0178 80.3816 14.9963 81.7776 13.7254 82.9246C13.6806 82.9706 13.6216 83.0001 13.558 83.0083Z" fill="#F47B20"/>
<path d="M129.625 111.092C130.3 103.009 135.26 72.4662 133.207 66.5306C132.091 63.3564 129.268 61.3593 126.652 59.4849C124.337 57.8114 120.248 55.5799 119.774 52.5731C119.698 52.2513 119.695 51.9167 119.764 51.5935C119.834 51.2703 119.974 50.9666 120.175 50.7043C120.431 50.4826 120.731 50.3181 121.055 50.2219C121.379 50.1256 121.72 50.0999 122.055 50.1464C124.928 50.2747 126.892 52.2942 129.53 52.9915C132.169 53.6888 134.345 55.5074 137.017 56.2717C138.83 56.7905 141.011 56.5673 142.25 55.156C142.913 54.2759 143.339 53.2407 143.488 52.1491C144.484 46.8329 144.003 41.3453 142.097 36.2837C140.19 31.222 136.932 26.7803 132.677 23.4418C131.628 22.6441 130.395 21.3387 131.126 20.2397C131.717 19.3527 133.067 19.5647 134.055 19.9608C141.608 22.9955 146.846 30.5601 148.325 38.3701C147.583 34.4372 146.986 30.5935 145.563 26.8392C144.749 24.6858 140.409 20.4684 142.562 18.2705C142.875 17.9985 143.257 17.819 143.666 17.752C144.075 17.685 144.494 17.7332 144.877 17.8911C145.638 18.2264 146.313 18.73 146.852 19.3639C151.8 24.6133 153.758 32.4847 155.22 39.3686C155.168 34.53 154.445 29.7219 153.072 25.0819C152.598 23.4753 152.04 21.8463 152.101 20.1728C152.084 19.672 152.242 19.1809 152.548 18.7837C153.435 17.813 155.064 18.7223 155.828 19.799C156.827 21.385 157.58 23.1136 158.059 24.9257C159.833 30.5043 161.613 36.2725 160.743 42.0408C161.259 38.1947 161.352 34.3037 161.021 30.4373C160.832 28.2059 160.497 25.8852 160.943 23.665C162.12 17.813 165.59 26.8336 165.914 28.3677C166.767 32.3843 166.712 36.5849 166.427 40.6405C165.54 53.3039 161.529 65.5879 161.49 78.1843L161.412 103.89" fill="white"/>
<path d="M129.626 111.37C129.589 111.367 129.553 111.357 129.521 111.34C129.488 111.324 129.459 111.301 129.435 111.273C129.411 111.245 129.393 111.212 129.382 111.177C129.37 111.142 129.366 111.105 129.369 111.069C129.548 108.921 130.039 105.138 130.602 100.759C132.136 88.877 134.457 70.9196 132.967 66.6185C131.913 63.5726 129.219 61.648 126.619 59.7903L126.513 59.7122C126.145 59.45 125.732 59.1544 125.297 58.8755C122.909 57.2688 119.942 55.2661 119.523 52.6107C119.439 52.2484 119.437 51.8716 119.518 51.5085C119.599 51.1453 119.761 50.8052 119.992 50.5132C120.273 50.2598 120.607 50.0712 120.97 49.9604C121.332 49.8495 121.714 49.8193 122.089 49.8716C123.835 49.9497 125.263 50.7029 126.641 51.4336C127.583 51.9746 128.582 52.4087 129.62 52.7279C130.982 53.1327 132.293 53.6944 133.525 54.4014C134.673 55.0547 135.884 55.5892 137.14 55.9969C138.63 56.4209 140.822 56.4042 142.088 54.9593C142.718 54.1151 143.121 53.1243 143.26 52.0808C144.266 46.8121 143.798 41.368 141.908 36.3482C140.018 31.3283 136.78 26.9274 132.549 23.6301C130.876 22.347 130.279 21.0416 130.937 20.0542C131.495 19.2119 132.716 19.0724 134.206 19.6693C139.835 21.9007 144.537 26.9214 147.07 33.0579C146.658 30.9703 146.081 28.9185 145.346 26.9214C144.972 26.1233 144.522 25.363 144.002 24.651C142.546 22.4753 140.727 19.7697 142.412 18.0571C142.762 17.7465 143.193 17.5405 143.654 17.4626C144.116 17.3847 144.59 17.438 145.023 17.6164C145.806 17.9812 146.495 18.5214 147.037 19.1951C151.282 23.697 153.357 30.1235 154.791 36.2599C154.524 32.507 153.851 28.794 152.783 25.1865L152.626 24.6621C152.106 23.2304 151.827 21.7223 151.801 20.1993C151.784 19.632 151.968 19.077 152.32 18.6317C152.479 18.4567 152.677 18.3205 152.897 18.2335C153.118 18.1465 153.355 18.1109 153.591 18.1296C154.082 18.2078 154.551 18.3852 154.97 18.6509C155.389 18.9166 155.749 19.265 156.029 19.6749C157.145 21.2536 157.775 23.1782 158.316 24.8797C159.456 28.1505 160.327 31.5088 160.922 34.9211C160.922 33.4428 160.855 31.9589 160.732 30.4582C160.699 30.1179 160.671 29.7777 160.637 29.4374C160.453 27.5183 160.263 25.5324 160.637 23.6078C160.933 22.1462 161.401 21.4377 162.076 21.4321C163.895 21.4321 165.981 27.4793 166.154 28.3049C167.08 32.6618 166.919 37.2306 166.673 40.6782C166.277 46.2902 165.262 51.9022 164.274 57.3358C163.036 64.1472 161.758 71.1929 161.736 78.1996L161.658 103.906C161.658 103.98 161.629 104.051 161.576 104.103C161.524 104.155 161.453 104.185 161.379 104.185C161.306 104.183 161.237 104.153 161.185 104.101C161.134 104.049 161.106 103.979 161.106 103.906L161.184 78.1996C161.184 71.1427 162.489 64.0747 163.728 57.2353C164.715 51.8186 165.73 46.2177 166.121 40.6391C166.366 37.2027 166.523 32.712 165.619 28.4221C165.29 26.8935 163.254 21.99 162.088 21.99C161.742 21.99 161.418 22.6204 161.195 23.7193C160.821 25.5603 161.005 27.5072 161.195 29.3816C161.229 29.7275 161.262 30.0677 161.29 30.4136C161.592 33.9427 161.545 37.493 161.15 41.0129C161.117 41.3699 161.072 41.7269 161.022 42.084C161.01 42.1566 160.97 42.2216 160.91 42.2653C160.851 42.309 160.777 42.328 160.704 42.3183C160.632 42.3072 160.567 42.2683 160.523 42.2099C160.479 42.1515 160.46 42.0782 160.47 42.0059C160.514 41.6544 160.559 41.3085 160.598 40.9571C161.123 35.3785 159.287 29.6717 157.809 25.0136C157.325 23.2363 156.572 21.5433 155.577 19.9929C155.346 19.6501 155.048 19.3574 154.701 19.1322C154.354 18.907 153.965 18.7539 153.558 18.6819C153.405 18.6683 153.251 18.6899 153.108 18.745C152.965 18.8002 152.837 18.8873 152.732 18.9999C152.467 19.3479 152.335 19.7791 152.359 20.216C152.389 21.6822 152.66 23.1335 153.162 24.5115L153.318 25.0359C154.704 29.6873 155.436 34.5086 155.494 39.3616C155.495 39.4314 155.47 39.4991 155.424 39.551C155.377 39.6028 155.312 39.6349 155.243 39.6406C155.174 39.6503 155.104 39.6331 155.048 39.5925C154.992 39.552 154.954 39.4912 154.941 39.423C153.48 32.539 151.499 24.7346 146.646 19.58C146.147 18.9749 145.518 18.4905 144.805 18.1631C144.473 18.0235 144.108 17.9789 143.751 18.034C143.395 18.0891 143.061 18.242 142.786 18.4755C141.425 19.8645 143.098 22.3805 144.459 24.3664C145.004 25.1132 145.475 25.9109 145.865 26.7485C147.104 30.0175 147.706 33.2866 148.342 36.7397C148.442 37.2641 148.537 37.7941 148.638 38.3184C148.652 38.3924 148.636 38.4689 148.593 38.5312C148.551 38.5934 148.486 38.6363 148.412 38.6504C148.338 38.6644 148.261 38.6485 148.199 38.6061C148.137 38.5638 148.094 38.4984 148.08 38.4244C146.518 30.1682 140.984 23.0164 133.977 20.2048C133.034 19.8255 131.857 19.647 131.383 20.3778C130.708 21.3931 132.198 22.6929 132.873 23.2005C137.185 26.5631 140.487 31.0506 142.413 36.1688C144.339 41.287 144.816 46.8374 143.79 52.2091C143.636 53.3475 143.188 54.4262 142.49 55.3386C141.056 57.0122 138.619 57.0122 136.967 56.5492C135.674 56.1353 134.429 55.5856 133.252 54.9091C132.062 54.2245 130.799 53.6762 129.486 53.2746C128.407 52.9446 127.368 52.4935 126.39 51.9301C125.001 51.1993 123.69 50.5076 122.073 50.4351C121.777 50.3897 121.475 50.4076 121.186 50.4874C120.898 50.5672 120.629 50.7072 120.399 50.8981C120.231 51.1312 120.114 51.3979 120.059 51.68C120.003 51.9621 120.009 52.2529 120.075 52.5326C120.455 54.9481 123.311 56.8727 125.609 58.418C126.05 58.7193 126.468 58.9759 126.837 59.2659L126.943 59.3385C129.492 61.1627 132.382 63.2435 133.492 66.4456C135.026 70.8694 132.789 88.202 131.154 100.837C130.597 105.205 130.106 108.982 129.927 111.124C129.924 111.16 129.913 111.195 129.896 111.227C129.879 111.259 129.856 111.287 129.828 111.31C129.8 111.333 129.767 111.35 129.733 111.36C129.698 111.37 129.662 111.374 129.626 111.37Z" fill="#F47B20"/>
<path d="M121.241 131.101C121.542 126.638 127.216 97.0718 127.216 97.0718L163.644 92.291L164.838 130.225L121.241 131.101Z" fill="#FEEFD2"/>
<path d="M131.093 105.106C131.019 105.11 130.946 105.085 130.891 105.036C130.835 104.987 130.802 104.918 130.797 104.844C130.793 104.77 130.818 104.697 130.867 104.641C130.916 104.586 130.986 104.552 131.06 104.548L159.427 100.643C159.5 100.633 159.574 100.653 159.632 100.698C159.691 100.743 159.729 100.81 159.739 100.883C159.744 100.919 159.743 100.955 159.734 100.991C159.725 101.026 159.709 101.059 159.687 101.088C159.666 101.117 159.638 101.142 159.607 101.16C159.575 101.179 159.541 101.19 159.505 101.195L131.132 105.1L131.093 105.106Z" fill="#F47B20"/>
<path d="M33.4458 112.268L6.57383 109.579C6.53738 109.576 6.50185 109.566 6.46935 109.55C6.43686 109.533 6.40805 109.51 6.38465 109.482C6.36124 109.454 6.34371 109.421 6.33308 109.386C6.32246 109.351 6.31896 109.314 6.3228 109.278C6.32628 109.241 6.33701 109.206 6.35435 109.173C6.3717 109.141 6.39532 109.112 6.42385 109.088C6.45238 109.065 6.48526 109.048 6.52058 109.037C6.5559 109.027 6.59296 109.023 6.62962 109.027L33.5016 111.716C33.5755 111.719 33.645 111.752 33.6947 111.807C33.7444 111.862 33.7702 111.935 33.7666 112.009C33.7629 112.083 33.7299 112.152 33.675 112.202C33.6201 112.251 33.5477 112.277 33.4737 112.274L33.4458 112.268Z" fill="#F47B20"/>
</svg>
