<svg width="176" height="123" viewBox="0 0 176 123" fill="none" xmlns="http://www.w3.org/2000/svg">
<path d="M137.999 34.3738C139.277 34.3523 140.546 34.583 141.735 35.0527C142.924 35.5223 144.008 36.2217 144.926 37.1108C145.845 38 146.578 39.0614 147.086 40.2344C147.594 41.4074 147.865 42.6689 147.885 43.9469V110.752C147.846 112.968 146.932 115.079 145.34 116.622C143.749 118.165 141.611 119.015 139.395 118.985H45.278C43.0617 119.015 40.9239 118.165 39.3327 116.622C37.7415 115.079 36.8267 112.968 36.7885 110.752V32.5027C36.8267 30.2865 37.7415 28.1758 39.3327 26.6328C40.9239 25.0898 43.0617 24.2402 45.278 24.27H81.5822C87.3405 24.27 92.0042 28.7997 92.0042 34.3794H137.999V34.3738Z" fill="#F47B20"/>
<path d="M139.378 119.264H45.2779C42.9871 119.295 40.7774 118.417 39.1335 116.821C37.4896 115.225 36.5458 113.043 36.509 110.752V32.5025C36.5458 30.2118 37.4896 28.0292 39.1335 26.4335C40.7774 24.8377 42.9871 23.9592 45.2779 23.9906H81.582C87.3851 23.9906 92.127 28.5034 92.2778 34.1054H137.999C143.584 34.1054 148.141 38.5234 148.141 43.9522V110.752C148.105 113.042 147.162 115.223 145.519 116.819C143.876 118.414 141.668 119.294 139.378 119.264ZM45.2779 24.5435C43.1343 24.5121 41.0658 25.3326 39.5265 26.8248C37.9872 28.317 37.1028 30.3589 37.0676 32.5025V110.752C37.1043 112.894 37.9893 114.935 39.5284 116.426C41.0676 117.917 43.1352 118.737 45.2779 118.705H139.378C141.521 118.737 143.588 117.917 145.128 116.426C146.667 114.935 147.552 112.894 147.589 110.752V43.9467C147.589 38.825 143.288 34.6528 137.999 34.6528H92.032C91.958 34.6528 91.8869 34.6234 91.8345 34.571C91.7822 34.5186 91.7528 34.4476 91.7528 34.3735C91.7528 28.9558 87.2008 24.5435 81.6099 24.5435H45.2779Z" fill="#F47B20"/>
<path d="M52.0975 108.026V4.00098H121.45L137.658 20.215V106.222L52.0975 108.026Z" fill="#FDDAA5"/>
<path d="M129.073 25.5936H59.2017C59.1653 25.5936 59.1293 25.5863 59.0957 25.5722C59.0621 25.5581 59.0317 25.5374 59.0062 25.5114C58.9807 25.4854 58.9607 25.4546 58.9472 25.4207C58.9338 25.3869 58.9273 25.3507 58.928 25.3143C58.928 25.2412 58.9567 25.171 59.0078 25.1188C59.059 25.0666 59.1286 25.0365 59.2017 25.035H129.073C129.146 25.0365 129.216 25.0666 129.267 25.1188C129.318 25.171 129.347 25.2412 129.347 25.3143C129.348 25.3507 129.341 25.3869 129.328 25.4207C129.314 25.4546 129.294 25.4854 129.269 25.5114C129.243 25.5374 129.213 25.5581 129.179 25.5722C129.146 25.5863 129.11 25.5936 129.073 25.5936Z" fill="white"/>
<path d="M129.073 36.7531H59.2019C59.1278 36.7531 59.0568 36.7237 59.0044 36.6713C58.952 36.6189 58.9226 36.5479 58.9226 36.4738C58.9226 36.3998 58.952 36.3287 59.0044 36.2764C59.0568 36.224 59.1278 36.1946 59.2019 36.1946H129.073C129.147 36.1946 129.218 36.224 129.271 36.2764C129.323 36.3287 129.353 36.3998 129.353 36.4738C129.353 36.5479 129.323 36.6189 129.271 36.6713C129.218 36.7237 129.147 36.7531 129.073 36.7531Z" fill="white"/>
<path d="M129.073 47.9123H59.2017C59.1286 47.9108 59.059 47.8808 59.0078 47.8285C58.9567 47.7763 58.928 47.7061 58.928 47.633C58.9273 47.5966 58.9338 47.5604 58.9472 47.5266C58.9607 47.4927 58.9807 47.4619 59.0062 47.4359C59.0317 47.4099 59.0621 47.3892 59.0957 47.3751C59.1293 47.361 59.1653 47.3538 59.2017 47.3538H129.073C129.11 47.3538 129.146 47.361 129.179 47.3751C129.213 47.3892 129.243 47.4099 129.269 47.4359C129.294 47.4619 129.314 47.4927 129.328 47.5266C129.341 47.5604 129.348 47.5966 129.347 47.633C129.347 47.7061 129.318 47.7763 129.267 47.8285C129.216 47.8808 129.146 47.9108 129.073 47.9123Z" fill="white"/>
<path d="M129.073 59.0661H59.2019C59.1278 59.0661 59.0568 59.0367 59.0044 58.9843C58.952 58.9319 58.9226 58.8609 58.9226 58.7868C58.9226 58.7128 58.952 58.6417 59.0044 58.5894C59.0568 58.537 59.1278 58.5076 59.2019 58.5076H129.073C129.147 58.5076 129.218 58.537 129.271 58.5894C129.323 58.6417 129.353 58.7128 129.353 58.7868C129.353 58.8609 129.323 58.9319 129.271 58.9843C129.218 59.0367 129.147 59.0661 129.073 59.0661Z" fill="white"/>
<path d="M68.6131 12.1834H59.403C59.329 12.1834 59.2579 12.154 59.2056 12.1016C59.1532 12.0492 59.1238 11.9782 59.1238 11.9041C59.1252 11.8305 59.1551 11.7603 59.2072 11.7083C59.2592 11.6562 59.3294 11.6263 59.403 11.6249H68.6131C68.6862 11.6263 68.7558 11.6564 68.807 11.7086C68.8582 11.7608 68.8868 11.831 68.8868 11.9041C68.8875 11.9405 68.881 11.9767 68.8676 12.0106C68.8542 12.0444 68.8341 12.0753 68.8086 12.1013C68.7831 12.1273 68.7527 12.1479 68.7192 12.1621C68.6856 12.1762 68.6495 12.1834 68.6131 12.1834Z" fill="white"/>
<path d="M27.6454 53.9611C26.4781 54.408 24.5511 54.8268 24.0541 53.2015C23.9741 52.9127 23.9495 52.6114 23.9814 52.3135C24.0229 51.8757 24.1014 51.4422 24.216 51.0177C24.5268 49.8227 24.9398 48.6567 25.4504 47.5325C25.5732 47.2477 25.8134 46.907 26.1038 47.0075C26.3943 47.108 26.3943 47.4208 26.3887 47.6777C26.3887 48.415 26.2658 49.1578 26.2826 49.9118C27.8353 49.5153 28.8127 47.8732 30.2872 47.5213C30.7061 47.4208 31.2088 47.3929 31.2534 47.9291C31.3093 48.5937 30.1085 49.1187 29.7063 49.465C30.1547 49.0764 30.6719 48.7752 31.2311 48.577C31.3868 48.5069 31.5585 48.4799 31.7282 48.4988C31.8126 48.509 31.8912 48.5469 31.9518 48.6065C32.0124 48.6661 32.0516 48.7441 32.0633 48.8283C32.0526 48.9694 31.9887 49.1011 31.8846 49.1969C31.6563 49.457 31.4017 49.6929 31.125 49.9007C31.402 49.5765 31.7795 49.3543 32.1973 49.2695C32.3005 49.2351 32.4115 49.2316 32.5167 49.2594C32.6219 49.2871 32.7167 49.345 32.7894 49.4259C32.9569 49.7108 32.6274 50.0235 32.3426 50.1855C32.5704 49.9839 32.8481 49.8469 33.1468 49.789C33.296 49.7638 33.4491 49.7966 33.5747 49.8808C33.7004 49.9649 33.7891 50.0939 33.8227 50.2414C33.8156 50.3588 33.7835 50.4733 33.7286 50.5773C33.6737 50.6814 33.5972 50.7725 33.5043 50.8446C31.9739 52.3358 29.6114 53.2015 27.6454 53.9611Z" fill="white"/>
<path d="M25.7742 54.6425C25.4122 54.6507 25.053 54.5762 24.7242 54.4247C24.4982 54.3146 24.2979 54.1583 24.1362 53.9659C23.9746 53.7734 23.8552 53.5492 23.7858 53.3076C23.6954 52.9845 23.667 52.6471 23.7021 52.3134C23.7476 51.8611 23.8279 51.413 23.9422 50.973C24.26 49.7635 24.6785 48.5827 25.1933 47.4431C25.4279 46.8846 25.8133 46.6388 26.1931 46.7673C26.4165 46.8399 26.6846 47.0689 26.6678 47.7112C26.6678 48.024 26.6678 48.3423 26.6176 48.6607C26.5673 48.979 26.5729 49.2192 26.5617 49.532C27.139 49.2615 27.6734 48.9077 28.1479 48.4819C28.7372 47.9227 29.4457 47.5044 30.22 47.2588C30.3866 47.1994 30.5639 47.1761 30.7401 47.1906C30.9163 47.205 31.0875 47.2568 31.2421 47.3426C31.3279 47.4092 31.3983 47.4937 31.4484 47.5901C31.4986 47.6865 31.5273 47.7926 31.5326 47.9011C31.5414 48.0065 31.53 48.1127 31.4991 48.2139C31.5916 48.1999 31.6858 48.1999 31.7783 48.2139C31.9239 48.2367 32.0577 48.3072 32.1588 48.4144C32.2599 48.5215 32.3225 48.6593 32.3369 48.8059C32.34 48.8561 32.34 48.9065 32.3369 48.9567C32.4706 48.9406 32.6063 48.9612 32.7293 49.0163C32.8523 49.0714 32.958 49.1589 33.035 49.2695C33.0742 49.3407 33.1007 49.4182 33.1132 49.4985C33.3675 49.4725 33.622 49.5466 33.8225 49.7051C33.8986 49.7667 33.9615 49.8429 34.0075 49.9293C34.0536 50.0156 34.0818 50.1103 34.0906 50.2078C34.0905 50.3665 34.0548 50.5231 33.9862 50.6661C33.9176 50.8092 33.8178 50.935 33.6941 51.0344C32.1916 52.5145 29.9687 53.369 28.0027 54.1231L27.7402 54.2236C27.1144 54.4773 26.449 54.6191 25.7742 54.6425ZM26.0032 47.27C25.9362 47.27 25.8021 47.4208 25.7072 47.6386C25.2043 48.7493 24.7952 49.9002 24.484 51.0791C24.3775 51.4919 24.301 51.9119 24.255 52.3358C24.2281 52.5983 24.2509 52.8636 24.322 53.1177C24.3641 53.2912 24.444 53.4533 24.556 53.5923C24.668 53.7313 24.8093 53.8439 24.9699 53.922C25.7351 54.2962 26.9136 53.922 27.5447 53.6986L27.8072 53.598C29.723 52.8608 31.89 52.0286 33.3087 50.6323C33.4148 50.5262 33.5544 50.3753 33.5433 50.2525C33.5402 50.2289 33.5321 50.2062 33.5196 50.186C33.5071 50.1658 33.4904 50.1485 33.4707 50.1352C33.4297 50.1015 33.3824 50.0762 33.3316 50.0609C33.2808 50.0456 33.2274 50.0404 33.1746 50.0458C33.0231 50.0724 32.8798 50.1335 32.7557 50.2245C32.6688 50.2938 32.5774 50.3572 32.4821 50.4144C32.4198 50.449 32.3469 50.459 32.2776 50.4425C32.2083 50.4259 32.1478 50.3841 32.1079 50.3251C32.0694 50.2649 32.0549 50.1925 32.0673 50.1221C32.0797 50.0518 32.1181 49.9887 32.1749 49.9453L32.415 49.7721C32.4784 49.7255 32.5269 49.6615 32.5547 49.5878C32.5267 49.5208 32.415 49.4929 32.2531 49.5264C32.0799 49.5592 31.9136 49.6215 31.7616 49.7107C31.6108 49.8503 31.4544 49.9844 31.2924 50.1073C31.238 50.1521 31.1687 50.1748 31.0984 50.1706C31.028 50.1665 30.9618 50.136 30.913 50.0851C30.8643 50.0342 30.8366 49.9668 30.8354 49.8963C30.8343 49.8258 30.8599 49.7575 30.907 49.7051C31.0553 49.5331 31.2285 49.3844 31.4209 49.2639C31.5102 49.1801 31.594 49.0907 31.6778 48.9958C31.7616 48.9008 31.7839 48.8394 31.7839 48.8282C31.7839 48.8171 31.7392 48.7668 31.6778 48.7556C31.5551 48.7504 31.4328 48.7733 31.3203 48.8227C31.1289 48.892 30.9423 48.9741 30.7618 49.0684C30.611 49.1801 30.4546 49.2806 30.3038 49.3756C30.1629 49.4611 30.0267 49.5543 29.8961 49.6549C29.8382 49.7008 29.7649 49.7229 29.6912 49.7167C29.6175 49.7105 29.549 49.6764 29.4995 49.6213C29.4484 49.5691 29.4197 49.499 29.4197 49.4259C29.4197 49.3528 29.4484 49.2826 29.4995 49.2304C29.785 48.9831 30.098 48.7694 30.4323 48.5937C30.7227 48.3814 30.9908 48.1413 30.9517 47.929C30.9517 47.8061 30.9014 47.7726 30.8903 47.767C30.8791 47.7615 30.7171 47.6777 30.3317 47.767C29.6397 47.9965 29.008 48.3782 28.483 48.8841C27.8696 49.46 27.1376 49.8947 26.3383 50.1575C26.297 50.1676 26.2541 50.1683 26.2125 50.1596C26.171 50.1509 26.1319 50.133 26.0981 50.1073C26.0652 50.0821 26.0381 50.0501 26.0188 50.0135C25.9996 49.9768 25.9885 49.9364 25.9864 49.895C25.9824 49.4587 26.001 49.0225 26.0423 48.5881C26.0423 48.2809 26.087 47.9737 26.0925 47.6665C26.0981 47.3593 26.0479 47.2811 25.9976 47.27C25.9473 47.2588 26.0088 47.27 26.0032 47.27Z" fill="#F47B20"/>
<path d="M26.3552 49.962C26.7088 50.3893 26.906 50.9244 26.9141 51.4789C26.9222 52.0335 26.7408 52.5742 26.3999 53.0116H26.5563" fill="white"/>
<path d="M26.3998 53.291C26.347 53.292 26.295 53.2776 26.2501 53.2497C26.2053 53.2218 26.1694 53.1815 26.147 53.1336C26.1246 53.0858 26.1164 53.0325 26.1236 52.9801C26.1308 52.9278 26.153 52.8786 26.1875 52.8386C26.4856 52.4512 26.6439 51.9745 26.6368 51.4857C26.6297 50.997 26.4576 50.5251 26.1485 50.1465C26.0969 50.0934 26.0681 50.0223 26.0681 49.9482C26.0681 49.8742 26.0969 49.8031 26.1485 49.75C26.1757 49.7257 26.2076 49.7071 26.2422 49.6954C26.2768 49.6836 26.3134 49.6789 26.3498 49.6815C26.3863 49.6841 26.4218 49.694 26.4544 49.7105C26.4869 49.7271 26.5158 49.75 26.5394 49.7779C26.9004 50.2099 27.1185 50.7433 27.1635 51.3046C27.2085 51.8658 27.0783 52.4271 26.7908 52.9112C26.7965 52.937 26.7965 52.9637 26.7908 52.9894C26.7939 53.0631 26.7682 53.1352 26.7193 53.1904C26.6703 53.2456 26.6018 53.2797 26.5282 53.2854H26.3551L26.3998 53.291Z" fill="#F47B20"/>
<path d="M104.136 37.5099L29.0687 30.3082L23.8528 84.6768L98.9202 91.8785L104.136 37.5099Z" fill="white"/>
<path d="M98.93 92.1699L23.8307 84.9705C23.7545 84.9621 23.6848 84.9239 23.6367 84.8643C23.5886 84.8046 23.566 84.7284 23.5738 84.6522L28.7848 30.2686C28.7919 30.1925 28.8287 30.1222 28.8873 30.0731C28.9458 30.024 29.0214 29.9999 29.0976 30.0061L104.169 37.2055C104.207 37.2082 104.243 37.2186 104.277 37.236C104.311 37.2534 104.34 37.2775 104.365 37.3067C104.389 37.336 104.406 37.3698 104.417 37.4062C104.427 37.4426 104.431 37.4807 104.426 37.5183L99.2148 91.8907C99.2118 91.9289 99.2008 91.966 99.1825 91.9997C99.1642 92.0333 99.1391 92.0628 99.1087 92.0861C99.0605 92.1337 98.9974 92.1633 98.93 92.1699ZM24.1714 84.4455L98.6675 91.5891L103.828 37.7863L29.3322 30.6261L24.1714 84.4455Z" fill="#F47B20"/>
<path d="M0.735734 117.588L0.260986 121.062C0.260986 121.062 9.93464 122.068 9.56601 121.23C8.85308 120.024 8.07366 118.859 7.23138 117.739" fill="white"/>
<path d="M7.51046 121.867C5.42157 121.867 2.35527 121.593 0.24963 121.37C0.212142 121.367 0.175707 121.356 0.142896 121.338C0.110084 121.319 0.0816974 121.294 0.059734 121.264C0.0357853 121.235 0.0183609 121.202 0.00870599 121.167C-0.000948881 121.131 -0.00259727 121.093 0.00388017 121.057L0.478628 117.577C0.488362 117.504 0.52675 117.438 0.58538 117.393C0.644009 117.348 0.718095 117.328 0.7914 117.337C0.864677 117.347 0.931105 117.385 0.976124 117.444C1.02114 117.503 1.04108 117.577 1.03157 117.65L0.595918 120.845C4.36596 121.224 8.41527 121.453 9.25306 121.219C8.75597 120.286 7.01896 117.963 7.01896 117.935C6.99236 117.906 6.97214 117.872 6.95962 117.835C6.9471 117.797 6.94255 117.758 6.94629 117.719C6.95002 117.68 6.96195 117.642 6.98129 117.608C7.00063 117.574 7.02695 117.544 7.05853 117.521C7.09011 117.497 7.12625 117.481 7.16459 117.473C7.20292 117.464 7.2426 117.464 7.28102 117.472C7.31945 117.48 7.35576 117.496 7.38759 117.519C7.41943 117.542 7.44607 117.571 7.46578 117.605C8.32237 118.738 9.11127 119.92 9.82834 121.146C9.85839 121.207 9.87066 121.275 9.86374 121.342C9.85682 121.409 9.83099 121.473 9.78924 121.526C9.59934 121.744 8.72246 121.867 7.51046 121.867Z" fill="#F47B20"/>
<path d="M24.5958 54.4135C24.5958 54.4135 30.868 58.5913 33.3032 57.3402C34.7442 56.5973 35.8948 55.5361 37.2129 54.6257C38.4652 53.804 39.6664 52.9069 40.8098 51.9392C40.9406 51.8297 41.057 51.704 41.1561 51.565C41.2401 51.4165 41.3075 51.2591 41.3571 51.0959C41.5705 50.459 41.8358 49.8407 42.1503 49.2471C42.2588 49.0081 42.4434 48.8118 42.6753 48.6886C43.9655 48.1804 43.1556 50.8557 42.8931 51.3304C43.8873 50.3977 44.915 49.4594 45.9985 48.616C46.0507 48.5634 46.1136 48.5226 46.183 48.4966C46.2525 48.4706 46.3267 48.4599 46.4006 48.4652C46.4773 48.4964 46.5399 48.5544 46.5769 48.6284C46.6139 48.7024 46.6227 48.7873 46.6017 48.8674C46.5575 49.0259 46.4728 49.1703 46.3559 49.2862L44.6245 51.3249C45.1184 50.7254 45.6581 50.1652 46.2387 49.6493C46.4453 49.4594 47.0318 48.9009 47.3557 49.1243C47.8751 49.5152 46.0208 51.6153 45.6801 51.9616C46.1704 51.2896 46.7469 50.6849 47.3948 50.1631C47.5665 49.9923 47.7952 49.8909 48.0371 49.8783C48.1656 50.0067 48.0371 50.2246 47.931 50.3642L46.7246 51.7549C47.3334 51.0847 48.0092 50.3754 48.8972 50.2078C48.9419 50.353 48.8358 50.4982 48.7353 50.6155C46.9592 52.6877 45.1775 54.7319 43.3064 56.7146C40.8154 59.3509 38.1121 62.3948 34.5655 63.4169C30.3598 64.6457 26.5953 62.1547 23.1381 60.0155" fill="white"/>
<path d="M32.2977 63.9866C29.0582 63.9866 26.0813 62.1379 23.3948 60.4735L22.9871 60.2221C22.9241 60.1829 22.8793 60.1202 22.8626 60.0479C22.8458 59.9757 22.8585 59.8997 22.8977 59.8367C22.937 59.7738 22.9996 59.729 23.0719 59.7122C23.1442 59.6955 23.2201 59.7081 23.2831 59.7474L23.6908 59.9987C27.042 62.0932 30.5607 64.2603 34.4815 63.1153C37.7489 62.1546 40.3628 59.3787 42.6639 56.9324L43.0996 56.4688C44.9427 54.5196 46.7188 52.4754 48.2436 50.6993C47.7489 51.0299 47.3049 51.4306 46.9255 51.8889C46.8995 51.9151 46.8686 51.9359 46.8346 51.9501C46.8005 51.9642 46.764 51.9715 46.7272 51.9715C46.6903 51.9715 46.6538 51.9642 46.6198 51.9501C46.5858 51.9359 46.5549 51.9151 46.5289 51.8889C46.4777 51.8367 46.4491 51.7665 46.4491 51.6934C46.4491 51.6203 46.4777 51.5502 46.5289 51.498L47.4952 50.3809C47.2432 50.5873 47.0026 50.8073 46.7747 51.04C46.4563 51.4533 46.1212 51.8331 45.9034 52.0732C45.8514 52.1227 45.7824 52.1504 45.7107 52.1504C45.6389 52.1504 45.5699 52.1227 45.518 52.0732C45.4639 52.0275 45.4288 51.9633 45.4195 51.8931C45.4102 51.8228 45.4274 51.7517 45.4677 51.6934C45.7333 51.3321 46.0225 50.9888 46.3334 50.6658C46.7252 50.2578 47.0093 49.7588 47.16 49.2136C46.9056 49.3457 46.6738 49.5172 46.4731 49.7218C46.0544 50.0976 45.6572 50.4967 45.2834 50.9171L44.8533 51.4253C44.8302 51.4537 44.8015 51.477 44.7692 51.4941C44.7368 51.5112 44.7014 51.5216 44.6649 51.5247C44.6285 51.5278 44.5918 51.5236 44.557 51.5123C44.5222 51.501 44.49 51.4828 44.4624 51.4589C44.4057 51.412 44.3697 51.3446 44.3624 51.2714C44.3551 51.1982 44.377 51.1251 44.4233 51.0679C44.5685 50.8947 44.7137 50.716 44.8645 50.5485L46.1603 49.0293C46.2432 48.9457 46.3062 48.8445 46.3446 48.7333C46.3544 48.7062 46.3544 48.6765 46.3446 48.6495C46.3446 48.6495 46.3111 48.6495 46.1994 48.7556C45.0823 49.6325 44.01 50.6099 43.1107 51.4533C43.0622 51.4972 42.9998 51.5228 42.9344 51.5254C42.869 51.528 42.8048 51.5076 42.7529 51.4677C42.701 51.4278 42.6648 51.3709 42.6506 51.3071C42.6364 51.2432 42.645 51.1763 42.6751 51.1182C42.9097 50.6937 43.3174 49.1521 43.0549 48.8505C43.0102 48.8003 42.8482 48.8505 42.8035 48.8505C42.6321 48.9531 42.5003 49.1106 42.4293 49.2974C42.122 49.8793 41.8605 50.4843 41.6474 51.107C41.5978 51.303 41.5207 51.4911 41.4184 51.6655C41.308 51.8275 41.1743 51.9724 41.0218 52.0956C39.9706 52.9956 38.8645 53.8294 37.7098 54.5922L37.4026 54.8044C36.9614 55.1116 36.5313 55.4411 36.1124 55.7595C35.2844 56.4289 34.3984 57.0233 33.465 57.5356C30.9125 58.8481 24.7353 54.7709 24.4783 54.5922C24.4474 54.5724 24.4208 54.5466 24.4001 54.5164C24.3793 54.4861 24.3649 54.452 24.3576 54.4161C24.3503 54.3801 24.3503 54.3431 24.3576 54.3071C24.3649 54.2712 24.3794 54.2371 24.4001 54.2068C24.4411 54.1456 24.5046 54.103 24.5767 54.0884C24.6489 54.0737 24.724 54.0882 24.7855 54.1286C26.4946 55.2457 31.3314 58.0048 33.2137 57.0385C34.1184 56.5415 34.9764 55.9639 35.7773 55.3127C36.1962 54.9887 36.6318 54.6592 37.0842 54.3464L37.3914 54.1342C38.5266 53.3832 39.6141 52.5624 40.6476 51.6767C40.7622 51.587 40.8638 51.4817 40.9492 51.3639C41.0172 51.2438 41.0716 51.1164 41.1112 50.9841C41.3336 50.3247 41.6081 49.6841 41.9322 49.0684C42.0622 48.7585 42.3004 48.5064 42.6025 48.359C42.7409 48.2791 42.9023 48.2484 43.0605 48.2717C43.2186 48.295 43.3643 48.371 43.4738 48.4875C43.7921 48.8505 43.7084 49.6325 43.5408 50.2971C44.2557 49.6437 45.0376 48.9567 45.8587 48.3199C45.9415 48.2389 46.0425 48.1789 46.1533 48.1449C46.2641 48.1109 46.3814 48.1039 46.4954 48.1245C46.6268 48.1648 46.7406 48.2487 46.8178 48.3625C46.895 48.4763 46.931 48.613 46.9199 48.75C47.0168 48.704 47.1241 48.6844 47.231 48.6933C47.3379 48.7021 47.4406 48.739 47.5287 48.8003C47.5873 48.8431 47.6358 48.8983 47.6705 48.962C47.7053 49.0258 47.7255 49.0964 47.7297 49.1689C47.7378 49.3081 47.7149 49.4473 47.6627 49.5766C47.796 49.5171 47.9415 49.4903 48.0872 49.4984C48.155 49.5037 48.2185 49.5335 48.2659 49.5822C48.3169 49.6315 48.3556 49.692 48.3789 49.7589C48.4021 49.8259 48.4094 49.8973 48.4 49.9676C48.5534 49.906 48.7124 49.8593 48.8747 49.828C48.9432 49.817 49.0132 49.8314 49.0719 49.8684C49.1305 49.9054 49.1736 49.9625 49.1931 50.029C49.2151 50.1492 49.2068 50.273 49.1687 50.3891C49.1307 50.5052 49.0642 50.6099 48.9752 50.6937C47.389 52.548 45.5012 54.7262 43.5352 56.8039L43.1052 57.2619C40.7538 59.7641 38.0784 62.6014 34.6714 63.6012C33.9028 63.8431 33.1033 63.9729 32.2977 63.9866Z" fill="#F47B20"/>
<path d="M22.3784 70.4989L28.5334 118.203L21.926 118.029L13.7101 84.3112L7.85679 118.113L0.439575 117.588L4.60617 68.248L22.3784 70.4989Z" fill="#F47B20"/>
<path d="M11.6046 52.4922C11.7889 48.5099 10.9846 40.4336 10.9846 40.4336C10.9846 40.4336 16.056 40.7241 17.7651 38.2833C19.854 39.9198 20.2841 44.5332 19.9043 45.9128C19.1447 48.6328 15.6092 48.0352 15.6092 48.0352L16.0616 53.0172L11.6046 52.4922Z" fill="white"/>
<path d="M16.0727 53.2966H16.0392L11.571 52.766C11.5009 52.7576 11.4366 52.723 11.391 52.6691C11.3454 52.6152 11.3219 52.5461 11.3253 52.4756C11.5096 48.5659 10.7165 40.5399 10.7053 40.4617C10.7023 40.4211 10.7076 40.3803 10.7211 40.3418C10.7345 40.3034 10.7558 40.2682 10.7835 40.2383C10.812 40.21 10.8461 40.188 10.8836 40.1736C10.9211 40.1591 10.9612 40.1527 11.0013 40.1545C11.0516 40.1545 15.9387 40.4059 17.5361 38.1271C17.5574 38.095 17.5854 38.068 17.6182 38.0477C17.651 38.0275 17.6877 38.0145 17.726 38.0098C17.8013 37.9999 17.8775 38.02 17.9382 38.0656C20.1276 39.7803 20.5744 44.5278 20.1723 45.9855C19.5076 48.3816 16.8826 48.4207 15.9163 48.3481L16.3408 52.9894C16.3439 53.0313 16.338 53.0735 16.3236 53.113C16.3091 53.1524 16.2865 53.1884 16.257 53.2184C16.2074 53.2664 16.1417 53.2942 16.0727 53.2966ZM11.9061 52.2466L15.7655 52.699L15.3411 48.0632C15.3379 48.0208 15.3443 47.9782 15.3598 47.9386C15.3752 47.899 15.3994 47.8633 15.4304 47.8342C15.4606 47.8039 15.4978 47.7815 15.5387 47.7688C15.5796 47.7562 15.6229 47.7537 15.665 47.7616C15.799 47.7616 18.9659 48.2811 19.6417 45.8403C19.9656 44.673 19.6417 40.4226 17.8153 38.6912C16.1397 40.6516 12.4311 40.741 11.3029 40.7242C11.4425 42.2211 12.0234 48.7 11.9005 52.2466H11.9061Z" fill="#F47B20"/>
<path d="M15.6146 48.0353C14.8175 47.9396 14.062 47.6266 13.4308 47.1305C13.4308 47.1305 14.3915 49.5433 15.8827 49.9231L15.6146 48.0353Z" fill="#F47B20"/>
<path d="M15.8827 50.1575H15.8213C14.2239 49.7721 13.2353 47.3314 13.1906 47.2309C13.1686 47.176 13.1666 47.1151 13.185 47.059C13.2033 47.0028 13.2409 46.9549 13.2911 46.9237C13.3395 46.8903 13.3981 46.8753 13.4565 46.8815C13.5149 46.8876 13.5692 46.9145 13.6095 46.9572C14.2018 47.4128 14.9061 47.7003 15.6481 47.7894C15.7035 47.7964 15.7549 47.8216 15.7943 47.861C15.8338 47.9004 15.859 47.9519 15.8659 48.0072L16.134 49.8727C16.1399 49.9135 16.1358 49.955 16.1222 49.9939C16.1086 50.0328 16.0858 50.0678 16.0558 50.0961C16.0074 50.1368 15.9459 50.1586 15.8827 50.1575ZM14.0787 47.862C14.4179 48.5432 14.9327 49.1216 15.5699 49.5376L15.3912 48.2809C14.9388 48.1933 14.4982 48.0527 14.0787 47.862Z" fill="#F47B20"/>
<path d="M19.4238 50.4425L31.0076 56.7929L28.2149 64.8971C28.2149 64.8971 13.6598 57.1895 13.5592 55.1062C13.4587 53.0229 19.4238 50.4425 19.4238 50.4425Z" fill="#FDDAA5"/>
<path d="M23.1215 74.9059C23.1215 74.9059 23.5962 64.4447 22.5629 58.1501C22.1217 55.4692 22.2948 53.587 21.4068 52.1348C18.4243 47.2645 6.80694 48.7167 5.12019 52.0957C3.43345 55.4748 2.10974 75.0064 2.10974 75.0064L23.1215 74.9059Z" fill="#FDDAA5"/>
<path d="M11.8167 43.2654C11.7531 42.9524 11.6042 42.663 11.3863 42.4294C11.1685 42.1958 10.8902 42.027 10.5824 41.9417C10.4444 41.8962 10.2983 41.8806 10.1539 41.896C10.0094 41.9114 9.86989 41.9575 9.74462 42.031C9.59937 42.1559 9.48866 42.316 9.42313 42.496C9.3576 42.6759 9.33944 42.8697 9.3704 43.0587C9.41841 43.6629 9.69149 44.227 10.1356 44.6394C10.5831 45.0454 11.1678 45.2669 11.7721 45.2593" fill="white"/>
<path d="M11.7327 45.5385C11.0623 45.5402 10.4161 45.2875 9.92477 44.8314C9.4334 44.3753 9.13338 43.7497 9.0853 43.081C9.05 42.8425 9.07784 42.5988 9.16604 42.3744C9.25424 42.15 9.39971 41.9526 9.58797 41.802C9.7454 41.7035 9.92237 41.6405 10.1066 41.6174C10.2908 41.5943 10.4779 41.6115 10.6548 41.6679C11.0123 41.7687 11.3352 41.9658 11.5884 42.2376C11.8415 42.5095 12.0151 42.8457 12.0902 43.2094C12.0975 43.2454 12.0977 43.2824 12.0907 43.3184C12.0837 43.3544 12.0697 43.3887 12.0495 43.4193C12.0293 43.4499 12.0032 43.4763 11.9728 43.4968C11.9424 43.5173 11.9083 43.5316 11.8723 43.539C11.7991 43.5521 11.7236 43.5361 11.6621 43.4944C11.6005 43.4526 11.5577 43.3885 11.5428 43.3156C11.4884 43.053 11.3635 42.8103 11.1814 42.6135C10.9993 42.4166 10.7671 42.2732 10.5095 42.1985C10.411 42.1635 10.3059 42.1503 10.2018 42.16C10.0976 42.1696 9.99679 42.2018 9.90633 42.2544C9.80457 42.354 9.72776 42.4762 9.68214 42.6111C9.63653 42.746 9.6234 42.8898 9.64382 43.0307C9.68566 43.5629 9.92705 44.0597 10.3196 44.4214C10.7139 44.7802 11.2276 44.9793 11.7606 44.98C11.8342 44.9814 11.9045 45.0113 11.9565 45.0633C12.0086 45.1154 12.0385 45.1856 12.0399 45.2592C12.0399 45.3333 12.0105 45.4043 11.9581 45.4567C11.9057 45.5091 11.8347 45.5385 11.7606 45.5385H11.7327Z" fill="#F47B20"/>
<path d="M18.0682 41.3143C18.1978 41.2739 18.2425 41.0478 18.168 40.8093C18.0936 40.5708 17.9282 40.4102 17.7987 40.4506C17.6691 40.491 17.6244 40.7172 17.6988 40.9557C17.7733 41.1942 17.9386 41.3548 18.0682 41.3143Z" fill="#F47B20"/>
<path d="M21.9259 118.029C21.9259 118.029 21.7416 120.911 22.1158 121.381C22.49 121.85 31.7671 122.425 31.3035 121.308C30.8399 120.191 27.9524 117.828 27.9524 117.828" fill="white"/>
<path d="M27.9134 122.235C25.3107 122.235 22.1885 121.917 21.8981 121.548C21.4903 121.04 21.6021 118.716 21.6467 118.013C21.6538 117.939 21.6891 117.87 21.7452 117.821C21.8013 117.772 21.874 117.747 21.9483 117.75C21.985 117.753 22.0208 117.763 22.0537 117.78C22.0865 117.796 22.1157 117.82 22.1395 117.848C22.1634 117.876 22.1815 117.908 22.1928 117.943C22.2041 117.978 22.2083 118.015 22.2053 118.052C22.1215 119.387 22.1494 120.973 22.3337 121.202C23.7797 121.488 25.2497 121.636 26.7237 121.643C29.4549 121.738 30.7507 121.537 31.0188 121.358C30.5999 120.476 28.5669 118.677 27.8017 118.046C27.7728 118.023 27.7488 117.994 27.7312 117.962C27.7136 117.929 27.7026 117.893 27.699 117.856C27.6953 117.819 27.6991 117.782 27.71 117.747C27.7209 117.711 27.7388 117.678 27.7626 117.65C27.8095 117.593 27.8768 117.557 27.95 117.55C28.0232 117.542 28.0964 117.564 28.1535 117.611C28.2764 117.711 31.0746 120.035 31.5606 121.202C31.6078 121.321 31.6075 121.453 31.5597 121.572C31.5118 121.69 31.4201 121.786 31.3036 121.839C30.8233 122.123 29.4773 122.235 27.9134 122.235Z" fill="#F47B20"/>
<path d="M19.0384 41.0034C19.0384 41.0034 21.0771 43.3269 20.5744 43.8296C20.0717 44.3322 18.8988 44.0809 18.8988 44.0809" fill="white"/>
<path d="M19.5468 44.4215C19.3088 44.4208 19.0714 44.3984 18.8375 44.3545C18.8014 44.3466 18.7673 44.3316 18.7371 44.3105C18.7069 44.2893 18.6812 44.2623 18.6615 44.2312C18.6418 44.2 18.6284 44.1653 18.6222 44.1289C18.6159 44.0926 18.617 44.0554 18.6252 44.0194C18.6325 43.9836 18.6469 43.9496 18.6675 43.9195C18.6881 43.8893 18.7145 43.8636 18.7452 43.8438C18.7759 43.824 18.8103 43.8106 18.8463 43.8043C18.8823 43.798 18.9191 43.799 18.9547 43.8072C19.2228 43.863 20.0718 43.9524 20.379 43.634C20.4739 43.3939 19.7367 42.2265 18.8319 41.1877C18.8052 41.1626 18.7839 41.1323 18.7693 41.0987C18.7548 41.0651 18.7472 41.0288 18.7472 40.9922C18.7472 40.9556 18.7548 40.9193 18.7693 40.8857C18.7839 40.8521 18.8052 40.8218 18.8319 40.7967C18.8578 40.7705 18.8887 40.7498 18.9228 40.7356C18.9568 40.7214 18.9933 40.7141 19.0301 40.7141C19.067 40.7141 19.1035 40.7214 19.1375 40.7356C19.1716 40.7498 19.2025 40.7705 19.2284 40.7967C20.055 41.7406 21.3508 43.405 20.7532 44.0026C20.4188 44.2904 19.9875 44.4402 19.5468 44.4215Z" fill="#F47B20"/>
<path d="M28.2204 65.1763C28.1754 65.1766 28.1311 65.165 28.0919 65.1428C28.0081 65.1037 19.9989 60.8254 17.0834 59.2392C17.0505 59.2222 17.0214 59.1988 16.9978 59.1702C16.9743 59.1417 16.9567 59.1087 16.9463 59.0732C16.9359 59.0377 16.9327 59.0005 16.9371 58.9637C16.9415 58.927 16.9532 58.8915 16.9717 58.8594C16.9887 58.8273 17.0119 58.7988 17.04 58.7758C17.0681 58.7527 17.1005 58.7355 17.1354 58.7251C17.1702 58.7147 17.2068 58.7113 17.2429 58.7152C17.2791 58.7191 17.3141 58.7301 17.3459 58.7477C20.267 60.3339 28.2706 64.6066 28.3544 64.6513C28.3868 64.6688 28.4153 64.6926 28.4384 64.7212C28.4616 64.7498 28.4788 64.7827 28.4892 64.818C28.4996 64.8533 28.5029 64.8903 28.4989 64.9269C28.495 64.9634 28.4838 64.9989 28.4661 65.0311C28.4425 65.0756 28.4071 65.1127 28.3637 65.1383C28.3203 65.1639 28.2707 65.1771 28.2204 65.1763Z" fill="#F47B20"/>
<path d="M13.71 84.5908C13.676 84.5915 13.6422 84.5854 13.6106 84.5729C13.5789 84.5605 13.5501 84.5419 13.5257 84.5182C13.4754 84.4735 12.3025 83.3676 11.0905 79.2904C11.0711 79.2185 11.08 79.142 11.1153 79.0765C11.1506 79.0111 11.2097 78.9617 11.2804 78.9385C11.3515 78.9192 11.4273 78.9283 11.4918 78.9637C11.5564 78.9991 11.6047 79.0581 11.6267 79.1284C12.7829 83.0381 13.8608 84.0993 13.8999 84.1048C13.9261 84.1308 13.9469 84.1617 13.961 84.1957C13.9752 84.2298 13.9825 84.2663 13.9825 84.3031C13.9825 84.34 13.9752 84.3765 13.961 84.4105C13.9469 84.4445 13.9261 84.4754 13.8999 84.5014C13.8757 84.5281 13.8465 84.5497 13.8139 84.565C13.7813 84.5803 13.746 84.5891 13.71 84.5908Z" fill="white"/>
<path d="M15.9611 44.7286C16.0843 45.0352 16.2898 45.3017 16.5549 45.4989C16.82 45.696 17.1344 45.816 17.4635 45.8457C17.7889 45.8656 18.1146 45.8127 18.4169 45.691C18.7193 45.5692 18.9908 45.3817 19.2117 45.1419" fill="white"/>
<path d="M17.6251 46.1028H17.4352C17.0578 46.0717 16.6962 45.9375 16.3899 45.7149C16.0835 45.4923 15.8443 45.1898 15.6982 44.8405C15.6715 44.7709 15.6736 44.6935 15.704 44.6254C15.7343 44.5573 15.7905 44.5041 15.8601 44.4775C15.9298 44.4508 16.0071 44.4529 16.0752 44.4833C16.1433 44.5136 16.1965 44.5698 16.2232 44.6394C16.3299 44.8923 16.5041 45.111 16.7267 45.2716C16.9493 45.4321 17.2118 45.5284 17.4854 45.5498C17.7691 45.5654 18.0527 45.5185 18.3162 45.4123C18.5797 45.3061 18.8166 45.1433 19.0102 44.9354C19.0362 44.9093 19.0671 44.8885 19.1011 44.8743C19.1351 44.8601 19.1716 44.8528 19.2085 44.8528C19.2454 44.8528 19.2819 44.8601 19.3159 44.8743C19.3499 44.8885 19.3808 44.9093 19.4068 44.9354C19.4328 44.9609 19.4534 44.9913 19.4675 45.0249C19.4816 45.0585 19.4889 45.0945 19.4889 45.1309C19.4889 45.1673 19.4816 45.2034 19.4675 45.2369C19.4534 45.2705 19.4328 45.3009 19.4068 45.3264C19.1766 45.5681 18.9004 45.7613 18.5944 45.8946C18.2884 46.028 17.9588 46.0987 17.6251 46.1028Z" fill="#F47B20"/>
<path d="M9.59362 47.7336C8.47013 47.7339 7.36232 47.4699 6.35976 46.9628C5.86124 46.7416 5.44225 46.3733 5.15893 45.9072C5.00577 45.6239 4.94522 45.2996 4.98579 44.9801C4.53567 45.0456 4.07636 44.9674 3.67326 44.7567C3.08885 44.4284 2.58808 43.9697 2.20992 43.4162C2.07471 43.2614 1.99941 43.0632 1.99768 42.8577C2.02013 42.6603 2.1134 42.4777 2.26019 42.3438L2.6344 41.9361C3.32322 41.2426 3.92525 40.4681 4.42727 39.6294C4.7307 39.0248 4.98112 38.395 5.17569 37.7472C5.33766 37.2613 5.50522 36.7586 5.73421 36.2783C7.24223 32.8713 10.0293 32.3183 12.565 32.2234C14.1624 32.1675 16.2903 32.6702 17.2566 34.262C17.3197 34.215 17.3893 34.1773 17.4632 34.1503C17.7665 34.0383 18.1016 34.0504 18.396 34.1838C18.8129 34.4195 19.1465 34.7785 19.3511 35.2115C20.294 36.9142 20.7173 38.856 20.5686 40.7967C20.5666 40.8337 20.557 40.8699 20.5406 40.9031C20.5241 40.9363 20.5011 40.9658 20.4729 40.9898C20.4447 41.0138 20.4119 41.0318 20.3765 41.0428C20.3411 41.0538 20.3039 41.0575 20.267 41.0536C20.1939 41.0479 20.126 41.0137 20.0779 40.9583C20.0298 40.9029 20.0055 40.8308 20.0101 40.7576C20.1475 38.9334 19.7495 37.1088 18.8651 35.5075C18.7071 35.1827 18.4538 34.9138 18.1391 34.7367C17.9815 34.6728 17.8051 34.6728 17.6476 34.7367C17.6012 34.7524 17.5585 34.7774 17.522 34.81C17.4856 34.8426 17.4561 34.8823 17.4353 34.9266C17.4139 34.9757 17.3788 35.0176 17.3343 35.0473C17.2897 35.077 17.2375 35.0933 17.184 35.0942C17.1298 35.093 17.077 35.0767 17.0316 35.0471C16.9862 35.0175 16.95 34.9757 16.9271 34.9266C16.201 33.3013 14.1344 32.7819 12.5706 32.8489C9.1859 32.9718 7.34835 34.0497 6.23689 36.5687C6.03807 37.0324 5.86284 37.5059 5.71187 37.9873C5.49806 38.6536 5.22709 39.3002 4.90201 39.9198C4.38006 40.7996 3.74957 41.6102 3.02537 42.3327L2.65674 42.7404C2.60566 42.7881 2.56398 42.8449 2.53386 42.9079C2.56113 42.9867 2.60714 43.0576 2.66791 43.1146C2.99285 43.6004 3.42462 44.0054 3.93018 44.2987C4.15963 44.4251 4.41843 44.4885 4.68032 44.4826C4.94221 44.4768 5.19789 44.4017 5.42144 44.2652C5.48028 44.2253 5.55211 44.2093 5.6223 44.2205C5.69249 44.2318 5.75576 44.2694 5.7992 44.3256C5.84265 44.3819 5.863 44.4526 5.85611 44.5234C5.84923 44.5941 5.81562 44.6596 5.76214 44.7064C5.64015 44.8342 5.56366 44.9987 5.54448 45.1743C5.5253 45.35 5.56449 45.5271 5.65602 45.6782C5.89536 46.0263 6.22845 46.2993 6.61668 46.4658C7.6523 46.9908 8.80869 47.2317 9.96783 47.1639C10.0047 47.1609 10.0418 47.1653 10.0769 47.177C10.1119 47.1887 10.1443 47.2074 10.172 47.2319C10.1996 47.2564 10.222 47.2863 10.2378 47.3197C10.2536 47.3532 10.2625 47.3895 10.2639 47.4264C10.2661 47.4631 10.2611 47.4999 10.2491 47.5346C10.2372 47.5694 10.2184 47.6014 10.1941 47.6289C10.1697 47.6564 10.1401 47.6788 10.107 47.6949C10.074 47.7109 10.038 47.7203 10.0013 47.7224L9.59362 47.7336Z" fill="#F47B20"/>
<path d="M137.658 20.4831H121.461C121.423 20.4839 121.385 20.477 121.35 20.463C121.315 20.4491 121.283 20.4282 121.256 20.4017C121.229 20.3752 121.207 20.3435 121.193 20.3086C121.178 20.2736 121.17 20.2361 121.17 20.1983V4.01779C121.158 3.97457 121.156 3.92907 121.164 3.88487C121.172 3.84068 121.191 3.799 121.218 3.76311C121.245 3.72723 121.28 3.69811 121.32 3.67807C121.36 3.65802 121.405 3.64758 121.45 3.64758C121.495 3.64758 121.539 3.65802 121.579 3.67807C121.619 3.69811 121.654 3.72723 121.681 3.76311C121.709 3.799 121.727 3.84068 121.735 3.88487C121.743 3.92907 121.741 3.97457 121.729 4.01779V19.9078H137.652C137.696 19.8955 137.741 19.8933 137.785 19.9016C137.83 19.9098 137.871 19.9282 137.907 19.9552C137.943 19.9823 137.972 20.0173 137.992 20.0576C138.012 20.0978 138.023 20.1421 138.023 20.1871C138.023 20.232 138.012 20.2764 137.992 20.3166C137.972 20.3568 137.943 20.3919 137.907 20.419C137.871 20.446 137.83 20.4644 137.785 20.4726C137.741 20.4808 137.696 20.4787 137.652 20.4664L137.658 20.4831Z" fill="#F47B20"/>
<path d="M80.6719 14.6298C80.229 14.6173 79.7981 14.4836 79.4259 14.2433C79.0537 14.0031 78.7544 13.6654 78.5606 13.267C77.9072 12.0103 76.092 5.44766 75.768 2.83376C75.668 2.24732 75.8014 1.64504 76.1395 1.15558C76.4776 0.666124 76.9938 0.328299 77.5776 0.21428C78.8455 -0.137591 80.5825 0.214281 81.0461 1.25872C81.4259 2.11885 82.0961 3.73857 82.0961 3.73857L81.5655 3.96198C81.5655 3.96198 80.8618 2.34226 80.5043 1.48772C80.2083 0.806318 78.8287 0.454446 77.7117 0.76722C77.2627 0.847597 76.8638 1.10245 76.6021 1.47609C76.3405 1.84972 76.2374 2.31174 76.3154 2.76115C76.6728 5.55378 78.4824 11.8819 79.0633 12.9989C79.2274 13.3556 79.5048 13.648 79.8522 13.8308C80.1997 14.0136 80.5977 14.0766 80.9846 14.0098C81.2682 13.9175 81.5089 13.7261 81.6628 13.4707C81.8167 13.2153 81.8733 12.9129 81.8224 12.6191C81.7498 10.5079 78.9013 2.78908 78.8734 2.71089C78.8601 2.67535 78.8541 2.63752 78.8556 2.59961C78.8572 2.56171 78.8663 2.52449 78.8824 2.49015C78.8986 2.45581 78.9214 2.42505 78.9496 2.39965C78.9778 2.37425 79.0107 2.35474 79.0466 2.34226C79.1177 2.31671 79.196 2.31992 79.2649 2.35121C79.3337 2.3825 79.3876 2.4394 79.4152 2.50982C79.5325 2.83376 82.3195 10.3962 82.3977 12.5968C82.457 13.0227 82.3617 13.4558 82.1291 13.8175C81.8965 14.1792 81.542 14.4456 81.1298 14.5684C80.9803 14.6078 80.8265 14.6284 80.6719 14.6298Z" fill="#F47B20"/>
<rect width="0.6" height="38.9642" transform="matrix(-0.995858 -0.0909187 -0.0909187 0.995858 91.4368 45.0546)" fill="#D0D5DD"/>
<rect width="0.6" height="38.9642" transform="matrix(-0.995858 -0.0909187 -0.0909187 0.995858 86.4368 45.0546)" fill="#D0D5DD"/>
<rect width="0.6" height="38.9642" transform="matrix(-0.995858 -0.0909187 -0.0909187 0.995858 81.4368 44.0546)" fill="#D0D5DD"/>
<rect width="0.6" height="38.9642" transform="matrix(-0.995858 -0.0909187 -0.0909187 0.995858 76.4368 43.0546)" fill="#D0D5DD"/>
<rect width="0.6" height="38.9642" transform="matrix(-0.995858 -0.0909187 -0.0909187 0.995858 71.4368 43.0546)" fill="#D0D5DD"/>
<rect width="0.6" height="38.9642" transform="matrix(-0.995858 -0.0909187 -0.0909187 0.995858 66.4368 43.0546)" fill="#D0D5DD"/>
<rect width="0.6" height="38.9642" transform="matrix(-0.995858 -0.0909187 -0.0909187 0.995858 61.4368 43.0546)" fill="#D0D5DD"/>
<rect width="0.6" height="38.9642" transform="matrix(-0.995858 -0.0909187 -0.0909187 0.995858 56.4368 42.0546)" fill="#D0D5DD"/>
<rect width="0.6" height="38.9642" transform="matrix(-0.995858 -0.0909187 -0.0909187 0.995858 51.4368 41.0546)" fill="#D0D5DD"/>
<rect width="0.6" height="20.2283" transform="matrix(-0.995858 -0.0909187 -0.0909187 0.995858 43.7334 59.7129)" fill="#D0D5DD"/>
<rect width="0.6" height="13.25" transform="matrix(-0.995858 -0.0909187 -0.0909187 0.995858 38.8022 66.0039)" fill="#D0D5DD"/>
<path d="M143.517 119.772H47.5511C45.3561 119.772 43.5521 118.968 42.6026 117.538C41.7648 116.281 41.6475 114.606 42.3233 112.93L63.8991 59.5296C65.3848 55.8601 70.0429 52.8776 74.3436 52.8776H170.326C172.527 52.8776 174.331 53.6818 175.275 55.0837C176.14 56.3628 176.235 58.0216 175.537 59.7474L153.956 113.142C152.476 116.784 147.79 119.772 143.517 119.772ZM74.3659 53.4249C70.3054 53.4249 65.8596 56.2175 64.4577 59.7195L42.8818 113.114C42.2619 114.656 42.3233 116.125 43.0885 117.242C43.9263 118.482 45.5516 119.197 47.5567 119.197H143.517C147.577 119.197 152.018 116.371 153.425 112.902L175.001 59.5017C175.626 57.9601 175.559 56.4968 174.8 55.3798C173.962 54.1343 172.331 53.4249 170.332 53.4249H74.3659Z" fill="#F47B20"/>
<path d="M74.3659 53.1345H170.326C174.498 53.1345 176.716 56.0333 175.269 59.6078L153.688 113.008C152.247 116.583 147.689 119.482 143.517 119.482H47.5511C43.379 119.482 41.1672 116.583 42.6138 113.008L64.1896 59.6078C65.6362 56.0333 70.1882 53.1345 74.3659 53.1345Z" fill="white"/>
<path d="M159.228 70.784H126.359C126.017 70.8057 125.674 70.7396 125.364 70.5921C125.054 70.4445 124.787 70.2202 124.589 69.9406C124.395 69.6022 124.288 69.2215 124.276 68.8319C124.265 68.4424 124.349 68.0559 124.521 67.7065L125.639 65.0088C126 64.2042 126.571 63.5118 127.292 63.0046C128.014 62.4974 128.859 62.1942 129.738 62.1268H162.613C162.955 62.1077 163.297 62.175 163.606 62.3223C163.915 62.4697 164.183 62.6925 164.383 62.9702C164.577 63.3086 164.684 63.6893 164.696 64.0789C164.707 64.4685 164.623 64.8549 164.45 65.2043L163.333 67.9076C162.972 68.7123 162.399 69.4044 161.677 69.9107C160.954 70.417 160.108 70.7187 159.228 70.784ZM129.749 62.663C128.983 62.7252 128.247 62.9924 127.619 63.4365C126.991 63.8807 126.494 64.4854 126.18 65.1876L125.063 67.8908C124.923 68.1548 124.85 68.4492 124.85 68.7482C124.85 69.0471 124.923 69.3415 125.063 69.6055C125.216 69.7983 125.415 69.9502 125.641 70.0477C125.867 70.1452 126.114 70.1851 126.359 70.164H159.228C159.99 70.1076 160.722 69.8485 161.35 69.4134C161.978 68.9783 162.477 68.3832 162.797 67.6897L163.914 64.9921C164.055 64.7272 164.129 64.4319 164.129 64.1319C164.129 63.832 164.055 63.5366 163.914 63.2718C163.766 63.0736 163.57 62.9159 163.344 62.8134C163.119 62.7109 162.871 62.6669 162.624 62.6854L129.749 62.663Z" fill="#F47B20"/>
</svg>
