<svg width="360" height="379" viewBox="0 0 360 379" fill="none" xmlns="http://www.w3.org/2000/svg">
<g clip-path="url(#clip0_1_1574)">
<path d="M0 0H360V379H72C32.2355 379 0 346.764 0 307V0Z" fill="#F47B20"/>
<path d="M2.5 377.5L-1 75C51 193.5 110 254.5 238 178.5C289.596 147.865 322.5 143.5 361 169.5V377.5H2.5Z" fill="url(#paint0_linear_1_1574)"/>
<path d="M360 0.49317V378.918H38.8347C38.8386 379.026 38.8237 379.028 38.7888 378.918H38.8347C38.7449 376.446 28.866 318.767 24.3018 286.472C-0.67573 109.733 185.086 175.587 220.625 94.4211C259.59 5.43235 305.882 -2.47034 360 0.49317Z" fill="url(#paint1_linear_1_1574)"/>
<path d="M3.05176e-05 -74.5008V308.584H321.454C321.45 308.694 321.465 308.696 321.5 308.584H321.454C321.544 306.082 331.432 247.693 336 214.999C361 36.084 175.072 102.749 139.5 20.5839C100.5 -69.5008 54.1667 -77.5008 3.05176e-05 -74.5008Z" fill="url(#paint2_linear_1_1574)"/>
<path d="M64.024 309L58.528 292.2H62.56L67.336 307.08H65.32L70.312 292.2H73.912L78.712 307.08H76.768L81.664 292.2H85.384L79.888 309H75.712L71.464 295.944H72.568L68.2 309H64.024ZM92.7376 309.192C91.2656 309.192 89.9696 308.904 88.8496 308.328C87.7456 307.752 86.8896 306.968 86.2816 305.976C85.6736 304.968 85.3696 303.824 85.3696 302.544C85.3696 301.248 85.6656 300.104 86.2576 299.112C86.8656 298.104 87.6896 297.32 88.7296 296.76C89.7696 296.184 90.9456 295.896 92.2576 295.896C93.5216 295.896 94.6576 296.168 95.6656 296.712C96.6896 297.24 97.4976 298.008 98.0896 299.016C98.6816 300.008 98.9776 301.2 98.9776 302.592C98.9776 302.736 98.9696 302.904 98.9536 303.096C98.9376 303.272 98.9216 303.44 98.9056 303.6H88.4176V301.416H96.9376L95.4976 302.064C95.4976 301.392 95.3616 300.808 95.0896 300.312C94.8176 299.816 94.4416 299.432 93.9616 299.16C93.4816 298.872 92.9216 298.728 92.2816 298.728C91.6416 298.728 91.0736 298.872 90.5776 299.16C90.0976 299.432 89.7216 299.824 89.4496 300.336C89.1776 300.832 89.0416 301.424 89.0416 302.112V302.688C89.0416 303.392 89.1936 304.016 89.4976 304.56C89.8176 305.088 90.2576 305.496 90.8176 305.784C91.3936 306.056 92.0656 306.192 92.8336 306.192C93.5216 306.192 94.1216 306.088 94.6336 305.88C95.1616 305.672 95.6416 305.36 96.0736 304.944L98.0656 307.104C97.4736 307.776 96.7296 308.296 95.8336 308.664C94.9376 309.016 93.9056 309.192 92.7376 309.192ZM101.47 309V291.192H105.214V309H101.47ZM114.929 309.192C113.537 309.192 112.297 308.912 111.209 308.352C110.121 307.776 109.265 306.984 108.641 305.976C108.033 304.968 107.729 303.824 107.729 302.544C107.729 301.248 108.033 300.104 108.641 299.112C109.265 298.104 110.121 297.32 111.209 296.76C112.297 296.184 113.537 295.896 114.929 295.896C116.289 295.896 117.473 296.184 118.481 296.76C119.489 297.32 120.233 298.128 120.713 299.184L117.809 300.744C117.473 300.136 117.049 299.688 116.537 299.4C116.041 299.112 115.497 298.968 114.905 298.968C114.265 298.968 113.689 299.112 113.177 299.4C112.665 299.688 112.257 300.096 111.953 300.624C111.665 301.152 111.521 301.792 111.521 302.544C111.521 303.296 111.665 303.936 111.953 304.464C112.257 304.992 112.665 305.4 113.177 305.688C113.689 305.976 114.265 306.12 114.905 306.12C115.497 306.12 116.041 305.984 116.537 305.712C117.049 305.424 117.473 304.968 117.809 304.344L120.713 305.928C120.233 306.968 119.489 307.776 118.481 308.352C117.473 308.912 116.289 309.192 114.929 309.192ZM128.849 309.192C127.473 309.192 126.249 308.904 125.177 308.328C124.121 307.752 123.281 306.968 122.657 305.976C122.049 304.968 121.745 303.824 121.745 302.544C121.745 301.248 122.049 300.104 122.657 299.112C123.281 298.104 124.121 297.32 125.177 296.76C126.249 296.184 127.473 295.896 128.849 295.896C130.209 295.896 131.425 296.184 132.497 296.76C133.569 297.32 134.409 298.096 135.017 299.088C135.625 300.08 135.929 301.232 135.929 302.544C135.929 303.824 135.625 304.968 135.017 305.976C134.409 306.968 133.569 307.752 132.497 308.328C131.425 308.904 130.209 309.192 128.849 309.192ZM128.849 306.12C129.473 306.12 130.033 305.976 130.529 305.688C131.025 305.4 131.417 304.992 131.705 304.464C131.993 303.92 132.137 303.28 132.137 302.544C132.137 301.792 131.993 301.152 131.705 300.624C131.417 300.096 131.025 299.688 130.529 299.4C130.033 299.112 129.473 298.968 128.849 298.968C128.225 298.968 127.665 299.112 127.169 299.4C126.673 299.688 126.273 300.096 125.969 300.624C125.681 301.152 125.537 301.792 125.537 302.544C125.537 303.28 125.681 303.92 125.969 304.464C126.273 304.992 126.673 305.4 127.169 305.688C127.665 305.976 128.225 306.12 128.849 306.12ZM154.967 295.896C155.991 295.896 156.895 296.104 157.679 296.52C158.479 296.92 159.103 297.544 159.551 298.392C160.015 299.224 160.247 300.296 160.247 301.608V309H156.503V302.184C156.503 301.144 156.287 300.376 155.855 299.88C155.423 299.384 154.815 299.136 154.031 299.136C153.487 299.136 152.999 299.264 152.567 299.52C152.135 299.76 151.799 300.128 151.559 300.624C151.319 301.12 151.199 301.752 151.199 302.52V309H147.455V302.184C147.455 301.144 147.239 300.376 146.807 299.88C146.391 299.384 145.791 299.136 145.007 299.136C144.463 299.136 143.975 299.264 143.543 299.52C143.111 299.76 142.775 300.128 142.535 300.624C142.295 301.12 142.175 301.752 142.175 302.52V309H138.431V296.088H142.007V299.616L141.335 298.584C141.783 297.704 142.415 297.04 143.231 296.592C144.063 296.128 145.007 295.896 146.063 295.896C147.247 295.896 148.279 296.2 149.159 296.808C150.055 297.4 150.647 298.312 150.935 299.544L149.615 299.184C150.047 298.176 150.735 297.376 151.679 296.784C152.639 296.192 153.735 295.896 154.967 295.896ZM170.105 309.192C168.633 309.192 167.337 308.904 166.217 308.328C165.113 307.752 164.257 306.968 163.649 305.976C163.041 304.968 162.737 303.824 162.737 302.544C162.737 301.248 163.033 300.104 163.625 299.112C164.233 298.104 165.057 297.32 166.097 296.76C167.137 296.184 168.313 295.896 169.625 295.896C170.889 295.896 172.025 296.168 173.033 296.712C174.057 297.24 174.865 298.008 175.457 299.016C176.049 300.008 176.345 301.2 176.345 302.592C176.345 302.736 176.337 302.904 176.321 303.096C176.305 303.272 176.289 303.44 176.273 303.6H165.785V301.416H174.305L172.865 302.064C172.865 301.392 172.729 300.808 172.457 300.312C172.185 299.816 171.809 299.432 171.329 299.16C170.849 298.872 170.289 298.728 169.649 298.728C169.009 298.728 168.441 298.872 167.945 299.16C167.465 299.432 167.089 299.824 166.817 300.336C166.545 300.832 166.409 301.424 166.409 302.112V302.688C166.409 303.392 166.561 304.016 166.865 304.56C167.185 305.088 167.625 305.496 168.185 305.784C168.761 306.056 169.433 306.192 170.201 306.192C170.889 306.192 171.489 306.088 172.001 305.88C172.529 305.672 173.009 305.36 173.441 304.944L175.433 307.104C174.841 307.776 174.097 308.296 173.201 308.664C172.305 309.016 171.273 309.192 170.105 309.192ZM190.914 309.192C189.394 309.192 188.21 308.808 187.362 308.04C186.514 307.256 186.09 306.096 186.09 304.56V293.232H189.834V304.512C189.834 305.056 189.978 305.48 190.266 305.784C190.554 306.072 190.946 306.216 191.442 306.216C192.034 306.216 192.538 306.056 192.954 305.736L193.962 308.376C193.578 308.648 193.114 308.856 192.57 309C192.042 309.128 191.49 309.192 190.914 309.192ZM184.098 299.256V296.376H193.05V299.256H184.098ZM201.81 309.192C200.434 309.192 199.21 308.904 198.138 308.328C197.082 307.752 196.242 306.968 195.618 305.976C195.01 304.968 194.706 303.824 194.706 302.544C194.706 301.248 195.01 300.104 195.618 299.112C196.242 298.104 197.082 297.32 198.138 296.76C199.21 296.184 200.434 295.896 201.81 295.896C203.17 295.896 204.386 296.184 205.458 296.76C206.53 297.32 207.37 298.096 207.978 299.088C208.586 300.08 208.89 301.232 208.89 302.544C208.89 303.824 208.586 304.968 207.978 305.976C207.37 306.968 206.53 307.752 205.458 308.328C204.386 308.904 203.17 309.192 201.81 309.192ZM201.81 306.12C202.434 306.12 202.994 305.976 203.49 305.688C203.986 305.4 204.378 304.992 204.666 304.464C204.954 303.92 205.098 303.28 205.098 302.544C205.098 301.792 204.954 301.152 204.666 300.624C204.378 300.096 203.986 299.688 203.49 299.4C202.994 299.112 202.434 298.968 201.81 298.968C201.186 298.968 200.626 299.112 200.13 299.4C199.634 299.688 199.234 300.096 198.93 300.624C198.642 301.152 198.498 301.792 198.498 302.544C198.498 303.28 198.642 303.92 198.93 304.464C199.234 304.992 199.634 305.4 200.13 305.688C200.626 305.976 201.186 306.12 201.81 306.12ZM59.992 339V322.2H67.264C68.768 322.2 70.064 322.448 71.152 322.944C72.24 323.424 73.08 324.12 73.672 325.032C74.264 325.944 74.56 327.032 74.56 328.296C74.56 329.544 74.264 330.624 73.672 331.536C73.08 332.448 72.24 333.152 71.152 333.648C70.064 334.128 68.768 334.368 67.264 334.368H62.152L63.88 332.616V339H59.992ZM63.88 333.048L62.152 331.2H67.048C68.248 331.2 69.144 330.944 69.736 330.432C70.328 329.92 70.624 329.208 70.624 328.296C70.624 327.368 70.328 326.648 69.736 326.136C69.144 325.624 68.248 325.368 67.048 325.368H62.152L63.88 323.52V333.048ZM77.3061 339V326.088H81.0501V339H77.3061ZM79.1781 324.288C78.4901 324.288 77.9301 324.088 77.4981 323.688C77.0661 323.288 76.8501 322.792 76.8501 322.2C76.8501 321.608 77.0661 321.112 77.4981 320.712C77.9301 320.312 78.4901 320.112 79.1781 320.112C79.8661 320.112 80.4261 320.304 80.8581 320.688C81.2901 321.056 81.5061 321.536 81.5061 322.128C81.5061 322.752 81.2901 323.272 80.8581 323.688C80.4421 324.088 79.8821 324.288 79.1781 324.288ZM89.8049 339.192C88.2849 339.192 87.1009 338.808 86.2529 338.04C85.4049 337.256 84.9809 336.096 84.9809 334.56V323.232H88.7249V334.512C88.7249 335.056 88.8689 335.48 89.1569 335.784C89.4449 336.072 89.8369 336.216 90.3329 336.216C90.9249 336.216 91.4289 336.056 91.8449 335.736L92.8529 338.376C92.4689 338.648 92.0049 338.856 91.4609 339C90.9329 339.128 90.3809 339.192 89.8049 339.192ZM82.9889 329.256V326.376H91.9409V329.256H82.9889ZM94.9546 339V326.088H98.6986V339H94.9546ZM96.8266 324.288C96.1386 324.288 95.5786 324.088 95.1466 323.688C94.7146 323.288 94.4986 322.792 94.4986 322.2C94.4986 321.608 94.7146 321.112 95.1466 320.712C95.5786 320.312 96.1386 320.112 96.8266 320.112C97.5146 320.112 98.0746 320.304 98.5066 320.688C98.9386 321.056 99.1546 321.536 99.1546 322.128C99.1546 322.752 98.9386 323.272 98.5066 323.688C98.0906 324.088 97.5306 324.288 96.8266 324.288ZM105.269 336.36L105.365 331.8L111.389 326.088H115.853L110.069 331.968L108.125 333.552L105.269 336.36ZM102.173 339V321.192H105.917V339H102.173ZM111.797 339L107.429 333.576L109.781 330.672L116.333 339H111.797ZM125.078 339V322.2H128.966V339H125.078ZM140.537 325.896C141.561 325.896 142.473 326.104 143.273 326.52C144.089 326.92 144.729 327.544 145.193 328.392C145.657 329.224 145.889 330.296 145.889 331.608V339H142.145V332.184C142.145 331.144 141.913 330.376 141.449 329.88C141.001 329.384 140.361 329.136 139.529 329.136C138.937 329.136 138.401 329.264 137.921 329.52C137.457 329.76 137.089 330.136 136.817 330.648C136.561 331.16 136.433 331.816 136.433 332.616V339H132.689V326.088H136.265V329.664L135.593 328.584C136.057 327.72 136.721 327.056 137.585 326.592C138.449 326.128 139.433 325.896 140.537 325.896ZM154.563 339.192C153.043 339.192 151.859 338.808 151.011 338.04C150.163 337.256 149.739 336.096 149.739 334.56V323.232H153.483V334.512C153.483 335.056 153.627 335.48 153.915 335.784C154.203 336.072 154.595 336.216 155.091 336.216C155.683 336.216 156.187 336.056 156.603 335.736L157.611 338.376C157.227 338.648 156.763 338.856 156.219 339C155.691 339.128 155.139 339.192 154.563 339.192ZM147.747 329.256V326.376H156.699V329.256H147.747ZM165.722 339.192C164.25 339.192 162.954 338.904 161.834 338.328C160.73 337.752 159.874 336.968 159.266 335.976C158.658 334.968 158.354 333.824 158.354 332.544C158.354 331.248 158.65 330.104 159.242 329.112C159.85 328.104 160.674 327.32 161.714 326.76C162.754 326.184 163.93 325.896 165.242 325.896C166.506 325.896 167.642 326.168 168.65 326.712C169.674 327.24 170.482 328.008 171.074 329.016C171.666 330.008 171.962 331.2 171.962 332.592C171.962 332.736 171.954 332.904 171.938 333.096C171.922 333.272 171.906 333.44 171.89 333.6H161.402V331.416H169.922L168.482 332.064C168.482 331.392 168.346 330.808 168.074 330.312C167.802 329.816 167.426 329.432 166.946 329.16C166.466 328.872 165.906 328.728 165.266 328.728C164.626 328.728 164.058 328.872 163.562 329.16C163.082 329.432 162.706 329.824 162.434 330.336C162.162 330.832 162.026 331.424 162.026 332.112V332.688C162.026 333.392 162.178 334.016 162.482 334.56C162.802 335.088 163.242 335.496 163.802 335.784C164.378 336.056 165.05 336.192 165.818 336.192C166.506 336.192 167.106 336.088 167.618 335.88C168.146 335.672 168.626 335.36 169.058 334.944L171.05 337.104C170.458 337.776 169.714 338.296 168.818 338.664C167.922 339.016 166.89 339.192 165.722 339.192ZM174.455 339V326.088H178.031V329.736L177.527 328.68C177.911 327.768 178.527 327.08 179.375 326.616C180.223 326.136 181.255 325.896 182.471 325.896V329.352C182.311 329.336 182.167 329.328 182.039 329.328C181.911 329.312 181.775 329.304 181.631 329.304C180.607 329.304 179.775 329.6 179.135 330.192C178.511 330.768 178.199 331.672 178.199 332.904V339H174.455ZM192.568 325.896C193.592 325.896 194.504 326.104 195.304 326.52C196.12 326.92 196.76 327.544 197.224 328.392C197.688 329.224 197.92 330.296 197.92 331.608V339H194.176V332.184C194.176 331.144 193.944 330.376 193.48 329.88C193.032 329.384 192.392 329.136 191.56 329.136C190.968 329.136 190.432 329.264 189.952 329.52C189.488 329.76 189.12 330.136 188.848 330.648C188.592 331.16 188.464 331.816 188.464 332.616V339H184.72V326.088H188.296V329.664L187.624 328.584C188.088 327.72 188.752 327.056 189.616 326.592C190.48 326.128 191.464 325.896 192.568 325.896ZM209.234 339V336.48L208.994 335.928V331.416C208.994 330.616 208.746 329.992 208.25 329.544C207.77 329.096 207.026 328.872 206.018 328.872C205.33 328.872 204.65 328.984 203.978 329.208C203.322 329.416 202.762 329.704 202.298 330.072L200.954 327.456C201.658 326.96 202.506 326.576 203.498 326.304C204.49 326.032 205.498 325.896 206.522 325.896C208.49 325.896 210.018 326.36 211.106 327.288C212.194 328.216 212.738 329.664 212.738 331.632V339H209.234ZM205.298 339.192C204.29 339.192 203.426 339.024 202.706 338.688C201.986 338.336 201.434 337.864 201.05 337.272C200.666 336.68 200.474 336.016 200.474 335.28C200.474 334.512 200.658 333.84 201.026 333.264C201.41 332.688 202.01 332.24 202.826 331.92C203.642 331.584 204.706 331.416 206.018 331.416H209.45V333.6H206.426C205.546 333.6 204.938 333.744 204.602 334.032C204.282 334.32 204.122 334.68 204.122 335.112C204.122 335.592 204.306 335.976 204.674 336.264C205.058 336.536 205.578 336.672 206.234 336.672C206.858 336.672 207.418 336.528 207.914 336.24C208.41 335.936 208.77 335.496 208.994 334.92L209.57 336.648C209.298 337.48 208.802 338.112 208.082 338.544C207.362 338.976 206.434 339.192 205.298 339.192ZM216.126 339V321.192H219.87V339H216.126ZM228.198 339L235.686 322.2H239.526L247.038 339H242.958L236.814 324.168H238.35L232.182 339H228.198ZM231.942 335.4L232.974 332.448H241.614L242.67 335.4H231.942ZM256.149 339.192C255.061 339.192 254.109 338.952 253.293 338.472C252.477 337.992 251.837 337.264 251.373 336.288C250.925 335.296 250.701 334.048 250.701 332.544C250.701 331.024 250.917 329.776 251.349 328.8C251.781 327.824 252.405 327.096 253.221 326.616C254.037 326.136 255.013 325.896 256.149 325.896C257.365 325.896 258.453 326.176 259.413 326.736C260.389 327.28 261.157 328.048 261.717 329.04C262.293 330.032 262.581 331.2 262.581 332.544C262.581 333.904 262.293 335.08 261.717 336.072C261.157 337.064 260.389 337.832 259.413 338.376C258.453 338.92 257.365 339.192 256.149 339.192ZM248.517 343.656V326.088H252.093V328.728L252.021 332.568L252.261 336.384V343.656H248.517ZM255.501 336.12C256.125 336.12 256.677 335.976 257.157 335.688C257.653 335.4 258.045 334.992 258.333 334.464C258.637 333.92 258.789 333.28 258.789 332.544C258.789 331.792 258.637 331.152 258.333 330.624C258.045 330.096 257.653 329.688 257.157 329.4C256.677 329.112 256.125 328.968 255.501 328.968C254.877 328.968 254.317 329.112 253.821 329.4C253.325 329.688 252.933 330.096 252.645 330.624C252.357 331.152 252.213 331.792 252.213 332.544C252.213 333.28 252.357 333.92 252.645 334.464C252.933 334.992 253.325 335.4 253.821 335.688C254.317 335.976 254.877 336.12 255.501 336.12ZM272.719 339.192C271.631 339.192 270.679 338.952 269.863 338.472C269.047 337.992 268.407 337.264 267.943 336.288C267.495 335.296 267.271 334.048 267.271 332.544C267.271 331.024 267.487 329.776 267.919 328.8C268.351 327.824 268.975 327.096 269.791 326.616C270.607 326.136 271.583 325.896 272.719 325.896C273.935 325.896 275.023 326.176 275.983 326.736C276.959 327.28 277.727 328.048 278.287 329.04C278.863 330.032 279.151 331.2 279.151 332.544C279.151 333.904 278.863 335.08 278.287 336.072C277.727 337.064 276.959 337.832 275.983 338.376C275.023 338.92 273.935 339.192 272.719 339.192ZM265.087 343.656V326.088H268.663V328.728L268.591 332.568L268.831 336.384V343.656H265.087ZM272.071 336.12C272.695 336.12 273.247 335.976 273.727 335.688C274.223 335.4 274.615 334.992 274.903 334.464C275.207 333.92 275.359 333.28 275.359 332.544C275.359 331.792 275.207 331.152 274.903 330.624C274.615 330.096 274.223 329.688 273.727 329.4C273.247 329.112 272.695 328.968 272.071 328.968C271.447 328.968 270.887 329.112 270.391 329.4C269.895 329.688 269.503 330.096 269.215 330.624C268.927 331.152 268.783 331.792 268.783 332.544C268.783 333.28 268.927 333.92 269.215 334.464C269.503 334.992 269.895 335.4 270.391 335.688C270.887 335.976 271.447 336.12 272.071 336.12Z" fill="white"/>
</g>
<defs>
<linearGradient id="paint0_linear_1_1574" x1="181.75" y1="112" x2="181.75" y2="377.5" gradientUnits="userSpaceOnUse">
<stop stop-color="#FFA663"/>
<stop offset="1" stop-color="#F47B20" stop-opacity="0"/>
</linearGradient>
<linearGradient id="paint1_linear_1_1574" x1="191.152" y1="0.0828741" x2="191.152" y2="320.4" gradientUnits="userSpaceOnUse">
<stop stop-color="#FF994D"/>
<stop offset="1" stop-color="#F47B20" stop-opacity="0"/>
</linearGradient>
<linearGradient id="paint2_linear_1_1574" x1="169" y1="-74.9161" x2="169" y2="249.346" gradientUnits="userSpaceOnUse">
<stop stop-color="#FF994D"/>
<stop offset="1" stop-color="#F47B20" stop-opacity="0"/>
</linearGradient>
<clipPath id="clip0_1_1574">
<path d="M0 0H360V379H72C32.2355 379 0 346.764 0 307V0Z" fill="white"/>
</clipPath>
</defs>
</svg>
