<svg width="144" height="119" viewBox="0 0 144 119" fill="none" xmlns="http://www.w3.org/2000/svg">
<path d="M70.4941 86.1293L128.674 86.1966C129.503 86.1543 130.294 85.8371 130.922 85.2951C131.55 84.7531 131.98 84.0173 132.143 83.2038L142.965 26.072C143.061 25.7161 143.072 25.3429 142.999 24.9818C142.926 24.6207 142.77 24.2815 142.543 23.9909C142.317 23.7003 142.026 23.4662 141.694 23.307C141.361 23.1479 140.997 23.0679 140.628 23.0736L82.4484 23.0063C81.6198 23.0486 80.8289 23.3658 80.2006 23.9078C79.5724 24.4498 79.1426 25.1856 78.9793 25.9991L68.157 83.1309C68.0616 83.4868 68.0501 83.86 68.1233 84.2211C68.1965 84.5822 68.3525 84.9214 68.5791 85.212C68.8056 85.5026 69.0964 85.7367 69.4287 85.8959C69.761 86.055 70.1257 86.135 70.4941 86.1293Z" fill="white"/>
<path d="M128.657 86.4767L70.4773 86.4095C70.0856 86.4167 69.6972 86.3364 69.3404 86.1745C68.9836 86.0126 68.6674 85.7731 68.4149 85.4736C68.1479 85.1423 67.959 84.7551 67.8619 84.3409C67.7649 83.9266 67.7624 83.4958 67.8544 83.0804L78.7047 25.943C78.8837 25.0676 79.3487 24.2765 80.0264 23.6942C80.7041 23.1119 81.5561 22.7713 82.4485 22.726L140.628 22.7933C141.016 22.7895 141.399 22.8709 141.752 23.0316C142.104 23.1924 142.417 23.4286 142.668 23.7236C142.935 24.0562 143.124 24.4443 143.221 24.8594C143.318 25.2745 143.321 25.7061 143.229 26.1223L132.418 83.2598C132.238 84.1379 131.771 84.9309 131.09 85.5136C130.408 86.0962 129.553 86.4351 128.657 86.4767ZM70.4773 85.849L128.657 85.9163C129.421 85.8763 130.15 85.5829 130.728 85.0826C131.307 84.5822 131.702 83.9034 131.852 83.1533L142.668 26.0215C142.746 25.6865 142.747 25.3385 142.672 25.003C142.598 24.6674 142.449 24.3529 142.237 24.0823C142.035 23.8486 141.784 23.6621 141.503 23.5361C141.221 23.4102 140.915 23.3479 140.606 23.3537L82.426 23.2865C81.6622 23.3265 80.9335 23.6199 80.355 24.1202C79.7765 24.6206 79.3812 25.2994 79.2315 26.0495L68.4317 83.1813C68.3548 83.5163 68.3536 83.8642 68.4283 84.1997C68.5029 84.5352 68.6515 84.8497 68.8633 85.1205C69.0649 85.3542 69.3156 85.5407 69.5974 85.6666C69.8793 85.7926 70.1855 85.8548 70.4942 85.849H70.4773Z" fill="#F47B20"/>
<path d="M141.951 31.7212L77.965 31.6428C77.8907 31.6428 77.8194 31.6132 77.7669 31.5607C77.7143 31.5081 77.6848 31.4368 77.6848 31.3625C77.6862 31.2887 77.7162 31.2182 77.7685 31.166C77.8207 31.1137 77.8912 31.0837 77.965 31.0823L141.957 31.1608C142.031 31.1608 142.102 31.1903 142.155 31.2428C142.207 31.2954 142.237 31.3667 142.237 31.441C142.235 31.5158 142.205 31.5871 142.151 31.6395C142.098 31.6919 142.026 31.7212 141.951 31.7212Z" fill="#F47B20"/>
<path d="M137.658 28.1099C138.271 27.459 138.334 26.5217 137.798 26.0163C137.262 25.511 136.33 25.629 135.716 26.2799C135.103 26.9309 135.04 27.8682 135.576 28.3735C136.112 28.8788 137.044 28.7608 137.658 28.1099Z" fill="#D1D3D4"/>
<path d="M132.562 28.1028C133.175 27.4519 133.238 26.5146 132.702 26.0093C132.166 25.504 131.234 25.622 130.621 26.2729C130.007 26.9238 129.944 27.8611 130.48 28.3665C131.016 28.8718 131.948 28.7537 132.562 28.1028Z" fill="#D1D3D4"/>
<path d="M127.466 28.0959C128.079 27.4449 128.142 26.5076 127.606 26.0023C127.07 25.497 126.138 25.615 125.525 26.2659C124.911 26.9168 124.848 27.8542 125.384 28.3595C125.92 28.8648 126.852 28.7468 127.466 28.0959Z" fill="#D1D3D4"/>
<path d="M111.692 36.1263L106.194 65.1406L129.509 65.1686L135.007 36.1543L111.692 36.1263Z" fill="white"/>
<path d="M111.687 36.1263H135.007L129.515 65.1406H106.195L111.687 36.1263ZM111.687 35.5659C111.555 35.5635 111.427 35.6077 111.324 35.6907C111.221 35.7738 111.152 35.8903 111.126 36.0198L105.634 65.0341C105.618 65.1161 105.621 65.2006 105.642 65.2814C105.663 65.3622 105.702 65.4373 105.755 65.5013C105.809 65.5652 105.876 65.6163 105.952 65.6509C106.028 65.6854 106.111 65.7026 106.195 65.7011H129.509C129.642 65.7032 129.771 65.6582 129.874 65.5741C129.976 65.4899 130.046 65.372 130.07 65.2415L135.562 36.2272C135.577 36.1467 135.574 36.0638 135.554 35.9844C135.534 35.905 135.496 35.831 135.444 35.7676C135.392 35.7044 135.326 35.6535 135.251 35.6186C135.176 35.5838 135.095 35.5658 135.013 35.5659H111.698H111.687Z" fill="#F47B20"/>
<path d="M128.271 43.7372C128.225 44.1145 128.263 44.4972 128.383 44.8581C128.489 45.0686 128.617 45.2676 128.764 45.4521C129.226 46.1584 129.493 46.9744 129.537 47.8172C129.599 48.3876 129.522 48.9644 129.313 49.4986C129.145 49.8909 128.876 50.2384 128.719 50.6195C128.532 51.0829 128.503 51.5948 128.635 52.0766C128.764 52.5306 129.022 53.0238 128.786 53.4273C128.694 53.5591 128.567 53.6636 128.42 53.7297C128.273 53.7957 128.111 53.821 127.951 53.8028C127.631 53.7621 127.317 53.685 127.015 53.573C125.306 53.0798 123.154 53.3152 121.36 53.1919L114.635 52.7211C113.721 52.6539 112.589 52.4241 112.348 51.5386C112.147 50.7932 112.875 49.549 113.167 48.8484C113.615 47.6406 114.204 46.4894 114.921 45.4185C115.335 44.9293 115.687 44.3909 115.969 43.8156C116.095 43.4346 116.201 43.0474 116.288 42.6555C116.673 41.5283 117.338 40.5176 118.222 39.7188C118.792 39.1294 119.448 38.6288 120.167 38.2336C122.604 36.967 126.656 37.8245 127.766 40.5202C128.166 41.543 128.339 42.6409 128.271 43.7372Z" fill="white"/>
<path d="M128.007 54.0998H127.934C127.664 54.0772 127.399 54.0188 127.144 53.9261L126.937 53.8644C125.722 53.5912 124.476 53.48 123.232 53.5338C122.565 53.5338 121.943 53.5338 121.338 53.4889L114.612 53.0182C113.127 52.9173 112.298 52.4577 112.074 51.6283C111.883 50.9333 112.326 49.9918 112.679 49.2352C112.763 49.0558 112.841 48.8933 112.903 48.7532C113.359 47.5238 113.957 46.352 114.685 45.2616C114.775 45.1327 114.87 45.0094 114.966 44.8861C115.262 44.5324 115.509 44.1402 115.7 43.7204C115.782 43.4956 115.847 43.2652 115.896 43.031C115.93 42.8797 115.969 42.734 116.008 42.5827C116.404 41.4079 117.097 40.3556 118.02 39.5282C118.607 38.9139 119.286 38.394 120.032 37.987C120.818 37.6215 121.669 37.4168 122.535 37.385C123.402 37.3533 124.265 37.4951 125.076 37.8021C125.721 38.0092 126.316 38.3491 126.821 38.7998C127.327 39.2506 127.733 39.8023 128.013 40.4193C128.422 41.4809 128.594 42.619 128.517 43.754V43.8044C128.466 44.0363 128.471 44.2768 128.53 44.5065C128.59 44.7363 128.702 44.9489 128.859 45.1271L128.96 45.2728C129.455 46.0211 129.741 46.8878 129.789 47.7836C129.856 48.4059 129.77 49.0352 129.537 49.6163C129.448 49.8093 129.347 49.9964 129.235 50.1767C129.125 50.3569 129.028 50.5441 128.943 50.7371C128.784 51.1409 128.76 51.5854 128.876 52.0038C128.876 52.0934 128.932 52.1831 128.96 52.2728C129.061 52.4747 129.116 52.6963 129.122 52.9219C129.128 53.1476 129.084 53.3718 128.994 53.5786C128.887 53.7417 128.74 53.8751 128.567 53.9663C128.395 54.0574 128.202 54.1034 128.007 54.0998ZM122.739 37.959C121.901 37.9514 121.073 38.1435 120.323 38.5194C119.628 38.8989 118.995 39.3828 118.446 39.9542C117.594 40.7109 116.955 41.6768 116.591 42.7564C116.546 42.8965 116.518 43.0366 116.484 43.1767C116.427 43.4374 116.352 43.694 116.26 43.9445C116.052 44.4143 115.779 44.8522 115.448 45.2448L115.173 45.6091C114.477 46.6618 113.901 47.7899 113.458 48.9717C113.396 49.1231 113.312 49.2912 113.228 49.4817C112.926 50.1151 112.516 50.9893 112.668 51.4769C112.819 51.9645 113.503 52.3568 114.691 52.4409L121.416 52.9117C122.005 52.9509 122.621 52.9565 123.271 52.9565C124.57 52.9012 125.871 53.0199 127.138 53.3096L127.357 53.3768C127.567 53.4507 127.785 53.4996 128.007 53.5226C128.112 53.5363 128.22 53.5223 128.318 53.482C128.416 53.4417 128.502 53.3765 128.568 53.2928C128.691 53.0854 128.568 52.7828 128.484 52.4633C128.45 52.3624 128.416 52.2616 128.388 52.1663C128.24 51.6232 128.273 51.0465 128.484 50.5242C128.576 50.3053 128.685 50.0937 128.809 49.8909C128.909 49.7171 129.005 49.5546 129.083 49.3865C129.273 48.8886 129.343 48.3527 129.285 47.8228C129.248 47.0245 128.998 46.2505 128.562 45.581L128.461 45.4465C128.339 45.2891 128.236 45.1179 128.153 44.9365C128.019 44.5595 127.971 44.1574 128.013 43.7596L128.304 43.7204H128.018C128.093 42.6698 127.936 41.6156 127.559 40.6323C127.309 40.0883 126.949 39.6026 126.5 39.2068C126.051 38.811 125.524 38.5138 124.953 38.3345C124.243 38.0799 123.493 37.9546 122.739 37.9646V37.959Z" fill="#F47B20"/>
<path d="M107.781 56.762L106.194 65.1686H129.515L131.101 56.79C129.178 54.4865 125.95 53.6907 123.109 53.4273C121.988 53.3264 120.979 53.2984 120.099 53.2984H119.892C119.068 53.2984 118.115 53.2984 117.09 53.4161H117.039C114.086 53.6571 110.572 54.4641 107.781 56.762Z" fill="#FBBF78"/>
<path d="M116.664 55.0245L117.376 62.8708L117.589 65.1574H118.115L119.191 62.8651L122.862 55.0637C121.472 54.5762 118.239 54.5762 116.664 55.0245Z" fill="#F47B20"/>
<path d="M122.874 55.0358C122.491 55.5718 121.987 56.009 121.402 56.3111C120.818 56.6132 120.169 56.7716 119.511 56.7732C118.914 56.8142 118.319 56.6685 117.809 56.3561C117.299 56.0438 116.899 55.5804 116.664 55.0302L118.255 48.1984H123.86L122.874 55.0358Z" fill="white"/>
<path d="M119.516 57.059C118.86 57.0973 118.207 56.9314 117.648 56.5843C117.089 56.2371 116.651 55.7256 116.395 55.1198C116.378 55.0688 116.378 55.0139 116.395 54.9629L117.986 48.1367C118.001 48.0734 118.037 48.017 118.088 47.9763C118.139 47.9357 118.202 47.9132 118.267 47.9125H123.871C123.913 47.912 123.954 47.9208 123.992 47.9383C124.03 47.9557 124.063 47.9814 124.09 48.0134C124.117 48.0443 124.137 48.081 124.149 48.1207C124.161 48.1605 124.163 48.2023 124.157 48.2432L123.165 55.075C123.16 55.1148 123.147 55.1531 123.126 55.1871C122.718 55.7657 122.178 56.2379 121.55 56.5637C120.921 56.8895 120.224 57.0594 119.516 57.059ZM116.966 55.0077C117.194 55.48 117.558 55.873 118.012 56.1358C118.466 56.3986 118.988 56.5191 119.511 56.4817C120.11 56.4797 120.7 56.3385 121.235 56.069C121.77 55.7996 122.235 55.4094 122.593 54.9293L123.524 48.4954H118.48L116.966 55.0077Z" fill="#F47B20"/>
<path d="M123.31 51.1294C122.762 51.7708 122.086 52.2917 121.327 52.6595C120.099 53.2928 118.3 53.9989 116.994 53.7803L117.762 50.8941C118.749 51.0123 119.746 51.0123 120.732 50.8941C121.64 50.8568 122.537 50.6849 123.395 50.384C123.546 50.3504 123.535 50.8548 123.31 51.1294Z" fill="#F47B20"/>
<path d="M117.499 54.1054C117.311 54.1054 117.124 54.0905 116.938 54.0606C116.9 54.0548 116.863 54.0408 116.83 54.0195C116.797 53.9983 116.769 53.9702 116.748 53.9373C116.726 53.9048 116.711 53.8678 116.706 53.829C116.7 53.7902 116.703 53.7506 116.714 53.7131L117.482 50.8268C117.499 50.7609 117.54 50.7038 117.597 50.6666C117.654 50.6293 117.723 50.6145 117.79 50.625C118.754 50.7448 119.729 50.7448 120.693 50.625C121.576 50.5909 122.448 50.4266 123.283 50.1374C123.351 50.1096 123.427 50.1054 123.498 50.1258C123.569 50.1461 123.632 50.1897 123.675 50.2495C123.746 50.4202 123.769 50.6071 123.741 50.7898C123.713 50.9725 123.636 51.1442 123.518 51.2864C122.947 51.9606 122.241 52.5068 121.444 52.8892C120.536 53.3768 118.894 54.1054 117.499 54.1054ZM117.348 53.545C118.698 53.5954 120.464 52.7883 121.198 52.4241C121.925 52.0806 122.571 51.5857 123.092 50.9725C123.127 50.92 123.155 50.8636 123.176 50.8044C122.386 51.0374 121.572 51.1766 120.749 51.2191C119.818 51.3216 118.878 51.3216 117.947 51.2191L117.348 53.545Z" fill="#F47B20"/>
<path d="M125.737 65.4545H125.648C125.611 65.443 125.578 65.4245 125.549 65.3999C125.52 65.3753 125.496 65.3451 125.478 65.3112C125.461 65.2773 125.451 65.2403 125.448 65.2023C125.446 65.1643 125.45 65.1262 125.463 65.0902L127.704 58.051C127.716 58.0142 127.735 57.9801 127.76 57.9506C127.785 57.9211 127.816 57.8968 127.85 57.8791C127.884 57.8614 127.922 57.8507 127.96 57.8474C127.999 57.8442 128.037 57.8487 128.074 57.8604C128.111 57.8722 128.145 57.8911 128.175 57.9161C128.204 57.941 128.228 57.9716 128.246 58.0059C128.264 58.0403 128.275 58.0778 128.278 58.1163C128.281 58.1548 128.277 58.1935 128.265 58.2303L126.023 65.2695C126.002 65.3269 125.962 65.3759 125.911 65.4092C125.859 65.4425 125.798 65.4584 125.737 65.4545Z" fill="#F47B20"/>
<path d="M109.966 65.4264C109.89 65.4221 109.819 65.3879 109.767 65.3313C109.716 65.2747 109.689 65.2002 109.692 65.1238L110.118 58.079C110.138 58.0188 110.178 57.9671 110.231 57.9317C110.284 57.8963 110.347 57.8792 110.411 57.883C110.474 57.8868 110.535 57.9114 110.583 57.9528C110.631 57.9943 110.665 58.0504 110.678 58.1126L110.252 65.1574C110.248 65.2303 110.216 65.2987 110.163 65.3488C110.11 65.3988 110.039 65.4266 109.966 65.4264Z" fill="#F47B20"/>
<path d="M117.824 46.6291C117.942 45.0262 116.092 44.6283 115.834 46.517C115.718 47.1135 115.778 47.731 116.008 48.2936C116.055 48.405 116.125 48.5052 116.213 48.5876C116.301 48.6701 116.406 48.7329 116.52 48.7721C116.635 48.8113 116.756 48.8258 116.876 48.8148C116.997 48.8039 117.113 48.7676 117.219 48.7083" fill="white"/>
<path d="M116.804 49.1119C116.699 49.1139 116.595 49.0988 116.496 49.067C116.334 49.0172 116.185 48.9341 116.057 48.8231C115.93 48.7121 115.827 48.5756 115.756 48.4225C115.497 47.8088 115.423 47.1329 115.543 46.4778C115.7 45.3569 116.378 44.9141 116.983 44.9758C117.354 45.0515 117.68 45.2707 117.89 45.5856C118.1 45.9005 118.177 46.2857 118.104 46.6571C118.082 46.7172 118.042 46.7685 117.988 46.8031C117.934 46.8377 117.87 46.8537 117.807 46.8486C117.743 46.8435 117.683 46.8176 117.635 46.7749C117.588 46.7322 117.556 46.6751 117.544 46.6123C117.588 45.9678 117.269 45.5923 116.927 45.5586C116.585 45.525 116.232 45.766 116.126 46.5618C116.017 47.0989 116.067 47.6562 116.271 48.1647C116.31 48.2466 116.365 48.32 116.432 48.3806C116.499 48.4412 116.578 48.4879 116.664 48.5178C116.734 48.5388 116.807 48.5446 116.88 48.535C116.952 48.5253 117.022 48.5003 117.084 48.4617C117.152 48.4251 117.231 48.4163 117.306 48.4372C117.38 48.4581 117.443 48.5071 117.482 48.5738C117.518 48.6416 117.526 48.7207 117.504 48.7941C117.482 48.8676 117.432 48.9294 117.364 48.9661C117.193 49.063 117 49.1132 116.804 49.1119Z" fill="#F47B20"/>
<path d="M125.076 46.6403C125.564 45.0374 127.564 44.6451 127.11 46.5338C126.975 47.1835 126.684 47.7909 126.264 48.3048C125.844 48.7644 125.272 48.9829 124.891 48.7195" fill="white"/>
<path d="M125.295 49.1231C125.095 49.1288 124.898 49.0698 124.734 48.955C124.672 48.9111 124.629 48.8443 124.616 48.7691C124.603 48.694 124.62 48.6167 124.664 48.5543C124.708 48.4918 124.775 48.4494 124.85 48.4362C124.925 48.4231 125.002 48.4404 125.065 48.4842C125.295 48.6411 125.721 48.4842 126.057 48.1087C126.444 47.6316 126.711 47.0684 126.836 46.4666C126.881 46.276 126.998 45.6652 126.662 45.5699C126.326 45.4746 125.614 45.8837 125.356 46.7244C125.345 46.7612 125.326 46.7954 125.302 46.825C125.277 46.8547 125.247 46.8792 125.213 46.8971C125.144 46.9334 125.063 46.9408 124.989 46.9178C124.915 46.8947 124.853 46.8431 124.816 46.7743C124.78 46.7054 124.773 46.625 124.796 46.5507C125.143 45.4298 126.13 44.8301 126.802 45.015C127.015 45.0711 127.688 45.3569 127.363 46.6011C127.218 47.2979 126.904 47.9485 126.449 48.4954C126.309 48.6722 126.134 48.8189 125.936 48.9267C125.737 49.0346 125.519 49.1014 125.295 49.1231Z" fill="#F47B20"/>
<path d="M117.88 43.1095L117 47.7556C116.58 49.9974 117.992 51.7908 120.155 51.7964H120.609C121.727 51.7394 122.793 51.3126 123.641 50.5831C124.49 49.8537 125.071 48.8629 125.295 47.7668C125.508 46.6459 126.281 44.8973 125.463 44.0566C124.157 42.7116 122.89 41.8149 122.167 39.9934C120.508 40.3409 117.88 40.8004 117.88 43.1095Z" fill="white"/>
<path d="M120.615 52.0822H120.155C119.641 52.0937 119.131 51.9894 118.662 51.777C118.193 51.5645 117.779 51.2493 117.448 50.8548C117.099 50.4157 116.853 49.9036 116.727 49.3566C116.602 48.8095 116.602 48.2413 116.725 47.6939L117.6 43.0815C117.6 40.6379 120.211 40.0999 121.932 39.7468L122.117 39.7076C122.183 39.6935 122.252 39.7032 122.311 39.735C122.371 39.7668 122.417 39.8186 122.442 39.8813C122.972 41.0898 123.78 42.1557 124.801 42.9918C125.087 43.2664 125.362 43.5522 125.676 43.8493C126.427 44.6171 126.068 45.9341 125.782 46.9934C125.704 47.2848 125.631 47.5538 125.586 47.8116C125.35 48.9746 124.733 50.0257 123.832 50.799C122.932 51.5723 121.8 52.0238 120.615 52.0822ZM121.994 40.3128C120.363 40.6547 118.171 41.1311 118.171 43.1151C118.174 43.1336 118.174 43.1526 118.171 43.1711L117.291 47.8116C117.184 48.2754 117.183 48.7574 117.286 49.222C117.39 49.6866 117.597 50.122 117.891 50.4961C118.169 50.8249 118.517 51.0869 118.91 51.2625C119.303 51.4381 119.731 51.5229 120.161 51.5106H120.62C121.67 51.4554 122.671 51.0526 123.467 50.3657C124.262 49.6787 124.807 48.7467 125.014 47.7163C125.065 47.4585 125.143 47.1559 125.227 46.8532C125.485 45.8893 125.788 44.7964 125.261 44.264C124.969 43.9614 124.7 43.7035 124.403 43.4233C123.388 42.5745 122.566 41.5176 121.994 40.3241V40.3128Z" fill="#F47B20"/>
<path d="M121.018 48.4281C120.81 48.4274 120.603 48.4143 120.396 48.3889C120.355 48.3898 120.314 48.3818 120.276 48.3654C120.239 48.349 120.205 48.3247 120.177 48.2941C120.15 48.2635 120.129 48.2272 120.117 48.1879C120.105 48.1486 120.101 48.1071 120.107 48.0663C120.112 48.0255 120.126 47.9863 120.148 47.9514C120.17 47.9165 120.199 47.8867 120.233 47.8642C120.268 47.8416 120.307 47.8267 120.347 47.8205C120.388 47.8144 120.43 47.8171 120.469 47.8285C120.806 47.8629 121.146 47.8629 121.484 47.8285C121.588 46.9313 121.535 46.0227 121.327 45.1439C121.314 45.0682 121.331 44.9903 121.375 44.9273C121.419 44.8643 121.486 44.8213 121.562 44.8077C121.638 44.7961 121.715 44.8141 121.777 44.8579C121.84 44.9018 121.883 44.9681 121.898 45.043C122.005 45.6427 122.335 47.6491 121.932 48.1983C121.895 48.2523 121.847 48.2977 121.791 48.3316C121.734 48.3654 121.672 48.3869 121.607 48.3945C121.412 48.4187 121.215 48.43 121.018 48.4281Z" fill="#F47B20"/>
<path d="M105.572 42.1567H81.6302C81.5859 42.1627 81.5408 42.1591 81.4979 42.1462C81.4551 42.1333 81.4155 42.1114 81.3818 42.0819C81.3481 42.0525 81.3211 42.0162 81.3026 41.9754C81.2841 41.9347 81.2745 41.8904 81.2745 41.8457C81.2745 41.8009 81.2841 41.7567 81.3026 41.7159C81.3211 41.6752 81.3481 41.6389 81.3818 41.6094C81.4155 41.58 81.4551 41.5581 81.4979 41.5452C81.5408 41.5323 81.5859 41.5287 81.6302 41.5346L105.572 41.5627C105.648 41.5728 105.717 41.6099 105.767 41.6671C105.817 41.7243 105.844 41.7977 105.844 41.8737C105.844 41.9497 105.817 42.0231 105.767 42.0803C105.717 42.1375 105.648 42.1746 105.572 42.1847V42.1567Z" fill="#D1D3D4"/>
<path d="M104.76 46.4274H80.8231C80.7787 46.4333 80.7336 46.4297 80.6908 46.4168C80.6479 46.4039 80.6083 46.382 80.5747 46.3526C80.541 46.3231 80.514 46.2868 80.4955 46.246C80.477 46.2053 80.4674 46.1611 80.4674 46.1163C80.4674 46.0716 80.477 46.0273 80.4955 45.9866C80.514 45.9458 80.541 45.9095 80.5747 45.88C80.6083 45.8506 80.6479 45.8287 80.6908 45.8158C80.7336 45.8029 80.7787 45.7993 80.8231 45.8053L104.765 45.8333C104.841 45.8434 104.91 45.8805 104.96 45.9377C105.01 45.9949 105.037 46.0683 105.037 46.1443C105.037 46.2203 105.01 46.2937 104.96 46.3509C104.91 46.4081 104.841 46.4452 104.765 46.4554L104.76 46.4274Z" fill="#D1D3D4"/>
<path d="M103.953 50.6979L80.0105 50.6699C79.9283 50.6684 79.8499 50.6347 79.7922 50.576C79.7346 50.5173 79.7023 50.4383 79.7023 50.356C79.7023 50.2743 79.7348 50.1959 79.7926 50.1381C79.8504 50.0803 79.9288 50.0478 80.0105 50.0478L103.953 50.0758C103.997 50.0698 104.042 50.0734 104.085 50.0863C104.128 50.0992 104.168 50.1211 104.201 50.1506C104.235 50.1801 104.262 50.2164 104.28 50.2571C104.299 50.2979 104.308 50.3421 104.308 50.3869C104.308 50.4316 104.299 50.4758 104.28 50.5166C104.262 50.5573 104.235 50.5937 104.201 50.6231C104.168 50.6526 104.128 50.6745 104.085 50.6874C104.042 50.7003 103.997 50.7039 103.953 50.6979Z" fill="#D1D3D4"/>
<path d="M103.146 54.9685L79.2034 54.9349C79.1627 54.9357 79.1223 54.9282 79.0846 54.913C79.0468 54.8978 79.0126 54.8751 78.9838 54.8463C78.955 54.8175 78.9323 54.7833 78.9171 54.7455C78.9019 54.7078 78.8944 54.6673 78.8952 54.6267C78.8944 54.5857 78.9019 54.545 78.917 54.507C78.9322 54.4689 78.9548 54.4343 78.9835 54.4051C79.0122 54.3758 79.0464 54.3526 79.0842 54.3368C79.1219 54.321 79.1625 54.3128 79.2034 54.3128L103.146 54.3408C103.229 54.3408 103.309 54.3739 103.368 54.4328C103.426 54.4916 103.46 54.5714 103.46 54.6547C103.458 54.7375 103.425 54.8165 103.366 54.875C103.307 54.9336 103.228 54.9671 103.146 54.9685Z" fill="#D1D3D4"/>
<path d="M102.316 59.2616H85.4356C85.3603 59.2514 85.2912 59.2143 85.2412 59.1571C85.1911 59.0999 85.1636 59.0265 85.1636 58.9505C85.1636 58.8745 85.1911 58.8011 85.2412 58.7439C85.2912 58.6867 85.3603 58.6496 85.4356 58.6395H102.316C102.392 58.6496 102.461 58.6867 102.511 58.7439C102.561 58.8011 102.588 58.8745 102.588 58.9505C102.588 59.0265 102.561 59.0999 102.511 59.1571C102.461 59.2143 102.392 59.2514 102.316 59.2616Z" fill="#D1D3D4"/>
<path d="M126.544 82.195L74.2547 82.1333C74.2086 82.1342 74.163 82.1246 74.1212 82.1052C74.0795 82.0857 74.0427 82.057 74.0137 82.0212C73.9839 81.986 73.9624 81.9446 73.9508 81.9C73.9391 81.8554 73.9377 81.8087 73.9464 81.7634L76.3227 69.2263C76.3368 69.156 76.3745 69.0926 76.4296 69.0468C76.4846 69.0009 76.5537 68.9752 76.6254 68.9741L128.915 69.0357C128.961 69.0352 129.006 69.045 129.048 69.0644C129.09 69.0838 129.127 69.1123 129.156 69.1478C129.185 69.1836 129.206 69.2251 129.217 69.2695C129.229 69.3139 129.231 69.3603 129.223 69.4056L126.847 81.9428C126.833 82.013 126.795 82.0764 126.74 82.1223C126.685 82.1682 126.616 82.1938 126.544 82.195ZM74.6302 81.5112L126.286 81.5729L128.528 69.6578L76.8664 69.5962L74.6302 81.5112Z" fill="#D1D3D4"/>
<path d="M127.979 73.581L75.8576 73.5193C75.8133 73.5253 75.7682 73.5217 75.7253 73.5088C75.6825 73.4959 75.6429 73.474 75.6092 73.4445C75.5755 73.4151 75.5485 73.3787 75.53 73.338C75.5115 73.2972 75.502 73.253 75.502 73.2083C75.502 73.1635 75.5115 73.1193 75.53 73.0785C75.5485 73.0378 75.5755 73.0015 75.6092 72.972C75.6429 72.9425 75.6825 72.9206 75.7253 72.9077C75.7682 72.8948 75.8133 72.8912 75.8576 72.8972L127.979 72.9589C128.054 72.969 128.123 73.0061 128.174 73.0633C128.224 73.1205 128.251 73.1939 128.251 73.2699C128.251 73.3459 128.224 73.4193 128.174 73.4765C128.123 73.5337 128.054 73.5708 127.979 73.581Z" fill="#D1D3D4"/>
<path d="M112.404 82.1781H112.348C112.268 82.1618 112.197 82.1145 112.151 82.0464C112.104 81.9783 112.087 81.8948 112.102 81.8138L114.472 69.2767C114.489 69.196 114.536 69.125 114.604 69.0789C114.672 69.0327 114.756 69.0152 114.837 69.0301C114.918 69.0464 114.989 69.0935 115.036 69.1614C115.083 69.2293 115.102 69.3128 115.089 69.3944L112.713 81.9315C112.697 82.0017 112.658 82.0645 112.602 82.1093C112.546 82.1542 112.476 82.1785 112.404 82.1781Z" fill="#D1D3D4"/>
<path d="M86.0241 82.1445H85.9681C85.8864 82.1295 85.814 82.0828 85.7667 82.0145C85.7195 81.9462 85.7012 81.862 85.7159 81.7802L88.0922 69.2375C88.0947 69.1928 88.1068 69.1492 88.1276 69.1096C88.1484 69.0699 88.1774 69.0352 88.2127 69.0077C88.248 68.9802 88.2887 68.9606 88.3322 68.9502C88.3757 68.9397 88.421 68.9387 88.4649 68.9471C88.5088 68.9556 88.5505 68.9734 88.587 68.9992C88.6235 69.0251 88.654 69.0585 88.6766 69.0971C88.6991 69.1357 88.7132 69.1788 88.7177 69.2233C88.7223 69.2678 88.7173 69.3127 88.7031 69.3552L86.3324 81.8923C86.3181 81.9635 86.2796 82.0276 86.2234 82.0736C86.1672 82.1196 86.0968 82.1447 86.0241 82.1445Z" fill="#D1D3D4"/>
<path d="M42.0572 63.3696L100.237 63.4369C101.065 63.3968 101.857 63.0811 102.485 62.5399C103.114 61.9987 103.544 61.263 103.706 60.4497L114.528 3.31787C114.842 1.63653 113.794 0.319483 112.191 0.319483L54.0115 0.252228C53.1861 0.291156 52.3972 0.603647 51.7691 1.14044C51.141 1.67724 50.7094 2.40781 50.5423 3.21699L39.7201 60.3825C39.4062 62.0246 40.4543 63.3696 42.0572 63.3696Z" fill="white"/>
<path d="M100.237 63.7451L42.0571 63.6778C41.6656 63.6869 41.2771 63.6081 40.9202 63.4471C40.5632 63.286 40.247 63.047 39.9947 62.7475C39.7276 62.4152 39.5386 62.0271 39.4416 61.6119C39.3446 61.1967 39.3421 60.7651 39.4342 60.3488L50.2677 3.21696C50.4449 2.34069 50.9093 1.54855 51.5874 0.9659C52.2655 0.383246 53.1185 0.0433496 54.0114 0L112.191 0.067255C112.581 0.0550236 112.969 0.130222 113.325 0.287331C113.682 0.444441 114 0.679472 114.254 0.975177C114.52 1.30772 114.709 1.69582 114.806 2.11092C114.903 2.52603 114.906 2.95759 114.814 3.37388L103.998 60.5001C103.825 61.3842 103.361 62.1848 102.679 62.7732C101.997 63.3617 101.137 63.704 100.237 63.7451ZM42.0571 63.1174L100.237 63.1847C101.008 63.1448 101.742 62.8467 102.323 62.3384C102.903 61.83 103.296 61.141 103.437 60.3824L114.254 3.2618C114.331 2.92773 114.332 2.58069 114.257 2.24613C114.182 1.91157 114.034 1.59795 113.822 1.32826C113.623 1.09202 113.372 0.903829 113.09 0.777687C112.808 0.651545 112.5 0.5907 112.191 0.599679L54.0114 0.532424C53.2479 0.573397 52.5197 0.867092 51.9414 1.36729C51.363 1.86748 50.9675 2.54577 50.8169 3.29542L39.9947 60.4273C39.919 60.7614 39.9185 61.1082 39.9931 61.4425C40.0678 61.7769 40.2157 62.0905 40.4262 62.3608C40.6261 62.5967 40.8764 62.7847 41.1587 62.9108C41.441 63.0369 41.748 63.0979 42.0571 63.0894V63.1174Z" fill="#F47B20"/>
<path d="M113.525 8.96152L49.5391 8.88866C49.4648 8.88866 49.3935 8.85914 49.341 8.80659C49.2884 8.75404 49.2589 8.68276 49.2589 8.60844C49.2589 8.53412 49.2884 8.46284 49.341 8.41029C49.3935 8.35774 49.4648 8.32822 49.5391 8.32822L113.525 8.40107C113.599 8.40251 113.67 8.43249 113.722 8.48473C113.774 8.53698 113.804 8.60743 113.805 8.6813C113.805 8.75562 113.776 8.82689 113.723 8.87944C113.671 8.932 113.6 8.96152 113.525 8.96152Z" fill="#F47B20"/>
<path d="M109.222 5.35673C109.835 4.70582 109.898 3.76851 109.362 3.2632C108.826 2.75788 107.894 2.87591 107.281 3.52682C106.667 4.17773 106.604 5.11502 107.14 5.62034C107.676 6.12565 108.608 6.00764 109.222 5.35673Z" fill="#D1D3D4"/>
<path d="M104.126 5.34971C104.74 4.69881 104.803 3.7615 104.267 3.25618C103.731 2.75086 102.799 2.86889 102.185 3.5198C101.571 4.17071 101.509 5.108 102.045 5.61332C102.581 6.11864 103.513 6.00062 104.126 5.34971Z" fill="#D1D3D4"/>
<path d="M99.0302 5.34272C99.6438 4.69181 99.7067 3.75451 99.1707 3.24919C98.6346 2.74387 97.7026 2.8619 97.089 3.51281C96.4754 4.16372 96.4126 5.10102 96.9486 5.60633C97.4847 6.11165 98.4166 5.99363 99.0302 5.34272Z" fill="#D1D3D4"/>
<path d="M83.2555 13.3722L77.7576 42.3865L101.078 42.4089L106.57 13.4002L83.2555 13.3722Z" fill="white"/>
<path d="M83.2611 13.3722H106.576L101.083 42.3865L77.7632 42.3585L83.2611 13.3722ZM83.2611 12.8118C83.1292 12.8094 83.0007 12.8536 82.8982 12.9367C82.7957 13.0197 82.7257 13.1362 82.7007 13.2658L77.2083 42.28C77.1931 42.3606 77.1958 42.4435 77.2161 42.5229C77.2365 42.6023 77.274 42.6763 77.326 42.7396C77.3787 42.8029 77.4447 42.8537 77.5193 42.8886C77.5939 42.9235 77.6752 42.9415 77.7575 42.9414L101.078 42.9694C101.21 42.9718 101.338 42.9276 101.441 42.8445C101.543 42.7615 101.613 42.645 101.638 42.5154L107.131 13.5011C107.146 13.4206 107.143 13.3377 107.123 13.2583C107.102 13.1789 107.065 13.1049 107.013 13.0416C106.961 12.9773 106.895 12.9254 106.82 12.8895C106.746 12.8536 106.664 12.8348 106.581 12.8342H83.2667L83.2611 12.8118Z" fill="#F47B20"/>
<path d="M79.338 34.0022L77.752 42.3809L101.072 42.4089L102.664 34.0415C100.741 31.7324 97.5133 30.9422 94.6718 30.6788C93.5509 30.5779 92.5421 30.5499 91.6622 30.5499H91.4548C90.631 30.5499 89.6782 30.5499 88.6526 30.6676H88.6022C85.6598 30.9198 82.1402 31.71 79.338 34.0022Z" fill="#FBBF78"/>
<path d="M88.2267 32.2705L88.9441 40.1167L89.1514 42.4033H89.6782L90.7543 40.1111L94.4252 32.3097C92.3867 31.8442 90.2709 31.8308 88.2267 32.2705Z" fill="#F47B20"/>
<path d="M94.4364 32.2817C94.0544 32.8173 93.5499 33.2539 92.965 33.5551C92.3801 33.8564 91.7317 34.0135 91.0737 34.0135C90.4768 34.0554 89.8817 33.91 89.3713 33.5975C88.861 33.2851 88.4608 32.8212 88.2267 32.2705L89.824 25.4443H95.4284L94.4364 32.2817Z" fill="white"/>
<path d="M91.1073 34.3049C90.451 34.3408 89.7994 34.1739 89.241 33.8271C88.6827 33.4802 88.2444 32.9701 87.9856 32.3658C87.9716 32.3144 87.9716 32.2602 87.9856 32.2089L89.5773 25.377C89.5934 25.3133 89.6302 25.2567 89.682 25.2162C89.7337 25.1756 89.7974 25.1533 89.8631 25.1528H95.4676C95.5087 25.1524 95.5494 25.1607 95.5871 25.1771C95.6247 25.1935 95.6585 25.2177 95.6862 25.2481C95.7132 25.2805 95.7331 25.3182 95.7447 25.3587C95.7563 25.3992 95.7592 25.4418 95.7534 25.4835L94.7614 32.3097C94.7569 32.3496 94.7435 32.3879 94.7222 32.4218C94.3166 33.0044 93.7759 33.4799 93.1463 33.8079C92.5168 34.1358 91.8172 34.3064 91.1073 34.3049ZM88.5573 32.2481C88.7842 32.7214 89.1481 33.1156 89.6018 33.3794C90.0556 33.6433 90.5782 33.7646 91.1017 33.7277C91.7012 33.7283 92.2924 33.5882 92.8278 33.3186C93.3632 33.0489 93.8278 32.6573 94.1842 32.1752L95.1201 25.7413H90.0761L88.5573 32.2481Z" fill="#F47B20"/>
<path d="M94.8736 28.3753C94.3261 29.0166 93.6502 29.5359 92.8896 29.8998C91.6622 30.5331 89.8632 31.2448 88.5574 31.0206L89.3252 28.1287C90.3116 28.2499 91.3091 28.2499 92.2955 28.1287C93.2033 28.0915 94.1004 27.9196 94.9577 27.6187C95.109 27.5963 95.1034 28.0951 94.8736 28.3753Z" fill="#F47B20"/>
<path d="M89.0618 31.3457C88.8742 31.3474 88.6868 31.3342 88.5013 31.3065C88.424 31.2922 88.3555 31.2479 88.3108 31.1832C88.2905 31.1499 88.2771 31.113 88.2713 31.0745C88.2655 31.036 88.2675 30.9967 88.2772 30.959L89.045 28.0727C89.0623 28.0054 89.1039 27.9468 89.1619 27.9085C89.2199 27.8702 89.2901 27.8548 89.3588 27.8653C90.323 27.9828 91.2978 27.9828 92.2619 27.8653C93.1421 27.8278 94.0123 27.6636 94.8456 27.3777C94.9133 27.3483 94.9891 27.3427 95.0604 27.3621C95.1318 27.3814 95.1944 27.4245 95.2379 27.4842C95.3085 27.6559 95.3313 27.8436 95.3036 28.0271C95.276 28.2107 95.199 28.3834 95.081 28.5267C94.5114 29.2021 93.8045 29.7486 93.0073 30.1295C91.794 30.8117 90.4487 31.2264 89.0618 31.3457ZM88.9105 30.7852C90.2611 30.8469 92.0322 30.0286 92.7663 29.6644C93.4912 29.3191 94.1349 28.8244 94.655 28.2128C94.6939 28.165 94.7226 28.1097 94.7391 28.0503C93.9485 28.2789 93.1343 28.4161 92.3124 28.4594C91.3809 28.5588 90.4416 28.5588 89.5101 28.4594L88.9105 30.7852Z" fill="#F47B20"/>
<path d="M97.3003 42.6947H97.2162C97.1794 42.6839 97.1452 42.6658 97.1155 42.6414C97.0859 42.6171 97.0614 42.587 97.0437 42.553C97.0259 42.519 97.0151 42.4818 97.012 42.4436C97.0089 42.4053 97.0136 42.3669 97.0257 42.3304L99.2675 35.2913C99.2789 35.255 99.2974 35.2213 99.322 35.1923C99.3466 35.1632 99.3768 35.1394 99.4107 35.1222C99.4446 35.105 99.4817 35.0947 99.5196 35.092C99.5576 35.0892 99.5957 35.0941 99.6317 35.1063C99.6678 35.1171 99.7014 35.1351 99.7304 35.1591C99.7593 35.1832 99.7832 35.2129 99.8004 35.2463C99.8177 35.2798 99.8281 35.3164 99.8308 35.354C99.8336 35.3916 99.8288 35.4293 99.8167 35.465L97.5749 42.5042C97.5549 42.5607 97.5176 42.6096 97.4684 42.6438C97.4191 42.678 97.3603 42.6958 97.3003 42.6947Z" fill="#F47B20"/>
<path d="M81.5293 42.678C81.491 42.6758 81.4535 42.6661 81.4189 42.6495C81.3844 42.6328 81.3535 42.6095 81.328 42.5809C81.3025 42.5522 81.2829 42.5188 81.2703 42.4826C81.2577 42.4464 81.2524 42.408 81.2547 42.3697L81.6806 35.3305C81.6711 35.2866 81.672 35.241 81.6831 35.1975C81.6941 35.1539 81.7151 35.1135 81.7444 35.0794C81.7737 35.0453 81.8104 35.0184 81.8518 35.0009C81.8932 34.9833 81.9381 34.9756 81.983 34.9783C82.0278 34.981 82.0715 34.994 82.1105 35.0164C82.1495 35.0387 82.1828 35.0698 82.2078 35.1072C82.2327 35.1446 82.2488 35.1872 82.2545 35.2318C82.2603 35.2763 82.2557 35.3217 82.241 35.3642L81.8151 42.4033C81.8122 42.4772 81.7808 42.547 81.7275 42.5983C81.6742 42.6495 81.6032 42.678 81.5293 42.678Z" fill="#F47B20"/>
<path d="M89.3924 23.875C89.5101 22.2721 87.6606 21.8742 87.3972 23.7629C87.2804 24.3575 87.3409 24.9733 87.571 25.5339C87.6179 25.6459 87.688 25.7468 87.7765 25.8299C87.8651 25.913 87.9703 25.9764 88.085 26.0161C88.1998 26.0557 88.3217 26.0708 88.4427 26.0601C88.5637 26.0494 88.681 26.0134 88.7871 25.9543" fill="white"/>
<path d="M88.3668 26.3578C88.2625 26.3572 88.1587 26.3421 88.0586 26.3129C87.8985 26.2604 87.7505 26.1763 87.6234 26.0656C87.4964 25.9549 87.3928 25.8198 87.3188 25.6684C87.0585 25.055 86.9863 24.3781 87.1114 23.7237C87.2683 22.6028 87.9409 22.16 88.5462 22.2217C88.917 22.2974 89.2429 22.5166 89.4528 22.8315C89.6628 23.1465 89.7398 23.5316 89.667 23.903C89.676 23.947 89.6746 23.9925 89.663 24.0359C89.6515 24.0792 89.63 24.1194 89.6004 24.1531C89.5708 24.1868 89.5338 24.2133 89.4923 24.2303C89.4507 24.2474 89.4058 24.2547 89.3611 24.2515C89.3163 24.2484 89.2728 24.235 89.2341 24.2123C89.1954 24.1896 89.1624 24.1582 89.1378 24.1207C89.1131 24.0832 89.0975 24.0405 89.0921 23.9959C89.0867 23.9513 89.0917 23.9061 89.1066 23.8638C89.157 23.2193 88.832 22.8438 88.4901 22.8045C88.1482 22.7653 87.8008 23.0175 87.6887 23.8133C87.5806 24.3486 87.6312 24.9038 87.8344 25.4106C87.9125 25.5774 88.0536 25.7064 88.2267 25.7693C88.2979 25.7884 88.3722 25.7933 88.4453 25.7837C88.5184 25.7741 88.5888 25.7501 88.6526 25.7133C88.6857 25.6945 88.7221 25.6825 88.7598 25.678C88.7976 25.6735 88.8358 25.6765 88.8723 25.687C88.9089 25.6974 88.9429 25.715 88.9726 25.7388C89.0022 25.7625 89.0268 25.792 89.045 25.8253C89.0813 25.8924 89.09 25.971 89.069 26.0444C89.0481 26.1177 88.9992 26.1799 88.9329 26.2177C88.759 26.3113 88.5643 26.3595 88.3668 26.3578Z" fill="#F47B20"/>
<path d="M96.6389 23.8806C97.1321 22.2777 99.1273 21.8854 98.6734 23.7741C98.5439 24.4249 98.255 25.0334 97.8327 25.5451C97.418 26.0103 96.8407 26.2289 96.4652 25.9655" fill="white"/>
<path d="M96.8351 26.369C96.6351 26.3739 96.4389 26.315 96.2746 26.2008C96.239 26.1811 96.2079 26.1541 96.1833 26.1216C96.1587 26.0891 96.1413 26.0518 96.132 26.0121C96.1228 25.9724 96.1219 25.9312 96.1296 25.8912C96.1372 25.8512 96.1532 25.8132 96.1764 25.7797C96.1996 25.7462 96.2296 25.718 96.2645 25.6969C96.2993 25.6757 96.3382 25.6621 96.3786 25.6569C96.419 25.6516 96.4601 25.655 96.4991 25.6666C96.5382 25.6783 96.5743 25.698 96.6053 25.7245C96.8351 25.887 97.261 25.7245 97.5973 25.3546C97.9887 24.8757 98.2614 24.3112 98.3931 23.7069C98.438 23.5219 98.5613 22.9054 98.2194 22.8158C97.8775 22.7261 97.1713 23.1296 96.9191 23.9366C96.9081 23.9734 96.8899 24.0077 96.8656 24.0375C96.8414 24.0673 96.8115 24.092 96.7776 24.1102C96.7438 24.1284 96.7067 24.1398 96.6685 24.1436C96.6303 24.1475 96.5917 24.1438 96.5549 24.1328C96.5181 24.1218 96.4838 24.1036 96.454 24.0793C96.4242 24.055 96.3995 24.0251 96.3813 23.9913C96.3631 23.9575 96.3517 23.9204 96.3479 23.8821C96.344 23.8439 96.3477 23.8053 96.3587 23.7685C96.7062 22.6476 97.6926 22.0423 98.3707 22.2273C98.5781 22.2889 99.2506 22.5748 98.9311 23.8133C98.7803 24.5108 98.4652 25.1621 98.012 25.7133C97.8717 25.8978 97.6946 26.0513 97.4921 26.1642C97.2895 26.277 97.0659 26.3467 96.8351 26.369Z" fill="#F47B20"/>
<path d="M89.4259 20.3554L88.546 24.9959C88.1201 27.2377 89.5324 29.0367 91.6957 29.0367H92.1553C93.2716 28.9785 94.3369 28.5511 95.1839 27.8218C96.031 27.0924 96.6117 26.1023 96.835 25.0071L97.6925 20.5908C97.6925 20.5908 98.4267 16.1072 94.2514 16.5556C90.076 17.0039 89.4259 20.3554 89.4259 20.3554Z" fill="white"/>
<path d="M92.1778 29.3281H91.7182C91.2035 29.34 90.6927 29.2364 90.2233 29.025C89.7539 28.8136 89.3378 28.4997 89.0056 28.1064C88.6601 27.6653 88.4178 27.1524 88.2966 26.6054C88.1754 26.0584 88.1783 25.4912 88.3051 24.9455L89.185 20.2994C89.185 20.2657 89.9023 16.7573 94.229 16.2754C94.7444 16.1744 95.2765 16.1975 95.7813 16.3427C96.2861 16.4879 96.7491 16.751 97.1321 17.1104C98.3371 18.3826 97.9952 20.5572 97.984 20.6524L97.1433 25.0744C96.9038 26.2333 96.2863 27.2799 95.3875 28.0499C94.4888 28.8198 93.3597 29.2694 92.1778 29.3281ZM89.7286 20.4114L88.8655 25.0744C88.7608 25.5383 88.7603 26.0197 88.864 26.4839C88.9677 26.9481 89.173 27.3836 89.4652 27.7589C89.7446 28.0858 90.0932 28.3465 90.4858 28.5219C90.8784 28.6974 91.3051 28.7832 91.735 28.7733H92.1946C93.2445 28.7191 94.2464 28.3166 95.042 27.6295C95.8377 26.9424 96.3818 26.0099 96.5885 24.9791L97.4235 20.574C97.4235 20.574 97.7318 18.5956 96.7174 17.5308C96.395 17.2387 96.0081 17.027 95.5883 16.913C95.1685 16.7991 94.7277 16.786 94.3018 16.875C90.3843 17.2842 89.7566 20.2769 89.7286 20.4114Z" fill="#F47B20"/>
<path d="M92.5813 25.6684C92.3735 25.6678 92.1659 25.6566 91.9593 25.6348C91.8838 25.6237 91.8157 25.5834 91.7696 25.5226C91.7235 25.4618 91.703 25.3854 91.7127 25.3097C91.7225 25.2343 91.7614 25.1658 91.8211 25.1186C91.8807 25.0715 91.9565 25.0496 92.0321 25.0575C92.3691 25.0967 92.7095 25.0967 93.0465 25.0575C93.181 24.7885 93.1082 23.5724 92.8896 22.373C92.8765 22.2972 92.894 22.2194 92.938 22.1564C92.9821 22.0934 93.0493 22.0504 93.125 22.0367C93.1622 22.0294 93.2004 22.0296 93.2376 22.0373C93.2747 22.0449 93.3099 22.0599 93.3412 22.0812C93.3725 22.1026 93.3992 22.13 93.4198 22.1618C93.4404 22.1936 93.4545 22.2292 93.4612 22.2665C93.5677 22.8718 93.8984 24.8782 93.4949 25.4218C93.4578 25.4763 93.4098 25.5225 93.3538 25.5572C93.2978 25.592 93.2351 25.6146 93.1698 25.6236C92.9749 25.6517 92.7783 25.6667 92.5813 25.6684Z" fill="#F47B20"/>
<path d="M77.1355 19.4026H53.1933C53.118 19.3925 53.0489 19.3554 52.9989 19.2982C52.9488 19.241 52.9213 19.1676 52.9213 19.0916C52.9213 19.0156 52.9488 18.9422 52.9989 18.885C53.0489 18.8278 53.118 18.7907 53.1933 18.7805H77.1355C77.2108 18.7907 77.2799 18.8278 77.3299 18.885C77.3799 18.9422 77.4075 19.0156 77.4075 19.0916C77.4075 19.1676 77.3799 19.241 77.3299 19.2982C77.2799 19.3554 77.2108 19.3925 77.1355 19.4026Z" fill="#D1D3D4"/>
<path d="M76.3284 23.6732H52.3861C52.3029 23.6732 52.223 23.6402 52.1642 23.5813C52.1053 23.5225 52.0723 23.4426 52.0723 23.3594C52.0723 23.2761 52.1053 23.1963 52.1642 23.1375C52.223 23.0786 52.3029 23.0455 52.3861 23.0455L76.3284 23.0792C76.4101 23.0792 76.4885 23.1116 76.5463 23.1694C76.6041 23.2272 76.6366 23.3057 76.6366 23.3874C76.6297 23.4647 76.5943 23.5368 76.5374 23.5896C76.4805 23.6423 76.406 23.6722 76.3284 23.6732Z" fill="#D1D3D4"/>
<path d="M75.5157 27.9383H51.5791C51.5347 27.9442 51.4896 27.9406 51.4468 27.9277C51.4039 27.9148 51.3643 27.8929 51.3306 27.8635C51.297 27.834 51.27 27.7977 51.2515 27.7569C51.233 27.7162 51.2234 27.672 51.2234 27.6272C51.2234 27.5825 51.233 27.5382 51.2515 27.4975C51.27 27.4567 51.297 27.4204 51.3306 27.3909C51.3643 27.3615 51.4039 27.3396 51.4468 27.3267C51.4896 27.3138 51.5347 27.3102 51.5791 27.3162H75.5157C75.599 27.3162 75.6788 27.3492 75.7376 27.4081C75.7965 27.4669 75.8296 27.5468 75.8296 27.63C75.8296 27.671 75.8214 27.7115 75.8056 27.7493C75.7897 27.787 75.7665 27.8213 75.7373 27.85C75.7081 27.8787 75.6735 27.9013 75.6354 27.9164C75.5974 27.9316 75.5567 27.939 75.5157 27.9383Z" fill="#D1D3D4"/>
<path d="M74.7088 32.2088H50.7665C50.6912 32.1987 50.6221 32.1616 50.5721 32.1044C50.5221 32.0472 50.4945 31.9738 50.4945 31.8978C50.4945 31.8218 50.5221 31.7484 50.5721 31.6912C50.6221 31.634 50.6912 31.5969 50.7665 31.5867L74.7088 31.6148C74.7531 31.6088 74.7982 31.6124 74.8411 31.6253C74.8839 31.6382 74.9235 31.6601 74.9572 31.6895C74.9909 31.719 75.0179 31.7553 75.0364 31.7961C75.0549 31.8368 75.0644 31.881 75.0644 31.9258C75.0644 31.9705 75.0549 32.0148 75.0364 32.0555C75.0179 32.0963 74.9909 32.1326 74.9572 32.1621C74.9235 32.1915 74.8839 32.2134 74.8411 32.2263C74.7982 32.2392 74.7531 32.2428 74.7088 32.2368V32.2088Z" fill="#D1D3D4"/>
<path d="M73.9016 36.4794H57.021C56.9457 36.4693 56.8766 36.4322 56.8266 36.3749C56.7766 36.3177 56.749 36.2443 56.749 36.1683C56.749 36.0924 56.7766 36.0189 56.8266 35.9617C56.8766 35.9045 56.9457 35.8674 57.021 35.8573H73.9016C73.9834 35.8573 74.0618 35.8898 74.1196 35.9476C74.1774 36.0054 74.2099 36.0838 74.2099 36.1655C74.2099 36.2478 74.1776 36.3268 74.12 36.3855C74.0623 36.4442 73.9839 36.4779 73.9016 36.4794Z" fill="#D1D3D4"/>
<path d="M98.1073 59.4409L45.8178 59.3792C45.7722 59.3782 45.7273 59.3674 45.6862 59.3476C45.6451 59.3278 45.6087 59.2994 45.5795 59.2644C45.5503 59.2293 45.529 59.1884 45.5169 59.1444C45.5048 59.1004 45.5023 59.0544 45.5095 59.0093L47.8858 46.4722C47.8989 46.3999 47.9369 46.3346 47.9933 46.2875C48.0496 46.2404 48.1206 46.2145 48.194 46.2144L100.484 46.276C100.53 46.2766 100.576 46.2875 100.617 46.3078C100.659 46.3282 100.696 46.3575 100.725 46.3937C100.755 46.4276 100.776 46.4681 100.788 46.5118C100.8 46.5556 100.801 46.6015 100.792 46.6459L98.3932 59.1831C98.3809 59.2517 98.3462 59.3143 98.2944 59.3609C98.2427 59.4076 98.1768 59.4357 98.1073 59.4409ZM46.1933 58.7571L97.8495 58.8188L100.091 46.8981L48.435 46.8365L46.1933 58.7571Z" fill="#D1D3D4"/>
<path d="M99.5421 50.8548L47.4207 50.7932C47.3374 50.7932 47.2576 50.7601 47.1987 50.7012C47.1399 50.6424 47.1068 50.5626 47.1068 50.4793C47.1068 50.4384 47.115 50.3978 47.1308 50.36C47.1466 50.3223 47.1698 50.288 47.1991 50.2594C47.2283 50.2307 47.2629 50.2081 47.301 50.1929C47.339 50.1777 47.3797 50.1703 47.4207 50.1711L99.5421 50.2327C99.6174 50.2429 99.6865 50.28 99.7365 50.3372C99.7865 50.3944 99.8141 50.4678 99.8141 50.5438C99.8141 50.6198 99.7865 50.6932 99.7365 50.7504C99.6865 50.8076 99.6174 50.8447 99.5421 50.8548Z" fill="#D1D3D4"/>
<path d="M83.9504 59.4241H83.8943C83.8137 59.4078 83.7427 59.3605 83.6965 59.2923C83.6504 59.2242 83.6329 59.1407 83.6477 59.0598L86.024 46.5226C86.0308 46.4824 86.0455 46.4439 86.0672 46.4094C86.089 46.3749 86.1173 46.345 86.1507 46.3216C86.1841 46.2981 86.2217 46.2815 86.2616 46.2727C86.3014 46.264 86.3426 46.2632 86.3827 46.2704C86.4644 46.2854 86.5368 46.3322 86.5841 46.4004C86.6313 46.4687 86.6496 46.553 86.6349 46.6347L84.2586 59.1719C84.2444 59.2431 84.2058 59.3071 84.1496 59.3531C84.0934 59.3991 84.023 59.4242 83.9504 59.4241Z" fill="#D1D3D4"/>
<path d="M57.5871 59.3904H57.531C57.4504 59.3741 57.3794 59.3269 57.3332 59.2587C57.2871 59.1906 57.2696 59.1071 57.2845 59.0261L59.6551 46.489C59.6793 46.4169 59.7288 46.3561 59.7945 46.3178C59.8601 46.2794 59.9374 46.2663 60.0121 46.2806C60.0867 46.295 60.1536 46.336 60.2003 46.3959C60.247 46.4559 60.2703 46.5308 60.266 46.6067L57.8953 59.1438C57.88 59.214 57.8409 59.2768 57.7848 59.3217C57.7287 59.3665 57.6589 59.3908 57.5871 59.3904Z" fill="#D1D3D4"/>
<path d="M2.9884 118.204L2.03564 100.734L45.2572 92.821C45.3077 93.2862 47.1683 107.746 48.5134 118.192L2.9884 118.204Z" fill="#F47B20"/>
<path d="M48.5135 118.484H2.98844C2.91695 118.484 2.84811 118.457 2.79601 118.408C2.74392 118.359 2.71251 118.292 2.70822 118.22L1.75547 100.763C1.75282 100.695 1.77451 100.628 1.81663 100.574C1.85875 100.521 1.91853 100.484 1.98525 100.471L45.2068 92.5576C45.2452 92.5513 45.2844 92.553 45.322 92.5627C45.3596 92.5723 45.3948 92.5897 45.4254 92.6137C45.456 92.6362 45.4818 92.6647 45.501 92.6974C45.5203 92.7302 45.5327 92.7665 45.5375 92.8042C45.5879 93.303 47.8297 110.738 48.7937 118.17C48.8001 118.249 48.776 118.327 48.7264 118.389C48.6994 118.418 48.6665 118.442 48.6299 118.458C48.5932 118.475 48.5536 118.483 48.5135 118.484ZM3.25185 117.923H48.1996C47.0787 109.259 45.2965 95.3991 45.0163 93.1629L2.32712 100.976L3.25185 117.923Z" fill="#F47B20"/>
<path d="M71.5869 65.5105L79.2202 58.8524C79.2202 58.8524 82.0224 51.8805 83.1433 50.5522C84.2642 49.224 92.6709 45.1159 92.7662 46.035C92.8614 46.9542 90.855 48.1983 90.2946 48.6579C89.4483 49.3473 88.5684 49.9862 87.6997 50.6419C89.4595 51.3705 91.2193 53.3825 91.9983 55.1255C92.3603 55.8793 92.5182 56.7149 92.4562 57.5489C92.3943 58.3828 92.1147 59.1859 91.6453 59.878C91.3842 60.2655 90.9986 60.5522 90.5524 60.6907C90.3282 60.7511 90.0908 60.7404 89.8729 60.6601C89.6551 60.5798 89.4675 60.4338 89.3362 60.2423L89.2241 60.3824C88.3275 61.5911 87.2566 62.6601 86.0464 63.5546C85.06 64.2159 83.8327 64.2887 83.0256 65.107C81.8487 66.2895 80.9183 67.9092 79.9095 69.2207L74.2939 76.6354L71.5869 65.5105Z" fill="white"/>
<path d="M74.2941 76.9044H74.2381C74.1855 76.8925 74.1373 76.8664 74.0987 76.8288C74.0601 76.7912 74.0327 76.7436 74.0195 76.6914L71.3406 65.5834C71.3274 65.5335 71.3283 65.4809 71.3431 65.4314C71.358 65.382 71.3862 65.3376 71.4246 65.3032L78.985 58.7011C79.2877 57.9557 81.7873 51.6843 82.9082 50.3897C84.029 49.0951 91.5502 45.3008 92.7272 45.6707C92.8061 45.6936 92.8764 45.7393 92.9293 45.8022C92.9822 45.865 93.0152 45.9422 93.0242 46.0238C93.1027 46.8421 91.9874 47.7444 90.8385 48.5963L90.4462 48.8877C89.8521 49.3753 89.2356 49.8405 88.6359 50.2888L88.2212 50.6027C89.9716 51.6296 91.3689 53.1637 92.2284 55.0022C92.6146 55.802 92.7827 56.6897 92.7158 57.5754C92.6489 58.4611 92.3493 59.3134 91.8473 60.0462C91.5491 60.4875 91.1076 60.8122 90.5975 60.9653C90.3775 61.0232 90.1469 61.028 89.9248 60.9793C89.7026 60.9306 89.4952 60.8297 89.3197 60.6851C88.4297 61.8668 87.3724 62.9128 86.1812 63.7899C85.7371 64.0635 85.2633 64.2854 84.7688 64.4513C84.192 64.6185 83.6585 64.9092 83.2052 65.3032C82.4282 66.1394 81.725 67.0414 81.1035 67.9989C80.7729 68.4753 80.4422 68.9461 80.1115 69.3888L74.5071 76.8147C74.4798 76.8437 74.4467 76.8666 74.4101 76.882C74.3734 76.8975 74.3339 76.9051 74.2941 76.9044ZM71.9234 65.6114L74.4286 75.9796L79.6968 69.0245C80.0275 68.593 80.3469 68.1278 80.672 67.657C81.3138 66.6734 82.0395 65.7471 82.8409 64.8884C83.3489 64.4328 83.952 64.0958 84.6063 63.902C85.0596 63.7529 85.4941 63.5517 85.9009 63.3024C87.0869 62.42 88.1368 61.3682 89.017 60.1807L89.1291 60.0406C89.1605 60.007 89.1988 59.9806 89.2414 59.9632C89.2839 59.9458 89.3298 59.9378 89.3757 59.9397C89.4211 59.9447 89.4647 59.9606 89.5027 59.9859C89.5408 60.0113 89.5721 60.0454 89.5943 60.0854C89.694 60.2244 89.8342 60.3291 89.9957 60.3853C90.1572 60.4415 90.3322 60.4463 90.4966 60.3993C90.8803 60.2751 91.2104 60.0241 91.4325 59.6875C91.8757 59.0344 92.1386 58.2759 92.1947 57.4886C92.2508 56.7014 92.0981 55.9132 91.752 55.2039C91.0514 53.6571 89.3645 51.6171 87.6047 50.8885C87.5599 50.8701 87.5207 50.8402 87.4912 50.8018C87.4617 50.7634 87.4428 50.7179 87.4366 50.6699C87.429 50.6213 87.435 50.5716 87.4538 50.5261C87.4726 50.4807 87.5034 50.4412 87.543 50.4121L88.3333 49.8124C88.9273 49.3641 89.5382 48.9045 90.1267 48.4281C90.2276 48.3441 90.3677 48.2432 90.5358 48.1143C91.0963 47.6996 92.3741 46.7524 92.4918 46.1639C91.3709 46.1639 84.4998 49.4033 83.3677 50.726C82.2356 52.0486 79.5343 58.8748 79.5063 58.9421C79.4887 58.9848 79.4619 59.023 79.4278 59.0542L71.9234 65.6114Z" fill="#F47B20"/>
<path d="M0.276001 111.725C0.276001 111.725 0.836445 64.894 6.41288 55.5234C11.9893 46.1527 27.3175 43.4794 34.9284 48.6243C42.5392 53.7692 48.5136 107.774 48.5136 107.774C48.5136 107.774 24.5545 112.745 0.276001 111.725Z" fill="#FBBF78"/>
<path d="M34.9282 48.6131C34.9282 48.6131 42.0795 49.706 46.0194 55.77C49.9594 61.834 54.3252 70.1959 54.3252 70.1959L74.8824 59.4633L84.5053 68.6154C84.5053 68.6154 67.2435 87.3007 58.8985 92.3615C51.0242 97.1365 44.8257 90.54 40.5271 86.2919C38.7056 84.4928 35.8866 80.0709 35.8866 80.0709L34.9282 48.6131Z" fill="#FBBF78"/>
<path d="M36.0772 29.8998C35.3596 29.9011 34.6654 29.6445 34.1212 29.1768C33.5894 28.7236 33.2311 28.1001 33.1074 27.4123C32.9837 26.7246 33.1023 26.0153 33.4429 25.4052C33.7835 24.795 34.325 24.3219 34.9754 24.0662C35.6257 23.8106 36.3445 23.7883 37.0094 24.0032C37.6743 24.218 38.2441 24.6568 38.6219 25.2446C38.9996 25.8325 39.1619 26.5331 39.081 27.2272C39.0002 27.9212 38.6812 28.5658 38.1784 29.0511C37.6757 29.5364 37.0202 29.8323 36.3238 29.8886L36.0772 29.8998ZM36.0772 24.4018H35.8754C35.2228 24.4554 34.618 24.7659 34.1941 25.2649C33.9861 25.5116 33.8295 25.7973 33.7332 26.1052C33.637 26.4131 33.6031 26.7372 33.6336 27.0584C33.666 27.4626 33.7975 27.8525 34.0166 28.1938C34.2357 28.535 34.5355 28.8169 34.8896 29.0146C35.2436 29.2123 35.641 29.3196 36.0464 29.3271C36.4518 29.3345 36.8528 29.2419 37.2139 29.0574C37.575 28.8728 37.885 28.6021 38.1164 28.2692C38.3479 27.9362 38.4937 27.5513 38.5409 27.1486C38.5881 26.7459 38.5353 26.3377 38.3871 25.9602C38.2389 25.5828 37.9999 25.2477 37.6913 24.9847C37.2453 24.6024 36.6757 24.3953 36.0884 24.4018H36.0772Z" fill="#F47B20"/>
<path d="M34.9452 29.104C34.9452 29.104 38.5544 34.0975 37.8931 35.1904C37.2318 36.2833 34.8723 35.678 34.8723 35.678" fill="white"/>
<path d="M36.2285 36.1263C35.749 36.1214 35.2716 36.0631 34.805 35.9526C34.7693 35.9434 34.7357 35.9273 34.7062 35.9052C34.6767 35.883 34.6519 35.8553 34.6331 35.8235C34.6144 35.7918 34.6021 35.7566 34.597 35.7201C34.5918 35.6836 34.594 35.6464 34.6032 35.6107C34.6117 35.5746 34.6274 35.5405 34.6493 35.5107C34.6713 35.4808 34.6991 35.4556 34.731 35.4368C34.763 35.4179 34.7984 35.4057 34.8352 35.4009C34.872 35.3962 34.9094 35.3989 34.9451 35.4089C35.5448 35.5603 37.1869 35.7957 37.6521 35.0503C38.0051 34.4898 36.4023 31.5979 34.7153 29.2665C34.6731 29.2067 34.6559 29.1328 34.6674 29.0605C34.6789 28.9883 34.7182 28.9234 34.777 28.8798C34.8065 28.8572 34.8402 28.8409 34.8762 28.8318C34.9122 28.8227 34.9496 28.8209 34.9863 28.8267C35.023 28.8325 35.0581 28.8456 35.0895 28.8653C35.121 28.885 35.1481 28.9109 35.1693 28.9414C35.7914 29.7989 38.8514 34.1423 38.134 35.3361C37.7585 35.9638 36.9515 36.1263 36.2285 36.1263Z" fill="#F47B20"/>
<path d="M33.9419 22.345C36.1837 24.0263 35.7017 27.7757 35.7858 30.1912C35.9053 33.6025 35.9427 37.0175 35.8979 40.4362C35.8979 42.5995 30.2934 42.8797 29.2622 42.2744L30.8763 47.565L18.5465 46.758L18.7314 39.6796C18.7314 39.6796 17.1678 29.9614 19.1686 25.4611C19.7523 24.1667 20.686 23.0611 21.8643 22.2689C23.0427 21.4767 24.4189 21.0295 25.8379 20.9775C25.8379 20.9775 31.7506 20.7141 33.9419 22.345Z" fill="white"/>
<path d="M30.8706 47.8564L18.5408 47.0494C18.4684 47.0451 18.4006 47.0129 18.3515 46.9596C18.3023 46.9063 18.2758 46.836 18.2774 46.7636L18.4623 39.6795C18.4007 39.3321 16.9099 29.883 18.9219 25.3602C20.9339 20.8374 25.7705 20.7197 25.8546 20.7197C26.0844 20.7197 31.885 20.4451 34.1268 22.1208C36.0939 23.5948 36.0827 26.5259 36.0715 28.8461C36.0715 29.3113 36.0715 29.7597 36.0715 30.1632C36.1892 33.5651 36.2284 37.0174 36.1836 40.4193C36.1607 40.7584 36.0437 41.0844 35.8456 41.3606C35.6476 41.6369 35.3765 41.8524 35.0627 41.983C33.6224 42.79 30.9827 42.9638 29.6824 42.6947L31.1396 47.4922C31.1524 47.536 31.1545 47.5823 31.1457 47.6272C31.137 47.6721 31.1176 47.7142 31.0892 47.75C31.0633 47.7833 31.0302 47.8102 30.9923 47.8287C30.9544 47.8472 30.9127 47.8567 30.8706 47.8564ZM18.821 46.5114L30.4839 47.268L28.9875 42.3697C28.9717 42.3155 28.9723 42.2578 28.9893 42.2039C29.0062 42.1501 29.0388 42.1024 29.0828 42.067C29.1291 42.0357 29.1838 42.019 29.2397 42.019C29.2956 42.019 29.3503 42.0357 29.3966 42.067C30.0635 42.465 33.2132 42.4313 34.7881 41.5458C35.3485 41.2432 35.6119 40.8789 35.6119 40.4642C35.6568 37.0679 35.6119 33.6267 35.4999 30.236C35.4999 29.8213 35.4999 29.3674 35.4999 28.8966C35.4999 26.6548 35.4999 23.8974 33.7793 22.5916C31.7 21.0391 25.9331 21.2969 25.8546 21.3025C24.4864 21.3445 23.1578 21.7711 22.0209 22.5333C20.8839 23.2956 19.9847 24.3627 19.4263 25.6124C17.4759 29.9782 18.9947 39.5731 19.0115 39.6683L18.821 46.5114Z" fill="#F47B20"/>
<path d="M16.2767 48.6131L17.123 44.8021L32.2046 45.0431L33.3255 48.4057C33.3255 48.4057 25.8211 52.7436 16.2767 48.6131Z" fill="white"/>
<path d="M24.644 50.6643C21.7247 50.6575 18.8381 50.0489 16.1645 48.8765C16.105 48.8497 16.0565 48.8035 16.0269 48.7454C15.9974 48.6873 15.9886 48.6208 16.002 48.557L16.8482 44.746C16.8613 44.6832 16.8959 44.627 16.9461 44.5871C16.9962 44.5472 17.0588 44.5261 17.1228 44.5274L32.2044 44.774C32.2615 44.7735 32.3172 44.7912 32.3635 44.8244C32.4098 44.8577 32.4444 44.9048 32.4622 44.9589L33.5831 48.3216C33.6059 48.3823 33.6059 48.4492 33.5833 48.51C33.5606 48.5708 33.5168 48.6213 33.4598 48.6523C30.7232 50.015 27.7009 50.7048 24.644 50.6643ZM16.6016 48.4505C19.1924 49.5789 21.9929 50.1453 24.8186 50.1124C27.6442 50.0796 30.4308 49.4482 32.9947 48.26L32.0027 45.3288L17.347 45.0935L16.6016 48.4505Z" fill="#F47B20"/>
<path d="M0.449662 106.339C0.379651 106.339 0.312235 106.312 0.261191 106.265C0.210147 106.217 0.179331 106.151 0.175045 106.081C-0.788922 94.3118 2.53452 69.3103 2.71386 68.5761C2.7227 68.5394 2.73869 68.5047 2.76093 68.474C2.78317 68.4434 2.81123 68.4175 2.84349 68.3977C2.87576 68.3779 2.91161 68.3647 2.94898 68.3588C2.98636 68.3529 3.02454 68.3544 3.06134 68.3632C3.09814 68.372 3.13284 68.388 3.16346 68.4102C3.19408 68.4325 3.22001 68.4605 3.23979 68.4928C3.25957 68.5251 3.27279 68.5609 3.27872 68.5983C3.28464 68.6357 3.28314 68.6739 3.27431 68.7107C3.09497 69.4448 -0.20606 94.3006 0.746698 106.036C0.749762 106.073 0.745516 106.11 0.734199 106.145C0.722883 106.181 0.704721 106.213 0.68076 106.241C0.656799 106.269 0.627512 106.293 0.594584 106.309C0.561656 106.326 0.525735 106.336 0.488893 106.339H0.449662Z" fill="#F47B20"/>
<path d="M24.0051 39.7524C23.2766 44.1912 24.0556 47.9293 19.6393 50.9109C16.6185 52.9565 12.7066 53.3881 9.13092 52.6763C6.88914 52.228 4.56329 51.236 3.35272 49.28C1.88436 46.9093 2.4448 43.782 3.64976 41.2656C4.85472 38.7492 6.63694 36.5243 7.65695 33.9238C10.1509 27.5796 8.0941 20.3834 14.231 15.8943C16.6372 14.1537 19.444 13.0491 22.3911 12.6829C23.2373 12.5764 30.6072 13.5292 30.5007 13.6581C31.8962 12.0496 34.8778 13.0192 35.825 14.9191C36.2054 15.7812 36.4066 16.7116 36.4162 17.6539C36.4258 18.5962 36.2438 19.5306 35.881 20.4002C35.7745 20.6188 33.8354 23.0624 33.8802 22.3394C33.7569 24.2673 32.58 25.2761 31.1508 26.61C29.7217 27.9438 28.0235 28.9639 26.4655 30.1464C23.4279 32.4386 24.4759 35.2577 24.1621 38.5195C24.1228 38.9398 24.0724 39.3489 24.0051 39.7524Z" fill="white"/>
<path d="M12.3255 53.276C11.2358 53.2747 10.1489 53.1658 9.08054 52.9509C7.11338 52.5586 4.47928 51.6339 3.1174 49.4313C1.23991 46.3993 2.68586 42.6275 3.39762 41.1423C3.92444 40.0214 4.56895 38.979 5.19105 37.9534C6.04439 36.6435 6.78139 35.2614 7.3936 33.8229C8.16287 31.6198 8.66158 29.3313 8.87878 27.0079C9.43923 22.7036 9.99967 18.6404 14.0685 15.67C16.5113 13.8984 19.3629 12.7743 22.3575 12.4026C22.4135 12.4026 28.8026 12.907 30.3943 13.3554C30.7165 13.0435 31.1077 12.8119 31.5361 12.6795C31.9646 12.547 32.4182 12.5175 32.8603 12.5932C33.5313 12.6811 34.1722 12.9258 34.7311 13.3075C35.29 13.6891 35.7512 14.1971 36.0772 14.7901C36.4738 15.6923 36.6833 16.6656 36.6929 17.6511C36.7026 18.6366 36.5122 19.6137 36.1333 20.5235C36.1333 20.5235 34.8554 22.3674 34.1269 22.698C33.8971 24.441 32.793 25.4666 31.532 26.6212L31.3414 26.8005C30.3635 27.6713 29.326 28.4728 28.2366 29.1992C27.6761 29.5803 27.1549 29.9558 26.6337 30.3537C24.4704 31.9846 24.4872 33.907 24.5096 36.1319C24.5283 36.9321 24.5058 37.7327 24.4424 38.5306C24.4031 38.9622 24.3471 39.3825 24.2798 39.7804C24.1229 40.7276 24.0388 41.6467 23.9548 42.5322C23.6409 45.8501 23.3943 48.6971 19.7963 51.1295C17.5741 52.5701 14.9736 53.3173 12.3255 53.276ZM22.5929 12.9519H22.4248C19.5249 13.3116 16.7627 14.3968 14.3936 16.1072C10.5209 18.9094 9.99407 22.883 9.43362 27.0639C9.21574 29.4433 8.70564 31.7868 7.91481 34.0415C7.29108 35.5104 6.54101 36.9224 5.67303 38.2616C5.0304 39.2793 4.43932 40.3287 3.90202 41.4057C3.23509 42.8012 1.862 46.3601 3.59378 49.1511C4.84918 51.1855 7.33195 52.0486 9.19824 52.4185C13.0037 53.1751 16.7586 52.5474 19.4936 50.6979C22.8563 48.4281 23.1085 45.6875 23.4167 42.5098C23.5008 41.6131 23.5905 40.6883 23.7474 39.7076C23.8147 39.3209 23.8651 38.9117 23.9043 38.4914C23.9681 37.7141 23.9905 36.934 23.9716 36.1543C23.9716 33.8733 23.9324 31.7268 26.3142 29.9222C26.8747 29.5243 27.3903 29.1432 27.9339 28.7565C29.0037 28.0457 30.0225 27.261 30.9828 26.4082L31.1733 26.2288C32.4791 25.0127 33.5104 24.0543 33.6225 22.3057C33.6295 22.2324 33.6641 22.1645 33.7192 22.1156C33.7743 22.0668 33.8459 22.0406 33.9195 22.0423C33.9727 22.0455 34.0236 22.0651 34.0652 22.0984C34.6394 21.5404 35.161 20.9306 35.6233 20.2769C35.9652 19.4453 36.1369 18.5536 36.1282 17.6545C36.1196 16.7554 35.9307 15.8672 35.5728 15.0423C35.2872 14.5288 34.8846 14.0898 34.3978 13.7607C33.911 13.4316 33.3536 13.2217 32.7706 13.148C32.3949 13.0797 32.008 13.107 31.6456 13.2275C31.2832 13.348 30.957 13.5577 30.6969 13.8374C30.6522 13.8898 30.5898 13.9239 30.5216 13.9332C30.4534 13.9425 30.3841 13.9263 30.327 13.8878C27.7667 13.4438 25.1852 13.1314 22.5929 12.9519Z" fill="#F47B20"/>
<path d="M35.7073 37.903C35.7073 37.903 33.1293 39.6404 31.6049 36.967L35.7073 37.903Z" fill="white"/>
<path d="M33.8971 38.738C33.6878 38.7403 33.479 38.7177 33.275 38.6708C32.8643 38.5594 32.4818 38.3626 32.1524 38.0931C31.8231 37.8237 31.5544 37.4877 31.3639 37.1071C31.3455 37.0751 31.3336 37.0398 31.3289 37.0032C31.3241 36.9665 31.3266 36.9293 31.3363 36.8937C31.3459 36.858 31.3624 36.8246 31.385 36.7954C31.4075 36.7661 31.4356 36.7416 31.4676 36.7232C31.4996 36.7048 31.535 36.6929 31.5716 36.6882C31.6082 36.6834 31.6454 36.6859 31.681 36.6955C31.7167 36.7052 31.7501 36.7217 31.7793 36.7443C31.8086 36.7668 31.8331 36.7949 31.8515 36.8269C32.0032 37.1397 32.2195 37.4169 32.4862 37.64C32.7528 37.8632 33.0637 38.0273 33.3983 38.1215C34.1463 38.2364 34.9106 38.0772 35.5505 37.6732C35.5805 37.6521 35.6144 37.6372 35.6503 37.6295C35.6861 37.6217 35.7231 37.6212 35.7592 37.628C35.7952 37.6348 35.8296 37.6487 35.8601 37.669C35.8907 37.6893 35.9169 37.7155 35.9372 37.746C35.9584 37.7765 35.9734 37.8109 35.9812 37.8471C35.989 37.8834 35.9896 37.9209 35.9828 37.9574C35.976 37.9939 35.962 38.0287 35.9417 38.0598C35.9214 38.0908 35.8951 38.1175 35.8643 38.1383C35.2736 38.5096 34.5945 38.7166 33.8971 38.738Z" fill="#F47B20"/>
<path d="M21.0517 32.0351H20.9956C20.9595 32.0277 20.9253 32.0133 20.8948 31.9927C20.8643 31.9721 20.8381 31.9457 20.8178 31.915C20.7975 31.8843 20.7835 31.8499 20.7765 31.8138C20.7695 31.7776 20.7697 31.7405 20.777 31.7044C21.1245 29.9782 21.4552 29.9222 21.6009 29.9054C21.8811 29.8549 32.9499 27.5795 38.7673 26.3802C38.8417 26.3653 38.9188 26.3806 38.9819 26.4226C39.045 26.4647 39.0887 26.53 39.1036 26.6044C39.1185 26.6787 39.1032 26.7559 39.0612 26.8189C39.0191 26.882 38.9537 26.9258 38.8794 26.9406C38.2069 27.0751 22.8675 30.2417 21.7466 30.4546C21.5447 30.8911 21.4033 31.353 21.3263 31.8277C21.3092 31.8874 21.2732 31.9399 21.2237 31.9774C21.1741 32.0148 21.1137 32.035 21.0517 32.0351Z" fill="#F47B20"/>
<path d="M28.4943 31.5643C28.3616 30.7142 27.997 29.9172 27.4407 29.2609C27.0808 28.701 26.6409 28.1968 26.1349 27.7645C25.8799 27.5512 25.5806 27.3973 25.2588 27.3139C24.937 27.2306 24.6007 27.2198 24.2742 27.2825C23.9915 27.3673 23.73 27.5111 23.5068 27.7043C23.2837 27.8975 23.104 28.1357 22.9796 28.4034C22.7378 28.9304 22.6172 29.5049 22.6265 30.0847C22.6234 31.3703 22.959 32.634 23.5995 33.7487C24.24 34.8634 25.1628 35.7898 26.275 36.4346L26.0956 36.2832" fill="white"/>
<path d="M26.275 36.7372C26.2263 36.7368 26.1784 36.7253 26.1349 36.7036C24.9845 36.031 24.0298 35.0696 23.3653 33.9145C22.7008 32.7595 22.3495 31.4509 22.3462 30.1184C22.333 29.4877 22.4653 28.8625 22.733 28.2913C22.8725 27.9868 23.0766 27.7163 23.3311 27.4985C23.5856 27.2808 23.8845 27.121 24.2069 27.0303C24.5768 26.9573 24.9585 26.9698 25.3227 27.0669C25.687 27.1641 26.0242 27.3432 26.3086 27.5908C26.8375 28.0379 27.2949 28.5633 27.6649 29.1488C28.263 29.8404 28.6518 30.6879 28.7858 31.5923C28.788 31.6291 28.7829 31.666 28.7709 31.7009C28.7588 31.7357 28.74 31.7678 28.7156 31.7954C28.6911 31.823 28.6615 31.8455 28.6283 31.8616C28.5952 31.8777 28.5592 31.8872 28.5224 31.8894C28.4856 31.8916 28.4487 31.8865 28.4138 31.8745C28.379 31.8624 28.3469 31.8437 28.3193 31.8192C28.2917 31.7947 28.2692 31.7651 28.2531 31.7319C28.237 31.6988 28.2275 31.6628 28.2253 31.626C28.0887 30.8303 27.7424 30.0855 27.2221 29.4683C26.8797 28.9318 26.4605 28.4484 25.9779 28.0335C25.7562 27.8452 25.4952 27.7088 25.214 27.6342C24.9329 27.5595 24.6386 27.5485 24.3526 27.602C24.1079 27.6734 23.8812 27.7964 23.6879 27.9627C23.4946 28.1289 23.339 28.3346 23.2318 28.5659C23.0071 29.066 22.8961 29.6095 22.9067 30.1576C22.9087 31.3182 23.1954 32.4605 23.7416 33.4845C24.2878 34.5086 25.0768 35.383 26.0396 36.0311C26.0822 36.0256 26.1255 36.0298 26.1662 36.0434C26.207 36.057 26.2442 36.0796 26.275 36.1095L26.4711 36.3057C26.5197 36.3524 26.5493 36.4153 26.5545 36.4825C26.5597 36.5497 26.54 36.6164 26.4992 36.67C26.4686 36.6964 26.4329 36.716 26.3943 36.7276C26.3556 36.7392 26.315 36.7425 26.275 36.7372Z" fill="#F47B20"/>
<path d="M33.9453 27.7129C34.2103 27.6874 34.3726 27.1222 34.308 26.4505C34.2433 25.7789 33.9761 25.2551 33.7111 25.2806C33.4461 25.3061 33.2838 25.8713 33.3484 26.5429C33.4131 27.2146 33.6803 27.7384 33.9453 27.7129Z" fill="#F47B20"/>
<path d="M47.953 92.3279C47.9142 92.3359 47.8741 92.3359 47.8353 92.3279C34.5359 86.0789 27.8946 62.9101 27.8274 62.6803C27.8083 62.6082 27.8182 62.5316 27.8548 62.4666C27.8914 62.4017 27.952 62.3537 28.0235 62.3328C28.0589 62.3227 28.0959 62.3197 28.1324 62.3241C28.1689 62.3286 28.2041 62.3403 28.236 62.3586C28.2678 62.3769 28.2957 62.4014 28.318 62.4306C28.3402 62.4599 28.3563 62.4933 28.3654 62.529C28.4327 62.7587 35.0067 85.681 48.0763 91.8178C48.1335 91.8455 48.1795 91.8918 48.2069 91.9492C48.2344 92.0065 48.2415 92.0714 48.2271 92.1333C48.2128 92.1952 48.1779 92.2503 48.1281 92.2898C48.0782 92.3292 48.0165 92.3505 47.953 92.3503V92.3279Z" fill="#F47B20"/>
<path d="M112.875 111.915H77.1185L83.9672 76.159H119.724L112.875 111.915Z" fill="white"/>
<path d="M112.875 112.196H77.0963C77.0548 112.195 77.014 112.186 76.9763 112.168C76.9387 112.151 76.9051 112.126 76.8777 112.095C76.8525 112.063 76.8345 112.026 76.8248 111.986C76.8151 111.946 76.8141 111.905 76.8217 111.865L83.6703 76.1029C83.6822 76.0392 83.7163 75.9816 83.7666 75.9406C83.8169 75.8996 83.88 75.8777 83.9449 75.8788H119.701C119.743 75.8783 119.784 75.8871 119.822 75.9045C119.86 75.922 119.893 75.9476 119.92 75.9796C119.945 76.0115 119.964 76.0486 119.973 76.0883C119.983 76.128 119.984 76.1694 119.976 76.2094L113.15 111.943C113.144 112.012 113.113 112.077 113.062 112.123C113.011 112.17 112.944 112.196 112.875 112.196ZM77.455 111.635H112.645L119.371 76.4392H84.1971L77.455 111.635Z" fill="#F47B20"/>
<path d="M112.875 83.5064H88.8095C88.7272 83.505 88.6488 83.4712 88.5912 83.4125C88.5335 83.3538 88.5012 83.2749 88.5012 83.1926C88.5012 83.1108 88.5337 83.0324 88.5915 82.9746C88.6493 82.9168 88.7277 82.8843 88.8095 82.8843H112.875C112.916 82.8836 112.957 82.891 112.995 82.9062C113.033 82.9213 113.067 82.9439 113.097 82.9726C113.126 83.0013 113.149 83.0355 113.165 83.0733C113.181 83.1111 113.189 83.1516 113.189 83.1926C113.189 83.2338 113.181 83.2746 113.165 83.3127C113.149 83.3508 113.126 83.3854 113.097 83.4145C113.068 83.4436 113.033 83.4668 112.995 83.4825C112.957 83.4983 112.916 83.5064 112.875 83.5064Z" fill="#D1D3D4"/>
<path d="M111.805 89.1052H87.7446C87.7037 89.106 87.663 89.0986 87.625 89.0834C87.5869 89.0683 87.5523 89.0457 87.523 89.017C87.4938 88.9883 87.4706 88.954 87.4548 88.9163C87.4389 88.8785 87.4308 88.838 87.4308 88.797C87.4308 88.7138 87.4639 88.6339 87.5227 88.5751C87.5816 88.5162 87.6614 88.4832 87.7446 88.4832H111.81C111.892 88.4846 111.971 88.5183 112.028 88.577C112.086 88.6357 112.118 88.7147 112.118 88.797C112.118 88.838 112.11 88.8785 112.094 88.9163C112.079 88.954 112.055 88.9883 112.026 89.017C111.997 89.0457 111.962 89.0683 111.924 89.0834C111.886 89.0986 111.846 89.106 111.805 89.1052Z" fill="#D1D3D4"/>
<path d="M110.723 94.7097H86.663C86.5877 94.6995 86.5186 94.6624 86.4686 94.6052C86.4186 94.548 86.391 94.4746 86.391 94.3986C86.391 94.3226 86.4186 94.2492 86.4686 94.192C86.5186 94.1348 86.5877 94.0977 86.663 94.0876H110.723C110.767 94.0816 110.812 94.0852 110.855 94.0981C110.898 94.111 110.938 94.1329 110.971 94.1624C111.005 94.1918 111.032 94.2281 111.051 94.2689C111.069 94.3096 111.079 94.3539 111.079 94.3986C111.079 94.4434 111.069 94.4876 111.051 94.5284C111.032 94.5691 111.005 94.6054 110.971 94.6349C110.938 94.6643 110.898 94.6863 110.855 94.6992C110.812 94.7121 110.767 94.7156 110.723 94.7097Z" fill="#D1D3D4"/>
<path d="M109.658 100.314H85.5925C85.5482 100.32 85.5031 100.317 85.4602 100.304C85.4174 100.291 85.3777 100.269 85.3441 100.239C85.3104 100.21 85.2834 100.174 85.2649 100.133C85.2464 100.092 85.2368 100.048 85.2368 100.003C85.2368 99.9584 85.2464 99.9141 85.2649 99.8734C85.2834 99.8326 85.3104 99.7963 85.3441 99.7669C85.3777 99.7374 85.4174 99.7155 85.4602 99.7026C85.5031 99.6897 85.5482 99.6861 85.5925 99.6921H109.658C109.733 99.7022 109.802 99.7393 109.852 99.7965C109.902 99.8537 109.93 99.9271 109.93 100.003C109.93 100.079 109.902 100.153 109.852 100.21C109.802 100.267 109.733 100.304 109.658 100.314Z" fill="#D1D3D4"/>
<path d="M101.436 105.919H84.5165C84.4412 105.909 84.3721 105.871 84.3221 105.814C84.2721 105.757 84.2445 105.684 84.2445 105.608C84.2445 105.532 84.2721 105.458 84.3221 105.401C84.3721 105.344 84.4412 105.307 84.5165 105.297H101.436C101.512 105.307 101.581 105.344 101.631 105.401C101.681 105.458 101.708 105.532 101.708 105.608C101.708 105.684 101.681 105.757 101.631 105.814C101.581 105.871 101.512 105.909 101.436 105.919Z" fill="#D1D3D4"/>
</svg>
