<svg width="172" height="172" viewBox="0 0 172 172" fill="none" xmlns="http://www.w3.org/2000/svg">
<path d="M12.7329 99.8691C12.5115 99.8688 12.298 99.7872 12.1329 99.6399C11.9677 99.4925 11.8624 99.2897 11.8369 99.0698C11.5254 96.3397 11.3688 93.5941 11.368 90.8463C11.368 90.5491 11.368 90.2523 11.368 89.9561C11.3711 89.7188 11.4674 89.4923 11.6361 89.3254C11.8048 89.1586 12.0325 89.0649 12.2697 89.0645H12.2813C12.3998 89.0658 12.5169 89.0905 12.6259 89.1371C12.7349 89.1837 12.8336 89.2514 12.9165 89.3362C12.9993 89.4211 13.0645 89.5214 13.1085 89.6315C13.1526 89.7415 13.1744 89.8592 13.1729 89.9777C13.1729 90.2663 13.1729 90.5548 13.1729 90.8434C13.1733 93.5256 13.326 96.2057 13.6302 98.8707C13.6437 98.9883 13.6338 99.1075 13.6013 99.2214C13.5687 99.3352 13.514 99.4415 13.4403 99.5342C13.3666 99.6269 13.2754 99.7042 13.1718 99.7617C13.0683 99.8191 12.9544 99.8556 12.8367 99.8691C12.8021 99.871 12.7675 99.871 12.7329 99.8691ZM12.9565 81.8739C12.8274 81.8739 12.6998 81.8462 12.5824 81.7928C12.4649 81.7393 12.3602 81.6612 12.2755 81.5639C12.1907 81.4666 12.1278 81.3522 12.091 81.2285C12.0541 81.1047 12.0443 80.9746 12.062 80.8467C12.4838 77.829 13.0977 74.8413 13.9 71.9018C13.9313 71.7875 13.9848 71.6804 14.0574 71.5868C14.13 71.4931 14.2204 71.4146 14.3234 71.3559C14.4263 71.2971 14.5398 71.2592 14.6574 71.2444C14.775 71.2295 14.8944 71.2379 15.0088 71.2692C15.1231 71.3004 15.2302 71.3539 15.3238 71.4266C15.4175 71.4992 15.496 71.5896 15.5547 71.6925C15.6134 71.7955 15.6513 71.909 15.6662 72.0266C15.6811 72.1442 15.6727 72.2636 15.6414 72.3779C14.8594 75.2425 14.2609 78.1541 13.8495 81.0949C13.8199 81.3108 13.7132 81.5088 13.5491 81.6523C13.3849 81.7957 13.1745 81.875 12.9565 81.8754V81.8739ZM17.7016 64.5136C17.5532 64.5133 17.4071 64.4765 17.2763 64.4063C17.1455 64.3361 17.034 64.2348 16.9517 64.1113C16.8694 63.9877 16.8188 63.8458 16.8044 63.6981C16.79 63.5503 16.8122 63.4013 16.8692 63.2642C18.0409 60.4518 19.3902 57.7166 20.9088 55.0753C21.0282 54.8679 21.225 54.7164 21.4561 54.6542C21.6872 54.592 21.9335 54.6241 22.1409 54.7435C22.3483 54.8629 22.4997 55.0597 22.562 55.2908C22.6242 55.5219 22.5921 55.7682 22.4727 55.9756C20.9897 58.5497 19.6718 61.2155 18.5268 63.9567C18.4589 64.1204 18.3443 64.2605 18.1973 64.3596C18.0503 64.4586 17.8774 64.5122 17.7002 64.5136H17.7016ZM26.6826 48.9149C26.5151 48.9149 26.351 48.8682 26.2085 48.7802C26.0661 48.6922 25.951 48.5662 25.8761 48.4164C25.8012 48.2666 25.7695 48.099 25.7845 47.9322C25.7996 47.7654 25.8607 47.6061 25.9612 47.4721C27.8035 45.0458 29.7965 42.7377 31.9283 40.5615C32.0957 40.3906 32.3241 40.2933 32.5633 40.2909C32.8025 40.2884 33.0328 40.3811 33.2037 40.5485C33.3745 40.7159 33.4719 40.9443 33.4743 41.1835C33.4768 41.4227 33.3841 41.653 33.2167 41.8239C31.1379 43.9461 29.1946 46.1969 27.3982 48.5628C27.3138 48.6727 27.2052 48.7617 27.0808 48.8227C26.9565 48.8838 26.8197 48.9153 26.6811 48.9149H26.6826ZM39.279 36.0616C39.0913 36.0623 38.908 36.0044 38.7548 35.896C38.6016 35.7875 38.486 35.634 38.4242 35.4567C38.3625 35.2795 38.3575 35.0873 38.4101 34.9072C38.4628 34.727 38.5703 34.5677 38.7178 34.4515C41.1067 32.5619 43.6124 30.8248 46.22 29.2505C46.4249 29.1269 46.6705 29.0898 46.9028 29.1473C47.135 29.2048 47.3349 29.3522 47.4585 29.5571C47.5821 29.762 47.6193 30.0076 47.5618 30.2399C47.5043 30.4722 47.3569 30.6721 47.152 30.7957C44.6101 32.3308 42.1676 34.0245 39.8388 35.8669C39.6792 35.9935 39.4813 36.0622 39.2776 36.0616H39.279ZM54.6815 26.769C54.4736 26.7701 54.2716 26.6994 54.1098 26.5688C53.9479 26.4382 53.8361 26.2557 53.7932 26.0522C53.7503 25.8487 53.7789 25.6366 53.8743 25.4518C53.9696 25.267 54.1258 25.1207 54.3165 25.0378C57.1029 23.8082 59.9648 22.7577 62.8849 21.8926C62.9986 21.859 63.1178 21.8481 63.2356 21.8605C63.3535 21.8729 63.4678 21.9085 63.572 21.9651C63.6762 22.0217 63.7681 22.0982 63.8427 22.1904C63.9173 22.2826 63.973 22.3885 64.0066 22.5022C64.0402 22.6158 64.0511 22.735 64.0387 22.8529C64.0263 22.9708 63.9908 23.0851 63.9342 23.1893C63.8776 23.2934 63.801 23.3854 63.7088 23.46C63.6167 23.5346 63.5107 23.5903 63.3971 23.6239C60.5507 24.4672 57.7611 25.4912 55.0451 26.6897C54.9302 26.7409 54.8059 26.7674 54.6801 26.7676L54.6815 26.769Z" fill="#F47B20"/>
<path d="M81.4113 162.701H81.3882C78.3445 162.623 75.3087 162.352 72.2991 161.891C72.182 161.873 72.0696 161.832 71.9683 161.77C71.867 161.709 71.7788 161.628 71.7087 161.533C71.6387 161.437 71.5881 161.329 71.5599 161.214C71.5318 161.099 71.5265 160.979 71.5445 160.862C71.5625 160.745 71.6034 160.632 71.6648 160.531C71.7263 160.43 71.8071 160.342 71.9026 160.272C71.9981 160.202 72.1065 160.151 72.2216 160.123C72.3366 160.095 72.4561 160.089 72.5732 160.107C75.5097 160.558 78.4718 160.822 81.4416 160.898C81.681 160.901 81.9093 160.999 82.0763 161.171C82.2434 161.342 82.3356 161.573 82.3325 161.812C82.3294 162.051 82.2314 162.28 82.06 162.447C81.8886 162.614 81.6579 162.706 81.4185 162.703L81.4113 162.701ZM90.4211 162.365C90.1863 162.371 89.9587 162.284 89.7867 162.124C89.6147 161.964 89.5119 161.743 89.5003 161.509C89.4886 161.274 89.569 161.044 89.7243 160.868C89.8795 160.691 90.0975 160.583 90.3317 160.565C93.2869 160.266 96.2201 159.78 99.1136 159.109C99.3466 159.055 99.5916 159.096 99.7946 159.222C99.9977 159.349 100.142 159.55 100.196 159.784C100.25 160.017 100.21 160.262 100.083 160.465C99.9569 160.668 99.7549 160.812 99.5219 160.866C96.5533 161.555 93.5439 162.053 90.512 162.36C90.4818 162.363 90.4515 162.365 90.4211 162.365ZM63.6225 159.965C63.538 159.964 63.454 159.952 63.3729 159.929C60.4449 159.084 57.5739 158.053 54.7772 156.843C54.5575 156.747 54.3849 156.568 54.2972 156.345C54.2096 156.122 54.2141 155.873 54.3097 155.654C54.4054 155.434 54.5844 155.261 54.8073 155.174C55.0303 155.086 55.2789 155.091 55.4985 155.186C58.2243 156.366 61.0226 157.371 63.8764 158.194C64.0849 158.255 64.2645 158.389 64.3824 158.571C64.5002 158.754 64.5484 158.973 64.5181 159.188C64.4878 159.403 64.381 159.599 64.2173 159.742C64.0536 159.885 63.844 159.964 63.6268 159.965H63.6225Z" fill="#F47B20"/>
<path d="M153.945 85.309C153.72 85.3088 153.503 85.2245 153.337 85.0726C153.171 84.9207 153.068 84.7122 153.048 84.4881C152.781 81.5286 152.325 78.5891 151.685 75.6875C151.633 75.4539 151.676 75.2093 151.805 75.0076C151.934 74.8059 152.137 74.6636 152.371 74.6119C152.604 74.5602 152.849 74.6035 153.05 74.7322C153.252 74.8608 153.395 75.0643 153.446 75.2979C154.103 78.2728 154.57 81.2865 154.844 84.3207C154.855 84.4388 154.842 84.5578 154.807 84.6709C154.772 84.7841 154.714 84.8892 154.638 84.9802C154.562 85.0711 154.469 85.1463 154.364 85.2012C154.259 85.2561 154.144 85.2898 154.026 85.3003L153.945 85.309ZM150.059 67.7409C149.873 67.7406 149.692 67.6831 149.54 67.5762C149.388 67.4694 149.273 67.3183 149.21 67.1436C148.203 64.3501 147.018 61.6236 145.664 58.9807C145.555 58.7678 145.535 58.5202 145.608 58.2923C145.681 58.0645 145.842 57.8752 146.055 57.7659C146.268 57.6567 146.516 57.6365 146.743 57.7098C146.971 57.7831 147.161 57.944 147.27 58.1569C148.659 60.8661 149.874 63.661 150.908 66.5247C150.957 66.6609 150.973 66.807 150.954 66.9505C150.935 67.094 150.881 67.2308 150.798 67.3493C150.715 67.4678 150.604 67.5646 150.476 67.6315C150.348 67.6984 150.205 67.7335 150.06 67.7337L150.059 67.7409ZM141.854 51.7267C141.707 51.727 141.562 51.6914 141.432 51.623C141.302 51.5546 141.191 51.4555 141.108 51.3342C139.429 48.8844 137.598 46.5425 135.626 44.3226C135.467 44.1437 135.385 43.909 135.399 43.6701C135.413 43.4312 135.522 43.2077 135.701 43.0487C135.88 42.8897 136.114 42.8083 136.353 42.8223C136.592 42.8364 136.816 42.9448 136.975 43.1237C138.999 45.4007 140.878 47.8027 142.601 50.3157C142.694 50.4512 142.748 50.6093 142.757 50.7731C142.766 50.9369 142.731 51.1002 142.655 51.2454C142.578 51.3906 142.464 51.5123 142.323 51.5973C142.183 51.6824 142.022 51.7276 141.858 51.7281L141.854 51.7267ZM129.894 38.2761C129.676 38.2765 129.465 38.1975 129.301 38.054C127.063 36.1004 124.705 34.2896 122.24 32.6322C122.142 32.5659 122.057 32.4808 121.992 32.382C121.926 32.2831 121.881 32.1722 121.858 32.0558C121.836 31.9394 121.836 31.8197 121.86 31.7034C121.884 31.5872 121.93 31.4768 121.996 31.3785C122.063 31.2801 122.148 31.1958 122.246 31.1304C122.345 31.0649 122.456 31.0195 122.573 30.9969C122.689 30.9743 122.809 30.9748 122.925 30.9984C123.041 31.022 123.152 31.0683 123.25 31.1346C125.775 32.8328 128.19 34.6879 130.482 36.6891C130.623 36.8094 130.723 36.97 130.769 37.1492C130.816 37.3284 130.806 37.5174 130.741 37.6907C130.676 37.864 130.559 38.0132 130.407 38.1179C130.254 38.2226 130.073 38.2779 129.888 38.2761H129.894Z" fill="#F47B20"/>
<path d="M29.1153 90.8404C29.1153 60.9399 53.3531 36.7021 83.2536 36.7021C113.154 36.7021 137.392 60.9399 137.392 90.8404C137.392 120.741 113.154 144.979 83.2536 144.979C53.3531 144.979 29.1153 120.741 29.1153 90.8404Z" fill="#FBBF78"/>
<path d="M92.09 58.9303C98.4957 58.8957 103.726 54.8517 104.197 49.7272H104.166C102.29 49.4776 100.8 48.1589 100.498 46.4435L98.3081 33.9856H85.8762L83.6832 46.4392C83.3817 48.1532 81.8914 49.4689 80.0144 49.7229H79.9826C80.4544 54.8474 85.6843 58.8914 92.09 58.926" fill="#FDDAA5"/>
<path d="M92.0892 59.832C88.8055 59.8147 85.6734 58.7918 83.2669 56.9537C80.8244 55.0869 79.3398 52.5505 79.083 49.8094C79.0615 49.575 79.1324 49.3415 79.2807 49.1588C79.4289 48.976 79.6428 48.8584 79.8765 48.8312H79.8996C81.4 48.6321 82.5658 47.6092 82.798 46.2862L84.991 33.8326C85.0276 33.6236 85.1369 33.4342 85.2994 33.2978C85.462 33.1613 85.6675 33.0866 85.8797 33.0867H98.3073C98.5196 33.0866 98.725 33.1613 98.8876 33.2978C99.0502 33.4342 99.1594 33.6236 99.1961 33.8326L101.389 46.2862C101.621 47.6092 102.787 48.6321 104.287 48.8312H104.313C104.546 48.8588 104.759 48.9767 104.906 49.1597C105.053 49.3427 105.122 49.576 105.098 49.8094C104.846 52.5505 103.367 55.0869 100.914 56.9537C98.5079 58.7918 95.3757 59.8147 92.0921 59.832H92.0892ZM80.9946 50.4326C81.8732 54.7204 86.565 57.9954 92.0877 58.0271C97.6105 57.9954 102.302 54.7204 103.179 50.4326C101.32 49.8829 99.929 48.4229 99.6072 46.595L97.5456 34.8873H86.6285L84.5668 46.595C84.248 48.4229 82.8572 49.8844 80.9946 50.4326Z" fill="#F47B20"/>
<path d="M119.575 77.1501V64.1121C119.575 59.556 117.123 55.4082 113.239 52.8993C112.07 52.152 110.804 51.5695 109.476 51.168L104.197 49.7253C103.725 54.8498 98.4955 58.8953 92.0898 58.9284C85.6841 58.8953 80.4542 54.8498 79.9824 49.7253L74.7035 51.168C73.3757 51.5694 72.1095 52.152 70.9408 52.8993C67.0556 55.4067 64.6044 59.556 64.6044 64.1121V77.1501" fill="#FEEFD2"/>
<path d="M119.575 78.0522C119.336 78.0522 119.107 77.9572 118.938 77.7881C118.768 77.619 118.673 77.3897 118.673 77.1505V64.1126C118.673 59.9619 116.459 56.0535 112.75 53.6586C111.655 52.9575 110.47 52.4099 109.226 52.0312L104.936 50.8626C104.442 53.1955 103.041 55.335 100.916 56.9538C98.5099 58.7918 95.3777 59.8147 92.0941 59.832C88.8018 59.8147 85.6682 58.7933 83.2617 56.9538C81.1351 55.3293 79.7357 53.2027 79.2423 50.8626L74.9516 52.0312C73.7072 52.4106 72.5208 52.9592 71.4256 53.6615C67.7192 56.0535 65.5104 59.9619 65.5104 64.114V77.1519C65.5104 77.3913 65.4153 77.6208 65.2461 77.7901C65.0769 77.9593 64.8473 78.0544 64.608 78.0544C64.3687 78.0544 64.1391 77.9593 63.9699 77.7901C63.8006 77.6208 63.7056 77.3913 63.7056 77.1519V64.1126C63.7056 59.3516 66.2289 54.8705 70.4546 52.138C71.6938 51.3433 73.0367 50.7234 74.4452 50.2956H74.4697L79.7487 48.8529C79.8757 48.8182 80.0089 48.8118 80.1387 48.834C80.2685 48.8563 80.3919 48.9068 80.5001 48.9819C80.6084 49.057 80.6988 49.1549 80.7652 49.2687C80.8315 49.3825 80.8721 49.5094 80.8841 49.6406C81.3169 54.3107 86.2395 57.9925 92.0984 58.0243C97.9472 57.994 102.873 54.3107 103.303 49.6406C103.315 49.5094 103.355 49.3825 103.422 49.2687C103.488 49.1549 103.578 49.057 103.687 48.9819C103.795 48.9068 103.918 48.8563 104.048 48.834C104.178 48.8118 104.311 48.8182 104.438 48.8529L109.717 50.2956H109.741C111.149 50.7227 112.491 51.3417 113.729 52.1351C117.959 54.8662 120.483 59.34 120.483 64.1097V77.1476C120.483 77.2668 120.46 77.3848 120.414 77.4949C120.369 77.605 120.302 77.705 120.217 77.7891C120.133 77.8733 120.033 77.9398 119.923 77.985C119.812 78.0301 119.694 78.053 119.575 78.0522Z" fill="#F47B20"/>
<path d="M107.507 77.1507V67.6373L113.24 52.9013C112.07 52.1548 110.803 51.5722 109.475 51.17C109.475 51.17 104.168 64.9769 104.168 64.9769H80.0129C80.0129 64.9769 74.7065 51.1773 74.7065 51.17C73.3776 51.5722 72.1101 52.1547 70.9396 52.9013L76.6672 67.6373V77.1507" fill="#F8A556"/>
<path d="M107.508 78.052C107.269 78.052 107.039 77.957 106.87 77.7879C106.701 77.6188 106.606 77.3895 106.606 77.1503V67.637C106.606 67.525 106.626 67.414 106.667 67.3095L112.126 53.2804C111.448 52.8942 110.74 52.5641 110.008 52.2936C109.883 52.6225 109.72 53.0611 109.489 53.6469L105.016 65.294C104.95 65.464 104.835 65.6101 104.684 65.7131C104.534 65.8161 104.356 65.8712 104.174 65.8711H80.0138C79.8315 65.8714 79.6534 65.8164 79.503 65.7133C79.3526 65.6103 79.2369 65.4641 79.1713 65.294L74.6988 53.6469C74.4738 53.0611 74.305 52.624 74.1795 52.2936C73.4443 52.5636 72.7325 52.8937 72.0514 53.2804L77.5093 67.3109C77.5501 67.4153 77.5712 67.5264 77.5713 67.6384V77.1518C77.5713 77.3911 77.4762 77.6206 77.307 77.7899C77.1378 77.9591 76.9082 78.0542 76.6689 78.0542C76.4295 78.0542 76.2 77.9591 76.0308 77.7899C75.8615 77.6206 75.7664 77.3911 75.7664 77.1518V67.8058L70.0951 53.227C70.0196 53.0328 70.0138 52.8185 70.0785 52.6205C70.1432 52.4224 70.2744 52.2529 70.45 52.1407C71.6894 51.3477 73.0316 50.7283 74.4391 50.2998C74.6599 50.2322 74.8981 50.2518 75.1047 50.3546C75.3114 50.4574 75.4708 50.6355 75.55 50.8523C75.6496 51.1149 78.7904 59.2865 80.6284 64.0663H103.545C105.381 59.2894 108.522 51.1236 108.623 50.8523C108.702 50.6355 108.862 50.4572 109.068 50.3542C109.275 50.2512 109.513 50.2312 109.734 50.2983C111.142 50.7268 112.484 51.3462 113.723 52.1392C113.898 52.2516 114.03 52.4212 114.094 52.6191C114.159 52.8171 114.153 53.0314 114.078 53.2256L108.408 67.8058V77.1503C108.408 77.3892 108.313 77.6184 108.145 77.7874C107.976 77.9565 107.747 78.0517 107.508 78.052Z" fill="#F47B20"/>
<path d="M84.6951 43.7588C84.6951 43.7588 91.0849 51.1268 99.4845 43.7588L99.9663 43.1615C101.266 41.5334 102.094 39.5804 102.361 37.5146C102.361 37.5146 103.644 37.5276 103.831 36.2393C104.408 32.305 104.82 32.1347 104.82 30.4063C104.82 28.6779 104.243 28.2682 103.541 28.7155C103.761 27.8486 103.88 26.9593 103.896 26.0652C104.136 16.7798 98.5957 10.6799 92.089 10.6799C85.5621 10.6799 80.0697 17.8171 80.2818 26.0695C80.2981 26.9636 80.4172 27.8529 80.6367 28.7198C79.9384 28.2725 79.3584 28.6837 79.3584 30.4107C79.3584 32.1376 79.7739 32.3093 80.3467 36.2436C80.5342 37.5305 81.8168 37.519 81.8168 37.519C82.0841 39.5847 82.9125 41.5377 84.2118 43.1658L84.6951 43.7588Z" fill="#FDDAA5"/>
<path d="M91.9251 47.9421C91.703 47.9421 91.4803 47.9344 91.2572 47.919C86.8929 47.6204 84.1301 44.4896 84.0132 44.3555L83.993 44.3309L83.5112 43.7337C82.244 42.1521 81.3907 40.2798 81.0282 38.2859C80.609 38.1541 80.2372 37.9031 79.958 37.5637C79.6788 37.2243 79.5042 36.8111 79.4557 36.3743C79.1859 34.5204 78.9507 33.522 78.7805 32.7935C78.5857 31.9624 78.4573 31.4128 78.4573 30.4115C78.4573 29.0438 78.7877 28.1984 79.4672 27.8247L79.5278 27.793C79.4444 27.23 79.3963 26.6624 79.3835 26.0934C79.2609 21.3007 81.0196 16.5585 84.0911 13.4075C86.3721 11.0674 89.2143 9.77765 92.094 9.77765C95.1799 9.77765 98.1274 11.0588 100.394 13.3845C103.369 16.4373 104.936 20.9501 104.803 26.0934C104.79 26.6624 104.742 27.23 104.659 27.793L104.719 27.8247C105.4 28.1969 105.729 29.0424 105.729 30.4115C105.729 31.4128 105.601 31.9625 105.406 32.7949C105.236 33.5235 105.002 34.5262 104.731 36.3743C104.682 36.811 104.507 37.2242 104.228 37.5636C103.949 37.9029 103.577 38.1539 103.158 38.2859C102.795 40.2799 101.941 42.1521 100.674 43.7337L100.183 44.3353C100.151 44.3753 100.115 44.4124 100.077 44.4464C97.4306 46.7634 94.6894 47.9421 91.9251 47.9421ZM85.3853 43.1811C86.4763 44.3155 87.8184 45.1779 89.3037 45.6986C92.4489 46.7648 95.6517 45.9035 98.8329 43.1378L99.2657 42.6026C100.461 41.1055 101.224 39.309 101.469 37.4087C101.49 37.1884 101.595 36.9845 101.762 36.8391C101.929 36.6936 102.145 36.6176 102.366 36.6268C102.509 36.6367 102.65 36.5894 102.759 36.4952C102.867 36.4011 102.933 36.2678 102.943 36.1247C103.232 34.1958 103.468 33.1541 103.647 32.3938C103.831 31.609 103.923 31.2151 103.923 30.4216C103.929 30.1398 103.904 29.8581 103.848 29.5819C103.693 29.637 103.527 29.6488 103.366 29.6161C103.205 29.5834 103.056 29.5075 102.935 29.3964C102.814 29.2854 102.726 29.1435 102.68 28.986C102.634 28.8286 102.632 28.6615 102.673 28.5028C102.875 27.7032 102.984 26.8832 103 26.0588C103.119 21.406 101.734 17.3563 99.1042 14.6613C97.1796 12.6876 94.6908 11.5998 92.0954 11.5998C89.7077 11.5998 87.3243 12.6948 85.3853 14.6844C82.6441 17.4933 81.0787 21.7537 81.1898 26.0646C81.205 26.889 81.3144 27.709 81.5159 28.5086C81.5577 28.6672 81.5554 28.8343 81.5092 28.9918C81.4631 29.1493 81.3749 29.2912 81.254 29.4022C81.1332 29.5132 80.9844 29.5892 80.8236 29.6219C80.6628 29.6546 80.4961 29.6428 80.3415 29.5877C80.285 29.8639 80.2598 30.1456 80.2665 30.4274C80.2665 31.2194 80.3588 31.6133 80.542 32.3982C80.7195 33.1585 80.9648 34.2001 81.2461 36.1305C81.2579 36.2713 81.3236 36.4021 81.4295 36.4957C81.5354 36.5892 81.6733 36.6382 81.8145 36.6326H81.8232C82.0417 36.6324 82.2529 36.7116 82.4174 36.8554C82.582 36.9992 82.6886 37.1979 82.7177 37.4145C82.9623 39.3147 83.7238 41.1112 84.9193 42.6083L85.3853 43.1811Z" fill="#F47B20"/>
<path d="M80.8305 21.7353V20.1916C80.8305 16.5848 83.6496 10.7331 87.8782 10.2224C88.2981 10.1719 95.4324 10.2224 95.7555 10.2137C100.25 10.1849 103.025 16.038 103.34 20.6013C103.401 21.004 103.497 21.4004 103.628 21.7858C109.746 22.7178 113.547 22.588 113.547 24.4924C113.547 27.4153 103.942 29.7857 92.0925 29.7857C80.2433 29.7857 70.6377 27.4153 70.6377 24.4924C70.6377 22.588 74.7163 22.6688 80.832 21.7368" fill="#FEEFD2"/>
<path d="M92.0907 30.686C86.2895 30.686 80.8259 30.1262 76.7041 29.1091C72.0787 27.9679 69.7343 26.4141 69.7343 24.4924C69.7343 22.8232 71.4857 22.3124 72.0614 22.1436C73.2156 21.8075 74.7867 21.6142 76.7791 21.3689C77.7356 21.2506 78.7989 21.1207 79.9286 20.9577V20.1931C79.9286 18.1617 80.7235 15.624 82.0032 13.571C83.5455 11.0967 85.5941 9.59049 87.7741 9.32791C88.0165 9.29905 89.2904 9.28607 94.8839 9.30915H95.7495H95.787C98.1127 9.30915 100.274 10.6884 101.875 13.2045C103.174 15.2489 104.064 17.9929 104.24 20.5422C104.259 20.6885 104.288 20.8331 104.328 20.975C105.55 21.1525 106.675 21.2895 107.685 21.4079C109.611 21.643 111.133 21.8291 112.228 22.1566C113.7 22.5981 114.446 23.3801 114.446 24.4837C114.446 26.4069 112.101 27.9607 107.476 29.1005C103.358 30.1262 97.8919 30.686 92.0907 30.686ZM87.9775 11.1198C85.7918 11.3881 84.2567 13.3675 83.5354 14.5261C82.4403 16.2818 81.7334 18.5051 81.7334 20.1931V21.7368C81.7334 21.9525 81.6562 22.161 81.5156 22.3246C81.3751 22.4882 81.1806 22.596 80.9673 22.6284C79.5246 22.8491 78.1814 23.0136 76.9998 23.1593C74.5674 23.4594 71.5391 23.8316 71.5391 24.4924C71.5391 25.2138 73.2906 26.4098 77.1369 27.3591C81.1203 28.3416 86.4309 28.8826 92.0907 28.8826C97.7506 28.8826 103.055 28.3416 107.046 27.3591C110.892 26.4098 112.644 25.208 112.644 24.4924C112.644 23.8403 110.014 23.5186 107.469 23.2084C106.291 23.0641 104.958 22.9025 103.491 22.6775C103.326 22.6525 103.172 22.5824 103.044 22.475C102.917 22.3675 102.822 22.2268 102.77 22.0686C102.614 21.6123 102.504 21.1416 102.442 20.6634C102.165 16.6541 99.7011 11.1183 95.7899 11.1183H95.7336H94.868C93.281 11.1053 88.4507 11.0851 87.9775 11.1198Z" fill="#F47B20"/>
<path d="M80.8311 21.7385C92.0843 25.9397 103.626 21.7876 103.626 21.7876L80.8311 21.7385Z" fill="#F8A556"/>
<path d="M91.8623 24.5168C88.4574 24.5168 84.4741 24.0623 80.5152 22.585C80.291 22.5013 80.1092 22.3321 80.0097 22.1144C79.9103 21.8968 79.9014 21.6485 79.985 21.4243C80.0686 21.2001 80.2379 21.0182 80.4555 20.9188C80.6732 20.8194 80.9215 20.8105 81.1457 20.8941C91.9661 24.9337 103.206 20.9792 103.319 20.9388C103.43 20.8984 103.549 20.8803 103.667 20.8856C103.786 20.8909 103.902 20.9194 104.01 20.9697C104.117 21.0199 104.213 21.0908 104.294 21.1784C104.374 21.2659 104.436 21.3683 104.476 21.4798C104.516 21.5913 104.535 21.7097 104.529 21.8282C104.524 21.9467 104.495 22.063 104.445 22.1704C104.395 22.2779 104.324 22.3743 104.236 22.4544C104.149 22.5344 104.046 22.5964 103.935 22.6369C103.814 22.6802 100.905 23.7161 96.5612 24.2354C95.0018 24.4221 93.4328 24.516 91.8623 24.5168Z" fill="#F47B20"/>
<path d="M99.3158 78.052C99.0766 78.052 98.8473 77.957 98.6782 77.7879C98.5091 77.6187 98.4141 77.3894 98.4141 77.1502V72.2652H85.7642V77.1502C85.7642 77.3896 85.6692 77.6191 85.4999 77.7884C85.3307 77.9576 85.1012 78.0527 84.8618 78.0527C84.6225 78.0527 84.393 77.9576 84.2237 77.7884C84.0545 77.6191 83.9594 77.3896 83.9594 77.1502V71.362C83.9594 71.1229 84.0544 70.8935 84.2235 70.7244C84.3926 70.5553 84.622 70.4603 84.8611 70.4603H99.3158C99.5549 70.4603 99.7843 70.5553 99.9534 70.7244C100.122 70.8935 100.217 71.1229 100.217 71.362V77.1502C100.217 77.3894 100.122 77.6187 99.9534 77.7879C99.7843 77.957 99.5549 78.052 99.3158 78.052Z" fill="#F47B20"/>
<path d="M68.4299 42.0519L62.0054 40.6842L58.0437 59.2882" fill="#FDDAA5"/>
<path d="M58.0475 60.1913C57.913 60.1912 57.7802 60.1611 57.6589 60.1032C57.5375 60.0452 57.4306 59.9609 57.346 59.8564C57.2614 59.7519 57.2012 59.6298 57.1698 59.499C57.1384 59.3683 57.1366 59.2322 57.1645 59.1006L61.1263 40.4894C61.1764 40.2556 61.3173 40.0512 61.518 39.9211C61.7187 39.791 61.9628 39.7458 62.1967 39.7955L68.6212 41.1632C68.7371 41.1878 68.8469 41.235 68.9446 41.3021C69.0422 41.3692 69.1256 41.4549 69.1901 41.5542C69.2546 41.6535 69.2989 41.7646 69.3205 41.8811C69.3421 41.9975 69.3405 42.1171 69.3159 42.233C69.2913 42.3488 69.244 42.4587 69.177 42.5563C69.1099 42.6539 69.0242 42.7374 68.9249 42.8019C68.8255 42.8664 68.7145 42.9107 68.598 42.9323C68.4815 42.9538 68.362 42.9523 68.2461 42.9276L62.7046 41.7475L58.9218 59.4772C58.8788 59.6778 58.7689 59.8579 58.61 59.9877C58.451 60.1175 58.2526 60.1893 58.0475 60.1913Z" fill="#F47B20"/>
<path d="M50.4441 75.673L67.6991 85.9856L89.2 50.0069L70.3941 38.7666L55.4561 63.7647" fill="#F8A556"/>
<path d="M67.6993 86.8873C67.5361 86.8872 67.3761 86.8428 67.2362 86.7589L49.9754 76.4477C49.8736 76.3869 49.7849 76.3067 49.7142 76.2115C49.6434 76.1164 49.5921 76.0083 49.5632 75.8933C49.5343 75.7784 49.5282 75.6589 49.5455 75.5416C49.5628 75.4243 49.6029 75.3116 49.6638 75.2099C49.7246 75.1081 49.8048 75.0194 49.9 74.9486C49.9951 74.8779 50.1032 74.8266 50.2182 74.7977C50.3331 74.7687 50.4526 74.7627 50.5699 74.78C50.6872 74.7972 50.7999 74.8374 50.9016 74.8983L67.3819 84.7477L87.9624 50.3185L70.7059 40.0074L56.231 64.2307C56.1702 64.3325 56.09 64.4212 55.9948 64.492C55.8997 64.5627 55.7916 64.614 55.6767 64.6429C55.5617 64.6718 55.4422 64.6779 55.3249 64.6606C55.2076 64.6434 55.0949 64.6032 54.9932 64.5424C54.8915 64.4815 54.8027 64.4013 54.732 64.3062C54.6612 64.211 54.6099 64.1029 54.581 63.988C54.5521 63.873 54.5461 63.7535 54.5633 63.6362C54.5806 63.519 54.6207 63.4062 54.6816 63.3045L69.6195 38.3049C69.6803 38.2031 69.7605 38.1143 69.8556 38.0435C69.9507 37.9727 70.0588 37.9213 70.1738 37.8924C70.2888 37.8635 70.4084 37.8575 70.5257 37.8748C70.643 37.8921 70.7557 37.9324 70.8574 37.9933L89.6633 49.2322C89.7652 49.2929 89.854 49.3731 89.9248 49.4682C89.9956 49.5633 90.0469 49.6715 90.0759 49.7865C90.1048 49.9014 90.1108 50.021 90.0935 50.1383C90.0762 50.2556 90.0359 50.3683 89.975 50.47L68.4783 86.4487C68.3975 86.5815 68.2837 86.6912 68.1479 86.767C68.0121 86.8429 67.8591 86.8823 67.7036 86.8815L67.6993 86.8873Z" fill="#F47B20"/>
<path d="M56.7071 71.9638C57.046 73.0809 56.9347 74.2863 56.3969 75.3225H56.3853L63.4547 79.5453L63.5687 79.6131C64.1613 78.7465 65.0394 78.1153 66.0497 77.8298C67.0601 77.5443 68.1386 77.6224 69.0972 78.0507L69.2415 77.8472L83.0397 54.7636L82.9373 54.9353C82.0995 54.295 81.5142 53.3799 81.2844 52.3508C81.0546 51.3217 81.1949 50.2446 81.6807 49.3087L81.5811 49.251L74.5118 45.0267C73.9252 45.8851 73.0583 46.5129 72.0597 46.8025C71.0611 47.092 69.9929 47.0252 69.0381 46.6137L69.015 46.6685L61.5662 59.1336" fill="#FDDAA5"/>
<path d="M63.5629 80.5078C63.4015 80.5079 63.243 80.4645 63.1041 80.3823L62.9901 80.3145L55.9539 76.1089L55.915 76.0858C55.714 75.9584 55.5711 75.757 55.5171 75.5252C55.4631 75.2934 55.5024 75.0497 55.6264 74.8465L55.6452 74.8177C56.0387 74.0088 56.1108 73.0808 55.8472 72.2208C55.8129 72.1071 55.8013 71.9878 55.8131 71.8696C55.825 71.7515 55.8599 71.6368 55.9161 71.5322C55.9722 71.4276 56.0484 71.335 56.1403 71.2598C56.2322 71.1846 56.338 71.1283 56.4517 71.094C56.5654 71.0597 56.6847 71.0481 56.8028 71.06C56.921 71.0718 57.0356 71.1068 57.1403 71.1629C57.2449 71.219 57.3374 71.2952 57.4126 71.3871C57.4878 71.479 57.5441 71.5848 57.5784 71.6985C57.9019 72.7585 57.8883 73.8927 57.5395 74.9446L63.3623 78.4259C64.0357 77.7133 64.8912 77.1985 65.8363 76.9373C66.7813 76.6762 67.7797 76.6785 68.7235 76.9443L81.7744 55.0985C81.0926 54.3937 80.6171 53.5155 80.3993 52.5594C80.1816 51.6033 80.2301 50.6058 80.5394 49.6753L74.7151 46.194C74.0511 46.8939 73.2114 47.4028 72.2836 47.6675C71.3558 47.9322 70.3739 47.943 69.4405 47.6988L62.3351 59.5883C62.2743 59.69 62.194 59.7788 62.0989 59.8495C62.0038 59.9202 61.8957 59.9715 61.7807 60.0004C61.6658 60.0294 61.5463 60.0354 61.429 60.0181C61.3117 60.0009 61.199 59.9607 61.0972 59.8999C60.9955 59.8391 60.9067 59.7588 60.836 59.6637C60.7653 59.5686 60.714 59.4604 60.6851 59.3455C60.6561 59.2306 60.6501 59.111 60.6674 58.9938C60.6846 58.8765 60.7248 58.7638 60.7856 58.662L68.2041 46.2546C68.2509 46.1455 68.3188 46.0467 68.4039 45.9639C68.4889 45.8811 68.5895 45.816 68.6998 45.7721C68.8101 45.7283 68.928 45.7067 69.0467 45.7085C69.1654 45.7103 69.2826 45.7356 69.3915 45.7828C70.1537 46.1116 71.0066 46.1651 71.8039 45.934C72.6012 45.7029 73.2933 45.2016 73.7615 44.5161C73.8909 44.3257 74.0882 44.192 74.313 44.1424C74.5377 44.0927 74.773 44.131 74.9705 44.2492L82.1308 48.5197C82.3299 48.6367 82.4766 48.8257 82.5405 49.0477C82.6044 49.2697 82.5806 49.5078 82.4741 49.7128C82.1277 50.3775 81.9994 51.1345 82.1077 51.8763C82.216 52.618 82.5552 53.3068 83.0772 53.8448C83.2327 53.8525 83.3835 53.9003 83.5151 53.9836C83.6466 54.0668 83.7545 54.1826 83.8281 54.3198C83.9017 54.457 83.9386 54.6109 83.9352 54.7665C83.9317 54.9222 83.8882 55.0743 83.8086 55.2081L83.7062 55.3798L83.6961 55.3971L70.0104 78.299C69.9989 78.3182 69.9869 78.337 69.9743 78.3552L69.8301 78.5587C69.7096 78.7303 69.5331 78.8547 69.3308 78.9102C69.1286 78.9658 68.9133 78.9491 68.7221 78.8631C67.957 78.5195 67.0955 78.4562 66.2885 78.6844C65.4815 78.9126 64.7806 79.4177 64.3088 80.111C64.2263 80.233 64.1152 80.333 63.9852 80.4022C63.8551 80.4713 63.7102 80.5076 63.5629 80.5078Z" fill="#F47B20"/>
<path d="M63.4648 65.3996C64.1234 66.5324 65.1118 67.4373 66.2982 67.9936C67.4846 68.5498 68.8124 68.731 70.1044 68.5129C71.3964 68.2948 72.5912 67.6878 73.5292 66.7729C74.4672 65.858 75.1038 64.6788 75.3541 63.3926C75.6044 62.1064 75.4564 60.7745 74.9299 59.5746C74.4034 58.3748 73.5235 57.364 72.4075 56.6774C71.2916 55.9907 69.9927 55.6607 68.6843 55.7315C67.3759 55.8023 66.1203 56.2706 65.0849 57.0737" fill="#F8A556"/>
<path d="M69.0207 69.5055C67.7371 69.5041 66.4763 69.166 65.3642 68.525C64.2521 67.884 63.3275 66.9625 62.6828 65.8526C62.5628 65.6456 62.53 65.3994 62.5916 65.1682C62.6531 64.937 62.804 64.7397 63.011 64.6197C63.218 64.4998 63.4642 64.467 63.6954 64.5285C63.9266 64.5901 64.1239 64.741 64.2438 64.948C64.8104 65.9221 65.6605 66.7002 66.6809 67.1784C67.7012 67.6567 68.8431 67.8124 69.9543 67.6247C71.0654 67.4369 72.0928 66.9148 72.8994 66.1278C73.706 65.3409 74.2533 64.3267 74.4684 63.2205C74.6835 62.1144 74.556 60.969 74.1031 59.9371C73.6501 58.9053 72.8932 58.0362 71.9334 57.4458C70.9736 56.8554 69.8565 56.5719 68.7313 56.6329C67.6061 56.694 66.5263 57.0969 65.6361 57.7877C65.5425 57.8604 65.4355 57.9139 65.3212 57.9452C65.2069 57.9765 65.0876 57.985 64.9701 57.9702C64.8525 57.9554 64.739 57.9176 64.6361 57.8589C64.5331 57.8003 64.4427 57.7219 64.3701 57.6283C64.2974 57.5347 64.2439 57.4277 64.2126 57.3134C64.1813 57.1992 64.1728 57.0799 64.1876 56.9623C64.2024 56.8447 64.2402 56.7312 64.2989 56.6283C64.3575 56.5253 64.4359 56.435 64.5295 56.3623C65.453 55.645 66.5345 55.1587 67.684 54.9437C68.8334 54.7288 70.0176 54.7914 71.1379 55.1265C72.2582 55.4615 73.2824 56.0593 74.1251 56.87C74.9678 57.6807 75.6047 58.681 75.9828 59.7875C76.3609 60.8941 76.4693 62.0749 76.299 63.2318C76.1287 64.3887 75.6845 65.4882 75.0035 66.4388C74.3224 67.3894 73.4243 68.1636 72.3836 68.697C71.343 69.2304 70.1901 69.5076 69.0207 69.5055Z" fill="#F47B20"/>
<path d="M44.976 79.1788L56.8713 71.5554L67.1622 61.9454C67.6916 61.4528 68.0113 60.7755 68.0552 60.0537C68.0991 59.3319 67.8637 58.6208 67.3979 58.0677C66.9321 57.5146 66.2715 57.1618 65.5527 57.0822C64.834 57.0026 64.1122 57.2025 63.5367 57.6403L54.9135 64.1787L55.5065 59.2417L58.4943 57.1758L60.2184 49.0965L52.7162 52.6168C51.6836 53.0928 50.8198 53.8711 50.2391 54.8486L42.5666 67.7726L38.9238 70.5239" fill="#FDDAA5"/>
<path d="M44.9794 80.0805C44.7843 80.0805 44.5944 80.0173 44.4384 79.9002C44.2823 79.7831 44.1684 79.6186 44.1137 79.4313C44.0591 79.244 44.0667 79.0441 44.1354 78.8614C44.2041 78.6788 44.3301 78.5234 44.4946 78.4185L56.325 70.8399L66.5568 61.2862C66.9196 60.9522 67.1396 60.491 67.1709 59.9989C67.2021 59.5067 67.0422 59.0215 66.7245 58.6443C66.4069 58.2671 65.9559 58.027 65.4656 57.9741C64.9752 57.9212 64.4834 58.0596 64.0926 58.3603L55.4593 64.8973C55.3183 65.0052 55.1485 65.069 54.9713 65.0808C54.7941 65.0926 54.6173 65.0518 54.4632 64.9635C54.3091 64.8752 54.1845 64.7433 54.1051 64.5845C54.0256 64.4256 53.9949 64.2469 54.0166 64.0706L54.6096 59.1336C54.6247 59.0068 54.6666 58.8846 54.7325 58.7751C54.7984 58.6657 54.8868 58.5715 54.9919 58.4988L57.6855 56.6377L58.9522 50.6908L53.1005 53.432C52.2309 53.8305 51.5036 54.4848 51.0157 55.3075L43.3404 68.2387C43.2806 68.3395 43.2017 68.4277 43.1082 68.4983L39.4653 71.2496C39.3706 71.3211 39.2627 71.3731 39.1478 71.4029C39.033 71.4326 38.9134 71.4394 38.7959 71.4229C38.6784 71.4065 38.5653 71.367 38.4631 71.3068C38.3608 71.2466 38.2714 71.1669 38.2 71.0722C38.1286 70.9774 38.0765 70.8696 38.0468 70.7547C38.017 70.6399 38.0102 70.5203 38.0267 70.4028C38.0432 70.2853 38.0826 70.1722 38.1428 70.07C38.203 69.9677 38.2827 69.8783 38.3775 69.8069L41.879 67.1624L49.4605 54.3914C50.1319 53.2535 51.1345 52.3475 52.3344 51.7945L59.825 48.2771C59.9776 48.2048 60.1473 48.1767 60.315 48.1961C60.4827 48.2155 60.6415 48.2816 60.7735 48.3868C60.9055 48.492 61.0053 48.6322 61.0616 48.7913C61.1178 48.9505 61.1283 49.1222 61.0917 49.287L59.372 57.3663C59.324 57.5912 59.1919 57.7894 59.0027 57.9203L56.3495 59.754L56.061 62.1763L62.986 56.9234C63.7458 56.3458 64.6984 56.0824 65.6469 56.1876C66.5954 56.2928 67.4672 56.7586 68.0819 57.4886C68.6966 58.2185 69.0072 59.1568 68.9494 60.1094C68.8917 61.062 68.47 61.9559 67.7716 62.6063L57.4806 72.2163C57.4409 72.2532 57.3979 72.2865 57.3522 72.3158L45.4569 79.9392C45.3143 80.0304 45.1487 80.0794 44.9794 80.0805Z" fill="#F47B20"/>
<path d="M37.6673 69.6159L32.8571 72.9596L40.8043 84.3924L45.6145 81.0488L37.6673 69.6159Z" fill="#FEEFD2"/>
<path d="M41.126 84.8028C40.9807 84.8029 40.8375 84.768 40.7087 84.7009C40.5798 84.6338 40.4691 84.5366 40.3858 84.4176L32.3931 72.9941C32.3251 72.897 32.2769 72.7874 32.2513 72.6717C32.2257 72.556 32.2231 72.4364 32.2437 72.3197C32.2644 72.203 32.3078 72.0915 32.3716 71.9916C32.4353 71.8917 32.5182 71.8053 32.6153 71.7374L37.4268 68.3744C37.5239 68.3064 37.6334 68.2582 37.7491 68.2326C37.8648 68.207 37.9845 68.2044 38.1012 68.225C38.2179 68.2456 38.3294 68.2891 38.4293 68.3529C38.5292 68.4166 38.6156 68.4994 38.6834 68.5966L46.6761 80.0201C46.7441 80.1172 46.7923 80.2267 46.818 80.3424C46.8436 80.4581 46.8462 80.5778 46.8256 80.6945C46.8049 80.8112 46.7615 80.9227 46.6977 81.0226C46.6339 81.1225 46.5511 81.2089 46.454 81.2767L41.6482 84.6397C41.4953 84.747 41.3128 84.804 41.126 84.8028ZM34.3884 72.6983L41.3467 82.643L44.6736 80.3144L37.7154 70.3712L34.3884 72.6983Z" fill="#F47B20"/>
<path d="M111.922 98.7538C111.672 98.3965 111.332 98.1117 110.936 97.9285C110.54 97.7453 110.103 97.6701 109.669 97.7107C108.106 97.8117 106.449 100.612 106.449 100.612L98.72 118.369L103.357 125.793L110.312 127.507L116.109 123.51L111.922 98.7538Z" fill="#FDDAA5"/>
<path d="M110.309 128.412C110.237 128.412 110.164 128.403 110.093 128.386L103.138 126.672C102.91 126.616 102.713 126.473 102.588 126.274L97.9511 118.849C97.8736 118.725 97.8274 118.584 97.8166 118.438C97.8058 118.292 97.8307 118.146 97.8891 118.011L105.618 100.254C105.632 100.22 105.649 100.187 105.668 100.155C105.986 99.6179 107.666 96.9374 109.607 96.8118C111.272 96.7065 112.329 97.689 112.691 98.2878C112.75 98.3847 112.79 98.4919 112.81 98.6037L116.994 123.361C117.022 123.53 117.002 123.704 116.935 123.863C116.868 124.021 116.757 124.157 116.616 124.254L110.819 128.252C110.669 128.355 110.492 128.411 110.309 128.412ZM103.925 125.007L110.129 126.536L115.118 123.095L111.064 99.1202C110.895 98.9371 110.686 98.7959 110.452 98.7078C110.219 98.6196 109.969 98.587 109.721 98.6124C109.288 98.6398 108.21 99.4261 107.247 101.027L99.73 118.297L103.925 125.007Z" fill="#F47B20"/>
<path d="M149.857 99.8951C150.107 99.5377 150.447 99.2529 150.843 99.0697C151.239 98.8865 151.676 98.8114 152.11 98.852C153.673 98.953 155.33 101.753 155.33 101.753L163.059 119.512L158.422 126.936L151.467 128.65L145.67 124.652L149.857 99.8951Z" fill="#FDDAA5"/>
<path d="M151.468 129.555C151.285 129.554 151.107 129.499 150.956 129.394L145.159 125.397C145.018 125.299 144.907 125.163 144.84 125.005C144.773 124.847 144.753 124.673 144.781 124.504L148.965 99.7464C148.984 99.6346 149.024 99.5274 149.083 99.4305C149.446 98.8317 150.504 97.8435 152.168 97.9545C153.068 98.0123 154.018 98.6182 154.991 99.7565C155.403 100.24 155.776 100.755 156.107 101.297C156.125 101.329 156.142 101.363 156.157 101.397L163.886 119.155C163.944 119.29 163.969 119.436 163.958 119.582C163.947 119.728 163.901 119.869 163.824 119.994L159.193 127.416C159.068 127.616 158.871 127.758 158.643 127.815L151.69 129.529C151.618 129.546 151.543 129.555 151.468 129.555ZM146.657 124.238L151.646 127.679L157.849 126.15L162.041 119.438L154.524 102.169C153.947 101.205 152.775 99.7998 152.05 99.7536C151.802 99.7289 151.552 99.7618 151.319 99.8496C151.086 99.9375 150.876 100.078 150.706 100.26L146.657 124.238Z" fill="#F47B20"/>
<path d="M147.066 117.441C146.127 118.236 143.338 120.979 142.796 122.29C142.186 123.756 141.712 125.283 140.296 124.954C138.879 124.625 139.017 122.29 138.948 120.758C138.879 119.226 138.406 118.766 136.718 117.368C135.03 115.97 137.058 115.704 135.975 113.838C134.891 111.971 134.759 111.976 133.209 112.18C131.66 112.383 131.993 112.646 130.166 111.192C128.34 109.737 129.221 109.716 128.95 107.251C128.679 104.787 130.104 104.391 130.166 102.993C130.228 101.595 130.64 101.261 131.176 99.8012C131.713 98.3412 132.795 97.2692 134.552 97.7352C136.309 98.2012 136.379 98.0021 137.595 96.6056C138.811 95.209 140.022 95.3446 141.104 95.4067C142.186 95.4687 142.451 94.4126 143.806 94.4761C145.104 94.5439 146.704 92.7102 146.814 92.5919C142.797 89.1548 137.702 87.235 132.416 87.1665C127.129 87.0979 121.986 88.885 117.882 92.2168C117.882 92.2168 122.405 93.0175 122.878 95.4139C123.351 97.8103 122.065 97.6112 121.46 98.8086C120.854 100.006 122.203 102.669 121.523 103.333C120.843 103.997 118.757 104.134 118.827 105.128C118.896 106.122 118.827 108.188 116.662 106.927C114.498 105.666 113.344 105.859 112.877 107.66C112.409 109.46 111.108 110.749 109.869 111.197C110.071 113.424 110.619 115.606 111.493 117.664L114.634 122.886C116.742 125.492 119.407 127.592 122.434 129.031C125.46 130.471 128.771 131.213 132.123 131.204C133.505 131.204 134.884 131.078 136.243 130.828C141.477 129.872 146.199 127.08 149.559 122.954C148.982 121.331 147.508 119.872 147.065 117.447L147.066 117.441ZM126.483 119.099C126.627 120.563 125.473 121.761 125.134 122.625C124.795 123.489 127.163 125.089 126.218 126.155C125.273 127.222 122.368 124.492 121.418 124.289C120.467 124.085 119.187 123.567 119.326 122.029C119.464 120.491 119.533 120.082 118.854 118.896C118.421 118.141 117.592 118.368 116.872 118.391C117.184 117.395 117.296 116.347 117.201 115.308C117.056 113.548 116.479 112.435 115.772 111.845C116.452 111.458 117.293 111.181 118.043 111.584C119.535 112.385 120.613 111.986 122.4 111.783C124.188 111.58 124.664 112.783 125.811 114.042C126.958 115.302 126.353 117.636 126.486 119.102L126.483 119.099ZM154.208 105.731C154.208 105.731 152.526 106.596 151.914 105.731C151.302 104.865 150.093 104.197 148.941 105.328C147.788 106.459 146.244 105.601 145.767 106.458C145.289 107.315 145.156 108.127 146.815 109.189C147.951 109.921 147.957 111.529 147.847 112.464C149.138 110.58 151.35 111.199 151.425 113.185C151.483 114.713 151.858 116.041 152.723 117.756C153.719 115.434 154.3 112.955 154.44 110.433C154.463 110.024 154.475 109.615 154.475 109.195C154.476 108.035 154.385 106.878 154.204 105.732" fill="#FDDAA5"/>
<path d="M132.125 132.105C128.638 132.119 125.192 131.348 122.044 129.85C118.895 128.351 116.124 126.164 113.935 123.449C113.909 123.417 113.886 123.383 113.864 123.348L110.724 118.125C110.69 118.07 110.663 118.012 110.643 117.951C109.746 115.823 109.183 113.569 108.974 111.269C108.955 111.071 109.004 110.872 109.111 110.703C109.218 110.535 109.378 110.407 109.565 110.339C110.487 110.006 111.599 108.973 112.008 107.42C112.283 106.37 112.798 105.689 113.535 105.377C114.736 104.881 116.157 105.575 117.122 106.139C117.513 106.367 117.724 106.406 117.8 106.41C117.849 106.321 117.979 106.001 117.926 105.175C117.836 103.901 119.132 103.417 119.989 103.095C120.275 102.998 120.552 102.878 120.818 102.736C120.838 102.476 120.72 101.87 120.638 101.465C120.436 100.437 120.205 99.2717 120.655 98.3888C120.885 97.9577 121.198 97.5763 121.576 97.2663C122.009 96.8725 122.212 96.6893 121.991 95.5769C121.861 94.9205 121.111 94.2785 119.879 93.749C119.183 93.4603 118.461 93.2409 117.722 93.094C117.552 93.0634 117.395 92.9848 117.269 92.8676C117.142 92.7503 117.052 92.5993 117.008 92.4324C116.965 92.2655 116.97 92.0897 117.024 91.9257C117.077 91.7617 117.176 91.6164 117.31 91.507C121.572 88.0475 126.912 86.1896 132.401 86.2557C137.89 86.3219 143.184 88.3079 147.362 91.8691C147.473 91.9534 147.563 92.0625 147.625 92.1877C147.687 92.3129 147.719 92.4508 147.718 92.5905C147.718 92.8176 147.633 93.0365 147.481 93.2051L147.47 93.2181C146.714 94.0592 145.231 95.4572 143.761 95.3821C143.354 95.3634 143.144 95.5033 142.8 95.7356C142.406 96.0011 141.865 96.3646 141.048 96.3127L140.917 96.3055C139.929 96.2463 139.147 96.1987 138.277 97.2014L138.111 97.3933C136.837 98.8634 136.333 99.152 134.319 98.6124C133.928 98.5085 132.732 98.1926 132.022 100.12C131.842 100.609 131.672 100.986 131.536 101.289C131.256 101.912 131.103 102.254 131.063 103.042C131.023 103.829 130.695 104.376 130.401 104.861C130.034 105.465 129.717 105.988 129.844 107.159C129.913 107.782 129.926 108.41 129.883 109.035C129.844 109.765 129.843 109.794 130.724 110.495L130.738 110.506C131.373 111.011 131.793 111.346 131.989 111.432C132.035 111.453 132.083 111.451 132.454 111.391C132.623 111.363 132.832 111.327 133.09 111.295C135.085 111.033 135.531 111.288 136.752 113.396C137.473 114.632 137.173 115.491 136.997 116.003C136.96 116.096 136.932 116.193 136.913 116.292C137.011 116.447 137.138 116.582 137.288 116.688C139.043 118.141 139.757 118.806 139.845 120.728C139.854 120.924 139.859 121.133 139.865 121.348C139.891 122.322 139.934 123.952 140.499 124.09C140.931 124.19 141.181 123.866 141.797 122.35C141.85 122.22 141.904 122.088 141.957 121.959C142.616 120.372 145.671 117.45 146.477 116.765C146.598 116.662 146.743 116.594 146.899 116.565C147.055 116.537 147.215 116.55 147.364 116.604C147.513 116.657 147.646 116.749 147.748 116.869C147.85 116.99 147.919 117.136 147.947 117.291C148.191 118.623 148.794 119.646 149.378 120.634C149.78 121.312 150.158 121.953 150.407 122.663C150.441 122.759 150.458 122.86 150.458 122.961C150.458 123.171 150.387 123.375 150.256 123.538C146.76 127.83 141.85 130.735 136.406 131.732C134.993 131.985 133.56 132.11 132.125 132.105ZM115.378 122.367C117.399 124.857 119.952 126.863 122.85 128.236C125.749 129.609 128.918 130.315 132.125 130.302C133.452 130.302 134.777 130.182 136.082 129.943C140.926 129.057 145.318 126.533 148.522 122.794C148.333 122.391 148.089 121.974 147.83 121.54C147.346 120.768 146.933 119.953 146.595 119.106C145.433 120.245 143.951 121.858 143.631 122.635C143.577 122.764 143.525 122.889 143.475 123.015C142.909 124.404 142.136 126.307 140.092 125.832C138.171 125.378 138.111 123.071 138.072 121.386C138.072 121.181 138.062 120.985 138.053 120.799C138.001 119.662 137.789 119.421 136.149 118.057C134.881 117.01 135.046 116.136 135.3 115.399C135.432 115.018 135.504 114.808 135.199 114.285C134.948 113.852 134.53 113.131 134.334 113.012C134.228 112.952 133.757 113.012 133.338 113.069C133.11 113.097 132.927 113.128 132.761 113.155C131.463 113.37 131.187 113.146 129.626 111.904L129.612 111.893C128.146 110.728 128.025 110.124 128.091 108.924C128.128 108.398 128.118 107.869 128.061 107.345C127.869 105.566 128.447 104.613 128.869 103.916C129.124 103.496 129.257 103.262 129.271 102.946C129.327 101.814 129.593 101.224 129.9 100.538C130.032 100.25 130.18 99.9137 130.333 99.4838C131.137 97.3197 132.802 96.3315 134.787 96.8581C135.075 96.9331 135.725 97.1091 135.915 97.0398C136.074 96.9821 136.372 96.6373 136.75 96.2002L136.918 96.0083C138.369 94.3333 139.906 94.4213 141.028 94.4934L141.159 94.5006C141.348 94.5122 141.448 94.4559 141.794 94.228C142.237 93.9308 142.841 93.5239 143.851 93.5686C144.216 93.586 144.835 93.231 145.48 92.6525C141.855 89.8224 137.425 88.2165 132.829 88.0664C128.232 87.9163 123.707 89.2296 119.905 91.8172C121.442 92.3582 123.399 93.3941 123.761 95.2263C124.147 97.1841 123.519 97.9415 122.783 98.6052C122.573 98.7695 122.397 98.9728 122.264 99.2039C122.095 99.5343 122.283 100.485 122.408 101.114C122.63 102.238 122.841 103.298 122.153 103.968C121.757 104.357 121.18 104.574 120.622 104.783C120.314 104.886 120.016 105.018 119.733 105.177C119.801 106.581 119.469 107.514 118.748 107.96C118.076 108.374 117.223 108.286 116.212 107.696C114.88 106.917 114.379 106.974 114.225 107.044C113.978 107.146 113.823 107.611 113.753 107.879C113.32 109.541 112.207 110.987 110.839 111.737C111.071 113.639 111.566 115.499 112.312 117.264L115.378 122.367ZM125.65 127.302C124.62 127.302 123.412 126.515 122.378 125.841C121.97 125.576 121.411 125.21 121.224 125.159C119.303 124.753 118.282 123.572 118.429 121.937L118.445 121.765C118.566 120.432 118.589 120.227 118.073 119.333C118.019 119.239 117.937 119.207 117.318 119.255C117.174 119.266 117.037 119.277 116.901 119.281C116.757 119.286 116.614 119.256 116.484 119.193C116.353 119.131 116.24 119.039 116.153 118.924C116.066 118.809 116.008 118.674 115.983 118.532C115.959 118.39 115.969 118.244 116.013 118.107C116.289 117.221 116.387 116.289 116.301 115.365C116.157 113.578 115.544 112.815 115.192 112.52C115.08 112.427 114.993 112.308 114.937 112.173C114.881 112.038 114.859 111.892 114.872 111.747C114.886 111.602 114.934 111.462 115.013 111.34C115.092 111.218 115.199 111.116 115.326 111.044C116.792 110.212 117.845 110.437 118.47 110.773C119.413 111.28 120.129 111.176 121.313 111.003C121.622 110.958 121.941 110.912 122.296 110.87C124.217 110.656 125.1 111.747 125.878 112.709C126.065 112.942 126.26 113.181 126.475 113.418C127.54 114.593 127.459 116.303 127.394 117.678C127.362 118.118 127.358 118.559 127.381 119C127.505 120.321 126.849 121.415 126.371 122.213C126.237 122.438 126.107 122.645 126.025 122.824C126.152 123.063 126.297 123.292 126.458 123.51C126.999 124.29 127.901 125.599 126.891 126.74C126.738 126.92 126.547 127.065 126.332 127.163C126.117 127.261 125.883 127.31 125.647 127.307L125.65 127.302ZM118.024 117.44C118.601 117.489 119.228 117.707 119.642 118.44C120.436 119.823 120.375 120.483 120.244 121.928L120.228 122.099C120.199 122.419 120.139 123.084 121.607 123.397C122.066 123.495 122.573 123.815 123.363 124.33C123.881 124.668 125.04 125.423 125.527 125.485C125.464 125.249 125.149 124.798 124.972 124.54C124.506 123.867 123.976 123.106 124.291 122.288C124.44 121.94 124.617 121.605 124.822 121.286C125.211 120.639 125.653 119.903 125.584 119.171C125.551 118.647 125.553 118.122 125.591 117.599C125.643 116.502 125.702 115.259 125.139 114.637C124.89 114.363 124.67 114.09 124.476 113.85C123.702 112.895 123.389 112.569 122.498 112.669C122.173 112.706 121.869 112.751 121.573 112.793C120.237 112.988 119.084 113.157 117.614 112.367C117.511 112.313 117.396 112.283 117.279 112.279C117.666 112.96 117.992 113.91 118.099 115.224C118.163 115.965 118.137 116.711 118.021 117.446L118.024 117.44ZM152.727 118.639C152.56 118.639 152.397 118.593 152.255 118.506C152.113 118.419 151.997 118.294 151.922 118.145C150.996 116.32 150.592 114.888 150.528 113.201C150.51 112.708 150.287 112.351 149.932 112.249C149.578 112.147 149.058 112.285 148.595 112.962C148.481 113.129 148.315 113.252 148.123 113.313C147.93 113.374 147.723 113.369 147.534 113.298C147.345 113.227 147.185 113.095 147.08 112.923C146.975 112.75 146.931 112.548 146.955 112.347C147.021 111.786 147.092 110.425 146.33 109.935C144.56 108.801 144.13 107.554 144.98 106.011C145.443 105.171 146.31 105.123 146.943 105.089C147.577 105.054 147.965 105.009 148.307 104.673C149.114 103.881 149.927 103.776 150.471 103.826C151.299 103.904 152.091 104.404 152.645 105.185C152.817 105.253 153.408 105.116 153.799 104.916C153.926 104.851 154.066 104.818 154.208 104.818C154.35 104.818 154.49 104.852 154.616 104.916C154.743 104.98 154.852 105.074 154.936 105.189C155.02 105.303 155.075 105.436 155.097 105.576C155.288 106.767 155.384 107.97 155.386 109.176C155.386 109.609 155.374 110.042 155.35 110.464C155.205 113.093 154.599 115.675 153.561 118.094C153.493 118.251 153.382 118.387 153.24 118.483C153.098 118.58 152.932 118.635 152.76 118.64L152.727 118.639ZM149.726 110.415C149.966 110.415 150.204 110.449 150.435 110.515C151.54 110.834 152.284 111.861 152.332 113.132C152.356 113.85 152.472 114.562 152.677 115.25C153.16 113.661 153.451 112.02 153.542 110.362C153.564 109.967 153.575 109.577 153.575 109.175C153.575 108.424 153.536 107.674 153.457 106.927C152.101 107.215 151.447 106.62 151.176 106.237C150.929 105.882 150.599 105.647 150.299 105.62C150.212 105.611 149.95 105.587 149.578 105.957C148.726 106.796 147.716 106.85 147.048 106.886C146.876 106.891 146.705 106.908 146.535 106.935C146.28 107.404 146.181 107.69 147.311 108.413C148.032 108.882 148.51 109.639 148.705 110.614C149.029 110.486 149.374 110.419 149.723 110.42L149.726 110.415Z" fill="#F47B20"/>
<path d="M149.563 123.85C149.377 123.85 149.194 123.792 149.042 123.684C148.889 123.576 148.774 123.423 148.712 123.247C148.522 122.705 148.187 122.139 147.834 121.539C147.2 120.467 146.483 119.252 146.182 117.603C146.044 116.819 146.009 116.021 146.078 115.228C146.186 113.917 146.518 112.836 147.066 112.014C147.079 111.991 147.093 111.968 147.108 111.946C147.937 110.736 149.243 110.174 150.435 110.519C151.54 110.838 152.284 111.865 152.332 113.136C152.384 114.542 152.732 115.756 153.531 117.333C153.601 117.47 153.634 117.623 153.628 117.776C153.622 117.93 153.577 118.079 153.498 118.21L150.334 123.416C150.253 123.548 150.14 123.658 150.005 123.734C149.871 123.81 149.718 123.85 149.563 123.85ZM148.631 112.916C148.62 112.936 148.607 112.957 148.592 112.976C148.206 113.535 147.958 114.364 147.871 115.374C147.815 116.011 147.843 116.652 147.952 117.281C148.196 118.61 148.799 119.632 149.383 120.621C149.472 120.766 149.56 120.921 149.646 121.068L151.696 117.695C150.927 116.08 150.583 114.748 150.526 113.204C150.507 112.711 150.285 112.354 149.93 112.252C149.575 112.15 149.086 112.288 148.631 112.916Z" fill="#F47B20"/>
<path d="M154.205 105.724C154.205 105.724 152.522 106.589 151.911 105.724C151.299 104.858 150.09 104.19 148.937 105.321C147.784 106.452 146.241 105.594 145.763 106.451C145.286 107.308 145.153 108.12 146.812 109.182C147.947 109.913 147.953 111.522 147.844 112.457C147.399 113.099 147.072 114.029 146.968 115.296C146.906 116.01 146.937 116.729 147.06 117.436C146.121 118.231 143.332 120.973 142.79 122.285C142.179 123.75 141.706 125.277 140.29 124.948C138.873 124.619 139.011 122.285 138.942 120.752C138.873 119.22 138.4 118.76 136.712 117.362C135.024 115.964 137.052 115.699 135.969 113.832C134.885 111.965 134.752 111.971 133.203 112.174C131.653 112.377 131.987 112.64 130.16 111.186C128.334 109.731 129.215 109.71 128.944 107.246C128.673 104.781 130.098 104.385 130.16 102.987C130.222 101.589 130.633 101.255 131.17 99.7954C131.707 98.3354 132.789 97.2634 134.546 97.7294C136.303 98.1954 136.373 97.9963 137.589 96.5998C138.805 95.2032 140.015 95.3388 141.097 95.4009C142.179 95.4629 142.445 94.4068 143.8 94.4703C145.098 94.5381 146.698 92.7044 146.808 92.5861C149.816 95.1566 152.072 98.494 153.336 102.244C153.72 103.376 154.009 104.538 154.202 105.718" fill="#F8A556"/>
<path d="M140.702 125.906C140.495 125.904 140.29 125.879 140.089 125.831C138.169 125.376 138.105 122.974 138.069 121.384C138.069 121.179 138.059 120.983 138.05 120.797C137.998 119.66 137.786 119.419 136.146 118.056C134.878 117.009 135.044 116.134 135.298 115.397C135.429 115.016 135.501 114.807 135.197 114.283C134.945 113.85 134.527 113.129 134.331 113.011C134.226 112.95 133.754 113.011 133.335 113.067C133.107 113.096 132.924 113.126 132.758 113.154C131.46 113.369 131.184 113.145 129.623 111.903L129.609 111.891C128.143 110.727 128.022 110.122 128.088 108.922C128.125 108.396 128.115 107.868 128.058 107.344C127.866 105.565 128.445 104.611 128.866 103.914C129.121 103.495 129.254 103.261 129.268 102.945C129.325 101.812 129.59 101.222 129.897 100.537C130.029 100.248 130.177 99.9122 130.33 99.4823C131.134 97.3182 132.799 96.3299 134.784 96.8565C135.072 96.9315 135.722 97.1076 135.912 97.0383C136.071 96.9806 136.369 96.6358 136.747 96.1986L136.915 96.0068C138.366 94.3318 139.903 94.4198 141.025 94.4919L141.156 94.4991C141.347 94.5106 141.445 94.4544 141.791 94.2264C142.234 93.9292 142.839 93.5224 143.849 93.5671C144.336 93.5931 145.274 92.9482 146.127 92.0003L146.15 91.9758C146.308 91.8033 146.527 91.6989 146.76 91.6846C146.994 91.6703 147.224 91.7473 147.402 91.8993C150.535 94.576 152.884 98.0516 154.2 101.957C154.596 103.132 154.895 104.339 155.093 105.563C155.124 105.752 155.095 105.946 155.009 106.116C154.922 106.287 154.784 106.426 154.614 106.513C154.252 106.692 153.87 106.827 153.476 106.915C152.104 107.212 151.443 106.615 151.168 106.231C150.921 105.876 150.59 105.641 150.29 105.614C150.204 105.605 149.941 105.581 149.569 105.951C148.718 106.79 147.708 106.845 147.04 106.881C146.868 106.885 146.696 106.902 146.526 106.93C146.262 107.413 146.171 107.683 147.302 108.407C148.457 109.151 148.967 110.617 148.745 112.538C148.729 112.69 148.676 112.836 148.589 112.962C148.203 113.521 147.953 114.351 147.868 115.361C147.812 115.998 147.839 116.639 147.949 117.268C147.977 117.424 147.963 117.584 147.91 117.733C147.857 117.882 147.765 118.014 147.644 118.117C146.634 118.982 144.061 121.568 143.625 122.621C143.572 122.749 143.52 122.875 143.469 123C142.967 124.255 142.296 125.906 140.702 125.906ZM136.915 116.276C137.012 116.431 137.14 116.566 137.29 116.672C139.044 118.125 139.758 118.79 139.846 120.712C139.855 120.908 139.861 121.117 139.867 121.332C139.893 122.306 139.936 123.936 140.5 124.074C140.933 124.176 141.182 123.85 141.798 122.334C141.852 122.204 141.905 122.072 141.959 121.943C142.536 120.54 144.971 118.118 146.098 117.089C146.027 116.471 146.018 115.848 146.07 115.228C146.173 113.99 146.474 112.959 146.969 112.154C147.021 111.519 147.008 110.378 146.326 109.938C144.556 108.804 144.126 107.557 144.975 106.014C145.438 105.174 146.306 105.126 146.939 105.092C147.572 105.057 147.96 105.012 148.302 104.676C149.11 103.884 149.922 103.779 150.466 103.829C151.294 103.907 152.087 104.406 152.641 105.188C152.823 105.217 153.009 105.201 153.184 105.142C153.012 104.26 152.781 103.39 152.493 102.538C151.374 99.2135 149.44 96.2226 146.867 93.8383C146.056 94.6059 144.912 95.4369 143.768 95.3763C143.359 95.3575 143.152 95.4975 142.807 95.7297C142.413 95.9952 141.872 96.3588 141.055 96.3068L140.924 96.2996C139.934 96.2405 139.154 96.1929 138.284 97.1956L138.118 97.3874C136.844 98.8576 136.341 99.1461 134.327 98.6065C133.936 98.5027 132.74 98.1867 132.03 100.114C131.849 100.603 131.679 100.98 131.544 101.283C131.264 101.906 131.111 102.248 131.07 103.036C131.03 103.823 130.702 104.37 130.408 104.855C130.042 105.459 129.724 105.982 129.851 107.153C129.92 107.776 129.933 108.404 129.89 109.029C129.851 109.759 129.85 109.788 130.731 110.489L130.746 110.5C131.381 111.005 131.8 111.34 131.997 111.427C132.043 111.447 132.09 111.445 132.461 111.385C132.63 111.357 132.839 111.321 133.097 111.29C135.093 111.027 135.538 111.282 136.759 113.39C137.48 114.627 137.18 115.485 137.004 115.997C136.968 116.091 136.941 116.187 136.922 116.286L136.915 116.276Z" fill="#F47B20"/>
<path d="M121.459 98.8028C120.847 100 122.202 102.664 121.522 103.327C120.843 103.991 118.757 104.128 118.826 105.122C118.895 106.116 118.826 108.182 116.662 106.921C114.498 105.66 113.344 105.853 112.876 107.654C112.409 109.454 111.107 110.743 109.868 111.192C109.805 110.532 109.776 109.863 109.776 109.182C109.776 102.352 112.928 96.2535 117.877 92.2125C117.877 92.2125 122.4 93.0132 122.873 95.4081C123.346 97.803 122.061 97.6068 121.456 98.8043" fill="#F8A556"/>
<path d="M109.87 112.093C109.646 112.093 109.429 112.009 109.263 111.859C109.097 111.708 108.993 111.5 108.971 111.277C108.908 110.61 108.875 109.905 108.875 109.18C108.877 105.793 109.635 102.45 111.094 99.393C112.553 96.3364 114.676 93.6442 117.309 91.5127C117.409 91.4316 117.525 91.3728 117.649 91.3402C117.773 91.3076 117.903 91.302 118.03 91.3237C118.555 91.4161 123.179 92.3163 123.753 95.2335C124.14 97.1913 123.511 97.9487 122.777 98.6124C122.567 98.7766 122.39 98.9799 122.257 99.2111C122.09 99.5386 122.277 100.489 122.402 101.118C122.624 102.241 122.834 103.301 122.146 103.971C121.751 104.36 121.172 104.577 120.614 104.787C120.306 104.89 120.008 105.022 119.725 105.181C119.793 106.583 119.463 107.518 118.74 107.964C118.068 108.38 117.214 108.29 116.202 107.7C114.872 106.921 114.37 106.979 114.217 107.048C113.97 107.15 113.814 107.615 113.745 107.882C113.239 109.805 111.835 111.435 110.172 112.038C110.075 112.074 109.973 112.092 109.87 112.093ZM118.124 93.182C115.794 95.1465 113.921 97.5958 112.635 100.359C111.35 103.122 110.683 106.133 110.681 109.18C110.681 109.332 110.681 109.484 110.681 109.635C111.323 109.039 111.782 108.271 112.002 107.423C112.278 106.373 112.792 105.692 113.53 105.38C114.731 104.884 116.152 105.578 117.117 106.142C117.508 106.37 117.718 106.409 117.795 106.413C117.844 106.324 117.974 106.003 117.92 105.178C117.831 103.904 119.127 103.42 119.982 103.098C120.268 103.001 120.545 102.881 120.812 102.739C120.832 102.479 120.714 101.873 120.633 101.469C120.429 100.442 120.2 99.2775 120.65 98.3931C120.88 97.9615 121.193 97.5796 121.571 97.2692C122.003 96.8753 122.207 96.6921 121.986 95.5798C121.749 94.3578 119.496 93.5023 118.122 93.182H118.124Z" fill="#F47B20"/>
<path d="M146.815 93.491C146.697 93.4912 146.58 93.4681 146.471 93.423C146.361 93.378 146.262 93.3118 146.178 93.2283C146.095 93.1449 146.028 93.0457 145.983 92.9366C145.937 92.8274 145.914 92.7104 145.914 92.5922C145.914 92.414 145.968 92.2399 146.067 92.092C146.166 91.9441 146.307 91.829 146.472 91.7612C146.637 91.6934 146.818 91.6759 146.993 91.711C147.168 91.7462 147.328 91.8323 147.454 91.9585C147.58 92.0847 147.665 92.2454 147.7 92.4202C147.734 92.595 147.716 92.7762 147.648 92.9408C147.58 93.1054 147.464 93.246 147.316 93.345C147.168 93.444 146.994 93.4968 146.815 93.4968V93.491Z" fill="#F47B20"/>
<path d="M125.134 122.619C124.799 123.485 127.162 125.084 126.217 126.151C125.272 127.219 122.368 124.488 121.417 124.284C120.467 124.081 119.187 123.563 119.325 122.024C119.464 120.484 119.533 120.076 118.854 118.89C118.421 118.135 117.591 118.362 116.871 118.385C117.183 117.389 117.295 116.341 117.2 115.302C117.056 113.542 116.479 112.429 115.77 111.839C116.45 111.454 117.291 111.176 118.041 111.578C119.533 112.379 120.611 111.981 122.398 111.777C124.186 111.574 124.662 112.777 125.81 114.037C126.959 115.296 126.351 117.63 126.484 119.096C126.617 120.562 125.474 121.758 125.135 122.622" fill="#F8A556"/>
<path d="M125.644 127.307C124.616 127.307 123.407 126.519 122.372 125.845C121.964 125.58 121.406 125.215 121.218 125.163C119.298 124.759 118.275 123.583 118.424 121.941L118.439 121.77C118.561 120.437 118.584 120.232 118.067 119.337C118.014 119.243 117.932 119.212 117.313 119.259C117.168 119.271 117.033 119.281 116.896 119.285C116.752 119.29 116.608 119.26 116.478 119.198C116.348 119.136 116.234 119.043 116.147 118.928C116.06 118.813 116.002 118.679 115.978 118.537C115.953 118.394 115.963 118.248 116.007 118.111C116.283 117.225 116.381 116.294 116.296 115.37C116.151 113.584 115.537 112.82 115.185 112.525C115.073 112.431 114.986 112.312 114.93 112.177C114.875 112.042 114.853 111.896 114.866 111.751C114.879 111.606 114.928 111.467 115.007 111.344C115.086 111.222 115.193 111.12 115.32 111.049C116.788 110.216 117.839 110.443 118.464 110.778C119.409 111.284 120.125 111.18 121.309 111.007C121.616 110.962 121.935 110.916 122.29 110.874C124.212 110.662 125.095 111.751 125.874 112.714C126.061 112.946 126.256 113.187 126.473 113.424C127.537 114.599 127.456 116.309 127.392 117.684C127.36 118.125 127.355 118.567 127.379 119.008C127.503 120.328 126.846 121.422 126.369 122.22C126.235 122.443 126.106 122.653 126.024 122.83C126.151 123.068 126.296 123.297 126.457 123.514C126.998 124.296 127.899 125.603 126.89 126.744C126.736 126.924 126.545 127.068 126.33 127.165C126.115 127.262 125.881 127.311 125.644 127.307ZM118.018 117.444C118.595 117.493 119.223 117.711 119.637 118.444C120.429 119.828 120.37 120.487 120.237 121.933L120.221 122.103C120.192 122.423 120.132 123.09 121.6 123.401C122.059 123.5 122.567 123.82 123.356 124.335C123.874 124.672 125.033 125.428 125.52 125.489C125.457 125.254 125.142 124.802 124.965 124.544C124.499 123.872 123.969 123.11 124.284 122.292C124.432 121.945 124.609 121.611 124.813 121.294C125.203 120.644 125.644 119.91 125.575 119.177C125.54 118.653 125.54 118.126 125.575 117.602C125.627 116.505 125.686 115.262 125.124 114.64C124.874 114.366 124.653 114.093 124.459 113.853C123.685 112.898 123.372 112.572 122.481 112.672C122.157 112.709 121.853 112.753 121.559 112.796C120.223 112.992 119.068 113.16 117.597 112.372C117.493 112.317 117.379 112.287 117.262 112.284C117.649 112.965 117.973 113.913 118.082 115.227C118.151 115.966 118.129 116.712 118.018 117.446V117.444Z" fill="#F47B20"/>
<path d="M122.98 153.726C122.98 153.726 123.485 147.438 125.511 141.551C127.536 135.663 127.933 130.815 127.933 130.815L109.87 120.5C105.338 117.137 102.72 119.794 102.72 119.794L104.995 118.797C105.186 116.04 104.896 113.271 104.138 110.613C106.468 108.618 106.367 104.725 106.367 104.725C106.367 104.725 107.377 103.128 108.191 100.433C109.004 97.7379 107.38 96.741 105.861 96.9401C104.341 97.1392 101.809 102.929 100.09 106.521C98.37 110.114 98.7726 113.807 98.7726 118.887C98.7726 123.967 101.204 125.684 102.824 129.676C104.444 133.668 106.673 134.965 109.003 136.761C111.333 138.557 111.636 139.156 110.928 141.451C110.219 143.746 105.66 153.726 105.66 153.726" fill="#FDDAA5"/>
<path d="M105.655 154.629C105.504 154.629 105.356 154.59 105.223 154.518C105.091 154.445 104.979 154.341 104.897 154.214C104.816 154.087 104.768 153.941 104.757 153.791C104.746 153.64 104.773 153.49 104.835 153.352C104.88 153.253 109.377 143.397 110.061 141.186C110.615 139.391 110.603 139.139 108.448 137.475C108.177 137.266 107.905 137.062 107.637 136.862C105.607 135.34 103.508 133.767 101.984 130.015C101.504 128.885 100.942 127.791 100.302 126.743C99.05 124.579 97.867 122.547 97.867 118.887C97.867 118.049 97.8554 117.248 97.8453 116.473C97.7905 112.476 97.7458 109.317 99.2722 106.13C99.4828 105.698 99.705 105.222 99.9358 104.732C102.416 99.4766 104.043 96.2679 105.743 96.0458C106.88 95.9015 107.95 96.2679 108.607 97.0398C109.127 97.653 109.628 98.7841 109.054 100.693C108.619 102.182 108.02 103.618 107.268 104.975C107.246 105.898 107.03 108.909 105.154 110.89C105.748 113.183 106.015 115.547 105.949 117.915C107.68 118.047 109.247 118.925 110.364 119.744L128.378 130.034C128.527 130.119 128.648 130.244 128.728 130.396C128.808 130.548 128.843 130.719 128.829 130.89C128.812 131.092 128.396 135.918 126.361 141.847C124.394 147.561 123.881 153.739 123.876 153.801C123.867 153.919 123.834 154.034 123.78 154.14C123.726 154.245 123.652 154.339 123.562 154.416C123.472 154.493 123.367 154.551 123.254 154.588C123.142 154.624 123.023 154.638 122.905 154.628C122.787 154.619 122.672 154.586 122.566 154.532C122.46 154.478 122.367 154.404 122.29 154.314C122.213 154.224 122.155 154.119 122.118 154.006C122.082 153.894 122.068 153.775 122.077 153.657C122.099 153.396 122.615 147.188 124.655 141.261C125.764 138.03 126.54 134.694 126.971 131.306L109.417 121.283C109.386 121.265 109.357 121.246 109.328 121.224C107.838 120.118 106.398 119.601 105.144 119.717L103.081 120.621C102.888 120.709 102.671 120.726 102.467 120.67C102.263 120.614 102.085 120.488 101.965 120.314C101.845 120.14 101.789 119.929 101.809 119.718C101.828 119.507 101.921 119.31 102.071 119.161C102.652 118.626 103.361 118.249 104.13 118.066C104.219 115.643 103.927 113.22 103.264 110.887C103.21 110.718 103.208 110.537 103.256 110.366C103.305 110.196 103.402 110.043 103.537 109.928C105.505 108.243 105.451 104.781 105.45 104.747C105.447 104.568 105.497 104.392 105.594 104.242C105.603 104.227 106.557 102.7 107.315 100.173C107.581 99.2905 107.548 98.5864 107.222 98.2099C106.966 97.9098 106.5 97.777 105.988 97.8333C105.896 97.8723 105.345 98.1868 104.102 100.398C103.247 101.922 102.35 103.825 101.557 105.504C101.325 105.998 101.102 106.471 100.889 106.912C99.5463 109.717 99.591 112.683 99.6386 116.45C99.6502 117.231 99.6603 118.037 99.6603 118.888C99.6603 122.062 100.67 123.812 101.852 125.838C102.535 126.959 103.134 128.128 103.645 129.337C104.98 132.623 106.708 133.919 108.709 135.418C108.985 135.624 109.262 135.832 109.54 136.047C110.808 137.025 111.56 137.716 111.922 138.569C112.319 139.511 112.16 140.472 111.778 141.718C111.056 144.042 106.656 153.693 106.47 154.101C106.398 154.258 106.284 154.39 106.139 154.484C105.995 154.578 105.827 154.628 105.655 154.629Z" fill="#F47B20"/>
<path d="M109.773 131.668C109.773 131.668 105.589 127.076 108.591 122.488C109.064 121.766 109.49 121.109 109.865 120.501C110.539 119.416 111.07 118.491 111.489 117.656C112.325 115.981 112.683 114.67 112.74 113.171C112.804 111.451 114.48 110.757 115.77 111.836C116.78 112.702 117.934 116.111 116.871 118.382C116.294 120.239 115.148 121.51 114.635 122.883C114.369 123.555 114.311 124.29 114.467 124.995C115.176 128.169 118.316 129.468 119.935 132.564" fill="#FDDAA5"/>
<path d="M119.938 133.469C119.773 133.469 119.611 133.424 119.47 133.338C119.328 133.253 119.213 133.13 119.137 132.984C118.497 131.759 117.55 130.806 116.647 129.884C115.367 128.585 114.05 127.245 113.588 125.193C113.392 124.32 113.462 123.407 113.789 122.573C114.062 121.903 114.394 121.258 114.78 120.646C115.237 119.87 115.711 119.067 116.011 118.112C116.023 118.074 116.037 118.037 116.054 118.001C116.947 116.088 115.892 113.132 115.188 112.519C114.854 112.238 114.467 112.148 114.157 112.284C113.847 112.419 113.671 112.753 113.653 113.203C113.59 114.843 113.187 116.295 112.309 118.058C111.876 118.904 111.338 119.858 110.642 120.976C110.626 121.003 110.608 121.029 110.589 121.054C110.192 121.696 109.742 122.387 109.351 122.982C108.275 124.626 108.125 126.472 108.902 128.464C109.271 129.406 109.792 130.281 110.445 131.054C110.524 131.141 110.586 131.244 110.626 131.355C110.666 131.467 110.684 131.585 110.679 131.703C110.673 131.822 110.644 131.938 110.594 132.045C110.543 132.152 110.472 132.249 110.385 132.328C110.297 132.408 110.195 132.47 110.083 132.51C109.972 132.55 109.853 132.568 109.735 132.562C109.617 132.557 109.501 132.528 109.393 132.478C109.286 132.427 109.19 132.356 109.11 132.268C107.5 130.501 105.163 126.078 107.841 121.986C108.24 121.376 108.706 120.665 109.101 120.02C109.119 119.992 109.138 119.965 109.158 119.939C109.8 118.902 110.303 118.02 110.694 117.244C111.46 115.707 111.795 114.514 111.848 113.129C111.89 111.984 112.479 111.049 113.422 110.629C114.366 110.209 115.484 110.407 116.355 111.138C117.042 111.73 117.663 112.969 117.981 114.377C118.194 115.312 118.437 117.11 117.719 118.705C117.357 119.832 116.816 120.75 116.338 121.561C116.009 122.082 115.723 122.629 115.486 123.198C115.281 123.706 115.235 124.265 115.354 124.799C115.699 126.345 116.736 127.396 117.937 128.614C118.939 129.624 119.975 130.681 120.741 132.144C120.813 132.282 120.848 132.436 120.843 132.59C120.838 132.745 120.793 132.896 120.713 133.029C120.633 133.162 120.519 133.271 120.384 133.348C120.249 133.424 120.097 133.464 119.942 133.464L119.938 133.469Z" fill="#F47B20"/>
<path d="M101.4 110.379C101.4 110.379 103.224 109.946 104.142 110.611L101.4 110.379Z" fill="#FDDAA5"/>
<path d="M104.135 111.515C103.944 111.515 103.758 111.454 103.604 111.342C103.197 111.044 102.105 111.141 101.61 111.258C101.377 111.313 101.132 111.274 100.928 111.148C100.724 111.023 100.579 110.821 100.524 110.589C100.468 110.356 100.508 110.111 100.633 109.907C100.759 109.703 100.96 109.558 101.193 109.502C101.565 109.414 103.481 109.017 104.667 109.885C104.822 109.997 104.936 110.155 104.995 110.336C105.054 110.517 105.054 110.713 104.995 110.894C104.936 111.076 104.821 111.234 104.666 111.345C104.512 111.457 104.325 111.517 104.135 111.516V111.515Z" fill="#F47B20"/>
<path d="M104.136 103.92C104.136 103.92 105.622 104.185 106.365 104.718L104.136 103.92Z" fill="#FDDAA5"/>
<path d="M106.363 105.626C106.175 105.626 105.991 105.567 105.838 105.457C105.421 105.158 104.475 104.903 103.976 104.813C103.74 104.771 103.531 104.637 103.394 104.441C103.258 104.244 103.205 104.001 103.247 103.766C103.289 103.53 103.423 103.321 103.62 103.185C103.816 103.048 104.059 102.995 104.295 103.037C104.468 103.068 106.007 103.358 106.891 103.991C107.047 104.102 107.164 104.26 107.224 104.442C107.284 104.623 107.285 104.819 107.227 105.002C107.168 105.184 107.053 105.343 106.898 105.455C106.743 105.568 106.556 105.628 106.365 105.627L106.363 105.626Z" fill="#F47B20"/>
<path d="M109.773 110.427C109.773 110.427 108.39 109.913 107.005 110.612L109.773 110.427Z" fill="#FDDAA5"/>
<path d="M107.004 111.515C106.801 111.515 106.603 111.447 106.443 111.322C106.283 111.196 106.171 111.02 106.124 110.822C106.076 110.624 106.098 110.416 106.184 110.232C106.27 110.047 106.415 109.897 106.597 109.806C108.314 108.941 110.015 109.554 110.087 109.581C110.312 109.664 110.495 109.832 110.595 110.049C110.696 110.266 110.706 110.514 110.623 110.739C110.541 110.964 110.373 111.146 110.155 111.247C109.938 111.347 109.69 111.357 109.466 111.275C109.434 111.263 108.399 110.919 107.411 111.419C107.285 111.483 107.146 111.515 107.004 111.515Z" fill="#F47B20"/>
<path d="M108.895 102.045C108.895 102.045 110.657 102.102 110.891 102.29L108.895 102.045Z" fill="#FDDAA5"/>
<path d="M110.889 103.199C110.741 103.199 110.596 103.163 110.466 103.093C109.936 103.009 109.401 102.961 108.865 102.949C108.625 102.941 108.399 102.839 108.236 102.664C108.072 102.49 107.985 102.257 107.992 102.018C108 101.779 108.103 101.553 108.277 101.389C108.452 101.225 108.685 101.138 108.924 101.146C110.985 101.212 111.28 101.447 111.454 101.589C111.602 101.705 111.71 101.865 111.762 102.045C111.815 102.226 111.809 102.419 111.747 102.596C111.685 102.773 111.569 102.927 111.415 103.035C111.261 103.143 111.077 103.2 110.889 103.199Z" fill="#F47B20"/>
<path d="M141.134 153.879C141.134 153.879 140.629 147.592 138.602 141.704C136.575 135.816 136.179 130.969 136.179 130.969L154.242 120.653C158.774 117.29 161.393 119.948 161.393 119.948L159.117 118.951C158.927 116.193 159.217 113.424 159.974 110.766C157.646 108.771 157.747 104.878 157.747 104.878C157.747 104.878 156.737 103.281 155.923 100.586C155.109 97.8913 156.734 96.8943 158.253 97.0934C159.772 97.2925 162.304 103.082 164.024 106.675C165.744 110.267 165.341 113.96 165.341 119.04C165.341 124.12 162.91 125.837 161.289 129.829C159.667 133.821 157.439 135.118 155.111 136.914C152.782 138.71 152.478 139.309 153.186 141.604C153.895 143.9 158.454 153.879 158.454 153.879" fill="#FDDAA5"/>
<path d="M158.454 154.782C158.281 154.782 158.111 154.733 157.966 154.639C157.82 154.545 157.705 154.412 157.633 154.254C157.445 153.844 153.042 144.194 152.325 141.871C151.47 139.101 152.065 138.12 154.561 136.2C154.84 135.985 155.117 135.777 155.392 135.571C157.393 134.072 159.12 132.776 160.455 129.488C160.966 128.28 161.565 127.11 162.248 125.99C163.424 123.97 164.441 122.214 164.441 119.039C164.441 118.187 164.453 117.381 164.463 116.6C164.515 112.839 164.557 109.867 163.212 107.063C163.001 106.621 162.779 106.148 162.544 105.655C161.752 103.975 160.855 102.074 159.999 100.549C158.757 98.337 158.206 98.0225 158.113 97.9836C157.595 97.9215 157.135 98.0615 156.88 98.3601C156.554 98.7439 156.521 99.4407 156.786 100.324C157.545 102.85 158.499 104.378 158.509 104.394C158.605 104.544 158.656 104.72 158.653 104.899C158.653 104.932 158.598 108.393 160.566 110.078C160.701 110.193 160.798 110.346 160.847 110.517C160.895 110.687 160.892 110.868 160.839 111.037C160.181 113.372 159.891 115.794 159.98 118.218C160.749 118.401 161.458 118.778 162.039 119.313C162.189 119.462 162.282 119.659 162.302 119.87C162.321 120.081 162.266 120.291 162.145 120.466C162.025 120.64 161.847 120.766 161.643 120.822C161.439 120.878 161.222 120.861 161.029 120.773L158.966 119.868C157.709 119.751 156.27 120.269 154.782 121.376C154.754 121.397 154.724 121.417 154.693 121.435L137.142 131.459C137.573 134.848 138.349 138.183 139.457 141.414C141.497 147.341 142.014 153.549 142.036 153.81C142.055 154.048 141.978 154.285 141.823 154.467C141.668 154.649 141.447 154.762 141.208 154.782C140.97 154.801 140.733 154.724 140.551 154.569C140.369 154.414 140.256 154.193 140.237 153.954C140.237 153.892 139.714 147.706 137.752 142C135.712 136.072 135.3 131.247 135.284 131.044C135.27 130.873 135.305 130.701 135.385 130.549C135.465 130.398 135.586 130.272 135.735 130.187L153.752 119.897C154.87 119.075 156.437 118.2 158.167 118.068C158.1 115.701 158.367 113.336 158.96 111.043C157.085 109.064 156.868 106.053 156.848 105.128C156.096 103.771 155.497 102.335 155.062 100.846C154.485 98.9372 154.988 97.8061 155.509 97.1929C156.166 96.4211 157.241 96.0489 158.373 96.1989C160.073 96.4225 161.7 99.6297 164.18 104.886C164.411 105.375 164.633 105.845 164.842 106.284C166.369 109.469 166.325 112.632 166.269 116.626C166.259 117.401 166.247 118.202 166.247 119.04C166.247 122.702 165.064 124.739 163.811 126.897C163.171 127.945 162.609 129.038 162.128 130.168C160.605 133.919 158.506 135.493 156.476 137.015C156.208 137.216 155.936 137.419 155.665 137.628C153.51 139.29 153.501 139.543 154.052 141.337C154.736 143.551 159.233 153.404 159.278 153.504C159.34 153.641 159.367 153.792 159.356 153.943C159.345 154.093 159.297 154.238 159.215 154.365C159.134 154.492 159.022 154.597 158.89 154.67C158.757 154.742 158.609 154.78 158.458 154.781L158.454 154.782Z" fill="#F47B20"/>
<path d="M144.174 132.719C145.793 129.624 148.935 128.33 149.642 125.15C149.799 124.445 149.742 123.71 149.476 123.038C148.962 121.664 147.821 120.392 147.24 118.537C146.179 116.266 147.332 112.858 148.341 111.991C149.626 110.912 151.302 111.604 151.37 113.325C151.428 114.824 151.786 116.136 152.62 117.811C153.04 118.646 153.57 119.571 154.244 120.655C154.619 121.262 155.045 121.921 155.518 122.643C158.52 127.231 154.337 131.823 154.337 131.823" fill="#FDDAA5"/>
<path d="M144.173 133.622C144.017 133.621 143.865 133.581 143.73 133.505C143.594 133.429 143.481 133.319 143.401 133.186C143.321 133.053 143.276 132.902 143.271 132.747C143.266 132.591 143.301 132.438 143.373 132.3C144.139 130.837 145.175 129.785 146.178 128.77C147.378 127.552 148.416 126.5 148.76 124.955C148.88 124.419 148.833 123.86 148.628 123.351C148.39 122.784 148.105 122.238 147.776 121.719C147.297 120.908 146.756 119.988 146.396 118.864C145.674 117.277 145.923 115.475 146.133 114.536C146.452 113.128 147.072 111.888 147.75 111.304C148.629 110.565 149.753 110.371 150.691 110.788C151.629 111.205 152.224 112.144 152.266 113.298C152.32 114.68 152.654 115.873 153.42 117.414C153.808 118.184 154.312 119.067 154.955 120.108C154.976 120.133 154.995 120.16 155.012 120.188C155.404 120.825 155.85 121.51 156.273 122.155C157.666 124.286 157.881 126.751 156.893 129.288C156.443 130.436 155.804 131.5 155.003 132.437C154.923 132.525 154.827 132.596 154.72 132.646C154.613 132.697 154.497 132.726 154.378 132.731C154.26 132.737 154.141 132.719 154.03 132.679C153.919 132.639 153.816 132.577 153.728 132.497C153.641 132.417 153.57 132.321 153.519 132.214C153.469 132.107 153.44 131.99 153.434 131.872C153.429 131.754 153.447 131.635 153.487 131.524C153.527 131.412 153.589 131.31 153.669 131.222C153.813 131.056 157.337 127.079 154.762 123.143C154.35 122.514 153.915 121.845 153.524 121.214C153.505 121.19 153.487 121.164 153.471 121.138C152.774 120.018 152.23 119.065 151.806 118.223C150.924 116.456 150.523 115.005 150.46 113.367C150.443 112.917 150.259 112.582 149.956 112.447C149.653 112.311 149.26 112.401 148.916 112.689C148.215 113.294 147.159 116.248 148.051 118.163C148.067 118.199 148.082 118.237 148.094 118.275C148.393 119.23 148.867 120.033 149.325 120.809C149.71 121.42 150.041 122.063 150.314 122.732C150.643 123.567 150.714 124.481 150.516 125.356C150.059 127.408 148.736 128.748 147.458 130.045C146.549 130.967 145.608 131.921 144.967 133.146C144.89 133.289 144.776 133.41 144.636 133.494C144.496 133.577 144.336 133.622 144.173 133.622Z" fill="#F47B20"/>
<path d="M162.709 110.532C162.709 110.532 160.885 110.099 159.968 110.764L162.709 110.532Z" fill="#FDDAA5"/>
<path d="M159.974 111.668C159.783 111.668 159.597 111.609 159.442 111.497C159.288 111.385 159.173 111.227 159.114 111.046C159.054 110.864 159.054 110.669 159.113 110.488C159.172 110.306 159.287 110.148 159.441 110.036C159.649 109.885 160.796 109.15 162.917 109.654C163.15 109.709 163.351 109.854 163.477 110.057C163.603 110.261 163.643 110.506 163.588 110.739C163.533 110.972 163.388 111.173 163.184 111.299C162.981 111.425 162.736 111.464 162.503 111.41C161.926 111.275 160.894 111.209 160.506 111.493C160.352 111.607 160.165 111.668 159.974 111.668Z" fill="#F47B20"/>
<path d="M159.975 104.079C159.975 104.079 158.489 104.344 157.747 104.877L159.975 104.079Z" fill="#FDDAA5"/>
<path d="M157.747 105.78C157.555 105.781 157.369 105.72 157.214 105.608C157.059 105.495 156.944 105.337 156.885 105.154C156.826 104.972 156.827 104.776 156.887 104.594C156.948 104.413 157.064 104.255 157.22 104.144C158.103 103.51 159.642 103.222 159.817 103.19C160.053 103.148 160.295 103.201 160.492 103.337C160.688 103.474 160.822 103.683 160.864 103.919C160.907 104.154 160.854 104.397 160.717 104.593C160.58 104.79 160.371 104.924 160.136 104.966C159.637 105.057 158.693 105.311 158.273 105.61C158.12 105.72 157.936 105.78 157.747 105.78Z" fill="#F47B20"/>
<path d="M154.336 110.58C154.336 110.58 155.719 110.066 157.104 110.765L154.336 110.58Z" fill="#FDDAA5"/>
<path d="M157.103 111.668C156.962 111.668 156.823 111.635 156.698 111.571C155.699 111.068 154.653 111.427 154.642 111.427C154.531 111.468 154.412 111.486 154.294 111.481C154.176 111.476 154.06 111.448 153.952 111.398C153.845 111.348 153.748 111.278 153.668 111.191C153.588 111.103 153.525 111.001 153.485 110.89C153.444 110.779 153.426 110.661 153.43 110.542C153.435 110.424 153.464 110.308 153.513 110.2C153.563 110.093 153.634 109.996 153.721 109.916C153.808 109.836 153.91 109.774 154.021 109.733C154.094 109.707 155.795 109.092 157.511 109.958C157.693 110.049 157.839 110.199 157.925 110.383C158.011 110.568 158.032 110.776 157.985 110.974C157.938 111.171 157.825 111.348 157.666 111.473C157.506 111.599 157.308 111.667 157.105 111.666L157.103 111.668Z" fill="#F47B20"/>
<path d="M155.216 102.199C155.216 102.199 153.454 102.257 153.221 102.443L155.216 102.199Z" fill="#FDDAA5"/>
<path d="M153.219 103.343C153.032 103.344 152.849 103.286 152.696 103.178C152.543 103.07 152.428 102.917 152.366 102.74C152.304 102.563 152.298 102.372 152.35 102.192C152.402 102.012 152.508 101.853 152.655 101.736C152.83 101.592 153.124 101.361 155.184 101.294C155.423 101.287 155.656 101.374 155.83 101.538C156.005 101.701 156.107 101.927 156.115 102.167C156.123 102.406 156.036 102.638 155.872 102.813C155.709 102.988 155.482 103.09 155.243 103.098C154.706 103.109 154.171 103.158 153.64 103.242C153.51 103.31 153.366 103.344 153.219 103.343Z" fill="#F47B20"/>
<path d="M69.5254 131.89C68.2183 133.714 65.8349 134.054 64.2018 132.664C65.8349 134.06 66.0975 136.67 64.7904 138.494C63.4833 140.317 61.0999 140.658 59.4667 139.265L57.786 137.823C58.2241 138.209 58.5766 138.683 58.8208 139.214C59.065 139.745 59.1956 140.321 59.2042 140.906C59.2342 141.886 58.9428 142.848 58.3746 143.647C57.0675 145.471 54.6841 145.811 53.0509 144.42L50.0024 141.812C50.4406 142.199 50.7931 142.673 51.0373 143.204C51.2815 143.734 51.4121 144.311 51.4207 144.895C51.4481 145.849 51.2764 146.459 50.6877 147.255C49.8986 148.333 48.049 149.696 46.0133 148.171L12.8638 121.001C13.1942 120.84 13.4786 120.599 13.6905 120.299L25.9536 103.202C26.3927 102.591 26.8795 102.016 27.4094 101.482C27.9677 101.385 28.891 101.935 30.416 101.915C34.7442 101.871 44.3701 101.899 47.7792 104.066C48.9247 104.787 66.6068 124.091 66.6068 124.091L68.9382 126.056C70.5714 127.452 70.834 130.062 69.5269 131.886" fill="#FDDAA5"/>
<path d="M47.8874 149.764C47.0089 149.747 46.1601 149.443 45.4709 148.898L45.4391 148.874L12.2911 121.699C12.1735 121.602 12.0821 121.478 12.0254 121.337C11.9687 121.196 11.9486 121.043 11.9669 120.892C11.9851 120.741 12.0412 120.598 12.13 120.474C12.2187 120.351 12.3371 120.252 12.4743 120.187C12.6678 120.092 12.8342 119.95 12.9576 119.774L25.2208 102.676C25.6907 102.023 26.2123 101.407 26.7803 100.837C26.911 100.71 27.0769 100.625 27.2564 100.594C27.6893 100.519 28.1062 100.626 28.5881 100.75C29.1789 100.925 29.7913 101.015 30.4074 101.019C39.85 100.925 45.6916 101.675 48.264 103.311C49.4181 104.044 63.0216 118.848 67.2344 123.446L69.5211 125.373C71.5034 127.069 71.8294 130.228 70.2612 132.418C69.8883 132.956 69.4066 133.41 68.8472 133.751C68.2877 134.091 67.6631 134.31 67.0136 134.393C66.7839 134.421 66.5524 134.431 66.3211 134.422C66.538 135.2 66.5791 136.016 66.4417 136.811C66.3042 137.607 65.9915 138.362 65.5262 139.022C65.1534 139.559 64.6718 140.013 64.1127 140.353C63.5535 140.693 62.9291 140.912 62.28 140.995C61.5407 141.088 60.7898 140.989 60.1001 140.707C60.1001 140.768 60.103 140.83 60.1087 140.893C60.1439 142.071 59.7934 143.229 59.1104 144.191C58.7378 144.729 58.2563 145.183 57.6971 145.523C57.1379 145.863 56.5135 146.082 55.8642 146.166C55.2565 146.24 54.64 146.186 54.0547 146.006C53.4693 145.827 52.9283 145.526 52.4666 145.124L52.3224 145.004C52.3368 146.12 52.0843 146.889 51.412 147.806C51.1235 148.196 50.0674 149.486 48.4126 149.732C48.2385 149.756 48.063 149.766 47.8874 149.764ZM46.5673 147.472C47.0997 147.867 47.6176 148.02 48.1543 147.94C48.919 147.826 49.597 147.242 49.9635 146.733C50.4194 146.111 50.5406 145.707 50.5233 144.932C50.5181 144.474 50.4174 144.022 50.2276 143.605C50.0378 143.188 49.7631 142.815 49.421 142.51C49.2393 142.354 49.1268 142.133 49.1082 141.895C49.0897 141.656 49.1667 141.42 49.3222 141.238C49.4777 141.057 49.6991 140.944 49.9376 140.925C50.1761 140.907 50.4122 140.984 50.594 141.139L53.6439 143.748C53.9162 143.986 54.2355 144.165 54.5813 144.272C54.927 144.379 55.2913 144.412 55.6507 144.37C56.0515 144.315 56.4364 144.177 56.7804 143.964C57.1244 143.752 57.4198 143.469 57.6475 143.135C58.1009 142.495 58.3334 141.724 58.3097 140.94C58.3046 140.483 58.2043 140.031 58.015 139.614C57.8257 139.197 57.5517 138.824 57.2103 138.519C57.0284 138.364 56.9157 138.142 56.897 137.904C56.8783 137.665 56.9552 137.429 57.1108 137.247C57.2663 137.065 57.4878 136.952 57.7264 136.934C57.965 136.915 58.2013 136.992 58.3832 137.147L60.0582 138.58C60.3306 138.818 60.6499 138.997 60.9956 139.104C61.3413 139.211 61.7057 139.245 62.0651 139.202C62.4659 139.147 62.8507 139.009 63.1947 138.797C63.5387 138.584 63.8341 138.301 64.0618 137.967C65.1006 136.524 64.9029 134.445 63.6203 133.35C63.5304 133.273 63.4564 133.179 63.4027 133.074C63.3491 132.968 63.3167 132.853 63.3075 132.735C63.2984 132.617 63.3125 132.498 63.3492 132.385C63.386 132.273 63.4445 132.168 63.5215 132.078C63.5985 131.988 63.6925 131.914 63.7981 131.861C63.9037 131.807 64.0188 131.775 64.1369 131.766C64.255 131.756 64.3738 131.771 64.4864 131.807C64.599 131.844 64.7033 131.903 64.7933 131.98C65.0654 132.218 65.3845 132.396 65.73 132.503C66.0754 132.61 66.4395 132.644 66.7987 132.601C67.1996 132.547 67.5846 132.409 67.9287 132.196C68.2729 131.983 68.5687 131.701 68.7968 131.366C69.8356 129.924 69.6379 127.846 68.3554 126.75L66.0282 124.789C65.9987 124.764 65.9707 124.737 65.9446 124.708C58.9935 117.122 48.3015 105.582 47.2872 104.829C45.0424 103.411 39.371 102.737 30.4276 102.825C29.6545 102.822 28.8855 102.713 28.1423 102.5C28.0283 102.471 27.8912 102.435 27.7744 102.411C27.3858 102.828 27.0235 103.269 26.6895 103.731L14.4263 120.829C14.383 120.889 14.3378 120.948 14.2907 121.005L46.5673 147.472Z" fill="#F47B20"/>
<path d="M64.2021 133.567C63.995 133.567 63.7942 133.496 63.6336 133.365L57.1197 128.063C56.9341 127.912 56.8162 127.693 56.7919 127.455C56.7675 127.217 56.8387 126.979 56.9899 126.793C57.141 126.608 57.3597 126.49 57.5978 126.465C57.8359 126.441 58.0739 126.512 58.2595 126.663L64.7734 131.965C64.9185 132.083 65.0233 132.243 65.0734 132.423C65.1235 132.604 65.1164 132.795 65.053 132.971C64.9896 133.147 64.8731 133.299 64.7196 133.405C64.5661 133.512 64.3833 133.568 64.1963 133.567H64.2021Z" fill="#F47B20"/>
<path d="M57.784 138.732C57.5691 138.732 57.3613 138.655 57.1982 138.516L52.1963 134.248C52.0142 134.093 51.9012 133.871 51.8823 133.633C51.8633 133.394 51.94 133.158 52.0953 132.975C52.2507 132.793 52.472 132.68 52.7106 132.661C52.9493 132.642 53.1857 132.719 53.3678 132.874L58.3697 137.142C58.5098 137.262 58.6098 137.422 58.6563 137.6C58.7027 137.778 58.6934 137.967 58.6296 138.14C58.5658 138.312 58.4505 138.462 58.2993 138.567C58.1481 138.672 57.9683 138.729 57.784 138.729V138.732Z" fill="#F47B20"/>
<path d="M49.9999 142.73C49.7642 142.73 49.5378 142.638 49.3695 142.473L48.247 141.375C48.0758 141.208 47.978 140.979 47.9752 140.74C47.9723 140.501 48.0647 140.27 48.2319 140.099C48.3991 139.927 48.6275 139.83 48.8668 139.827C49.1061 139.824 49.3367 139.916 49.508 140.084L50.6304 141.181C50.7591 141.307 50.8475 141.467 50.8843 141.643C50.921 141.819 50.9045 142.002 50.8368 142.168C50.7691 142.334 50.6532 142.476 50.5041 142.577C50.3551 142.677 50.1795 142.73 49.9999 142.73Z" fill="#F47B20"/>
<path d="M21.1423 94.7532L30.1853 100.677C31.2428 101.481 31.4751 103.039 30.7061 104.16L17.5311 123.328C17.3588 123.592 17.1342 123.817 16.8711 123.99C16.6079 124.164 16.312 124.281 16.0016 124.335C15.6913 124.389 15.3731 124.379 15.0669 124.305C14.7606 124.231 14.4729 124.095 14.2215 123.905L5.55215 117.32L21.1423 94.7532Z" fill="#FEEFD2"/>
<path d="M15.5907 125.273C14.8978 125.272 14.2244 125.043 13.6748 124.62L5.00546 118.036C4.82024 117.895 4.69643 117.689 4.65988 117.459C4.62332 117.23 4.67683 116.995 4.80925 116.804L20.4008 94.241C20.5347 94.0474 20.7388 93.9138 20.9698 93.8686C21.2007 93.8233 21.4402 93.8699 21.6372 93.9986L30.6802 99.9224L30.7322 99.9585C32.1662 101.046 32.4879 103.161 31.4535 104.67L18.2785 123.838C18.0303 124.207 17.7092 124.521 17.335 124.761C16.9608 125 16.5415 125.161 16.1029 125.232C15.9336 125.259 15.7623 125.273 15.5907 125.273ZM6.79011 117.12L14.7727 123.179C14.9193 123.293 15.0877 123.375 15.2673 123.421C15.447 123.467 15.6341 123.475 15.8173 123.446C16.0145 123.413 16.2027 123.339 16.3705 123.23C16.5382 123.121 16.6818 122.979 16.7925 122.813L29.9661 103.645C30.2049 103.302 30.3066 102.882 30.2511 102.468C30.1955 102.054 29.9867 101.676 29.666 101.408L21.3818 95.9852L6.79011 117.12Z" fill="#F47B20"/>
<path d="M60.7424 102.939C60.0903 102.781 57.2524 102.306 55.436 102.143C50.6649 101.71 47.1995 102.502 43.2969 104.223L31.6974 109.763C30.6658 110.374 29.9191 111.37 29.6215 112.531C29.3239 113.692 29.4997 114.924 30.1104 115.956C30.7214 116.987 31.7171 117.734 32.8786 118.032C34.0401 118.329 35.2722 118.153 36.304 117.543L50.0965 110.705L71.3046 127.774L75.8895 125.466" fill="#FDDAA5"/>
<path d="M71.304 128.683C71.0983 128.683 70.8988 128.613 70.7385 128.484L49.9849 111.777L36.7378 118.347C35.4999 119.067 34.0279 119.269 32.6421 118.909C31.2563 118.548 30.0688 117.656 29.338 116.424L29.3294 116.41C28.6003 115.172 28.3919 113.696 28.75 112.305C29.1082 110.915 30.0035 109.723 31.2395 108.991L31.3102 108.954L42.9098 103.414L42.9343 103.402C47.3317 101.463 50.9775 100.838 55.5177 101.248C57.3745 101.414 60.2326 101.89 60.9554 102.066C61.188 102.123 61.3887 102.269 61.5133 102.474C61.6379 102.678 61.6762 102.923 61.6197 103.156C61.5633 103.389 61.4168 103.589 61.2124 103.714C61.0079 103.839 60.7624 103.877 60.5298 103.82C59.9397 103.676 57.135 103.206 55.3562 103.046C51.0929 102.661 47.8179 103.222 43.6701 105.048L32.1283 110.564C31.3134 111.058 30.7263 111.853 30.4945 112.778C30.2628 113.702 30.405 114.681 30.8904 115.501L30.8991 115.515C31.39 116.338 32.1868 116.932 33.1151 117.169C34.0434 117.405 35.0275 117.264 35.8519 116.776L35.9096 116.744L49.7021 109.907C49.8565 109.831 50.0295 109.8 50.2008 109.819C50.3721 109.837 50.5345 109.905 50.6687 110.013L71.4166 126.715L75.4822 124.666C75.6959 124.559 75.9436 124.54 76.1709 124.615C76.3982 124.69 76.5864 124.852 76.6941 125.066C76.8018 125.28 76.8202 125.527 76.7452 125.755C76.6703 125.982 76.5081 126.17 76.2944 126.278L71.7095 128.586C71.5837 128.65 71.4449 128.683 71.304 128.683Z" fill="#F47B20"/>
<path d="M40.0091 138.634C40.3596 138.324 40.7693 138.089 41.2135 137.942C41.6576 137.796 42.1269 137.741 42.5928 137.782C43.0587 137.822 43.5115 137.957 43.9238 138.178C44.336 138.399 44.699 138.701 44.9908 139.067C45.5973 139.815 45.8926 140.768 45.8155 141.728C45.7384 142.688 45.2949 143.582 44.5768 144.224L41.1027 146.987C40.3906 147.378 39.5634 147.506 38.7666 147.348C37.9697 147.189 37.2541 146.755 36.7457 146.121C36.1392 145.373 35.8439 144.42 35.921 143.46C35.9981 142.5 36.4417 141.606 37.1597 140.964L40.0091 138.634Z" fill="#FDDAA5"/>
<path d="M39.4579 148.313C38.8042 148.312 38.159 148.166 37.5688 147.884C36.9787 147.603 36.4585 147.194 36.0459 146.687C35.3873 145.876 35.0205 144.868 35.0042 143.823C34.9899 143.155 35.1215 142.491 35.3898 141.879C35.6582 141.266 36.0568 140.72 36.5581 140.277L36.5811 140.257L39.419 137.949C39.8566 137.564 40.3674 137.272 40.9207 137.089C41.4741 136.907 42.0586 136.838 42.6391 136.887C43.2292 136.936 43.8032 137.104 44.3262 137.382C44.8492 137.659 45.3105 138.04 45.6819 138.501C46.4337 139.432 46.7992 140.616 46.7028 141.808C46.6064 143.001 46.0555 144.111 45.1639 144.908L45.1307 144.936L41.6567 147.699C41.6172 147.73 41.5752 147.758 41.5311 147.782C40.8959 148.131 40.1827 148.314 39.4579 148.313ZM37.7411 141.646C37.4394 141.916 37.1997 142.248 37.0385 142.619C36.8774 142.99 36.7986 143.391 36.8076 143.796C36.817 144.434 37.0406 145.05 37.4424 145.546C37.8073 146.01 38.3223 146.332 38.899 146.457C39.4756 146.582 40.0778 146.502 40.602 146.231L43.9953 143.533C44.5315 143.044 44.86 142.367 44.9137 141.643C44.9673 140.919 44.742 140.201 44.2838 139.638C44.0651 139.365 43.7933 139.14 43.4848 138.975C43.1763 138.81 42.8375 138.71 42.4891 138.68C42.1472 138.652 41.8032 138.693 41.4779 138.802C41.1525 138.911 40.8526 139.084 40.5962 139.312L40.5717 139.332L37.7411 141.646Z" fill="#F47B20"/>
<path d="M27.9613 130.054C28.6792 129.412 29.1225 128.518 29.1993 127.558C29.2761 126.597 28.9806 125.644 28.374 124.896C27.8659 124.262 27.1503 123.827 26.3532 123.669C25.5562 123.511 24.7289 123.639 24.0169 124.03L19.1391 127.968C18.4206 128.61 17.9768 129.504 17.8997 130.464C17.8226 131.425 18.1181 132.378 18.725 133.127C19.017 133.492 19.38 133.794 19.7923 134.015C20.2045 134.236 20.6573 134.37 21.1231 134.411C21.589 134.451 22.0582 134.397 22.5023 134.25C22.9464 134.104 23.3562 133.869 23.7067 133.56L27.9613 130.054Z" fill="#FDDAA5"/>
<path d="M21.434 135.321C21.3128 135.321 21.1907 135.316 21.0676 135.305C20.4778 135.256 19.9042 135.088 19.3815 134.811C18.8587 134.533 18.3977 134.153 18.0263 133.692C17.275 132.761 16.9099 131.577 17.0063 130.384C17.1027 129.192 17.6532 128.082 18.5442 127.283L18.5716 127.26L23.4495 123.323C23.4906 123.29 23.5345 123.261 23.5808 123.235C24.4791 122.745 25.521 122.585 26.5247 122.785C27.5285 122.984 28.4305 123.53 29.0732 124.326C29.7321 125.136 30.099 126.144 30.1149 127.188C30.1283 127.857 29.9957 128.521 29.7264 129.133C29.457 129.745 29.0574 130.291 28.5553 130.733L28.5351 130.75L24.2964 134.242C23.5054 134.938 22.4877 135.322 21.434 135.321ZM19.7215 128.651C19.1847 129.14 18.8549 129.816 18.7997 130.54C18.7444 131.264 18.9679 131.982 19.4243 132.547C19.6429 132.819 19.9146 133.044 20.2228 133.209C20.5311 133.373 20.8695 133.473 21.2176 133.503C21.5597 133.532 21.904 133.49 22.2296 133.382C22.5553 133.273 22.8554 133.099 23.1119 132.871L23.1335 132.854L27.378 129.362C27.6799 129.093 27.9197 128.761 28.0809 128.389C28.242 128.018 28.3207 127.616 28.3115 127.211C28.3024 126.574 28.0787 125.958 27.6767 125.463C27.3124 124.999 26.7977 124.676 26.2213 124.551C25.6448 124.425 25.0426 124.505 24.5185 124.776L19.7215 128.651Z" fill="#F47B20"/>
<path d="M35.3143 133.208L36.8494 131.866C37.2001 131.556 37.61 131.321 38.0542 131.175C38.4984 131.029 38.9678 130.974 39.4337 131.015C39.8997 131.055 40.3526 131.19 40.7649 131.411C41.1773 131.631 41.5405 131.933 41.8326 132.299C42.4396 133.047 42.7354 134 42.6586 134.961C42.5818 135.921 42.1382 136.816 41.42 137.458L37.1654 140.958L34.3809 143.395C34.0304 143.704 33.6206 143.939 33.1765 144.086C32.7323 144.232 32.2631 144.286 31.7973 144.246C31.3314 144.206 30.8787 144.071 30.4664 143.85C30.0542 143.629 29.6911 143.327 29.3992 142.962C28.7927 142.214 28.4975 141.26 28.5745 140.3C28.6516 139.34 29.0952 138.446 29.8132 137.804L35.3143 133.208Z" fill="#FDDAA5"/>
<path d="M32.1032 145.162C31.982 145.162 31.8599 145.157 31.7368 145.146C31.147 145.097 30.5733 144.928 30.0506 144.651C29.5278 144.373 29.0668 143.992 28.6955 143.532C28.0377 142.722 27.6713 141.714 27.6553 140.671C27.6417 140.002 27.7742 139.338 28.0435 138.725C28.3129 138.113 28.7126 137.567 29.2149 137.124L29.2308 137.111L34.7261 132.522L36.2511 131.186C36.6896 130.798 37.2024 130.503 37.7584 130.318C38.3144 130.134 38.902 130.065 39.4857 130.114C40.0754 130.164 40.6491 130.332 41.1718 130.61C41.6946 130.887 42.1556 131.268 42.5269 131.729C43.279 132.659 43.6448 133.843 43.5487 135.036C43.4526 136.229 42.9019 137.339 42.0104 138.137L41.9888 138.156L37.7443 141.647L34.9728 144.074C34.1813 144.775 33.1605 145.162 32.1032 145.162ZM30.395 138.489C30.0924 138.759 29.8521 139.091 29.6907 139.463C29.5292 139.835 29.4506 140.238 29.4602 140.643C29.4693 141.28 29.6924 141.896 30.0935 142.39C30.3121 142.663 30.5838 142.888 30.892 143.053C31.2002 143.218 31.5387 143.318 31.8868 143.348C32.2289 143.377 32.5731 143.335 32.8987 143.227C33.2243 143.118 33.5245 142.944 33.7811 142.716L36.5598 140.277L36.5815 140.259L40.8245 136.768C41.3618 136.279 41.6921 135.604 41.7476 134.88C41.8031 134.156 41.5797 133.438 41.1232 132.873C40.9046 132.6 40.6329 132.375 40.3247 132.21C40.0164 132.045 39.678 131.945 39.3298 131.915C38.9875 131.886 38.643 131.928 38.3172 132.036C37.9914 132.145 37.6909 132.319 37.4341 132.547L35.9005 133.888L35.8846 133.903L30.395 138.489Z" fill="#F47B20"/>
<path d="M27.9608 130.054L30.7438 127.617C31.0944 127.308 31.5041 127.073 31.9483 126.926C32.3924 126.78 32.8616 126.725 33.3274 126.766C33.7933 126.806 34.2461 126.941 34.6583 127.162C35.0705 127.383 35.4336 127.685 35.7255 128.05C36.3322 128.798 36.6277 129.751 36.5509 130.711C36.4741 131.672 36.0308 132.565 35.3129 133.208L29.8089 137.803L28.2753 139.146C27.9248 139.455 27.515 139.69 27.0709 139.837C26.6268 139.983 26.1575 140.038 25.6917 139.997C25.2258 139.957 24.7731 139.822 24.3608 139.601C23.9486 139.381 23.5855 139.078 23.2936 138.713C22.687 137.965 22.3914 137.012 22.4683 136.052C22.5451 135.092 22.9883 134.198 23.7062 133.555L27.9608 130.054Z" fill="#FDDAA5"/>
<path d="M26.0014 140.913C25.8802 140.913 25.7581 140.908 25.6349 140.897C25.0452 140.848 24.4715 140.68 23.9487 140.402C23.426 140.125 22.965 139.744 22.5937 139.283C21.8418 138.352 21.4762 137.168 21.5726 135.975C21.669 134.782 22.22 133.672 23.1116 132.874L23.1333 132.857L27.3778 129.364L30.1507 126.936C30.5924 126.547 31.1084 126.252 31.6675 126.068C32.2265 125.884 32.8171 125.815 33.4035 125.865C33.99 125.916 34.5601 126.085 35.0794 126.362C35.5987 126.639 36.0565 127.018 36.4251 127.477C37.0835 128.287 37.4504 129.296 37.4667 130.339C37.4804 131.008 37.3479 131.672 37.0785 132.284C36.8091 132.896 36.4094 133.442 35.9072 133.884L35.8913 133.897L30.3945 138.487L28.8695 139.823C28.0788 140.524 27.0586 140.912 26.0014 140.913ZM24.2947 134.242C23.757 134.731 23.4266 135.406 23.371 136.13C23.3155 136.855 23.5391 137.573 23.996 138.137C24.2148 138.41 24.4866 138.636 24.7951 138.8C25.1036 138.965 25.4424 139.065 25.7908 139.095C26.1329 139.124 26.4772 139.083 26.8028 138.974C27.1285 138.865 27.4286 138.692 27.6851 138.463L29.2187 137.12L29.2346 137.106L34.7313 132.517C35.0338 132.247 35.2741 131.915 35.4356 131.543C35.597 131.171 35.6757 130.769 35.6662 130.364C35.6568 129.726 35.4332 129.111 35.0314 128.615C34.8129 128.343 34.5413 128.117 34.2331 127.952C33.9248 127.788 33.5863 127.687 33.2381 127.657C32.8958 127.629 32.5513 127.67 32.2254 127.779C31.8995 127.887 31.5991 128.061 31.3424 128.289L28.5594 130.726L28.5377 130.743L24.2947 134.242Z" fill="#F47B20"/>
<path d="M23.7066 134.457C23.5203 134.458 23.3383 134.401 23.1856 134.295C23.0328 134.188 22.9169 134.037 22.8536 133.862C22.7904 133.686 22.7829 133.496 22.8323 133.316C22.8817 133.137 22.9855 132.977 23.1295 132.858L27.3855 129.357C27.5704 129.205 27.808 129.132 28.0462 129.156C28.2845 129.179 28.5038 129.296 28.6559 129.48C28.808 129.665 28.8804 129.903 28.8573 130.141C28.8341 130.379 28.7173 130.599 28.5325 130.751L24.2765 134.252C24.1159 134.384 23.9145 134.457 23.7066 134.457Z" fill="#F47B20"/>
<path d="M86.5282 120.789L76.8114 126.427C75.627 127.113 74.0861 126.671 73.3705 125.436L61.1319 104.324C60.4105 103.091 60.7972 101.532 61.9817 100.846L71.7475 94.7444L86.5282 120.789Z" fill="#FEEFD2"/>
<path d="M75.611 127.649C75.2912 127.649 74.9731 127.603 74.666 127.515C73.7891 127.261 73.0451 126.676 72.5913 125.884L60.3527 104.772C59.8908 103.984 59.7532 103.047 59.9689 102.16C60.0724 101.725 60.263 101.315 60.5293 100.955C60.7957 100.596 61.1321 100.294 61.5184 100.068L71.2727 93.9742C71.3759 93.9099 71.4911 93.8672 71.6113 93.8485C71.7315 93.8298 71.8542 93.8356 71.9721 93.8655C72.09 93.8954 72.2006 93.9488 72.2973 94.0225C72.3941 94.0963 72.4749 94.1888 72.5351 94.2945L87.3144 120.344C87.4321 120.551 87.4632 120.796 87.4011 121.026C87.3389 121.256 87.1885 121.451 86.9825 121.571L77.2672 127.197C76.7649 127.492 76.1933 127.648 75.611 127.649ZM71.4271 96.0041L62.462 101.612L62.436 101.628C62.2574 101.732 62.1019 101.872 61.9791 102.038C61.8563 102.205 61.7688 102.394 61.7218 102.596C61.6178 103.03 61.6866 103.488 61.9137 103.873L74.1524 124.984C74.3727 125.372 74.7347 125.659 75.1623 125.785C75.3607 125.843 75.569 125.861 75.7744 125.836C75.9798 125.811 76.178 125.745 76.3568 125.641L85.3017 120.457L71.4271 96.0041Z" fill="#F47B20"/>
</svg>
