<svg width="24" height="24" viewBox="0 0 24 24" fill="none" xmlns="http://www.w3.org/2000/svg">
<rect width="24" height="24" rx="4" fill="#FFF6ED"/>
<g clip-path="url(#clip0_1_3804)">
<path d="M7.5 4.5C7.5 4.88475 7.8675 5.25 8.25 5.25H15.75C16.1348 5.25 16.5 4.8825 16.5 4.5H18C18 5.74275 16.9928 6.75 15.75 6.75H12.75L12.7508 8.2965C15.7103 8.66625 18 11.1908 18 14.25V18.75C18 19.164 17.664 19.5 17.25 19.5H6.75C6.336 19.5 6 19.164 6 18.75V14.25C6 11.19 8.2905 8.6655 11.25 8.2965V6.75H8.25C7.005 6.75 6 5.745 6 4.5H7.5ZM12 9.75C9.5715 9.75 7.5 11.82 7.5 14.25V18H16.5V14.25C16.5 11.8215 14.4285 9.75 12 9.75ZM12 11.25C12.5565 11.25 13.077 11.4015 13.524 11.6655L11.469 13.7198C11.1765 14.0122 11.1765 14.4878 11.469 14.7802C11.7397 15.0503 12.1658 15.0712 12.459 14.8425L12.5302 14.7802L14.5852 12.726C14.8485 13.173 15 13.6935 15 14.25C15 15.9075 13.6575 17.25 12 17.25C10.3425 17.25 9 15.9075 9 14.25C9 12.5925 10.3425 11.25 12 11.25Z" fill="#F47B20"/>
</g>
<defs>
<clipPath id="clip0_1_3804">
<rect width="18" height="18" fill="white" transform="translate(3 3)"/>
</clipPath>
</defs>
</svg>
