<svg width="163" height="132" viewBox="0 0 163 132" fill="none" xmlns="http://www.w3.org/2000/svg">
<path d="M118.32 100.269H118.191C117.869 100.252 117.553 100.173 117.262 100.034C116.971 99.8958 116.71 99.7014 116.494 99.4621C116.279 99.2228 116.112 98.9433 116.004 98.6396C115.896 98.3359 115.849 98.0139 115.866 97.6921L119.307 33.1793C119.342 32.5284 119.635 31.9181 120.12 31.4826C120.604 31.0471 121.243 30.8221 121.893 30.8571C122.544 30.892 123.155 31.1842 123.59 31.6691C124.026 32.1541 124.251 32.7922 124.216 33.4431L120.774 97.9497C120.739 98.5769 120.465 99.167 120.009 99.5985C119.552 100.03 118.948 100.27 118.32 100.269Z" fill="#F47B20"/>
<path d="M110.368 83.9844L111.061 97.2244C111.061 97.2244 109.221 108.513 111.061 107.36C112.902 106.206 113.736 100.452 113.736 100.452C113.736 100.452 112.35 109.274 116.037 110.79C119.724 112.305 124.142 111.618 124.559 107.016C124.976 102.415 124.375 87.7821 124.375 87.7821L110.368 83.9844Z" fill="white"/>
<path d="M119.473 111.84C118.241 111.823 117.024 111.567 115.89 111.085C113.712 110.183 113.178 107.03 113.135 104.379C112.693 105.76 112.061 107.109 111.227 107.631C111.121 107.711 110.993 107.756 110.861 107.761C110.728 107.767 110.597 107.732 110.485 107.662C109.258 106.858 110.368 99.5017 110.742 97.2316L110.055 83.9978C110.053 83.9477 110.062 83.8978 110.082 83.852C110.102 83.8061 110.133 83.7657 110.172 83.734C110.212 83.7041 110.258 83.6837 110.307 83.6741C110.355 83.6646 110.406 83.6661 110.454 83.6787L124.43 87.4765C124.496 87.4937 124.554 87.5318 124.596 87.5849C124.638 87.638 124.662 87.7033 124.663 87.771C124.663 87.9182 125.277 102.496 124.847 107.042C124.82 107.845 124.598 108.629 124.2 109.327C123.803 110.025 123.242 110.615 122.565 111.048C121.626 111.591 120.557 111.864 119.473 111.84ZM114.012 100.588C113.884 101.49 112.908 109.177 116.135 110.502C118.381 111.429 120.718 111.429 122.24 110.502C122.833 110.122 123.323 109.602 123.667 108.988C124.012 108.374 124.2 107.685 124.215 106.981C124.602 102.766 124.117 89.9122 124.044 88.0225L110.712 84.3966L111.38 97.201C111.38 97.201 111.38 97.2501 111.38 97.2685C110.564 102.256 110.319 106.754 110.834 107.122L110.902 107.085C112.258 106.238 113.123 102.263 113.356 100.575C113.356 100.483 113.356 100.422 113.356 100.397C113.361 100.354 113.375 100.312 113.397 100.274C113.42 100.236 113.45 100.204 113.486 100.179C113.522 100.154 113.563 100.137 113.606 100.129C113.649 100.121 113.694 100.123 113.736 100.134C113.819 100.146 113.894 100.19 113.944 100.256C113.994 100.323 114.017 100.407 114.006 100.489C114.005 100.522 114.007 100.555 114.012 100.588Z" fill="#F47B20"/>
<path d="M109.919 87.5447L126.257 88.6527C127.606 88.7442 128.773 87.7249 128.865 86.376L128.887 86.0516C128.978 84.7027 127.959 83.535 126.61 83.4435L110.273 82.3355C108.924 82.244 107.756 83.2633 107.665 84.6122L107.643 84.9366C107.551 86.2855 108.57 87.4532 109.919 87.5447Z" fill="white"/>
<path d="M126.43 88.9735H126.24L109.896 87.863C109.533 87.8388 109.179 87.7435 108.854 87.5823C108.529 87.4211 108.238 87.1974 107.999 86.9238C107.761 86.6503 107.578 86.3323 107.462 85.9881C107.347 85.6439 107.3 85.2803 107.325 84.918V84.5929C107.348 84.2308 107.443 83.877 107.603 83.5516C107.764 83.2263 107.987 82.9358 108.26 82.6969C108.533 82.4581 108.851 82.2755 109.195 82.1597C109.538 82.0439 109.902 81.9972 110.264 82.0222L126.62 83.1265C127.35 83.1769 128.031 83.5144 128.513 84.0652C128.994 84.616 129.238 85.3351 129.191 86.0653V86.3966C129.145 87.0944 128.835 87.7485 128.325 88.2268C127.815 88.7051 127.142 88.9719 126.443 88.9735H126.43ZM110.098 82.6418C109.559 82.6438 109.041 82.85 108.648 83.2189C108.255 83.5878 108.017 84.092 107.981 84.6297V84.9548C107.962 85.2342 107.998 85.5147 108.088 85.78C108.177 86.0454 108.318 86.2904 108.503 86.5009C108.686 86.7129 108.909 86.8862 109.16 87.0105C109.411 87.1348 109.684 87.2077 109.963 87.2249L126.308 88.3354C126.87 88.3724 127.425 88.1845 127.85 87.813C128.274 87.4414 128.534 86.9166 128.571 86.3537V86.0224C128.609 85.4595 128.421 84.9049 128.049 84.4804C127.678 84.0559 127.153 83.7963 126.59 83.7585L110.245 82.648H110.098V82.6418Z" fill="#F47B20"/>
<path d="M51.8009 100.267C51.1718 100.268 50.5663 100.027 50.1096 99.5946C49.6529 99.1618 49.3799 98.5702 49.3468 97.9419L45.9049 33.4353C45.8699 32.7844 46.0949 32.1463 46.5304 31.6613C46.9659 31.1763 47.5763 30.8842 48.2271 30.8492C48.878 30.8143 49.5161 31.0393 50.0011 31.4748C50.4861 31.9103 50.7782 32.5206 50.8132 33.1715L54.2551 97.6781C54.2885 98.3272 54.0631 98.963 53.6283 99.4461C53.1936 99.9292 52.5849 100.22 51.9359 100.255L51.8009 100.267Z" fill="#F47B20"/>
<path d="M59.7454 83.9844L59.0521 97.2244C59.0521 97.2244 60.8927 108.513 59.0521 107.36C57.2115 106.206 56.4078 100.452 56.4078 100.452C56.4078 100.452 57.7882 109.274 54.1009 110.79C50.4136 112.305 45.9962 111.618 45.579 107.016C45.1618 102.415 45.7692 87.7821 45.7692 87.7821L59.7454 83.9844Z" fill="white"/>
<path d="M50.6467 111.84C49.5712 111.86 48.5106 111.586 47.579 111.048C46.9025 110.615 46.3413 110.025 45.9437 109.327C45.5462 108.629 45.3241 107.845 45.2967 107.042C44.8795 102.471 45.4746 87.9182 45.4808 87.771C45.4825 87.7033 45.5062 87.638 45.5482 87.5849C45.5903 87.5318 45.6484 87.4937 45.7139 87.4765L59.6901 83.6787C59.7383 83.6661 59.7887 83.6646 59.8376 83.6741C59.8864 83.6837 59.9325 83.7041 59.9724 83.734C60.0111 83.7657 60.0419 83.8061 60.0622 83.852C60.0824 83.8978 60.0916 83.9477 60.0889 83.9978L59.4018 97.2071C59.776 99.5017 60.8681 106.858 59.6595 107.637C59.5471 107.708 59.416 107.742 59.2835 107.737C59.151 107.731 59.0232 107.686 58.9171 107.606C58.0827 107.085 57.4569 105.735 57.009 104.355C56.9661 107.005 56.4323 110.159 54.2543 111.061C53.1143 111.554 51.8886 111.819 50.6467 111.84ZM46.082 88.0287C46.0023 89.9184 45.5176 102.753 45.9041 106.987C45.9195 107.691 46.1077 108.38 46.4522 108.994C46.7967 109.608 47.2869 110.128 47.8797 110.508C49.4012 111.429 51.7388 111.429 54.015 110.508C57.2483 109.177 56.2666 101.496 56.1439 100.594C56.1439 100.545 56.1439 100.514 56.1439 100.502C56.1334 100.419 56.1558 100.335 56.2062 100.269C56.2567 100.202 56.3313 100.158 56.4139 100.146C56.4968 100.134 56.5812 100.154 56.649 100.204C56.7167 100.253 56.7623 100.327 56.7759 100.41C56.7759 100.41 56.7759 100.496 56.7759 100.588C57.0336 102.275 57.8925 106.251 59.23 107.097L59.3036 107.134C59.8067 106.797 59.5613 102.287 58.7453 97.2807C58.7422 97.2583 58.7422 97.2356 58.7453 97.2132L59.4141 84.4088L46.082 88.0287Z" fill="#F47B20"/>
<path d="M59.8444 82.3337L43.5068 83.4418C42.1579 83.5333 41.1386 84.7009 41.2301 86.0498L41.2521 86.3742C41.3436 87.7231 42.5112 88.7424 43.8601 88.651L60.1977 87.5429C61.5466 87.4514 62.566 86.2838 62.4745 84.9349L62.4525 84.6104C62.361 83.2616 61.1933 82.2422 59.8444 82.3337Z" fill="white"/>
<path d="M43.6893 88.9722C42.99 88.9707 42.3173 88.7038 41.8072 88.2255C41.297 87.7472 40.9873 87.0932 40.9407 86.3954V86.0641C40.9165 85.7023 40.9639 85.3394 41.08 84.9959C41.1961 84.6524 41.3787 84.3352 41.6174 84.0623C41.8561 83.7894 42.1462 83.5662 42.4712 83.4054C42.7962 83.2446 43.1496 83.1494 43.5114 83.1253L59.8559 82.0148C60.2174 81.9889 60.5804 82.0352 60.9238 82.1511C61.2672 82.267 61.5841 82.4501 61.856 82.6897C62.1303 82.9281 62.3549 83.2183 62.517 83.5436C62.6791 83.8689 62.7755 84.2229 62.8008 84.5855V84.9107C62.8258 85.2724 62.7794 85.6356 62.664 85.9794C62.5487 86.3232 62.3667 86.6409 62.1286 86.9144C61.8904 87.1879 61.6007 87.4117 61.276 87.5732C60.9514 87.7347 60.598 87.8307 60.2363 87.8556L43.8857 88.9661L43.6893 88.9722ZM59.8743 82.6467L43.5298 83.7572C42.967 83.795 42.4421 84.0547 42.0705 84.4792C41.699 84.9036 41.5111 85.4582 41.5481 86.0211V86.3524C41.5859 86.9153 41.8456 87.4402 42.27 87.8117C42.6945 88.1833 43.2491 88.3712 43.812 88.3342L60.1872 87.2482C60.4655 87.2302 60.7374 87.1569 60.9871 87.0326C61.2368 86.9083 61.4592 86.7355 61.6412 86.5242C61.8258 86.3137 61.967 86.0686 62.0565 85.8033C62.146 85.5379 62.1821 85.2575 62.1627 84.9781V84.653C62.1227 84.09 61.8626 83.5654 61.4388 83.1928C61.229 83.007 60.984 82.8651 60.7185 82.7756C60.453 82.686 60.1722 82.6505 59.8927 82.6713L59.8743 82.6467Z" fill="#F47B20"/>
<path d="M76.084 116.7C75.4331 116.7 74.8089 116.441 74.3487 115.981C73.8884 115.52 73.6299 114.896 73.6299 114.245V60.8682C73.6299 60.2173 73.8884 59.5931 74.3487 59.1329C74.8089 58.6726 75.4331 58.4141 76.084 58.4141C76.7349 58.4141 77.3591 58.6726 77.8193 59.1329C78.2796 59.5931 78.5381 60.2173 78.5381 60.8682V114.245C78.5381 114.896 78.2796 115.52 77.8193 115.981C77.3591 116.441 76.7349 116.7 76.084 116.7Z" fill="#F47B20"/>
<path d="M94.0362 116.7C93.3853 116.7 92.7611 116.441 92.3008 115.981C91.8406 115.52 91.582 114.896 91.582 114.245V60.8682C91.582 60.2173 91.8406 59.5931 92.3008 59.1329C92.7611 58.6726 93.3853 58.4141 94.0362 58.4141C94.687 58.4141 95.3112 58.6726 95.7715 59.1329C96.2317 59.5931 96.4903 60.2173 96.4903 60.8682V114.245C96.4903 114.896 96.2317 115.52 95.7715 115.981C95.3112 116.441 94.687 116.7 94.0362 116.7Z" fill="#F47B20"/>
<path d="M85.0598 132C106.756 132 124.344 129.91 124.344 127.331C124.344 124.752 106.756 122.662 85.0598 122.662C63.3636 122.662 45.7754 124.752 45.7754 127.331C45.7754 129.91 63.3636 132 85.0598 132Z" fill="#E6E7E8"/>
<path d="M85.0599 80.9538C107.237 80.9538 125.215 62.9755 125.215 40.7982C125.215 18.6209 107.237 0.642578 85.0599 0.642578C62.8826 0.642578 44.9043 18.6209 44.9043 40.7982C44.9043 62.9755 62.8826 80.9538 85.0599 80.9538Z" fill="#FEEFD2"/>
<path d="M85.0844 0.643022C95.5991 0.686671 105.677 4.85281 113.154 12.2464C120.63 19.64 124.908 29.6711 125.069 40.1846C125.229 50.6982 121.26 60.8553 114.013 68.4739C106.766 76.0926 96.82 80.5647 86.3115 80.9297C85.882 80.9297 85.4464 80.9297 85.0169 80.9297C74.5023 80.886 64.4242 76.7199 56.9478 69.3263C49.4715 61.9327 45.1934 51.9016 45.0327 41.3881C44.872 30.8745 48.8416 20.7174 56.0885 13.0988C63.3354 5.48016 73.2814 1.00798 83.7899 0.643022C84.2194 0.643022 84.655 0.643022 85.0844 0.643022ZM85.0844 0.0294906C84.6488 0.0294906 84.2009 0.0294906 83.7653 0.0294906C73.0547 0.351145 62.9009 4.87472 55.4986 12.6224C48.0963 20.3701 44.0403 30.7196 44.2071 41.4337C44.3739 52.1479 48.7503 62.366 56.3902 69.8795C64.0302 77.3929 74.3199 81.5982 85.0354 81.5862C85.471 81.5862 85.9188 81.5862 86.3544 81.5862C97.1728 81.4178 107.481 76.9587 115.012 69.1899C122.542 61.4211 126.678 50.9789 126.51 40.1606C126.342 29.3422 121.883 19.0339 114.114 11.5032C106.345 3.97259 95.9028 -0.163465 85.0844 0.00494876V0.0294906Z" fill="#F47B20"/>
<path d="M72.0974 38.5193C73.8585 38.4633 75.1785 35.0301 75.0457 30.8508C74.9129 26.6716 73.3776 23.329 71.6165 23.385C69.8554 23.441 68.5354 26.8743 68.6682 31.0535C68.801 35.2327 70.3363 38.5753 72.0974 38.5193Z" fill="#F47B20"/>
<path d="M98.463 37.9622C100.225 37.9094 101.552 34.4769 101.426 30.2956C101.301 26.1142 99.7707 22.7674 98.0087 22.8203C96.2467 22.8732 94.92 26.3057 95.0455 30.487C95.1709 34.6683 96.701 38.0151 98.463 37.9622Z" fill="#F47B20"/>
<path d="M57.3128 42.787C60.0086 42.7014 62.1499 41.2427 62.0955 39.529C62.041 37.8153 59.8114 36.4956 57.1156 36.5812C54.4198 36.6669 52.2785 38.1255 52.333 39.8392C52.3874 41.5529 54.617 42.8727 57.3128 42.787Z" fill="white"/>
<path d="M113.012 42.7792C115.708 42.6936 117.849 41.2349 117.795 39.5212C117.74 37.8075 115.511 36.4877 112.815 36.5734C110.119 36.6591 107.978 38.1177 108.032 39.8314C108.087 41.5451 110.316 42.8649 113.012 42.7792Z" fill="white"/>
<path d="M84.1084 103.329C84.1084 103.329 66.7945 99.9486 66.6534 101.636C66.5123 103.323 67.2179 117.14 67.2179 117.14C67.2179 117.14 50.6525 126.042 53.2048 127.171C55.7571 128.3 84.1084 123.06 84.1084 123.06V103.329Z" fill="white"/>
<path d="M54.6416 127.637C54.1137 127.67 53.5842 127.61 53.0771 127.459C52.9497 127.413 52.8387 127.33 52.758 127.221C52.6773 127.112 52.6304 126.981 52.6231 126.846C52.6231 126.453 52.574 125.429 59.8873 120.974C62.9856 119.091 66.1269 117.373 66.8938 116.956C66.8018 115.189 66.2066 103.213 66.3416 101.617C66.3505 101.533 66.3769 101.451 66.4191 101.377C66.4614 101.303 66.5185 101.239 66.587 101.188C68.1883 99.9609 81.5142 102.507 84.1708 103.029C84.2434 103.043 84.3087 103.082 84.3557 103.139C84.4027 103.196 84.4285 103.268 84.4285 103.341V123.073C84.4285 123.147 84.4027 123.218 84.3557 123.275C84.3087 123.332 84.2434 123.371 84.1708 123.386C81.5694 123.852 60.875 127.637 54.6416 127.637ZM68.3969 101.464C67.5993 101.464 67.0962 101.538 66.9613 101.697C66.8324 103.317 67.5257 116.986 67.538 117.128C67.5393 117.187 67.5247 117.246 67.4955 117.297C67.4664 117.349 67.4238 117.392 67.3723 117.422C60.4026 121.171 53.2182 125.711 53.2611 126.821C53.2611 126.821 53.2918 126.858 53.3409 126.883C55.3287 127.766 75.747 124.275 83.8027 122.797V103.593C77.6735 102.403 71.2192 101.464 68.3969 101.464Z" fill="#F47B20"/>
<path d="M86.0107 103.329C86.0107 103.329 103.325 99.9486 103.466 101.636C103.607 103.323 102.901 117.14 102.901 117.14C102.901 117.14 119.467 126.042 116.914 127.171C114.362 128.3 86.0107 123.06 86.0107 123.06V103.329Z" fill="white"/>
<path d="M115.478 127.637C109.251 127.637 88.5505 123.852 85.9491 123.373C85.8765 123.359 85.8112 123.32 85.7642 123.263C85.7172 123.206 85.6914 123.134 85.6914 123.06V103.329C85.6914 103.255 85.7172 103.184 85.7642 103.127C85.8112 103.07 85.8765 103.031 85.9491 103.016C88.6057 102.501 101.901 99.9487 103.533 101.176C103.601 101.226 103.659 101.291 103.701 101.365C103.743 101.439 103.769 101.52 103.778 101.605C103.913 103.207 103.318 115.183 103.226 116.943C106.012 118.447 117.57 124.815 117.497 126.834C117.49 126.969 117.443 127.099 117.362 127.208C117.281 127.318 117.17 127.4 117.043 127.447C116.536 127.601 116.007 127.666 115.478 127.637ZM86.3234 122.797C94.379 124.275 114.803 127.766 116.785 126.883C116.834 126.883 116.865 126.84 116.865 126.821C116.908 125.711 109.723 121.171 102.754 117.422C102.701 117.393 102.658 117.351 102.629 117.299C102.599 117.246 102.585 117.187 102.588 117.128C102.588 116.986 103.287 103.317 103.153 101.667C102.539 100.955 94.1643 102.071 86.3234 103.593V122.797Z" fill="#F47B20"/>
<path d="M110.166 55.5359H59.9545C59.7104 55.5359 59.4763 55.439 59.3037 55.2664C59.1311 55.0938 59.0342 54.8597 59.0342 54.6156C59.0342 54.3715 59.1311 54.1375 59.3037 53.9649C59.4763 53.7923 59.7104 53.6953 59.9545 53.6953H110.166C110.41 53.6953 110.644 53.7923 110.817 53.9649C110.989 54.1375 111.086 54.3715 111.086 54.6156C111.086 54.8597 110.989 55.0938 110.817 55.2664C110.644 55.439 110.41 55.5359 110.166 55.5359Z" fill="#F47B20"/>
<path d="M5.19047 66.672C8.05709 66.672 10.3809 64.3481 10.3809 61.4815C10.3809 58.6149 8.05709 56.291 5.19047 56.291C2.32385 56.291 0 58.6149 0 61.4815C0 64.3481 2.32385 66.672 5.19047 66.672Z" fill="#E6E7E8"/>
<path d="M27.9834 66.672C30.8501 66.672 33.1739 64.3481 33.1739 61.4815C33.1739 58.6149 30.8501 56.291 27.9834 56.291C25.1168 56.291 22.793 58.6149 22.793 61.4815C22.793 64.3481 25.1168 66.672 27.9834 66.672Z" fill="#E6E7E8"/>
<path d="M134.455 66.672C137.322 66.672 139.646 64.3481 139.646 61.4815C139.646 58.6149 137.322 56.291 134.455 56.291C131.588 56.291 129.265 58.6149 129.265 61.4815C129.265 64.3481 131.588 66.672 134.455 66.672Z" fill="#E6E7E8"/>
<path d="M157.248 66.672C160.115 66.672 162.439 64.3481 162.439 61.4815C162.439 58.6149 160.115 56.291 157.248 56.291C154.381 56.291 152.058 58.6149 152.058 61.4815C152.058 64.3481 154.381 66.672 157.248 66.672Z" fill="#E6E7E8"/>
</svg>
