<svg width="112" height="64" viewBox="0 0 112 64" fill="none" xmlns="http://www.w3.org/2000/svg">
<ellipse cx="56" cy="57" rx="56" ry="6" fill="#FEF6D2"/>
<path d="M62.3309 5.94327C62.2968 6.03705 62.2815 6.13663 62.2859 6.23632C62.2903 6.33601 62.3143 6.43386 62.3566 6.52426C62.7658 6.61253 64.228 7.58353 64.6372 7.67181C64.6372 7.67181 67.5261 4.19066 64.9454 3.65942C65.0433 3.68029 64.4398 3.59202 64.0466 3.85041C63.8286 3.99526 63.6605 4.20371 63.5651 4.44745C63.4329 4.45481 63.304 4.49216 63.1884 4.55668C63.0727 4.62119 62.9732 4.71116 62.8975 4.8198C62.8346 4.91924 62.7929 5.03055 62.775 5.1468C62.757 5.26304 62.7632 5.38173 62.7931 5.49549C62.6883 5.5323 62.5927 5.59138 62.5129 5.66868C62.4331 5.74598 62.371 5.83966 62.3309 5.94327Z" fill="#DD1E25"/>
<path d="M62.2522 7.0153C62.5967 7.16611 62.9308 7.33984 63.2521 7.53532C63.8732 7.8868 64.268 8.10507 64.536 8.16285C64.6259 8.1821 64.7193 8.17643 64.8061 8.14644C64.8929 8.11646 64.9699 8.0633 65.0288 7.99272C65.2246 7.7568 66.929 5.64307 66.4315 4.22911C66.2967 3.84713 65.95 3.35441 65.0528 3.17145C65.0053 3.16197 64.9567 3.15926 64.9084 3.16342C64.5115 3.13638 64.1158 3.2322 63.7753 3.43787C63.5541 3.58486 63.3688 3.77955 63.2328 4.00762C62.9634 4.08087 62.7245 4.23853 62.5512 4.45747C62.3779 4.67641 62.2793 4.94511 62.2698 5.22418C62.0858 5.36284 61.9449 5.55098 61.8638 5.76665C61.8055 5.92363 61.7791 6.09067 61.7863 6.25797C61.7935 6.42526 61.834 6.58945 61.9055 6.74086C61.9403 6.80876 61.9892 6.86839 62.049 6.91574C62.1088 6.96309 62.1781 6.99704 62.2522 7.0153ZM62.8043 6.12134C62.8189 6.08879 62.84 6.05951 62.8662 6.03525C62.8924 6.01099 62.9232 5.99224 62.9568 5.98012C63.0777 5.93823 63.1782 5.85189 63.2378 5.73862C63.2974 5.62535 63.3117 5.49364 63.2777 5.37023C63.2664 5.32512 63.264 5.2782 63.2709 5.23219C63.2778 5.18618 63.2938 5.142 63.3179 5.1022C63.3495 5.06015 63.3899 5.02537 63.4361 5.00018C63.4823 4.97499 63.5334 4.95998 63.5859 4.95616C63.6836 4.95189 63.778 4.91926 63.8575 4.86226C63.937 4.80526 63.9982 4.72636 64.0337 4.63517C64.0908 4.4881 64.1916 4.36207 64.3226 4.27405C64.5004 4.18234 64.7015 4.14547 64.9003 4.16812C65.3818 4.27886 65.4508 4.48911 65.4765 4.56133C65.6739 5.11825 65.0641 6.26419 64.475 7.05864C64.2568 6.9479 63.9647 6.78259 63.7448 6.6574C63.3403 6.42789 63.0322 6.25616 62.7914 6.14703C62.7977 6.13789 62.8046 6.12929 62.8123 6.12134H62.8043Z" fill="#AB6116"/>
<path d="M65.0603 58.3272L69.9105 58.669C70.2218 58.6851 70.3791 58.2646 70.1127 58.1009C69.7724 57.8986 66.2335 57.1283 65.3957 56.9774C64.4183 56.7928 63.6447 56.1974 63.4602 55.212L62.0639 47.7136L59.7383 47.9961L62.0976 56.1107C62.1794 56.5553 62.051 56.7078 61.8648 56.8747C61.4106 57.2823 59.9726 58.332 60.1684 58.9226C60.2727 59.2436 60.82 58.9852 61.1619 58.8199C62.3592 58.2389 62.8503 58.8408 63.1392 59.1409C64.1375 60.1793 65.1165 60.5998 65.7857 60.5982C66.5882 60.5982 66.1067 60.1167 66.1067 60.1167C65.667 59.8711 65.2786 59.4202 64.8404 58.9499C64.6029 58.7124 64.7297 58.3127 65.0603 58.3272Z" fill="#FDEBA5"/>
<path d="M70.7047 58.5905C70.7598 58.4215 70.7562 58.2388 70.6944 58.0722C70.6326 57.9055 70.5164 57.7647 70.3644 57.6724H70.3532H70.3404C69.7465 57.3595 65.5255 56.4992 65.4805 56.4912C65.0809 56.4158 64.1324 56.1317 63.9462 55.135L62.5499 47.6367C62.526 47.5111 62.4555 47.3992 62.3524 47.3236C62.2494 47.248 62.1215 47.2142 61.9946 47.229L59.669 47.5115C59.5965 47.5204 59.5267 47.545 59.4646 47.5836C59.4025 47.6221 59.3496 47.6737 59.3094 47.7348C59.2693 47.7959 59.2429 47.865 59.2321 47.9373C59.2213 48.0095 59.2264 48.0833 59.2469 48.1535L61.5998 56.2424C61.6319 56.419 61.6222 56.4254 61.5211 56.5169C61.4505 56.5811 61.3606 56.6613 61.2419 56.7544C60.2404 57.589 59.4331 58.3417 59.6835 59.0976C59.7143 59.1942 59.7657 59.283 59.8341 59.3578C59.9026 59.4326 59.9864 59.4917 60.0799 59.531C60.4731 59.6915 60.9337 59.5021 61.3735 59.2902C62.1872 58.8954 62.4616 59.1843 62.7264 59.4636L62.7682 59.5085C63.7536 60.5325 64.8546 61.1134 65.7742 61.1134C66.2557 61.1134 66.5623 60.953 66.6891 60.6528C66.8271 60.3206 66.657 59.9804 66.4499 59.7733C66.4171 59.7405 66.3798 59.7124 66.3392 59.6899C65.9992 59.4627 65.6933 59.1881 65.4308 58.8745L69.8797 59.1955C70.0651 59.2014 70.247 59.1449 70.3965 59.0353C70.5461 58.9256 70.6546 58.769 70.7047 58.5905ZM65.0777 57.8265C64.9142 57.8169 64.7515 57.857 64.6112 57.9415C64.4708 58.026 64.3593 58.1509 64.2913 58.3C64.2175 58.4627 64.1934 58.6437 64.2219 58.8201C64.2505 58.9965 64.3304 59.1606 64.4518 59.2918L64.6043 59.4523C64.7567 59.6128 64.9044 59.7733 65.0552 59.9338C64.4586 59.6654 63.9233 59.2776 63.4824 58.7943L63.4455 58.7558C63.2765 58.5486 63.0646 58.3804 62.8243 58.2629C62.5841 58.1455 62.3213 58.0814 62.054 58.0753C61.6665 58.0858 61.2863 58.1834 60.9417 58.361C61.2368 58.0617 61.5482 57.7788 61.8742 57.5136C61.9962 57.4108 62.1037 57.3226 62.1824 57.2519C62.4568 57.0048 62.6944 56.6854 62.574 56.0225C62.574 56.0065 62.574 55.9888 62.5627 55.9728L60.3688 48.4295L61.6367 48.269L62.9463 55.3035C63.1566 56.4174 64.0297 57.2295 65.2831 57.4622C65.8048 57.5617 66.9009 57.796 67.8912 58.0255L65.0777 57.8265Z" fill="#AB6116"/>
<path d="M48.595 59.0962C48.6993 59.4172 49.2466 59.1588 49.5885 58.9935C50.7858 58.4125 51.2769 59.0143 51.5658 59.3145C52.5641 60.3529 53.5431 60.7734 54.2123 60.7718C55.0148 60.7718 54.5333 60.2903 54.5333 60.2903C54.0936 60.0447 53.7052 59.5937 53.267 59.1235C53.0455 58.8875 53.1723 58.4815 53.4949 58.504L57.2008 58.8458C57.5121 58.8619 57.6694 58.4414 57.403 58.2777C57.0627 58.0754 54.8351 57.4206 53.9587 57.1285C53.015 56.8156 52.012 56.3646 52.0232 55.3631C52.036 54.1545 53.3168 49.1326 53.3168 49.1326L50.7633 48.7458C50.7633 48.7458 50.6269 54.2332 50.5932 55.3518C50.5771 55.9104 50.667 56.7706 50.2256 57.1622C49.7843 57.5538 48.3992 58.5056 48.595 59.0962Z" fill="#FDEBA5"/>
<path d="M53.7268 48.858C53.688 48.7994 53.6374 48.7496 53.5782 48.7118C53.5191 48.6739 53.4527 48.6488 53.3833 48.6381L50.8298 48.2513C50.7596 48.2409 50.6879 48.2454 50.6195 48.2646C50.5512 48.2838 50.4876 48.3172 50.4331 48.3627C50.3785 48.4081 50.3342 48.4646 50.303 48.5284C50.2718 48.5922 50.2544 48.6618 50.252 48.7328C50.252 48.7328 50.1156 54.2169 50.0819 55.3356C50.0819 55.4335 50.0819 55.5394 50.0819 55.6566C50.0819 56.037 50.0819 56.6196 49.8861 56.7897C49.8075 56.8587 49.7015 56.9502 49.5812 57.0433C48.8108 57.666 47.851 58.4412 48.1206 59.2549C48.1516 59.3514 48.203 59.4401 48.2714 59.5149C48.3399 59.5897 48.4237 59.6488 48.5171 59.6882C48.9103 59.8487 49.3709 59.6593 49.8107 59.4475C50.6244 59.0527 50.8988 59.3416 51.1636 59.6208L51.2054 59.6657C52.1908 60.6897 53.2918 61.2707 54.2115 61.2707C54.6929 61.2707 54.9995 61.1102 55.1263 60.8101C55.2643 60.4779 55.0926 60.1376 54.8871 59.9306C54.8543 59.8973 54.817 59.8686 54.7764 59.8455C54.4401 59.6222 54.1374 59.352 53.8776 59.043L57.1742 59.348C57.3569 59.3548 57.5369 59.3015 57.6865 59.1963C57.8361 59.091 57.947 58.9397 58.0024 58.7654C58.0575 58.5975 58.0546 58.416 57.9941 58.2501C57.9335 58.0841 57.8188 57.9434 57.6685 57.8506L57.6525 57.8409C57.3812 57.6804 56.4808 57.3931 55.1391 56.9727C54.7347 56.8459 54.3655 56.7303 54.1087 56.6517C52.9724 56.2761 52.5118 55.907 52.5182 55.3773C52.5279 54.4352 53.4443 50.6459 53.8022 49.2657C53.8192 49.1962 53.8213 49.124 53.8083 49.0537C53.7953 48.9834 53.7675 48.9167 53.7268 48.858ZM51.5119 55.3613C51.4959 56.8426 53.1056 57.3739 53.7926 57.6082C54.0526 57.6949 54.4345 57.812 54.839 57.9404L55.6912 58.2085L53.5181 58.0078C53.3546 57.9984 53.1921 58.0386 53.0518 58.1231C52.9115 58.2075 52.7999 58.3324 52.7317 58.4813C52.6575 58.6443 52.6332 58.8255 52.6618 59.0023C52.6903 59.179 52.7705 59.3434 52.8922 59.4748L53.0527 59.6353C53.2035 59.7958 53.3512 59.9562 53.5021 60.1071C52.9055 59.8386 52.3702 59.4508 51.9292 58.9676L51.8923 58.9291C51.7233 58.7218 51.5114 58.5537 51.2712 58.4362C51.031 58.3188 50.7681 58.2547 50.5008 58.2486C50.1241 58.258 49.7541 58.3506 49.4175 58.5198C49.6887 58.2502 50.0482 57.9581 50.2103 57.8281C50.3451 57.7189 50.4639 57.6226 50.5522 57.544C51.0882 57.0625 51.0866 56.26 51.085 55.6566C51.085 55.5555 51.085 55.4608 51.085 55.3725C51.1123 54.4753 51.2054 50.7695 51.2455 49.3347L52.69 49.553C52.3433 50.9284 51.5231 54.3277 51.5119 55.3629V55.3613Z" fill="#AB6116"/>
<path d="M61.2811 49.9285C65.0752 48.9335 62.4623 41.082 62.4623 41.082L56.1035 42.8475C56.1035 42.8475 57.6619 50.8771 61.2811 49.9285Z" fill="#FAFAFA"/>
<path d="M59.2045 50.0602C59.6472 50.3494 60.1636 50.5054 60.6923 50.5096C60.9345 50.5089 61.1757 50.4771 61.4097 50.4149C61.8054 50.3156 62.1754 50.1332 62.4951 49.8797C62.8147 49.6262 63.0767 49.3075 63.2635 48.9448C64.7079 46.2918 63.0147 41.1415 62.9425 40.92C62.9006 40.7987 62.814 40.698 62.7004 40.6383C62.5867 40.5787 62.4546 40.5646 62.331 40.599L55.9722 42.3645C55.8502 42.3985 55.7455 42.4771 55.6789 42.5847C55.6123 42.6924 55.5887 42.8212 55.6127 42.9455C55.6544 43.1653 56.7137 48.4938 59.2045 50.0602ZM62.1239 41.6984C62.4899 42.9824 63.3855 46.6064 62.3775 48.4665C62.2559 48.7076 62.0837 48.9196 61.8726 49.088C61.6616 49.2564 61.4166 49.3773 61.1546 49.4423C60.916 49.5078 60.6662 49.521 60.4221 49.4808C60.178 49.4406 59.9455 49.3481 59.7406 49.2096C57.9944 48.1118 57.0009 44.483 56.6912 43.2023L62.1239 41.6984Z" fill="#AB6116"/>
<path d="M56.1976 43.3209L49.4568 43.0657C49.4568 43.0657 48.1022 50.296 51.8289 50.6234C55.7386 50.9685 56.1976 43.3209 56.1976 43.3209Z" fill="#FAFAFA"/>
<path d="M51.7898 51.1259C51.8904 51.1345 51.9899 51.1388 52.0884 51.1388C52.8477 51.1394 53.5805 50.8593 54.1459 50.3523C56.372 48.4264 56.6881 43.5586 56.6994 43.3515C56.7035 43.2848 56.6942 43.2179 56.6721 43.1547C56.65 43.0916 56.6156 43.0335 56.5707 42.9839C56.5259 42.9342 56.4715 42.894 56.411 42.8657C56.3504 42.8373 56.2847 42.8213 56.2179 42.8187L49.4771 42.5635C49.3566 42.5595 49.2385 42.5987 49.1444 42.674C49.0502 42.7494 48.986 42.8559 48.9635 42.9744C48.9266 43.1702 48.0808 47.8149 49.7355 49.9961C49.9751 50.3225 50.283 50.5927 50.6379 50.7879C50.9927 50.983 51.3858 51.0984 51.7898 51.1259ZM49.8896 43.5827L55.6497 43.8009C55.5101 45.056 55.0078 48.2739 53.4895 49.5868C53.274 49.7827 53.0198 49.9313 52.7434 50.0231C52.467 50.1149 52.1744 50.1478 51.8845 50.1196C51.6213 50.103 51.3651 50.0285 51.134 49.9014C50.9029 49.7744 50.7027 49.5979 50.5476 49.3846C49.4113 47.8952 49.7275 44.735 49.888 43.5859L49.8896 43.5827Z" fill="#AB6116"/>
<path d="M49.2316 18.8021C40.751 20.6397 37.8813 26.3357 39.719 34.8163C41.5567 43.2968 50.2523 48.8387 56.8487 47.2322C62.1659 46.1344 65.8204 44.1828 68.2101 41.7192L68.2294 41.7031C80.1285 31.2244 74.0425 23.3714 73.4118 20.1197C72.5965 15.9276 73.6782 9.73889 73.6782 9.73889L73.537 9.75333C73.76 9.06429 73.8313 8.33512 73.7458 7.61593C73.6604 6.89674 73.4202 6.20458 73.0418 5.58701C72.6635 4.96945 72.1559 4.44112 71.554 4.03834C70.9521 3.63555 70.2701 3.36787 69.5549 3.25368C68.8397 3.13948 68.1083 3.18148 67.4108 3.37679C66.7134 3.5721 66.0665 3.9161 65.5147 4.38514C64.9628 4.85417 64.5191 5.43712 64.2139 6.09394C63.9087 6.75075 63.7493 7.46586 63.7468 8.1901C63.7468 8.1901 63.7468 8.19974 63.7468 8.20455C63.6472 10.5542 64.3229 12.9857 64.4096 15.0176C64.538 18.0493 61.1484 18.4137 59.0106 18.343C58.4617 18.2767 57.909 18.2269 57.3526 18.1938H57.3205H57.3334C54.6177 18.0336 51.8929 18.2382 49.2316 18.8021Z" fill="#FAFAFA"/>
<path d="M59.0538 17.8407C58.5081 17.7749 57.948 17.7251 57.4007 17.6914C57.3671 17.6882 57.3332 17.6882 57.2996 17.6914C54.5587 17.5352 51.8091 17.7457 49.124 18.3174C44.8291 19.2482 41.8166 21.1854 40.1683 24.0759C38.5842 26.8525 38.2681 30.5038 39.2262 34.9286C40.1747 39.3021 42.9738 43.223 46.9075 45.6818C49.3519 47.2113 52.0081 48.0154 54.4813 48.0154C55.3121 48.0184 56.1402 47.9219 56.9481 47.7281C62.0262 46.6801 65.9358 44.783 68.5503 42.0915H68.5599C78.7787 33.0813 76.0101 25.8029 74.5271 21.8948C74.2739 21.288 74.0668 20.663 73.9076 20.025C73.1212 15.9741 74.166 9.88815 74.1757 9.82717C74.1943 9.72124 74.1785 9.61214 74.1307 9.5158C74.3187 8.75709 74.3435 7.9671 74.2034 7.19809C74.0633 6.42909 73.7615 5.6986 73.3179 5.05496C72.8744 4.41132 72.2992 3.86921 71.6305 3.46447C70.9617 3.05974 70.2147 2.80162 69.4388 2.70719C68.6628 2.61275 67.8757 2.68416 67.1294 2.91669C66.3831 3.14922 65.6947 3.53757 65.1097 4.05604C64.5248 4.5745 64.0566 5.21128 63.7361 5.92423C63.4156 6.63718 63.2502 7.41005 63.2507 8.19172C63.2507 8.19172 63.2507 8.19975 63.2507 8.20456C63.193 9.63136 63.4112 11.0534 63.6103 12.4272C63.7558 13.2924 63.857 14.1645 63.9136 15.04C63.9441 15.7687 63.7531 16.3336 63.3166 16.7718C62.5686 17.5229 61.0552 17.8985 59.0538 17.8407ZM64.0291 17.478C64.6615 16.836 64.9584 16.0046 64.9167 14.9967C64.8567 14.0855 64.7495 13.1781 64.5957 12.2779C64.3967 10.9442 64.1912 9.56556 64.2474 8.22703C64.2474 8.22703 64.2474 8.19814 64.2474 8.19172C64.2466 7.53815 64.3877 6.89221 64.661 6.29851C64.9343 5.70482 65.3332 5.17753 65.8302 4.75309C66.3272 4.32865 66.9104 4.01718 67.5396 3.84019C68.1687 3.66321 68.8288 3.62493 69.4742 3.728C70.1196 3.83108 70.7349 4.07305 71.2776 4.43719C71.8203 4.80134 72.2775 5.27897 72.6176 5.8371C72.9576 6.39522 73.1725 7.02053 73.2473 7.6698C73.322 8.31908 73.2549 8.97685 73.0506 9.59766C73.0266 9.6705 73.0197 9.74786 73.0303 9.8238C73.0408 9.89975 73.0687 9.97227 73.1116 10.0358C72.8885 11.469 72.1936 16.5359 72.9094 20.216C73.078 20.9109 73.3013 21.5914 73.577 22.2511C75.076 26.1913 77.5894 32.7876 67.8955 41.3195L67.865 41.3452L67.8409 41.3693C65.3629 43.9244 61.6282 45.7316 56.7218 46.7443C53.8746 47.4376 50.4898 46.7443 47.4339 44.8264C43.7297 42.5072 41.0928 38.8206 40.202 34.7152C39.2968 30.5423 39.5777 27.1286 41.035 24.5735C42.5356 21.9413 45.3266 20.1679 49.3294 19.2996C51.372 18.8635 53.4551 18.6451 55.5438 18.648C56.1312 18.648 56.7186 18.6656 57.3092 18.6993H57.3269C57.8758 18.7331 58.423 18.7812 58.9559 18.8454H58.9992C60.6234 18.8951 62.811 18.7042 64.0291 17.4764V17.478Z" fill="#AB6116"/>
<path d="M50.6759 38.447C56.4136 37.468 60.5769 33.2325 62.2894 29.0981L47.405 21.2146C41.1698 23.2272 35.7467 27.2444 35.1641 31.2488C40.8761 40.0584 46.9492 39.0825 50.6759 38.447Z" fill="#FAFAFA"/>
<path d="M47.5656 21.6943C47.6933 21.6532 47.7994 21.5631 47.8607 21.4438C47.9219 21.3244 47.9333 21.1856 47.8922 21.0579C47.8511 20.9302 47.761 20.8241 47.6417 20.7628C47.5223 20.7016 47.3835 20.6903 47.2558 20.7313C40.4203 22.9381 35.2444 27.2314 34.6714 31.1715C34.6536 31.2924 34.6804 31.4157 34.7468 31.5182C38.9566 38.0086 43.3622 39.3472 46.914 39.3472C48.2074 39.3225 49.4962 39.1855 50.7659 38.9379C57.1151 37.8546 61.1981 33.0622 62.7597 29.2857C62.8013 29.1645 62.7951 29.0319 62.7424 28.915C62.6897 28.7982 62.5944 28.7058 62.476 28.6567C62.3575 28.6076 62.2248 28.6055 62.1049 28.6508C61.985 28.6961 61.8868 28.7854 61.8304 28.9005C60.3651 32.4395 56.5421 36.9253 50.5958 37.9461C47.0873 38.5447 41.2325 39.551 35.6954 31.133C36.3486 27.6102 41.1843 23.7502 47.5656 21.6943Z" fill="#AB6116"/>
<path d="M64.3094 13.379C65.4987 11.591 63.6466 9.22534 63.6466 9.22534C63.6466 9.22534 63.7445 10.4114 63.3802 11.0791C62.353 12.9633 64.3094 13.379 64.3094 13.379Z" fill="#DD1E25"/>
<path d="M62.7292 12.7708C63.1192 13.6182 64.0966 13.8477 64.2074 13.8717C64.2417 13.879 64.2766 13.8828 64.3117 13.883C64.3946 13.883 64.4763 13.8625 64.5494 13.8233C64.6225 13.7841 64.6847 13.7274 64.7305 13.6583C66.1044 11.5911 64.1303 9.02319 64.0452 8.91565C63.9782 8.8312 63.8858 8.77049 63.7817 8.74244C63.6775 8.71439 63.5672 8.72049 63.4668 8.75982C63.3664 8.79916 63.2812 8.86966 63.2238 8.96098C63.1665 9.0523 63.1399 9.15961 63.1481 9.26714C63.1705 9.55603 63.1786 10.4034 62.941 10.84C62.543 11.5638 62.4724 12.2138 62.7292 12.7708ZM63.8238 11.3263C63.8933 11.1958 63.9498 11.0587 63.9923 10.917C64.1977 11.4884 64.3133 12.1561 64.0725 12.7611C63.8888 12.6753 63.7379 12.5323 63.6424 12.3535C63.5268 12.0951 63.5878 11.75 63.8222 11.3199L63.8238 11.3263Z" fill="#AB6116"/>
<path d="M64.1824 6.99312C64.1824 6.99312 61.7396 6.48756 59.2969 9.19833C59.2969 9.19833 62.1778 9.84031 64.6895 9.44068C64.6895 9.43907 65.5402 7.89511 64.1824 6.99312Z" fill="#FDEBA5"/>
<path d="M59.1872 9.68934C60.4021 9.93847 61.6385 10.0675 62.8786 10.0745C63.5114 10.0781 64.1435 10.0325 64.7693 9.9381C64.8452 9.92605 64.9173 9.89679 64.9802 9.85256C65.0431 9.80833 65.095 9.75029 65.132 9.68291C65.5011 9.00883 65.8366 7.49215 64.4627 6.57573C64.4091 6.5401 64.3492 6.51505 64.2862 6.5019C64.1754 6.47944 61.5305 5.97066 58.9256 8.86278C58.867 8.92822 58.8264 9.00787 58.808 9.09381C58.7896 9.17975 58.794 9.269 58.8208 9.35271C58.8476 9.43642 58.8958 9.51168 58.9606 9.57101C59.0255 9.63034 59.1047 9.67169 59.1904 9.69094L59.1872 9.68934ZM63.986 7.4729C64.6023 7.95438 64.4675 8.63006 64.3407 8.98155C62.877 9.16612 61.3074 9.01205 60.3396 8.86921C62.0537 7.36858 63.5912 7.42796 63.9876 7.4729H63.986Z" fill="#AB6116"/>
<path d="M69.4536 9.78961C70.5084 9.62763 71.2322 8.64118 71.0703 7.58633C70.9083 6.53148 69.9218 5.80767 68.867 5.96965C67.8121 6.13163 67.0883 7.11806 67.2503 8.17291C67.4123 9.22776 68.3987 9.95159 69.4536 9.78961Z" fill="white"/>
<path d="M67.7249 9.83376C68.141 10.1405 68.6444 10.3059 69.1613 10.3056C69.5124 10.305 69.8592 10.2286 70.1781 10.0817C70.4969 9.93476 70.7803 9.72073 71.0089 9.45424C71.2374 9.18775 71.4058 8.87506 71.5024 8.53754C71.599 8.20003 71.6217 7.84563 71.5688 7.49856C71.5077 7.10279 71.3501 6.72818 71.1098 6.40786C70.8695 6.08753 70.5539 5.83138 70.191 5.66207C69.8281 5.49276 69.4291 5.41551 69.0292 5.43716C68.6294 5.4588 68.241 5.57868 67.8985 5.78617C67.556 5.99367 67.27 6.28238 67.0656 6.62677C66.8613 6.97117 66.745 7.36061 66.7271 7.76065C66.7091 8.1607 66.79 8.55899 66.9627 8.92031C67.1353 9.28162 67.3944 9.59482 67.7169 9.83216L67.7249 9.83376ZM68.9495 6.46336C69.0223 6.45251 69.0958 6.44715 69.1694 6.44731C69.5391 6.4489 69.8938 6.59362 70.1591 6.8511C70.4244 7.10858 70.5797 7.4588 70.5924 7.82829C70.6051 8.19779 70.4741 8.55784 70.2271 8.83289C69.98 9.10794 69.6361 9.27662 69.2673 9.30353C68.8986 9.33045 68.5338 9.21351 68.2494 8.97725C67.965 8.74099 67.7832 8.40377 67.7421 8.03635C67.701 7.66893 67.8037 7.29986 68.0289 7.00659C68.254 6.71331 68.5839 6.51862 68.9495 6.46336Z" fill="#AB6116"/>
<path d="M69.2684 8.55005C69.6443 8.49234 69.9022 8.14085 69.8445 7.765C69.7868 7.38914 69.4353 7.13124 69.0594 7.18896C68.6836 7.24667 68.4257 7.59815 68.4834 7.974C68.5411 8.34986 68.8926 8.60777 69.2684 8.55005Z" fill="#AB6116"/>
</svg>
