<svg width="24" height="24" viewBox="0 0 24 24" fill="none" xmlns="http://www.w3.org/2000/svg">
<rect width="24" height="24" rx="4" fill="#FFF6ED"/>
<g clip-path="url(#clip0_24_742)">
<path d="M15.75 15.75V17.25C15.75 17.4489 15.829 17.6397 15.9697 17.7803C16.1103 17.921 16.3011 18 16.5 18C16.6989 18 16.8897 17.921 17.0303 17.7803C17.171 17.6397 17.25 17.4489 17.25 17.25V6H6.75V14.25H5.25V5.25C5.25 5.05109 5.32902 4.86032 5.46967 4.71967C5.61032 4.57902 5.80109 4.5 6 4.5H18C18.1989 4.5 18.3897 4.57902 18.5303 4.71967C18.671 4.86032 18.75 5.05109 18.75 5.25V17.25C18.75 17.8467 18.5129 18.419 18.091 18.841C17.669 19.2629 17.0967 19.5 16.5 19.5H6C5.40326 19.5 4.83097 19.2629 4.40901 18.841C3.98705 18.419 3.75 17.8467 3.75 17.25V15.75H15.75Z" fill="#F47B20"/>
</g>
<defs>
<clipPath id="clip0_24_742">
<rect width="18" height="18" fill="white" transform="translate(3 3)"/>
</clipPath>
</defs>
</svg>
