<svg width="24" height="24" viewBox="0 0 24 24" fill="none" xmlns="http://www.w3.org/2000/svg">
<rect width="24" height="24" rx="4" fill="#FFF6ED"/>
<path fill-rule="evenodd" clip-rule="evenodd" d="M11.1622 16.0399C11.7905 16.0399 12.2998 15.5306 12.2998 14.9023C12.2998 14.274 11.7905 13.7647 11.1622 13.7647C10.5339 13.7647 10.0246 14.274 10.0246 14.9023C10.0246 15.5306 10.5339 16.0399 11.1622 16.0399ZM11.1622 17.2724C12.4711 17.2724 13.5323 16.2113 13.5323 14.9023C13.5323 13.5933 12.4711 12.5322 11.1622 12.5322C9.85323 12.5322 8.79211 13.5933 8.79211 14.9023C8.79211 16.2113 9.85323 17.2724 11.1622 17.2724Z" fill="#F47B20"/>
<path fill-rule="evenodd" clip-rule="evenodd" d="M11.8229 4.07409L11.6281 4.65869L11.3853 4.09229L11.6007 4L11.8229 4.07409ZM16.1363 6.82131C15.3644 5.92724 14.3447 5.26687 13.5178 4.82591C13.0515 4.57723 12.6322 4.39089 12.3286 4.26632C12.1765 4.20393 12.0527 4.15677 11.9658 4.12478C11.9223 4.10878 11.8879 4.09656 11.8638 4.08812L11.8353 4.07828L11.8271 4.07548L11.8245 4.07461L11.8229 4.07409C11.8228 4.07404 11.8229 4.07409 11.6281 4.65869C11.3853 4.09229 11.3854 4.09225 11.3853 4.09229L11.3818 4.09382L11.3734 4.09742L11.343 4.11069C11.3168 4.12219 11.2789 4.13895 11.2308 4.16062C11.1345 4.20394 10.997 4.26698 10.8294 4.34696C10.4948 4.50663 10.0376 4.73517 9.54843 5.01029C9.06074 5.28458 8.53215 5.61026 8.05879 5.96519C7.71566 6.22247 7.38106 6.51013 7.11104 6.82021C6.78115 6.78706 6.46368 6.84466 6.18418 7.00303C5.78554 7.2289 5.54729 7.61317 5.45683 8.0202C5.34579 8.51986 5.4447 9.07407 5.74613 9.56565C5.54398 10.5259 5.35803 11.8141 5.32791 13.1224C5.30055 14.3112 5.39973 15.5795 5.77629 16.6398C5.50146 16.8353 5.28795 17.1125 5.16122 17.3925C4.9043 17.9602 4.91081 18.7214 5.50413 19.3147C5.81557 19.6262 6.16579 19.8187 6.53902 19.8789C6.91101 19.939 7.25236 19.859 7.53202 19.7169C7.79259 19.5844 8.00729 19.395 8.16745 19.1948C9.82999 20.0317 12.3383 20.5001 14.6775 19.1984C14.8621 19.3896 15.0997 19.5542 15.3645 19.6649C15.9163 19.8958 16.6766 19.9161 17.2779 19.3147C17.8792 18.7135 17.8592 17.9531 17.6278 17.4015C17.5151 17.1329 17.3468 16.8924 17.151 16.7071C17.7877 15.4827 17.9987 14.086 18 12.8258C18.0013 11.5495 17.7879 10.3574 17.5339 9.52621C17.8166 9.0447 17.9073 8.50685 17.7993 8.02064C17.7088 7.61362 17.4706 7.22933 17.072 7.00339C16.79 6.84354 16.4694 6.78627 16.1363 6.82131ZM14.7761 7.18574C14.2141 6.66444 13.5466 6.23796 12.9379 5.91339C12.5155 5.68811 12.1348 5.51897 11.8608 5.40655C11.7812 5.37388 11.7108 5.3461 11.6512 5.3232C11.5719 5.35947 11.4735 5.40515 11.3602 5.45922C11.043 5.61061 10.6114 5.82641 10.1526 6.08449C9.69225 6.34339 9.21355 6.63974 8.79814 6.95123C8.67553 7.04316 8.56154 7.13413 8.4571 7.22354C9.89443 7.59916 12.285 7.80608 14.7761 7.18574ZM7.14285 8.079C6.93359 8.01451 6.83072 8.05321 6.79174 8.0753C6.75309 8.0972 6.70571 8.14348 6.67501 8.23338L6.98345 9.15871C7.05256 9.22813 7.13412 9.2957 7.22974 9.35945C7.58189 9.59421 8.16192 9.81134 8.91672 9.97135C9.16463 10.0239 9.42633 10.0692 9.69811 10.1069C10.234 10.1673 10.8713 10.2045 11.6281 10.2045C12.4335 10.2045 13.1037 10.1624 13.6602 10.0949C14.6062 9.95292 15.4433 9.70502 16.0382 9.35171C16.1287 9.29039 16.2063 9.22565 16.2725 9.15919L16.581 8.23363C16.5503 8.14377 16.5029 8.09747 16.4643 8.07555C16.4238 8.0526 16.3145 8.01177 16.089 8.08693C12.4266 9.30736 8.7256 8.76801 7.14285 8.079ZM16.2776 9.15408C16.2777 9.1538 16.2778 9.15379 16.2776 9.15408C16.2771 9.15487 16.275 9.15861 16.2706 9.16498L16.2776 9.15408ZM9.54473 11.3298C10.1376 11.4112 10.7656 11.458 11.3989 11.4679C12.1998 11.4805 13.0322 11.4344 13.8269 11.3161C14.9701 11.1759 15.7513 10.9294 16.2883 10.6609C16.3722 10.619 16.4502 10.5764 16.5228 10.5336C16.6636 11.1788 16.7684 11.978 16.7676 12.8245C16.7662 14.1504 16.5056 15.5194 15.7929 16.587C15.5784 16.9082 15.3227 17.203 15.0192 17.4631C14.8594 17.6001 14.6981 17.7242 14.5358 17.8365C12.3022 19.3817 9.71808 18.7578 8.24075 17.8226C7.82623 17.5602 7.53712 17.2955 7.3809 17.0872C7.29436 16.9718 7.21416 16.8427 7.14048 16.7001C6.68573 15.8199 6.52839 14.5251 6.56003 13.1508C6.58084 12.2466 6.68217 11.3475 6.81 10.5776C6.86016 10.6055 6.91274 10.6333 6.96784 10.6609C7.52268 10.9383 8.33833 11.1923 9.54473 11.3298ZM16.4395 17.7752C16.2538 17.9954 16.0482 18.2043 15.8212 18.3989C15.7917 18.4241 15.7621 18.4491 15.7325 18.4737C15.7663 18.4938 15.8024 18.5122 15.8401 18.528C16.0617 18.6207 16.2494 18.6003 16.4065 18.4433C16.5636 18.2861 16.5837 18.0985 16.4913 17.8782C16.4761 17.8422 16.4586 17.8076 16.4395 17.7752ZM7.10478 18.529C6.81808 18.3049 6.57511 18.0669 6.39495 17.8267C6.38234 17.8099 6.36988 17.793 6.35756 17.7759C6.32967 17.8134 6.30451 17.8554 6.28403 17.9007C6.1977 18.0914 6.21049 18.2782 6.37559 18.4433C6.53817 18.6059 6.66196 18.6504 6.73547 18.6623C6.81022 18.6743 6.88834 18.6616 6.97359 18.6182C7.01891 18.5952 7.06337 18.5647 7.10478 18.529Z" fill="#F47B20"/>
</svg>
