<svg width="112" height="74" viewBox="0 0 112 74" fill="none" xmlns="http://www.w3.org/2000/svg">
<ellipse cx="56" cy="68" rx="56" ry="6" fill="#FEF6D2"/>
<path d="M74.9292 9.47606C75.4751 9.39879 77.7412 8.49674 78.2888 8.41946C78.4296 8.16978 78.4664 7.87467 78.3913 7.59804C78.3397 7.43738 78.2525 7.29047 78.1361 7.1683C78.0198 7.04612 77.8773 6.95184 77.7193 6.89252C77.7922 6.75007 77.8258 6.5908 77.8166 6.43108C77.8075 6.27135 77.7559 6.11694 77.6673 5.98375C77.579 5.86049 77.4624 5.76016 77.3274 5.69119C77.1924 5.62222 77.0428 5.5866 76.8912 5.58732C76.8574 5.407 76.7871 5.23549 76.6846 5.08338C76.2193 4.39466 75.0552 4.44673 75.1543 4.42993C72.9118 4.81461 74.9292 9.47606 74.9292 9.47606Z" fill="#DD1E25"/>
<path d="M78.1083 5.6997C77.9188 5.41719 77.6327 5.21353 77.3037 5.12689C77.2557 5.00892 77.1955 4.89632 77.124 4.79093C76.8821 4.43481 76.3664 3.9947 75.256 3.91407C75.1944 3.90299 75.1312 3.90299 75.0696 3.91407C74.8135 3.95182 74.57 4.04916 74.3584 4.19825C74.1469 4.34734 73.9733 4.54402 73.8517 4.77244C73.0236 6.30442 74.2985 9.35159 74.448 9.69427C74.4888 9.78871 74.5563 9.86912 74.6423 9.92555C74.7283 9.98198 74.829 10.0119 74.9318 10.0117C74.9564 10.0135 74.9811 10.0135 75.0057 10.0117C75.3081 9.96975 75.8792 9.7749 76.7846 9.4591C77.302 9.26424 77.8291 9.09603 78.3637 8.95516C78.4434 8.94412 78.5196 8.91489 78.5863 8.86975C78.653 8.82461 78.7084 8.76475 78.7483 8.69479C78.8533 8.51021 78.9207 8.30668 78.9466 8.09593C78.9726 7.88518 78.9566 7.67138 78.8995 7.46685C78.8052 7.14421 78.6089 6.86076 78.3401 6.65887C78.3798 6.32173 78.2975 5.98153 78.1083 5.6997ZM77.8967 7.97751C77.5607 8.06654 77.0887 8.23116 76.4369 8.45961C76.0405 8.59736 75.5786 8.75862 75.246 8.86109C74.8092 7.70706 74.3859 6.00543 74.7773 5.27303C74.8171 5.19481 74.874 5.12657 74.9438 5.07335C75.0136 5.02013 75.0945 4.98331 75.1804 4.96562C75.8994 5.01434 76.1598 5.24615 76.2522 5.38221C76.3146 5.4767 76.357 5.58306 76.3765 5.69465C76.4019 5.81617 76.4684 5.92524 76.5647 6.00355C76.6611 6.08185 76.7814 6.12463 76.9056 6.12469C76.9693 6.1261 77.0319 6.14195 77.0887 6.17104C77.1454 6.20014 77.1948 6.24173 77.2332 6.29267C77.2696 6.34795 77.2907 6.41194 77.2943 6.47807C77.2978 6.5442 77.2837 6.61009 77.2533 6.66895C77.2196 6.73541 77.2003 6.80827 77.1968 6.88273C77.1932 6.95718 77.2055 7.03154 77.2328 7.1009C77.2601 7.17027 77.3018 7.23306 77.3551 7.28513C77.4085 7.33721 77.4722 7.37739 77.5422 7.40302C77.6205 7.43476 77.6911 7.48299 77.749 7.54445C77.807 7.6059 77.8511 7.67913 77.8782 7.75914C77.8991 7.82704 77.9054 7.8986 77.8967 7.96911V7.97751Z" fill="#AB6116"/>
<path d="M68.2058 67.9785L73.8752 68.3783C74.2397 68.3967 74.4228 67.9062 74.112 67.7063C73.7139 67.4695 69.5765 66.5691 68.5972 66.3843C67.4549 66.1676 66.5495 65.4722 66.3345 64.3299L64.6984 55.5664L61.9805 55.9024L64.7387 65.3899C64.8328 65.909 64.685 66.087 64.4666 66.2836C63.9358 66.7589 62.2543 67.9886 62.4827 68.6773C62.6054 69.0452 63.2454 68.7512 63.6435 68.558C65.0444 67.8861 65.6172 68.5832 65.9549 68.9343C67.1308 70.1488 68.2663 70.6393 69.0491 70.6376C69.9831 70.6376 69.4237 70.0749 69.4237 70.0749C68.9097 69.7876 68.4561 69.2618 67.9421 68.7109C67.6801 68.427 67.8279 67.96 68.2058 67.9785Z" fill="#FDEBA5"/>
<path d="M74.7575 68.2673C74.818 68.084 74.8149 67.8856 74.7487 67.7043C74.6826 67.5229 74.5573 67.3692 74.393 67.2678L74.3711 67.2544L74.351 67.2426H74.3359C73.5951 66.8764 68.7388 65.8853 68.69 65.8769C67.6822 65.6854 67.0102 65.0891 66.8423 64.2425L65.2095 55.4773C65.1849 55.3457 65.1111 55.2284 65.0032 55.1492C64.8952 55.0699 64.7612 55.0347 64.6283 55.0506L61.9104 55.3866C61.8344 55.3959 61.7614 55.4217 61.6964 55.462C61.6315 55.5024 61.576 55.5564 61.534 55.6203C61.492 55.6842 61.4643 55.7566 61.453 55.8322C61.4418 55.9079 61.447 55.9851 61.4686 56.0585L64.2201 65.5191C64.2621 65.7627 64.2386 65.7846 64.1092 65.9005C64.0252 65.9761 63.911 66.0685 63.7733 66.1793C62.6192 67.1402 61.6886 68.0052 61.9691 68.8519C62.0026 68.9567 62.0583 69.053 62.1326 69.1342C62.2068 69.2154 62.2978 69.2796 62.3992 69.3222C62.8343 69.5053 63.36 69.2836 63.8606 69.0417C64.8517 68.5596 65.1893 68.9157 65.5135 69.2584L65.5622 69.3088C66.7028 70.4947 67.9677 71.175 69.031 71.175C69.5652 71.175 69.9062 71.0071 70.0389 70.6711C70.1884 70.31 70.0003 69.9387 69.7735 69.7103C69.7391 69.6759 69.7001 69.6465 69.6576 69.6229C69.278 69.4096 68.8933 68.9947 68.4817 68.5546L68.47 68.5428L73.8252 68.9207C74.0321 68.9359 74.2379 68.8792 74.4077 68.7601C74.5776 68.641 74.7011 68.4669 74.7575 68.2673ZM68.2348 67.4543C68.0561 67.4445 67.8786 67.4886 67.7253 67.5808C67.5719 67.6731 67.4498 67.8092 67.3748 67.9717C67.2952 68.1515 67.2699 68.3507 67.3022 68.5447C67.3344 68.7387 67.4227 68.9191 67.5562 69.0635L67.7342 69.255C67.9812 69.5204 68.2197 69.7791 68.4683 70.0059C67.8854 69.8278 67.1245 69.3877 66.3333 68.5613L66.2896 68.5159C66.0393 68.2522 65.5539 67.7398 64.7039 67.7398C64.2533 67.7522 63.8116 67.8671 63.4121 68.0758C63.3214 68.1212 63.2441 68.1564 63.1719 68.1867C63.5635 67.7436 63.9942 67.3365 64.4586 66.9705C64.6014 66.8512 64.724 66.7488 64.8164 66.6664C65.1725 66.3473 65.3825 65.9945 65.2549 65.2873C65.2549 65.2694 65.2509 65.2521 65.2431 65.2353L62.6579 56.3441L64.2705 56.1492L65.8125 64.4306C66.0528 65.7073 67.0556 66.6329 68.5002 66.905C69.2494 67.0478 70.9914 67.4257 72.2932 67.7449L68.2348 67.4543Z" fill="#AB6116"/>
<path d="M45.9654 68.8755C46.088 69.2434 46.728 68.9494 47.1261 68.7563C48.5271 68.0843 49.0999 68.7815 49.4375 69.1325C50.6134 70.347 51.7489 70.8375 52.5317 70.8375C53.4657 70.8375 52.9063 70.2731 52.9063 70.2731C52.3923 69.9859 51.9388 69.4601 51.4247 68.9091C51.166 68.6336 51.3139 68.1666 51.6918 68.1851L56.024 68.5849C56.3886 68.6034 56.5717 68.1129 56.2609 67.913C55.8628 67.6761 53.2641 66.9051 52.2294 66.5692C51.1257 66.2046 49.9532 65.6772 49.9667 64.5148C49.9818 63.102 51.4785 57.2311 51.4785 57.2311L48.4918 56.7776C48.4918 56.7776 48.3238 63.1927 48.2919 64.5047C48.2734 65.1564 48.3776 66.1627 47.8636 66.6212C47.3495 67.0798 45.7369 68.1885 45.9654 68.8755Z" fill="#FDEBA5"/>
<path d="M51.9171 56.944C51.8765 56.8827 51.8236 56.8306 51.7617 56.7909C51.6998 56.7513 51.6303 56.725 51.5576 56.7138L48.5726 56.262C48.4988 56.2514 48.4236 56.2564 48.3519 56.2767C48.2801 56.2969 48.2134 56.332 48.156 56.3796C48.0989 56.4275 48.0526 56.4871 48.0201 56.5542C47.9877 56.6214 47.9699 56.6947 47.9679 56.7693C47.9679 56.7693 47.7999 63.1811 47.7697 64.4964C47.7697 64.6106 47.7697 64.7332 47.7697 64.8642C47.7697 65.348 47.7697 66.0099 47.5194 66.235C47.427 66.3173 47.301 66.4181 47.1582 66.534C46.273 67.2496 45.171 68.1399 45.4784 69.0537C45.512 69.1582 45.5679 69.2542 45.6421 69.3351C45.7164 69.416 45.8072 69.4799 45.9084 69.5223C46.3435 69.7054 46.8693 69.4837 47.3699 69.2418C48.3609 68.7597 48.6969 69.1142 49.0228 69.4568L49.0715 69.5089C50.2121 70.6948 51.477 71.3752 52.542 71.3752C53.0762 71.3752 53.4172 71.2072 53.5499 70.8712C53.6994 70.5101 53.5112 70.1388 53.2845 69.9104C53.25 69.8761 53.211 69.8467 53.1685 69.823C52.7889 69.6097 52.4042 69.1965 51.9927 68.7564L56.0041 69.1259C56.2046 69.135 56.4025 69.077 56.5664 68.9611C56.7304 68.8452 56.8511 68.678 56.9095 68.4859C56.9699 68.3026 56.9669 68.1042 56.9007 67.9229C56.8346 67.7415 56.7092 67.5878 56.5449 67.4864L56.5282 67.4763C56.2174 67.2916 55.1642 66.9556 53.5969 66.4685C53.1266 66.3223 52.6965 66.1879 52.3992 66.0888C51.0419 65.6386 50.4909 65.1901 50.4977 64.54C50.5094 63.4331 51.5811 58.9967 51.9927 57.3807C52.0125 57.3068 52.0161 57.2294 52.003 57.154C51.9899 57.0786 51.9606 57.0069 51.9171 56.944ZM49.4394 64.5031C49.4209 66.1829 51.2721 66.8027 52.0632 67.0631C52.3656 67.1639 52.8024 67.3 53.2777 67.4478C53.7178 67.5855 54.3007 67.7669 54.8148 67.9349L51.7206 67.6494C51.5416 67.6377 51.3633 67.681 51.2096 67.7734C51.0559 67.8659 50.9341 68.0031 50.8605 68.1667C50.7806 68.3468 50.7551 68.5464 50.7874 68.7407C50.8196 68.9351 50.9081 69.1157 51.0419 69.2603L51.2217 69.4552C51.4669 69.7206 51.7054 69.9776 51.9524 70.2043C51.3695 70.0246 50.6085 69.5862 49.8174 68.7597L49.7737 68.7127C49.5234 68.4489 49.0379 67.9383 48.1879 67.9383C47.7374 67.9506 47.2956 68.0655 46.8962 68.2742C46.8088 68.3162 46.7282 68.3532 46.6644 68.3818C47.019 68.003 47.4032 67.6531 47.8133 67.3352C47.9712 67.2076 48.1107 67.095 48.2114 66.9993C48.8179 66.4601 48.8162 65.5227 48.8145 64.8391C48.8145 64.7215 48.8145 64.6072 48.8145 64.5031C48.8464 63.4398 48.9573 58.9984 48.9993 57.3757L50.8219 57.6529C50.449 59.1899 49.4528 63.3037 49.4394 64.5115V64.5031Z" fill="#AB6116"/>
<path d="M63.7984 58.1582C68.2331 56.9958 65.1792 47.8157 65.1792 47.8157L57.7461 49.8785C57.7461 49.8785 59.567 59.2686 63.7984 58.1582Z" fill="#FAFAFA"/>
<path d="M61.4029 58.2609C61.9107 58.5927 62.503 58.7717 63.1096 58.7766C63.3869 58.7756 63.663 58.7389 63.931 58.6675C64.3853 58.5534 64.8101 58.3438 65.1771 58.0527C65.5441 57.7616 65.8448 57.3957 66.0593 56.9793C67.7273 53.9019 65.7637 47.9083 65.6797 47.6513C65.6362 47.5241 65.5456 47.4184 65.4265 47.3559C65.3075 47.2934 65.1691 47.2789 65.0397 47.3153L57.6049 49.3748C57.477 49.41 57.3672 49.4922 57.2974 49.605C57.2276 49.7178 57.2031 49.8527 57.2286 49.9829C57.279 50.2399 58.5119 56.4434 61.4029 58.2609ZM64.8263 48.461C65.2446 49.9039 66.3381 54.2513 65.1354 56.477C64.9898 56.7675 64.783 57.023 64.5293 57.2259C64.2756 57.4289 63.9809 57.5746 63.6656 57.6529C63.3788 57.7314 63.0785 57.7472 62.7852 57.699C62.4918 57.6509 62.2122 57.5401 61.9656 57.374C59.8776 56.0621 58.7068 51.7063 58.3692 50.255L64.8263 48.461Z" fill="#AB6116"/>
<path d="M54.8566 50.4347L46.98 50.1357C46.98 50.1357 45.3959 58.5885 49.7533 58.9715C54.3207 59.3747 54.8566 50.4347 54.8566 50.4347Z" fill="#FAFAFA"/>
<path d="M49.7092 59.4972C49.8212 59.5073 49.9332 59.5123 50.0451 59.5123C50.9188 59.5128 51.7617 59.1904 52.412 58.6069C54.9938 56.3795 55.3617 50.7119 55.3768 50.4666C55.3811 50.3967 55.3714 50.3267 55.3483 50.2606C55.3252 50.1945 55.2891 50.1337 55.2422 50.0818C55.1952 50.0298 55.1384 49.9878 55.075 49.9581C55.0116 49.9284 54.9429 49.9117 54.8729 49.9089L46.9963 49.6099C46.8701 49.6057 46.7466 49.6467 46.648 49.7256C46.5495 49.8044 46.4823 49.9159 46.4588 50.0399C46.4151 50.2684 45.4307 55.6706 47.3507 58.2004C47.6257 58.5753 47.9792 58.8856 48.3866 59.1096C48.794 59.3336 49.2453 59.4659 49.7092 59.4972ZM47.428 50.6799L54.2833 50.9403C54.1304 52.3648 53.5559 56.2384 51.73 57.8107C51.4713 58.0463 51.1659 58.2248 50.8336 58.3345C50.5013 58.4441 50.1497 58.4826 49.8016 58.4474C49.4854 58.4273 49.1775 58.3377 48.8999 58.1849C48.6224 58.0322 48.3819 57.8201 48.1957 57.5638C46.8418 55.7832 47.2416 51.9818 47.428 50.6799Z" fill="#AB6116"/>
<path d="M47.791 21.7706C40.6619 23.316 36.9227 27.1947 36.1853 32.938C34.8414 33.2219 33.4976 34.302 32.3217 36.8015C31.1156 39.3884 31.1324 45.2694 32.1319 45.5751C33.7966 46.0791 36.5582 46.6519 39.2156 46.583C43.2656 52.8789 50.7155 56.4485 56.694 54.9938C62.9092 53.7104 67.1827 51.4276 69.9762 48.5484L69.9997 48.5299C83.9118 36.2791 76.7962 27.099 76.0587 23.2976C75.1063 18.3959 76.3712 11.161 76.3712 11.161L76.2032 11.1778C76.4686 10.3712 76.5558 9.51668 76.4587 8.67314C76.3615 7.82961 76.0824 7.01721 75.6406 6.29208C75.1988 5.56696 74.6049 4.9464 73.8998 4.47328C73.1947 4.00015 72.3953 3.68573 71.5569 3.55175C70.7184 3.41777 69.8608 3.46743 69.0434 3.69728C68.226 3.92713 67.4682 4.33171 66.8225 4.88306C66.1767 5.4344 65.6583 6.11936 65.3032 6.89063C64.948 7.66189 64.7646 8.50106 64.7654 9.35017C64.7654 9.35017 64.7654 9.36193 64.7654 9.36697C64.6495 12.1135 65.4373 14.9557 65.5398 17.3309C65.691 20.8753 61.7267 21.3003 59.2288 21.2197C58.5871 21.1424 57.9409 21.0864 57.2903 21.0517H57.2517H57.2668C54.0903 20.8666 50.9033 21.1084 47.791 21.7706Z" fill="#FAFAFA"/>
<path d="M57.2234 20.5273C54.0242 20.3439 50.8148 20.589 47.6805 21.2563C40.6354 22.7832 36.6123 26.5712 35.7136 32.511C34.1866 32.983 32.8865 34.3504 31.85 36.5795C30.7682 38.8976 30.6036 43.8026 31.3074 45.3867C31.4754 45.7596 31.7022 45.9931 31.9794 46.0788C32.8193 46.3341 35.7438 47.1354 38.9338 47.1202C42.5101 52.509 48.4062 55.8552 53.8672 55.8552C54.8553 55.8608 55.8405 55.748 56.8018 55.5192C62.7282 54.2964 67.2821 52.0824 70.336 48.9445L70.3478 48.9344C82.2609 38.4424 79.0357 29.9526 77.3021 25.4021C76.9662 24.5336 76.6856 23.7827 76.5748 23.2066C75.6526 18.4594 76.8755 11.3337 76.8889 11.2615C76.9096 11.1435 76.8895 11.0221 76.8318 10.9171C77.0473 10.0403 77.0746 9.12769 76.9118 8.23953C76.749 7.35137 76.3999 6.50777 75.8875 5.76432C75.3751 5.02086 74.7109 4.39441 73.9388 3.92624C73.1667 3.45807 72.3042 3.15881 71.4081 3.04817C70.5119 2.93752 69.6025 3.018 68.7397 3.28432C67.8769 3.55063 67.0803 3.99674 66.4025 4.59323C65.7246 5.18973 65.1808 5.92308 64.8069 6.74499C64.433 7.56689 64.2375 8.45868 64.2333 9.36162C64.2333 9.36162 64.2333 9.37338 64.2333 9.37842C64.1661 11.0414 64.413 12.6994 64.6532 14.3019C64.824 15.316 64.9429 16.338 65.0093 17.3642C65.0463 18.2327 64.8128 18.9096 64.2937 19.4337C63.4085 20.3274 61.6245 20.7776 59.2627 20.7037C58.6278 20.6281 57.976 20.5693 57.3276 20.5357C57.2932 20.5296 57.2584 20.5268 57.2234 20.5273ZM57.2822 20.8851L57.3175 20.6549L57.3074 20.8229L57.2772 20.9556L57.2822 20.8851ZM59.1703 21.7552H59.2157C61.1021 21.819 63.647 21.5872 65.0513 20.1745C65.777 19.4421 66.1197 18.4813 66.071 17.3188C66.0042 16.2567 65.8825 15.1987 65.7065 14.1491C65.473 12.5868 65.2327 10.9725 65.2983 9.40193C65.2983 9.40193 65.2983 9.37002 65.2983 9.3633C65.2983 8.59085 65.466 7.8276 65.7896 7.12622C66.1133 6.42485 66.5852 5.80203 67.173 5.30076C67.7607 4.79949 68.4502 4.43169 69.1938 4.22273C69.9375 4.01377 70.7176 3.96864 71.4804 4.09044C72.2432 4.21224 72.9705 4.49808 73.6121 4.92823C74.2537 5.35838 74.7943 5.9226 75.1967 6.58197C75.5991 7.24134 75.8536 7.98016 75.9428 8.74745C76.0319 9.51474 75.9535 10.2922 75.713 11.0263C75.6865 11.1065 75.6797 11.1918 75.6932 11.2751C75.7066 11.3585 75.74 11.4373 75.7903 11.5051C75.5333 13.1429 74.7119 19.0961 75.5501 23.4098C75.6794 24.0817 75.9801 24.8645 76.3278 25.7783C78.0849 30.3995 81.0313 38.1366 69.6406 48.1634L69.6086 48.1936C66.7043 51.1887 62.3267 53.3069 56.5801 54.4946C50.8402 55.8922 43.5683 52.3747 39.6695 46.3106C39.6217 46.2364 39.5561 46.1753 39.4786 46.1331C39.4011 46.0908 39.3143 46.0687 39.226 46.0687H39.2143C36.7315 46.1241 34.0472 45.6051 32.3422 45.091C31.7744 44.4493 31.6955 39.42 32.8092 37.028C33.7835 34.9383 34.9593 33.7356 36.3049 33.45C36.4117 33.4272 36.5088 33.3719 36.5829 33.2915C36.6569 33.2112 36.7041 33.1098 36.7181 33.0015C37.4455 27.3406 41.2116 23.734 47.9123 22.281C50.9788 21.6289 54.1191 21.3928 57.2486 21.5788H57.2705C57.9021 21.6225 58.5438 21.6796 59.1687 21.7552H59.1703Z" fill="#AB6116"/>
<path d="M46.5148 46.554C55.6697 43.9739 59.8323 39.1797 60.9359 34.5132L50.8571 21.619C40.3415 21.0194 27.0241 27.9569 26.0195 34.8626C32.7001 45.1615 43.3316 43.6833 43.3316 43.6833C43.2594 44.1049 43.295 44.5379 43.4351 44.9421C43.5753 45.3462 43.8153 45.7084 44.133 45.9949C44.4506 46.2814 44.8356 46.4829 45.252 46.5806C45.6684 46.6784 46.1028 46.6692 46.5148 46.554Z" fill="#FAFAFA"/>
<path d="M50.832 22.1453C50.9668 22.1456 51.0967 22.0942 51.1948 22.0017C51.2929 21.9093 51.3519 21.7827 51.3597 21.6481C51.3674 21.5135 51.3233 21.3811 51.2364 21.278C51.1495 21.1749 51.0265 21.1089 50.8925 21.0938C45.8329 20.8082 39.7554 22.2511 34.632 24.9573C29.3322 27.7609 26.0062 31.3406 25.5056 34.7842C25.487 34.9107 25.515 35.0397 25.5846 35.147C31.4253 44.1524 40.3433 44.3725 42.7774 44.2532C42.7972 44.7136 42.921 45.1635 43.1395 45.5693C43.358 45.975 43.6655 46.326 44.039 46.5959C44.4126 46.8658 44.8424 47.0477 45.2962 47.1278C45.75 47.2079 46.216 47.1842 46.6594 47.0585C57.7091 43.9458 60.669 37.9355 61.4417 34.6279C61.4737 34.492 61.4505 34.349 61.3771 34.2302C61.3037 34.1115 61.1862 34.0267 61.0503 33.9946C60.9144 33.9626 60.7713 33.9858 60.6526 34.0592C60.5338 34.1326 60.4491 34.2502 60.417 34.386C59.6896 37.4651 56.8894 43.0757 46.3671 46.0422C46.0409 46.1313 45.6974 46.137 45.3684 46.0586C45.0394 45.9802 44.7354 45.8203 44.4845 45.5936C44.2335 45.3668 44.0436 45.0806 43.9323 44.7613C43.8209 44.4419 43.7918 44.0997 43.8474 43.7661C43.8613 43.6844 43.8557 43.6007 43.8312 43.5216C43.8067 43.4425 43.7639 43.3703 43.7063 43.3108C43.6486 43.2516 43.5778 43.2067 43.4997 43.1795C43.4215 43.1524 43.3381 43.1439 43.2561 43.1546C43.1536 43.1697 32.9841 44.438 26.569 34.7388C27.7532 28.2363 40.5399 21.554 50.832 22.1453Z" fill="#AB6116"/>
<path d="M75.681 17.1441C75.681 17.1441 78.5367 16.6871 76.8384 14.2632C76.3831 13.5961 76.174 12.7914 76.2471 11.9871C76.2471 11.9871 74.6866 14.6193 75.681 17.1441Z" fill="#DD1E25"/>
<path d="M76.4213 11.4884C76.3064 11.4477 76.1808 11.4482 76.0662 11.4899C75.9516 11.5316 75.8551 11.6118 75.7931 11.7168C75.7242 11.8344 74.1133 14.6044 75.19 17.3358C75.234 17.4474 75.3148 17.5406 75.4189 17.6002C75.523 17.6597 75.6443 17.682 75.7628 17.6633C75.9207 17.6381 77.315 17.3862 77.7702 16.3195C78.0574 15.6476 77.8878 14.8513 77.2663 13.9678C76.8876 13.4087 76.71 12.7377 76.7623 12.0646C76.7813 11.9439 76.7576 11.8203 76.6954 11.7152C76.6332 11.61 76.5363 11.5298 76.4213 11.4884ZM76.8043 15.9063C76.6817 16.1969 76.3306 16.3934 76.0266 16.5093C75.8244 15.6661 75.8348 14.7858 76.0568 13.9476C76.1543 14.1661 76.2724 14.3748 76.4096 14.5708C76.68 14.9538 76.969 15.4997 76.801 15.8995L76.8043 15.9063Z" fill="#AB6116"/>
<path d="M80.4402 12.6961C80.6417 12.7885 80.7324 12.8288 80.9021 12.6877C80.9946 12.6109 81.0606 12.507 81.0908 12.3906C81.1209 12.2743 81.1137 12.1513 81.0701 12.0393C80.1815 9.75982 78.112 8.83425 76.7899 8.46805C76.4434 8.36942 76.0721 8.40813 75.7534 8.57612C75.4346 8.74411 75.1928 9.02847 75.0782 9.3701C74.4349 11.3523 75.688 12.2258 75.688 12.2258C78.1002 11.9318 79.8169 12.4072 80.4402 12.6961Z" fill="#FDEBA5"/>
<path d="M74.5711 9.20706C73.8169 11.5319 75.3152 12.6187 75.3791 12.6624C75.4862 12.7373 75.6173 12.7697 75.747 12.7531C77.9593 12.4776 79.5987 12.8875 80.2186 13.1731C80.3671 13.2517 80.5312 13.2964 80.699 13.3041C80.8989 13.3001 81.0905 13.2237 81.2382 13.0891C81.4148 12.941 81.5403 12.7411 81.5969 12.5177C81.6536 12.2943 81.6386 12.0587 81.554 11.8444C80.5646 9.30449 78.228 8.31676 76.9228 7.95561C76.4451 7.81945 75.9332 7.87377 75.4946 8.10713C75.0561 8.3405 74.7251 8.73475 74.5711 9.20706ZM80.5495 12.1702C79.8507 11.8763 78.6665 11.6109 77.1899 11.6109C76.741 11.6108 76.2925 11.6343 75.8461 11.6814C75.6109 11.4261 75.1742 10.7491 75.5622 9.53126C75.6339 9.31801 75.7853 9.1408 75.9848 9.03682C76.1843 8.93284 76.4164 8.91016 76.6322 8.97357C77.9912 9.34816 79.7566 10.2065 80.5495 12.1702Z" fill="#AB6116"/>
<path d="M70.4053 11.1205C71.6882 10.9235 72.5685 9.72384 72.3715 8.44099C72.1745 7.15813 70.9748 6.27787 69.692 6.47486C68.4091 6.67185 67.5288 7.8715 67.7258 9.15436C67.9228 10.4372 69.1225 11.3175 70.4053 11.1205Z" fill="white"/>
<path d="M68.3489 11.1032C68.8398 11.4654 69.4338 11.6608 70.0438 11.6609C70.4594 11.662 70.8703 11.5732 71.2484 11.4005C71.6264 11.2278 71.9626 10.9754 72.2339 10.6605C72.5052 10.3457 72.7051 9.97586 72.82 9.57646C72.9349 9.17705 72.962 8.75752 72.8995 8.34665C72.8272 7.87952 72.641 7.43739 72.3571 7.05941C72.0733 6.68142 71.7007 6.37923 71.2722 6.17956C70.8438 5.9799 70.3728 5.88892 69.9008 5.91467C69.4288 5.94043 68.9704 6.08213 68.5663 6.32723C68.1621 6.57233 67.8245 6.91328 67.5835 7.31991C67.3425 7.72653 67.2055 8.1863 67.1845 8.65851C67.1635 9.13073 67.2592 9.60084 67.4632 10.0272C67.6672 10.4537 67.9731 10.8232 68.3539 11.1032H68.3489ZM68.5807 7.70496C68.7218 7.51148 68.8999 7.34787 69.1046 7.22361C69.3093 7.09934 69.5366 7.01687 69.7734 6.98096C69.8662 6.96657 69.96 6.95927 70.0539 6.95913C70.4638 6.95991 70.8616 7.09875 71.183 7.35325C71.5043 7.60775 71.7306 7.96307 71.8253 8.36192C71.92 8.76077 71.8776 9.1799 71.705 9.55171C71.5323 9.92352 71.2395 10.2263 70.8736 10.4113C70.5078 10.5963 70.0904 10.6527 69.6886 10.5714C69.2868 10.4901 68.9241 10.2758 68.659 9.96314C68.3939 9.65046 68.2418 9.2576 68.2273 8.84791C68.2128 8.43823 68.3367 8.0356 68.579 7.70496H68.5807Z" fill="#AB6116"/>
<path d="M70.1767 9.61964C70.6343 9.54937 70.9483 9.12148 70.878 8.6639C70.8077 8.20633 70.3798 7.89236 69.9223 7.96262C69.4647 8.03288 69.1507 8.46078 69.221 8.91835C69.2912 9.37593 69.7191 9.6899 70.1767 9.61964Z" fill="#AB6116"/>
</svg>
