<svg width="20" height="20" viewBox="0 0 20 20" fill="none" xmlns="http://www.w3.org/2000/svg">
<g clip-path="url(#clip0_11279_26196)">
<path d="M4.16665 7.49996C4.38766 7.49996 4.59962 7.58776 4.7559 7.74404C4.91218 7.90032 4.99998 8.11228 4.99998 8.33329C6.30926 8.33136 7.5808 8.77185 8.60831 9.58329H10.4166C11.5275 9.58329 12.525 10.0666 13.2116 10.8333H15.8333C16.621 10.8331 17.3927 11.0562 18.0588 11.4767C18.7248 11.8972 19.2581 12.4979 19.5966 13.2091C17.6258 15.81 14.435 17.5 10.8333 17.5C8.50831 17.5 6.54165 16.9975 4.94998 16.1183C4.89168 16.2792 4.78518 16.4182 4.64499 16.5163C4.50481 16.6144 4.33776 16.6669 4.16665 16.6666H1.66665C1.44563 16.6666 1.23367 16.5788 1.07739 16.4225C0.92111 16.2663 0.833313 16.0543 0.833313 15.8333V8.33329C0.833313 8.11228 0.92111 7.90032 1.07739 7.74404C1.23367 7.58776 1.44563 7.49996 1.66665 7.49996H4.16665ZM5.00081 9.99996L4.99998 14.185L5.03748 14.2116C6.53331 15.2616 8.48165 15.8333 10.8333 15.8333C13.3366 15.8333 15.6658 14.87 17.3625 13.225L17.4733 13.1141L17.3733 13.0308C16.9798 12.7226 16.5028 12.5397 16.0041 12.5058L15.8333 12.5H14.0741C14.1341 12.7683 14.1666 13.0466 14.1666 13.3333V14.1666H6.66665V12.5L12.325 12.4991L12.2966 12.4341C12.1369 12.1004 11.8913 11.8152 11.5849 11.6078C11.2785 11.4005 10.9225 11.2784 10.5533 11.2541L10.4166 11.25H7.97498C7.58774 10.8539 7.12521 10.5393 6.61458 10.3246C6.10396 10.1099 5.55556 9.99956 5.00165 9.99996H5.00081ZM3.33331 9.16663H2.49998V15H3.33331V9.16663ZM15 4.16663C15.663 4.16663 16.2989 4.43002 16.7677 4.89886C17.2366 5.3677 17.5 6.00358 17.5 6.66663C17.5 7.32967 17.2366 7.96555 16.7677 8.43439C16.2989 8.90323 15.663 9.16663 15 9.16663C14.3369 9.16663 13.7011 8.90323 13.2322 8.43439C12.7634 7.96555 12.5 7.32967 12.5 6.66663C12.5 6.00358 12.7634 5.3677 13.2322 4.89886C13.7011 4.43002 14.3369 4.16663 15 4.16663ZM15 5.83329C14.779 5.83329 14.567 5.92109 14.4107 6.07737C14.2544 6.23365 14.1666 6.44561 14.1666 6.66663C14.1666 6.88764 14.2544 7.0996 14.4107 7.25588C14.567 7.41216 14.779 7.49996 15 7.49996C15.221 7.49996 15.433 7.41216 15.5892 7.25588C15.7455 7.0996 15.8333 6.88764 15.8333 6.66663C15.8333 6.44561 15.7455 6.23365 15.5892 6.07737C15.433 5.92109 15.221 5.83329 15 5.83329ZM9.16665 1.66663C9.82969 1.66663 10.4656 1.93002 10.9344 2.39886C11.4033 2.8677 11.6666 3.50358 11.6666 4.16663C11.6666 4.82967 11.4033 5.46555 10.9344 5.93439C10.4656 6.40323 9.82969 6.66663 9.16665 6.66663C8.50361 6.66663 7.86772 6.40323 7.39888 5.93439C6.93004 5.46555 6.66665 4.82967 6.66665 4.16663C6.66665 3.50358 6.93004 2.8677 7.39888 2.39886C7.86772 1.93002 8.50361 1.66663 9.16665 1.66663ZM9.16665 3.33329C8.94563 3.33329 8.73367 3.42109 8.57739 3.57737C8.42111 3.73365 8.33331 3.94561 8.33331 4.16663C8.33331 4.38764 8.42111 4.5996 8.57739 4.75588C8.73367 4.91216 8.94563 4.99996 9.16665 4.99996C9.38766 4.99996 9.59962 4.91216 9.7559 4.75588C9.91218 4.5996 9.99998 4.38764 9.99998 4.16663C9.99998 3.94561 9.91218 3.73365 9.7559 3.57737C9.59962 3.42109 9.38766 3.33329 9.16665 3.33329Z" fill="#F47B20"/>
</g>
<defs>
<clipPath id="clip0_11279_26196">
<rect width="20" height="20" fill="white"/>
</clipPath>
</defs>
</svg>
