<svg width="25" height="24" viewBox="0 0 25 24" fill="none" xmlns="http://www.w3.org/2000/svg">
<g clip-path="url(#clip0_4347_12835)">
<path d="M19.5 21H5.5C5.23478 21 4.98043 20.8947 4.79289 20.7071C4.60536 20.5196 4.5 20.2653 4.5 20V11H1.5L11.827 1.61204C12.0111 1.44452 12.2511 1.35168 12.5 1.35168C12.7489 1.35168 12.9889 1.44452 13.173 1.61204L23.5 11H20.5V20C20.5 20.2653 20.3946 20.5196 20.2071 20.7071C20.0196 20.8947 19.7652 21 19.5 21ZM6.5 19H18.5V9.15704L12.5 3.70304L6.5 9.15704V19ZM8.5 15H16.5V17H8.5V15Z" fill="#CACACA"/>
</g>
<defs>
<clipPath id="clip0_4347_12835">
<rect width="24" height="24" fill="white" transform="translate(0.5)"/>
</clipPath>
</defs>
</svg>
