<svg width="20" height="20" viewBox="0 0 20 20" fill="none" xmlns="http://www.w3.org/2000/svg">
<g clip-path="url(#clip0_4463_12898)">
<path d="M0.833332 18.3333C0.833332 16.5652 1.53571 14.8695 2.78595 13.6193C4.0362 12.369 5.73189 11.6667 7.5 11.6667C9.26811 11.6667 10.9638 12.369 12.214 13.6193C13.4643 14.8695 14.1667 16.5652 14.1667 18.3333H12.5C12.5 17.0072 11.9732 15.7355 11.0355 14.7978C10.0979 13.8601 8.82608 13.3333 7.5 13.3333C6.17392 13.3333 4.90215 13.8601 3.96446 14.7978C3.02678 15.7355 2.5 17.0072 2.5 18.3333H0.833332ZM7.5 10.8333C4.7375 10.8333 2.5 8.59582 2.5 5.83332C2.5 3.07082 4.7375 0.83332 7.5 0.83332C10.2625 0.83332 12.5 3.07082 12.5 5.83332C12.5 8.59582 10.2625 10.8333 7.5 10.8333ZM7.5 9.16665C9.34167 9.16665 10.8333 7.67499 10.8333 5.83332C10.8333 3.99165 9.34167 2.49999 7.5 2.49999C5.65833 2.49999 4.16667 3.99165 4.16667 5.83332C4.16667 7.67499 5.65833 9.16665 7.5 9.16665ZM17.9567 0.65332C18.7552 2.26318 19.1694 4.03631 19.1667 5.83332C19.1667 7.69415 18.7308 9.45332 17.9567 11.0133L16.5858 10.0167C17.1902 8.70495 17.5021 7.27754 17.5 5.83332C17.5 4.33999 17.1725 2.92249 16.5858 1.64999L17.9567 0.65332ZM15.205 2.65332C15.6212 3.66179 15.8347 4.74235 15.8333 5.83332C15.8347 6.92429 15.6212 8.00485 15.205 9.01332L13.8075 7.99665C14.046 7.30035 14.1673 6.56933 14.1667 5.83332C14.1676 5.09736 14.0465 4.36634 13.8083 3.66999L15.205 2.65332Z" fill="#DD1E25"/>
</g>
<defs>
<clipPath id="clip0_4463_12898">
<rect width="20" height="20" fill="white"/>
</clipPath>
</defs>
</svg>
