<svg width="96" height="96" viewBox="0 0 96 96" fill="none" xmlns="http://www.w3.org/2000/svg">
<path fill-rule="evenodd" clip-rule="evenodd" d="M32.9451 84.2798V87.9433H30.4419V79.4454C30.4419 76.9545 31.6666 74.8791 34.132 73.8537C35.0238 73.4851 35.9868 73.2973 36.9593 73.3023C37.8054 73.2917 38.6447 73.4467 39.4249 73.7576C40.2051 74.0685 40.9096 74.5287 41.4945 75.1095C42.0995 75.6759 42.5777 76.3526 42.9003 77.099C43.2228 77.8455 43.3831 78.6461 43.3714 79.4529C43.3868 80.2679 43.2297 81.0775 42.9093 81.8337C42.5889 82.5899 42.1119 83.2772 41.5064 83.8549C40.9292 84.4382 40.2306 84.9012 39.4551 85.2146C38.6795 85.5279 37.8438 85.6848 37.0011 85.6753C35.512 85.6961 34.0671 85.1945 32.9431 84.2665L32.9451 84.2798ZM46.308 73.3098C46.5168 73.308 46.724 73.3459 46.9172 73.4211C47.1104 73.4963 47.2859 73.6074 47.4333 73.7479C47.5854 73.8868 47.7058 74.0538 47.7872 74.2386C47.8686 74.4234 47.9092 74.6222 47.9065 74.8225C47.9024 75.2219 47.7335 75.6039 47.4361 75.8864C47.1387 76.1688 46.7365 76.3293 46.316 76.3332C46.1054 76.3355 45.8966 76.2968 45.7023 76.2195C45.5081 76.1422 45.3326 76.0279 45.1866 75.8838C44.9637 75.6723 44.8119 75.4026 44.7506 75.109C44.6892 74.8155 44.7211 74.5112 44.842 74.2349C44.963 73.9585 45.1677 73.7225 45.4301 73.5568C45.6925 73.3911 46.0009 73.3032 46.316 73.3042L46.308 73.3098ZM45.0554 77.1528H47.5745V87.9906H45.0554V77.1509V77.1528ZM51.8771 77.1528H54.591V79.3415H51.887V83.4489C51.8691 84.0872 51.9665 85.1201 52.6465 85.4525C53.1575 85.7037 53.923 85.7943 54.4478 85.5261L54.9787 85.2561L55.1775 85.7943C55.3247 86.172 55.4698 86.5497 55.6289 86.9274L55.8277 87.3957L55.3306 87.5845C54.6157 87.8645 53.8492 88.0064 53.076 88.0019C51.714 87.9282 50.6105 87.3806 49.8948 86.2494C49.4454 85.494 49.3242 84.5234 49.3381 83.6698V73.3079H51.8592V77.1509L51.8771 77.1528ZM58.0068 73.3098C58.2156 73.3079 58.4228 73.3457 58.616 73.4209C58.8093 73.4962 58.9848 73.6074 59.1321 73.7479C59.2802 73.8886 59.3976 74.0555 59.4777 74.2392C59.5578 74.4229 59.5991 74.6198 59.5991 74.8187C59.5991 75.0175 59.5578 75.2145 59.4777 75.3982C59.3976 75.5819 59.2802 75.7488 59.1321 75.8894C58.9841 76.03 58.8083 76.1416 58.6149 76.2177C58.4215 76.2938 58.2142 76.3329 58.0048 76.3329C57.7954 76.3329 57.5881 76.2938 57.3947 76.2177C57.2013 76.1416 57.0255 76.03 56.8775 75.8894C56.6545 75.6779 56.5028 75.4083 56.4414 75.1147C56.3801 74.8211 56.4119 74.5169 56.5329 74.2405C56.6539 73.9642 56.8585 73.7282 57.1209 73.5625C57.3834 73.3968 57.6917 73.3088 58.0068 73.3098ZM56.7522 77.1528H59.2653V87.9906H56.7522V77.1509V77.1528ZM63.7607 80.7541L68.113 77.166H71.831L66.5244 81.7436L71.3638 87.9906H68.0533L64.3731 83.209L63.7607 83.6887V87.9887H61.2397V73.3079H63.7607V80.7541ZM36.838 75.6326C36.3093 75.6217 35.784 75.7155 35.2955 75.9079C34.8071 76.1004 34.3661 76.3874 34.0008 76.7506C33.6173 77.1196 33.3166 77.5588 33.117 78.0415C32.9174 78.5242 32.8231 79.0403 32.8397 79.5587C32.8296 80.2484 33.0077 80.929 33.3566 81.534C33.6992 82.1166 34.2077 82.5958 34.824 82.9163C35.4431 83.2553 36.1452 83.4338 36.8599 83.4338C37.5526 83.435 38.2328 83.2582 38.8283 82.922C39.4485 82.5775 39.958 82.0786 40.3015 81.4792C40.6613 80.883 40.8518 80.2081 40.8543 79.5209C40.8548 78.837 40.6663 78.165 40.3075 77.572C39.9636 76.9822 39.4597 76.4905 38.8481 76.1481C38.2401 75.8056 37.545 75.6273 36.838 75.6326Z" fill="#F47B20"/>
<path d="M68.1428 42.0008C68.1428 51.0331 60.4677 58.3553 51 58.3553C41.5323 58.3553 33.8571 51.0331 33.8571 42.0008C33.8571 32.9684 42.9945 20.5888 51 20.5888C58.7791 20.5888 68.1428 32.9684 68.1428 42.0008Z" fill="white"/>
<path fill-rule="evenodd" clip-rule="evenodd" d="M51.1295 18.3392C60.838 18.3392 67.8466 26.4803 70.5704 34.61C73.6761 43.8766 71.8966 55.4112 63.4804 61.6808C59.9871 64.285 55.7959 65.5785 51.3641 65.5785H50.8611C46.4313 65.5785 42.2401 64.285 38.7467 61.6808C30.3246 55.4036 28.5431 43.8671 31.6487 34.6006C34.3826 26.4463 41.3911 18.3298 51.1335 18.3298L51.1295 18.3392ZM51.1295 22.0292C44.3695 22.0292 39.546 28.5594 37.689 34.1001C34.0108 45.0739 39.3909 57.2203 50.8551 57.2203H51.3522C62.8163 57.2203 68.1965 45.0739 64.5183 34.1001C62.6851 28.601 57.8597 22.0236 51.1295 22.0236V22.0292Z" fill="#F47B20"/>
<path fill-rule="evenodd" clip-rule="evenodd" d="M38.373 22.6637C36.2734 20.0199 38.2895 16.1788 42.1784 17.0664C42.7133 17.1249 42.9161 16.8247 42.7292 16.3431C41.4428 11.9601 46.825 9.88278 49.6582 13.0705C50.03 13.4387 50.533 13.4198 50.7219 12.9383C50.8889 6.28341 60.7883 6.43071 60.172 12.9118C59.9274 15.4782 56.9471 17.0437 52.8692 17.2552C47.0198 17.5385 42.423 18.7112 38.373 22.6637Z" fill="#DD1E25"/>
<path fill-rule="evenodd" clip-rule="evenodd" d="M33.3725 31.1542L24 34.2833L30.4876 39.5388L33.3725 31.1542Z" fill="#F47B20"/>
<path fill-rule="evenodd" clip-rule="evenodd" d="M53.5392 31.5526C54.3703 32.0089 55.0402 32.6889 55.4643 33.5068C55.8885 34.3246 56.0477 35.2436 55.922 36.1474C55.7962 37.0513 55.3912 37.8994 54.7579 38.5846C54.1247 39.2697 53.2918 39.7612 52.3645 39.9968C51.4373 40.2323 50.4573 40.2014 49.5485 39.908C48.6397 39.6146 47.8429 39.0718 47.2589 38.3482C46.6749 37.6247 46.3299 36.7529 46.2675 35.8432C46.2051 34.9334 46.4282 34.0265 46.9085 33.2371C47.2274 32.713 47.6519 32.2536 48.1577 31.8853C48.6635 31.517 49.2408 31.2469 49.8565 31.0905C50.4722 30.934 51.1144 30.8943 51.7463 30.9736C52.3781 31.0529 52.9874 31.2497 53.5392 31.5526ZM50.3242 33.205C50.0267 33.0406 49.6845 32.9637 49.341 32.984C48.9975 33.0044 48.668 33.1211 48.3943 33.3193C48.1206 33.5176 47.915 33.7885 47.8034 34.0978C47.6919 34.4071 47.6795 34.7409 47.7677 35.0569C47.856 35.3729 48.041 35.6569 48.2992 35.8731C48.5575 36.0892 48.8775 36.2277 49.2187 36.271C49.5598 36.3144 49.9069 36.2606 50.2159 36.1165C50.5249 35.9725 50.7819 35.7446 50.9545 35.4617C51.1853 35.0825 51.2481 34.6318 51.1291 34.2087C51.0102 33.7855 50.7193 33.4245 50.3203 33.205H50.3242Z" fill="#DD1E25"/>
<path fill-rule="evenodd" clip-rule="evenodd" d="M24 34.2814L31.4698 35.1086C31.5215 34.9424 31.5752 34.7762 31.6308 34.61C32.0157 33.4733 32.4738 32.3601 33.0027 31.2769L24 34.2814Z" fill="#F68B1F"/>
<path fill-rule="evenodd" clip-rule="evenodd" d="M56.6548 56.2572L56.3745 56.3648L56.2313 56.4177C56.1186 56.458 56.0053 56.497 55.8913 56.5348L55.7919 56.5669C55.6706 56.6066 55.5474 56.6443 55.4221 56.6802L55.3326 56.7066C55.2034 56.7425 55.0742 56.7765 54.935 56.8105L54.8733 56.8256C54.7408 56.8596 54.6029 56.8911 54.4598 56.92L54.3982 56.9333C54.251 56.9635 54.1039 56.9918 53.9548 57.0182H53.9369C53.7818 57.0447 53.6261 57.0686 53.4696 57.09H53.4518C53.2947 57.1127 53.1356 57.1315 52.9746 57.1467H52.9249C52.4123 57.1974 51.8973 57.2227 51.382 57.2222H50.879C39.4148 57.2222 34.0346 45.0757 37.7129 34.102L37.7924 33.8697V33.8414L37.868 33.6261L37.9057 33.5204L37.9495 33.4033L37.9813 33.3202L37.9952 33.2862L38.0847 33.0558L38.1801 32.8198V32.7971L38.2199 32.7008L38.2696 32.5818L38.2914 32.5308L38.3213 32.4629C38.3836 32.3181 38.4498 32.1739 38.5201 32.0304L38.534 32.0002V31.9889L38.5499 31.9568L38.6454 31.7509V31.7339L38.6931 31.6319L38.7507 31.513L38.7726 31.4677V31.4525L38.866 31.2637L38.9197 31.1579L38.9794 31.039L39.0311 30.937V30.92L39.0927 30.801V30.784L39.206 30.5725L39.2697 30.4554L39.3293 30.3478V30.3384L39.3949 30.2213V30.2099L39.4546 30.1042L39.5222 29.9871V29.972L39.5818 29.8719L39.6514 29.7548L39.7926 29.5226L39.8641 29.4074L39.9357 29.2922L40.0093 29.177C40.3771 28.6104 40.7728 28.0439 41.2022 27.5057L41.2877 27.3981L41.3732 27.2923L41.4607 27.1866L41.5482 27.0808L41.6357 26.9769L41.8146 26.7692C33.8438 32.2192 29.6665 44.6509 31.4758 51.5569C32.0185 53.5421 32.9618 55.4084 34.2533 57.0522C41.6655 63.0159 55.2551 60.9405 60.8162 53.6681C66.6874 48.4976 68.7095 39.0271 65.739 30.1627C64.7211 27.1261 62.9555 23.8384 60.5597 21.1775C57.8239 19.4251 54.6586 18.3449 51.1374 18.3449C50.8578 18.3449 50.5801 18.3518 50.3044 18.3657V22.0802C50.5788 22.0576 50.8551 22.0462 51.1374 22.0462C57.8676 22.0462 62.6871 28.6161 64.5302 34.1171C67.5981 43.2345 64.399 53.1602 56.6548 56.2572Z" fill="#F68B1F"/>
<path fill-rule="evenodd" clip-rule="evenodd" d="M66.59 81.838H61.2397V73.3079H63.7607V80.754L68.113 77.166H71.831L66.5244 81.7436L66.598 81.838H66.59ZM59.2653 81.838H56.7522V77.1509H59.2653V81.838ZM51.887 81.838H49.3639V73.3079H51.885V77.1509H54.5989V79.3396H51.895V81.838H51.887ZM47.5685 81.838H45.0554V77.1509H47.5745V81.838H47.5685ZM42.9141 81.838H40.061C40.147 81.7211 40.2267 81.6001 40.2996 81.4754C40.6593 80.8792 40.8498 80.2044 40.8523 79.5171C40.8527 78.8332 40.6642 78.1612 40.3055 77.5683C39.9616 76.9784 39.4577 76.4868 38.8462 76.1444C38.2382 75.8035 37.544 75.6266 36.838 75.6326C36.3093 75.6218 35.7841 75.7156 35.2956 75.9081C34.8072 76.1006 34.3662 76.3875 34.0008 76.7506C33.6173 77.1196 33.3166 77.5588 33.117 78.0415C32.9174 78.5242 32.8231 79.0403 32.8397 79.5587C32.8297 80.2484 33.0078 80.9289 33.3566 81.534C33.4175 81.6384 33.4839 81.7399 33.5555 81.838H30.4419V79.451C30.4419 76.9602 31.6666 74.8848 34.132 73.8594C35.0238 73.4908 35.9868 73.303 36.9593 73.3079C37.8054 73.2974 38.6447 73.4524 39.4249 73.7633C40.2051 74.0742 40.9096 74.5344 41.4945 75.1152C42.0995 75.6815 42.5777 76.3583 42.9003 77.1047C43.2228 77.8511 43.3831 78.6518 43.3714 79.4586C43.3792 80.269 43.224 81.0734 42.9141 81.8286V81.838ZM46.308 73.3098C46.5168 73.308 46.724 73.3459 46.9172 73.4211C47.1104 73.4963 47.2859 73.6075 47.4333 73.748C47.5854 73.8868 47.7058 74.0538 47.7872 74.2386C47.8686 74.4235 47.9092 74.6222 47.9065 74.8225C47.9024 75.2219 47.7335 75.6039 47.4361 75.8864C47.1387 76.1688 46.7365 76.3293 46.316 76.3332C46.1054 76.3355 45.8966 76.2968 45.7023 76.2195C45.5081 76.1422 45.3326 76.0279 45.1866 75.8838C44.9637 75.6723 44.8119 75.4026 44.7506 75.109C44.6892 74.8155 44.7211 74.5112 44.842 74.2349C44.963 73.9585 45.1677 73.7225 45.4301 73.5568C45.6925 73.3911 46.0009 73.3032 46.316 73.3042L46.308 73.3098ZM58.0068 73.3098C58.2156 73.3079 58.4228 73.3457 58.616 73.4209C58.8093 73.4962 58.9848 73.6074 59.1321 73.748C59.2802 73.8886 59.3976 74.0555 59.4777 74.2392C59.5578 74.4229 59.5991 74.6198 59.5991 74.8187C59.5991 75.0175 59.5578 75.2145 59.4777 75.3982C59.3976 75.5819 59.2802 75.7488 59.1321 75.8894C58.9841 76.03 58.8083 76.1416 58.6149 76.2177C58.4215 76.2938 58.2142 76.3329 58.0048 76.3329C57.7954 76.3329 57.5881 76.2938 57.3947 76.2177C57.2013 76.1416 57.0255 76.03 56.8775 75.8894C56.6545 75.6779 56.5028 75.4083 56.4414 75.1147C56.3801 74.8211 56.4119 74.5169 56.5329 74.2405C56.6539 73.9642 56.8585 73.7282 57.1209 73.5625C57.3834 73.3968 57.6917 73.3088 58.0068 73.3098Z" fill="#F6871F"/>
</svg>
