<svg width="112" height="80" viewBox="0 0 112 80" fill="none" xmlns="http://www.w3.org/2000/svg">
<ellipse cx="56" cy="72" rx="56" ry="6" fill="#FEF6D2"/>
<path d="M75.5386 10.1193C76.1132 10.0389 79.8307 9.9757 80.4024 9.89669C80.5501 9.63466 80.5883 9.3249 80.5087 9.03484C80.4549 8.86698 80.3639 8.71342 80.2425 8.58559C80.1212 8.45776 79.9725 8.35895 79.8077 8.29651C79.8839 8.14745 79.919 7.98077 79.9094 7.81364C79.8998 7.64651 79.8458 7.48496 79.7531 7.34559C79.6607 7.21668 79.5389 7.11173 79.3977 7.03951C79.2565 6.96729 79.1001 6.9299 78.9415 6.93046C78.9072 6.73943 78.8338 6.55753 78.726 6.39612C78.2391 5.6779 77.0196 5.72243 77.1244 5.71094C75.2413 5.89767 75.5386 10.1193 75.5386 10.1193Z" fill="#DD1E25"/>
<path d="M80.126 7.09379C79.9314 6.80329 79.6335 6.59783 79.2929 6.51922C79.243 6.38508 79.1774 6.25731 79.0975 6.13856C78.6278 5.4462 77.7228 5.29107 77.1885 5.2609C77.1522 5.25646 77.1156 5.25646 77.0793 5.2609C74.8256 5.48355 75.0554 9.6693 75.0884 10.1448C75.093 10.2062 75.1101 10.2661 75.1386 10.3207C75.1672 10.3754 75.2066 10.4235 75.2546 10.4623C75.3025 10.5011 75.3578 10.5296 75.4172 10.5461C75.4766 10.5627 75.5387 10.5669 75.5998 10.5585C75.8612 10.5211 76.9874 10.4852 77.98 10.4522C79.3316 10.4076 80.1748 10.3775 80.4635 10.3372C80.5317 10.3277 80.5968 10.3027 80.6538 10.2641C80.7108 10.2255 80.7583 10.1744 80.7925 10.1146C80.8951 9.93271 80.9606 9.73231 80.9852 9.52496C81.0099 9.31761 80.9932 9.10742 80.9361 8.90656C80.838 8.56991 80.6276 8.27695 80.34 8.07631C80.3939 7.73357 80.3175 7.38307 80.126 7.09379ZM80.0829 9.46964C79.6276 9.4998 78.7456 9.52854 77.9484 9.55439C77.0664 9.58312 76.4013 9.6061 75.9675 9.63052C75.9532 8.44403 76.1313 6.31524 77.1267 6.16442C77.7013 6.19171 78.1638 6.37271 78.3506 6.6485C78.423 6.75895 78.4719 6.88315 78.4942 7.01335C78.5176 7.11641 78.5749 7.20865 78.657 7.27531C78.739 7.34197 78.841 7.37921 78.9467 7.38108C79.0304 7.38062 79.113 7.39989 79.1879 7.43733C79.2627 7.47476 79.3277 7.52931 79.3776 7.59654C79.426 7.66944 79.4541 7.75395 79.4589 7.84133C79.4637 7.92871 79.445 8.01578 79.4049 8.09355C79.3761 8.15057 79.3597 8.21305 79.3569 8.27686C79.3541 8.34067 79.3648 8.40436 79.3885 8.4637C79.4121 8.52305 79.4481 8.5767 79.494 8.6211C79.5399 8.6655 79.5947 8.69964 79.6549 8.72127C79.7525 8.75928 79.8406 8.81818 79.9131 8.89387C79.9855 8.96955 80.0406 9.06017 80.0743 9.15937C80.103 9.26041 80.1065 9.36696 80.0843 9.46964H80.0829Z" fill="#AB6116"/>
<path d="M70.0443 72.2419L75.9796 72.6614C76.3617 72.68 76.5542 72.1672 76.2281 71.9647H76.2195C75.8029 71.7176 71.4793 70.7753 70.4465 70.58C69.2514 70.353 68.3019 69.6247 68.0778 68.4253L66.3671 59.2451L63.5215 59.5899L66.4101 69.5213C66.5092 70.0657 66.3541 70.251 66.1228 70.4564C65.5684 70.9549 63.8059 72.2405 64.0458 72.963C64.1736 73.348 64.8444 73.0406 65.261 72.838C66.7276 72.1198 67.328 72.8639 67.6814 73.2316C68.9038 74.5029 70.1018 75.0171 70.9205 75.0157C71.8987 75.0157 71.3127 74.4253 71.3127 74.4253C70.7754 74.1251 70.3 73.5735 69.7613 72.9975C69.4941 72.7116 69.6493 72.2232 70.0443 72.2419Z" fill="#FDEBA5"/>
<path d="M76.8021 72.5133C76.8585 72.3424 76.8555 72.1576 76.7937 71.9887C76.732 71.8197 76.615 71.6766 76.4617 71.5825L76.4488 71.5738C75.8842 71.2377 70.8797 70.2006 70.5292 70.1374C69.4261 69.9277 68.6935 69.2756 68.5182 68.3462L66.8089 59.1688C66.7878 59.0563 66.7247 58.956 66.6324 58.8882C66.5401 58.8205 66.4255 58.7904 66.3119 58.804L63.4663 59.1487C63.4014 59.1567 63.339 59.1787 63.2834 59.2132C63.2278 59.2478 63.1804 59.2939 63.1445 59.3486C63.1085 59.4033 63.0849 59.4651 63.0753 59.5298C63.0656 59.5945 63.0701 59.6605 63.0885 59.7233L65.97 69.6347C66.0246 69.9507 65.97 69.9981 65.8264 70.1317C65.7387 70.2107 65.6181 70.3112 65.4802 70.419C64.3454 71.3656 63.3485 72.2863 63.6229 73.1079C63.6533 73.204 63.7043 73.2923 63.7723 73.3667C63.8402 73.4411 63.9235 73.4999 64.0165 73.5389C64.433 73.7156 64.9588 73.4915 65.463 73.2516C66.5676 72.7158 66.9798 73.1496 67.3116 73.4987L67.3619 73.5518C68.5369 74.7742 69.834 75.4737 70.9214 75.4737C71.121 75.4737 71.7014 75.4737 71.8939 75.0127C72.0375 74.6808 71.8522 74.3318 71.6367 74.1163C71.6073 74.0869 71.574 74.0618 71.5376 74.0416C71.1268 73.8118 70.7188 73.3708 70.2865 72.9054L70.0998 72.7043L75.9604 73.118C76.1476 73.1238 76.3316 73.0677 76.4838 72.9584C76.636 72.8491 76.7479 72.6926 76.8021 72.5133ZM70.0638 71.795C69.8964 71.783 69.7293 71.8228 69.5853 71.9092C69.4414 71.9956 69.3276 72.1243 69.2594 72.2777C69.1832 72.4477 69.1589 72.6364 69.1895 72.8201C69.2202 73.0039 69.3045 73.1745 69.4318 73.3105L69.62 73.513C69.9477 73.8882 70.3051 74.2365 70.6887 74.5544C70.2089 74.4898 69.2235 74.1924 68.0054 72.9255L67.9595 72.8767C67.6894 72.5894 67.2154 72.0924 66.3794 72.0924C65.9202 72.1064 65.4702 72.2248 65.0636 72.4386C64.8846 72.5294 64.6993 72.6071 64.5092 72.6713C64.6212 72.4343 65.0105 71.9803 66.0504 71.1127C66.1941 70.9892 66.3262 70.8829 66.421 70.7967C66.7011 70.5454 66.987 70.2135 66.852 69.4465C66.852 69.4312 66.8486 69.4163 66.8419 69.402L64.1026 59.979L66.0031 59.7492L67.6348 68.5114C67.879 69.8042 68.8974 70.7436 70.364 71.0223C71.4011 71.219 74.2065 71.8381 75.4389 72.1714L70.0638 71.795Z" fill="#AB6116"/>
<path d="M46.7635 73.1783C46.8913 73.5647 47.5621 73.2558 47.9787 73.0533C49.4453 72.3351 50.0457 73.0792 50.3991 73.4469C51.6215 74.7181 52.8195 75.2324 53.6382 75.2309C54.6164 75.2309 54.0304 74.6406 54.0304 74.6406C53.4931 74.3403 53.0177 73.7887 52.479 73.2127C52.209 72.9255 52.3641 72.4342 52.7591 72.4543L57.2954 72.8737C57.6775 72.8924 57.87 72.3796 57.5439 72.1771H57.5353C57.1187 71.93 54.3981 71.1285 53.3193 70.7708C52.1702 70.3887 50.9363 69.8357 50.9507 68.6162C50.9665 67.1366 52.5307 60.9916 52.5307 60.9916L49.4051 60.5176C49.4051 60.5176 49.237 67.2329 49.1968 68.6018C49.1767 69.2841 49.2873 70.337 48.7472 70.8168C48.2071 71.2966 46.5236 72.4601 46.7635 73.1783Z" fill="#FDEBA5"/>
<path d="M52.9073 60.7443C52.8726 60.6919 52.8273 60.6473 52.7744 60.6134C52.7214 60.5796 52.662 60.5571 52.5999 60.5475L49.4742 60.0735C49.4113 60.0642 49.3472 60.0682 49.286 60.0854C49.2248 60.1025 49.168 60.1325 49.1191 60.1731C49.0703 60.2138 49.0306 60.2644 49.0027 60.3215C48.9748 60.3786 48.9592 60.4409 48.9571 60.5044C48.9571 60.5044 48.789 67.2183 48.7488 68.5872C48.7488 68.705 48.7488 68.8343 48.7488 68.9693C48.7488 69.495 48.7488 70.2147 48.4529 70.4804C48.3552 70.5666 48.2231 70.6744 48.0722 70.795C47.1687 71.5247 46.0455 72.4325 46.3385 73.3202C46.369 73.4163 46.42 73.5045 46.488 73.5789C46.5559 73.6533 46.6392 73.7121 46.7321 73.7512C47.1501 73.9264 47.6758 73.7038 48.1785 73.4639C49.2832 72.9281 49.6954 73.3619 50.0272 73.711L50.0775 73.7641C51.2525 74.9865 52.5496 75.686 53.6384 75.686C53.8309 75.686 54.4184 75.686 54.6109 75.2235C54.7545 74.8917 54.5692 74.5427 54.3537 74.3272C54.3244 74.2978 54.291 74.2726 54.2546 74.2525C53.8438 74.0227 53.4359 73.5817 53.0035 73.1163L52.8182 72.9166L57.2711 73.3289C57.4588 73.3368 57.6437 73.2823 57.7971 73.174C57.9504 73.0656 58.0635 72.9094 58.1186 72.7299C58.1748 72.5594 58.1719 72.375 58.1103 72.2064C58.0488 72.0378 57.9324 71.8948 57.7796 71.8005L57.7638 71.7904C57.4478 71.6023 56.3533 71.2532 54.72 70.7433C54.2259 70.5882 53.772 70.4474 53.4589 70.344C51.988 69.857 51.3904 69.3586 51.399 68.6203C51.4119 67.4927 52.4304 63.2092 52.9676 61.102C52.9829 61.0414 52.9854 60.9784 52.975 60.9168C52.9646 60.8553 52.9415 60.7965 52.9073 60.7443ZM57.5426 72.1812L57.3056 72.5632L57.5426 72.1812ZM50.5041 68.6131C50.4855 70.3037 52.3715 70.93 53.1816 71.1986C53.4991 71.3035 53.9573 71.4472 54.4572 71.6037C55.1754 71.8292 56.2642 72.1682 56.8747 72.388L52.7852 72.0102C52.6177 71.9979 52.4505 72.0377 52.3065 72.1241C52.1625 72.2105 52.0487 72.3393 51.9808 72.4929C51.9045 72.6628 51.8802 72.8516 51.9109 73.0353C51.9415 73.2191 52.0258 73.3897 52.1531 73.5257L52.3413 73.7282C52.6691 74.1029 53.0265 74.4507 53.41 74.7682C52.9303 74.7035 51.9449 74.4062 50.7253 73.1393L50.6779 73.0904C50.4079 72.8031 49.9339 72.3076 49.0979 72.3076C48.6387 72.3217 48.1888 72.4401 47.7821 72.6537C47.602 72.7458 47.4152 72.8241 47.2233 72.8879C47.3268 72.6739 47.6873 72.2688 48.6368 71.5003C48.8005 71.3681 48.9442 71.2518 49.049 71.1584C49.6495 70.6241 49.648 69.7091 49.6466 68.9736C49.6466 68.8486 49.6466 68.7294 49.6466 68.6203C49.6796 67.4797 49.8017 62.6375 49.8419 61.0445L51.9736 61.3677C51.5958 62.8587 50.5127 67.3289 50.4984 68.6131H50.5041Z" fill="#AB6116"/>
<path d="M65.4279 61.9611C70.0704 60.7445 66.8744 51.1348 66.8744 51.1348L59.0918 53.2894C59.0918 53.2894 60.998 63.1232 65.4279 61.9611Z" fill="#FAFAFA"/>
<path d="M62.9725 61.9832C63.4887 62.3205 64.091 62.5025 64.7077 62.5075C64.989 62.5065 65.269 62.4693 65.5408 62.3969C66.0035 62.2801 66.4359 62.066 66.8092 61.7687C67.1825 61.4715 67.488 61.098 67.7055 60.6732C69.4292 57.4886 67.3881 51.2502 67.3004 50.9859C67.2629 50.8774 67.1854 50.7872 67.0837 50.7338C66.982 50.6804 66.8638 50.6678 66.7531 50.6986L58.9706 52.8533C58.8614 52.8837 58.7677 52.9541 58.7081 53.0504C58.6485 53.1468 58.6273 53.262 58.6488 53.3733C58.702 53.6433 59.9832 60.1073 62.9725 61.9832ZM66.5707 51.6855C66.9873 53.1018 68.2212 57.8363 66.9126 60.2495C66.7533 60.5649 66.5277 60.8423 66.2513 61.0624C65.9748 61.2826 65.6541 61.4404 65.311 61.525C64.9973 61.6112 64.6686 61.6286 64.3476 61.576C64.0266 61.5234 63.7207 61.4022 63.4508 61.2205C61.187 59.797 59.9459 55.0352 59.6184 53.6074L66.5707 51.6855Z" fill="#AB6116"/>
<path d="M56.0655 53.8752L47.819 53.5635C47.819 53.5635 46.1614 62.4133 50.7235 62.8141C55.5039 63.2335 56.0655 53.8752 56.0655 53.8752Z" fill="#FAFAFA"/>
<path d="M50.6859 63.2673C50.8037 63.2779 50.92 63.2831 51.035 63.2831C51.9253 63.2834 52.7843 62.9544 53.4467 62.3595C56.1185 60.0612 56.5006 54.1575 56.5164 53.9076C56.52 53.8478 56.5118 53.7879 56.492 53.7314C56.4722 53.6749 56.4413 53.6229 56.4012 53.5785C56.3611 53.5341 56.3124 53.4981 56.2582 53.4727C56.204 53.4473 56.1453 53.4331 56.0854 53.4307L47.8389 53.119C47.7306 53.1135 47.624 53.1479 47.5393 53.2157C47.4547 53.2834 47.3977 53.3798 47.3792 53.4867C47.3347 53.7251 46.312 59.3373 48.2943 61.9501C48.5733 62.3302 48.9318 62.6449 49.3449 62.8724C49.7579 63.0999 50.2155 63.2346 50.6859 63.2673ZM48.2023 54.0325L55.5784 54.3126C55.4347 55.7175 54.8472 59.9636 52.8607 61.6786C52.5799 61.9353 52.248 62.1297 51.8868 62.249C51.5256 62.3683 51.1433 62.4099 50.7649 62.371C50.4188 62.3487 50.0819 62.2501 49.7784 62.0822C49.4749 61.9143 49.2124 61.6813 49.0096 61.4C47.5416 59.4622 48.0141 55.3081 48.2038 54.0282L48.2023 54.0325Z" fill="#AB6116"/>
<path d="M48.6712 23.8659C41.2018 25.4833 37.2932 29.5441 36.5219 35.5569C35.1228 35.8543 33.7022 36.9848 32.4783 39.6091C31.2157 42.3168 31.2329 48.4748 32.2801 48.7936C34.0239 49.3237 36.9154 49.9284 39.6992 49.8609C43.9396 56.4484 51.738 60.1831 57.9936 58.659C64.5021 57.3145 68.9751 54.9243 71.8983 51.9078L71.9227 51.8877C86.4866 39.0618 79.0387 29.4521 78.2645 25.4718C77.2676 20.3409 78.592 12.7666 78.592 12.7666L78.4182 12.7852C78.6892 11.9651 78.7841 11.0969 78.6967 10.2376C78.6093 9.37823 78.3417 8.54698 77.9111 7.79813C77.4806 7.04928 76.8969 6.39969 76.1983 5.89178C75.4996 5.38387 74.7016 5.02907 73.8565 4.85057C73.0113 4.67206 72.138 4.67387 71.2936 4.85587C70.4492 5.03787 69.6527 5.39596 68.9562 5.90676C68.2596 6.41755 67.6786 7.06956 67.2512 7.82019C66.8238 8.57081 66.5596 9.40316 66.4757 10.2629C66.1885 13.3296 67.1422 16.5659 67.2557 19.2348C67.4137 22.9451 63.2639 23.3904 60.6481 23.3056C59.9778 23.2252 59.3012 23.1644 58.6185 23.1232H58.5782H58.5955C55.2691 22.9259 51.9312 23.1757 48.6712 23.8659Z" fill="#FAFAFA"/>
<path d="M58.5453 22.665C55.2028 22.4731 51.8496 22.7291 48.575 23.4263C41.2205 25.0207 37.0304 28.9795 36.1169 35.1964C34.5196 35.6647 33.1592 37.0839 32.069 39.4209C30.9457 41.8284 30.7762 46.922 31.5016 48.5581C31.6639 48.92 31.8808 49.1456 32.1466 49.226C33.03 49.4946 36.1197 50.3392 39.4566 50.3177C43.1783 55.9542 49.3334 59.4606 55.0317 59.4606C56.0594 59.4635 57.0837 59.3434 58.0827 59.1029C64.2694 57.8259 69.0197 55.5118 72.2028 52.2439L72.2186 52.231C84.6394 41.2926 81.2782 32.4542 79.4726 27.7069C79.125 26.7933 78.8248 26.0032 78.7055 25.3913C77.736 20.4026 79.0201 12.9246 79.0345 12.8499C79.0544 12.7359 79.0297 12.6186 78.9655 12.5224C79.1924 11.6431 79.2351 10.7265 79.0911 9.82997C78.947 8.93345 78.6191 8.07637 78.1282 7.3125C77.6372 6.54864 76.9938 5.89447 76.2381 5.39103C75.4824 4.8876 74.6308 4.54576 73.7367 4.38696C72.8427 4.22816 71.9255 4.25583 71.0427 4.46823C70.1598 4.68063 69.3304 5.07318 68.6064 5.62125C67.8824 6.16931 67.2796 6.86108 66.8355 7.65315C66.3915 8.44521 66.116 9.32049 66.0262 10.2241C65.8409 12.1719 66.1382 14.1355 66.4255 16.033C66.6079 17.1006 66.7345 18.177 66.8047 19.2578C66.8449 20.1972 66.5907 20.9312 66.0262 21.5C65.0796 22.4567 63.1821 22.9365 60.6812 22.8589C60.0133 22.7785 59.3296 22.7153 58.6501 22.6765C58.6157 22.6686 58.5805 22.6648 58.5453 22.665ZM58.6042 22.9523L58.6415 22.7282L58.6314 22.8919L58.5998 23.0212L58.6042 22.9523ZM60.5936 23.7495H60.6324C62.5874 23.8156 65.2218 23.5829 66.6654 22.1235C67.4051 21.3765 67.7542 20.3997 67.7039 19.2089C67.6326 18.0959 67.5027 16.9873 67.3147 15.8879C67.036 14.0435 66.7401 12.1374 66.9211 10.3002C67.0001 9.50406 67.246 8.73351 67.6429 8.03884C68.0398 7.34417 68.5787 6.74098 69.2245 6.26865C69.8702 5.79631 70.6083 5.46543 71.3906 5.2976C72.1728 5.12978 72.9817 5.12878 73.7644 5.29466C74.5471 5.46054 75.286 5.78957 75.9329 6.2603C76.5798 6.73103 77.1202 7.33286 77.5188 8.02655C77.9175 8.72023 78.1653 9.49016 78.2463 10.2861C78.3273 11.0821 78.2395 11.8862 77.9888 12.6459C77.9653 12.7174 77.9601 12.7936 77.9737 12.8676C77.9872 12.9416 78.0191 13.0111 78.0663 13.0696L78.0807 13.0869C77.8207 14.7316 76.9316 21.0174 77.8207 25.5594C77.9543 26.2474 78.2674 27.0705 78.6294 28.0229C80.4795 32.8866 83.575 41.0254 71.6283 51.5458C71.6087 51.5616 71.59 51.5784 71.5722 51.5961C68.517 54.7462 63.9175 56.9741 57.8845 58.2195C51.8371 59.6904 44.181 55.993 40.0728 49.6153C40.032 49.5517 39.9759 49.4995 39.9096 49.4633C39.8434 49.4272 39.7691 49.4083 39.6936 49.4084H39.6821C36.4099 49.4874 33.3259 48.6385 32.4252 48.3656C31.8076 47.8398 31.6467 42.4403 32.8806 39.7958C33.9148 37.578 35.1688 36.2996 36.6153 35.9936C36.7067 35.9741 36.7897 35.9268 36.853 35.8581C36.9163 35.7894 36.9567 35.7027 36.9687 35.6101C37.7357 29.636 41.7089 25.8323 48.7675 24.3011C51.987 23.6163 55.2839 23.368 58.5697 23.5628H58.5927C59.2606 23.6102 59.9343 23.6705 60.5936 23.7495Z" fill="#AB6116"/>
<path d="M47.6016 49.4774C59.0658 46.3675 61.884 40.5715 62.121 34.5098L51.7974 23.7093C40.803 23.1261 26.9314 30.3686 25.8828 37.5794C32.8768 48.3613 44.0019 46.4322 44.0019 46.4322C43.9585 46.8932 44.0272 47.3579 44.2022 47.7867C44.3771 48.2154 44.6531 48.5955 45.0067 48.8946C45.3602 49.1937 45.7808 49.4029 46.2327 49.5044C46.6845 49.6058 47.1541 49.5966 47.6016 49.4774Z" fill="#FAFAFA"/>
<path d="M51.7738 24.1531C51.8934 24.1575 52.01 24.1148 52.0986 24.0343C52.1872 23.9537 52.2408 23.8417 52.2478 23.7222C52.2511 23.6627 52.2425 23.6031 52.2226 23.5469C52.2026 23.4907 52.1717 23.4391 52.1316 23.395C52.0915 23.3509 52.043 23.3152 51.989 23.29C51.935 23.2648 51.8765 23.2506 51.8169 23.2482C46.5438 22.9709 40.2177 24.4878 34.8943 27.3118C29.3985 30.2278 25.9497 33.9424 25.4326 37.5033C25.4166 37.6115 25.4406 37.7218 25.5001 37.8136C31.6968 47.3672 41.2031 47.1432 43.5416 46.9277C43.5751 47.4158 43.7163 47.8905 43.9551 48.3176C44.1938 48.7447 44.5242 49.1136 44.9224 49.3979C45.3207 49.6822 45.7769 49.8747 46.2584 49.9617C46.7399 50.0487 47.2347 50.028 47.7073 49.9011C57.5324 47.2351 62.2511 42.3469 62.5585 34.517C62.5632 34.3978 62.5205 34.2816 62.4397 34.1939C62.3589 34.1061 62.2467 34.0539 62.1276 34.0487C62.0684 34.0456 62.0092 34.0544 61.9534 34.0745C61.8977 34.0945 61.8465 34.1256 61.8028 34.1657C61.7592 34.2058 61.7241 34.2543 61.6994 34.3082C61.6748 34.3621 61.6611 34.4204 61.6593 34.4796C61.4611 39.5157 59.6698 45.7211 47.4717 49.0306C47.0945 49.132 46.6983 49.1405 46.3171 49.0553C45.9359 48.9701 45.581 48.7938 45.2828 48.5415C44.9846 48.2892 44.7519 47.9684 44.6048 47.6065C44.4577 47.2447 44.4004 46.8525 44.438 46.4637C44.4445 46.3946 44.4349 46.3249 44.41 46.2601C44.3851 46.1953 44.3455 46.1372 44.2943 46.0903C44.2434 46.0436 44.1825 46.0092 44.1163 45.9895C44.0501 45.9698 43.9803 45.9655 43.9122 45.9768C43.8045 45.9955 33.0887 47.7005 26.3418 37.4674C27.5455 30.6429 40.9647 23.5786 51.7738 24.1531Z" fill="#AB6116"/>
<path d="M82.8507 14.3667C83.0604 14.4629 83.1566 14.5103 83.3333 14.3581C83.4293 14.277 83.4975 14.1678 83.5281 14.0459C83.5588 13.924 83.5504 13.7955 83.5042 13.6787C82.5749 11.2913 80.4073 10.3232 79.0226 9.94394C78.6597 9.84094 78.2712 9.88167 77.9376 10.0577C77.604 10.2337 77.3511 10.5315 77.2313 10.8891C76.5577 12.9647 77.8706 13.8855 77.8706 13.8855C80.4015 13.5666 82.1914 14.0636 82.8507 14.3667Z" fill="#FDEBA5"/>
<path d="M77.9255 14.3278C80.2626 14.0406 82.0021 14.4715 82.6657 14.776C82.8076 14.8519 82.9646 14.8956 83.1253 14.9039C83.3108 14.8996 83.4885 14.8281 83.6252 14.7027C83.7936 14.5613 83.9132 14.3705 83.9674 14.1574C84.0215 13.9442 84.0073 13.7195 83.9269 13.5148C82.907 10.8962 80.4938 9.87922 79.1465 9.50575C78.6718 9.37003 78.1631 9.42331 77.7269 9.65441C77.2906 9.8855 76.9608 10.2765 76.8065 10.7454C76.0395 13.1097 77.5506 14.2043 77.6152 14.2503C77.7054 14.3137 77.816 14.3413 77.9255 14.3278ZM77.6597 11.0241C77.7431 10.7765 77.9189 10.5707 78.1505 10.4497C78.382 10.3287 78.6514 10.3018 78.9023 10.3748C80.3502 10.777 82.2506 11.7035 83.0851 13.8438C83.094 13.8651 83.0975 13.8882 83.0955 13.9112C83.0935 13.9343 83.086 13.9564 83.0736 13.9759L83.0391 13.9601C82.3367 13.6369 81.0626 13.3338 79.4481 13.3338C78.9682 13.3342 78.4887 13.3606 78.0117 13.4128C77.7603 13.15 77.213 12.3958 77.6597 11.0226V11.0241Z" fill="#AB6116"/>
<path d="M72.2545 12.1192C73.3515 11.9508 74.1042 10.9249 73.9358 9.82792C73.7673 8.73093 72.7415 7.9782 71.6445 8.14665C70.5475 8.3151 69.7948 9.34095 69.9632 10.4379C70.1317 11.5349 71.1575 12.2877 72.2545 12.1192Z" fill="white"/>
<path d="M70.4947 12.0993C70.9145 12.409 71.4224 12.5761 71.9441 12.5762C72.4628 12.5769 72.9684 12.4136 73.3887 12.1097C73.8091 11.8058 74.1226 11.3769 74.2846 10.8842C74.4466 10.3915 74.4488 9.86016 74.2908 9.36613C74.1328 8.87211 73.8228 8.44063 73.4049 8.13334C72.879 7.74743 72.2213 7.58624 71.5766 7.68524C70.9318 7.78424 70.3528 8.13531 69.9668 8.66123C69.5809 9.18715 69.4197 9.84484 69.5187 10.4896C69.6177 11.1344 69.9688 11.7134 70.4947 12.0993ZM70.693 9.19343C70.8136 9.02798 70.9659 8.88808 71.1409 8.78181C71.316 8.67555 71.5104 8.60503 71.7128 8.57433C71.7922 8.56201 71.8724 8.55577 71.9527 8.55565C72.3033 8.55656 72.6433 8.67554 72.918 8.89339C73.1927 9.11123 73.386 9.41525 73.4667 9.75641C73.5474 10.0976 73.5109 10.456 73.363 10.7738C73.215 11.0917 72.9644 11.3504 72.6514 11.5083C72.3384 11.6663 71.9813 11.7141 71.6377 11.6443C71.2942 11.5744 70.9842 11.3909 70.7578 11.1232C70.5313 10.8556 70.4016 10.5195 70.3896 10.1691C70.3776 9.81873 70.4839 9.47451 70.6915 9.19199L70.693 9.19343Z" fill="#AB6116"/>
<path d="M72.0569 10.8348C72.4482 10.7747 72.7167 10.4088 72.6566 10.0175C72.5965 9.62622 72.2306 9.35774 71.8393 9.41782C71.4481 9.4779 71.1796 9.8438 71.2397 10.2351C71.2997 10.6264 71.6656 10.8949 72.0569 10.8348Z" fill="#AB6116"/>
<path d="M78.1341 19.2857C78.1341 19.2857 81.1262 18.8074 79.3464 16.2692C78.8693 15.5705 78.6504 14.7274 78.7273 13.8848C78.7273 13.8848 77.0927 16.6442 78.1341 19.2857Z" fill="#DD1E25"/>
<path d="M78.8771 13.4618C78.7788 13.427 78.6715 13.4275 78.5734 13.4631C78.4754 13.4987 78.3928 13.5673 78.3399 13.6572C78.268 13.7778 76.6075 16.6377 77.7165 19.4517C77.7541 19.5471 77.8231 19.6269 77.9122 19.6778C78.0012 19.7287 78.1049 19.7478 78.2063 19.7318C78.2695 19.7218 79.7662 19.4704 80.2302 18.3773C80.5175 17.7021 80.3437 16.9064 79.716 16.0115C79.3066 15.4052 79.1157 14.6778 79.1744 13.9487C79.1889 13.8457 79.1671 13.7409 79.1129 13.6521C79.0587 13.5633 78.9753 13.496 78.8771 13.4618ZM79.4043 18.0296C79.2477 18.4031 78.788 18.6344 78.4289 18.7479C78.0985 17.6188 78.2594 16.4797 78.5079 15.615C78.6241 15.9392 78.783 16.2465 78.9805 16.5286C79.2778 16.9566 79.5953 17.5628 79.4014 18.0196L79.4043 18.0296Z" fill="#AB6116"/>
</svg>
