<svg width="20" height="20" viewBox="0 0 20 20" fill="none" xmlns="http://www.w3.org/2000/svg">
<g clip-path="url(#clip0_11143_26176)">
<path d="M14.1667 7.66668L18.5108 4.62501C18.5733 4.58122 18.6466 4.55542 18.7227 4.55043C18.7988 4.54543 18.8749 4.56143 18.9425 4.59667C19.0102 4.63192 19.0669 4.68506 19.1064 4.7503C19.1459 4.81555 19.1668 4.89039 19.1667 4.96668V15.0333C19.1668 15.1096 19.1459 15.1845 19.1064 15.2497C19.0669 15.315 19.0102 15.3681 18.9425 15.4033C18.8749 15.4386 18.7988 15.4546 18.7227 15.4496C18.6466 15.4446 18.5733 15.4188 18.5108 15.375L14.1667 12.3333V15.8333C14.1667 16.0544 14.0789 16.2663 13.9226 16.4226C13.7663 16.5789 13.5544 16.6667 13.3333 16.6667H1.66668C1.44566 16.6667 1.2337 16.5789 1.07742 16.4226C0.921141 16.2663 0.833344 16.0544 0.833344 15.8333V4.16668C0.833344 3.94566 0.921141 3.7337 1.07742 3.57742C1.2337 3.42114 1.44566 3.33334 1.66668 3.33334H13.3333C13.5544 3.33334 13.7663 3.42114 13.9226 3.57742C14.0789 3.7337 14.1667 3.94566 14.1667 4.16668V7.66668ZM14.1667 10.2992L17.5 12.6325V7.36668L14.1667 9.70001V10.2983V10.2992ZM2.50001 5.00001V15H12.5V5.00001H2.50001ZM4.16668 6.66668H5.83334V8.33334H4.16668V6.66668Z" fill="#F47B20"/>
</g>
<defs>
<clipPath id="clip0_11143_26176">
<rect width="20" height="20" fill="white"/>
</clipPath>
</defs>
</svg>
