<svg width="20" height="20" viewBox="0 0 20 20" fill="none" xmlns="http://www.w3.org/2000/svg">
<g clip-path="url(#clip0_11279_26169)">
<path d="M15.8334 18.3333H4.16669C3.50365 18.3333 2.86776 18.0699 2.39892 17.6011C1.93008 17.1322 1.66669 16.4963 1.66669 15.8333V2.49996C1.66669 2.27895 1.75448 2.06698 1.91076 1.9107C2.06704 1.75442 2.27901 1.66663 2.50002 1.66663H14.1667C14.3877 1.66663 14.5997 1.75442 14.7559 1.9107C14.9122 2.06698 15 2.27895 15 2.49996V12.5H18.3334V15.8333C18.3334 16.4963 18.07 17.1322 17.6011 17.6011C17.1323 18.0699 16.4964 18.3333 15.8334 18.3333ZM15 14.1666V15.8333C15 16.0543 15.0878 16.2663 15.2441 16.4225C15.4004 16.5788 15.6123 16.6666 15.8334 16.6666C16.0544 16.6666 16.2663 16.5788 16.4226 16.4225C16.5789 16.2663 16.6667 16.0543 16.6667 15.8333V14.1666H15ZM13.3334 16.6666V3.33329H3.33335V15.8333C3.33335 16.0543 3.42115 16.2663 3.57743 16.4225C3.73371 16.5788 3.94567 16.6666 4.16669 16.6666H13.3334ZM5.00002 5.83329H11.6667V7.49996H5.00002V5.83329ZM5.00002 9.16663H11.6667V10.8333H5.00002V9.16663ZM5.00002 12.5H9.16669V14.1666H5.00002V12.5Z" fill="#F47B20"/>
</g>
<defs>
<clipPath id="clip0_11279_26169">
<rect width="20" height="20" fill="white"/>
</clipPath>
</defs>
</svg>
