<svg width="581" height="238" viewBox="0 0 581 238" fill="none" xmlns="http://www.w3.org/2000/svg">
<rect x="28" y="8" width="87" height="203" fill="#F47B20"/>
<rect x="28.5" y="12.5" width="178" height="64" fill="#F8CC56"/>
<g clip-path="url(#clip0_12280_29306)">
<path d="M106 50.3333C102.778 50.3333 100.167 47.7217 100.167 44.5C100.167 41.2782 102.778 38.6666 106 38.6666C109.222 38.6666 111.833 41.2782 111.833 44.5C111.833 47.7217 109.222 50.3333 106 50.3333ZM106 49.1666C107.238 49.1666 108.425 48.675 109.3 47.7998C110.175 46.9246 110.667 45.7376 110.667 44.5C110.667 43.2623 110.175 42.0753 109.3 41.2001C108.425 40.325 107.238 39.8333 106 39.8333C104.762 39.8333 103.575 40.325 102.7 41.2001C101.825 42.0753 101.333 43.2623 101.333 44.5C101.333 45.7376 101.825 46.9246 102.7 47.7998C103.575 48.675 104.762 49.1666 106 49.1666ZM106 47.4166C105.226 47.4166 104.485 47.1093 103.938 46.5624C103.391 46.0154 103.083 45.2735 103.083 44.5C103.083 43.7264 103.391 42.9845 103.938 42.4376C104.485 41.8906 105.226 41.5833 106 41.5833C106.774 41.5833 107.515 41.8906 108.062 42.4376C108.609 42.9845 108.917 43.7264 108.917 44.5C108.917 45.2735 108.609 46.0154 108.062 46.5624C107.515 47.1093 106.774 47.4166 106 47.4166Z" fill="white"/>
</g>
<path d="M121.028 50L125.508 40.2H126.53L131.01 50H129.918L125.802 40.802H126.222L122.106 50H121.028ZM122.792 47.382L123.1 46.542H128.798L129.106 47.382H122.792ZM133.147 50V40.62L133.595 41.096H130.837V40.2H134.155V50H133.147Z" fill="black"/>
<rect x="28.5" y="12.5" width="178" height="64" stroke="#F47B20" stroke-dasharray="2 2"/>
<rect x="28.5" y="77.5" width="178" height="64" fill="#F8CC56"/>
<g clip-path="url(#clip1_12280_29306)">
<path d="M104 115.333C100.778 115.333 98.1667 112.722 98.1667 109.5C98.1667 106.278 100.778 103.667 104 103.667C107.222 103.667 109.833 106.278 109.833 109.5C109.833 112.722 107.222 115.333 104 115.333ZM104 114.167C105.238 114.167 106.425 113.675 107.3 112.8C108.175 111.925 108.667 110.738 108.667 109.5C108.667 108.262 108.175 107.075 107.3 106.2C106.425 105.325 105.238 104.833 104 104.833C102.762 104.833 101.575 105.325 100.7 106.2C99.825 107.075 99.3334 108.262 99.3334 109.5C99.3334 110.738 99.825 111.925 100.7 112.8C101.575 113.675 102.762 114.167 104 114.167ZM104 112.417C103.226 112.417 102.485 112.109 101.938 111.562C101.391 111.015 101.083 110.274 101.083 109.5C101.083 108.726 101.391 107.985 101.938 107.438C102.485 106.891 103.226 106.583 104 106.583C104.774 106.583 105.515 106.891 106.062 107.438C106.609 107.985 106.917 108.726 106.917 109.5C106.917 110.274 106.609 111.015 106.062 111.562C105.515 112.109 104.774 112.417 104 112.417Z" fill="white"/>
</g>
<path d="M119.028 115L123.508 105.2H124.53L129.01 115H127.918L123.802 105.802H124.222L120.106 115H119.028ZM120.792 112.382L121.1 111.542H126.798L127.106 112.382H120.792ZM129.831 115V114.286L133.905 110.296C134.278 109.932 134.558 109.615 134.745 109.344C134.932 109.064 135.058 108.803 135.123 108.56C135.188 108.317 135.221 108.089 135.221 107.874C135.221 107.305 135.025 106.857 134.633 106.53C134.25 106.203 133.681 106.04 132.925 106.04C132.346 106.04 131.833 106.129 131.385 106.306C130.946 106.483 130.568 106.759 130.251 107.132L129.537 106.516C129.92 106.068 130.41 105.723 131.007 105.48C131.604 105.237 132.272 105.116 133.009 105.116C133.672 105.116 134.246 105.223 134.731 105.438C135.216 105.643 135.59 105.947 135.851 106.348C136.122 106.749 136.257 107.221 136.257 107.762C136.257 108.079 136.21 108.392 136.117 108.7C136.033 109.008 135.874 109.335 135.641 109.68C135.417 110.016 135.086 110.399 134.647 110.828L130.909 114.496L130.629 114.104H136.705V115H129.831Z" fill="black"/>
<rect x="28.5" y="77.5" width="178" height="64" stroke="#F47B20" stroke-dasharray="2 2"/>
<rect x="28.5" y="142.5" width="178" height="64" fill="#F8CC56"/>
<g clip-path="url(#clip2_12280_29306)">
<path d="M104 180.333C100.778 180.333 98.1667 177.722 98.1667 174.5C98.1667 171.278 100.778 168.667 104 168.667C107.222 168.667 109.833 171.278 109.833 174.5C109.833 177.722 107.222 180.333 104 180.333ZM104 179.167C105.238 179.167 106.425 178.675 107.3 177.8C108.175 176.925 108.667 175.738 108.667 174.5C108.667 173.262 108.175 172.075 107.3 171.2C106.425 170.325 105.238 169.833 104 169.833C102.762 169.833 101.575 170.325 100.7 171.2C99.825 172.075 99.3334 173.262 99.3334 174.5C99.3334 175.738 99.825 176.925 100.7 177.8C101.575 178.675 102.762 179.167 104 179.167ZM104 177.417C103.226 177.417 102.485 177.109 101.938 176.562C101.391 176.015 101.083 175.274 101.083 174.5C101.083 173.727 101.391 172.985 101.938 172.438C102.485 171.891 103.226 171.583 104 171.583C104.774 171.583 105.515 171.891 106.062 172.438C106.609 172.985 106.917 173.727 106.917 174.5C106.917 175.274 106.609 176.015 106.062 176.562C105.515 177.109 104.774 177.417 104 177.417Z" fill="white"/>
</g>
<path d="M119.028 180L123.508 170.2H124.53L129.01 180H127.918L123.802 170.802H124.222L120.106 180H119.028ZM120.792 177.382L121.1 176.542H126.798L127.106 177.382H120.792ZM133.076 180.084C132.367 180.084 131.695 179.972 131.06 179.748C130.435 179.515 129.931 179.207 129.548 178.824L130.038 178.026C130.355 178.353 130.78 178.623 131.312 178.838C131.853 179.053 132.441 179.16 133.076 179.16C133.888 179.16 134.509 178.983 134.938 178.628C135.377 178.273 135.596 177.797 135.596 177.2C135.596 176.603 135.381 176.127 134.952 175.772C134.532 175.417 133.865 175.24 132.95 175.24H132.25V174.498L135.274 170.704L135.414 171.096H129.954V170.2H136.254V170.914L133.23 174.708L132.74 174.386H133.118C134.294 174.386 135.171 174.647 135.75 175.17C136.338 175.693 136.632 176.365 136.632 177.186C136.632 177.737 136.501 178.231 136.24 178.67C135.979 179.109 135.582 179.454 135.05 179.706C134.527 179.958 133.869 180.084 133.076 180.084Z" fill="black"/>
<rect x="28.5" y="142.5" width="178" height="64" stroke="#F47B20" stroke-dasharray="2 2"/>
<rect x="207.5" y="12.5" width="178" height="64" fill="#F8CC56"/>
<g clip-path="url(#clip3_12280_29306)">
<path d="M284.5 50.3333C281.278 50.3333 278.667 47.7217 278.667 44.5C278.667 41.2782 281.278 38.6666 284.5 38.6666C287.722 38.6666 290.333 41.2782 290.333 44.5C290.333 47.7217 287.722 50.3333 284.5 50.3333ZM284.5 49.1666C285.738 49.1666 286.925 48.675 287.8 47.7998C288.675 46.9246 289.167 45.7376 289.167 44.5C289.167 43.2623 288.675 42.0753 287.8 41.2001C286.925 40.325 285.738 39.8333 284.5 39.8333C283.262 39.8333 282.075 40.325 281.2 41.2001C280.325 42.0753 279.833 43.2623 279.833 44.5C279.833 45.7376 280.325 46.9246 281.2 47.7998C282.075 48.675 283.262 49.1666 284.5 49.1666ZM284.5 47.4166C283.726 47.4166 282.985 47.1093 282.438 46.5624C281.891 46.0154 281.583 45.2735 281.583 44.5C281.583 43.7264 281.891 42.9845 282.438 42.4376C282.985 41.8906 283.726 41.5833 284.5 41.5833C285.274 41.5833 286.015 41.8906 286.562 42.4376C287.109 42.9845 287.417 43.7264 287.417 44.5C287.417 45.2735 287.109 46.0154 286.562 46.5624C286.015 47.1093 285.274 47.4166 284.5 47.4166Z" fill="white"/>
</g>
<path d="M301.096 50V40.2H305.324C306.416 40.2 307.261 40.4193 307.858 40.858C308.465 41.2967 308.768 41.9173 308.768 42.72C308.768 43.252 308.642 43.7 308.39 44.064C308.147 44.428 307.811 44.7033 307.382 44.89C306.962 45.0767 306.5 45.17 305.996 45.17L306.234 44.834C306.859 44.834 307.396 44.932 307.844 45.128C308.301 45.3147 308.656 45.5993 308.908 45.982C309.16 46.3553 309.286 46.822 309.286 47.382C309.286 48.2127 308.978 48.8567 308.362 49.314C307.755 49.7713 306.836 50 305.604 50H301.096ZM302.132 49.146H305.59C306.449 49.146 307.107 49.0013 307.564 48.712C308.021 48.4133 308.25 47.942 308.25 47.298C308.25 46.6633 308.021 46.2013 307.564 45.912C307.107 45.6133 306.449 45.464 305.59 45.464H302.02V44.61H305.254C306.038 44.61 306.645 44.4607 307.074 44.162C307.513 43.8633 307.732 43.42 307.732 42.832C307.732 42.2347 307.513 41.7913 307.074 41.502C306.645 41.2033 306.038 41.054 305.254 41.054H302.132V49.146ZM312.741 50V40.62L313.189 41.096H310.431V40.2H313.749V50H312.741Z" fill="black"/>
<rect x="207.5" y="12.5" width="178" height="64" stroke="#F47B20" stroke-dasharray="2 2"/>
<rect x="207.5" y="77.5" width="178" height="64" fill="#F8CC56"/>
<g clip-path="url(#clip4_12280_29306)">
<path d="M283 115.333C279.778 115.333 277.167 112.722 277.167 109.5C277.167 106.278 279.778 103.667 283 103.667C286.222 103.667 288.833 106.278 288.833 109.5C288.833 112.722 286.222 115.333 283 115.333ZM283 114.167C284.238 114.167 285.425 113.675 286.3 112.8C287.175 111.925 287.667 110.738 287.667 109.5C287.667 108.262 287.175 107.075 286.3 106.2C285.425 105.325 284.238 104.833 283 104.833C281.762 104.833 280.575 105.325 279.7 106.2C278.825 107.075 278.333 108.262 278.333 109.5C278.333 110.738 278.825 111.925 279.7 112.8C280.575 113.675 281.762 114.167 283 114.167ZM283 112.417C282.226 112.417 281.485 112.109 280.938 111.562C280.391 111.015 280.083 110.274 280.083 109.5C280.083 108.726 280.391 107.985 280.938 107.438C281.485 106.891 282.226 106.583 283 106.583C283.774 106.583 284.515 106.891 285.062 107.438C285.609 107.985 285.917 108.726 285.917 109.5C285.917 110.274 285.609 111.015 285.062 111.562C284.515 112.109 283.774 112.417 283 112.417Z" fill="white"/>
</g>
<path d="M299.596 115V105.2H303.824C304.916 105.2 305.761 105.419 306.358 105.858C306.965 106.297 307.268 106.917 307.268 107.72C307.268 108.252 307.142 108.7 306.89 109.064C306.647 109.428 306.311 109.703 305.882 109.89C305.462 110.077 305 110.17 304.496 110.17L304.734 109.834C305.359 109.834 305.896 109.932 306.344 110.128C306.801 110.315 307.156 110.599 307.408 110.982C307.66 111.355 307.786 111.822 307.786 112.382C307.786 113.213 307.478 113.857 306.862 114.314C306.255 114.771 305.336 115 304.104 115H299.596ZM300.632 114.146H304.09C304.949 114.146 305.607 114.001 306.064 113.712C306.521 113.413 306.75 112.942 306.75 112.298C306.75 111.663 306.521 111.201 306.064 110.912C305.607 110.613 304.949 110.464 304.09 110.464H300.52V109.61H303.754C304.538 109.61 305.145 109.461 305.574 109.162C306.013 108.863 306.232 108.42 306.232 107.832C306.232 107.235 306.013 106.791 305.574 106.502C305.145 106.203 304.538 106.054 303.754 106.054H300.632V114.146ZM309.351 115V114.286L313.425 110.296C313.798 109.932 314.078 109.615 314.265 109.344C314.451 109.064 314.577 108.803 314.643 108.56C314.708 108.317 314.741 108.089 314.741 107.874C314.741 107.305 314.545 106.857 314.153 106.53C313.77 106.203 313.201 106.04 312.445 106.04C311.866 106.04 311.353 106.129 310.905 106.306C310.466 106.483 310.088 106.759 309.771 107.132L309.057 106.516C309.439 106.068 309.929 105.723 310.527 105.48C311.124 105.237 311.791 105.116 312.529 105.116C313.191 105.116 313.765 105.223 314.251 105.438C314.736 105.643 315.109 105.947 315.371 106.348C315.641 106.749 315.777 107.221 315.777 107.762C315.777 108.079 315.73 108.392 315.637 108.7C315.553 109.008 315.394 109.335 315.161 109.68C314.937 110.016 314.605 110.399 314.167 110.828L310.429 114.496L310.149 114.104H316.225V115H309.351Z" fill="black"/>
<rect x="207.5" y="77.5" width="178" height="64" stroke="#F47B20" stroke-dasharray="2 2"/>
<rect x="207.5" y="142.5" width="178" height="64" fill="#F8CC56"/>
<g clip-path="url(#clip5_12280_29306)">
<path d="M283 180.333C279.778 180.333 277.167 177.722 277.167 174.5C277.167 171.278 279.778 168.667 283 168.667C286.222 168.667 288.833 171.278 288.833 174.5C288.833 177.722 286.222 180.333 283 180.333ZM283 179.167C284.238 179.167 285.425 178.675 286.3 177.8C287.175 176.925 287.667 175.738 287.667 174.5C287.667 173.262 287.175 172.075 286.3 171.2C285.425 170.325 284.238 169.833 283 169.833C281.762 169.833 280.575 170.325 279.7 171.2C278.825 172.075 278.333 173.262 278.333 174.5C278.333 175.738 278.825 176.925 279.7 177.8C280.575 178.675 281.762 179.167 283 179.167ZM283 177.417C282.226 177.417 281.485 177.109 280.938 176.562C280.391 176.015 280.083 175.274 280.083 174.5C280.083 173.727 280.391 172.985 280.938 172.438C281.485 171.891 282.226 171.583 283 171.583C283.774 171.583 284.515 171.891 285.062 172.438C285.609 172.985 285.917 173.727 285.917 174.5C285.917 175.274 285.609 176.015 285.062 176.562C284.515 177.109 283.774 177.417 283 177.417Z" fill="white"/>
</g>
<path d="M299.596 180V170.2H303.824C304.916 170.2 305.761 170.419 306.358 170.858C306.965 171.297 307.268 171.917 307.268 172.72C307.268 173.252 307.142 173.7 306.89 174.064C306.647 174.428 306.311 174.703 305.882 174.89C305.462 175.077 305 175.17 304.496 175.17L304.734 174.834C305.359 174.834 305.896 174.932 306.344 175.128C306.801 175.315 307.156 175.599 307.408 175.982C307.66 176.355 307.786 176.822 307.786 177.382C307.786 178.213 307.478 178.857 306.862 179.314C306.255 179.771 305.336 180 304.104 180H299.596ZM300.632 179.146H304.09C304.949 179.146 305.607 179.001 306.064 178.712C306.521 178.413 306.75 177.942 306.75 177.298C306.75 176.663 306.521 176.201 306.064 175.912C305.607 175.613 304.949 175.464 304.09 175.464H300.52V174.61H303.754C304.538 174.61 305.145 174.461 305.574 174.162C306.013 173.863 306.232 173.42 306.232 172.832C306.232 172.235 306.013 171.791 305.574 171.502C305.145 171.203 304.538 171.054 303.754 171.054H300.632V179.146ZM312.459 180.084C311.749 180.084 311.077 179.972 310.443 179.748C309.817 179.515 309.313 179.207 308.931 178.824L309.421 178.026C309.738 178.353 310.163 178.623 310.695 178.838C311.236 179.053 311.824 179.16 312.459 179.16C313.271 179.16 313.891 178.983 314.321 178.628C314.759 178.273 314.979 177.797 314.979 177.2C314.979 176.603 314.764 176.127 314.335 175.772C313.915 175.417 313.247 175.24 312.333 175.24H311.633V174.498L314.657 170.704L314.797 171.096H309.337V170.2H315.637V170.914L312.613 174.708L312.123 174.386H312.501C313.677 174.386 314.554 174.647 315.133 175.17C315.721 175.693 316.015 176.365 316.015 177.186C316.015 177.737 315.884 178.231 315.623 178.67C315.361 179.109 314.965 179.454 314.433 179.706C313.91 179.958 313.252 180.084 312.459 180.084Z" fill="black"/>
<rect x="207.5" y="142.5" width="178" height="64" stroke="#F47B20" stroke-dasharray="2 2"/>
<rect x="386.5" y="12.5" width="178" height="64" fill="#F8CC56"/>
<g clip-path="url(#clip6_12280_29306)">
<path d="M463.5 50.3333C460.278 50.3333 457.667 47.7217 457.667 44.5C457.667 41.2782 460.278 38.6666 463.5 38.6666C466.722 38.6666 469.333 41.2782 469.333 44.5C469.333 47.7217 466.722 50.3333 463.5 50.3333ZM463.5 49.1666C464.738 49.1666 465.925 48.675 466.8 47.7998C467.675 46.9246 468.167 45.7376 468.167 44.5C468.167 43.2623 467.675 42.0753 466.8 41.2001C465.925 40.325 464.738 39.8333 463.5 39.8333C462.262 39.8333 461.075 40.325 460.2 41.2001C459.325 42.0753 458.833 43.2623 458.833 44.5C458.833 45.7376 459.325 46.9246 460.2 47.7998C461.075 48.675 462.262 49.1666 463.5 49.1666ZM463.5 47.4166C462.726 47.4166 461.985 47.1093 461.438 46.5624C460.891 46.0154 460.583 45.2735 460.583 44.5C460.583 43.7264 460.891 42.9845 461.438 42.4376C461.985 41.8906 462.726 41.5833 463.5 41.5833C464.274 41.5833 465.015 41.8906 465.562 42.4376C466.109 42.9845 466.417 43.7264 466.417 44.5C466.417 45.2735 466.109 46.0154 465.562 46.5624C465.015 47.1093 464.274 47.4166 463.5 47.4166Z" fill="white"/>
</g>
<path d="M484.352 50.084C483.615 50.084 482.933 49.9627 482.308 49.72C481.683 49.468 481.141 49.118 480.684 48.67C480.227 48.222 479.867 47.6947 479.606 47.088C479.354 46.4813 479.228 45.8187 479.228 45.1C479.228 44.3813 479.354 43.7187 479.606 43.112C479.867 42.5053 480.227 41.978 480.684 41.53C481.151 41.082 481.697 40.7367 482.322 40.494C482.947 40.242 483.629 40.116 484.366 40.116C485.075 40.116 485.743 40.2373 486.368 40.48C486.993 40.7133 487.521 41.068 487.95 41.544L487.292 42.202C486.891 41.7913 486.447 41.4973 485.962 41.32C485.477 41.1333 484.954 41.04 484.394 41.04C483.806 41.04 483.26 41.1427 482.756 41.348C482.252 41.544 481.813 41.8287 481.44 42.202C481.067 42.566 480.773 42.9953 480.558 43.49C480.353 43.9753 480.25 44.512 480.25 45.1C480.25 45.688 480.353 46.2293 480.558 46.724C480.773 47.2093 481.067 47.6387 481.44 48.012C481.813 48.376 482.252 48.6607 482.756 48.866C483.26 49.062 483.806 49.16 484.394 49.16C484.954 49.16 485.477 49.0667 485.962 48.88C486.447 48.6933 486.891 48.3947 487.292 47.984L487.95 48.642C487.521 49.118 486.993 49.4773 486.368 49.72C485.743 49.9627 485.071 50.084 484.352 50.084ZM491.385 50V40.62L491.833 41.096H489.075V40.2H492.393V50H491.385Z" fill="black"/>
<rect x="386.5" y="12.5" width="178" height="64" stroke="#F47B20" stroke-dasharray="2 2"/>
<rect x="386.5" y="77.5" width="178" height="64" fill="#F8CC56"/>
<g clip-path="url(#clip7_12280_29306)">
<path d="M462 115.333C458.778 115.333 456.167 112.722 456.167 109.5C456.167 106.278 458.778 103.667 462 103.667C465.222 103.667 467.833 106.278 467.833 109.5C467.833 112.722 465.222 115.333 462 115.333ZM462 114.167C463.238 114.167 464.425 113.675 465.3 112.8C466.175 111.925 466.667 110.738 466.667 109.5C466.667 108.262 466.175 107.075 465.3 106.2C464.425 105.325 463.238 104.833 462 104.833C460.762 104.833 459.575 105.325 458.7 106.2C457.825 107.075 457.333 108.262 457.333 109.5C457.333 110.738 457.825 111.925 458.7 112.8C459.575 113.675 460.762 114.167 462 114.167ZM462 112.417C461.226 112.417 460.485 112.109 459.938 111.562C459.391 111.015 459.083 110.274 459.083 109.5C459.083 108.726 459.391 107.985 459.938 107.438C460.485 106.891 461.226 106.583 462 106.583C462.774 106.583 463.515 106.891 464.062 107.438C464.609 107.985 464.917 108.726 464.917 109.5C464.917 110.274 464.609 111.015 464.062 111.562C463.515 112.109 462.774 112.417 462 112.417Z" fill="white"/>
</g>
<path d="M482.852 115.084C482.115 115.084 481.433 114.963 480.808 114.72C480.183 114.468 479.641 114.118 479.184 113.67C478.727 113.222 478.367 112.695 478.106 112.088C477.854 111.481 477.728 110.819 477.728 110.1C477.728 109.381 477.854 108.719 478.106 108.112C478.367 107.505 478.727 106.978 479.184 106.53C479.651 106.082 480.197 105.737 480.822 105.494C481.447 105.242 482.129 105.116 482.866 105.116C483.575 105.116 484.243 105.237 484.868 105.48C485.493 105.713 486.021 106.068 486.45 106.544L485.792 107.202C485.391 106.791 484.947 106.497 484.462 106.32C483.977 106.133 483.454 106.04 482.894 106.04C482.306 106.04 481.76 106.143 481.256 106.348C480.752 106.544 480.313 106.829 479.94 107.202C479.567 107.566 479.273 107.995 479.058 108.49C478.853 108.975 478.75 109.512 478.75 110.1C478.75 110.688 478.853 111.229 479.058 111.724C479.273 112.209 479.567 112.639 479.94 113.012C480.313 113.376 480.752 113.661 481.256 113.866C481.76 114.062 482.306 114.16 482.894 114.16C483.454 114.16 483.977 114.067 484.462 113.88C484.947 113.693 485.391 113.395 485.792 112.984L486.45 113.642C486.021 114.118 485.493 114.477 484.868 114.72C484.243 114.963 483.571 115.084 482.852 115.084ZM487.749 115V114.286L491.823 110.296C492.196 109.932 492.476 109.615 492.663 109.344C492.85 109.064 492.976 108.803 493.041 108.56C493.106 108.317 493.139 108.089 493.139 107.874C493.139 107.305 492.943 106.857 492.551 106.53C492.168 106.203 491.599 106.04 490.843 106.04C490.264 106.04 489.751 106.129 489.303 106.306C488.864 106.483 488.486 106.759 488.169 107.132L487.455 106.516C487.838 106.068 488.328 105.723 488.925 105.48C489.522 105.237 490.19 105.116 490.927 105.116C491.59 105.116 492.164 105.223 492.649 105.438C493.134 105.643 493.508 105.947 493.769 106.348C494.04 106.749 494.175 107.221 494.175 107.762C494.175 108.079 494.128 108.392 494.035 108.7C493.951 109.008 493.792 109.335 493.559 109.68C493.335 110.016 493.004 110.399 492.565 110.828L488.827 114.496L488.547 114.104H494.623V115H487.749Z" fill="black"/>
<rect x="386.5" y="77.5" width="178" height="64" stroke="#F47B20" stroke-dasharray="2 2"/>
<rect x="386.5" y="142.5" width="178" height="64" fill="#F8CC56"/>
<g clip-path="url(#clip8_12280_29306)">
<path d="M462 180.333C458.778 180.333 456.167 177.722 456.167 174.5C456.167 171.278 458.778 168.667 462 168.667C465.222 168.667 467.833 171.278 467.833 174.5C467.833 177.722 465.222 180.333 462 180.333ZM462 179.167C463.238 179.167 464.425 178.675 465.3 177.8C466.175 176.925 466.667 175.738 466.667 174.5C466.667 173.262 466.175 172.075 465.3 171.2C464.425 170.325 463.238 169.833 462 169.833C460.762 169.833 459.575 170.325 458.7 171.2C457.825 172.075 457.333 173.262 457.333 174.5C457.333 175.738 457.825 176.925 458.7 177.8C459.575 178.675 460.762 179.167 462 179.167ZM462 177.417C461.226 177.417 460.485 177.109 459.938 176.562C459.391 176.015 459.083 175.274 459.083 174.5C459.083 173.727 459.391 172.985 459.938 172.438C460.485 171.891 461.226 171.583 462 171.583C462.774 171.583 463.515 171.891 464.062 172.438C464.609 172.985 464.917 173.727 464.917 174.5C464.917 175.274 464.609 176.015 464.062 176.562C463.515 177.109 462.774 177.417 462 177.417Z" fill="white"/>
</g>
<path d="M482.852 180.084C482.115 180.084 481.433 179.963 480.808 179.72C480.183 179.468 479.641 179.118 479.184 178.67C478.727 178.222 478.367 177.695 478.106 177.088C477.854 176.481 477.728 175.819 477.728 175.1C477.728 174.381 477.854 173.719 478.106 173.112C478.367 172.505 478.727 171.978 479.184 171.53C479.651 171.082 480.197 170.737 480.822 170.494C481.447 170.242 482.129 170.116 482.866 170.116C483.575 170.116 484.243 170.237 484.868 170.48C485.493 170.713 486.021 171.068 486.45 171.544L485.792 172.202C485.391 171.791 484.947 171.497 484.462 171.32C483.977 171.133 483.454 171.04 482.894 171.04C482.306 171.04 481.76 171.143 481.256 171.348C480.752 171.544 480.313 171.829 479.94 172.202C479.567 172.566 479.273 172.995 479.058 173.49C478.853 173.975 478.75 174.512 478.75 175.1C478.75 175.688 478.853 176.229 479.058 176.724C479.273 177.209 479.567 177.639 479.94 178.012C480.313 178.376 480.752 178.661 481.256 178.866C481.76 179.062 482.306 179.16 482.894 179.16C483.454 179.16 483.977 179.067 484.462 178.88C484.947 178.693 485.391 178.395 485.792 177.984L486.45 178.642C486.021 179.118 485.493 179.477 484.868 179.72C484.243 179.963 483.571 180.084 482.852 180.084ZM490.939 180.084C490.23 180.084 489.558 179.972 488.923 179.748C488.298 179.515 487.794 179.207 487.411 178.824L487.901 178.026C488.218 178.353 488.643 178.623 489.175 178.838C489.716 179.053 490.304 179.16 490.939 179.16C491.751 179.16 492.372 178.983 492.801 178.628C493.24 178.273 493.459 177.797 493.459 177.2C493.459 176.603 493.244 176.127 492.815 175.772C492.395 175.417 491.728 175.24 490.813 175.24H490.113V174.498L493.137 170.704L493.277 171.096H487.817V170.2H494.117V170.914L491.093 174.708L490.603 174.386H490.981C492.157 174.386 493.034 174.647 493.613 175.17C494.201 175.693 494.495 176.365 494.495 177.186C494.495 177.737 494.364 178.231 494.103 178.67C493.842 179.109 493.445 179.454 492.913 179.706C492.39 179.958 491.732 180.084 490.939 180.084Z" fill="black"/>
<rect x="386.5" y="142.5" width="178" height="64" stroke="#F47B20" stroke-dasharray="2 2"/>
<rect x="29" y="13" width="535" height="193" stroke="#F47B20" stroke-width="2"/>
<path d="M572 34C572 37.4353 571.141 40.4974 569.805 42.6683C568.459 44.8553 566.732 46 565 46C563.268 46 561.541 44.8553 560.195 42.6683C558.859 40.4974 558 37.4353 558 34C558 30.5647 558.859 27.5026 560.195 25.3317C561.541 23.1447 563.268 22 565 22C566.732 22 568.459 23.1447 569.805 25.3317C571.141 27.5026 572 30.5647 572 34Z" fill="#F8CC56" stroke="#F47B20" stroke-width="2"/>
<path d="M572 72C572 75.4353 571.141 78.4974 569.805 80.6683C568.459 82.8553 566.732 84 565 84C563.268 84 561.541 82.8553 560.195 80.6683C558.859 78.4974 558 75.4353 558 72C558 68.5647 558.859 65.5026 560.195 63.3317C561.541 61.1447 563.268 60 565 60C566.732 60 568.459 61.1447 569.805 63.3317C571.141 65.5026 572 68.5647 572 72Z" fill="#F8CC56" stroke="#F47B20" stroke-width="2"/>
<path d="M572 110C572 113.435 571.141 116.497 569.805 118.668C568.459 120.855 566.732 122 565 122C563.268 122 561.541 120.855 560.195 118.668C558.859 116.497 558 113.435 558 110C558 106.565 558.859 103.503 560.195 101.332C561.541 99.1447 563.268 98 565 98C566.732 98 568.459 99.1447 569.805 101.332C571.141 103.503 572 106.565 572 110Z" fill="#F8CC56" stroke="#F47B20" stroke-width="2"/>
<path d="M572 148C572 151.435 571.141 154.497 569.805 156.668C568.459 158.855 566.732 160 565 160C563.268 160 561.541 158.855 560.195 156.668C558.859 154.497 558 151.435 558 148C558 144.565 558.859 141.503 560.195 139.332C561.541 137.145 563.268 136 565 136C566.732 136 568.459 137.145 569.805 139.332C571.141 141.503 572 144.565 572 148Z" fill="#F8CC56" stroke="#F47B20" stroke-width="2"/>
<path d="M572 186C572 189.435 571.141 192.497 569.805 194.668C568.459 196.855 566.732 198 565 198C563.268 198 561.541 196.855 560.195 194.668C558.859 192.497 558 189.435 558 186C558 182.565 558.859 179.503 560.195 177.332C561.541 175.145 563.268 174 565 174C566.732 174 568.459 175.145 569.805 177.332C571.141 179.503 572 182.565 572 186Z" fill="#F8CC56" stroke="#F47B20" stroke-width="2"/>
<rect x="30" y="14" width="59" height="193" fill="#F8A556"/>
<path d="M13.0806 72V62.2H14.9006V72H13.0806ZM9.64901 93V83.2H11.147L17.293 90.746H16.551V83.2H18.357V93H16.859L10.713 85.454H11.455V93H9.64901ZM11.1256 114V104.2H12.9456V112.46H18.0696V114H11.1256ZM12.3065 129.274H17.1785V130.772H12.3065V129.274ZM12.4465 133.474H17.9765V135H10.6265V125.2H17.7805V126.726H12.4465V133.474ZM13.0931 156V147.74H9.84506V146.2H18.1611V147.74H14.9131V156H13.0931Z" fill="#2C2B2B"/>
<g clip-path="url(#clip9_12280_29306)">
<path d="M381 227.833C377.778 227.833 375.167 225.222 375.167 222C375.167 218.778 377.778 216.167 381 216.167C384.222 216.167 386.833 218.778 386.833 222C386.833 225.222 384.222 227.833 381 227.833ZM381 226.667C382.238 226.667 383.425 226.175 384.3 225.3C385.175 224.425 385.667 223.238 385.667 222C385.667 220.762 385.175 219.575 384.3 218.7C383.425 217.825 382.238 217.333 381 217.333C379.762 217.333 378.575 217.825 377.7 218.7C376.825 219.575 376.333 220.762 376.333 222C376.333 223.238 376.825 224.425 377.7 225.3C378.575 226.175 379.762 226.667 381 226.667ZM381 224.917C380.226 224.917 379.485 224.609 378.938 224.062C378.391 223.515 378.083 222.774 378.083 222C378.083 221.227 378.391 220.485 378.938 219.938C379.485 219.391 380.226 219.083 381 219.083C381.774 219.083 382.515 219.391 383.062 219.938C383.609 220.485 383.917 221.227 383.917 222C383.917 222.774 383.609 223.515 383.062 224.062C382.515 224.609 381.774 224.917 381 224.917Z" fill="#F4B420"/>
</g>
<path d="M392.14 226V219H392.88V225.36H396.8V226H392.14ZM398.029 226V220.75H398.739V226H398.029ZM398.389 219.59C398.242 219.59 398.119 219.54 398.019 219.44C397.919 219.34 397.869 219.22 397.869 219.08C397.869 218.94 397.919 218.823 398.019 218.73C398.119 218.63 398.242 218.58 398.389 218.58C398.535 218.58 398.659 218.627 398.759 218.72C398.859 218.813 398.909 218.93 398.909 219.07C398.909 219.217 398.859 219.34 398.759 219.44C398.665 219.54 398.542 219.59 398.389 219.59ZM403.544 220.7C403.971 220.7 404.344 220.783 404.664 220.95C404.991 221.11 405.244 221.357 405.424 221.69C405.611 222.023 405.704 222.443 405.704 222.95V226H404.994V223.02C404.994 222.467 404.854 222.05 404.574 221.77C404.301 221.483 403.914 221.34 403.414 221.34C403.041 221.34 402.714 221.417 402.434 221.57C402.161 221.717 401.948 221.933 401.794 222.22C401.648 222.5 401.574 222.84 401.574 223.24V226H400.864V220.75H401.544V222.19L401.434 221.92C401.601 221.54 401.868 221.243 402.234 221.03C402.601 220.81 403.038 220.7 403.544 220.7ZM410.012 227.99C409.532 227.99 409.072 227.92 408.632 227.78C408.192 227.64 407.835 227.44 407.562 227.18L407.922 226.64C408.169 226.86 408.472 227.033 408.832 227.16C409.199 227.293 409.585 227.36 409.992 227.36C410.659 227.36 411.149 227.203 411.462 226.89C411.775 226.583 411.932 226.103 411.932 225.45V224.14L412.032 223.24L411.962 222.34V220.75H412.642V225.36C412.642 226.267 412.419 226.93 411.972 227.35C411.532 227.777 410.879 227.99 410.012 227.99ZM409.882 225.8C409.382 225.8 408.932 225.693 408.532 225.48C408.132 225.26 407.815 224.957 407.582 224.57C407.355 224.183 407.242 223.74 407.242 223.24C407.242 222.74 407.355 222.3 407.582 221.92C407.815 221.533 408.132 221.233 408.532 221.02C408.932 220.807 409.382 220.7 409.882 220.7C410.349 220.7 410.769 220.797 411.142 220.99C411.515 221.183 411.812 221.47 412.032 221.85C412.252 222.23 412.362 222.693 412.362 223.24C412.362 223.787 412.252 224.25 412.032 224.63C411.812 225.01 411.515 225.3 411.142 225.5C410.769 225.7 410.349 225.8 409.882 225.8ZM409.952 225.17C410.339 225.17 410.682 225.09 410.982 224.93C411.282 224.763 411.519 224.537 411.692 224.25C411.865 223.957 411.952 223.62 411.952 223.24C411.952 222.86 411.865 222.527 411.692 222.24C411.519 221.953 411.282 221.73 410.982 221.57C410.682 221.403 410.339 221.32 409.952 221.32C409.572 221.32 409.229 221.403 408.922 221.57C408.622 221.73 408.385 221.953 408.212 222.24C408.045 222.527 407.962 222.86 407.962 223.24C407.962 223.62 408.045 223.957 408.212 224.25C408.385 224.537 408.622 224.763 408.922 224.93C409.229 225.09 409.572 225.17 409.952 225.17ZM415.328 224.64L415.348 223.73L418.618 220.75H419.488L417.178 222.96L416.778 223.3L415.328 224.64ZM414.768 226V218.58H415.478V226H414.768ZM418.838 226L416.648 223.27L417.108 222.72L419.708 226H418.838ZM422.996 226.05C422.549 226.05 422.159 225.967 421.826 225.8C421.493 225.633 421.233 225.383 421.046 225.05C420.866 224.717 420.776 224.3 420.776 223.8V220.75H421.486V223.72C421.486 224.28 421.623 224.703 421.896 224.99C422.176 225.27 422.566 225.41 423.066 225.41C423.433 225.41 423.749 225.337 424.016 225.19C424.289 225.037 424.496 224.817 424.636 224.53C424.783 224.243 424.856 223.9 424.856 223.5V220.75H425.566V226H424.886V224.56L424.996 224.82C424.829 225.207 424.569 225.51 424.216 225.73C423.869 225.943 423.463 226.05 422.996 226.05ZM430.375 220.7C430.801 220.7 431.175 220.783 431.495 220.95C431.821 221.11 432.075 221.357 432.255 221.69C432.441 222.023 432.535 222.443 432.535 222.95V226H431.825V223.02C431.825 222.467 431.685 222.05 431.405 221.77C431.131 221.483 430.745 221.34 430.245 221.34C429.871 221.34 429.545 221.417 429.265 221.57C428.991 221.717 428.778 221.933 428.625 222.22C428.478 222.5 428.405 222.84 428.405 223.24V226H427.695V220.75H428.375V222.19L428.265 221.92C428.431 221.54 428.698 221.243 429.065 221.03C429.431 220.81 429.868 220.7 430.375 220.7ZM436.842 227.99C436.362 227.99 435.902 227.92 435.462 227.78C435.022 227.64 434.666 227.44 434.392 227.18L434.752 226.64C434.999 226.86 435.302 227.033 435.662 227.16C436.029 227.293 436.416 227.36 436.822 227.36C437.489 227.36 437.979 227.203 438.292 226.89C438.606 226.583 438.762 226.103 438.762 225.45V224.14L438.862 223.24L438.792 222.34V220.75H439.472V225.36C439.472 226.267 439.249 226.93 438.802 227.35C438.362 227.777 437.709 227.99 436.842 227.99ZM436.712 225.8C436.212 225.8 435.762 225.693 435.362 225.48C434.962 225.26 434.646 224.957 434.412 224.57C434.186 224.183 434.072 223.74 434.072 223.24C434.072 222.74 434.186 222.3 434.412 221.92C434.646 221.533 434.962 221.233 435.362 221.02C435.762 220.807 436.212 220.7 436.712 220.7C437.179 220.7 437.599 220.797 437.972 220.99C438.346 221.183 438.642 221.47 438.862 221.85C439.082 222.23 439.192 222.693 439.192 223.24C439.192 223.787 439.082 224.25 438.862 224.63C438.642 225.01 438.346 225.3 437.972 225.5C437.599 225.7 437.179 225.8 436.712 225.8ZM436.782 225.17C437.169 225.17 437.512 225.09 437.812 224.93C438.112 224.763 438.349 224.537 438.522 224.25C438.696 223.957 438.782 223.62 438.782 223.24C438.782 222.86 438.696 222.527 438.522 222.24C438.349 221.953 438.112 221.73 437.812 221.57C437.512 221.403 437.169 221.32 436.782 221.32C436.402 221.32 436.059 221.403 435.752 221.57C435.452 221.73 435.216 221.953 435.042 222.24C434.876 222.527 434.792 222.86 434.792 223.24C434.792 223.62 434.876 223.957 435.042 224.25C435.216 224.537 435.452 224.763 435.752 224.93C436.059 225.09 436.402 225.17 436.782 225.17ZM444.888 226V224.84L444.858 224.65V222.71C444.858 222.263 444.732 221.92 444.478 221.68C444.232 221.44 443.862 221.32 443.368 221.32C443.028 221.32 442.705 221.377 442.398 221.49C442.092 221.603 441.832 221.753 441.618 221.94L441.298 221.41C441.565 221.183 441.885 221.01 442.258 220.89C442.632 220.763 443.025 220.7 443.438 220.7C444.118 220.7 444.642 220.87 445.008 221.21C445.382 221.543 445.568 222.053 445.568 222.74V226H444.888ZM443.078 226.05C442.685 226.05 442.342 225.987 442.048 225.86C441.762 225.727 441.542 225.547 441.388 225.32C441.235 225.087 441.158 224.82 441.158 224.52C441.158 224.247 441.222 224 441.348 223.78C441.482 223.553 441.695 223.373 441.988 223.24C442.288 223.1 442.688 223.03 443.188 223.03H444.998V223.56H443.208C442.702 223.56 442.348 223.65 442.148 223.83C441.955 224.01 441.858 224.233 441.858 224.5C441.858 224.8 441.975 225.04 442.208 225.22C442.442 225.4 442.768 225.49 443.188 225.49C443.588 225.49 443.932 225.4 444.218 225.22C444.512 225.033 444.725 224.767 444.858 224.42L445.018 224.91C444.885 225.257 444.652 225.533 444.318 225.74C443.992 225.947 443.578 226.05 443.078 226.05ZM450.327 220.7C450.753 220.7 451.127 220.783 451.447 220.95C451.773 221.11 452.027 221.357 452.207 221.69C452.393 222.023 452.487 222.443 452.487 222.95V226H451.777V223.02C451.777 222.467 451.637 222.05 451.357 221.77C451.083 221.483 450.697 221.34 450.197 221.34C449.823 221.34 449.497 221.417 449.217 221.57C448.943 221.717 448.73 221.933 448.577 222.22C448.43 222.5 448.357 222.84 448.357 223.24V226H447.647V220.75H448.327V222.19L448.217 221.92C448.383 221.54 448.65 221.243 449.017 221.03C449.383 220.81 449.82 220.7 450.327 220.7Z" fill="black"/>
<g clip-path="url(#clip10_12280_29306)">
<path d="M475 228.833C471.778 228.833 469.167 226.222 469.167 223C469.167 219.778 471.778 217.167 475 217.167C478.222 217.167 480.833 219.778 480.833 223C480.833 226.222 478.222 228.833 475 228.833ZM475 227.667C476.238 227.667 477.425 227.175 478.3 226.3C479.175 225.425 479.667 224.238 479.667 223C479.667 221.762 479.175 220.575 478.3 219.7C477.425 218.825 476.238 218.333 475 218.333C473.762 218.333 472.575 218.825 471.7 219.7C470.825 220.575 470.333 221.762 470.333 223C470.333 224.238 470.825 225.425 471.7 226.3C472.575 227.175 473.762 227.667 475 227.667ZM475 225.917C474.226 225.917 473.485 225.609 472.938 225.062C472.391 224.515 472.083 223.774 472.083 223C472.083 222.227 472.391 221.485 472.938 220.938C473.485 220.391 474.226 220.083 475 220.083C475.774 220.083 476.515 220.391 477.062 220.938C477.609 221.485 477.917 222.227 477.917 223C477.917 223.774 477.609 224.515 477.062 225.062C476.515 225.609 475.774 225.917 475 225.917Z" fill="#F47B20"/>
</g>
<path d="M485.02 227L488.22 220H488.95L492.15 227H491.37L488.43 220.43H488.73L485.79 227H485.02ZM486.28 225.13L486.5 224.53H490.57L490.79 225.13H486.28ZM494.394 227L492.064 221.75H492.804L494.944 226.62H494.594L496.764 221.75H497.464L495.124 227H494.394ZM500.698 227.05C500.151 227.05 499.671 226.937 499.258 226.71C498.844 226.477 498.521 226.16 498.288 225.76C498.054 225.353 497.938 224.89 497.938 224.37C497.938 223.85 498.048 223.39 498.268 222.99C498.494 222.59 498.801 222.277 499.188 222.05C499.581 221.817 500.021 221.7 500.508 221.7C501.001 221.7 501.438 221.813 501.818 222.04C502.204 222.26 502.508 222.573 502.728 222.98C502.948 223.38 503.058 223.843 503.058 224.37C503.058 224.403 503.054 224.44 503.048 224.48C503.048 224.513 503.048 224.55 503.048 224.59H498.478V224.06H502.668L502.388 224.27C502.388 223.89 502.304 223.553 502.138 223.26C501.978 222.96 501.758 222.727 501.478 222.56C501.198 222.393 500.874 222.31 500.508 222.31C500.148 222.31 499.824 222.393 499.538 222.56C499.251 222.727 499.028 222.96 498.868 223.26C498.708 223.56 498.628 223.903 498.628 224.29V224.4C498.628 224.8 498.714 225.153 498.888 225.46C499.068 225.76 499.314 225.997 499.628 226.17C499.948 226.337 500.311 226.42 500.718 226.42C501.038 226.42 501.334 226.363 501.608 226.25C501.888 226.137 502.128 225.963 502.328 225.73L502.728 226.19C502.494 226.47 502.201 226.683 501.848 226.83C501.501 226.977 501.118 227.05 500.698 227.05ZM504.653 227V221.75H505.333V223.18L505.263 222.93C505.41 222.53 505.656 222.227 506.003 222.02C506.35 221.807 506.78 221.7 507.293 221.7V222.39C507.266 222.39 507.24 222.39 507.213 222.39C507.186 222.383 507.16 222.38 507.133 222.38C506.58 222.38 506.146 222.55 505.833 222.89C505.52 223.223 505.363 223.7 505.363 224.32V227H504.653ZM511.638 227V225.84L511.608 225.65V223.71C511.608 223.263 511.481 222.92 511.228 222.68C510.981 222.44 510.611 222.32 510.118 222.32C509.778 222.32 509.454 222.377 509.148 222.49C508.841 222.603 508.581 222.753 508.368 222.94L508.048 222.41C508.314 222.183 508.634 222.01 509.008 221.89C509.381 221.763 509.774 221.7 510.188 221.7C510.868 221.7 511.391 221.87 511.758 222.21C512.131 222.543 512.318 223.053 512.318 223.74V227H511.638ZM509.828 227.05C509.434 227.05 509.091 226.987 508.798 226.86C508.511 226.727 508.291 226.547 508.138 226.32C507.984 226.087 507.908 225.82 507.908 225.52C507.908 225.247 507.971 225 508.098 224.78C508.231 224.553 508.444 224.373 508.738 224.24C509.038 224.1 509.438 224.03 509.938 224.03H511.748V224.56H509.958C509.451 224.56 509.098 224.65 508.898 224.83C508.704 225.01 508.608 225.233 508.608 225.5C508.608 225.8 508.724 226.04 508.958 226.22C509.191 226.4 509.518 226.49 509.938 226.49C510.338 226.49 510.681 226.4 510.968 226.22C511.261 226.033 511.474 225.767 511.608 225.42L511.768 225.91C511.634 226.257 511.401 226.533 511.068 226.74C510.741 226.947 510.328 227.05 509.828 227.05ZM516.636 228.99C516.156 228.99 515.696 228.92 515.256 228.78C514.816 228.64 514.46 228.44 514.186 228.18L514.546 227.64C514.793 227.86 515.096 228.033 515.456 228.16C515.823 228.293 516.21 228.36 516.616 228.36C517.283 228.36 517.773 228.203 518.086 227.89C518.4 227.583 518.556 227.103 518.556 226.45V225.14L518.656 224.24L518.586 223.34V221.75H519.266V226.36C519.266 227.267 519.043 227.93 518.596 228.35C518.156 228.777 517.503 228.99 516.636 228.99ZM516.506 226.8C516.006 226.8 515.556 226.693 515.156 226.48C514.756 226.26 514.44 225.957 514.206 225.57C513.98 225.183 513.866 224.74 513.866 224.24C513.866 223.74 513.98 223.3 514.206 222.92C514.44 222.533 514.756 222.233 515.156 222.02C515.556 221.807 516.006 221.7 516.506 221.7C516.973 221.7 517.393 221.797 517.766 221.99C518.14 222.183 518.436 222.47 518.656 222.85C518.876 223.23 518.986 223.693 518.986 224.24C518.986 224.787 518.876 225.25 518.656 225.63C518.436 226.01 518.14 226.3 517.766 226.5C517.393 226.7 516.973 226.8 516.506 226.8ZM516.576 226.17C516.963 226.17 517.306 226.09 517.606 225.93C517.906 225.763 518.143 225.537 518.316 225.25C518.49 224.957 518.576 224.62 518.576 224.24C518.576 223.86 518.49 223.527 518.316 223.24C518.143 222.953 517.906 222.73 517.606 222.57C517.306 222.403 516.963 222.32 516.576 222.32C516.196 222.32 515.853 222.403 515.546 222.57C515.246 222.73 515.01 222.953 514.836 223.24C514.67 223.527 514.586 223.86 514.586 224.24C514.586 224.62 514.67 224.957 514.836 225.25C515.01 225.537 515.246 225.763 515.546 225.93C515.853 226.09 516.196 226.17 516.576 226.17ZM523.622 227.05C523.075 227.05 522.595 226.937 522.182 226.71C521.769 226.477 521.445 226.16 521.212 225.76C520.979 225.353 520.862 224.89 520.862 224.37C520.862 223.85 520.972 223.39 521.192 222.99C521.419 222.59 521.725 222.277 522.112 222.05C522.505 221.817 522.945 221.7 523.432 221.7C523.925 221.7 524.362 221.813 524.742 222.04C525.129 222.26 525.432 222.573 525.652 222.98C525.872 223.38 525.982 223.843 525.982 224.37C525.982 224.403 525.979 224.44 525.972 224.48C525.972 224.513 525.972 224.55 525.972 224.59H521.402V224.06H525.592L525.312 224.27C525.312 223.89 525.229 223.553 525.062 223.26C524.902 222.96 524.682 222.727 524.402 222.56C524.122 222.393 523.799 222.31 523.432 222.31C523.072 222.31 522.749 222.393 522.462 222.56C522.175 222.727 521.952 222.96 521.792 223.26C521.632 223.56 521.552 223.903 521.552 224.29V224.4C521.552 224.8 521.639 225.153 521.812 225.46C521.992 225.76 522.239 225.997 522.552 226.17C522.872 226.337 523.235 226.42 523.642 226.42C523.962 226.42 524.259 226.363 524.532 226.25C524.812 226.137 525.052 225.963 525.252 225.73L525.652 226.19C525.419 226.47 525.125 226.683 524.772 226.83C524.425 226.977 524.042 227.05 523.622 227.05Z" fill="black"/>
<defs>
<clipPath id="clip0_12280_29306">
<rect width="14" height="14" fill="white" transform="translate(99 37.5)"/>
</clipPath>
<clipPath id="clip1_12280_29306">
<rect width="14" height="14" fill="white" transform="translate(97 102.5)"/>
</clipPath>
<clipPath id="clip2_12280_29306">
<rect width="14" height="14" fill="white" transform="translate(97 167.5)"/>
</clipPath>
<clipPath id="clip3_12280_29306">
<rect width="14" height="14" fill="white" transform="translate(277.5 37.5)"/>
</clipPath>
<clipPath id="clip4_12280_29306">
<rect width="14" height="14" fill="white" transform="translate(276 102.5)"/>
</clipPath>
<clipPath id="clip5_12280_29306">
<rect width="14" height="14" fill="white" transform="translate(276 167.5)"/>
</clipPath>
<clipPath id="clip6_12280_29306">
<rect width="14" height="14" fill="white" transform="translate(456.5 37.5)"/>
</clipPath>
<clipPath id="clip7_12280_29306">
<rect width="14" height="14" fill="white" transform="translate(455 102.5)"/>
</clipPath>
<clipPath id="clip8_12280_29306">
<rect width="14" height="14" fill="white" transform="translate(455 167.5)"/>
</clipPath>
<clipPath id="clip9_12280_29306">
<rect width="14" height="14" fill="white" transform="translate(374 215)"/>
</clipPath>
<clipPath id="clip10_12280_29306">
<rect width="14" height="14" fill="white" transform="translate(468 216)"/>
</clipPath>
</defs>
</svg>
