<svg width="24" height="25" viewBox="0 0 24 25" fill="none" xmlns="http://www.w3.org/2000/svg">
<g clip-path="url(#clip0_1544_7420)">
<path d="M6 2.5C6 3.013 6.49 3.5 7 3.5H17C17.513 3.5 18 3.01 18 2.5H20C20 4.157 18.657 5.5 17 5.5H13L13.001 7.562C16.947 8.055 20 11.421 20 15.5V21.5C20 22.052 19.552 22.5 19 22.5H5C4.448 22.5 4 22.052 4 21.5V15.5C4 11.42 7.054 8.054 11 7.562V5.5H7C5.34 5.5 4 4.16 4 2.5H6ZM12 9.5C8.762 9.5 6 12.26 6 15.5V20.5H18V15.5C18 12.262 15.238 9.5 12 9.5ZM12 11.5C12.742 11.5 13.436 11.702 14.032 12.054L11.292 14.793C10.902 15.183 10.902 15.817 11.292 16.207C11.653 16.567 12.221 16.595 12.612 16.29L12.707 16.207L15.447 13.468C15.798 14.064 16 14.758 16 15.5C16 17.71 14.21 19.5 12 19.5C9.79 19.5 8 17.71 8 15.5C8 13.29 9.79 11.5 12 11.5Z" fill="#F47B20"/>
</g>
<defs>
<clipPath id="clip0_1544_7420">
<rect width="24" height="24" fill="white" transform="translate(0 0.5)"/>
</clipPath>
</defs>
</svg>
