<svg width="16" height="16" viewBox="0 0 16 16" fill="none" xmlns="http://www.w3.org/2000/svg">
<g clip-path="url(#clip0_2358_4559)">
<path d="M5.33331 3.33341C5.33331 2.62617 5.61426 1.94789 6.11436 1.4478C6.61446 0.9477 7.29274 0.666748 7.99998 0.666748C8.70722 0.666748 9.3855 0.9477 9.8856 1.4478C10.3857 1.94789 10.6666 2.62617 10.6666 3.33341V6.83675C11.482 7.40447 12.0948 8.21757 12.416 9.15773C12.7372 10.0979 12.75 11.116 12.4525 12.0639C12.155 13.0118 11.5627 13.8401 10.7619 14.4281C9.96107 15.0161 8.99349 15.3331 7.99998 15.3331C7.00647 15.3331 6.03889 15.0161 5.23807 14.4281C4.43725 13.8401 3.84498 13.0118 3.54747 12.0639C3.24995 11.116 3.26273 10.0979 3.58393 9.15773C3.90513 8.21757 4.51799 7.40447 5.33331 6.83675V3.33341ZM6.09598 7.93008C5.51343 8.33548 5.07548 8.91623 4.84588 9.58779C4.61629 10.2594 4.60704 10.9867 4.81947 11.6639C5.03191 12.341 5.45495 12.9328 6.027 13.3528C6.59905 13.7729 7.29025 13.9994 7.99998 13.9994C8.70971 13.9994 9.40091 13.7729 9.97296 13.3528C10.545 12.9328 10.968 12.341 11.1805 11.6639C11.3929 10.9867 11.3837 10.2594 11.1541 9.58779C10.9245 8.91623 10.4865 8.33548 9.90398 7.93008L9.33331 7.53208V3.33341C9.33331 2.97979 9.19284 2.64065 8.94279 2.39061C8.69274 2.14056 8.3536 2.00008 7.99998 2.00008C7.64636 2.00008 7.30722 2.14056 7.05717 2.39061C6.80712 2.64065 6.66665 2.97979 6.66665 3.33341V7.53208L6.09598 7.93008ZM7.33331 8.08408V3.33341H8.66665V8.08408C9.29364 8.2479 9.83957 8.63432 10.2025 9.1712C10.5655 9.70807 10.7206 10.3587 10.6389 11.0016C10.5573 11.6444 10.2445 12.2356 9.75883 12.6647C9.27322 13.0938 8.64802 13.3315 7.99998 13.3334C7.35047 13.3341 6.72305 13.0976 6.2355 12.6685C5.74794 12.2394 5.43376 11.6471 5.35193 11.0027C5.2701 10.3584 5.42624 9.70633 5.79105 9.16895C6.15586 8.63158 6.70426 8.24582 7.33331 8.08408ZM7.99998 12.0001C8.3536 12.0001 8.69274 11.8596 8.94279 11.6096C9.19284 11.3595 9.33331 11.0204 9.33331 10.6667C9.33331 10.3131 9.19284 9.97399 8.94279 9.72394C8.69274 9.47389 8.3536 9.33341 7.99998 9.33341C7.64636 9.33341 7.30722 9.47389 7.05717 9.72394C6.80712 9.97399 6.66665 10.3131 6.66665 10.6667C6.66665 11.0204 6.80712 11.3595 7.05717 11.6096C7.30722 11.8596 7.64636 12.0001 7.99998 12.0001Z" fill="white"/>
</g>
<defs>
<clipPath id="clip0_2358_4559">
<rect width="16" height="16" fill="white"/>
</clipPath>
</defs>
</svg>
