<svg width="112" height="88" viewBox="0 0 112 88" fill="none" xmlns="http://www.w3.org/2000/svg">
<ellipse cx="56" cy="76" rx="56" ry="6" fill="#FEF6D2"/>
<path d="M71.5702 25.7489C74.12 23.438 70.624 19.5381 70.624 19.5381L68.0742 25.0631C68.0742 25.0631 69.4525 27.6747 71.5702 25.7489Z" fill="#DD1E25"/>
<path d="M69.8309 26.0172C68.9935 25.8736 68.4486 24.8765 68.4446 24.8671C68.3925 24.7685 68.3033 24.6947 68.1967 24.6618C68.0901 24.629 67.9748 24.6398 67.8763 24.692C67.7777 24.7441 67.7038 24.8333 67.671 24.9399C67.6381 25.0465 67.649 25.1617 67.7011 25.2603C67.7307 25.3167 68.4379 26.6265 69.6833 26.8452C69.8003 26.8658 69.9188 26.8761 70.0376 26.8761C70.6455 26.8761 71.2548 26.6077 71.8533 26.0601C74.1132 24.0096 72.2425 20.7136 70.9367 19.2575C70.8623 19.1744 70.758 19.1242 70.6466 19.1181C70.5352 19.1119 70.426 19.1502 70.3429 19.2246C70.2598 19.299 70.2096 19.4034 70.2034 19.5147C70.1973 19.6261 70.2356 19.7354 70.31 19.8185C70.3422 19.8547 73.4946 23.4338 71.287 25.4361C70.777 25.9058 70.2859 26.1018 69.8309 26.0172Z" fill="#AB6116"/>
<path d="M24.1409 26.4949C22.9599 26.8183 23.1894 30.647 23.2014 30.8591C23.5114 43.8511 30.2765 52.6117 30.2765 52.6117L45.7741 26.5257C34.7401 23.1573 32.9619 14.8731 32.9619 14.8731C32.5593 13.6559 31.895 12.7339 31.2374 12.746C30.1638 12.7661 29.5894 15.2569 29.5196 15.5642C29.0956 17.4001 29.5263 19.0064 29.8739 19.9324C29.2029 18.4334 28.344 17.4309 27.767 17.5665C26.9618 17.7557 26.9242 20.1311 26.9215 20.3847C26.9199 21.4885 27.1701 22.578 27.6529 23.5706C26.7484 22.6017 26.276 22.5883 26.0425 22.6688C25.0266 23.0217 25.3621 26.3325 25.456 27.1632C24.7515 26.4345 24.3381 26.4412 24.1409 26.4949Z" fill="#FAFAFA"/>
<path d="M24.0309 26.0886C22.6056 26.4791 22.717 29.8597 22.7841 30.8688C23.0941 43.8488 29.8793 52.7798 29.9478 52.8684C29.987 52.9193 30.0374 52.9606 30.0951 52.989C30.1528 53.0174 30.2163 53.0321 30.2806 53.0321H30.3061C30.3745 53.0278 30.4408 53.0068 30.4993 52.971C30.5577 52.9352 30.6066 52.8857 30.6416 52.8268L46.1391 26.7408C46.1716 26.686 46.1911 26.6245 46.1964 26.561C46.2016 26.4975 46.1924 26.4336 46.1694 26.3742C46.1464 26.3148 46.1103 26.2614 46.0636 26.2179C46.017 26.1745 45.9611 26.1422 45.9002 26.1235C35.2527 22.8731 33.394 14.8654 33.3766 14.7849C33.3737 14.7708 33.3701 14.7569 33.3659 14.7433C32.8706 13.2268 32.0829 12.3276 31.2549 12.3276H31.2334C30.0149 12.3505 29.3828 14.3058 29.113 15.4693C28.9473 16.1968 28.8921 16.945 28.9493 17.689C28.5642 17.3011 28.1267 17.0515 27.6744 17.1522C26.6759 17.387 26.5136 19.2725 26.5055 20.373C26.5011 21.032 26.5846 21.6887 26.7538 22.3256C26.4918 22.1971 26.1905 22.1745 25.9124 22.2625C25.1072 22.5417 24.7864 23.8729 24.9555 26.2268C24.6769 26.0626 24.3453 26.013 24.0309 26.0886ZM24.2993 26.8938C24.4536 26.8938 24.7515 27.0361 25.1608 27.4534C25.2224 27.5154 25.3016 27.5567 25.3877 27.5717C25.4737 27.5866 25.5623 27.5745 25.6411 27.5369C25.72 27.4993 25.7852 27.4382 25.8278 27.3619C25.8704 27.2857 25.8882 27.1981 25.8788 27.1112C25.5661 24.348 25.9003 23.1603 26.1848 23.0624C26.3042 23.0221 26.6813 23.1416 27.347 23.8542C27.4152 23.9287 27.508 23.9762 27.6083 23.9878C27.7087 23.9995 27.8099 23.9746 27.8934 23.9177C27.9769 23.8608 28.0371 23.7757 28.0629 23.678C28.0888 23.5803 28.0785 23.4765 28.034 23.3858C27.5772 22.4516 27.3412 21.425 27.3443 20.3851C27.355 18.9652 27.6543 18.0245 27.865 17.9694C28.0461 17.9319 28.7681 18.4794 29.4915 20.0965C29.5125 20.1476 29.5433 20.1941 29.5822 20.2333C29.6211 20.2725 29.6674 20.3036 29.7184 20.325C29.7694 20.3463 29.824 20.3573 29.8793 20.3575C29.9345 20.3577 29.9893 20.347 30.0404 20.326C30.0915 20.305 30.1379 20.2742 30.1771 20.2353C30.2163 20.1963 30.2475 20.1501 30.2688 20.0991C30.2901 20.0481 30.3012 19.9935 30.3013 19.9382C30.3015 19.883 30.2908 19.8282 30.2699 19.7771C29.7331 18.3627 29.6257 16.9737 29.9317 15.6518C30.2631 14.2172 30.8161 13.1704 31.2482 13.1624C31.5917 13.1624 32.1634 13.7971 32.554 14.9835C32.6788 15.5002 34.7481 23.3603 45.138 26.7623L30.2417 51.8377C28.8406 49.7939 23.8805 41.8035 23.6175 30.8259C23.5021 29.0813 23.7316 27.0361 24.2456 26.8951C24.2642 26.8924 24.2833 26.8924 24.3019 26.8951L24.2993 26.8938Z" fill="#AB6116"/>
<path d="M71.1049 8.03407L70.2044 8.63663L69.74 7.21678C69.7212 7.15493 69.6823 7.10113 69.6294 7.06383C69.5766 7.02654 69.5129 7.00787 69.4483 7.0108C69.3837 7.01372 69.3219 7.03806 69.2727 7.07997C69.2235 7.12188 69.1896 7.17898 69.1764 7.24228L67.668 9.03923C67.668 9.03923 70.7116 10.8711 70.9774 14.1295C70.987 14.3054 71.0425 14.4757 71.1384 14.6235C71.2342 14.7714 71.367 14.8916 71.5236 14.9723C72.259 15.3145 72.6723 14.2181 72.6723 14.2181L72.9112 11.7689C72.9192 11.7174 72.9133 11.6646 72.8942 11.6161C72.8751 11.5676 72.8435 11.5251 72.8025 11.4928C72.7615 11.4606 72.7127 11.4398 72.6611 11.4327C72.6094 11.4255 72.5568 11.4323 72.5086 11.4522L71.8631 11.7206L72.3341 10.0806C72.3525 10.026 72.3545 9.96714 72.34 9.91134C72.3254 9.85554 72.2949 9.80519 72.2522 9.76646C72.2095 9.72773 72.1564 9.70229 72.0995 9.69326C72.0425 9.68423 71.9841 9.692 71.9315 9.71561L71.1384 10.1182L71.5491 8.3736C71.5688 8.31516 71.5697 8.252 71.5516 8.19302C71.5336 8.13403 71.4976 8.08217 71.4486 8.04472C71.3996 8.00726 71.3401 7.9861 71.2784 7.98419C71.2168 7.98228 71.1561 7.99972 71.1049 8.03407Z" fill="#DD1E25"/>
<path d="M71.6638 7.69359C71.5469 7.61314 71.4084 7.57007 71.2665 7.57007C71.1247 7.57007 70.9862 7.61314 70.8693 7.69359L70.4305 7.98749L70.1379 7.09505C70.0938 6.9563 70.0081 6.83445 69.8925 6.74603C69.7768 6.65761 69.6368 6.60688 69.4913 6.60073C69.3458 6.59458 69.202 6.6333 69.0793 6.71164C68.9566 6.78998 68.8609 6.90415 68.8053 7.03869L67.3412 8.77256C67.302 8.81915 67.2733 8.87368 67.2572 8.93241C67.2411 8.99113 67.2379 9.05265 67.2479 9.11272C67.2578 9.1728 67.2806 9.23 67.3148 9.28039C67.349 9.33079 67.3937 9.37319 67.4458 9.40465C67.474 9.4221 70.3083 11.1721 70.5526 14.1701C70.5677 14.4201 70.6485 14.6616 70.7868 14.8704C70.9252 15.0791 71.1161 15.2477 71.3404 15.3591C71.4834 15.4271 71.6396 15.4628 71.798 15.4638C71.9282 15.4637 72.0573 15.4382 72.1778 15.3887C72.7495 15.1552 73.0299 14.4493 73.0594 14.3728C73.0726 14.3383 73.0812 14.3022 73.085 14.2654L73.3238 11.8162C73.3371 11.6908 73.3175 11.5641 73.2669 11.4485C73.2163 11.333 73.1365 11.2326 73.0353 11.1573C72.9596 11.0997 72.873 11.058 72.7807 11.035C72.6884 11.0119 72.5924 11.0079 72.4985 11.0231L72.7374 10.1951C72.7778 10.0577 72.7773 9.91149 72.7358 9.77442C72.6943 9.63734 72.6137 9.51535 72.5039 9.42343C72.4006 9.33653 72.2743 9.28161 72.1404 9.2654C72.0064 9.2492 71.8706 9.2724 71.7496 9.33218L71.9523 8.46927C71.9885 8.32597 71.9804 8.17503 71.9288 8.03649C71.8773 7.89795 71.7849 7.77836 71.6638 7.69359ZM71.857 10.2179L71.4544 11.6002C71.4322 11.6762 71.432 11.7569 71.4537 11.833C71.4753 11.9092 71.5181 11.9776 71.577 12.0305C71.636 12.0834 71.7086 12.1185 71.7866 12.1319C71.8647 12.1453 71.9449 12.1364 72.018 12.1061L72.4636 11.9249L72.2489 14.1164C72.1777 14.2775 72.0154 14.5392 71.8557 14.6049C71.829 14.6157 71.8002 14.62 71.7716 14.6177C71.7429 14.6154 71.7152 14.6064 71.6906 14.5915C71.6015 14.5422 71.5266 14.4707 71.4733 14.3839C71.4199 14.2972 71.3898 14.1981 71.386 14.0963C71.1632 11.3653 69.1582 9.60326 68.2792 8.95507L69.4172 7.61306L69.7984 8.77793C69.8185 8.83967 69.8526 8.89591 69.8982 8.94224C69.9437 8.98856 69.9993 9.02371 70.0607 9.0449C70.122 9.0661 70.1875 9.07277 70.2519 9.06441C70.3163 9.05604 70.3779 9.03285 70.4318 8.99667L71.0612 8.57529L70.7203 10.0206C70.7017 10.0986 70.7057 10.1803 70.732 10.2561C70.7583 10.3318 70.8057 10.3985 70.8686 10.4481C70.9316 10.4978 71.0074 10.5284 71.0872 10.5364C71.167 10.5443 71.2474 10.5293 71.3189 10.493L71.857 10.2179Z" fill="#AB6116"/>
<path d="M43.6652 63.5276L40.3921 63.125L38.426 73.6786C38.167 75.0541 37.076 75.8915 35.7018 76.1519C34.5221 76.376 29.5419 77.459 29.0628 77.7435H29.0534C28.6804 77.9757 28.8991 78.5661 29.3393 78.5487L36.1647 78.0669C36.6197 78.0441 36.7968 78.6037 36.4868 78.9392C35.8681 79.6008 35.322 80.2343 34.7033 80.5805C34.7033 80.5805 34.0323 81.2515 35.1542 81.2596C36.0936 81.2596 37.4732 80.6691 38.8796 79.2076C39.2822 78.7849 39.976 77.9367 41.6629 78.7554C42.142 78.9875 42.9137 79.3432 43.06 78.899C43.3351 78.0683 41.3154 76.5894 40.6712 76.0163C40.4028 75.7815 40.2297 75.5668 40.3437 74.9427L43.6652 63.5276Z" fill="#FDEBA5"/>
<path d="M44.0692 63.6458C44.0864 63.5871 44.0906 63.5254 44.0816 63.465C44.0726 63.4045 44.0505 63.3468 44.0169 63.2957C43.9833 63.2446 43.9391 63.2015 43.8871 63.1692C43.8352 63.137 43.7769 63.1164 43.7162 63.109L40.4431 62.7064C40.3369 62.6936 40.2298 62.7218 40.1436 62.7851C40.0573 62.8484 39.9984 62.9421 39.9787 63.0472L38.01 73.6075C37.8007 74.7173 36.9364 75.4971 35.6212 75.7453C34.91 75.8795 29.4587 77.0243 28.8454 77.3893L28.828 77.4C28.6706 77.4972 28.5505 77.6447 28.4872 77.8185C28.4238 77.9924 28.421 78.1825 28.4791 78.3582C28.5365 78.5455 28.6549 78.7082 28.8153 78.8205C28.9758 78.9328 29.1692 78.9883 29.3648 78.9782L36.1997 78.4978C36.2112 78.5123 36.2173 78.5303 36.2171 78.5488C36.2185 78.5696 36.2156 78.5906 36.2084 78.6103C36.2013 78.6299 36.1901 78.6478 36.1755 78.6629L35.9567 78.8991C35.4548 79.4359 34.9811 79.9525 34.4953 80.225C34.4613 80.2438 34.4302 80.2672 34.4027 80.2947C34.3249 80.3726 33.9478 80.7832 34.1343 81.2194C34.3289 81.6891 34.9529 81.6904 35.1569 81.6904C36.3808 81.6904 37.8409 80.896 39.1829 79.5097L39.2406 79.4493C39.6432 79.0252 40.1452 78.4964 41.4791 79.1446C42.0374 79.413 42.6198 79.664 43.0613 79.4774C43.1561 79.4384 43.2413 79.3792 43.3108 79.3038C43.3804 79.2285 43.4326 79.1389 43.4639 79.0413C43.7592 78.1502 42.6359 77.1195 41.3583 76.054C41.1986 75.9198 41.0604 75.8057 40.9557 75.7131C40.7705 75.5467 40.6873 75.4689 40.7571 75.0421L44.0692 63.6458ZM29.0736 77.7677L29.0642 77.7503L29.0803 77.7771L29.0736 77.7677ZM40.3907 76.3371C40.4994 76.4338 40.6457 76.5572 40.8148 76.6982C42.0226 77.706 42.6467 78.3784 42.6695 78.6978C42.5567 78.6843 42.3246 78.6172 41.8468 78.3851C39.9586 77.4685 39.0622 78.4132 38.626 78.8682L38.5723 78.9245C36.8572 80.7067 35.526 80.8476 35.1542 80.8476H35.0871C35.6132 80.5054 36.0816 80.0008 36.5727 79.4708L36.7901 79.2372C36.922 79.0956 37.0095 78.9184 37.0417 78.7276C37.074 78.5368 37.0495 78.3407 36.9713 78.1636C36.8989 78.0048 36.7795 77.8719 36.6294 77.7829C36.4792 77.6939 36.3053 77.653 36.1312 77.6657L29.2964 78.1408C29.2904 78.1342 29.2858 78.1264 29.2829 78.118C29.7835 77.8684 34.3007 76.8619 35.7769 76.5814C37.4209 76.2701 38.5643 75.2193 38.8367 73.7712L40.7343 63.5934L43.1231 63.8833L39.9398 74.8287C39.9398 74.8421 39.9331 74.8569 39.9304 74.8703C39.7788 75.7064 40.074 76.0526 40.3907 76.3425V76.3371Z" fill="#AB6116"/>
<path d="M50.2932 55.8383L38.6432 52.6174C38.6432 52.6174 33.8576 67.0011 40.8079 68.8235C47.4374 70.5561 50.2932 55.8383 50.2932 55.8383Z" fill="#FAFAFA"/>
<path d="M40.7017 69.2297C41.087 69.3325 41.4839 69.3852 41.8827 69.3867C42.7583 69.3794 43.6135 69.1209 44.3466 68.6419C48.7296 65.8854 50.6272 56.3303 50.7064 55.925C50.7265 55.8211 50.7066 55.7134 50.6509 55.6234C50.5952 55.5334 50.5077 55.4676 50.4058 55.4392L38.7558 52.2184C38.6524 52.1892 38.5418 52.2008 38.4467 52.2508C38.3516 52.3007 38.2792 52.3851 38.2445 52.4868C38.1103 52.8773 35.0894 62.1143 37.6204 66.7845C37.9309 67.3876 38.3663 67.9175 38.8976 68.3391C39.4289 68.7608 40.0439 69.0643 40.7017 69.2297ZM38.9235 53.1256L49.7938 56.1384C49.3912 57.9434 47.503 65.6532 43.889 67.9226C42.9308 68.5251 41.9538 68.6848 40.9043 68.4097C39.765 68.1118 38.9289 67.4461 38.3545 66.3766C36.2771 62.533 38.384 54.9131 38.9249 53.1256H38.9235Z" fill="#AB6116"/>
<path d="M66.0825 76.7786L72.908 77.2604C73.3468 77.2819 73.5669 76.6927 73.1938 76.4552H73.1844C72.7053 76.1707 67.7251 75.0863 66.5455 74.8636C65.1713 74.6032 64.0802 73.7645 63.8212 72.3902L61.8552 61.8367L58.582 62.2393L61.8968 73.6584C62.0109 74.2838 61.831 74.4985 61.5693 74.732C60.9305 75.3051 58.9055 76.784 59.1806 77.6147C59.3282 78.0575 60.0985 77.7033 60.5776 77.4711C62.2631 76.6525 62.9543 77.502 63.3609 77.9234C64.766 79.3848 66.1442 79.9766 67.0863 79.9753C68.2109 79.9753 67.5373 79.2962 67.5373 79.2962C66.9186 78.95 66.3724 78.3166 65.7537 77.655C65.4491 77.3181 65.6276 76.7558 66.0825 76.7786Z" fill="#FDEBA5"/>
<path d="M66.0573 77.1987L72.8922 77.6818C73.0865 77.691 73.2782 77.635 73.437 77.5226C73.5958 77.4103 73.7125 77.2481 73.7685 77.0618C73.8265 76.8849 73.8229 76.6935 73.7584 76.5188C73.6938 76.3441 73.5721 76.1963 73.4129 76.0996H73.4022C72.7902 75.7359 67.3376 74.5912 66.6264 74.4557C65.3166 74.2074 64.4456 73.4277 64.2376 72.3178L62.2715 61.7643C62.2519 61.6591 62.1929 61.5654 62.1067 61.5021C62.0205 61.4388 61.9134 61.4107 61.8072 61.4234L58.534 61.826C58.4734 61.8335 58.4151 61.854 58.3631 61.8863C58.3112 61.9185 58.2669 61.9617 58.2334 62.0127C58.1998 62.0638 58.1777 62.1216 58.1687 62.182C58.1597 62.2425 58.1639 62.3042 58.1811 62.3628L61.4959 73.7632C61.5697 74.1846 61.4838 74.2624 61.2972 74.4342C61.1952 74.5268 61.0557 74.6422 60.8946 74.775C59.6157 75.8406 58.4938 76.8713 58.789 77.7624C58.8204 77.8599 58.8727 77.9495 58.9422 78.0248C59.0118 78.1001 59.0969 78.1594 59.1916 78.1985C59.6332 78.3851 60.2156 78.1354 60.7738 77.8657C62.1078 77.2175 62.6097 77.7463 63.0123 78.1703L63.07 78.2307C64.404 79.617 65.8695 80.4115 67.0961 80.4115C67.3014 80.4115 67.9241 80.4115 68.1187 79.9405C68.2999 79.5043 67.9214 79.0936 67.8503 79.0158C67.8228 78.9884 67.7916 78.9649 67.7577 78.946C67.2705 78.6776 66.7968 78.1609 66.2949 77.6201L66.0761 77.3839C66.0616 77.3689 66.0504 77.351 66.0432 77.3313C66.036 77.3117 66.0331 77.2907 66.0345 77.2699C66.0278 77.2175 66.0399 77.2014 66.0573 77.1987ZM65.4575 77.9382L65.6735 78.1703C66.166 78.7071 66.6331 79.2077 67.1605 79.5486C67.1381 79.5468 67.1157 79.5468 67.0934 79.5486C66.7216 79.5486 65.389 79.4144 63.6753 77.6255L63.6216 77.5691C63.3223 77.2537 62.7976 76.7008 61.877 76.7008C61.3656 76.7163 60.8644 76.848 60.4115 77.086C59.9337 77.3182 59.7016 77.3853 59.5889 77.3987C59.6117 77.0793 60.2344 76.4083 61.4435 75.3991C61.6126 75.2649 61.7602 75.1307 61.8676 75.0381C62.183 74.7536 62.4795 74.4073 62.3279 73.574C62.3279 73.5605 62.3279 73.5458 62.3185 73.5324L59.1352 62.5869L61.524 62.2971L63.4176 72.4628C63.686 73.9095 64.8334 74.9603 66.4774 75.2716C67.9536 75.5521 72.4681 76.5586 72.9714 76.8082C72.9663 76.8194 72.959 76.8294 72.9499 76.8377L66.115 76.3546C65.9421 76.3435 65.7698 76.3853 65.6212 76.4745C65.4726 76.5637 65.3546 76.696 65.283 76.8538C65.201 77.0312 65.1734 77.2288 65.2037 77.4218C65.2341 77.6149 65.321 77.7946 65.4534 77.9382H65.4575Z" fill="#AB6116"/>
<path d="M61.1709 67.8099C68.1212 65.9874 63.3355 51.6038 63.3355 51.6038L51.6855 54.8246C51.6855 54.8246 54.54 69.5478 61.1709 67.8099Z" fill="#FAFAFA"/>
<path d="M57.6335 67.628C58.3666 68.107 59.2218 68.3655 60.0975 68.3728C60.4963 68.3713 60.8931 68.3185 61.2784 68.2158C61.9374 68.0507 62.5536 67.747 63.0859 67.3249C63.6182 66.9028 64.0542 66.372 64.3651 65.7679C66.8961 61.0964 63.8712 51.8607 63.741 51.4702C63.7063 51.3685 63.6339 51.2841 63.5388 51.2342C63.4437 51.1842 63.3331 51.1726 63.2297 51.2018L51.5798 54.4226C51.4778 54.451 51.3903 54.5168 51.3346 54.6068C51.2789 54.6968 51.2591 54.8045 51.2791 54.9084C51.3529 55.3164 53.2505 64.8728 57.6335 67.628ZM63.0566 52.1184C63.5934 53.9059 65.7044 61.5232 63.6203 65.368C63.0405 66.4416 62.2044 67.1032 61.0704 67.4025C60.021 67.6776 59.0454 67.5193 58.0872 66.9154C54.4798 64.6474 52.5849 56.9362 52.1823 55.1298L63.0566 52.1184Z" fill="#AB6116"/>
<path d="M71.3117 16.4407C71.4718 15.1838 71.3662 13.9073 71.0018 12.6938C69.6088 8.15642 63.9227 7.60084 60.3999 9.41255C57.9615 10.6687 56.5872 13.7204 55.6465 16.187C55.0453 17.7652 54.5729 19.4427 53.6335 20.8639C53.4381 21.1548 53.2191 21.429 52.9786 21.6839C46.9194 21.2719 40.522 22.3697 35.1795 25.3234L26.859 35.4381C24.6192 45.5368 32.4311 58.5207 37.52 62.0099C43.6825 66.2305 55.1003 66.4681 62.9671 61.8556C70.677 57.3357 78.5854 39.7916 71.9586 30.415C71.9398 30.3828 71.9237 30.3519 71.9049 30.3197C70.261 27.625 69.025 22.7602 70.2234 19.6024C70.63 18.5302 71.1561 17.5921 71.3117 16.4407Z" fill="#FAFAFA"/>
<path d="M26.947 35.026C26.8381 35.002 26.7241 35.0221 26.63 35.082C26.5359 35.1419 26.4694 35.2366 26.445 35.3454C24.1422 45.7285 32.264 58.9178 37.2791 62.352C40.4999 64.5623 44.9782 65.6641 49.6121 65.6641C54.3494 65.6641 59.2572 64.5126 63.1772 62.2138C67.9816 59.3955 72.6424 51.9246 74.2595 44.4442C75.1278 40.4289 75.4941 34.6985 72.3189 30.1854L72.3069 30.1639C72.2948 30.1411 72.2814 30.1196 72.2679 30.0968C70.62 27.3886 69.5155 22.6621 70.62 19.7472C70.73 19.4573 70.8495 19.1769 70.9675 18.8977C71.2843 18.1543 71.6117 17.3853 71.7298 16.4955C71.8992 15.1783 71.7886 13.8402 71.405 12.5688C70.8508 10.7638 69.6148 9.4124 67.8299 8.66087C65.5297 7.69194 62.5384 7.83956 60.2113 9.03663C57.7058 10.3263 56.3007 13.2989 55.258 16.0352C55.1238 16.3935 54.9896 16.7586 54.8554 17.1236C54.4246 18.3314 53.979 19.5714 53.2799 20.6303C53.135 20.8475 52.9749 21.0543 52.8008 21.2489C46.3497 20.8463 40.0262 22.1588 34.9735 24.9529C34.9231 24.9782 34.8783 25.0134 34.8418 25.0563C34.8053 25.0993 34.7778 25.1492 34.761 25.203C34.7442 25.2569 34.7384 25.3135 34.744 25.3697C34.7495 25.4258 34.7663 25.4802 34.7934 25.5297C34.8204 25.5792 34.8571 25.6227 34.9014 25.6577C34.9456 25.6927 34.9964 25.7184 35.0508 25.7333C35.1052 25.7483 35.162 25.7521 35.2179 25.7446C35.2738 25.7371 35.3276 25.7184 35.3761 25.6896C40.3415 22.9439 46.5805 21.6717 52.943 22.1024C53.0057 22.1071 53.0685 22.0975 53.1269 22.0743C53.1853 22.051 53.2376 22.0147 53.2799 21.9682C53.5361 21.6967 53.7695 21.4045 53.9777 21.0946C54.7332 19.9512 55.1962 18.6588 55.6431 17.4081C55.7773 17.0484 55.9008 16.6901 56.035 16.3345C57.0214 13.7471 58.3339 10.945 60.5871 9.78548C62.6699 8.71187 65.4452 8.57767 67.4931 9.43656C69.0404 10.0888 70.1113 11.2563 70.5904 12.8157C70.939 13.9712 71.0396 15.1871 70.8857 16.3841C70.7823 17.1598 70.4925 17.8442 70.1838 18.5676C70.063 18.8508 69.9382 19.1433 69.8228 19.4479C68.615 22.6419 69.7436 27.5926 71.5379 30.5343L71.5889 30.6255L71.6077 30.6537C74.6205 34.92 74.2595 40.4115 73.4261 44.2671C71.8546 51.5367 67.3616 58.7796 62.741 61.4877C55.2419 65.8842 44.028 65.9607 37.7448 61.6582C32.8907 58.334 25.0305 45.5715 27.2569 35.5279C27.2812 35.4203 27.2624 35.3075 27.2044 35.2137C27.1465 35.1198 27.054 35.0524 26.947 35.026Z" fill="#AB6116"/>
<path d="M75.9784 20.7636C76.1046 20.6865 76.2034 20.5717 76.2609 20.4354C76.3185 20.2992 76.3319 20.1483 76.2992 20.0041C75.6443 17.0597 73.2958 15.5459 71.7524 14.8521C71.3485 14.6671 70.8888 14.645 70.4689 14.7902C70.049 14.9354 69.7012 15.2368 69.4979 15.6318C68.3424 17.9266 69.7059 19.2338 69.7059 19.2338C72.708 19.3196 74.7008 20.2188 75.4148 20.6898C75.6416 20.8388 75.7463 20.9046 75.9784 20.7636Z" fill="#FDEBA5"/>
<path d="M69.6922 19.6536C73.1358 19.7529 74.9824 20.9084 75.181 21.0399C75.3439 21.1698 75.5422 21.2474 75.75 21.2627C75.9072 21.2598 76.0605 21.2133 76.1929 21.1285C76.3941 21.0062 76.5519 20.8239 76.6441 20.6072C76.7362 20.3906 76.7582 20.1505 76.7069 19.9207C75.9983 16.7388 73.4055 15.1431 71.9212 14.4761C71.4185 14.2468 70.8468 14.2201 70.3249 14.4016C69.803 14.583 69.3711 14.9587 69.1191 15.4504C67.8388 17.9936 69.3473 19.4765 69.4117 19.5449C69.4886 19.6144 69.5885 19.6531 69.6922 19.6536ZM69.872 15.8208C70.0253 15.5215 70.2887 15.2932 70.6068 15.1841C70.9249 15.075 71.2729 15.0935 71.5777 15.2357C73.2136 15.9725 75.2897 17.4125 75.8869 20.0965C75.9 20.1555 75.8942 20.2172 75.87 20.2727C75.8459 20.3281 75.8048 20.3745 75.7527 20.4051C75.7205 20.3864 75.6775 20.3582 75.644 20.3354C74.6764 19.6966 72.6016 18.9249 69.9002 18.8162C69.6519 18.4928 69.0493 17.4554 69.872 15.8182V15.8208Z" fill="#AB6116"/>
<path d="M37.7607 24.0715C35.6081 24.9706 33.5874 26.1574 31.7539 27.5997C23.4683 34.1755 26.2664 45.9852 30.9567 54.1205C30.7836 45.7557 38.7927 40.3447 40.7843 34.3419L37.7607 24.0715Z" fill="#FAFAFA"/>
<path d="M32.016 27.9282C33.8186 26.5102 35.805 25.3428 37.9209 24.4578C38.0189 24.4112 38.0952 24.3286 38.1338 24.2271C38.1725 24.1257 38.1705 24.0133 38.1283 23.9133C38.086 23.8133 38.0069 23.7334 37.9072 23.6903C37.8076 23.6473 37.6951 23.6443 37.5934 23.6821C35.4059 24.5963 33.3523 25.8025 31.4886 27.268C27.6545 30.3089 25.7797 34.8127 26.0655 40.2922C26.295 44.6805 27.9014 49.6647 30.5881 54.3282C30.6344 54.4097 30.7066 54.4733 30.7932 54.509C30.8798 54.5447 30.9758 54.5504 31.066 54.5253C31.1563 54.5002 31.2355 54.4456 31.2911 54.3702C31.3468 54.2949 31.3757 54.2031 31.3732 54.1095C31.2685 49.0971 34.1686 45.2026 36.972 41.4369C38.7328 39.0723 40.3942 36.8392 41.1793 34.4732C41.1969 34.4203 41.2039 34.3645 41.2 34.3089C41.196 34.2533 41.1812 34.1991 41.1562 34.1492C41.1313 34.0994 41.0968 34.0549 41.0547 34.0184C41.0126 33.9819 40.9637 33.954 40.9109 33.9364C40.858 33.9188 40.8021 33.9117 40.7465 33.9157C40.691 33.9196 40.6367 33.9345 40.5869 33.9594C40.537 33.9843 40.4925 34.0188 40.456 34.0609C40.4195 34.103 40.3917 34.1519 40.3741 34.2048C39.6319 36.4419 38.0081 38.6227 36.2903 40.9309C33.8089 44.2645 31.0283 47.9993 30.5841 52.585C28.3993 48.4247 27.0948 44.0941 26.8989 40.2452C26.6359 34.9791 28.3537 30.8337 32.016 27.9282Z" fill="#AB6116"/>
<path d="M71.5511 29.8461C70.5864 28.6567 69.4656 27.6031 68.2189 26.7139L62.6562 38.2297C60.8714 47.4318 68.0592 49.8796 67.823 57.3305C73.552 49.9682 77.3593 37.1198 71.5511 29.8461Z" fill="#FAFAFA"/>
<path d="M62.738 37.8172C62.6838 37.8067 62.6281 37.807 62.574 37.818C62.5199 37.829 62.4685 37.8506 62.4227 37.8815C62.377 37.9125 62.3378 37.9521 62.3074 37.9982C62.277 38.0442 62.2559 38.0958 62.2455 38.15C61.2242 43.4161 63.0507 46.5282 64.8141 49.5383C66.1977 51.8976 67.5048 54.1267 67.4042 57.322C67.4016 57.4107 67.4271 57.498 67.4772 57.5714C67.5273 57.6447 67.5994 57.7002 67.683 57.73C67.7666 57.7598 67.8575 57.7624 67.9427 57.7373C68.0279 57.7122 68.1029 57.6608 68.157 57.5904C71.1765 53.7093 73.5251 48.4916 74.4296 43.6335C75.1798 39.6182 75.3462 33.9227 71.8798 29.584C70.894 28.3653 69.7483 27.2851 68.4737 26.3726C68.4292 26.337 68.3779 26.3107 68.3229 26.2955C68.268 26.2803 68.2105 26.2764 68.154 26.2841C68.0975 26.2917 68.0431 26.3108 67.9942 26.3401C67.9452 26.3694 67.9027 26.4083 67.8693 26.4545C67.8358 26.5006 67.8121 26.5531 67.7995 26.6088C67.787 26.6644 67.7858 26.722 67.7962 26.7781C67.8065 26.8342 67.8281 26.8876 67.8597 26.935C67.8913 26.9825 67.9322 27.0231 67.9799 27.0543C69.1957 27.9217 70.289 28.9491 71.2302 30.1087C76.405 36.5893 73.7371 48.3493 68.2228 56.1008C68.0027 53.3013 66.756 51.1769 65.5468 49.1129C63.8599 46.2383 62.1167 43.2644 63.0775 38.3111C63.088 38.2563 63.0875 38.2001 63.076 38.1455C63.0646 38.091 63.0424 38.0392 63.0109 37.9933C62.9793 37.9473 62.9389 37.9081 62.8921 37.8779C62.8452 37.8477 62.7929 37.8271 62.738 37.8172Z" fill="#AB6116"/>
<path d="M63.5552 16.467C64.8716 16.2648 65.775 15.0337 65.5728 13.7173C65.3707 12.4008 64.1396 11.4975 62.8231 11.6996C61.5066 11.9018 60.6033 13.1329 60.8055 14.4493C61.0076 15.7658 62.2387 16.6691 63.5552 16.467Z" fill="white"/>
<path d="M63.1887 16.8913C63.3333 16.8911 63.4778 16.8799 63.6208 16.8578C64.3436 16.7454 64.9948 16.3575 65.4378 15.7753C65.8807 15.1931 66.0809 14.462 65.9964 13.7354C65.9118 13.0088 65.5491 12.3432 64.9843 11.8783C64.4196 11.4134 63.6967 11.1853 62.9674 11.2419C62.2381 11.2985 61.559 11.6354 61.0728 12.182C60.5866 12.7285 60.331 13.4421 60.3596 14.1731C60.3882 14.904 60.6989 15.5955 61.2264 16.1023C61.7538 16.6091 62.4571 16.8919 63.1887 16.8913ZM61.5849 12.8814C61.7391 12.67 61.9336 12.4913 62.1573 12.3556C62.381 12.22 62.6293 12.13 62.888 12.0909C63.1464 12.0511 63.4101 12.0625 63.6641 12.1247C63.918 12.1868 64.1572 12.2985 64.368 12.4531C64.5788 12.6078 64.757 12.8026 64.8924 13.0262C65.0279 13.2498 65.1179 13.4979 65.1574 13.7564C65.207 14.0798 65.176 14.4105 65.0673 14.7191C64.9586 15.0278 64.7754 15.3048 64.5341 15.5258C64.2927 15.7468 64.0006 15.9048 63.6836 15.986C63.3666 16.0671 63.0345 16.0688 62.7167 15.991C62.3989 15.9131 62.1051 15.7581 61.8615 15.5397C61.6179 15.3212 61.4319 15.0461 61.32 14.7386C61.2081 14.4311 61.1737 14.1007 61.2199 13.7768C61.2661 13.4529 61.3915 13.1453 61.5849 12.8814Z" fill="#AB6116"/>
<path d="M63.3206 14.923C63.7894 14.851 64.1112 14.4125 64.0392 13.9437C63.9672 13.4748 63.5287 13.1531 63.0599 13.2251C62.591 13.2971 62.2693 13.7356 62.3413 14.2044C62.4133 14.6733 62.8517 14.995 63.3206 14.923Z" fill="#AB6116"/>
</svg>
