<svg width="24" height="25" viewBox="0 0 24 25" fill="none" xmlns="http://www.w3.org/2000/svg">
<g clip-path="url(#clip0_466_11033)">
<path d="M3 19.499V6.19904C2.99994 5.99377 3.06305 5.79345 3.18077 5.62528C3.29849 5.45711 3.4651 5.32924 3.658 5.25904L13.329 1.74304C13.4045 1.71555 13.4856 1.70667 13.5653 1.71717C13.645 1.72767 13.721 1.75724 13.7869 1.80336C13.8527 1.84948 13.9065 1.9108 13.9436 1.98212C13.9807 2.05344 14 2.13265 14 2.21304V7.16604L20.316 9.27104C20.5152 9.33739 20.6885 9.46476 20.8112 9.63509C20.934 9.80542 21.0001 10.0101 21 10.22V19.499H23V21.499H1V19.499H3ZM5 19.499H12V4.35404L5 6.90004V19.499ZM19 19.499V10.941L14 9.27404V19.499H19Z" fill="#2C2B2B"/>
</g>
<defs>
<clipPath id="clip0_466_11033">
<rect width="24" height="24" fill="white" transform="translate(0 0.5)"/>
</clipPath>
</defs>
</svg>
