<svg width="360" height="284" viewBox="0 0 360 284" fill="none" xmlns="http://www.w3.org/2000/svg">
<g clip-path="url(#clip0_594_6124)">
<path d="M0 0H360V284H72C32.2355 284 0 251.765 0 212V0Z" fill="#F47B20"/>
<path d="M2.5 377.5L-1 75C51 193.5 110 254.5 238 178.5C289.596 147.865 322.5 143.5 361 169.5V377.5H2.5Z" fill="url(#paint0_linear_594_6124)"/>
<path d="M360 0.49317V378.918H38.8347C38.8386 379.026 38.8237 379.028 38.7888 378.918H38.8347C38.7449 376.446 28.866 318.767 24.3018 286.472C-0.67573 109.733 185.086 175.587 220.625 94.4211C259.59 5.43235 305.882 -2.47034 360 0.49317Z" fill="url(#paint1_linear_594_6124)"/>
<path d="M3.05176e-05 -74.5008V308.584H321.454C321.45 308.694 321.465 308.696 321.5 308.584H321.454C321.544 306.082 331.432 247.693 336 214.999C361 36.084 175.072 102.749 139.5 20.5839C100.5 -69.5008 54.1667 -77.5008 3.05176e-05 -74.5008Z" fill="url(#paint2_linear_594_6124)"/>
<path d="M65.512 215.288C64.168 215.288 62.88 215.112 61.648 214.76C60.416 214.392 59.424 213.92 58.672 213.344L59.992 210.416C60.712 210.928 61.56 211.352 62.536 211.688C63.528 212.008 64.528 212.168 65.536 212.168C66.304 212.168 66.92 212.096 67.384 211.952C67.864 211.792 68.216 211.576 68.44 211.304C68.664 211.032 68.776 210.72 68.776 210.368C68.776 209.92 68.6 209.568 68.248 209.312C67.896 209.04 67.432 208.824 66.856 208.664C66.28 208.488 65.64 208.328 64.936 208.184C64.248 208.024 63.552 207.832 62.848 207.608C62.16 207.384 61.528 207.096 60.952 206.744C60.376 206.392 59.904 205.928 59.536 205.352C59.184 204.776 59.008 204.04 59.008 203.144C59.008 202.184 59.264 201.312 59.776 200.528C60.304 199.728 61.088 199.096 62.128 198.632C63.184 198.152 64.504 197.912 66.088 197.912C67.144 197.912 68.184 198.04 69.208 198.296C70.232 198.536 71.136 198.904 71.92 199.4L70.72 202.352C69.936 201.904 69.152 201.576 68.368 201.368C67.584 201.144 66.816 201.032 66.064 201.032C65.312 201.032 64.696 201.12 64.216 201.296C63.736 201.472 63.392 201.704 63.184 201.992C62.976 202.264 62.872 202.584 62.872 202.952C62.872 203.384 63.048 203.736 63.4 204.008C63.752 204.264 64.216 204.472 64.792 204.632C65.368 204.792 66 204.952 66.688 205.112C67.392 205.272 68.088 205.456 68.776 205.664C69.48 205.872 70.12 206.152 70.696 206.504C71.272 206.856 71.736 207.32 72.088 207.896C72.456 208.472 72.64 209.2 72.64 210.08C72.64 211.024 72.376 211.888 71.848 212.672C71.32 213.456 70.528 214.088 69.472 214.568C68.432 215.048 67.112 215.288 65.512 215.288ZM81.4407 215.192C79.9687 215.192 78.6727 214.904 77.5527 214.328C76.4487 213.752 75.5927 212.968 74.9847 211.976C74.3767 210.968 74.0727 209.824 74.0727 208.544C74.0727 207.248 74.3687 206.104 74.9607 205.112C75.5687 204.104 76.3927 203.32 77.4327 202.76C78.4727 202.184 79.6487 201.896 80.9607 201.896C82.2247 201.896 83.3607 202.168 84.3687 202.712C85.3927 203.24 86.2007 204.008 86.7927 205.016C87.3847 206.008 87.6807 207.2 87.6807 208.592C87.6807 208.736 87.6727 208.904 87.6567 209.096C87.6407 209.272 87.6247 209.44 87.6087 209.6H77.1207V207.416H85.6407L84.2007 208.064C84.2007 207.392 84.0647 206.808 83.7927 206.312C83.5207 205.816 83.1447 205.432 82.6647 205.16C82.1847 204.872 81.6247 204.728 80.9847 204.728C80.3447 204.728 79.7767 204.872 79.2807 205.16C78.8007 205.432 78.4247 205.824 78.1527 206.336C77.8807 206.832 77.7447 207.424 77.7447 208.112V208.688C77.7447 209.392 77.8967 210.016 78.2007 210.56C78.5207 211.088 78.9607 211.496 79.5207 211.784C80.0967 212.056 80.7687 212.192 81.5367 212.192C82.2247 212.192 82.8247 212.088 83.3367 211.88C83.8647 211.672 84.3447 211.36 84.7767 210.944L86.7687 213.104C86.1767 213.776 85.4327 214.296 84.5367 214.664C83.6407 215.016 82.6087 215.192 81.4407 215.192ZM90.1733 215V197.192H93.9173V215H90.1733ZM105.312 215V212.48L105.072 211.928V207.416C105.072 206.616 104.824 205.992 104.328 205.544C103.848 205.096 103.104 204.872 102.096 204.872C101.408 204.872 100.728 204.984 100.056 205.208C99.4001 205.416 98.8401 205.704 98.3761 206.072L97.0321 203.456C97.7361 202.96 98.5841 202.576 99.5761 202.304C100.568 202.032 101.576 201.896 102.6 201.896C104.568 201.896 106.096 202.36 107.184 203.288C108.272 204.216 108.816 205.664 108.816 207.632V215H105.312ZM101.376 215.192C100.368 215.192 99.5041 215.024 98.7841 214.688C98.0641 214.336 97.5121 213.864 97.1281 213.272C96.7441 212.68 96.5521 212.016 96.5521 211.28C96.5521 210.512 96.7361 209.84 97.1041 209.264C97.4881 208.688 98.0881 208.24 98.9041 207.92C99.7201 207.584 100.784 207.416 102.096 207.416H105.528V209.6H102.504C101.624 209.6 101.016 209.744 100.68 210.032C100.36 210.32 100.2 210.68 100.2 211.112C100.2 211.592 100.384 211.976 100.752 212.264C101.136 212.536 101.656 212.672 102.312 212.672C102.936 212.672 103.496 212.528 103.992 212.24C104.488 211.936 104.848 211.496 105.072 210.92L105.648 212.648C105.376 213.48 104.88 214.112 104.16 214.544C103.44 214.976 102.512 215.192 101.376 215.192ZM128.741 201.896C129.765 201.896 130.669 202.104 131.453 202.52C132.253 202.92 132.877 203.544 133.325 204.392C133.789 205.224 134.021 206.296 134.021 207.608V215H130.277V208.184C130.277 207.144 130.061 206.376 129.629 205.88C129.197 205.384 128.589 205.136 127.805 205.136C127.261 205.136 126.773 205.264 126.341 205.52C125.909 205.76 125.573 206.128 125.333 206.624C125.093 207.12 124.973 207.752 124.973 208.52V215H121.229V208.184C121.229 207.144 121.013 206.376 120.581 205.88C120.165 205.384 119.565 205.136 118.781 205.136C118.237 205.136 117.749 205.264 117.317 205.52C116.885 205.76 116.549 206.128 116.309 206.624C116.069 207.12 115.949 207.752 115.949 208.52V215H112.205V202.088H115.781V205.616L115.109 204.584C115.557 203.704 116.189 203.04 117.005 202.592C117.837 202.128 118.781 201.896 119.837 201.896C121.021 201.896 122.053 202.2 122.933 202.808C123.829 203.4 124.421 204.312 124.709 205.544L123.389 205.184C123.821 204.176 124.509 203.376 125.453 202.784C126.413 202.192 127.509 201.896 128.741 201.896ZM145.296 215V212.48L145.056 211.928V207.416C145.056 206.616 144.808 205.992 144.312 205.544C143.832 205.096 143.088 204.872 142.08 204.872C141.392 204.872 140.712 204.984 140.04 205.208C139.384 205.416 138.824 205.704 138.36 206.072L137.016 203.456C137.72 202.96 138.568 202.576 139.56 202.304C140.552 202.032 141.56 201.896 142.584 201.896C144.552 201.896 146.08 202.36 147.168 203.288C148.256 204.216 148.8 205.664 148.8 207.632V215H145.296ZM141.36 215.192C140.352 215.192 139.488 215.024 138.768 214.688C138.048 214.336 137.496 213.864 137.112 213.272C136.728 212.68 136.536 212.016 136.536 211.28C136.536 210.512 136.72 209.84 137.088 209.264C137.472 208.688 138.072 208.24 138.888 207.92C139.704 207.584 140.768 207.416 142.08 207.416H145.512V209.6H142.488C141.608 209.6 141 209.744 140.664 210.032C140.344 210.32 140.184 210.68 140.184 211.112C140.184 211.592 140.368 211.976 140.736 212.264C141.12 212.536 141.64 212.672 142.296 212.672C142.92 212.672 143.48 212.528 143.976 212.24C144.472 211.936 144.832 211.496 145.056 210.92L145.632 212.648C145.36 213.48 144.864 214.112 144.144 214.544C143.424 214.976 142.496 215.192 141.36 215.192ZM157.469 215.192C155.949 215.192 154.765 214.808 153.917 214.04C153.069 213.256 152.645 212.096 152.645 210.56V199.232H156.389V210.512C156.389 211.056 156.533 211.48 156.821 211.784C157.109 212.072 157.501 212.216 157.997 212.216C158.589 212.216 159.093 212.056 159.509 211.736L160.517 214.376C160.133 214.648 159.669 214.856 159.125 215C158.597 215.128 158.045 215.192 157.469 215.192ZM150.653 205.256V202.376H159.605V205.256H150.653ZM169.68 215V198.2H177.312C179.136 198.2 180.744 198.552 182.136 199.256C183.528 199.944 184.616 200.912 185.4 202.16C186.184 203.408 186.576 204.888 186.576 206.6C186.576 208.296 186.184 209.776 185.4 211.04C184.616 212.288 183.528 213.264 182.136 213.968C180.744 214.656 179.136 215 177.312 215H169.68ZM173.568 211.808H177.12C178.24 211.808 179.208 211.6 180.023 211.184C180.856 210.752 181.496 210.144 181.944 209.36C182.408 208.576 182.64 207.656 182.64 206.6C182.64 205.528 182.408 204.608 181.944 203.84C181.496 203.056 180.856 202.456 180.023 202.04C179.208 201.608 178.24 201.392 177.12 201.392H173.568V211.808ZM197.164 215V212.48L196.924 211.928V207.416C196.924 206.616 196.676 205.992 196.18 205.544C195.7 205.096 194.956 204.872 193.948 204.872C193.26 204.872 192.58 204.984 191.908 205.208C191.252 205.416 190.692 205.704 190.228 206.072L188.884 203.456C189.588 202.96 190.436 202.576 191.428 202.304C192.42 202.032 193.428 201.896 194.452 201.896C196.42 201.896 197.948 202.36 199.036 203.288C200.124 204.216 200.668 205.664 200.668 207.632V215H197.164ZM193.228 215.192C192.22 215.192 191.356 215.024 190.636 214.688C189.916 214.336 189.364 213.864 188.98 213.272C188.596 212.68 188.404 212.016 188.404 211.28C188.404 210.512 188.588 209.84 188.956 209.264C189.34 208.688 189.94 208.24 190.756 207.92C191.572 207.584 192.636 207.416 193.948 207.416H197.38V209.6H194.356C193.476 209.6 192.868 209.744 192.532 210.032C192.212 210.32 192.052 210.68 192.052 211.112C192.052 211.592 192.236 211.976 192.604 212.264C192.988 212.536 193.508 212.672 194.164 212.672C194.788 212.672 195.348 212.528 195.844 212.24C196.34 211.936 196.7 211.496 196.924 210.92L197.5 212.648C197.228 213.48 196.732 214.112 196.012 214.544C195.292 214.976 194.364 215.192 193.228 215.192ZM209.336 215.192C207.816 215.192 206.632 214.808 205.784 214.04C204.936 213.256 204.512 212.096 204.512 210.56V199.232H208.256V210.512C208.256 211.056 208.4 211.48 208.688 211.784C208.976 212.072 209.368 212.216 209.864 212.216C210.456 212.216 210.96 212.056 211.376 211.736L212.384 214.376C212 214.648 211.536 214.856 210.992 215C210.464 215.128 209.912 215.192 209.336 215.192ZM202.52 205.256V202.376H211.472V205.256H202.52ZM222.406 215V212.48L222.166 211.928V207.416C222.166 206.616 221.918 205.992 221.422 205.544C220.942 205.096 220.198 204.872 219.19 204.872C218.502 204.872 217.822 204.984 217.15 205.208C216.494 205.416 215.934 205.704 215.47 206.072L214.126 203.456C214.83 202.96 215.678 202.576 216.67 202.304C217.662 202.032 218.67 201.896 219.694 201.896C221.662 201.896 223.19 202.36 224.278 203.288C225.366 204.216 225.91 205.664 225.91 207.632V215H222.406ZM218.47 215.192C217.462 215.192 216.598 215.024 215.878 214.688C215.158 214.336 214.606 213.864 214.222 213.272C213.838 212.68 213.646 212.016 213.646 211.28C213.646 210.512 213.83 209.84 214.198 209.264C214.582 208.688 215.182 208.24 215.998 207.92C216.814 207.584 217.878 207.416 219.19 207.416H222.622V209.6H219.598C218.718 209.6 218.11 209.744 217.774 210.032C217.454 210.32 217.294 210.68 217.294 211.112C217.294 211.592 217.478 211.976 217.846 212.264C218.23 212.536 218.75 212.672 219.406 212.672C220.03 212.672 220.59 212.528 221.086 212.24C221.582 211.936 221.942 211.496 222.166 210.92L222.742 212.648C222.47 213.48 221.974 214.112 221.254 214.544C220.534 214.976 219.606 215.192 218.47 215.192ZM237.146 201.896C238.17 201.896 239.082 202.104 239.882 202.52C240.698 202.92 241.338 203.544 241.802 204.392C242.266 205.224 242.498 206.296 242.498 207.608V215H238.754V208.184C238.754 207.144 238.522 206.376 238.058 205.88C237.61 205.384 236.97 205.136 236.138 205.136C235.546 205.136 235.01 205.264 234.53 205.52C234.066 205.76 233.698 206.136 233.426 206.648C233.17 207.16 233.042 207.816 233.042 208.616V215H229.298V202.088H232.874V205.664L232.202 204.584C232.666 203.72 233.33 203.056 234.194 202.592C235.058 202.128 236.042 201.896 237.146 201.896ZM252.058 219.848C250.842 219.848 249.666 219.696 248.53 219.392C247.41 219.104 246.474 218.664 245.722 218.072L247.21 215.384C247.754 215.832 248.442 216.184 249.274 216.44C250.122 216.712 250.954 216.848 251.77 216.848C253.098 216.848 254.058 216.552 254.65 215.96C255.258 215.368 255.562 214.488 255.562 213.32V211.376L255.802 208.136L255.754 204.872V202.088H259.306V212.84C259.306 215.24 258.682 217.008 257.434 218.144C256.186 219.28 254.394 219.848 252.058 219.848ZM251.482 214.376C250.282 214.376 249.194 214.12 248.218 213.608C247.258 213.08 246.482 212.352 245.89 211.424C245.314 210.48 245.026 209.384 245.026 208.136C245.026 206.872 245.314 205.776 245.89 204.848C246.482 203.904 247.258 203.176 248.218 202.664C249.194 202.152 250.282 201.896 251.482 201.896C252.57 201.896 253.53 202.12 254.362 202.568C255.194 203 255.842 203.68 256.306 204.608C256.77 205.52 257.002 206.696 257.002 208.136C257.002 209.56 256.77 210.736 256.306 211.664C255.842 212.576 255.194 213.256 254.362 213.704C253.53 214.152 252.57 214.376 251.482 214.376ZM252.226 211.304C252.882 211.304 253.466 211.176 253.978 210.92C254.49 210.648 254.89 210.272 255.178 209.792C255.466 209.312 255.61 208.76 255.61 208.136C255.61 207.496 255.466 206.944 255.178 206.48C254.89 206 254.49 205.632 253.978 205.376C253.466 205.104 252.882 204.968 252.226 204.968C251.57 204.968 250.986 205.104 250.474 205.376C249.962 205.632 249.554 206 249.25 206.48C248.962 206.944 248.818 207.496 248.818 208.136C248.818 208.76 248.962 209.312 249.25 209.792C249.554 210.272 249.962 210.648 250.474 210.92C250.986 211.176 251.57 211.304 252.226 211.304ZM275.131 215.192C273.915 215.192 272.819 214.92 271.843 214.376C270.867 213.816 270.091 213.04 269.515 212.048C268.955 211.056 268.675 209.888 268.675 208.544C268.675 207.184 268.955 206.008 269.515 205.016C270.091 204.024 270.867 203.256 271.843 202.712C272.819 202.168 273.915 201.896 275.131 201.896C276.219 201.896 277.171 202.136 277.987 202.616C278.803 203.096 279.435 203.824 279.883 204.8C280.331 205.776 280.555 207.024 280.555 208.544C280.555 210.048 280.339 211.296 279.907 212.288C279.475 213.264 278.851 213.992 278.035 214.472C277.235 214.952 276.267 215.192 275.131 215.192ZM275.779 212.12C276.387 212.12 276.939 211.976 277.435 211.688C277.931 211.4 278.323 210.992 278.611 210.464C278.915 209.92 279.067 209.28 279.067 208.544C279.067 207.792 278.915 207.152 278.611 206.624C278.323 206.096 277.931 205.688 277.435 205.4C276.939 205.112 276.387 204.968 275.779 204.968C275.155 204.968 274.595 205.112 274.099 205.4C273.603 205.688 273.203 206.096 272.899 206.624C272.611 207.152 272.467 207.792 272.467 208.544C272.467 209.28 272.611 209.92 272.899 210.464C273.203 210.992 273.603 211.4 274.099 211.688C274.595 211.976 275.155 212.12 275.779 212.12ZM279.163 215V212.36L279.235 208.52L278.995 204.704V197.192H282.739V215H279.163ZM286.205 215V202.088H289.949V215H286.205ZM288.077 200.288C287.389 200.288 286.829 200.088 286.397 199.688C285.965 199.288 285.749 198.792 285.749 198.2C285.749 197.608 285.965 197.112 286.397 196.712C286.829 196.312 287.389 196.112 288.077 196.112C288.765 196.112 289.325 196.304 289.757 196.688C290.189 197.056 290.405 197.536 290.405 198.128C290.405 198.752 290.189 199.272 289.757 199.688C289.341 200.088 288.781 200.288 288.077 200.288ZM59.992 245V228.2H67.264C68.768 228.2 70.064 228.448 71.152 228.944C72.24 229.424 73.08 230.12 73.672 231.032C74.264 231.944 74.56 233.032 74.56 234.296C74.56 235.544 74.264 236.624 73.672 237.536C73.08 238.448 72.24 239.152 71.152 239.648C70.064 240.128 68.768 240.368 67.264 240.368H62.152L63.88 238.616V245H59.992ZM63.88 239.048L62.152 237.2H67.048C68.248 237.2 69.144 236.944 69.736 236.432C70.328 235.92 70.624 235.208 70.624 234.296C70.624 233.368 70.328 232.648 69.736 232.136C69.144 231.624 68.248 231.368 67.048 231.368H62.152L63.88 229.52V239.048ZM77.3061 245V232.088H81.0501V245H77.3061ZM79.1781 230.288C78.4901 230.288 77.9301 230.088 77.4981 229.688C77.0661 229.288 76.8501 228.792 76.8501 228.2C76.8501 227.608 77.0661 227.112 77.4981 226.712C77.9301 226.312 78.4901 226.112 79.1781 226.112C79.8661 226.112 80.4261 226.304 80.8581 226.688C81.2901 227.056 81.5061 227.536 81.5061 228.128C81.5061 228.752 81.2901 229.272 80.8581 229.688C80.4421 230.088 79.8821 230.288 79.1781 230.288ZM89.8049 245.192C88.2849 245.192 87.1009 244.808 86.2529 244.04C85.4049 243.256 84.9809 242.096 84.9809 240.56V229.232H88.7249V240.512C88.7249 241.056 88.8689 241.48 89.1569 241.784C89.4449 242.072 89.8369 242.216 90.3329 242.216C90.9249 242.216 91.4289 242.056 91.8449 241.736L92.8529 244.376C92.4689 244.648 92.0049 244.856 91.4609 245C90.9329 245.128 90.3809 245.192 89.8049 245.192ZM82.9889 235.256V232.376H91.9409V235.256H82.9889ZM94.9546 245V232.088H98.6986V245H94.9546ZM96.8266 230.288C96.1386 230.288 95.5786 230.088 95.1466 229.688C94.7146 229.288 94.4986 228.792 94.4986 228.2C94.4986 227.608 94.7146 227.112 95.1466 226.712C95.5786 226.312 96.1386 226.112 96.8266 226.112C97.5146 226.112 98.0746 226.304 98.5066 226.688C98.9386 227.056 99.1546 227.536 99.1546 228.128C99.1546 228.752 98.9386 229.272 98.5066 229.688C98.0906 230.088 97.5306 230.288 96.8266 230.288ZM105.269 242.36L105.365 237.8L111.389 232.088H115.853L110.069 237.968L108.125 239.552L105.269 242.36ZM102.173 245V227.192H105.917V245H102.173ZM111.797 245L107.429 239.576L109.781 236.672L116.333 245H111.797ZM133.118 245.288C131.822 245.288 130.614 245.08 129.494 244.664C128.39 244.232 127.43 243.624 126.614 242.84C125.798 242.056 125.158 241.136 124.694 240.08C124.246 239.024 124.022 237.864 124.022 236.6C124.022 235.336 124.246 234.176 124.694 233.12C125.158 232.064 125.798 231.144 126.614 230.36C127.446 229.576 128.414 228.976 129.518 228.56C130.622 228.128 131.83 227.912 133.142 227.912C134.598 227.912 135.91 228.168 137.078 228.68C138.262 229.176 139.254 229.912 140.054 230.888L137.558 233.192C136.982 232.536 136.342 232.048 135.638 231.728C134.934 231.392 134.166 231.224 133.334 231.224C132.55 231.224 131.83 231.352 131.174 231.608C130.518 231.864 129.95 232.232 129.47 232.712C128.99 233.192 128.614 233.76 128.342 234.416C128.086 235.072 127.958 235.8 127.958 236.6C127.958 237.4 128.086 238.128 128.342 238.784C128.614 239.44 128.99 240.008 129.47 240.488C129.95 240.968 130.518 241.336 131.174 241.592C131.83 241.848 132.55 241.976 133.334 241.976C134.166 241.976 134.934 241.816 135.638 241.496C136.342 241.16 136.982 240.656 137.558 239.984L140.054 242.288C139.254 243.264 138.262 244.008 137.078 244.52C135.91 245.032 134.59 245.288 133.118 245.288ZM148.114 245.192C146.738 245.192 145.514 244.904 144.442 244.328C143.386 243.752 142.546 242.968 141.922 241.976C141.314 240.968 141.01 239.824 141.01 238.544C141.01 237.248 141.314 236.104 141.922 235.112C142.546 234.104 143.386 233.32 144.442 232.76C145.514 232.184 146.738 231.896 148.114 231.896C149.474 231.896 150.69 232.184 151.762 232.76C152.834 233.32 153.674 234.096 154.282 235.088C154.89 236.08 155.194 237.232 155.194 238.544C155.194 239.824 154.89 240.968 154.282 241.976C153.674 242.968 152.834 243.752 151.762 244.328C150.69 244.904 149.474 245.192 148.114 245.192ZM148.114 242.12C148.738 242.12 149.298 241.976 149.794 241.688C150.29 241.4 150.682 240.992 150.97 240.464C151.258 239.92 151.402 239.28 151.402 238.544C151.402 237.792 151.258 237.152 150.97 236.624C150.682 236.096 150.29 235.688 149.794 235.4C149.298 235.112 148.738 234.968 148.114 234.968C147.49 234.968 146.93 235.112 146.434 235.4C145.938 235.688 145.538 236.096 145.234 236.624C144.946 237.152 144.802 237.792 144.802 238.544C144.802 239.28 144.946 239.92 145.234 240.464C145.538 240.992 145.938 241.4 146.434 241.688C146.93 241.976 147.49 242.12 148.114 242.12ZM165.545 231.896C166.569 231.896 167.481 232.104 168.281 232.52C169.097 232.92 169.737 233.544 170.201 234.392C170.665 235.224 170.897 236.296 170.897 237.608V245H167.153V238.184C167.153 237.144 166.921 236.376 166.457 235.88C166.009 235.384 165.369 235.136 164.537 235.136C163.945 235.136 163.409 235.264 162.929 235.52C162.465 235.76 162.097 236.136 161.825 236.648C161.569 237.16 161.441 237.816 161.441 238.616V245H157.697V232.088H161.273V235.664L160.601 234.584C161.065 233.72 161.729 233.056 162.593 232.592C163.457 232.128 164.441 231.896 165.545 231.896ZM182.139 231.896C183.163 231.896 184.075 232.104 184.875 232.52C185.691 232.92 186.331 233.544 186.795 234.392C187.259 235.224 187.491 236.296 187.491 237.608V245H183.747V238.184C183.747 237.144 183.515 236.376 183.051 235.88C182.603 235.384 181.963 235.136 181.131 235.136C180.539 235.136 180.003 235.264 179.523 235.52C179.059 235.76 178.691 236.136 178.419 236.648C178.163 237.16 178.035 237.816 178.035 238.616V245H174.291V232.088H177.867V235.664L177.195 234.584C177.659 233.72 178.323 233.056 179.187 232.592C180.051 232.128 181.035 231.896 182.139 231.896ZM197.386 245.192C195.914 245.192 194.618 244.904 193.498 244.328C192.394 243.752 191.538 242.968 190.93 241.976C190.322 240.968 190.018 239.824 190.018 238.544C190.018 237.248 190.314 236.104 190.906 235.112C191.514 234.104 192.338 233.32 193.378 232.76C194.418 232.184 195.594 231.896 196.906 231.896C198.17 231.896 199.306 232.168 200.314 232.712C201.338 233.24 202.146 234.008 202.738 235.016C203.33 236.008 203.626 237.2 203.626 238.592C203.626 238.736 203.618 238.904 203.602 239.096C203.586 239.272 203.57 239.44 203.554 239.6H193.066V237.416H201.586L200.146 238.064C200.146 237.392 200.01 236.808 199.738 236.312C199.466 235.816 199.09 235.432 198.61 235.16C198.13 234.872 197.57 234.728 196.93 234.728C196.29 234.728 195.722 234.872 195.226 235.16C194.746 235.432 194.37 235.824 194.098 236.336C193.826 236.832 193.69 237.424 193.69 238.112V238.688C193.69 239.392 193.842 240.016 194.146 240.56C194.466 241.088 194.906 241.496 195.466 241.784C196.042 242.056 196.714 242.192 197.482 242.192C198.17 242.192 198.77 242.088 199.282 241.88C199.81 241.672 200.29 241.36 200.722 240.944L202.714 243.104C202.122 243.776 201.378 244.296 200.482 244.664C199.586 245.016 198.554 245.192 197.386 245.192ZM212.359 245.192C210.967 245.192 209.727 244.912 208.639 244.352C207.551 243.776 206.695 242.984 206.071 241.976C205.463 240.968 205.159 239.824 205.159 238.544C205.159 237.248 205.463 236.104 206.071 235.112C206.695 234.104 207.551 233.32 208.639 232.76C209.727 232.184 210.967 231.896 212.359 231.896C213.719 231.896 214.903 232.184 215.911 232.76C216.919 233.32 217.663 234.128 218.143 235.184L215.239 236.744C214.903 236.136 214.479 235.688 213.967 235.4C213.471 235.112 212.927 234.968 212.335 234.968C211.695 234.968 211.119 235.112 210.607 235.4C210.095 235.688 209.687 236.096 209.383 236.624C209.095 237.152 208.951 237.792 208.951 238.544C208.951 239.296 209.095 239.936 209.383 240.464C209.687 240.992 210.095 241.4 210.607 241.688C211.119 241.976 211.695 242.12 212.335 242.12C212.927 242.12 213.471 241.984 213.967 241.712C214.479 241.424 214.903 240.968 215.239 240.344L218.143 241.928C217.663 242.968 216.919 243.776 215.911 244.352C214.903 244.912 213.719 245.192 212.359 245.192ZM225.766 245.192C224.246 245.192 223.062 244.808 222.214 244.04C221.366 243.256 220.942 242.096 220.942 240.56V229.232H224.686V240.512C224.686 241.056 224.83 241.48 225.118 241.784C225.406 242.072 225.798 242.216 226.294 242.216C226.886 242.216 227.39 242.056 227.806 241.736L228.814 244.376C228.43 244.648 227.966 244.856 227.422 245C226.894 245.128 226.342 245.192 225.766 245.192ZM218.95 235.256V232.376H227.902V235.256H218.95Z" fill="white"/>
</g>
<defs>
<linearGradient id="paint0_linear_594_6124" x1="181.75" y1="112" x2="181.75" y2="377.5" gradientUnits="userSpaceOnUse">
<stop stop-color="#FFA663"/>
<stop offset="1" stop-color="#F47B20" stop-opacity="0"/>
</linearGradient>
<linearGradient id="paint1_linear_594_6124" x1="191.152" y1="0.0828741" x2="191.152" y2="320.4" gradientUnits="userSpaceOnUse">
<stop stop-color="#FF994D"/>
<stop offset="1" stop-color="#F47B20" stop-opacity="0"/>
</linearGradient>
<linearGradient id="paint2_linear_594_6124" x1="169" y1="-74.9161" x2="169" y2="249.346" gradientUnits="userSpaceOnUse">
<stop stop-color="#FF994D"/>
<stop offset="1" stop-color="#F47B20" stop-opacity="0"/>
</linearGradient>
<clipPath id="clip0_594_6124">
<path d="M0 0H360V284H72C32.2355 284 0 251.765 0 212V0Z" fill="white"/>
</clipPath>
</defs>
</svg>
