<svg width="24" height="25" viewBox="0 0 24 25" fill="none" xmlns="http://www.w3.org/2000/svg">
<g clip-path="url(#clip0_15639_25706)">
<path d="M3.99962 20.5V14.5C3.99962 12.3783 4.84247 10.3434 6.34276 8.84315C7.84305 7.34285 9.87788 6.5 11.9996 6.5C14.1213 6.5 16.1562 7.34285 17.6565 8.84315C19.1568 10.3434 19.9996 12.3783 19.9996 14.5V20.5H20.9996V22.5H2.99962V20.5H3.99962ZM5.99962 20.5H17.9996V14.5C17.9996 12.9087 17.3675 11.3826 16.2423 10.2574C15.117 9.13214 13.5909 8.5 11.9996 8.5C10.4083 8.5 8.88219 9.13214 7.75698 10.2574C6.63176 11.3826 5.99962 12.9087 5.99962 14.5V20.5ZM10.9996 2.5H12.9996V5.5H10.9996V2.5ZM19.7776 5.308L21.1916 6.722L19.0716 8.843L17.6566 7.429L19.7776 5.308ZM2.80762 6.722L4.22162 5.308L6.34262 7.428L4.92962 8.844L2.80762 6.722ZM6.99962 14.5C6.99962 13.1739 7.5264 11.9021 8.46408 10.9645C9.40176 10.0268 10.6735 9.5 11.9996 9.5V11.5C11.204 11.5 10.4409 11.8161 9.8783 12.3787C9.31569 12.9413 8.99962 13.7044 8.99962 14.5H6.99962Z" fill="#DD1E25"/>
</g>
<defs>
<clipPath id="clip0_15639_25706">
<rect width="24" height="24" fill="white" transform="translate(0 0.5)"/>
</clipPath>
</defs>
</svg>
