<svg width="328" height="122" viewBox="0 0 328 122" fill="none" xmlns="http://www.w3.org/2000/svg">
<rect width="328" height="122" rx="8" fill="#F47B20"/>
<path d="M327.986 121.931V46.9307C325.153 46.0974 314.5 38.4999 299.486 40.9307C274.107 45.0398 235.65 90.5862 184 72.9999C113.514 48.9999 3.5 66.9999 3.5 121.931H327.986Z" fill="url(#paint0_linear_490_2244)"/>
<path d="M0.5 121.931L0 47.0003C0.5 44.0002 12 36.0002 28.0135 40.931C52.585 48.4969 98.3749 98.3496 149 78.0002C225.5 47.2502 324 67.0002 324 121.931L0.5 121.931Z" fill="url(#paint1_linear_490_2244)"/>
<rect x="211" y="13" width="98.8723" height="96" rx="32" fill="#FFF9ED"/>
<path d="M236.671 35.9175C238.476 36.8935 241.374 42.1581 237.44 42.1285C234.512 42.099 235.577 37.3963 236.671 35.9175Z" fill="#98171D"/>
<path opacity="0.2" d="M227 90.3974C227 88.9482 241.966 87.7651 260.451 87.7651C278.907 87.7651 293.872 88.9482 293.872 90.3974C293.872 91.8467 278.907 93.0002 260.451 93.0002C241.966 93.0002 227 91.8467 227 90.3974Z" fill="#644C3A"/>
<path d="M237.204 33.8472C237.204 33.8472 232.56 34.2612 232.797 35.4739C233.034 36.6865 237.736 36.1246 237.736 36.1246C237.766 36.0654 238.15 35.4739 237.943 34.764C237.766 34.2021 237.322 33.9359 237.204 33.8472Z" fill="#D99900"/>
<path d="M240.753 31.3627C239.777 31.5402 238.683 31.5993 237.736 31.9542C236.819 32.2796 236.553 32.9303 235.903 33.4922C235.311 33.995 234.572 34.1133 234.572 32.9894C234.542 32.1317 235.607 31.6289 236.08 31.067C236.524 30.5346 236.672 30.1501 237.145 29.8543C237.677 29.529 239.126 29.2332 239.747 29.0853C241.759 28.6121 242.114 30.2092 240.753 31.3627Z" fill="#98171D"/>
<path d="M235.104 36.8937C235.814 37.6627 236.79 37.5148 237.677 37.6035C236.76 35.5923 236.169 33.8473 235.902 32.2798C235.607 32.6347 235.311 33.0488 235.104 33.4628C234.601 34.498 234.276 35.9768 235.104 36.8937Z" fill="#CC781C"/>
<path d="M236.021 48.7538C246.55 80.7555 274.234 73.036 274.234 73.036C275.328 71.7051 276.038 70.2559 276.836 68.7475C276.984 68.4517 277.162 67.7123 277.25 67.594C277.546 67.1799 278.049 66.9729 278.374 66.4701C277.132 64.8434 275.831 63.1871 274.559 61.6195C273.829 60.7125 273.11 59.8449 272.4 59.0168C271.128 57.4788 269.915 56.0592 268.792 54.7874C269.768 56.2958 270.507 57.8338 271.069 59.3126C265.331 60.5548 258.085 60.2294 250.898 54.8761C246.787 51.8297 242.705 47.0975 238.919 40.0879C238.9 40.147 238.87 40.2062 238.831 40.2654C238.002 42.0104 237.322 43.8441 236.731 45.6778C236.415 46.6834 236.179 47.7088 236.021 48.7538Z" fill="#CC781C"/>
<path d="M278.345 55.6747C278.729 55.2902 280.031 53.8114 280.001 53.2199C279.883 51.5044 278.256 53.9001 277.96 54.255C277.763 54.5311 277.566 54.8071 277.369 55.0832C277.29 55.2015 277.211 55.3099 277.132 55.4085C276.619 56.1184 276.077 56.8085 275.505 57.4789C276.57 57.0648 277.576 56.4733 278.345 55.6747Z" fill="#543B1F"/>
<path d="M276.836 52.0071C277.96 50.7353 278.7 49.4931 279.321 47.9256C279.232 45.5003 277.132 48.9608 276.836 49.4931C276.304 50.3509 275.831 51.2677 275.239 52.0959C275.062 52.3325 274.529 52.8057 274.174 53.2198C273.997 53.4564 273.849 53.6338 273.849 53.7817C273.79 54.5507 274.5 54.1662 275.21 53.5747C275.949 52.9832 276.688 52.1846 276.836 52.0071Z" fill="#543B1F"/>
<path d="M275.594 47.2749C276.215 46.2102 278.345 42.8976 277.191 41.6554C275.831 40.147 274.825 44.8792 274.559 45.5595C273.967 46.9791 273.228 48.3988 272.489 49.7889C272.015 50.7058 271.513 51.6226 271.039 52.5395C271.66 52.924 272.962 51.3269 274.027 49.7593C274.736 48.7242 275.357 47.6594 275.594 47.2749Z" fill="#543B1F"/>
<path d="M268.791 54.7876C269.767 56.296 270.507 57.834 271.069 59.3128C271.453 60.3184 271.749 61.2944 271.986 62.2409C273.465 68.0083 272.873 72.7996 274.234 73.0363C274.943 73.1841 276.156 72.0602 278.374 66.4703C278.394 66.4506 278.414 66.421 278.433 66.3816C278.453 66.3618 278.473 66.3323 278.493 66.2928C279.202 64.9915 280.297 63.8971 280.829 62.507C281.509 60.7916 282.278 58.6621 281.894 56.8284C281.776 56.1481 281.687 55.527 281.657 54.9355C280.504 55.6749 278.404 56.9171 275.653 57.9819C274.648 58.3663 273.553 58.7213 272.4 59.017C271.128 57.4791 269.915 56.0594 268.791 54.7876Z" fill="#543B1F"/>
<path d="M274.204 39.5854C274.234 38.7277 274.115 37.2488 272.784 37.7812C271.838 38.1657 271.897 40.029 271.749 40.798C271.335 43.2233 270.596 45.619 269.768 47.9259C269.59 48.3794 269.422 48.8329 269.265 49.2865C268.999 49.9371 268.318 51.1202 269.531 50.7061C270.211 50.4399 270.832 49.0203 271.217 48.1625C271.305 47.9851 271.365 47.8372 271.424 47.7189C272.814 45.1458 273.819 42.5134 274.204 39.5854Z" fill="#543B1F"/>
<path d="M269.531 50.7061C270.211 50.4399 270.832 49.0203 271.217 48.1625C271.305 47.9851 271.365 47.8372 271.424 47.7189C272.814 45.1458 273.819 42.5134 274.204 39.5854C274.234 38.7277 274.115 37.2488 272.784 37.7812C271.838 38.1657 271.897 40.029 271.749 40.798C271.335 43.2233 270.596 45.619 269.768 47.9259C269.59 48.3794 269.422 48.8329 269.265 49.2865C268.999 49.9371 268.318 51.1202 269.531 50.7061Z" fill="#9C5D1A"/>
<path d="M271.039 52.5395C271.66 52.924 272.962 51.3269 274.027 49.7593C274.736 48.7242 275.357 47.6594 275.594 47.2749C276.215 46.2102 278.345 42.8976 277.191 41.6554C275.831 40.147 274.825 44.8792 274.559 45.5595C273.967 46.9791 273.228 48.3988 272.489 49.7889C272.015 50.7058 271.513 51.6226 271.039 52.5395Z" fill="#9B5D1A"/>
<path d="M275.21 53.5747C275.949 52.9832 276.688 52.1846 276.836 52.0071C277.96 50.7353 278.7 49.4931 279.321 47.9256C279.232 45.5003 277.132 48.9608 276.836 49.4931C276.304 50.3509 275.831 51.2677 275.239 52.0959C275.062 52.3325 274.529 52.8057 274.174 53.2198C273.997 53.4564 273.849 53.6338 273.849 53.7817C273.79 54.5507 274.5 54.1662 275.21 53.5747Z" fill="#995B1A"/>
<path d="M275.505 57.4789C276.57 57.0648 277.576 56.4733 278.345 55.6747C278.729 55.2902 280.031 53.8114 280.001 53.2199C279.883 51.5044 278.256 53.9001 277.96 54.255C277.763 54.5311 277.566 54.8071 277.369 55.0832C277.29 55.2015 277.211 55.3099 277.132 55.4085C276.619 56.1184 276.077 56.8085 275.505 57.4789Z" fill="#975B1B"/>
<path d="M275.121 53.7227C275.446 54.1959 275.505 54.6987 275.949 54.9944C276.422 55.2606 277.102 54.4916 277.339 55.4381C277.783 57.1831 273.169 56.9465 274.234 58.5436C274.855 59.4605 276.481 57.8338 276.925 59.3718C277.369 60.7914 275.417 60.7914 274.943 61.797C275.772 62.0336 276.955 62.1519 277.694 62.7139C278.611 63.4237 278.167 63.542 277.28 64.0448C276.481 64.4885 275.653 64.9025 274.825 65.1983C274.204 65.4349 272.814 65.4645 272.932 66.2039C273.021 66.7363 273.701 66.618 273.642 67.3574C273.553 68.156 272.725 68.2447 272.193 68.3334C270.329 68.6292 268.348 67.8898 266.573 67.3574C267.224 71.7051 260.569 67.6236 259.238 66.6771C259.12 67.6236 260.362 68.5404 259.534 69.339C258.706 70.1967 257.138 68.4813 256.517 67.9489C254.358 66.0856 252.495 63.6012 251.401 60.7027C251.193 60.1703 250.099 57.7746 251.016 57.6859C251.667 57.5972 273.494 55.1719 273.701 55.0832C274.293 54.7874 274.766 54.3733 275.121 53.7227Z" fill="#7F4D16"/>
<path d="M277.369 55.083C277.29 55.2013 277.211 55.3098 277.132 55.4084C277.27 55.3098 277.349 55.2013 277.369 55.083Z" fill="#9D5D1A"/>
<path d="M275.21 53.5746C274.884 53.4563 274.529 53.338 274.174 53.2197C273.997 53.4563 273.849 53.6338 273.849 53.7817C273.79 54.5507 274.5 54.1662 275.21 53.5746Z" fill="#9D5D1A"/>
<path d="M274.027 49.7593C273.524 49.7593 272.962 49.7889 272.489 49.7889C272.015 50.7057 271.513 51.6226 271.039 52.5395C271.66 52.924 272.962 51.3268 274.027 49.7593Z" fill="#9D5D1A"/>
<path d="M271.217 48.1619C271.197 48.1422 271.158 48.1126 271.098 48.0732C270.862 47.9253 270.33 47.9253 269.768 47.9253C269.59 48.3788 269.422 48.8323 269.265 49.2858C268.999 49.9365 268.318 51.1195 269.531 50.7055C270.211 50.4393 270.832 49.0196 271.217 48.1619Z" fill="#9D5D1A"/>
<path d="M264.118 49.5522C264.325 49.7889 266.218 51.8296 268.792 54.7873C267.194 52.3324 265.42 50.617 264.118 49.5522Z" fill="#9D5D1A"/>
<path d="M250.898 54.8763C250.898 56.5622 250.957 58.81 251.755 59.4015C251.903 59.3424 251.726 58.8987 251.874 58.8987C252.495 58.8396 253.293 61.2057 253.619 61.6789C254.21 62.6549 255.038 63.5126 255.896 64.2521C257.434 65.583 258.795 65.9675 259.268 63.6014C260.037 64.0154 262.048 65.6421 262.995 65.0506C264 64.3999 262.935 63.3648 264.592 63.7197C265.449 63.9267 266.632 65.1394 267.52 64.3408C267.963 63.9859 267.461 63.1873 267.963 62.9211C268.17 62.8324 268.939 63.1282 269.176 63.1873C269.679 63.276 271.305 62.3887 271.986 62.2409C272.005 62.2211 272.015 62.2113 272.015 62.2113C272.784 62.0338 274.529 62.8915 274.559 61.6198C274.559 61.5606 274.559 61.5113 274.559 61.4719C274.5 60.4367 272.696 60.2001 274.381 59.8452C275.387 59.6381 276.511 59.8747 276.481 58.4551C276.333 58.3663 276.008 58.1889 275.653 57.9819C274.648 58.3663 273.553 58.7213 272.4 59.017C271.128 57.4791 269.915 56.0594 268.791 54.7876C269.768 56.296 270.507 57.834 271.069 59.3128C265.331 60.555 258.085 60.2297 250.898 54.8763Z" fill="#9D5D1A"/>
<path d="M267.993 78.7742C265.982 77.7095 265.272 76.9109 264.414 78.9221C264.118 79.5728 263.734 79.3362 263.468 78.9813C263.202 78.6263 263.202 78.2123 262.728 78.7742C265.42 88.8302 264.03 87.588 255.216 90.871C254.979 90.9597 254.506 91.0189 254.506 91.4329C254.506 91.847 255.364 92.2907 255.837 92.2907C256.783 92.2907 257.493 91.8766 258.114 91.1668C260.244 91.4034 262.965 91.4034 264.976 91.5512C266.987 91.7287 269.56 92.2019 271.069 91.1668C271.631 90.7527 270.803 90.7527 270.803 90.4569C269.501 90.7527 266.721 89.6879 266.366 88.8302C265.538 86.819 266.455 86.2275 266.839 84.3642C267.135 82.8558 267.756 80.4601 267.993 78.7742Z" fill="#E6BB5C"/>
<path d="M261.309 77.3839C259.357 76.1713 258.706 75.3136 257.7 77.2656C257.375 77.8867 257.02 77.6205 256.754 77.236C256.517 76.8811 256.547 76.4671 256.044 76.9699C258.085 87.2329 256.813 85.9019 247.763 88.5934C247.526 88.6526 247.023 88.6821 247.023 89.0962C246.994 89.5398 247.822 90.0131 248.295 90.0426C249.241 90.1018 249.981 89.7469 250.632 89.0666C252.761 89.4511 255.453 89.6286 257.464 89.8948C259.475 90.1905 261.989 90.8412 263.586 89.8948C264.178 89.5398 263.32 89.4511 263.379 89.1849C262.048 89.392 259.327 88.1498 259.031 87.2625C258.351 85.2217 259.268 84.6893 259.771 82.8556C260.185 81.3768 260.954 79.0698 261.309 77.3839Z" fill="#E6BB5C"/>
<path d="M246.964 89.5395C247.23 89.2141 247.496 88.8888 247.763 88.5635C246.964 88.4156 246.106 88.3268 245.426 88.7705C244.923 89.0663 245.189 89.4508 245.633 89.4803C246.077 89.5395 246.52 89.5099 246.964 89.5395Z" fill="#E6BB5C"/>
<path d="M263.379 89.2143C263.468 89.3622 263.556 89.7762 263.675 89.865C263.882 89.9833 264.74 90.1312 264.68 89.7762C264.621 89.0664 263.911 89.1847 263.379 89.2143Z" fill="#E6BB5C"/>
<path d="M265.982 48.0145C266.692 47.9258 267.401 47.8666 268.111 47.9849C268.466 48.0441 271.365 48.6652 271.808 49.1088C272.045 49.3455 273.139 52.1256 272.666 52.6284C273.139 52.8946 273.819 55.6157 273.849 56.6213C273.849 56.917 274.855 57.5085 275.653 57.9818C278.404 56.917 280.504 55.6748 281.657 54.9354C281.598 53.8706 281.657 52.8651 281.716 51.6524C281.805 49.9961 280.918 48.6652 281.154 47.0089C281.421 45.2935 281.302 44.3175 280.681 42.6908C280.119 41.1824 279.942 38.8162 278.936 37.5445C278.315 36.7755 277.31 36.805 276.511 36.2431C275.446 35.4445 274.943 33.2559 273.435 33.1376C272.459 33.0784 271.867 33.9657 271.424 34.7051C269.856 37.5149 269.975 40.8866 268.851 43.8442C268.259 45.4414 267.254 46.8906 265.982 48.0145Z" fill="#52381E"/>
<path d="M277.132 55.4085C276.619 56.1184 276.077 56.8085 275.505 57.4789C276.57 57.0648 277.576 56.4733 278.345 55.6747C278.729 55.2902 280.031 53.8114 280.001 53.2199C279.883 51.5044 278.256 53.9001 277.96 54.255C277.763 54.5311 277.566 54.8071 277.369 55.0832C277.29 55.2015 277.211 55.3099 277.132 55.4085Z" fill="#7F4D16"/>
<path d="M273.849 53.7817C273.79 54.5507 274.5 54.1662 275.21 53.5747C275.949 52.9832 276.688 52.1846 276.836 52.0071C277.96 50.7353 278.7 49.4931 279.321 47.9256C279.232 45.5003 277.132 48.9608 276.836 49.4931C276.304 50.3509 275.831 51.2677 275.239 52.0959C275.062 52.3325 274.529 52.8057 274.174 53.2198C273.997 53.4564 273.849 53.6338 273.849 53.7817Z" fill="#7F4D16"/>
<path d="M272.489 49.7889C272.015 50.7058 272.962 51.3269 274.027 49.7593C274.736 48.7242 275.357 47.6594 275.594 47.2749C276.215 46.2102 278.345 42.8976 277.191 41.6554C275.831 40.147 274.825 44.8792 274.559 45.5595C273.967 46.9791 273.228 48.3988 272.489 49.7889Z" fill="#7F4D16"/>
<path d="M271.217 48.1625C271.394 48.1034 271.394 47.7781 271.424 47.7189C272.814 45.1458 273.819 42.5134 274.204 39.5854C274.234 38.7277 274.115 37.2488 272.784 37.7812C271.838 38.1657 271.897 40.029 271.749 40.798C271.069 44.6429 269.265 47.6893 269.768 47.9259C269.945 48.0147 270.241 47.6893 270.655 47.8372C270.951 47.9555 271.069 48.2217 271.217 48.1625Z" fill="#7F4D16"/>
<path d="M235.902 32.2797C236.169 33.8472 236.76 35.5922 237.677 37.6034C238.091 37.633 238.476 37.7217 238.801 37.9583C239.747 38.5794 239.333 39.2893 238.919 40.0878C242.705 47.0974 246.787 51.8297 250.898 54.876C250.898 54.2549 250.898 53.693 250.868 53.3381C250.691 51.0607 250.572 49.641 252.465 48.1326C253.027 47.689 253.56 47.3932 254.092 47.1862C251.755 44.7017 250.572 41.1526 248.916 38.2541C247.142 35.1486 245.189 32.7824 241.995 31.0966C239.895 30.0023 237.411 30.5642 235.902 32.2797Z" fill="#D57D1D"/>
<path d="M239.629 67.5349C241.197 70.3743 243.208 72.977 245.692 75.0769C248.354 77.2656 251.253 78.4191 254.388 79.7204C255.246 80.0458 256.015 80.4303 256.695 81.0809C257.227 81.5837 257.493 82.2048 258.233 82.4415C259.534 82.826 261.664 81.9978 262.995 81.7908C264.473 81.5542 266.573 81.6133 267.697 80.4598C268.732 79.3951 269.324 77.9163 270.418 76.7924C271.69 75.5501 273.11 74.4558 274.234 73.0361C274.234 73.0361 246.55 80.7556 236.021 48.7539C235.015 55.1128 236.612 61.945 239.629 67.5349Z" fill="#C8761B"/>
<path d="M252.465 48.1328C253.027 47.6891 253.56 47.3933 254.092 47.1863C256.517 46.2694 258.617 48.3989 262.521 48.1328C264.089 48.0145 264.592 47.6004 266.692 47.63C267.993 47.63 269.058 47.8074 269.768 47.9257C269.975 47.8961 270.27 47.8666 270.655 47.837C272.163 47.7483 274.056 48.1032 274.115 48.6356C274.145 48.8722 273.879 49.2271 272.489 49.789C273.001 49.7693 273.514 49.7595 274.027 49.7595C274.529 49.789 275.003 49.8778 275.328 50.144C276.895 51.534 273.642 53.072 274.174 53.2199C274.529 53.3382 274.874 53.4565 275.21 53.5748C275.772 53.7523 276.274 53.9297 276.718 54.1959C277.25 54.5213 277.457 54.817 277.369 55.0832C277.29 55.2015 277.211 55.31 277.132 55.4086C276.974 55.5466 276.738 55.6649 276.422 55.7635C275.831 55.9409 273.82 55.6156 273.849 56.6212C273.849 56.917 274.855 57.5085 275.653 57.9817C274.648 58.3662 273.553 58.7211 272.4 59.0169C271.966 59.1352 271.522 59.2338 271.069 59.3126C265.331 60.5549 258.085 60.2295 250.898 54.8762C250.898 54.2551 250.898 53.6931 250.868 53.3382C250.691 51.0608 250.572 49.6412 252.465 48.1328Z" fill="#A9631A"/>
<path d="M239.984 35.8288C238.831 35.8288 238.831 34.0542 239.984 34.0542C241.138 34.0542 241.138 35.8288 239.984 35.8288Z" fill="#211915"/>
<defs>
<linearGradient id="paint0_linear_490_2244" x1="165.743" y1="39.9999" x2="165.743" y2="121.931" gradientUnits="userSpaceOnUse">
<stop stop-color="#F8A556" stop-opacity="0.6"/>
<stop offset="1" stop-color="#F8A556" stop-opacity="0"/>
</linearGradient>
<linearGradient id="paint1_linear_490_2244" x1="161.757" y1="40.0002" x2="161.757" y2="121.931" gradientUnits="userSpaceOnUse">
<stop stop-color="#F8A556" stop-opacity="0.43"/>
<stop offset="1" stop-color="#F8A556" stop-opacity="0"/>
</linearGradient>
</defs>
</svg>
