<svg width="172" height="172" viewBox="0 0 172 172" fill="none" xmlns="http://www.w3.org/2000/svg">
<path d="M76.6276 161.139H76.5963C75.0074 161.076 73.3958 160.961 71.8055 160.796C70.5428 160.666 69.2688 160.501 68.0176 160.308C67.8153 160.274 67.6345 160.162 67.5144 159.996C67.3942 159.83 67.3444 159.623 67.3758 159.421C67.4072 159.218 67.5172 159.036 67.6819 158.914C67.8467 158.792 68.0529 158.74 68.2559 158.769C69.4817 158.957 70.7301 159.119 71.9672 159.247C73.5277 159.409 75.1025 159.521 76.6602 159.583C76.8671 159.587 77.064 159.673 77.2076 159.822C77.3511 159.971 77.4295 160.171 77.4256 160.378C77.4216 160.585 77.3356 160.782 77.1865 160.926C77.0374 161.069 76.8373 161.148 76.6304 161.144L76.6276 161.139ZM85.1552 160.99C84.9483 160.998 84.7468 160.923 84.595 160.782C84.4432 160.642 84.3536 160.446 84.3459 160.239C84.3382 160.032 84.413 159.831 84.5539 159.679C84.6947 159.527 84.8901 159.438 85.0971 159.43C87.9064 159.218 90.7011 158.845 93.4673 158.311C93.6687 158.275 93.8762 158.32 94.0448 158.435C94.2134 158.551 94.3297 158.729 94.3684 158.93C94.4072 159.131 94.3654 159.339 94.252 159.509C94.1386 159.679 93.9627 159.798 93.7624 159.84C90.939 160.385 88.0865 160.767 85.2191 160.983L85.1552 160.99ZM59.7949 158.53C59.7249 158.53 59.6552 158.521 59.5878 158.502C56.8149 157.74 54.0884 156.818 51.4218 155.741C51.3226 155.706 51.2316 155.652 51.1541 155.58C51.0767 155.509 51.0144 155.423 50.9712 155.327C50.9279 155.231 50.9046 155.127 50.9025 155.022C50.9004 154.917 50.9197 154.813 50.9591 154.715C50.9985 154.618 51.0573 154.529 51.1318 154.455C51.2064 154.381 51.2953 154.322 51.393 154.283C51.4907 154.244 51.5953 154.226 51.7005 154.228C51.8057 154.231 51.9092 154.255 52.0049 154.299C54.6159 155.353 57.2856 156.256 60.0006 157.003C60.1819 157.053 60.3388 157.167 60.4424 157.324C60.546 157.481 60.5893 157.67 60.5642 157.857C60.5391 158.043 60.4474 158.214 60.306 158.338C60.1646 158.463 59.983 158.531 59.7949 158.532V158.53ZM101.876 157.753C101.69 157.753 101.511 157.686 101.37 157.565C101.229 157.444 101.136 157.277 101.107 157.093C101.079 156.91 101.117 156.722 101.215 156.564C101.313 156.406 101.463 156.289 101.64 156.232C104.324 155.38 106.956 154.375 109.524 153.22C109.618 153.172 109.721 153.144 109.826 153.136C109.931 153.129 110.037 153.143 110.137 153.178C110.236 153.213 110.328 153.268 110.406 153.34C110.484 153.411 110.546 153.498 110.589 153.594C110.633 153.69 110.656 153.794 110.658 153.9C110.66 154.005 110.64 154.11 110.6 154.208C110.56 154.306 110.501 154.394 110.426 154.469C110.35 154.543 110.261 154.601 110.162 154.639C107.54 155.818 104.852 156.846 102.111 157.716C102.035 157.742 101.955 157.756 101.874 157.757L101.876 157.753Z" fill="#F47B20"/>
<path d="M151.638 70.1467C151.462 70.1466 151.292 70.0873 151.154 69.9784C151.017 69.8695 150.92 69.7173 150.88 69.5466C150.235 66.8071 149.432 64.1071 148.475 61.4601C148.413 61.268 148.428 61.0593 148.517 60.878C148.606 60.6968 148.762 60.5571 148.952 60.4885C149.142 60.4199 149.351 60.4276 149.535 60.5102C149.719 60.5927 149.864 60.7436 149.939 60.931C150.919 63.6359 151.741 66.3951 152.402 69.1948C152.429 69.3091 152.43 69.428 152.404 69.5426C152.378 69.6571 152.327 69.7644 152.254 69.8563C152.181 69.9483 152.088 70.0226 151.982 70.0736C151.877 70.1246 151.761 70.1511 151.643 70.151L151.638 70.1467ZM145.851 54.1326C145.706 54.1334 145.565 54.0939 145.441 54.0188C145.318 53.9436 145.218 53.8357 145.153 53.707C143.896 51.1875 142.497 48.7419 140.961 46.3824C140.905 46.2967 140.866 46.2008 140.847 46.1003C140.829 45.9997 140.83 45.8964 140.851 45.7963C140.872 45.6962 140.912 45.6012 140.97 45.5167C141.028 45.4323 141.102 45.3601 141.188 45.3042C141.273 45.2483 141.369 45.2098 141.47 45.191C141.57 45.1722 141.674 45.1733 141.774 45.1944C141.874 45.2155 141.969 45.2561 142.053 45.3138C142.138 45.3716 142.21 45.4455 142.266 45.5312C143.834 47.9411 145.263 50.4387 146.546 53.0119C146.605 53.1306 146.633 53.2625 146.627 53.395C146.621 53.5275 146.581 53.6563 146.511 53.7691C146.442 53.8819 146.344 53.9751 146.228 54.0397C146.112 54.1043 145.982 54.1382 145.849 54.1383L145.851 54.1326ZM136.558 39.8607C136.444 39.8607 136.33 39.8353 136.226 39.7862C136.123 39.7372 136.031 39.6657 135.958 39.577C134.162 37.4113 132.243 35.3499 130.211 33.4029C130.068 33.2586 129.987 33.0641 129.985 32.8608C129.984 32.6576 130.062 32.4618 130.202 32.3152C130.343 32.1685 130.535 32.0827 130.739 32.076C130.942 32.0693 131.139 32.1422 131.289 32.2793C133.364 34.2702 135.324 36.378 137.159 38.5924C137.253 38.7062 137.313 38.8445 137.332 38.9913C137.351 39.138 137.328 39.2871 137.265 39.421C137.202 39.555 137.102 39.6683 136.978 39.7476C136.853 39.827 136.708 39.8692 136.56 39.8692L136.558 39.8607ZM124.264 28.0729C124.094 28.0728 123.929 28.017 123.795 27.914C121.553 26.213 119.215 24.6423 116.793 23.2096C116.618 23.1035 116.491 22.9322 116.441 22.7331C116.39 22.534 116.421 22.3231 116.526 22.1464C116.63 21.9696 116.8 21.8413 116.999 21.7894C117.198 21.7374 117.409 21.766 117.586 21.869C120.061 23.3336 122.448 24.9394 124.738 26.6783C124.868 26.777 124.963 26.9139 125.011 27.0697C125.059 27.2255 125.057 27.3924 125.005 27.5468C124.953 27.7013 124.853 27.8356 124.721 27.9307C124.589 28.0258 124.43 28.0771 124.267 28.0771L124.264 28.0729Z" fill="#F47B20"/>
<path d="M7.5555 104.791C7.38154 104.791 7.21271 104.732 7.07592 104.624C6.93914 104.517 6.84227 104.367 6.80076 104.198C6.1176 101.405 5.59655 98.5745 5.24021 95.7213C5.22044 95.5194 5.28022 95.3177 5.40682 95.1592C5.53343 95.0007 5.71688 94.8979 5.91814 94.8726C6.11941 94.8473 6.32261 94.9015 6.48452 95.0237C6.64644 95.1459 6.7543 95.3264 6.78515 95.5269C7.13641 98.3206 7.64893 101.092 8.32017 103.826C8.34834 103.941 8.35008 104.06 8.32524 104.176C8.30041 104.291 8.24965 104.4 8.1768 104.493C8.10396 104.585 8.01094 104.661 7.90477 104.712C7.79861 104.764 7.68209 104.791 7.56401 104.791H7.5555ZM5.42748 87.893C5.22213 87.893 5.0251 87.8119 4.87923 87.6674C4.73337 87.5228 4.65049 87.3265 4.64862 87.1212C4.64862 86.8904 4.64862 86.6597 4.64862 86.4289C4.64914 83.8228 4.78361 81.2184 5.05152 78.6261L5.06429 78.5055C5.07313 78.4025 5.10241 78.3022 5.15042 78.2106C5.19842 78.119 5.26419 78.0379 5.34389 77.9719C5.42359 77.906 5.51563 77.8566 5.61462 77.8267C5.71361 77.7967 5.81758 77.7867 5.92046 77.7974C6.02334 77.808 6.12308 77.8391 6.21384 77.8887C6.3046 77.9383 6.38457 78.0055 6.44908 78.0863C6.5136 78.1672 6.56136 78.26 6.58958 78.3595C6.61781 78.459 6.62594 78.5632 6.61349 78.6659L6.60073 78.7864C6.33816 81.3231 6.20604 83.8716 6.20491 86.4218C6.20491 86.6478 6.20491 86.8739 6.20491 87.0999C6.20585 87.2022 6.18663 87.3037 6.14835 87.3985C6.11007 87.4934 6.05348 87.5798 5.98181 87.6527C5.91015 87.7257 5.82481 87.7839 5.73067 87.8239C5.63653 87.8639 5.53543 87.8849 5.43315 87.8859L5.42748 87.893ZM7.20934 70.9553C7.09271 70.9553 6.97757 70.9291 6.87242 70.8787C6.76726 70.8283 6.67478 70.7549 6.60179 70.6639C6.5288 70.5729 6.47718 70.4667 6.45072 70.3532C6.42426 70.2396 6.42365 70.1215 6.44893 70.0076C7.07359 67.2002 7.85942 64.4311 8.80252 61.714C8.87364 61.5234 9.01655 61.3682 9.20065 61.2815C9.38476 61.1949 9.59545 61.1838 9.78767 61.2505C9.97989 61.3172 10.1384 61.4565 10.2292 61.6386C10.32 61.8207 10.336 62.0311 10.2737 62.2248C9.35038 64.8856 8.58113 67.5974 7.96975 70.3467C7.93093 70.5185 7.83503 70.6721 7.6977 70.7824C7.56037 70.8926 7.38972 70.9531 7.2136 70.9539L7.20934 70.9553ZM12.8046 54.8646C12.6728 54.8646 12.5431 54.831 12.4277 54.7672C12.3124 54.7033 12.2151 54.6112 12.1451 54.4995C12.075 54.3878 12.0345 54.2601 12.0273 54.1284C12.0201 53.9968 12.0464 53.8654 12.1038 53.7467C13.3565 51.1579 14.7576 48.6436 16.3003 46.2164C16.4142 46.0492 16.5887 45.9329 16.7868 45.8921C16.9849 45.8513 17.1912 45.8892 17.3619 45.9978C17.5326 46.1063 17.6543 46.2771 17.7014 46.4738C17.7484 46.6706 17.7171 46.8779 17.614 47.052C16.1016 49.4297 14.7279 51.8929 13.4998 54.4291C13.4359 54.5592 13.337 54.6689 13.2142 54.7458C13.0914 54.8227 12.9495 54.8639 12.8046 54.8646ZM21.9395 40.4962C21.7926 40.4959 21.6488 40.4541 21.5246 40.3756C21.4005 40.2971 21.3011 40.185 21.2379 40.0524C21.1747 39.9198 21.1503 39.772 21.1675 39.6261C21.1847 39.4802 21.2428 39.3422 21.3352 39.2279C23.1477 36.9957 25.0864 34.8689 27.1418 32.858C27.2142 32.783 27.3008 32.7232 27.3967 32.6823C27.4926 32.6413 27.5957 32.62 27.7 32.6197C27.8042 32.6193 27.9075 32.6399 28.0036 32.6802C28.0998 32.7205 28.1869 32.7796 28.2597 32.8542C28.3326 32.9288 28.3897 33.0172 28.4278 33.1143C28.4658 33.2113 28.484 33.315 28.4812 33.4193C28.4784 33.5235 28.4548 33.6261 28.4116 33.721C28.3684 33.8159 28.3067 33.9011 28.2299 33.9717C26.2171 35.9423 24.3186 38.0264 22.5439 40.2139C22.4704 40.3029 22.378 40.3744 22.2735 40.4232C22.169 40.472 22.0549 40.497 21.9395 40.4962ZM34.116 28.5793C33.9539 28.5792 33.7958 28.5284 33.6639 28.4341C33.5319 28.3398 33.4327 28.2066 33.3801 28.0533C33.3274 27.8999 33.324 27.7339 33.3702 27.5784C33.4165 27.423 33.51 27.2859 33.638 27.1862C35.9103 25.4241 38.2815 23.7933 40.7399 22.3016C40.9159 22.2044 41.1227 22.1791 41.317 22.2309C41.5113 22.2827 41.678 22.4076 41.7823 22.5795C41.8866 22.7514 41.9203 22.957 41.8765 23.1532C41.8327 23.3495 41.7146 23.5212 41.5471 23.6324C39.1408 25.0929 36.8198 26.6896 34.5956 28.4147C34.4587 28.5218 34.2898 28.5798 34.116 28.5793Z" fill="#F47B20"/>
<path d="M133.708 91.9519C136.806 62.0233 115.055 35.2498 85.1266 32.1517C55.1979 29.0536 28.4245 50.804 25.3264 80.7327C22.2282 110.661 43.9787 137.435 73.9074 140.533C103.836 143.631 130.61 121.881 133.708 91.9519Z" fill="#FBBF78"/>
<path d="M82.194 81.7797C82.0574 81.7794 81.9234 81.7432 81.8053 81.6747L54.1807 65.7316C54.0625 65.6632 53.9644 65.5649 53.8962 65.4466C53.828 65.3284 53.792 65.1942 53.792 65.0577V33.1587C53.792 33.0221 53.828 32.888 53.8962 32.7697C53.9644 32.6514 54.0625 32.5532 54.1807 32.4848L81.8053 16.536C81.9236 16.4675 82.058 16.4314 82.1947 16.4314C82.3314 16.4314 82.4658 16.4675 82.5841 16.536L110.209 32.4848C110.327 32.5532 110.425 32.6514 110.493 32.7697C110.561 32.888 110.597 33.0221 110.597 33.1587V65.0563C110.597 65.1928 110.561 65.327 110.493 65.4452C110.425 65.5635 110.327 65.6618 110.209 65.7302L82.5827 81.6804C82.4641 81.7469 82.33 81.7812 82.194 81.7797ZM55.3483 64.6137L82.194 80.1127L109.04 64.6137V33.6084L82.194 18.1093L55.3483 33.6084V64.6137Z" fill="#F47B20"/>
<path d="M109.818 65.9896C109.68 65.9896 109.545 65.9529 109.426 65.8832L54.1787 33.7189C54.0857 33.6699 54.0036 33.6027 53.9373 33.5212C53.871 33.4396 53.8219 33.3455 53.7929 33.2445C53.7639 33.1435 53.7557 33.0377 53.7687 32.9334C53.7817 32.8292 53.8156 32.7286 53.8685 32.6378C53.9214 32.547 53.9921 32.4678 54.0763 32.4051C54.1606 32.3423 54.2567 32.2972 54.3589 32.2726C54.461 32.2479 54.5671 32.2442 54.6707 32.2616C54.7743 32.2791 54.8734 32.3173 54.9618 32.374L110.211 64.5383C110.359 64.6247 110.474 64.7572 110.539 64.9156C110.604 65.0739 110.615 65.2492 110.57 65.4144C110.525 65.5795 110.427 65.7253 110.291 65.8293C110.155 65.9333 109.989 65.9897 109.818 65.9896Z" fill="#F47B20"/>
<path d="M54.5709 65.9898C54.3998 65.9898 54.2334 65.9334 54.0975 65.8294C53.9617 65.7255 53.8638 65.5796 53.8191 65.4145C53.7743 65.2493 53.7853 65.074 53.8501 64.9157C53.915 64.7573 54.0302 64.6248 54.1779 64.5384L109.427 32.3741C109.605 32.2806 109.812 32.2592 110.005 32.3146C110.198 32.37 110.362 32.4978 110.463 32.6714C110.564 32.8449 110.594 33.0508 110.547 33.246C110.5 33.4412 110.379 33.6107 110.21 33.719L54.961 65.8904C54.842 65.9574 54.7074 65.9916 54.5709 65.9898Z" fill="#F47B20"/>
<path d="M82.1957 81.7797C81.9891 81.7797 81.791 81.6977 81.6449 81.5516C81.4989 81.4055 81.4168 81.2074 81.4168 81.0009V17.2098C81.4168 17.0029 81.499 16.8044 81.6454 16.6581C81.7917 16.5118 81.9901 16.4296 82.1971 16.4296C82.404 16.4296 82.6025 16.5118 82.7488 16.6581C82.8951 16.8044 82.9774 17.0029 82.9774 17.2098V81.0065C82.9759 81.2126 82.8927 81.4097 82.7462 81.5546C82.5997 81.6995 82.4017 81.7805 82.1957 81.7797Z" fill="#F47B20"/>
<path d="M82.1943 22.0192C84.8505 22.0192 87.0037 19.866 87.0037 17.2098C87.0037 14.5537 84.8505 12.4005 82.1943 12.4005C79.5382 12.4005 77.385 14.5537 77.385 17.2098C77.385 19.866 79.5382 22.0192 82.1943 22.0192Z" fill="#FEEFD2"/>
<path d="M82.1946 22.798C81.0894 22.798 80.009 22.4703 79.09 21.8562C78.171 21.2422 77.4548 20.3694 77.0318 19.3483C76.6089 18.3272 76.4982 17.2036 76.7138 16.1196C76.9294 15.0356 77.4617 14.0399 78.2432 13.2584C79.0247 12.4769 80.0204 11.9446 81.1044 11.729C82.1884 11.5134 83.312 11.6241 84.3331 12.047C85.3542 12.47 86.227 13.1862 86.841 14.1052C87.4551 15.0242 87.7828 16.1046 87.7828 17.2098C87.7813 18.6914 87.1921 20.112 86.1444 21.1596C85.0968 22.2073 83.6763 22.7965 82.1946 22.798ZM82.1946 13.1794C81.3975 13.1794 80.6182 13.4157 79.9554 13.8586C79.2926 14.3015 78.776 14.931 78.471 15.6674C78.1659 16.4039 78.0861 17.2143 78.2416 17.9961C78.3971 18.778 78.781 19.4961 79.3447 20.0598C79.9083 20.6235 80.6265 21.0073 81.4083 21.1629C82.1902 21.3184 83.0006 21.2386 83.737 20.9335C84.4735 20.6284 85.103 20.1118 85.5459 19.449C85.9887 18.7862 86.2251 18.007 86.2251 17.2098C86.224 16.1412 85.799 15.1167 85.0434 14.3611C84.2877 13.6055 83.2632 13.1805 82.1946 13.1794Z" fill="#F47B20"/>
<path d="M109.819 37.8557C112.475 37.8557 114.628 35.7025 114.628 33.0464C114.628 30.3903 112.475 28.2371 109.819 28.2371C107.163 28.2371 105.01 30.3903 105.01 33.0464C105.01 35.7025 107.163 37.8557 109.819 37.8557Z" fill="#FDDAA5"/>
<path d="M109.819 38.6346C108.714 38.6346 107.634 38.3068 106.715 37.6928C105.796 37.0787 105.08 36.206 104.657 35.1849C104.234 34.1638 104.123 33.0402 104.339 31.9562C104.554 30.8722 105.087 29.8765 105.868 29.0949C106.65 28.3134 107.645 27.7812 108.729 27.5656C109.813 27.3499 110.937 27.4606 111.958 27.8836C112.979 28.3065 113.852 29.0228 114.466 29.9417C115.08 30.8607 115.408 31.9411 115.408 33.0464C115.406 34.528 114.817 35.9485 113.769 36.9962C112.722 38.0438 111.301 38.6331 109.819 38.6346ZM109.819 29.0159C109.022 29.0159 108.243 29.2523 107.58 29.6952C106.917 30.138 106.401 30.7675 106.096 31.504C105.791 32.2405 105.711 33.0508 105.866 33.8327C106.022 34.6145 106.406 35.3327 106.97 35.8964C107.533 36.46 108.251 36.8439 109.033 36.9994C109.815 37.1549 110.625 37.0751 111.362 36.7701C112.098 36.465 112.728 35.9484 113.171 35.2856C113.614 34.6228 113.85 33.8435 113.85 33.0464C113.849 31.9778 113.424 30.9533 112.668 30.1976C111.913 29.442 110.888 29.017 109.819 29.0159Z" fill="#F47B20"/>
<path d="M109.819 70.0203C112.475 70.0203 114.628 67.8671 114.628 65.211C114.628 62.5549 112.475 60.4017 109.819 60.4017C107.163 60.4017 105.01 62.5549 105.01 65.211C105.01 67.8671 107.163 70.0203 109.819 70.0203Z" fill="#FDDAA5"/>
<path d="M109.819 70.7992C108.714 70.7992 107.634 70.4714 106.715 69.8574C105.796 69.2434 105.08 68.3706 104.657 67.3495C104.234 66.3284 104.123 65.2048 104.339 64.1208C104.554 63.0368 105.087 62.0411 105.868 61.2595C106.65 60.478 107.645 59.9458 108.729 59.7302C109.813 59.5146 110.937 59.6252 111.958 60.0482C112.979 60.4711 113.852 61.1874 114.466 62.1064C115.08 63.0253 115.408 64.1058 115.408 65.211C115.406 66.6926 114.817 68.1131 113.769 69.1608C112.722 70.2084 111.301 70.7977 109.819 70.7992ZM109.819 61.1805C109.022 61.1805 108.243 61.4169 107.58 61.8598C106.917 62.3027 106.401 62.9321 106.096 63.6686C105.791 64.4051 105.711 65.2155 105.866 65.9973C106.022 66.7791 106.406 67.4973 106.97 68.061C107.533 68.6246 108.251 69.0085 109.033 69.164C109.815 69.3195 110.625 69.2397 111.362 68.9347C112.098 68.6296 112.728 68.113 113.171 67.4502C113.614 66.7874 113.85 66.0082 113.85 65.211C113.849 64.1424 113.424 63.1179 112.668 62.3623C111.913 61.6066 110.888 61.1816 109.819 61.1805Z" fill="#F47B20"/>
<path d="M82.1919 85.816C84.848 85.816 87.0012 83.6628 87.0012 81.0067C87.0012 78.3506 84.848 76.1974 82.1919 76.1974C79.5358 76.1974 77.3826 78.3506 77.3826 81.0067C77.3826 83.6628 79.5358 85.816 82.1919 85.816Z" fill="#FEEFD2"/>
<path d="M82.1946 86.5931C81.0894 86.5931 80.009 86.2653 79.09 85.6513C78.171 85.0373 77.4548 84.1645 77.0318 83.1434C76.6089 82.1223 76.4982 80.9987 76.7138 79.9147C76.9294 78.8307 77.4617 77.835 78.2432 77.0534C79.0247 76.2719 80.0204 75.7397 81.1044 75.5241C82.1884 75.3084 83.312 75.4191 84.3331 75.8421C85.3542 76.265 86.227 76.9813 86.841 77.9002C87.4551 78.8192 87.7828 79.8996 87.7828 81.0049C87.7813 82.4865 87.1921 83.907 86.1444 84.9547C85.0968 86.0023 83.6762 86.5916 82.1946 86.5931ZM82.1946 76.9744C81.3975 76.9744 80.6182 77.2108 79.9554 77.6537C79.2926 78.0965 78.776 78.726 78.471 79.4625C78.1659 80.199 78.0861 81.0094 78.2416 81.7912C78.3971 82.573 78.781 83.2912 79.3447 83.8549C79.9083 84.4185 80.6265 84.8024 81.4083 84.9579C82.1902 85.1134 83.0006 85.0336 83.737 84.7286C84.4735 84.4235 85.103 83.9069 85.5458 83.2441C85.9887 82.5813 86.2251 81.802 86.2251 81.0049C86.224 79.9363 85.799 78.9118 85.0434 78.1561C84.2877 77.4005 83.2632 76.9755 82.1946 76.9744Z" fill="#F47B20"/>
<path d="M54.5695 70.0203C57.2256 70.0203 59.3788 67.8671 59.3788 65.211C59.3788 62.5549 57.2256 60.4017 54.5695 60.4017C51.9133 60.4017 49.7601 62.5549 49.7601 65.211C49.7601 67.8671 51.9133 70.0203 54.5695 70.0203Z" fill="#FDDAA5"/>
<path d="M54.5698 70.7992C53.4646 70.7992 52.3842 70.4714 51.4652 69.8574C50.5462 69.2434 49.83 68.3706 49.407 67.3495C48.984 66.3284 48.8734 65.2048 49.089 64.1208C49.3046 63.0368 49.8369 62.0411 50.6184 61.2595C51.3999 60.478 52.3956 59.9458 53.4796 59.7302C54.5636 59.5146 55.6872 59.6252 56.7083 60.0482C57.7294 60.4711 58.6022 61.1874 59.2162 62.1064C59.8303 63.0253 60.158 64.1058 60.158 65.211C60.1565 66.6926 59.5673 68.1131 58.5196 69.1608C57.4719 70.2084 56.0514 70.7977 54.5698 70.7992ZM54.5698 61.1805C53.7727 61.1805 52.9934 61.4169 52.3306 61.8598C51.6678 62.3027 51.1512 62.9321 50.8461 63.6686C50.5411 64.4051 50.4613 65.2155 50.6168 65.9973C50.7723 66.7791 51.1562 67.4973 51.7199 68.061C52.2835 68.6246 53.0017 69.0085 53.7835 69.164C54.5654 69.3195 55.3758 69.2397 56.1122 68.9347C56.8487 68.6296 57.4782 68.113 57.921 67.4502C58.3639 66.7874 58.6003 66.0082 58.6003 65.211C58.5992 64.1424 58.1742 63.1179 57.4185 62.3623C56.6629 61.6066 55.6384 61.1816 54.5698 61.1805Z" fill="#F47B20"/>
<path d="M54.5695 37.8557C57.2256 37.8557 59.3788 35.7025 59.3788 33.0464C59.3788 30.3903 57.2256 28.2371 54.5695 28.2371C51.9133 28.2371 49.7601 30.3903 49.7601 33.0464C49.7601 35.7025 51.9133 37.8557 54.5695 37.8557Z" fill="#FDDAA5"/>
<path d="M54.5698 38.6346C53.4646 38.6346 52.3842 38.3068 51.4652 37.6928C50.5462 37.0787 49.83 36.206 49.407 35.1849C48.984 34.1638 48.8734 33.0402 49.089 31.9562C49.3046 30.8722 49.8369 29.8765 50.6184 29.0949C51.3999 28.3134 52.3956 27.7812 53.4796 27.5656C54.5636 27.3499 55.6872 27.4606 56.7083 27.8836C57.7294 28.3065 58.6022 29.0228 59.2162 29.9417C59.8303 30.8607 60.158 31.9411 60.158 33.0464C60.1565 34.528 59.5673 35.9485 58.5196 36.9962C57.4719 38.0438 56.0514 38.6331 54.5698 38.6346ZM54.5698 29.0159C53.7727 29.0159 52.9934 29.2523 52.3306 29.6952C51.6678 30.138 51.1512 30.7675 50.8461 31.504C50.5411 32.2405 50.4613 33.0508 50.6168 33.8327C50.7723 34.6145 51.1562 35.3327 51.7199 35.8964C52.2835 36.46 53.0017 36.8439 53.7835 36.9994C54.5654 37.1549 55.3758 37.0751 56.1122 36.7701C56.8487 36.465 57.4782 35.9484 57.921 35.2856C58.3639 34.6228 58.6003 33.8435 58.6003 33.0464C58.5992 31.9778 58.1742 30.9533 57.4185 30.1976C56.6629 29.442 55.6384 29.017 54.5698 29.0159Z" fill="#F47B20"/>
<path d="M82.1958 65.3103C91.1326 65.3103 98.3773 58.0657 98.3773 49.1289C98.3773 40.1921 91.1326 32.9474 82.1958 32.9474C73.259 32.9474 66.0143 40.1921 66.0143 49.1289C66.0143 58.0657 73.259 65.3103 82.1958 65.3103Z" fill="#FDDAA5"/>
<path d="M82.1962 66.0892C78.8418 66.0892 75.5626 65.0945 72.7735 63.2309C69.9844 61.3672 67.8106 58.7184 66.5269 55.6193C65.2432 52.5202 64.9073 49.1101 65.5617 45.8201C66.2162 42.5301 67.8315 39.508 70.2034 37.1361C72.5754 34.7642 75.5974 33.1488 78.8874 32.4944C82.1774 31.84 85.5875 32.1759 88.6866 33.4596C91.7857 34.7432 94.4346 36.9171 96.2982 39.7062C98.1618 42.4953 99.1565 45.7744 99.1565 49.1289C99.1513 53.6254 97.3627 57.9363 94.1831 61.1158C91.0036 64.2954 86.6927 66.0839 82.1962 66.0892ZM82.1962 33.7248C79.1496 33.7248 76.1713 34.6283 73.6382 36.3209C71.105 38.0135 69.1306 40.4193 67.9647 43.234C66.7988 46.0487 66.4938 49.146 67.0881 52.134C67.6825 55.1221 69.1496 57.8669 71.3039 60.0212C73.4582 62.1755 76.2029 63.6426 79.191 64.2369C82.1791 64.8313 85.2763 64.5262 88.0911 63.3603C90.9058 62.1945 93.3116 60.2201 95.0042 57.6869C96.6968 55.1537 97.6002 52.1755 97.6002 49.1289C97.5953 45.0451 95.9708 41.13 93.083 38.2425C90.1952 35.3549 86.28 33.7307 82.1962 33.7262V33.7248Z" fill="#F47B20"/>
<path d="M76.2514 58.0467L77.7013 56.6422C77.7654 56.5812 77.8473 56.5423 77.9351 56.5311C78.0229 56.5198 78.1119 56.5369 78.1893 56.5798C78.6107 56.8061 79.0507 56.9959 79.5044 57.1473C79.5879 57.175 79.6604 57.2286 79.7115 57.3002C79.7625 57.3719 79.7893 57.458 79.7882 57.5459L79.7556 59.5647C79.7548 59.6117 79.7633 59.6583 79.7806 59.702C79.7979 59.7456 79.8236 59.7855 79.8562 59.8192C79.8889 59.8529 79.9279 59.8799 79.971 59.8985C80.0141 59.9172 80.0604 59.9272 80.1074 59.9279L83.9378 59.9889C83.9848 59.9897 84.0314 59.9811 84.0751 59.9639C84.1187 59.9466 84.1586 59.9209 84.1923 59.8882C84.226 59.8555 84.253 59.8165 84.2716 59.7735C84.2903 59.7304 84.3003 59.684 84.301 59.6371L84.3336 57.6183C84.3354 57.5296 84.3656 57.4439 84.4197 57.3737C84.4739 57.3034 84.5491 57.2524 84.6344 57.2281C85.0926 57.091 85.5383 56.9149 85.9665 56.7018C86.0452 56.6616 86.1347 56.6474 86.2219 56.6615C86.3091 56.6755 86.3896 56.717 86.4517 56.7799L87.8548 58.2297C87.9207 58.2978 88.0109 58.3369 88.1056 58.3385C88.2003 58.3401 88.2917 58.304 88.3599 58.2383L91.1078 55.5768C91.1759 55.5109 91.215 55.4207 91.2166 55.326C91.2181 55.2314 91.1821 55.1399 91.1164 55.0718L89.7119 53.6204C89.6509 53.5563 89.6119 53.4744 89.6007 53.3867C89.5895 53.2989 89.6065 53.2098 89.6494 53.1324C89.8757 52.711 90.0655 52.271 90.2169 51.8173C90.2446 51.7338 90.2982 51.6613 90.3699 51.6103C90.4415 51.5593 90.5276 51.5324 90.6156 51.5336L92.6343 51.5662C92.6813 51.5669 92.7279 51.5584 92.7716 51.5412C92.8153 51.5239 92.8551 51.4982 92.8888 51.4655C92.9225 51.4328 92.9495 51.3938 92.9682 51.3507C92.9868 51.3077 92.9968 51.2613 92.9975 51.2144L93.0585 47.3839C93.0593 47.337 93.0508 47.2903 93.0335 47.2467C93.0162 47.203 92.9905 47.1632 92.9578 47.1294C92.9252 47.0957 92.8862 47.0688 92.8431 47.0501C92.8 47.0315 92.7536 47.0215 92.7067 47.0207L90.6879 46.9881C90.5992 46.9863 90.5135 46.9562 90.4433 46.902C90.373 46.8479 90.322 46.7726 90.2978 46.6873C90.1606 46.2291 89.9845 45.7835 89.7714 45.3552C89.7312 45.2765 89.717 45.1871 89.7311 45.0998C89.7451 45.0126 89.7866 44.9321 89.8495 44.87L91.2994 43.4655C91.3674 43.3996 91.4065 43.3094 91.4081 43.2148C91.4097 43.1201 91.3736 43.0286 91.3079 42.9605L88.6478 40.2125C88.6146 40.1787 88.5749 40.1519 88.5312 40.1336C88.4875 40.1153 88.4406 40.1059 88.3932 40.1059C88.3458 40.1059 88.2989 40.1153 88.2552 40.1336C88.2114 40.1519 88.1718 40.1787 88.1385 40.2125L86.6887 41.617C86.6245 41.678 86.5426 41.7169 86.4549 41.7281C86.3671 41.7394 86.278 41.7223 86.2006 41.6794C85.7792 41.4532 85.3392 41.2633 84.8855 41.1119C84.802 41.0842 84.7295 41.0306 84.6785 40.959C84.6275 40.8873 84.6006 40.8012 84.6018 40.7133L84.6344 38.6945C84.6352 38.6475 84.6266 38.6009 84.6094 38.5572C84.5921 38.5136 84.5664 38.4738 84.5337 38.44C84.501 38.4063 84.462 38.3793 84.419 38.3607C84.3759 38.342 84.3295 38.3321 84.2826 38.3313L80.4521 38.2703C80.4052 38.2696 80.3585 38.2781 80.3149 38.2953C80.2712 38.3126 80.2314 38.3383 80.1976 38.371C80.1639 38.4037 80.137 38.4427 80.1183 38.4858C80.0997 38.5288 80.0897 38.5752 80.0889 38.6221L80.0563 40.6409C80.0545 40.7296 80.0244 40.8153 79.9702 40.8856C79.9161 40.9558 79.8408 41.0068 79.7556 41.0311C79.2973 41.1683 78.8517 41.3443 78.4234 41.5574C78.3447 41.5976 78.2553 41.6118 78.168 41.5978C78.0808 41.5837 78.0003 41.5423 77.9382 41.4794L76.5337 40.0295C76.4678 39.9615 76.3776 39.9224 76.283 39.9208C76.1883 39.9192 76.0968 39.9552 76.0287 40.021L73.2807 42.6824C73.2127 42.7483 73.1736 42.8385 73.172 42.9332C73.1704 43.0279 73.2064 43.1193 73.2722 43.1875L74.6767 44.6388C74.7377 44.7029 74.7766 44.7848 74.7878 44.8726C74.7991 44.9603 74.782 45.0494 74.7391 45.1268C74.5128 45.5482 74.323 45.9882 74.1716 46.4419C74.1439 46.5254 74.0903 46.5979 74.0187 46.6489C73.947 46.6999 73.8609 46.7268 73.773 46.7256L71.7542 46.693C71.7072 46.6923 71.6606 46.7008 71.6169 46.7181C71.5733 46.7353 71.5334 46.761 71.4997 46.7937C71.466 46.8264 71.439 46.8654 71.4204 46.9085C71.4017 46.9516 71.3917 46.9979 71.391 47.0449L71.33 50.8753C71.3293 50.9222 71.3378 50.9689 71.355 51.0125C71.3723 51.0562 71.398 51.096 71.4307 51.1298C71.4634 51.1635 71.5023 51.1904 71.5454 51.2091C71.5885 51.2278 71.6349 51.2377 71.6818 51.2385L73.7006 51.2711C73.7885 51.2716 73.8739 51.3001 73.9446 51.3524C74.0152 51.4047 74.0674 51.478 74.0936 51.5619C74.2308 52.0202 74.4069 52.4658 74.6199 52.8941C74.6602 52.9727 74.6743 53.0622 74.6603 53.1494C74.6463 53.2367 74.6048 53.3172 74.5419 53.3793L73.092 54.7838C73.024 54.8497 72.9849 54.9398 72.9833 55.0345C72.9817 55.1292 73.0177 55.2207 73.0835 55.2888L75.7449 58.0368C75.7775 58.0708 75.8164 58.098 75.8595 58.1169C75.9027 58.1358 75.9491 58.146 75.9961 58.1469C76.0432 58.1479 76.0899 58.1395 76.1337 58.1223C76.1776 58.1051 76.2175 58.0794 76.2514 58.0467ZM79.3001 51.9351C78.7454 51.3622 78.3729 50.6378 78.2299 49.8533C78.0869 49.0689 78.1796 48.2596 78.4965 47.5279C78.8134 46.7961 79.3401 46.1748 80.0101 45.7424C80.6801 45.31 81.4633 45.086 82.2606 45.0987C83.0579 45.1114 83.8335 45.3602 84.4894 45.8137C85.1453 46.2672 85.652 46.905 85.9454 47.6465C86.2388 48.3879 86.3058 49.1998 86.1378 49.9793C85.9699 50.7588 85.5745 51.471 85.0018 52.0258C84.2336 52.7696 83.2014 53.1779 82.1322 53.1608C81.063 53.1438 80.0443 52.7029 79.3001 51.9351Z" fill="#FEEFD2"/>
<path d="M83.9385 60.769H83.92L80.0896 60.708C79.9405 60.7056 79.7934 60.6739 79.6566 60.6146C79.5199 60.5553 79.3961 60.4697 79.2924 60.3626C79.1887 60.2555 79.1072 60.129 79.0524 59.9904C78.9976 59.8518 78.9706 59.7037 78.9731 59.5546L79.0014 57.7997C78.6752 57.6798 78.3559 57.5415 78.0453 57.3855L76.7855 58.6055C76.5685 58.8144 76.2779 58.9291 75.9768 58.9247C75.8277 58.9223 75.6805 58.8904 75.5437 58.831C75.4069 58.7716 75.2832 58.6858 75.1795 58.5786L72.5294 55.8334C72.4256 55.7264 72.3438 55.5999 72.2889 55.4612C72.234 55.3225 72.2069 55.1743 72.2093 55.0252C72.2116 54.876 72.2434 54.7288 72.3027 54.5919C72.362 54.455 72.4477 54.3312 72.555 54.2275L73.8148 53.0074C73.6689 52.6919 73.541 52.3684 73.4317 52.0385L71.6768 52.0101C71.5276 52.0079 71.3804 51.9763 71.2434 51.9171C71.1065 51.8579 70.9825 51.7723 70.8787 51.6652C70.7749 51.558 70.6932 51.4315 70.6383 51.2928C70.5834 51.1541 70.5564 51.0059 70.5589 50.8567L70.6199 47.0263C70.6221 46.8771 70.6537 46.7298 70.7129 46.5929C70.7721 46.4559 70.8577 46.332 70.9648 46.2282C71.0719 46.1243 71.1985 46.0427 71.3372 45.9878C71.4759 45.9329 71.6241 45.9059 71.7733 45.9083L73.5282 45.9367C73.6481 45.6104 73.7864 45.2912 73.9424 44.9805L72.7224 43.7207C72.6185 43.6137 72.5368 43.4872 72.4818 43.3485C72.4269 43.2098 72.3998 43.0616 72.4022 42.9125C72.4046 42.7633 72.4363 42.6161 72.4956 42.4792C72.555 42.3423 72.6407 42.2185 72.7479 42.1148L75.4959 39.4533C75.603 39.3495 75.7295 39.2677 75.8682 39.2128C76.0068 39.1579 76.155 39.1308 76.3041 39.1332C76.4533 39.1356 76.6005 39.1673 76.7374 39.2266C76.8743 39.2859 76.9981 39.3717 77.1018 39.4789L78.3219 40.7387C78.6374 40.5928 78.9609 40.4649 79.2909 40.3556L79.3192 38.6007C79.3239 38.2997 79.4479 38.0129 79.664 37.8034C79.7702 37.6983 79.8966 37.6158 80.0356 37.561C80.1746 37.5061 80.3232 37.48 80.4726 37.4842L84.3031 37.5452C84.4522 37.5474 84.5995 37.579 84.7364 37.6382C84.8734 37.6974 84.9973 37.783 85.1012 37.8901C85.205 37.9973 85.2867 38.1238 85.3415 38.2625C85.3964 38.4012 85.4234 38.5494 85.421 38.6986L85.3926 40.4535C85.7189 40.5735 86.0381 40.7118 86.3488 40.8678L87.6086 39.6477C87.7157 39.5438 87.8422 39.4621 87.9809 39.4072C88.1195 39.3522 88.2677 39.3252 88.4169 39.3275C88.566 39.3299 88.7132 39.3617 88.8501 39.421C88.987 39.4803 89.1108 39.566 89.2145 39.6732L91.876 42.4212C91.9798 42.5283 92.0616 42.6548 92.1165 42.7935C92.1715 42.9322 92.1985 43.0803 92.1961 43.2295C92.1938 43.3786 92.162 43.5259 92.1027 43.6627C92.0434 43.7996 91.9577 43.9235 91.8504 44.0272L90.5907 45.2487C90.7365 45.5642 90.8644 45.8877 90.9737 46.2176L92.7286 46.246C92.8778 46.2482 93.025 46.2798 93.162 46.339C93.2989 46.3982 93.4229 46.4838 93.5267 46.5909C93.6305 46.698 93.7122 46.8246 93.7671 46.9633C93.822 47.102 93.849 47.2502 93.8465 47.3994L93.7855 51.2298C93.7833 51.379 93.7517 51.5263 93.6925 51.6632C93.6333 51.8001 93.5477 51.9241 93.4406 52.0279C93.3335 52.1317 93.2069 52.2134 93.0682 52.2683C92.9295 52.3232 92.7813 52.3502 92.6321 52.3477L90.8772 52.3194C90.7572 52.6456 90.6189 52.9649 90.463 53.2756L91.683 54.5353C91.7869 54.6424 91.8686 54.7689 91.9236 54.9076C91.9785 55.0463 92.0056 55.1945 92.0032 55.3436C92.0008 55.4928 91.9691 55.64 91.9097 55.7769C91.8504 55.9137 91.7647 56.0376 91.6575 56.1413L88.8982 58.7971C88.6862 59.0021 88.4028 59.1166 88.108 59.1163H88.0895C87.9404 59.1138 87.7932 59.0819 87.6564 59.0225C87.5196 58.9631 87.3959 58.8774 87.2922 58.7701L86.0721 57.5103C85.7566 57.6562 85.4331 57.784 85.1032 57.8934L85.0748 59.6483C85.0711 59.9471 84.9497 60.2323 84.7369 60.4421C84.5242 60.652 84.2373 60.7694 83.9385 60.769ZM80.5421 59.1574L83.5214 59.2056L83.5469 57.6068C83.5509 57.3535 83.6356 57.1081 83.7887 56.9063C83.9418 56.7045 84.1553 56.5567 84.3981 56.4846C84.8139 56.3599 85.2182 56.1999 85.6068 56.0065C85.8339 55.892 86.0917 55.8532 86.3424 55.8959C86.5931 55.9385 86.8235 56.0603 87 56.2434L88.1122 57.3912L90.2544 55.317L89.1422 54.1693C88.9656 53.9868 88.8521 53.7526 88.8181 53.5009C88.7842 53.2492 88.8316 52.9933 88.9535 52.7705C89.1591 52.3882 89.3319 51.989 89.4699 51.5774C89.5484 51.3386 89.7005 51.1308 89.9044 50.9837C90.1083 50.8367 90.3535 50.7579 90.6048 50.7588H90.6247L92.2221 50.7844L92.2704 47.8051L90.6715 47.7796C90.4182 47.7756 90.1728 47.6909 89.971 47.5378C89.7692 47.3847 89.6215 47.1712 89.5493 46.9284C89.4245 46.5127 89.2646 46.1083 89.0712 45.7197C88.9567 45.493 88.9177 45.2358 88.9598 44.9854C89.0019 44.735 89.123 44.5046 89.3053 44.3279L90.453 43.2157L88.3775 41.0635L87.2298 42.1758C87.0473 42.3524 86.8131 42.4659 86.5614 42.4998C86.3097 42.5338 86.0538 42.4864 85.831 42.3645C85.4486 42.1588 85.0495 41.986 84.6379 41.8481C84.3967 41.7688 84.1872 41.6146 84.04 41.4079C83.8927 41.2011 83.8154 40.9527 83.8193 40.6989L83.8448 39.1001L80.8656 39.0519L80.84 40.6507C80.836 40.904 80.7513 41.1494 80.5983 41.3512C80.4452 41.553 80.2317 41.7008 79.9888 41.7729C79.5731 41.8977 79.1687 42.0576 78.7801 42.251C78.5535 42.3655 78.2962 42.4046 78.0458 42.3624C77.7954 42.3203 77.5651 42.1992 77.3884 42.0169L76.2762 40.8692L74.134 42.9447L75.2462 44.0924C75.4228 44.275 75.5363 44.5092 75.5702 44.7609C75.6042 45.0125 75.5568 45.2685 75.4349 45.4913C75.2292 45.8736 75.0565 46.2727 74.9185 46.6844C74.8394 46.9256 74.6852 47.1352 74.4785 47.2825C74.2717 47.4298 74.0232 47.5071 73.7693 47.5029L72.1705 47.4774L72.1223 50.4566L73.7211 50.4822C73.9744 50.4862 74.2198 50.5709 74.4216 50.724C74.6234 50.8771 74.7712 51.0905 74.8433 51.3334C74.9681 51.7491 75.128 52.1535 75.3214 52.5421C75.4359 52.7687 75.475 53.026 75.4328 53.2764C75.3907 53.5268 75.2697 53.7571 75.0873 53.9338L73.9396 55.0461L76.0151 57.1883L77.1628 56.076C77.3454 55.8995 77.5796 55.7859 77.8313 55.752C78.0829 55.718 78.3389 55.7655 78.5617 55.8873C78.944 56.093 79.3431 56.2658 79.7548 56.4037C79.9959 56.483 80.2054 56.6372 80.3527 56.844C80.4999 57.0507 80.5772 57.2991 80.5733 57.5529L80.5421 59.1574ZM82.1963 53.9395H82.1169C80.8448 53.929 79.6288 53.415 78.7349 52.5099C77.841 51.6049 77.3421 50.3825 77.3473 49.1105C77.3526 47.8384 77.8616 46.6202 78.7629 45.7226C79.6643 44.825 80.8845 44.321 82.1566 44.321C83.4287 44.321 84.6489 44.825 85.5503 45.7226C86.4516 46.6202 86.9606 47.8384 86.9659 49.1105C86.9711 50.3825 86.4722 51.6049 85.5783 52.5099C84.6844 53.415 83.4683 53.929 82.1963 53.9395ZM82.1963 45.8757C81.5572 45.8755 80.9321 46.0637 80.3992 46.4166C79.8663 46.7695 79.4492 47.2716 79.2 47.8602C78.9507 48.4487 78.8804 49.0976 78.9977 49.7259C79.1151 50.3542 79.4149 50.934 79.8598 51.393C80.2335 51.7793 80.6972 52.0671 81.2093 52.2305C81.7215 52.394 82.2661 52.428 82.7946 52.3296C83.3231 52.2312 83.819 52.0034 84.238 51.6665C84.6569 51.3297 84.986 50.8943 85.1956 50.3993C85.4052 49.9043 85.489 49.365 85.4394 48.8297C85.3897 48.2945 85.2083 47.7798 84.9112 47.3318C84.6142 46.8837 84.2107 46.5162 83.737 46.2621C83.2632 46.0081 82.7339 45.8753 82.1963 45.8757Z" fill="#F47B20"/>
<path d="M133.44 79.2037L136.726 83.7221C145.034 77.6866 154.512 78.6089 160.707 87.1239L165.063 83.9619C156.95 72.798 144.334 71.2906 133.44 79.2037Z" fill="#FEEFD2"/>
<path d="M136.532 84.4763C136.357 84.4312 136.203 84.3263 136.097 84.1797L132.811 79.6613C132.751 79.5785 132.707 79.4848 132.684 79.3853C132.66 79.2859 132.655 79.1827 132.671 79.0816C132.687 78.9805 132.723 78.8836 132.776 78.7964C132.83 78.7091 132.9 78.6332 132.983 78.5731C138.547 74.531 144.569 72.8306 150.405 73.6576C156.341 74.4986 161.618 77.9007 165.691 83.5037C165.751 83.5865 165.794 83.6803 165.818 83.7798C165.842 83.8793 165.846 83.9824 165.83 84.0835C165.814 84.1845 165.778 84.2813 165.725 84.3685C165.671 84.4557 165.601 84.5315 165.518 84.5915L161.165 87.7543C160.998 87.8755 160.789 87.9255 160.586 87.8933C160.382 87.8612 160.199 87.7496 160.078 87.5829C157.207 83.6372 153.518 81.2709 149.411 80.7351C145.383 80.2152 141.156 81.4637 137.184 84.3483C137.092 84.4166 136.985 84.4635 136.872 84.4856C136.76 84.5077 136.643 84.5045 136.532 84.4763ZM134.533 79.3839L136.905 82.6459C141.02 79.8438 145.404 78.6532 149.609 79.1966C153.93 79.7553 157.809 82.1177 160.868 86.0503L163.964 83.8003C160.217 78.9201 155.469 75.9529 150.184 75.2047C144.98 74.4627 139.582 75.9122 134.533 79.3839Z" fill="#F47B20"/>
<path d="M153.487 92.3742C151.798 88.9057 147.391 86.5348 142.477 90.6299L139.837 86.9751C145.909 82.5657 152.367 83.2597 156.979 89.6022L153.487 92.3742Z" fill="#FDDAA5"/>
<path d="M142.282 91.3827C142.105 91.3373 141.951 91.2316 141.844 91.0841L139.205 87.4293C139.084 87.2621 139.035 87.0539 139.067 86.8503C139.1 86.6467 139.212 86.4643 139.379 86.3432C142.564 84.0298 145.913 83.0446 149.066 83.484C152.294 83.9387 155.25 85.8948 157.607 89.1416C157.725 89.304 157.776 89.5056 157.749 89.7044C157.721 89.9032 157.619 90.0838 157.462 90.2086L153.965 92.9796C153.874 93.0518 153.767 93.1027 153.654 93.1284C153.54 93.1541 153.422 93.154 153.309 93.1281C153.195 93.1023 153.089 93.0513 152.998 92.979C152.907 92.9067 152.833 92.8148 152.782 92.7102C151.935 90.9701 150.425 89.717 148.743 89.3543C146.906 88.9606 144.911 89.6059 142.97 91.223C142.875 91.3019 142.763 91.3572 142.643 91.3843C142.523 91.4114 142.398 91.4096 142.278 91.3789L142.282 91.3827ZM140.932 87.162L142.633 89.5174C145.286 87.5753 147.575 87.5142 149.072 87.8364C150.932 88.2362 152.608 89.4646 153.717 91.1958L155.897 89.4645C153.877 86.923 151.453 85.3907 148.849 85.0264C146.308 84.6756 143.585 85.4074 140.932 87.162Z" fill="#F47B20"/>
<path d="M139.751 100.936C141.082 100.936 142.16 99.8576 142.16 98.5271C142.16 97.1967 141.082 96.1182 139.751 96.1182C138.421 96.1182 137.343 97.1967 137.343 98.5271C137.343 99.8576 138.421 100.936 139.751 100.936Z" fill="#FEEFD2"/>
<path fill-rule="evenodd" clip-rule="evenodd" d="M16.295 112.44C16.295 111.521 17.0404 110.776 17.9597 110.776H21.6724C22.2496 110.776 22.7855 111.075 23.0888 111.566L25.7674 115.903H29.7774C30.6967 115.903 31.4421 116.648 31.4421 117.568C31.4421 118.487 30.6967 119.232 29.7774 119.232H24.8389C24.2618 119.232 23.7258 118.933 23.4226 118.442L20.744 114.105H17.9597C17.0404 114.105 16.295 113.36 16.295 112.44Z" fill="#F47B20"/>
<path d="M14.9459 115.289C16.5192 115.289 17.7946 114.013 17.7946 112.44C17.7946 110.867 16.5192 109.591 14.9459 109.591C13.3726 109.591 12.0972 110.867 12.0972 112.44C12.0972 114.013 13.3726 115.289 14.9459 115.289Z" fill="#FEEFD2"/>
<path fill-rule="evenodd" clip-rule="evenodd" d="M14.9462 111.256C14.2923 111.256 13.7622 111.786 13.7622 112.44C13.7622 113.094 14.2923 113.624 14.9462 113.624C15.6001 113.624 16.1302 113.094 16.1302 112.44C16.1302 111.786 15.6001 111.256 14.9462 111.256ZM10.4328 112.44C10.4328 109.948 12.4535 107.927 14.9462 107.927C17.4389 107.927 19.4596 109.948 19.4596 112.44C19.4596 114.933 17.4389 116.954 14.9462 116.954C12.4535 116.954 10.4328 114.933 10.4328 112.44Z" fill="#F47B20"/>
<path fill-rule="evenodd" clip-rule="evenodd" d="M23.4226 127.103C23.7258 126.612 24.2618 126.313 24.8389 126.313H29.7774C30.6967 126.313 31.4421 127.058 31.4421 127.978C31.4421 128.897 30.6967 129.642 29.7774 129.642H25.7674L23.0888 133.98C22.7855 134.471 22.2496 134.77 21.6724 134.77H17.9597C17.0404 134.77 16.295 134.024 16.295 133.105C16.295 132.185 17.0404 131.44 17.9597 131.44H20.744L23.4226 127.103Z" fill="#F47B20"/>
<path d="M14.9459 135.952C16.5192 135.952 17.7946 134.677 17.7946 133.103C17.7946 131.53 16.5192 130.255 14.9459 130.255C13.3726 130.255 12.0972 131.53 12.0972 133.103C12.0972 134.677 13.3726 135.952 14.9459 135.952Z" fill="#FEEFD2"/>
<path fill-rule="evenodd" clip-rule="evenodd" d="M14.9462 131.919C14.2923 131.919 13.7622 132.45 13.7622 133.103C13.7622 133.757 14.2923 134.287 14.9462 134.287C15.6001 134.287 16.1302 133.757 16.1302 133.103C16.1302 132.45 15.6001 131.919 14.9462 131.919ZM10.4328 133.103C10.4328 130.611 12.4535 128.59 14.9462 128.59C17.4389 128.59 19.4596 130.611 19.4596 133.103C19.4596 135.596 17.4389 137.617 14.9462 137.617C12.4535 137.617 10.4328 135.596 10.4328 133.103Z" fill="#F47B20"/>
<path d="M14.9459 125.661C16.5192 125.661 17.7946 124.386 17.7946 122.812C17.7946 121.239 16.5192 119.964 14.9459 119.964C13.3726 119.964 12.0972 121.239 12.0972 122.812C12.0972 124.386 13.3726 125.661 14.9459 125.661Z" fill="#FDDAA5"/>
<path fill-rule="evenodd" clip-rule="evenodd" d="M14.9462 121.628C14.2923 121.628 13.7622 122.158 13.7622 122.812C13.7622 123.466 14.2923 123.996 14.9462 123.996C15.6001 123.996 16.1302 123.466 16.1302 122.812C16.1302 122.158 15.6001 121.628 14.9462 121.628ZM10.4328 122.812C10.4328 120.319 12.4535 118.299 14.9462 118.299C17.4389 118.299 19.4596 120.319 19.4596 122.812C19.4596 125.305 17.4389 127.326 14.9462 127.326C12.4535 127.326 10.4328 125.305 10.4328 122.812Z" fill="#F47B20"/>
<path fill-rule="evenodd" clip-rule="evenodd" d="M16.1266 122.812C16.1266 121.893 16.872 121.148 17.7913 121.148H29.7863C30.7057 121.148 31.451 121.893 31.451 122.812C31.451 123.732 30.7057 124.477 29.7863 124.477H17.7913C16.872 124.477 16.1266 123.732 16.1266 122.812Z" fill="#F47B20"/>
<path fill-rule="evenodd" clip-rule="evenodd" d="M61.863 127.978C61.863 127.058 62.6083 126.313 63.5277 126.313H68.4675C69.0448 126.313 69.5808 126.612 69.884 127.103L72.5613 131.44H75.3453C76.2647 131.44 77.01 132.185 77.01 133.105C77.01 134.024 76.2647 134.77 75.3453 134.77H71.6326C71.0553 134.77 70.5193 134.47 70.2161 133.979L67.5388 129.642H63.5277C62.6083 129.642 61.863 128.897 61.863 127.978Z" fill="#F47B20"/>
<path d="M78.3593 135.952C79.9326 135.952 81.2081 134.677 81.2081 133.103C81.2081 131.53 79.9326 130.255 78.3593 130.255C76.786 130.255 75.5106 131.53 75.5106 133.103C75.5106 134.677 76.786 135.952 78.3593 135.952Z" fill="#FEEFD2"/>
<path fill-rule="evenodd" clip-rule="evenodd" d="M78.3596 131.919C77.7057 131.919 77.1756 132.45 77.1756 133.103C77.1756 133.757 77.7057 134.287 78.3596 134.287C79.0135 134.287 79.5436 133.757 79.5436 133.103C79.5436 132.45 79.0135 131.919 78.3596 131.919ZM73.8462 133.103C73.8462 130.611 75.8669 128.59 78.3596 128.59C80.8523 128.59 82.873 130.611 82.873 133.103C82.873 135.596 80.8523 137.617 78.3596 137.617C75.8669 137.617 73.8462 135.596 73.8462 133.103Z" fill="#F47B20"/>
<path fill-rule="evenodd" clip-rule="evenodd" d="M70.2161 111.566C70.5193 111.075 71.0553 110.776 71.6326 110.776H75.3453C76.2647 110.776 77.01 111.521 77.01 112.44C77.01 113.36 76.2647 114.105 75.3453 114.105H72.5613L69.884 118.442C69.5808 118.933 69.0448 119.232 68.4675 119.232H63.5277C62.6083 119.232 61.863 118.487 61.863 117.568C61.863 116.648 62.6083 115.903 63.5277 115.903H67.5388L70.2161 111.566Z" fill="#F47B20"/>
<path d="M78.3593 115.289C79.9326 115.289 81.2081 114.013 81.2081 112.44C81.2081 110.867 79.9326 109.591 78.3593 109.591C76.786 109.591 75.5106 110.867 75.5106 112.44C75.5106 114.013 76.786 115.289 78.3593 115.289Z" fill="#FEEFD2"/>
<path fill-rule="evenodd" clip-rule="evenodd" d="M78.3596 111.256C77.7057 111.256 77.1756 111.786 77.1756 112.44C77.1756 113.094 77.7057 113.624 78.3596 113.624C79.0135 113.624 79.5436 113.094 79.5436 112.44C79.5436 111.786 79.0135 111.256 78.3596 111.256ZM73.8462 112.44C73.8462 109.948 75.8669 107.927 78.3596 107.927C80.8523 107.927 82.873 109.948 82.873 112.44C82.873 114.933 80.8523 116.954 78.3596 116.954C75.8669 116.954 73.8462 114.933 73.8462 112.44Z" fill="#F47B20"/>
<path d="M78.3593 125.582C79.9326 125.582 81.2081 124.306 81.2081 122.733C81.2081 121.16 79.9326 119.884 78.3593 119.884C76.786 119.884 75.5106 121.16 75.5106 122.733C75.5106 124.306 76.786 125.582 78.3593 125.582Z" fill="#FDDAA5"/>
<path fill-rule="evenodd" clip-rule="evenodd" d="M78.3596 121.549C77.7057 121.549 77.1756 122.079 77.1756 122.733C77.1756 123.387 77.7057 123.917 78.3596 123.917C79.0135 123.917 79.5436 123.387 79.5436 122.733C79.5436 122.079 79.0135 121.549 78.3596 121.549ZM73.8462 122.733C73.8462 120.24 75.8669 118.219 78.3596 118.219C80.8523 118.219 82.873 120.24 82.873 122.733C82.873 125.226 80.8523 127.246 78.3596 127.246C75.8669 127.246 73.8462 125.226 73.8462 122.733Z" fill="#F47B20"/>
<path fill-rule="evenodd" clip-rule="evenodd" d="M61.8532 122.733C61.8532 121.813 62.5985 121.068 63.5179 121.068H75.5129C76.4323 121.068 77.1776 121.813 77.1776 122.733C77.1776 123.652 76.4323 124.398 75.5129 124.398H63.5179C62.5985 124.398 61.8532 123.652 61.8532 122.733Z" fill="#F47B20"/>
<path d="M63.5165 133.737V138.127C63.5165 139.18 63.098 140.191 62.353 140.936C61.6081 141.681 60.5977 142.099 59.5442 142.099H34.0419C32.9884 142.099 31.9781 141.681 31.2331 140.936C30.4881 140.191 30.0696 139.18 30.0696 138.127V133.737H63.5165Z" fill="#FDDAA5"/>
<path fill-rule="evenodd" clip-rule="evenodd" d="M28.4052 133.737C28.4052 132.818 29.1505 132.073 30.0699 132.073H63.5167C64.4361 132.073 65.1814 132.818 65.1814 133.737V138.127C65.1814 139.622 64.5875 141.056 63.5304 142.113C62.4732 143.17 61.0394 143.764 59.5444 143.764H34.0422C32.5471 143.764 31.1133 143.17 30.0562 142.113C28.999 141.056 28.4052 139.622 28.4052 138.127V133.737ZM31.7346 135.402V138.127C31.7346 138.739 31.9777 139.326 32.4104 139.759C32.8432 140.191 33.4301 140.434 34.0422 140.434H59.5444C60.1564 140.434 60.7434 140.191 61.1761 139.759C61.6089 139.326 61.852 138.739 61.852 138.127V135.402H31.7346Z" fill="#F47B20"/>
<path d="M63.5154 85.1689V133.737H30.0672V85.1689C30.0672 84.1154 30.4857 83.105 31.2307 82.3601C31.9756 81.6151 32.986 81.1966 34.0395 81.1966H59.5417C60.0635 81.1964 60.5802 81.299 61.0623 81.4986C61.5444 81.6981 61.9825 81.9907 62.3515 82.3596C62.7205 82.7284 63.0132 83.1664 63.2129 83.6484C63.4127 84.1305 63.5154 84.6471 63.5154 85.1689Z" fill="#FEEFD2"/>
<path fill-rule="evenodd" clip-rule="evenodd" d="M60.4283 83.0366C60.1482 82.9207 59.8481 82.8611 59.545 82.8612L34.0422 82.8612C33.4301 82.8612 32.8432 83.1043 32.4104 83.5371C31.9777 83.9698 31.7346 84.5568 31.7346 85.1688V132.073H61.8534V85.1688C61.8534 84.8657 61.7937 84.5656 61.6777 84.2855C61.5616 84.0055 61.3916 83.7511 61.1772 83.5368C60.9629 83.3225 60.7084 83.1525 60.4283 83.0366ZM59.5444 79.5318C60.2846 79.5316 61.0176 79.6772 61.7016 79.9603C62.3857 80.2435 63.0074 80.6587 63.5311 81.1821C64.0547 81.7056 64.4701 82.3271 64.7535 83.0112C65.0369 83.6952 65.1828 84.4284 65.1828 85.1688V133.737C65.1828 134.657 64.4375 135.402 63.5181 135.402H30.0699C29.1505 135.402 28.4052 134.657 28.4052 133.737V85.1688C28.4052 83.6738 28.999 82.24 30.0562 81.1828C31.1133 80.1257 32.5471 79.5318 34.0422 79.5318H59.5438C59.544 79.5318 59.5442 79.5318 59.5444 79.5318Z" fill="#F47B20"/>
<path fill-rule="evenodd" clip-rule="evenodd" d="M51.716 92.6208C52.4708 93.1458 52.657 94.1832 52.132 94.938L41.9359 109.596C41.4109 110.351 40.3735 110.537 39.6187 110.012C38.864 109.487 38.6777 108.449 39.2027 107.695L49.3988 93.0367C49.9238 92.282 50.9613 92.0958 51.716 92.6208Z" fill="#F47B20"/>
<path fill-rule="evenodd" clip-rule="evenodd" d="M51.7157 104.76C52.4705 105.285 52.6568 106.323 52.1318 107.078L44.1887 118.498C43.6637 119.253 42.6263 119.439 41.8715 118.914C41.1167 118.389 40.9304 117.352 41.4554 116.597L49.3986 105.177C49.9235 104.422 50.961 104.235 51.7157 104.76Z" fill="#F47B20"/>
<path d="M109.425 100.299C110.278 99.9601 110.569 98.6741 110.073 97.4264C109.578 96.1787 108.485 95.4418 107.632 95.7804C106.779 96.1191 106.489 97.4051 106.984 98.6528C107.479 99.9005 108.572 100.637 109.425 100.299Z" fill="#FDDAA5"/>
<path d="M108.988 101.133C107.915 101.133 106.817 100.277 106.278 98.9216C105.617 97.2581 106.089 95.5612 107.353 95.06C108.617 94.5587 110.122 95.4697 110.783 97.1332C111.444 98.7967 110.972 100.494 109.708 100.995C109.479 101.086 109.234 101.133 108.988 101.133ZM108.075 96.4474C108.021 96.447 107.966 96.4569 107.915 96.4765C107.52 96.6334 107.343 97.4717 107.694 98.3652C108.046 99.2587 108.752 99.741 109.147 99.5841C109.543 99.4272 109.72 98.5889 109.368 97.6954C109.059 96.9196 108.478 96.4489 108.077 96.4489L108.075 96.4474Z" fill="#F47B20"/>
<path d="M103.864 97.906C103.736 97.906 103.609 97.8761 103.495 97.8188C103.38 97.7615 103.281 97.6783 103.204 97.5758C103.127 97.4733 103.075 97.3544 103.052 97.2284C103.029 97.1024 103.036 96.9728 103.072 96.8498C103.156 96.5127 103.824 94.1272 106.107 92.6191C106.271 92.5102 106.472 92.4694 106.666 92.5055C106.86 92.5415 107.033 92.6516 107.147 92.8123L108.851 95.1965C108.92 95.2929 108.965 95.4041 108.984 95.5212C109.002 95.6383 108.993 95.758 108.957 95.8709C108.921 95.9837 108.859 96.0866 108.776 96.1713C108.693 96.256 108.591 96.3202 108.479 96.3587L104.121 97.8624C104.081 97.8765 104.039 97.8872 103.997 97.8944C103.953 97.9019 103.908 97.9058 103.864 97.906ZM104.52 97.322L104.509 97.3525L104.52 97.322ZM106.364 94.3378C105.857 94.7888 105.429 95.3222 105.1 95.9156L107.018 95.2531L106.364 94.3378Z" fill="#F47B20"/>
<path d="M106.503 94.0429C106.387 94.0431 106.273 94.0167 106.169 93.9659C104.912 93.3514 104.135 91.8724 104.242 90.2873C104.268 89.7728 104.395 89.2686 104.617 88.8037C104.839 88.3389 105.151 87.9227 105.535 87.5792C105.828 87.3209 106.17 87.1244 106.541 87.0013C106.912 86.8783 107.303 86.8312 107.693 86.8629C108.039 86.8945 108.377 86.9895 108.689 87.1433C108.903 86.6288 109.255 86.1838 109.707 85.858C110.159 85.5322 110.692 85.3384 111.248 85.2982C111.943 85.2603 112.629 85.4755 113.179 85.9041C113.492 85.7333 113.839 85.634 114.196 85.6135C114.874 85.5757 115.582 85.9041 116.138 86.5201C116.751 87.1971 117.046 88.0615 116.925 88.833C116.679 90.4137 115.59 91.6777 114.69 92.0656C114.598 92.1052 114.499 92.1263 114.399 92.1277C114.299 92.1291 114.2 92.1108 114.107 92.0739C114.014 92.0369 113.929 91.982 113.857 91.9123C113.785 91.8425 113.728 91.7594 113.689 91.6675C113.649 91.5756 113.628 91.4769 113.626 91.3769C113.625 91.2768 113.643 91.1775 113.68 91.0846C113.717 90.9916 113.772 90.9068 113.842 90.8351C113.912 90.7634 113.995 90.7061 114.087 90.6665C114.453 90.5096 115.249 89.7163 115.419 88.5991C115.467 88.2925 115.301 87.8727 115.008 87.5429C114.772 87.2828 114.488 87.1201 114.281 87.1346C114.04 87.1537 113.815 87.2619 113.649 87.4383C113.574 87.5146 113.484 87.5742 113.384 87.6132C113.284 87.6522 113.178 87.6697 113.071 87.6647C112.964 87.6596 112.859 87.632 112.764 87.5837C112.668 87.5355 112.584 87.4676 112.516 87.3845C112.377 87.203 112.197 87.0574 111.99 86.9601C111.783 86.8628 111.556 86.8165 111.328 86.8252C110.546 86.8687 109.93 87.6024 109.927 88.4959C109.927 88.6531 109.878 88.8064 109.787 88.9346C109.696 89.0629 109.568 89.1598 109.419 89.2122C109.271 89.2646 109.11 89.2698 108.959 89.2271C108.808 89.1845 108.674 89.096 108.575 88.9739C108.452 88.8143 108.299 88.6807 108.125 88.5809C107.95 88.4811 107.757 88.4172 107.558 88.3928C107.371 88.3798 107.183 88.4046 107.006 88.4658C106.829 88.5269 106.666 88.6232 106.527 88.7487C106.298 88.96 106.112 89.2146 105.981 89.4978C105.85 89.7811 105.777 90.0874 105.765 90.3992C105.701 91.3595 106.144 92.2675 106.841 92.6089C107 92.6821 107.13 92.8079 107.207 92.9651C107.284 93.1223 107.305 93.3014 107.265 93.4721C107.226 93.6427 107.129 93.7946 106.99 93.902C106.852 94.0094 106.681 94.0659 106.506 94.0618L106.503 94.0429Z" fill="#F47B20"/>
<path d="M140.655 113.773C146.467 108.993 143.224 108.637 143.224 108.637C147.975 103.587 143.31 105.555 143.31 105.041C143.31 104.527 146.734 101.06 145.364 100.119C143.161 98.6048 139.747 101.415 137.349 102.965C133.25 105.615 129.939 105.471 128.632 105.615C118.213 106.754 116.043 94.8913 116.043 94.8913C115.578 92.2849 113.718 89.7599 111.168 89.7599C108.619 89.7599 106.374 91.4539 106.545 93.5271C106.773 96.2091 108.546 96.4575 109.229 97.1113C111.225 99.0174 110.362 101.198 109.489 103.873L109.455 103.97C108.125 107.859 109.945 112.327 112.184 115.716C113.438 117.607 115.077 119.211 116.994 120.424C118.94 130.884 126.117 124.601 126.117 124.601C131.54 127.084 135.223 122.118 135.223 122.118C140.959 120.321 140.615 112.102 140.615 112.102" fill="#FEEFD2"/>
<path d="M121.716 127.233C121.226 127.236 120.739 127.156 120.275 126.996C118.325 126.321 116.992 124.265 116.306 120.886C114.414 119.641 112.795 118.025 111.546 116.136C109.803 113.507 107.132 108.397 108.732 103.723L108.898 103.221C109.782 100.537 110.175 99.0713 108.699 97.662C108.543 97.5363 108.375 97.4254 108.199 97.3308C107.372 96.8426 105.989 96.0232 105.781 93.5912C105.745 93.0778 105.817 92.5625 105.992 92.0785C106.167 91.5945 106.442 91.1527 106.798 90.7814C107.824 89.6656 109.454 88.9987 111.157 88.9987C114.174 88.9987 116.269 91.8957 116.781 94.7578C117.216 96.7271 117.996 98.6037 119.087 100.3C121.365 103.761 124.546 105.294 128.543 104.858C128.735 104.838 128.951 104.823 129.204 104.806C130.722 104.704 133.547 104.515 136.933 102.326C137.26 102.114 137.609 101.878 137.976 101.627C140.423 99.9633 143.47 97.893 145.793 99.4897C145.96 99.6025 146.102 99.7484 146.21 99.9183C146.318 100.088 146.39 100.279 146.422 100.478C146.603 101.55 145.742 102.85 144.67 104.315C145.191 104.335 145.735 104.482 145.996 105.019C146.362 105.77 145.94 106.729 144.445 108.425C144.618 108.601 144.745 108.818 144.815 109.055C145.046 109.831 144.924 111.213 141.258 114.258C141.165 115.062 141.011 115.858 140.798 116.639C139.926 119.789 138.155 121.903 135.671 122.77C134.936 123.636 134.061 124.373 133.082 124.949C130.903 126.218 128.545 126.402 126.23 125.481C125.467 126.056 123.664 127.233 121.716 127.233ZM117.746 120.31C118.303 123.287 119.322 125.053 120.773 125.557C122.928 126.303 125.587 124.05 125.613 124.027C125.723 123.93 125.859 123.868 126.005 123.846C126.15 123.825 126.299 123.847 126.432 123.908C128.443 124.827 130.423 124.736 132.319 123.632C133.195 123.12 133.971 122.454 134.609 121.665C134.705 121.535 134.839 121.44 134.992 121.391C140.098 119.793 139.854 112.211 139.851 112.134C139.842 111.932 139.915 111.735 140.052 111.586C140.188 111.438 140.379 111.35 140.581 111.341C140.783 111.333 140.98 111.405 141.128 111.542C141.277 111.679 141.365 111.869 141.373 112.071C141.373 112.079 141.373 112.102 141.373 112.137C143.487 110.178 143.358 109.497 143.355 109.49C143.289 109.437 143.209 109.403 143.125 109.392C142.984 109.382 142.849 109.331 142.737 109.246C142.624 109.16 142.539 109.043 142.492 108.91C142.443 108.774 142.433 108.628 142.464 108.487C142.495 108.346 142.565 108.217 142.666 108.114C143.852 106.854 144.308 106.173 144.484 105.836C144.324 105.836 144.145 105.858 144.032 105.868C143.552 105.911 143.138 105.951 142.816 105.656C142.731 105.578 142.663 105.483 142.616 105.377C142.57 105.271 142.546 105.157 142.546 105.041C142.546 104.637 142.812 104.275 143.394 103.481C143.815 102.93 144.203 102.355 144.556 101.759C144.933 101.082 144.931 100.806 144.924 100.742C143.452 99.7512 140.892 101.49 138.835 102.889C138.46 103.145 138.109 103.386 137.763 103.607C134.044 106.012 130.964 106.222 129.307 106.328C129.073 106.344 128.871 106.357 128.71 106.375C124.145 106.873 120.369 105.05 117.789 101.099C116.597 99.2437 115.751 97.1878 115.29 95.0309C114.761 92.0715 112.82 90.5271 111.166 90.5271C109.899 90.5271 108.659 91.0211 107.927 91.8172C107.713 92.0335 107.547 92.292 107.44 92.5762C107.332 92.8605 107.285 93.1641 107.301 93.4677C107.446 95.1196 108.221 95.5787 108.975 96.0232C109.254 96.1734 109.515 96.3552 109.752 96.5651C111.992 98.7052 111.192 101.133 110.345 103.703L110.21 104.116L110.173 104.225C108.786 108.281 111.234 112.907 112.817 115.303C114.01 117.105 115.573 118.633 117.401 119.786C117.493 119.844 117.571 119.921 117.63 120.012C117.69 120.102 117.729 120.205 117.746 120.312V120.31Z" fill="#F47B20"/>
<path d="M130.417 133.88C130.234 133.88 130.058 133.814 129.92 133.695C129.781 133.575 129.691 133.41 129.664 133.229L128.502 125.407C128.488 125.308 128.493 125.207 128.517 125.11C128.541 125.013 128.585 124.922 128.644 124.841C128.704 124.761 128.779 124.693 128.865 124.642C128.951 124.59 129.046 124.556 129.145 124.542C129.244 124.527 129.345 124.532 129.442 124.557C129.539 124.581 129.63 124.624 129.711 124.684C129.791 124.744 129.859 124.819 129.91 124.905C129.962 124.991 129.996 125.086 130.01 125.185L131.172 133.007C131.188 133.106 131.184 133.208 131.16 133.306C131.136 133.404 131.093 133.496 131.033 133.577C130.974 133.658 130.898 133.726 130.812 133.778C130.726 133.83 130.63 133.864 130.53 133.879C130.493 133.882 130.455 133.882 130.417 133.88Z" fill="#F47B20"/>
<path d="M130.417 133.88C130.33 133.88 130.243 133.866 130.161 133.836L126.994 132.709C126.9 132.675 126.813 132.624 126.739 132.557C126.665 132.489 126.604 132.408 126.561 132.318C126.518 132.228 126.494 132.13 126.489 132.03C126.484 131.93 126.498 131.83 126.532 131.736C126.566 131.641 126.617 131.555 126.684 131.48C126.752 131.406 126.833 131.346 126.923 131.303C127.013 131.26 127.111 131.235 127.211 131.23C127.311 131.225 127.411 131.24 127.505 131.274L130.673 132.401C130.843 132.46 130.987 132.578 131.079 132.734C131.17 132.889 131.204 133.072 131.173 133.25C131.142 133.428 131.049 133.589 130.911 133.704C130.772 133.82 130.597 133.883 130.417 133.881V133.88Z" fill="#F47B20"/>
<path d="M126.114 135.38C125.933 135.381 125.758 135.317 125.62 135.201C125.481 135.085 125.389 134.923 125.359 134.745C125.329 134.567 125.363 134.384 125.456 134.228C125.548 134.073 125.693 133.956 125.864 133.898L130.174 132.4C130.365 132.333 130.575 132.346 130.757 132.434C130.939 132.522 131.078 132.679 131.144 132.87C131.211 133.061 131.198 133.27 131.11 133.452C131.022 133.634 130.865 133.773 130.674 133.84L126.364 135.337C126.283 135.365 126.199 135.38 126.114 135.38Z" fill="#F47B20"/>
<path d="M132.742 133.88H130.418C130.216 133.88 130.022 133.8 129.879 133.657C129.736 133.514 129.656 133.32 129.656 133.118C129.656 132.916 129.736 132.722 129.879 132.579C130.022 132.436 130.216 132.356 130.418 132.356H132.742C132.944 132.356 133.138 132.436 133.281 132.579C133.424 132.722 133.504 132.916 133.504 133.118C133.504 133.32 133.424 133.514 133.281 133.657C133.138 133.8 132.944 133.88 132.742 133.88Z" fill="#F47B20"/>
<path d="M117.581 134.287C117.456 134.287 117.333 134.256 117.223 134.196C117.113 134.137 117.019 134.052 116.949 133.948C116.88 133.844 116.837 133.724 116.824 133.6C116.812 133.475 116.831 133.349 116.878 133.234L119.875 126.004C119.914 125.912 119.97 125.828 120.04 125.757C120.111 125.686 120.195 125.63 120.287 125.592C120.379 125.553 120.478 125.534 120.578 125.533C120.678 125.533 120.777 125.553 120.87 125.591C120.962 125.629 121.046 125.685 121.117 125.756C121.188 125.826 121.244 125.91 121.283 126.003C121.321 126.095 121.341 126.194 121.341 126.294C121.341 126.394 121.321 126.493 121.283 126.586L118.286 133.813C118.229 133.953 118.131 134.073 118.006 134.157C117.88 134.242 117.733 134.287 117.581 134.287Z" fill="#F47B20"/>
<path d="M112.061 136.256C111.881 136.257 111.706 136.194 111.568 136.078C111.429 135.962 111.337 135.801 111.306 135.623C111.276 135.445 111.309 135.263 111.401 135.107C111.493 134.952 111.637 134.834 111.807 134.775L115.185 133.579L113.263 132.971C113.07 132.91 112.909 132.775 112.816 132.596C112.723 132.416 112.705 132.207 112.766 132.015C112.827 131.822 112.962 131.661 113.141 131.568C113.32 131.475 113.529 131.457 113.722 131.518L117.811 132.812C117.964 132.86 118.097 132.955 118.193 133.083C118.289 133.211 118.341 133.366 118.344 133.525C118.347 133.685 118.299 133.842 118.208 133.973C118.117 134.104 117.987 134.203 117.836 134.256L112.315 136.21C112.234 136.24 112.148 136.255 112.061 136.256Z" fill="#F47B20"/>
<path d="M120.007 134.301H117.583C117.381 134.301 117.187 134.221 117.044 134.078C116.901 133.935 116.821 133.741 116.821 133.539C116.821 133.337 116.901 133.143 117.044 133C117.187 132.857 117.381 132.777 117.583 132.777H120.007C120.21 132.777 120.403 132.857 120.546 133C120.689 133.143 120.77 133.337 120.77 133.539C120.77 133.741 120.689 133.935 120.546 134.078C120.403 134.221 120.21 134.301 120.007 134.301Z" fill="#F47B20"/>
<path d="M128.156 118.461C126.891 118.461 125.185 117.867 122.982 116.665C121.705 115.961 120.469 115.185 119.279 114.341C119.198 114.282 119.129 114.208 119.077 114.123C119.024 114.038 118.989 113.943 118.973 113.844C118.957 113.746 118.961 113.645 118.984 113.547C119.007 113.45 119.049 113.358 119.108 113.277C119.166 113.196 119.24 113.127 119.325 113.075C119.411 113.022 119.505 112.987 119.604 112.971C119.703 112.955 119.804 112.959 119.901 112.982C119.998 113.005 120.09 113.047 120.171 113.106C121.314 113.911 122.5 114.654 123.725 115.329C127.01 117.12 128.274 116.996 128.665 116.86C128.779 116.822 128.882 116.754 128.961 116.663C129.04 116.571 129.093 116.46 129.113 116.341C129.143 116.237 129.193 116.141 129.263 116.058C129.332 115.975 129.418 115.908 129.515 115.861C129.612 115.814 129.718 115.788 129.826 115.786C129.934 115.783 130.041 115.803 130.141 115.844C131.053 116.222 132.32 116.46 132.69 116.197C132.792 116.125 132.801 115.92 132.789 115.762C132.78 115.64 132.801 115.518 132.849 115.407C132.897 115.295 132.971 115.196 133.065 115.119C133.159 115.041 133.271 114.988 133.39 114.962C133.509 114.937 133.632 114.94 133.75 114.973C134.575 115.193 135.547 115.199 135.75 114.984C135.786 114.945 135.823 114.772 135.695 114.392C135.631 114.2 135.646 113.991 135.736 113.81C135.826 113.629 135.985 113.492 136.177 113.428C136.368 113.364 136.577 113.378 136.758 113.469C136.939 113.559 137.077 113.717 137.14 113.909C137.511 115.022 137.191 115.677 136.857 116.03C136.199 116.728 135.021 116.723 134.197 116.611C134.081 116.943 133.866 117.231 133.58 117.435C132.653 118.101 131.143 117.784 130.238 117.498C129.977 117.872 129.602 118.153 129.169 118.298C128.843 118.409 128.5 118.464 128.156 118.461Z" fill="#F47B20"/>
<path d="M110.319 94.4395C110.823 94.4395 111.231 94.031 111.231 93.5271C111.231 93.0232 110.823 92.6147 110.319 92.6147C109.815 92.6147 109.406 93.0232 109.406 93.5271C109.406 94.031 109.815 94.4395 110.319 94.4395Z" fill="#FDDAA5"/>
<path d="M110.32 95.2026C109.989 95.2026 109.665 95.1044 109.389 94.9203C109.114 94.7363 108.899 94.4746 108.772 94.1685C108.646 93.8625 108.612 93.5256 108.677 93.2007C108.742 92.8757 108.901 92.5773 109.135 92.343C109.37 92.1087 109.668 91.9492 109.993 91.8845C110.318 91.8199 110.655 91.8531 110.961 91.9799C111.267 92.1067 111.529 92.3214 111.713 92.5968C111.897 92.8723 111.995 93.1962 111.995 93.5275C111.995 93.9717 111.818 94.3975 111.504 94.7116C111.19 95.0256 110.764 95.2023 110.32 95.2026ZM110.32 93.3764C110.291 93.3764 110.263 93.3849 110.239 93.4009C110.215 93.4168 110.197 93.4395 110.186 93.4661C110.175 93.4926 110.172 93.5218 110.177 93.55C110.183 93.5782 110.197 93.6041 110.217 93.6244C110.237 93.6447 110.263 93.6586 110.292 93.6642C110.32 93.6698 110.349 93.6669 110.376 93.6559C110.402 93.6449 110.425 93.6263 110.441 93.6024C110.457 93.5785 110.465 93.5504 110.465 93.5217C110.465 93.4832 110.45 93.4462 110.423 93.419C110.395 93.3917 110.358 93.3764 110.32 93.3764Z" fill="#F47B20"/>
<path d="M127.639 97.3441C128.493 97.0055 128.783 95.7195 128.287 94.4718C127.792 93.2241 126.699 92.4872 125.846 92.8258C124.993 93.1645 124.703 94.4505 125.198 95.6982C125.693 96.9459 126.786 97.6828 127.639 97.3441Z" fill="#FDDAA5"/>
<path d="M127.21 98.1762C126.727 98.1682 126.258 98.0165 125.863 97.7403C125.241 97.3 124.765 96.6844 124.494 95.9722C123.833 94.3087 124.306 92.6117 125.57 92.1105C126.833 91.6093 128.339 92.5202 129 94.1837C129.291 94.8877 129.367 95.6625 129.216 96.4095C129.039 97.194 128.568 97.7897 127.925 98.0454C127.697 98.1338 127.454 98.1782 127.21 98.1762ZM126.292 93.4936C126.236 93.493 126.182 93.5029 126.13 93.5227C125.735 93.6796 125.558 94.5179 125.909 95.4114C126.068 95.8381 126.348 96.2092 126.714 96.4792C126.829 96.5562 127.121 96.7262 127.362 96.6245C127.603 96.5228 127.699 96.2046 127.73 96.0695C127.812 95.6222 127.761 95.1607 127.585 94.7416C127.274 93.9643 126.695 93.4936 126.29 93.4936H126.292Z" fill="#F47B20"/>
<path d="M122.078 94.9509C121.95 94.9508 121.823 94.921 121.709 94.8636C121.594 94.8063 121.495 94.7231 121.418 94.6207C121.341 94.5182 121.289 94.3992 121.266 94.2732C121.243 94.1472 121.25 94.0176 121.286 93.8947C121.37 93.5576 122.038 91.172 124.321 89.664C124.486 89.5554 124.686 89.5149 124.88 89.5509C125.074 89.5869 125.246 89.6967 125.361 89.8572L127.065 92.2413C127.134 92.3378 127.179 92.449 127.198 92.5661C127.216 92.6831 127.207 92.8029 127.171 92.9157C127.135 93.0286 127.073 93.1315 126.99 93.2162C126.907 93.3009 126.805 93.3651 126.693 93.4036L122.335 94.9073C122.295 94.9214 122.253 94.9321 122.211 94.9393C122.167 94.9468 122.122 94.9507 122.078 94.9509ZM122.734 94.3669L122.723 94.3974L122.734 94.3669ZM124.578 91.3769C124.071 91.8278 123.643 92.3612 123.314 92.9547L125.232 92.2922L124.578 91.3769Z" fill="#F47B20"/>
<path d="M124.712 91.0864C124.596 91.0866 124.482 91.0602 124.378 91.0094C123.121 90.3949 122.344 88.9159 122.451 87.3308C122.477 86.8164 122.605 86.3122 122.827 85.8473C123.049 85.3825 123.36 84.9663 123.744 84.6227C124.037 84.3645 124.379 84.1679 124.75 84.0449C125.121 83.9218 125.512 83.8747 125.902 83.9065C126.248 83.938 126.586 84.0331 126.898 84.1869C127.112 83.6724 127.464 83.2274 127.916 82.9016C128.368 82.5757 128.901 82.3819 129.457 82.3418C130.153 82.3037 130.838 82.5189 131.388 82.9476C131.701 82.7768 132.048 82.6776 132.405 82.657C133.083 82.6193 133.791 82.9476 134.347 83.5636C134.96 84.2406 135.255 85.1051 135.135 85.8765C134.888 87.4572 133.799 88.7212 132.899 89.1091C132.807 89.1487 132.708 89.1698 132.608 89.1712C132.508 89.1727 132.409 89.1544 132.316 89.1174C132.223 89.0804 132.138 89.0255 132.066 88.9558C131.995 88.8861 131.937 88.8029 131.898 88.711C131.858 88.6192 131.837 88.5204 131.836 88.4204C131.834 88.3204 131.852 88.221 131.889 88.1281C131.926 88.0351 131.981 87.9504 132.051 87.8786C132.121 87.8069 132.204 87.7496 132.296 87.71C132.662 87.5531 133.458 86.7599 133.628 85.6426C133.676 85.3361 133.51 84.9162 133.217 84.5864C132.981 84.3264 132.698 84.1636 132.49 84.1782C132.249 84.1976 132.024 84.3064 131.858 84.4833C131.783 84.5595 131.693 84.619 131.593 84.6579C131.493 84.6967 131.386 84.7142 131.279 84.709C131.173 84.7037 131.068 84.676 130.972 84.6276C130.877 84.5792 130.793 84.5112 130.725 84.4281C130.586 84.2466 130.406 84.1011 130.199 84.0038C129.992 83.9065 129.765 83.8602 129.537 83.8687C128.755 83.9123 128.139 84.646 128.136 85.5395C128.136 85.6967 128.087 85.8499 127.996 85.9782C127.905 86.1064 127.777 86.2034 127.629 86.2558C127.48 86.3081 127.32 86.3134 127.168 86.2707C127.017 86.228 126.883 86.1396 126.784 86.0175C126.661 85.8578 126.508 85.7242 126.334 85.6244C126.159 85.5247 125.966 85.4607 125.767 85.4363C125.58 85.4234 125.392 85.4483 125.215 85.5094C125.038 85.5706 124.876 85.6668 124.737 85.7923C124.507 86.0036 124.321 86.2581 124.19 86.5414C124.06 86.8246 123.986 87.1309 123.974 87.4427C123.91 88.403 124.353 89.3111 125.05 89.651C125.21 89.7242 125.339 89.85 125.416 90.0072C125.493 90.1644 125.514 90.3435 125.474 90.5141C125.435 90.6848 125.338 90.8367 125.199 90.9441C125.061 91.0515 124.89 91.108 124.715 91.1039L124.712 91.0864Z" fill="#F47B20"/>
<path d="M158.864 110.818C164.676 106.038 161.433 105.682 161.433 105.682C166.184 100.632 161.519 102.6 161.519 102.086C161.519 101.572 164.943 98.1052 163.573 97.1637C161.371 95.6499 157.956 98.4597 155.558 100.01C151.459 102.66 148.148 102.516 146.841 102.66C136.422 103.799 134.252 91.9364 134.252 91.9364C133.787 89.33 131.927 86.8049 129.377 86.8049C126.828 86.8049 124.583 88.4989 124.754 90.5722C124.983 93.2541 126.755 93.5025 127.438 94.1563C129.434 96.0625 128.571 98.2432 127.698 100.918L127.665 101.015C126.334 104.904 128.154 109.372 130.393 112.761C131.647 114.652 133.286 116.256 135.203 117.469C137.149 127.929 144.326 121.646 144.326 121.646C149.749 124.129 153.432 119.163 153.432 119.163C159.168 117.366 158.824 109.147 158.824 109.147" fill="#FEEFD2"/>
<path d="M139.926 124.278C139.436 124.28 138.949 124.2 138.485 124.041C136.535 123.366 135.202 121.31 134.516 117.931C132.624 116.686 131.005 115.07 129.756 113.181C128.013 110.552 125.343 105.442 126.942 100.768L127.108 100.265C127.993 97.582 128.385 96.116 126.909 94.7068C126.753 94.581 126.586 94.4701 126.409 94.3755C125.582 93.8874 124.199 93.068 123.993 90.6359C123.957 90.1225 124.028 89.6072 124.204 89.1232C124.379 88.6393 124.653 88.1974 125.01 87.8261C126.036 86.7103 127.666 86.0435 129.368 86.0435C132.386 86.0435 134.481 88.9404 134.992 91.8025C135.425 93.7715 136.204 95.6481 137.292 97.3452C139.57 100.806 142.752 102.34 146.749 101.903C146.941 101.882 147.157 101.868 147.41 101.85C148.928 101.749 151.752 101.56 155.139 99.3704C155.466 99.1583 155.815 98.923 156.182 98.6716C158.63 97.0081 161.675 94.9378 163.998 96.5345C164.165 96.6473 164.307 96.7931 164.416 96.9631C164.524 97.133 164.596 97.3234 164.628 97.5224C164.809 98.5946 163.948 99.8949 162.875 101.359C163.397 101.38 163.94 101.526 164.202 102.064C164.568 102.815 164.145 103.774 162.65 105.471C162.824 105.647 162.952 105.864 163.022 106.101C163.253 106.877 163.131 108.259 159.466 111.304C159.373 112.108 159.219 112.904 159.005 113.685C158.133 116.835 156.364 118.949 153.878 119.816C153.143 120.683 152.268 121.419 151.289 121.996C149.11 123.264 146.752 123.448 144.437 122.527C143.679 123.101 141.875 124.278 139.926 124.278ZM135.954 117.342C136.511 120.325 137.529 122.094 138.98 122.601C141.16 123.36 143.798 121.096 143.824 121.073C143.935 120.977 144.071 120.914 144.216 120.893C144.361 120.872 144.509 120.893 144.642 120.954C149.425 123.143 152.684 118.891 152.82 118.709C152.917 118.581 153.051 118.486 153.204 118.438C158.308 116.839 158.065 109.257 158.062 109.18C158.054 108.978 158.126 108.781 158.263 108.633C158.4 108.484 158.59 108.396 158.792 108.388C158.994 108.379 159.191 108.452 159.34 108.588C159.488 108.725 159.576 108.916 159.585 109.118C159.585 109.125 159.585 109.148 159.585 109.183C161.699 107.225 161.569 106.543 161.566 106.536C161.503 106.486 161.428 106.454 161.348 106.44C161.207 106.425 161.073 106.371 160.962 106.283C160.85 106.196 160.764 106.08 160.715 105.946C160.666 105.813 160.655 105.669 160.684 105.53C160.712 105.391 160.779 105.263 160.876 105.16C162.062 103.9 162.518 103.219 162.694 102.882C162.534 102.882 162.355 102.904 162.242 102.914C161.763 102.957 161.348 102.997 161.026 102.702C160.941 102.624 160.873 102.529 160.826 102.423C160.78 102.317 160.756 102.203 160.756 102.087C160.756 101.683 161.022 101.322 161.604 100.527C162.025 99.9765 162.413 99.4016 162.766 98.8053C163.143 98.1282 163.141 97.8522 163.134 97.7883C161.662 96.7974 159.102 98.5365 157.045 99.9356C156.67 100.191 156.319 100.432 155.973 100.653C152.254 103.058 149.174 103.268 147.517 103.374C147.283 103.39 147.082 103.404 146.92 103.421C142.357 103.919 138.579 102.096 135.999 98.1457C134.807 96.2899 133.961 94.234 133.5 92.0771C132.971 89.1177 131.03 87.5733 129.376 87.5733C128.109 87.5733 126.868 88.0673 126.137 88.8634C125.924 89.0796 125.757 89.3382 125.65 89.6224C125.542 89.9067 125.495 90.2103 125.511 90.5139C125.656 92.1658 126.431 92.6249 127.185 93.0694C127.464 93.2196 127.725 93.4014 127.962 93.6113C130.202 95.7514 129.402 98.1791 128.555 100.749L128.383 101.256C126.994 105.314 129.444 109.941 131.026 112.337C132.217 114.137 133.776 115.663 135.601 116.815L135.658 116.854C135.816 116.972 135.923 117.147 135.954 117.342Z" fill="#F47B20"/>
<path d="M148.636 130.925C148.453 130.924 148.277 130.858 148.139 130.739C148.001 130.62 147.91 130.455 147.883 130.274L146.721 122.452C146.706 122.353 146.711 122.252 146.736 122.155C146.76 122.058 146.804 121.966 146.863 121.886C146.923 121.806 146.998 121.738 147.084 121.687C147.17 121.635 147.265 121.601 147.364 121.587C147.463 121.572 147.564 121.577 147.661 121.602C147.758 121.626 147.849 121.669 147.93 121.729C148.01 121.789 148.078 121.864 148.129 121.949C148.18 122.035 148.214 122.13 148.229 122.23L149.391 130.052C149.407 130.16 149.399 130.27 149.368 130.375C149.338 130.48 149.285 130.577 149.213 130.66C149.142 130.742 149.053 130.809 148.954 130.854C148.855 130.9 148.747 130.923 148.637 130.923L148.636 130.925Z" fill="#F47B20"/>
<path d="M148.636 130.925C148.549 130.925 148.462 130.911 148.38 130.882L145.213 129.754C145.119 129.721 145.032 129.669 144.958 129.602C144.883 129.535 144.823 129.454 144.78 129.363C144.737 129.273 144.713 129.175 144.708 129.075C144.703 128.975 144.717 128.875 144.751 128.781C144.784 128.686 144.836 128.6 144.903 128.526C144.97 128.451 145.051 128.391 145.142 128.348C145.232 128.305 145.33 128.281 145.43 128.276C145.53 128.27 145.63 128.285 145.724 128.319L148.891 129.446C149.062 129.505 149.206 129.623 149.298 129.779C149.389 129.934 149.423 130.117 149.392 130.295C149.361 130.473 149.268 130.634 149.13 130.75C148.991 130.865 148.816 130.928 148.636 130.927V130.925Z" fill="#F47B20"/>
<path d="M144.325 132.424C144.145 132.425 143.969 132.362 143.831 132.246C143.693 132.13 143.6 131.968 143.57 131.79C143.54 131.611 143.574 131.428 143.667 131.273C143.76 131.118 143.904 131.001 144.075 130.942L148.386 129.445C148.577 129.378 148.786 129.391 148.968 129.479C149.15 129.567 149.29 129.724 149.356 129.915C149.422 130.105 149.41 130.315 149.322 130.497C149.234 130.679 149.077 130.818 148.886 130.884L144.575 132.382C144.495 132.41 144.41 132.424 144.325 132.424Z" fill="#F47B20"/>
<path d="M150.948 130.925H148.637C148.434 130.925 148.241 130.845 148.098 130.702C147.955 130.559 147.875 130.365 147.875 130.163C147.875 129.961 147.955 129.767 148.098 129.624C148.241 129.481 148.434 129.401 148.637 129.401H150.948C151.15 129.401 151.344 129.481 151.487 129.624C151.63 129.767 151.71 129.961 151.71 130.163C151.71 130.365 151.63 130.559 151.487 130.702C151.344 130.845 151.15 130.925 150.948 130.925Z" fill="#F47B20"/>
<path d="M135.793 131.33C135.668 131.33 135.545 131.299 135.434 131.24C135.324 131.181 135.23 131.095 135.161 130.991C135.091 130.887 135.048 130.768 135.036 130.643C135.024 130.518 135.042 130.393 135.09 130.277L138.088 123.049C138.165 122.863 138.314 122.714 138.5 122.637C138.687 122.559 138.896 122.559 139.083 122.636C139.27 122.713 139.418 122.861 139.496 123.047C139.573 123.234 139.573 123.444 139.496 123.63L136.499 130.86C136.441 130.999 136.343 131.119 136.218 131.203C136.092 131.286 135.944 131.331 135.793 131.33Z" fill="#F47B20"/>
<path d="M130.273 133.301C130.092 133.302 129.917 133.239 129.779 133.123C129.641 133.007 129.548 132.846 129.518 132.668C129.487 132.49 129.521 132.308 129.612 132.152C129.704 131.997 129.848 131.879 130.018 131.82L133.396 130.624L131.474 130.016C131.281 129.955 131.121 129.82 131.028 129.641C130.935 129.461 130.916 129.252 130.977 129.06C131.038 128.867 131.173 128.706 131.352 128.613C131.532 128.52 131.741 128.502 131.933 128.563L136.023 129.857C136.175 129.905 136.309 130 136.404 130.128C136.5 130.256 136.553 130.411 136.556 130.57C136.558 130.73 136.511 130.887 136.42 131.018C136.328 131.149 136.198 131.248 136.048 131.301L130.527 133.256C130.445 133.285 130.359 133.3 130.273 133.301Z" fill="#F47B20"/>
<path d="M138.221 131.346H135.792C135.59 131.346 135.396 131.266 135.253 131.123C135.11 130.98 135.03 130.786 135.03 130.584C135.03 130.382 135.11 130.188 135.253 130.045C135.396 129.902 135.59 129.822 135.792 129.822H138.217C138.419 129.822 138.613 129.902 138.755 130.045C138.898 130.188 138.979 130.382 138.979 130.584C138.979 130.786 138.898 130.98 138.755 131.123C138.613 131.266 138.419 131.346 138.217 131.346H138.221Z" fill="#F47B20"/>
<path d="M146.368 115.506C145.102 115.506 143.397 114.912 141.194 113.71C139.917 113.006 138.68 112.23 137.491 111.386C137.327 111.267 137.217 111.089 137.185 110.889C137.153 110.69 137.201 110.486 137.319 110.322C137.438 110.158 137.616 110.048 137.816 110.016C138.015 109.984 138.219 110.032 138.383 110.151C139.526 110.957 140.712 111.699 141.936 112.374C145.221 114.165 146.485 114.042 146.876 113.905C146.991 113.867 147.093 113.799 147.172 113.708C147.251 113.617 147.304 113.506 147.325 113.388C147.354 113.284 147.405 113.187 147.474 113.105C147.543 113.022 147.63 112.955 147.727 112.908C147.824 112.861 147.93 112.835 148.038 112.832C148.145 112.829 148.253 112.849 148.352 112.891C149.265 113.269 150.531 113.507 150.902 113.244C151.004 113.171 151.012 112.966 151.001 112.808C150.992 112.687 151.013 112.565 151.061 112.453C151.109 112.341 151.183 112.242 151.277 112.165C151.371 112.088 151.482 112.034 151.601 112.009C151.72 111.983 151.844 111.987 151.961 112.019C152.786 112.24 153.758 112.246 153.962 112.031C153.998 111.992 154.033 111.819 153.906 111.438C153.875 111.343 153.862 111.243 153.869 111.143C153.876 111.043 153.903 110.946 153.948 110.856C153.992 110.767 154.054 110.687 154.13 110.621C154.205 110.556 154.293 110.506 154.388 110.474C154.483 110.442 154.583 110.43 154.683 110.437C154.783 110.444 154.88 110.47 154.97 110.515C155.059 110.56 155.139 110.622 155.205 110.697C155.27 110.773 155.32 110.861 155.352 110.956C155.723 112.069 155.403 112.724 155.069 113.077C154.411 113.774 153.232 113.77 152.409 113.658C152.293 113.99 152.077 114.277 151.791 114.482C150.866 115.147 149.355 114.83 148.45 114.544C148.188 114.919 147.813 115.199 147.38 115.345C147.054 115.455 146.712 115.51 146.368 115.506Z" fill="#F47B20"/>
<path d="M128.533 91.4846C129.037 91.4846 129.445 91.0761 129.445 90.5722C129.445 90.0683 129.037 89.6598 128.533 89.6598C128.029 89.6598 127.62 90.0683 127.62 90.5722C127.62 91.0761 128.029 91.4846 128.533 91.4846Z" fill="#FDDAA5"/>
<path d="M128.529 92.2486C128.198 92.2486 127.874 92.1503 127.598 91.9663C127.323 91.7822 127.108 91.5206 126.981 91.2145C126.855 90.9084 126.821 90.5716 126.886 90.2466C126.951 89.9217 127.11 89.6232 127.345 89.389C127.579 89.1547 127.877 88.9951 128.202 88.9305C128.527 88.8659 128.864 88.899 129.17 89.0258C129.476 89.1526 129.738 89.3673 129.922 89.6428C130.106 89.9183 130.204 90.2421 130.204 90.5734C130.204 91.0176 130.027 91.4434 129.713 91.7575C129.399 92.0716 128.973 92.2482 128.529 92.2486ZM128.529 90.4223C128.5 90.4223 128.472 90.4309 128.448 90.4468C128.424 90.4628 128.406 90.4855 128.395 90.512C128.384 90.5386 128.381 90.5678 128.387 90.596C128.392 90.6242 128.406 90.65 128.426 90.6704C128.447 90.6907 128.472 90.7045 128.501 90.7101C128.529 90.7157 128.558 90.7129 128.585 90.7019C128.611 90.6909 128.634 90.6722 128.65 90.6484C128.666 90.6245 128.674 90.5964 128.674 90.5676C128.674 90.5484 128.671 90.5294 128.664 90.5116C128.656 90.4938 128.646 90.4776 128.632 90.464C128.619 90.4503 128.603 90.4395 128.585 90.4321C128.567 90.4247 128.548 90.4209 128.529 90.4209V90.4223Z" fill="#F47B20"/>
<path d="M92.0738 116.763C92.927 116.425 93.2171 115.139 92.7219 113.891C92.2266 112.643 91.1335 111.906 90.2803 112.245C89.4272 112.584 89.137 113.87 89.6323 115.117C90.1275 116.365 91.2206 117.102 92.0738 116.763Z" fill="#FDDAA5"/>
<path d="M91.6467 117.599C91.1644 117.591 90.6954 117.439 90.2999 117.163C89.6782 116.722 89.2017 116.107 88.9313 115.395C88.2703 113.731 88.7425 112.034 90.0065 111.533C90.6501 111.277 91.4012 111.388 92.068 111.838C92.6816 112.287 93.1558 112.9 93.4363 113.606C93.7167 114.313 93.7918 115.084 93.6531 115.832C93.4759 116.616 93.0051 117.212 92.3615 117.468C92.1337 117.556 91.8911 117.601 91.6467 117.599ZM90.7227 112.917C90.6696 112.917 90.6169 112.926 90.5673 112.945C90.1721 113.102 89.9948 113.94 90.3464 114.834C90.505 115.261 90.7848 115.632 91.1513 115.902C91.2661 115.979 91.5581 116.149 91.7993 116.047C92.0404 115.945 92.1363 115.627 92.1668 115.492C92.2486 115.045 92.1981 114.583 92.0216 114.164C91.863 113.737 91.5832 113.366 91.2167 113.096C91.0711 112.994 90.9002 112.934 90.7227 112.922V112.917Z" fill="#F47B20"/>
<path d="M86.512 114.375C86.384 114.375 86.2577 114.345 86.1432 114.288C86.0286 114.23 85.929 114.147 85.8522 114.045C85.7754 113.942 85.7235 113.823 85.7006 113.697C85.6777 113.571 85.6844 113.442 85.7203 113.319C85.8045 112.98 86.4728 110.596 88.7553 109.088C88.9199 108.979 89.1203 108.938 89.3144 108.974C89.5085 109.01 89.681 109.12 89.7955 109.281L91.4997 111.665C91.5685 111.762 91.6139 111.873 91.6323 111.99C91.6506 112.107 91.6413 112.227 91.6052 112.34C91.5691 112.453 91.5071 112.555 91.4242 112.64C91.3413 112.725 91.2398 112.789 91.1277 112.828L86.7692 114.331C86.729 114.345 86.6877 114.356 86.6457 114.363C86.6016 114.371 86.5568 114.375 86.512 114.375ZM89.011 110.805C88.5008 111.256 88.0714 111.791 87.7412 112.386L89.6662 111.722L89.011 110.805Z" fill="#F47B20"/>
<path d="M89.1512 110.51C89.0354 110.51 88.9211 110.484 88.817 110.433C87.5603 109.819 86.7831 108.34 86.8906 106.755C86.9163 106.24 87.0439 105.736 87.2658 105.271C87.4878 104.806 87.7997 104.39 88.1836 104.047C88.4766 103.788 88.8187 103.592 89.1894 103.469C89.5601 103.346 89.9518 103.299 90.3411 103.33C90.6877 103.362 91.0256 103.457 91.3377 103.611C91.5512 103.096 91.9035 102.651 92.3553 102.325C92.8071 102 93.3406 101.806 93.8962 101.766C94.5919 101.727 95.2779 101.943 95.827 102.371C96.1404 102.201 96.4877 102.101 96.844 102.081C97.5225 102.043 98.23 102.371 98.7865 102.987C99.3996 103.664 99.6945 104.529 99.5739 105.3C99.3269 106.88 98.2388 108.145 97.338 108.533C97.2461 108.573 97.1474 108.594 97.0473 108.595C96.9473 108.596 96.848 108.578 96.755 108.541C96.6621 108.504 96.5773 108.449 96.5056 108.38C96.4339 108.31 96.3766 108.227 96.337 108.135C96.2974 108.043 96.2763 107.944 96.2749 107.844C96.2735 107.744 96.2918 107.645 96.3287 107.552C96.3657 107.459 96.4206 107.374 96.4903 107.302C96.56 107.231 96.6432 107.173 96.7351 107.134C97.1012 106.977 97.8973 106.184 98.0673 105.066C98.1153 104.76 97.9497 104.34 97.6562 104.01C97.4208 103.75 97.1346 103.587 96.9298 103.602C96.6884 103.621 96.4631 103.73 96.2978 103.907C96.2225 103.983 96.1321 104.043 96.0324 104.082C95.9326 104.121 95.8258 104.138 95.7188 104.133C95.6119 104.128 95.5072 104.1 95.4117 104.051C95.3162 104.003 95.232 103.935 95.1645 103.852C95.0254 103.671 94.8449 103.525 94.6382 103.428C94.4315 103.331 94.2044 103.284 93.9761 103.293C93.1945 103.336 92.5785 104.07 92.5756 104.963C92.5752 105.12 92.5263 105.274 92.4354 105.402C92.3445 105.53 92.2161 105.627 92.0679 105.68C91.9197 105.732 91.7589 105.737 91.6076 105.695C91.4563 105.652 91.322 105.563 91.223 105.441C91.1006 105.282 90.9476 105.148 90.773 105.048C90.5984 104.948 90.4056 104.885 90.206 104.86C90.0192 104.847 89.8316 104.872 89.6546 104.933C89.4777 104.994 89.3148 105.091 89.1759 105.216C88.9463 105.427 88.7607 105.682 88.6298 105.965C88.4989 106.248 88.4253 106.555 88.4132 106.867C88.3492 107.827 88.7923 108.735 89.4897 109.075C89.6489 109.148 89.778 109.274 89.8552 109.431C89.9324 109.588 89.9531 109.767 89.9136 109.938C89.8742 110.109 89.7771 110.261 89.6388 110.368C89.5004 110.475 89.3292 110.532 89.1541 110.528L89.1512 110.51Z" fill="#F47B20"/>
<path d="M123.301 130.24C129.113 125.46 125.87 125.104 125.87 125.104C130.621 120.054 125.956 122.023 125.956 121.508C125.956 120.994 129.38 117.527 128.01 116.586C125.807 115.072 122.393 117.882 119.995 119.432C115.896 122.082 112.585 121.938 111.278 122.082C100.859 123.221 98.6886 111.359 98.6886 111.359C98.2237 108.752 96.364 106.227 93.8143 106.227C91.2646 106.227 89.0199 107.921 89.1913 109.994C89.4194 112.676 91.1919 112.925 91.8748 113.579C93.871 115.485 93.008 117.665 92.1348 120.34L92.1014 120.437C90.7706 124.327 92.591 128.794 94.8298 132.184C96.0838 134.074 97.7231 135.678 99.6402 136.891C101.586 147.351 108.763 141.068 108.763 141.068C114.186 143.551 117.869 138.585 117.869 138.585C123.605 136.788 123.261 128.569 123.261 128.569" fill="#FEEFD2"/>
<path d="M104.368 143.702C103.878 143.704 103.391 143.624 102.927 143.465C100.977 142.789 99.6435 140.734 98.9577 137.354C97.0661 136.11 95.4469 134.494 94.1982 132.605C92.4548 129.975 89.7859 124.866 91.384 120.192L91.5496 119.689C92.4344 117.006 92.8267 115.54 91.3506 114.129C91.1947 114.003 91.0274 113.892 90.8508 113.798C90.0241 113.31 88.641 112.49 88.4347 110.06C88.3985 109.546 88.4703 109.031 88.6455 108.547C88.8206 108.063 89.0953 107.621 89.4517 107.25C90.4774 106.134 92.1075 105.467 93.8103 105.467C96.8278 105.467 98.9228 108.364 99.4342 111.226C99.8673 113.195 100.646 115.072 101.734 116.769C104.012 120.23 107.192 121.762 111.191 121.326C111.382 121.306 111.599 121.292 111.852 121.274C113.37 121.173 116.194 120.984 119.581 118.794C119.908 118.582 120.256 118.347 120.624 118.095C123.071 116.432 126.117 114.362 128.44 115.958C128.607 116.071 128.749 116.217 128.857 116.387C128.966 116.557 129.038 116.747 129.069 116.946C129.251 118.018 128.389 119.319 127.317 120.783C127.839 120.803 128.382 120.95 128.644 121.488C129.01 122.239 128.587 123.198 127.092 124.893C127.266 125.07 127.394 125.286 127.464 125.524C127.695 126.3 127.573 127.681 123.907 130.726C123.814 131.531 123.66 132.327 123.447 133.108C122.575 136.257 120.804 138.371 118.318 139.239C117.584 140.105 116.708 140.842 115.729 141.418C113.55 142.686 111.192 142.871 108.878 141.95C108.115 142.524 106.311 143.702 104.368 143.702ZM100.399 136.78C100.957 139.754 101.974 141.52 103.422 142.024C105.602 142.784 108.24 140.519 108.266 140.495C108.377 140.399 108.513 140.337 108.658 140.316C108.803 140.295 108.951 140.316 109.084 140.376C111.095 141.296 113.075 141.204 114.971 140.1C115.847 139.589 116.623 138.922 117.261 138.133C117.356 138.004 117.491 137.908 117.644 137.86C122.75 136.262 122.505 128.679 122.503 128.602C122.494 128.4 122.567 128.204 122.703 128.055C122.84 127.906 123.031 127.818 123.233 127.81C123.434 127.802 123.631 127.874 123.78 128.011C123.929 128.148 124.017 128.338 124.025 128.54C124.025 128.547 124.025 128.57 124.025 128.605C126.139 126.647 126.01 125.965 126.007 125.958C125.943 125.909 125.868 125.876 125.789 125.862C125.648 125.847 125.514 125.793 125.402 125.706C125.29 125.619 125.205 125.502 125.156 125.369C125.107 125.236 125.096 125.092 125.124 124.953C125.153 124.814 125.219 124.685 125.317 124.582C126.502 123.323 126.958 122.643 127.134 122.304C126.974 122.304 126.796 122.326 126.682 122.336C126.203 122.38 125.789 122.419 125.466 122.124C125.381 122.046 125.313 121.951 125.267 121.845C125.22 121.739 125.196 121.625 125.196 121.51C125.196 121.106 125.462 120.744 126.045 119.949C126.466 119.399 126.854 118.824 127.207 118.228C127.583 117.551 127.582 117.275 127.574 117.211C126.101 116.22 123.543 117.959 121.486 119.356C121.111 119.612 120.759 119.853 120.413 120.074C116.694 122.479 113.614 122.689 111.958 122.795C111.724 122.811 111.522 122.824 111.361 122.842C106.797 123.34 103.02 121.517 100.44 117.567C99.2479 115.711 98.4013 113.655 97.9407 111.498C97.4119 108.539 95.4709 106.994 93.8161 106.994C92.5492 106.994 91.3085 107.488 90.5777 108.284C90.364 108.501 90.1978 108.759 90.09 109.043C89.9822 109.328 89.935 109.631 89.9515 109.935C90.0968 111.587 90.8712 112.046 91.6252 112.49C91.9042 112.64 92.1651 112.822 92.4025 113.032C94.6428 115.172 93.8422 117.6 92.9952 120.17L92.8238 120.689C91.4349 124.746 93.8844 129.372 95.4665 131.77C96.6593 133.572 98.2217 135.1 100.05 136.253C100.142 136.311 100.219 136.388 100.278 136.479C100.338 136.57 100.377 136.672 100.393 136.779L100.399 136.78Z" fill="#F47B20"/>
<path d="M113.07 150.349C112.888 150.349 112.711 150.283 112.573 150.163C112.435 150.044 112.344 149.879 112.318 149.698L111.155 141.876C111.141 141.777 111.146 141.676 111.17 141.579C111.195 141.482 111.238 141.39 111.298 141.31C111.357 141.23 111.432 141.162 111.518 141.111C111.604 141.059 111.699 141.025 111.798 141.011C111.897 140.996 111.998 141.001 112.095 141.026C112.192 141.05 112.284 141.093 112.364 141.153C112.444 141.213 112.512 141.288 112.564 141.374C112.615 141.459 112.649 141.555 112.663 141.654L113.826 149.476C113.841 149.575 113.837 149.677 113.813 149.775C113.789 149.872 113.746 149.965 113.687 150.046C113.627 150.127 113.552 150.195 113.465 150.247C113.379 150.299 113.283 150.333 113.184 150.347C113.146 150.351 113.108 150.351 113.07 150.349Z" fill="#F47B20"/>
<path d="M113.073 150.349C112.986 150.349 112.899 150.334 112.817 150.305L109.65 149.178C109.556 149.144 109.469 149.093 109.395 149.025C109.32 148.958 109.26 148.877 109.217 148.787C109.174 148.696 109.15 148.599 109.145 148.499C109.14 148.399 109.154 148.299 109.188 148.204C109.221 148.11 109.273 148.024 109.34 147.949C109.407 147.875 109.488 147.815 109.579 147.772C109.669 147.729 109.767 147.704 109.867 147.699C109.967 147.694 110.067 147.709 110.161 147.742L113.328 148.87C113.499 148.929 113.643 149.047 113.734 149.202C113.826 149.358 113.86 149.541 113.829 149.719C113.798 149.896 113.705 150.058 113.567 150.173C113.428 150.289 113.253 150.352 113.073 150.35V150.349Z" fill="#F47B20"/>
<path d="M108.762 151.847C108.582 151.848 108.406 151.784 108.268 151.668C108.13 151.552 108.037 151.39 108.007 151.212C107.977 151.034 108.011 150.851 108.104 150.695C108.197 150.54 108.341 150.423 108.512 150.365L112.823 148.867C112.917 148.834 113.018 148.82 113.117 148.826C113.217 148.832 113.315 148.857 113.405 148.901C113.495 148.945 113.576 149.005 113.642 149.08C113.709 149.155 113.76 149.242 113.793 149.337C113.826 149.431 113.839 149.531 113.834 149.631C113.828 149.731 113.802 149.829 113.759 149.919C113.715 150.009 113.654 150.09 113.579 150.156C113.504 150.223 113.417 150.274 113.323 150.306L109.018 151.804C108.936 151.833 108.849 151.847 108.762 151.847Z" fill="#F47B20"/>
<path d="M115.382 150.349H113.071C112.869 150.349 112.675 150.268 112.532 150.125C112.389 149.983 112.309 149.789 112.309 149.587C112.309 149.385 112.389 149.191 112.532 149.048C112.675 148.905 112.869 148.825 113.071 148.825H115.382C115.585 148.825 115.778 148.905 115.921 149.048C116.064 149.191 116.145 149.385 116.145 149.587C116.145 149.789 116.064 149.983 115.921 150.125C115.778 150.268 115.585 150.349 115.382 150.349Z" fill="#F47B20"/>
<path d="M100.232 150.756C100.107 150.755 99.984 150.724 99.8738 150.665C99.7635 150.606 99.6695 150.521 99.6 150.416C99.5305 150.312 99.4877 150.193 99.4753 150.068C99.463 149.944 99.4814 149.818 99.5291 149.702L102.526 142.474C102.564 142.382 102.621 142.298 102.691 142.227C102.762 142.156 102.846 142.1 102.938 142.062C103.03 142.023 103.129 142.004 103.229 142.004C103.329 142.003 103.428 142.023 103.521 142.061C103.613 142.099 103.697 142.155 103.768 142.226C103.839 142.297 103.895 142.38 103.933 142.473C103.972 142.565 103.992 142.664 103.992 142.764C103.992 142.864 103.972 142.963 103.934 143.056L100.937 150.284C100.88 150.423 100.782 150.543 100.656 150.627C100.531 150.711 100.383 150.756 100.232 150.756Z" fill="#F47B20"/>
<path d="M94.712 152.73C94.5317 152.731 94.3568 152.668 94.2185 152.552C94.0803 152.436 93.9877 152.275 93.9572 152.098C93.9266 151.92 93.9602 151.737 94.0519 151.582C94.1436 151.426 94.2874 151.309 94.4578 151.25L97.8356 150.054L95.9135 149.445C95.8181 149.415 95.7296 149.366 95.653 149.302C95.5765 149.237 95.5134 149.158 95.4673 149.07C95.3743 148.89 95.3563 148.681 95.4174 148.488C95.4784 148.296 95.6135 148.135 95.7929 148.042C95.9724 147.949 96.1814 147.931 96.3741 147.992L100.464 149.287C100.616 149.335 100.75 149.429 100.845 149.557C100.941 149.685 100.994 149.84 100.996 150C100.999 150.16 100.952 150.316 100.86 150.447C100.769 150.579 100.639 150.678 100.489 150.731L94.9677 152.685C94.8857 152.715 94.7992 152.73 94.712 152.73Z" fill="#F47B20"/>
<path d="M102.658 150.769H100.234C100.032 150.769 99.8377 150.688 99.6948 150.546C99.5519 150.403 99.4716 150.209 99.4716 150.007C99.4716 149.805 99.5519 149.611 99.6948 149.468C99.8377 149.325 100.032 149.245 100.234 149.245H102.658C102.861 149.245 103.054 149.325 103.197 149.468C103.34 149.611 103.42 149.805 103.42 150.007C103.42 150.209 103.34 150.403 103.197 150.546C103.054 150.688 102.861 150.769 102.658 150.769Z" fill="#F47B20"/>
<path d="M110.802 134.928C109.537 134.928 107.831 134.334 105.629 133.132C104.351 132.428 103.115 131.652 101.925 130.808C101.761 130.69 101.651 130.511 101.619 130.312C101.587 130.112 101.636 129.908 101.754 129.744C101.872 129.581 102.051 129.471 102.25 129.438C102.449 129.406 102.654 129.455 102.817 129.573C103.96 130.379 105.146 131.121 106.371 131.796C109.656 133.587 110.92 133.464 111.311 133.327C111.425 133.289 111.528 133.221 111.607 133.13C111.686 133.039 111.739 132.928 111.76 132.809C111.789 132.705 111.84 132.608 111.909 132.525C111.978 132.443 112.064 132.375 112.161 132.329C112.258 132.282 112.364 132.256 112.472 132.253C112.58 132.25 112.687 132.27 112.787 132.312C113.699 132.689 114.966 132.928 115.336 132.665C115.438 132.592 115.447 132.387 115.435 132.229C115.427 132.108 115.447 131.986 115.496 131.874C115.544 131.763 115.618 131.664 115.712 131.587C115.806 131.51 115.917 131.456 116.036 131.431C116.155 131.406 116.278 131.409 116.396 131.441C117.221 131.662 118.193 131.668 118.396 131.453C118.432 131.414 118.467 131.241 118.341 130.86C118.309 130.765 118.297 130.665 118.304 130.565C118.311 130.465 118.337 130.368 118.382 130.279C118.427 130.189 118.489 130.109 118.564 130.044C118.64 129.978 118.728 129.928 118.823 129.896C118.917 129.865 119.018 129.852 119.118 129.859C119.217 129.866 119.315 129.893 119.404 129.937C119.494 129.982 119.574 130.044 119.639 130.12C119.705 130.195 119.755 130.283 119.787 130.378C120.157 131.491 119.837 132.146 119.503 132.499C118.845 133.196 117.667 133.191 116.843 133.08C116.727 133.412 116.512 133.7 116.226 133.904C115.299 134.569 113.789 134.253 112.884 133.966C112.623 134.341 112.248 134.622 111.815 134.767C111.489 134.877 111.146 134.932 110.802 134.928Z" fill="#F47B20"/>
<path d="M92.9671 110.907C93.471 110.907 93.8795 110.498 93.8795 109.994C93.8795 109.491 93.471 109.082 92.9671 109.082C92.4632 109.082 92.0547 109.491 92.0547 109.994C92.0547 110.498 92.4632 110.907 92.9671 110.907Z" fill="#FDDAA5"/>
<path d="M92.9684 111.67C92.637 111.67 92.3132 111.571 92.0377 111.387C91.7622 111.203 91.5475 110.942 91.4207 110.636C91.2939 110.329 91.2608 109.993 91.3254 109.668C91.39 109.343 91.5496 109.044 91.7839 108.81C92.0181 108.576 92.3166 108.416 92.6416 108.352C92.9665 108.287 93.3033 108.32 93.6094 108.447C93.9155 108.574 94.1771 108.788 94.3612 109.064C94.5452 109.339 94.6435 109.663 94.6435 109.994C94.6431 110.439 94.4665 110.864 94.1524 111.179C93.8384 111.493 93.4125 111.669 92.9684 111.67ZM92.9684 109.843C92.9396 109.843 92.9115 109.852 92.8876 109.868C92.8637 109.884 92.8451 109.907 92.8341 109.933C92.8231 109.96 92.8202 109.989 92.8259 110.017C92.8315 110.045 92.8453 110.071 92.8656 110.091C92.8859 110.112 92.9118 110.126 92.94 110.131C92.9682 110.137 92.9974 110.134 93.024 110.123C93.0505 110.112 93.0732 110.093 93.0891 110.069C93.1051 110.045 93.1136 110.017 93.1136 109.989C93.1136 109.97 93.1099 109.951 93.1026 109.933C93.0953 109.915 93.0846 109.899 93.0711 109.886C93.0576 109.872 93.0416 109.862 93.024 109.854C93.0063 109.847 92.9874 109.843 92.9684 109.843Z" fill="#F47B20"/>
</svg>
