<svg width="172" height="172" viewBox="0 0 172 172" fill="none" xmlns="http://www.w3.org/2000/svg">
<path d="M8.08098 105.214C7.90453 105.213 7.73357 105.152 7.59678 105.041C7.45999 104.929 7.3657 104.774 7.32974 104.601C6.75336 101.824 6.33726 99.0153 6.08351 96.1898C6.06526 95.9869 6.12837 95.785 6.25896 95.6286C6.38955 95.4722 6.57691 95.3741 6.77985 95.3558C6.98278 95.3376 7.18465 95.4007 7.34105 95.5313C7.49745 95.6619 7.59558 95.8492 7.61383 96.0522C7.86217 98.8186 8.26947 101.568 8.8337 104.288C8.85674 104.4 8.85461 104.515 8.82747 104.626C8.80033 104.737 8.74887 104.84 8.6768 104.929C8.60473 105.017 8.51387 105.089 8.41082 105.138C8.30776 105.187 8.19509 105.212 8.08098 105.212V105.214ZM6.57995 88.4782H6.56092C6.45976 88.4759 6.36005 88.4537 6.26753 88.4127C6.17501 88.3717 6.0915 88.3129 6.02181 88.2395C5.95213 88.1662 5.89764 88.0797 5.86148 87.9852C5.82533 87.8907 5.80821 87.79 5.81113 87.6889C5.85946 85.7515 5.98687 83.7862 6.18749 81.8488C6.27828 80.9701 6.38519 80.0915 6.50673 79.2128C6.53489 79.0111 6.64205 78.8287 6.80463 78.706C6.96721 78.5832 7.1719 78.5301 7.37367 78.5582C7.57543 78.5864 7.75775 78.6935 7.88051 78.8561C8.00327 79.0187 8.05643 79.2234 8.02827 79.4252C7.90965 80.2789 7.80421 81.1459 7.71635 82.004C7.52011 83.9078 7.39563 85.8276 7.34731 87.7255C7.34347 87.9265 7.26094 88.1179 7.11745 88.2587C6.97395 88.3994 6.78096 88.4782 6.57995 88.4782ZM8.8996 71.838C8.7825 71.8379 8.66698 71.811 8.56186 71.7594C8.45674 71.7078 8.36479 71.6329 8.29303 71.5404C8.22127 71.4478 8.17158 71.3401 8.14778 71.2255C8.12397 71.1108 8.12668 70.9923 8.15567 70.8788C8.8647 68.1305 9.73111 65.4251 10.7506 62.7762C10.8238 62.5861 10.9696 62.4328 11.1558 62.3502C11.342 62.2675 11.5534 62.2622 11.7435 62.3354C11.9336 62.4086 12.0869 62.5543 12.1695 62.7405C12.2522 62.9267 12.2575 63.1382 12.1843 63.3283C11.186 65.9221 10.3377 68.5712 9.64352 71.2625C9.601 71.4275 9.50486 71.5737 9.3702 71.6782C9.23554 71.7826 9.07001 71.8393 8.8996 71.8395V71.838ZM14.9403 56.1511C14.8091 56.1503 14.6803 56.1159 14.5662 56.0511C14.452 55.9864 14.3564 55.8936 14.2882 55.7814C14.2201 55.6693 14.1818 55.5416 14.1771 55.4104C14.1723 55.2793 14.2011 55.1492 14.2608 55.0323C15.5801 52.5201 17.0425 50.0856 18.6409 47.741C18.7557 47.5726 18.9326 47.4567 19.1328 47.4188C19.333 47.3809 19.5401 47.4241 19.7085 47.5389C19.8768 47.6537 19.9927 47.8306 20.0306 48.0308C20.0685 48.231 20.0253 48.4381 19.9106 48.6065C18.346 50.9007 16.9143 53.2828 15.6227 55.7411C15.5576 55.8656 15.4595 55.9698 15.3391 56.0424C15.2188 56.115 15.0809 56.1531 14.9403 56.1526V56.1511ZM24.4093 42.267C24.2617 42.2681 24.1169 42.2266 23.9924 42.1475C23.8678 42.0684 23.7686 41.9551 23.7068 41.8211C23.645 41.6871 23.6231 41.5381 23.6438 41.392C23.6645 41.2459 23.7269 41.1089 23.8235 40.9973C25.6797 38.8526 27.6565 36.8153 29.7441 34.8951C29.8941 34.7572 30.0926 34.6845 30.2961 34.6931C30.4996 34.7016 30.6914 34.7906 30.8293 34.9405C30.9672 35.0904 31.0398 35.289 31.0313 35.4925C31.0228 35.696 30.9338 35.8878 30.7839 36.0256C28.7427 37.9055 26.81 39.8999 24.995 41.999C24.9227 42.0835 24.8328 42.1513 24.7317 42.1976C24.6305 42.2438 24.5205 42.2675 24.4093 42.267ZM36.7778 30.8943C36.6155 30.8946 36.4574 30.8436 36.326 30.7484C36.1947 30.6533 36.0968 30.519 36.0466 30.3648C35.9963 30.2105 35.9962 30.0444 36.0462 29.8901C36.0963 29.7358 36.194 29.6013 36.3252 29.506C38.6177 27.8372 41.0032 26.3 43.4701 24.9019C43.6474 24.8015 43.8574 24.7756 44.0537 24.83C44.2501 24.8844 44.4168 25.0146 44.5172 25.1919C44.6176 25.3692 44.6435 25.5791 44.5891 25.7754C44.5347 25.9718 44.4046 26.1385 44.2273 26.2389C41.8113 27.6085 39.4752 29.1144 37.2303 30.7493C37.0978 30.8451 36.9382 30.8959 36.7748 30.8943H36.7778ZM51.3927 22.6174C51.2159 22.6163 51.0449 22.5543 50.9086 22.4417C50.7723 22.3291 50.6791 22.1729 50.6446 21.9995C50.6102 21.8262 50.6367 21.6462 50.7196 21.4901C50.8025 21.334 50.9368 21.2113 51.0998 21.1427C53.7066 20.0351 56.3747 19.0778 59.0911 18.2754C59.1878 18.2466 59.2893 18.237 59.3897 18.2474C59.4901 18.2578 59.5875 18.2878 59.6763 18.3358C59.7651 18.3838 59.8436 18.4488 59.9072 18.5272C59.9709 18.6055 60.0185 18.6956 60.0474 18.7923C60.0762 18.8891 60.0857 18.9905 60.0754 19.091C60.065 19.1914 60.035 19.2887 59.987 19.3775C59.9389 19.4663 59.8739 19.5448 59.7956 19.6085C59.7173 19.6721 59.6272 19.7198 59.5304 19.7486C56.8675 20.5319 54.2516 21.4672 51.6958 22.55C51.5995 22.5934 51.4953 22.6163 51.3897 22.6174H51.3927Z" fill="#F47B20"/>
<path d="M76.3968 163.588H76.3573C75.0261 163.523 73.6774 163.419 72.3477 163.281C70.8657 163.134 69.3691 162.928 67.9017 162.686C67.7008 162.653 67.5211 162.542 67.4023 162.376C67.2836 162.211 67.2354 162.005 67.2684 161.804C67.3014 161.603 67.4129 161.423 67.5784 161.305C67.7438 161.186 67.9497 161.138 68.1507 161.171C69.5888 161.406 71.0532 161.603 72.5059 161.756C73.8092 161.891 75.1301 161.992 76.4335 162.058C76.637 162.063 76.8301 162.149 76.9705 162.296C77.1108 162.444 77.1868 162.641 77.1818 162.844C77.1767 163.048 77.091 163.241 76.9436 163.382C76.7961 163.522 76.5989 163.598 76.3954 163.593L76.3968 163.588ZM84.8099 163.527C84.6064 163.533 84.4087 163.459 84.2603 163.319C84.1118 163.18 84.0248 162.987 84.0184 162.784C84.012 162.58 84.0867 162.382 84.2261 162.234C84.3655 162.086 84.5581 161.999 84.7616 161.992C87.5329 161.812 90.2915 161.474 93.0239 160.977C93.2243 160.941 93.431 160.985 93.5985 161.101C93.766 161.217 93.8807 161.395 93.9172 161.595C93.9537 161.796 93.9091 162.002 93.7932 162.17C93.6773 162.338 93.4996 162.452 93.2992 162.489C90.5087 162.996 87.6914 163.342 84.8612 163.525L84.8099 163.527ZM59.8138 160.862C59.7424 160.862 59.6715 160.852 59.6029 160.832C56.874 160.056 54.1922 159.123 51.5705 158.038C51.3824 157.961 51.2328 157.811 51.1546 157.623C51.0765 157.435 51.0762 157.224 51.1539 157.036C51.2316 156.848 51.3808 156.698 51.5688 156.62C51.7568 156.542 51.9681 156.542 52.1563 156.619C54.7235 157.681 57.3496 158.595 60.0217 159.355C60.201 159.404 60.3562 159.517 60.4583 159.673C60.5605 159.828 60.6026 160.016 60.577 160.2C60.5514 160.384 60.4598 160.553 60.3191 160.675C60.1784 160.796 59.9983 160.863 59.8123 160.862H59.8138ZM101.336 160.52C101.151 160.521 100.973 160.456 100.832 160.336C100.692 160.216 100.6 160.049 100.573 159.866C100.546 159.684 100.585 159.497 100.684 159.342C100.783 159.186 100.935 159.071 101.112 159.018C103.768 158.208 106.376 157.247 108.923 156.139C109.016 156.099 109.115 156.077 109.216 156.075C109.317 156.073 109.417 156.091 109.511 156.128C109.605 156.165 109.691 156.22 109.763 156.29C109.836 156.36 109.894 156.444 109.934 156.537C109.975 156.629 109.996 156.729 109.998 156.829C110 156.93 109.982 157.031 109.945 157.124C109.908 157.218 109.853 157.304 109.783 157.377C109.713 157.449 109.629 157.507 109.537 157.548C106.936 158.679 104.273 159.66 101.56 160.487C101.486 160.509 101.41 160.521 101.333 160.52H101.336ZM44.2865 154.433C44.1558 154.433 44.0273 154.4 43.9131 154.336C41.4361 152.955 39.0403 151.434 36.7374 149.779C36.6555 149.72 36.586 149.646 36.5328 149.56C36.4796 149.474 36.4439 149.379 36.4276 149.279C36.4112 149.18 36.4147 149.078 36.4377 148.98C36.4607 148.882 36.5029 148.789 36.5617 148.707C36.6206 148.625 36.695 148.556 36.7807 148.502C36.8664 148.449 36.9617 148.413 37.0613 148.397C37.1608 148.381 37.2626 148.384 37.3608 148.407C37.459 148.43 37.5517 148.472 37.6337 148.531C39.8895 150.152 42.2364 151.642 44.6629 152.995C44.8124 153.077 44.9302 153.207 44.9976 153.364C45.0651 153.52 45.0783 153.695 45.0353 153.86C44.9923 154.026 44.8955 154.172 44.7601 154.276C44.6248 154.38 44.4586 154.435 44.288 154.434L44.2865 154.433ZM116.74 153.816C116.571 153.817 116.406 153.761 116.272 153.659C116.138 153.556 116.041 153.412 115.997 153.248C115.953 153.085 115.964 152.912 116.029 152.755C116.094 152.599 116.208 152.469 116.355 152.384C118.758 150.991 121.08 149.462 123.31 147.805C123.473 147.683 123.678 147.632 123.88 147.661C124.081 147.691 124.263 147.8 124.384 147.963C124.506 148.127 124.558 148.332 124.528 148.533C124.498 148.735 124.39 148.916 124.226 149.038C121.95 150.729 119.579 152.29 117.125 153.712C117.008 153.782 116.874 153.818 116.737 153.818L116.74 153.816ZM130.225 143.794C130.07 143.794 129.92 143.748 129.792 143.662C129.664 143.575 129.566 143.452 129.509 143.309C129.452 143.166 129.44 143.008 129.474 142.858C129.508 142.708 129.586 142.571 129.699 142.466C131.725 140.565 133.642 138.551 135.439 136.432C135.571 136.277 135.759 136.18 135.962 136.163C136.165 136.147 136.366 136.211 136.522 136.343C136.677 136.475 136.774 136.663 136.79 136.866C136.807 137.068 136.743 137.27 136.611 137.425C134.777 139.588 132.821 141.644 130.753 143.584C130.61 143.72 130.419 143.795 130.222 143.794H130.225Z" fill="#F47B20"/>
<path d="M153.401 90.978H153.392C153.291 90.9769 153.191 90.9559 153.099 90.9163C153.006 90.8766 152.922 90.8192 152.852 90.7471C152.781 90.675 152.726 90.5898 152.688 90.4962C152.651 90.4027 152.632 90.3027 152.633 90.2019C152.633 89.9334 152.633 89.6654 152.633 89.3979C152.633 86.8887 152.503 84.3812 152.244 81.8854C152.233 81.7852 152.243 81.6838 152.271 81.5871C152.3 81.4905 152.347 81.4004 152.411 81.3221C152.474 81.2437 152.553 81.1787 152.641 81.1306C152.73 81.0826 152.827 81.0524 152.928 81.0419C153.028 81.0315 153.129 81.0408 153.226 81.0695C153.323 81.0982 153.413 81.1457 153.491 81.2092C153.569 81.2727 153.634 81.351 153.682 81.4396C153.73 81.5283 153.761 81.6255 153.771 81.7258C154.036 84.2746 154.169 86.8354 154.169 89.3979C154.169 89.6713 154.169 89.9446 154.169 90.218C154.167 90.4205 154.086 90.614 153.942 90.7564C153.798 90.8988 153.603 90.9784 153.401 90.978ZM151.658 74.2705C151.484 74.2701 151.315 74.2104 151.179 74.1013C151.043 73.9922 150.948 73.8401 150.91 73.6701C150.305 70.9615 149.546 68.2899 148.635 65.6685C148.602 65.5732 148.588 65.4723 148.594 65.3716C148.6 65.2709 148.626 65.1724 148.67 65.0816C148.714 64.9908 148.775 64.9096 148.851 64.8426C148.926 64.7756 149.014 64.724 149.109 64.691C149.204 64.6579 149.305 64.6439 149.406 64.6498C149.507 64.6557 149.605 64.6814 149.696 64.7254C149.787 64.7694 149.868 64.8308 149.935 64.9062C150.002 64.9816 150.054 65.0694 150.087 65.1647C151.017 67.8418 151.792 70.5701 152.409 73.3362C152.434 73.4485 152.434 73.565 152.408 73.6771C152.382 73.7892 152.331 73.894 152.259 73.9838C152.187 74.0737 152.096 74.1462 151.992 74.196C151.888 74.2459 151.774 74.2718 151.659 74.2719L151.658 74.2705ZM146.146 58.4123C146.001 58.4121 145.858 58.3707 145.736 58.2929C145.613 58.2152 145.515 58.1042 145.453 57.9729C144.246 55.4721 142.897 53.0421 141.413 50.6948C141.304 50.5225 141.268 50.3141 141.313 50.1152C141.357 49.9164 141.479 49.7435 141.652 49.6345C141.824 49.5256 142.032 49.4895 142.231 49.5343C142.43 49.5791 142.603 49.701 142.712 49.8732C144.226 52.2717 145.602 54.7545 146.834 57.3096C146.89 57.4266 146.916 57.556 146.908 57.6855C146.901 57.8151 146.861 57.9408 146.792 58.0507C146.723 58.1606 146.627 58.2513 146.514 58.3143C146.4 58.3773 146.273 58.4105 146.143 58.4108L146.146 58.4123ZM137.169 44.2074C137.053 44.2069 136.94 44.1803 136.836 44.1295C136.732 44.0788 136.641 44.0053 136.57 43.9145C134.827 41.7565 132.963 39.6992 130.988 37.7522C130.916 37.6814 130.859 37.5971 130.82 37.5042C130.781 37.4112 130.76 37.3115 130.759 37.2107C130.759 37.1098 130.778 37.0099 130.816 36.9165C130.854 36.8231 130.91 36.7381 130.981 36.6664C131.052 36.5946 131.136 36.5376 131.229 36.4984C131.322 36.4593 131.422 36.4388 131.523 36.4382C131.623 36.4376 131.723 36.4568 131.817 36.4949C131.91 36.5329 131.995 36.5889 132.067 36.6598C134.085 38.6526 135.988 40.7584 137.768 42.967C137.859 43.0798 137.916 43.2159 137.933 43.3598C137.95 43.5036 137.925 43.6493 137.863 43.7799C137.8 43.9106 137.702 44.0209 137.58 44.0981C137.457 44.1753 137.315 44.2162 137.17 44.2162L137.169 44.2074ZM125.209 32.4042C125.037 32.4041 124.871 32.3464 124.736 32.2402C122.549 30.5314 120.265 28.9492 117.897 27.5013C117.811 27.4486 117.736 27.3795 117.677 27.2979C117.618 27.2163 117.575 27.1239 117.552 27.0258C117.528 26.9278 117.524 26.8261 117.54 26.7265C117.556 26.6269 117.591 26.5314 117.644 26.4455C117.697 26.3595 117.766 26.2847 117.847 26.2255C117.929 26.1662 118.021 26.1236 118.119 26.1001C118.217 26.0766 118.319 26.0726 118.419 26.0884C118.518 26.1042 118.614 26.1394 118.7 26.1921C121.118 27.6747 123.45 29.2946 125.683 31.0437C125.81 31.1422 125.902 31.2776 125.947 31.431C125.992 31.5844 125.989 31.7481 125.936 31.8993C125.884 32.0505 125.786 32.1816 125.656 32.2742C125.525 32.3668 125.369 32.4164 125.209 32.4159V32.4042ZM110.878 23.6264C110.767 23.6263 110.657 23.6018 110.556 23.5547C108.035 22.3861 105.448 21.3638 102.809 20.4926C102.615 20.4287 102.454 20.2903 102.362 20.1078C102.27 19.9253 102.254 19.7137 102.318 19.5195C102.382 19.3253 102.52 19.1644 102.703 19.0723C102.885 18.9802 103.097 18.9643 103.291 19.0282C105.985 19.9178 108.625 20.9617 111.199 22.1547C111.358 22.228 111.487 22.3535 111.565 22.5104C111.643 22.6674 111.665 22.8463 111.627 23.0174C111.59 23.1885 111.494 23.3415 111.358 23.4509C111.221 23.5604 111.051 23.6198 110.875 23.6191L110.878 23.6264Z" fill="#F47B20"/>
<path d="M132.021 95.306C134.99 65.9207 113.574 39.693 84.189 36.7248C54.8037 33.7566 28.5761 55.1719 25.6078 84.5572C22.6396 113.942 44.0549 140.17 73.4402 143.138C102.825 146.107 129.053 124.691 132.021 95.306Z" fill="#FBBF78"/>
<path d="M110.448 99.464C111.308 99.1227 111.6 97.8265 111.101 96.5688C110.602 95.3112 109.5 94.5684 108.64 94.9098C107.78 95.2511 107.488 96.5473 107.987 97.805C108.486 99.0626 109.588 99.8054 110.448 99.464Z" fill="#FDDAA5"/>
<path d="M110.005 100.305C108.924 100.305 107.817 99.4424 107.274 98.0761C106.607 96.3993 107.083 94.6889 108.357 94.1836C109.631 93.6784 111.149 94.5966 111.815 96.2734C112.481 97.9501 112.005 99.6606 110.731 100.166C110.5 100.258 110.254 100.305 110.005 100.305ZM109.085 95.5822C109.03 95.5817 108.976 95.5917 108.924 95.6114C108.526 95.7696 108.347 96.6146 108.702 97.5152C109.056 98.4158 109.768 98.902 110.166 98.7438C110.564 98.5857 110.743 97.7407 110.389 96.8401C110.077 96.0581 109.491 95.5836 109.087 95.5836L109.085 95.5822Z" fill="#F47B20"/>
<path d="M104.84 97.0526C104.711 97.0525 104.584 97.0224 104.468 96.9647C104.353 96.9069 104.252 96.823 104.175 96.7197C104.098 96.6165 104.045 96.4966 104.022 96.3695C103.999 96.2425 104.006 96.1119 104.042 95.988C104.127 95.6482 104.801 93.2436 107.101 91.7236C107.267 91.6138 107.469 91.5727 107.665 91.609C107.86 91.6454 108.034 91.7563 108.15 91.9183L109.867 94.3215C109.937 94.4187 109.983 94.5307 110.001 94.6488C110.02 94.7668 110.01 94.8875 109.974 95.0012C109.937 95.115 109.875 95.2187 109.791 95.3041C109.708 95.3894 109.606 95.4541 109.493 95.493L105.099 97.0087C105.059 97.0229 105.017 97.0336 104.975 97.0409C104.93 97.0485 104.885 97.0524 104.84 97.0526ZM105.502 96.4639L105.49 96.4947L105.502 96.4639ZM107.36 93.456C106.849 93.9105 106.418 94.4482 106.086 95.0463L108.019 94.3786L107.36 93.456Z" fill="#F47B20"/>
<path d="M107.499 93.1586C107.382 93.1588 107.267 93.1323 107.162 93.081C105.895 92.4616 105.112 90.9708 105.22 89.3731C105.246 88.8545 105.375 88.3462 105.598 87.8777C105.822 87.4091 106.137 86.9896 106.524 86.6434C106.819 86.3831 107.164 86.185 107.537 86.0609C107.911 85.9369 108.306 85.8895 108.698 85.9215C109.048 85.9533 109.388 86.0491 109.703 86.2041C109.918 85.6855 110.273 85.2369 110.729 84.9085C111.184 84.5801 111.722 84.3847 112.282 84.3443C112.983 84.3061 113.674 84.523 114.228 84.9549C114.544 84.7828 114.894 84.6828 115.253 84.6621C115.937 84.624 116.65 84.9549 117.211 85.5759C117.829 86.2583 118.126 87.1296 118.005 87.9072C117.756 89.5005 116.659 90.7745 115.751 91.1655C115.658 91.2054 115.559 91.2267 115.458 91.2282C115.357 91.2296 115.257 91.2111 115.163 91.1739C115.07 91.1366 114.984 91.0813 114.912 91.011C114.84 90.9407 114.782 90.8569 114.742 90.7643C114.702 90.6717 114.681 90.5722 114.679 90.4713C114.678 90.3705 114.696 90.2704 114.734 90.1767C114.771 90.083 114.826 89.9976 114.896 89.9253C114.967 89.853 115.051 89.7952 115.143 89.7553C115.512 89.5972 116.315 88.7976 116.486 87.6714C116.534 87.3624 116.367 86.9392 116.072 86.6068C115.834 86.3447 115.547 86.1807 115.339 86.1953C115.096 86.2145 114.869 86.3236 114.702 86.5014C114.627 86.5783 114.536 86.6384 114.435 86.6777C114.335 86.717 114.227 86.7347 114.119 86.7296C114.011 86.7245 113.906 86.6967 113.809 86.648C113.713 86.5993 113.628 86.5309 113.56 86.4472C113.42 86.2642 113.238 86.1175 113.03 86.0194C112.821 85.9213 112.592 85.8746 112.362 85.8834C111.574 85.9273 110.953 86.6668 110.95 87.5675C110.95 87.7259 110.901 87.8804 110.809 88.0097C110.718 88.1389 110.588 88.2367 110.439 88.2894C110.289 88.3422 110.127 88.3475 109.975 88.3045C109.822 88.2615 109.687 88.1723 109.587 88.0493C109.464 87.8884 109.31 87.7537 109.134 87.6531C108.958 87.5525 108.763 87.4881 108.562 87.4635C108.374 87.4504 108.185 87.4754 108.006 87.537C107.828 87.5987 107.664 87.6957 107.524 87.8223C107.292 88.0352 107.105 88.2919 106.973 88.5773C106.841 88.8628 106.767 89.1716 106.755 89.4859C106.69 90.4538 107.137 91.3691 107.84 91.7132C108 91.787 108.131 91.9138 108.208 92.0722C108.286 92.2307 108.307 92.4112 108.267 92.5832C108.228 92.7553 108.13 92.9083 107.99 93.0166C107.851 93.1249 107.678 93.1818 107.502 93.1777L107.499 93.1586Z" fill="#F47B20"/>
<path d="M141.923 113.046C147.781 108.228 144.512 107.869 144.512 107.869C149.301 102.778 144.599 104.763 144.599 104.244C144.599 103.726 148.05 100.232 146.669 99.2829C144.449 97.757 141.008 100.589 138.59 102.152C134.459 104.823 131.122 104.678 129.804 104.823C119.302 105.971 117.115 94.0139 117.115 94.0139C116.646 91.3868 114.772 88.8416 112.201 88.8416C109.631 88.8416 107.369 90.5491 107.542 92.6389C107.772 95.3422 109.558 95.5926 110.246 96.2516C112.259 98.1729 111.389 100.371 110.509 103.067L110.475 103.165C109.133 107.085 110.968 111.588 113.225 115.005C114.489 116.91 116.141 118.527 118.074 119.75C120.035 130.293 127.269 123.96 127.269 123.96C132.736 126.463 136.448 121.457 136.448 121.457C142.229 119.646 141.882 111.361 141.882 111.361" fill="#FEEFD2"/>
<path d="M122.833 126.613C122.339 126.616 121.847 126.535 121.38 126.375C119.415 125.694 118.07 123.621 117.379 120.215C115.473 118.961 113.84 117.332 112.582 115.428C110.825 112.777 108.133 107.627 109.745 102.916L109.912 102.409C110.804 99.7045 111.199 98.2269 109.712 96.8064C109.554 96.6797 109.386 96.5679 109.208 96.4725C108.375 95.9805 106.98 95.1546 106.771 92.7031C106.734 92.1856 106.807 91.6662 106.983 91.1784C107.16 90.6906 107.437 90.2452 107.796 89.8709C108.83 88.7463 110.473 88.0741 112.189 88.0741C115.231 88.0741 117.343 90.9942 117.858 93.8791C118.296 95.8641 119.083 97.7556 120.182 99.4658C122.478 102.954 125.685 104.499 129.714 104.06C129.907 104.039 130.126 104.025 130.38 104.007C131.911 103.904 134.757 103.714 138.171 101.507C138.501 101.293 138.852 101.056 139.223 100.803C141.689 99.1261 144.759 97.0393 147.101 98.6487C147.269 98.7624 147.412 98.9094 147.522 99.0807C147.631 99.252 147.703 99.4439 147.735 99.6445C147.918 100.725 147.05 102.036 145.969 103.512C146.495 103.533 147.043 103.68 147.306 104.222C147.675 104.979 147.249 105.946 145.742 107.655C145.917 107.833 146.045 108.051 146.116 108.29C146.348 109.072 146.225 110.465 142.531 113.534C142.437 114.345 142.282 115.147 142.066 115.935C141.188 119.11 139.403 121.24 136.898 122.115C136.158 122.988 135.276 123.73 134.289 124.311C132.092 125.59 129.716 125.776 127.383 124.847C126.614 125.427 124.797 126.613 122.833 126.613ZM118.83 119.635C119.393 122.636 120.419 124.415 121.882 124.923C124.054 125.676 126.734 123.405 126.76 123.381C126.872 123.284 127.009 123.221 127.156 123.199C127.302 123.178 127.452 123.2 127.586 123.261C129.613 124.188 131.609 124.096 133.52 122.983C134.403 122.467 135.185 121.796 135.828 121C135.925 120.87 136.06 120.773 136.215 120.725C141.361 119.114 141.115 111.471 141.112 111.394C141.103 111.19 141.176 110.991 141.314 110.842C141.452 110.692 141.644 110.603 141.847 110.595C142.051 110.586 142.25 110.659 142.399 110.797C142.549 110.935 142.638 111.127 142.646 111.331C142.646 111.338 142.646 111.361 142.646 111.396C144.777 109.422 144.647 108.736 144.644 108.728C144.577 108.675 144.497 108.641 144.412 108.63C144.27 108.62 144.134 108.569 144.021 108.482C143.907 108.396 143.821 108.278 143.774 108.144C143.725 108.007 143.715 107.859 143.746 107.717C143.777 107.575 143.848 107.445 143.95 107.341C145.145 106.072 145.604 105.385 145.782 105.045C145.621 105.045 145.44 105.067 145.326 105.077C144.843 105.121 144.426 105.161 144.1 104.864C144.015 104.785 143.946 104.689 143.899 104.583C143.852 104.476 143.828 104.361 143.828 104.244C143.828 103.837 144.096 103.472 144.683 102.671C145.108 102.117 145.499 101.537 145.855 100.936C146.234 100.254 146.233 99.9754 146.225 99.911C144.742 98.9123 142.162 100.665 140.088 102.075C139.71 102.333 139.356 102.576 139.007 102.799C135.258 105.222 132.154 105.435 130.484 105.542C130.249 105.558 130.045 105.571 129.882 105.589C125.281 106.091 121.475 104.253 118.874 100.271C117.673 98.4007 116.82 96.3284 116.356 94.1544C115.823 91.1713 113.866 89.6147 112.198 89.6147C110.921 89.6147 109.672 90.1126 108.934 90.9151C108.719 91.133 108.551 91.3936 108.442 91.6801C108.334 91.9666 108.286 92.2727 108.303 92.5787C108.449 94.2437 109.23 94.7064 109.99 95.1546C110.271 95.3059 110.534 95.4892 110.773 95.7008C113.031 97.8579 112.224 100.305 111.371 102.895L111.235 103.311L111.198 103.421C109.799 107.51 112.267 112.173 113.863 114.587C115.065 116.404 116.64 117.945 118.483 119.107C118.576 119.165 118.654 119.243 118.714 119.334C118.774 119.426 118.814 119.529 118.83 119.637V119.635Z" fill="#F47B20"/>
<path d="M131.605 133.313C131.421 133.313 131.243 133.247 131.103 133.126C130.964 133.006 130.873 132.839 130.846 132.657L129.675 124.773C129.66 124.673 129.665 124.571 129.69 124.473C129.714 124.375 129.758 124.283 129.818 124.202C129.878 124.121 129.954 124.053 130.04 124.001C130.127 123.949 130.223 123.915 130.323 123.901C130.422 123.886 130.524 123.891 130.622 123.916C130.72 123.94 130.812 123.984 130.893 124.044C130.974 124.104 131.042 124.18 131.094 124.266C131.146 124.353 131.18 124.449 131.195 124.549L132.366 132.433C132.382 132.533 132.378 132.636 132.354 132.734C132.33 132.833 132.286 132.926 132.226 133.007C132.166 133.089 132.09 133.158 132.003 133.21C131.916 133.263 131.819 133.297 131.719 133.312C131.681 133.315 131.643 133.315 131.605 133.313Z" fill="#F47B20"/>
<path d="M131.605 133.313C131.517 133.313 131.43 133.298 131.347 133.269L128.155 132.133C128.06 132.099 127.972 132.047 127.898 131.979C127.823 131.911 127.762 131.83 127.719 131.738C127.675 131.647 127.651 131.549 127.646 131.448C127.64 131.347 127.655 131.246 127.689 131.151C127.723 131.056 127.775 130.969 127.843 130.894C127.91 130.819 127.992 130.759 128.083 130.715C128.174 130.672 128.273 130.647 128.374 130.642C128.474 130.637 128.575 130.652 128.67 130.686L131.863 131.822C132.035 131.882 132.18 132.001 132.272 132.157C132.364 132.314 132.398 132.498 132.367 132.678C132.336 132.857 132.243 133.019 132.103 133.136C131.963 133.253 131.787 133.316 131.605 133.314V133.313Z" fill="#F47B20"/>
<path d="M127.265 134.824C127.082 134.825 126.906 134.762 126.766 134.644C126.627 134.527 126.534 134.364 126.503 134.184C126.473 134.005 126.508 133.82 126.601 133.664C126.694 133.507 126.84 133.389 127.013 133.331L131.358 131.821C131.55 131.754 131.761 131.766 131.945 131.855C132.128 131.944 132.268 132.102 132.335 132.294C132.402 132.487 132.39 132.698 132.301 132.881C132.212 133.065 132.054 133.205 131.861 133.272L127.516 134.782C127.435 134.81 127.35 134.824 127.265 134.824Z" fill="#F47B20"/>
<path d="M133.948 133.313H131.605C131.401 133.313 131.206 133.232 131.062 133.088C130.918 132.944 130.837 132.749 130.837 132.545C130.837 132.341 130.918 132.146 131.062 132.002C131.206 131.858 131.401 131.777 131.605 131.777H133.948C134.152 131.777 134.347 131.858 134.491 132.002C134.635 132.146 134.716 132.341 134.716 132.545C134.716 132.749 134.635 132.944 134.491 133.088C134.347 133.232 134.152 133.313 133.948 133.313Z" fill="#F47B20"/>
<path d="M118.667 133.723C118.541 133.723 118.417 133.691 118.306 133.632C118.194 133.572 118.1 133.486 118.03 133.381C117.96 133.276 117.916 133.156 117.904 133.03C117.892 132.905 117.91 132.778 117.958 132.661L120.979 125.374C121.018 125.281 121.074 125.196 121.145 125.125C121.217 125.054 121.301 124.997 121.394 124.958C121.487 124.92 121.587 124.9 121.688 124.9C121.789 124.899 121.889 124.919 121.982 124.958C122.075 124.996 122.16 125.053 122.231 125.124C122.302 125.195 122.359 125.28 122.398 125.373C122.436 125.466 122.456 125.565 122.456 125.666C122.457 125.767 122.437 125.867 122.398 125.96L119.377 133.246C119.319 133.387 119.221 133.507 119.095 133.592C118.968 133.677 118.819 133.723 118.667 133.723Z" fill="#F47B20"/>
<path d="M113.104 135.707C112.922 135.708 112.746 135.645 112.607 135.528C112.467 135.411 112.374 135.249 112.343 135.07C112.312 134.891 112.346 134.706 112.439 134.55C112.531 134.393 112.676 134.275 112.848 134.215L116.252 133.01L114.315 132.396C114.121 132.335 113.959 132.199 113.865 132.018C113.771 131.837 113.753 131.627 113.814 131.433C113.876 131.238 114.012 131.077 114.192 130.983C114.373 130.889 114.584 130.87 114.778 130.932L118.9 132.237C119.054 132.285 119.188 132.38 119.285 132.509C119.381 132.638 119.434 132.794 119.437 132.955C119.44 133.116 119.392 133.274 119.3 133.406C119.208 133.539 119.077 133.639 118.925 133.692L113.36 135.662C113.278 135.691 113.191 135.707 113.104 135.707Z" fill="#F47B20"/>
<path d="M121.114 133.738H118.67C118.467 133.738 118.271 133.657 118.127 133.513C117.983 133.369 117.902 133.173 117.902 132.969C117.902 132.766 117.983 132.57 118.127 132.426C118.271 132.282 118.467 132.201 118.67 132.201H121.114C121.318 132.201 121.514 132.282 121.658 132.426C121.802 132.57 121.883 132.766 121.883 132.969C121.883 133.173 121.802 133.369 121.658 133.513C121.514 133.657 121.318 133.738 121.114 133.738Z" fill="#F47B20"/>
<path d="M129.325 117.771C128.049 117.771 126.33 117.172 124.11 115.961C122.822 115.251 121.576 114.469 120.377 113.618C120.295 113.559 120.226 113.485 120.173 113.399C120.12 113.313 120.085 113.218 120.069 113.118C120.052 113.018 120.056 112.917 120.079 112.819C120.103 112.721 120.145 112.628 120.204 112.546C120.263 112.464 120.338 112.395 120.424 112.342C120.509 112.289 120.605 112.254 120.704 112.238C120.804 112.222 120.906 112.225 121.004 112.249C121.102 112.272 121.194 112.314 121.276 112.373C122.428 113.186 123.624 113.934 124.858 114.614C128.169 116.42 129.443 116.295 129.837 116.157C129.953 116.12 130.056 116.051 130.136 115.959C130.215 115.867 130.269 115.755 130.29 115.635C130.319 115.53 130.37 115.433 130.44 115.349C130.51 115.266 130.596 115.198 130.694 115.151C130.792 115.103 130.899 115.077 131.008 115.075C131.117 115.072 131.225 115.092 131.325 115.134C132.245 115.515 133.522 115.755 133.895 115.49C133.997 115.416 134.006 115.21 133.995 115.05C133.986 114.928 134.006 114.805 134.055 114.693C134.103 114.58 134.178 114.48 134.273 114.402C134.368 114.324 134.48 114.27 134.6 114.245C134.72 114.219 134.844 114.223 134.963 114.255C135.794 114.478 136.774 114.484 136.979 114.267C137.016 114.227 137.052 114.053 136.923 113.669C136.859 113.476 136.874 113.265 136.965 113.083C137.056 112.901 137.216 112.762 137.409 112.698C137.602 112.633 137.813 112.648 137.995 112.739C138.177 112.83 138.316 112.99 138.38 113.183C138.754 114.305 138.432 114.965 138.095 115.321C137.432 116.024 136.244 116.02 135.414 115.907C135.297 116.241 135.079 116.532 134.791 116.737C133.857 117.408 132.335 117.089 131.423 116.8C131.16 117.178 130.782 117.461 130.345 117.607C130.017 117.719 129.672 117.775 129.325 117.771Z" fill="#F47B20"/>
<path d="M111.348 93.5585C111.856 93.5585 112.268 93.1467 112.268 92.6388C112.268 92.1309 111.856 91.7192 111.348 91.7192C110.84 91.7192 110.428 92.1309 110.428 92.6388C110.428 93.1467 110.84 93.5585 111.348 93.5585Z" fill="#FDDAA5"/>
<path d="M111.348 94.3273C111.014 94.3273 110.688 94.2283 110.41 94.0428C110.133 93.8572 109.916 93.5935 109.788 93.285C109.661 92.9765 109.627 92.637 109.692 92.3095C109.757 91.9819 109.918 91.6811 110.154 91.4449C110.39 91.2088 110.691 91.048 111.019 90.9828C111.346 90.9177 111.686 90.9511 111.994 91.0789C112.303 91.2067 112.567 91.4231 112.752 91.7008C112.938 91.9785 113.037 92.3049 113.037 92.6389C113.036 93.0866 112.858 93.5158 112.542 93.8324C112.225 94.1489 111.796 94.327 111.348 94.3273ZM111.348 92.4866C111.319 92.4866 111.291 92.4951 111.267 92.5112C111.243 92.5273 111.224 92.5502 111.213 92.577C111.202 92.6037 111.199 92.6332 111.205 92.6616C111.21 92.69 111.224 92.7161 111.245 92.7366C111.265 92.757 111.291 92.771 111.32 92.7766C111.348 92.7823 111.378 92.7794 111.404 92.7683C111.431 92.7572 111.454 92.7384 111.47 92.7144C111.486 92.6903 111.495 92.662 111.495 92.633C111.495 92.5942 111.479 92.5569 111.452 92.5295C111.424 92.502 111.387 92.4866 111.348 92.4866Z" fill="#F47B20"/>
<path d="M128.805 96.4863C129.665 96.145 129.958 94.8487 129.459 93.5911C128.959 92.3335 127.858 91.5907 126.998 91.932C126.138 92.2734 125.845 93.5696 126.344 94.8273C126.844 96.0849 127.945 96.8277 128.805 96.4863Z" fill="#FDDAA5"/>
<path d="M128.373 97.325C127.886 97.317 127.414 97.164 127.015 96.8857C126.388 96.4418 125.908 95.8214 125.635 95.1035C124.969 93.4267 125.445 91.7163 126.719 91.211C127.993 90.7058 129.51 91.624 130.177 93.3008C130.471 94.0103 130.547 94.7914 130.395 95.5443C130.216 96.335 129.742 96.9355 129.093 97.1932C128.863 97.2823 128.619 97.327 128.373 97.325ZM127.447 92.6052C127.391 92.6046 127.336 92.6145 127.284 92.6345C126.886 92.7926 126.707 93.6376 127.062 94.5382C127.222 94.9683 127.504 95.3424 127.873 95.6145C127.989 95.6922 128.283 95.8635 128.526 95.761C128.769 95.6585 128.866 95.3378 128.897 95.2016C128.979 94.7507 128.928 94.2855 128.75 93.8631C128.437 93.0796 127.854 92.6052 127.446 92.6052H127.447Z" fill="#F47B20"/>
<path d="M123.198 94.074C123.069 94.074 122.941 94.0438 122.826 93.9861C122.71 93.9283 122.61 93.8445 122.533 93.7412C122.455 93.6379 122.403 93.518 122.38 93.391C122.357 93.264 122.363 93.1333 122.4 93.0094C122.485 92.6696 123.158 90.2651 125.459 88.745C125.625 88.6356 125.827 88.5947 126.022 88.631C126.218 88.6674 126.392 88.778 126.507 88.9398L128.225 91.3429C128.294 91.4401 128.34 91.5522 128.359 91.6702C128.377 91.7882 128.368 91.9089 128.331 92.0227C128.295 92.1364 128.233 92.2401 128.149 92.3255C128.065 92.4109 127.963 92.4756 127.85 92.5144L123.457 94.0301C123.416 94.0443 123.375 94.0551 123.332 94.0623C123.288 94.0699 123.243 94.0738 123.198 94.074ZM123.86 93.4853L123.848 93.5161L123.86 93.4853ZM125.718 90.4716C125.207 90.9261 124.776 91.4638 124.444 92.0619L126.377 91.3941L125.718 90.4716Z" fill="#F47B20"/>
<path d="M125.854 90.1785C125.738 90.1787 125.622 90.1521 125.518 90.1009C124.251 89.4815 123.467 87.9907 123.576 86.393C123.602 85.8745 123.73 85.3662 123.954 84.8977C124.178 84.4291 124.492 84.0096 124.879 83.6633C125.174 83.403 125.519 83.2049 125.893 83.0809C126.267 82.9568 126.661 82.9094 127.054 82.9414C127.403 82.9732 127.744 83.069 128.058 83.224C128.274 82.7054 128.629 82.2569 129.084 81.9285C129.539 81.6 130.077 81.4047 130.637 81.3642C131.338 81.3259 132.03 81.5428 132.583 81.9749C132.899 81.8027 133.249 81.7027 133.608 81.682C134.292 81.6439 135.006 81.9749 135.566 82.5958C136.184 83.2782 136.482 84.1495 136.36 84.9271C136.111 86.5204 135.014 87.7945 134.106 88.1855C134.014 88.2254 133.914 88.2466 133.813 88.2481C133.713 88.2495 133.612 88.2311 133.519 88.1938C133.425 88.1565 133.34 88.1012 133.267 88.0309C133.195 87.9606 133.137 87.8768 133.097 87.7842C133.057 87.6916 133.036 87.5921 133.035 87.4912C133.033 87.3904 133.052 87.2903 133.089 87.1966C133.126 87.1029 133.182 87.0175 133.252 86.9452C133.322 86.8729 133.406 86.8151 133.499 86.7752C133.868 86.6171 134.67 85.8175 134.842 84.6914C134.89 84.3824 134.723 83.9592 134.427 83.6267C134.19 83.3646 133.904 83.2006 133.695 83.2152C133.452 83.2348 133.224 83.3445 133.058 83.5228C132.982 83.5996 132.891 83.6595 132.79 83.6987C132.69 83.7379 132.582 83.7555 132.474 83.7502C132.366 83.745 132.261 83.7171 132.165 83.6683C132.068 83.6195 131.984 83.5509 131.916 83.4671C131.776 83.2842 131.594 83.1376 131.385 83.0395C131.177 82.9414 130.948 82.8947 130.718 82.9033C129.93 82.9472 129.309 83.6868 129.306 84.5874C129.306 84.7458 129.256 84.9003 129.165 85.0296C129.073 85.1588 128.944 85.2566 128.794 85.3094C128.645 85.3622 128.483 85.3674 128.33 85.3244C128.178 85.2814 128.042 85.1922 127.943 85.0692C127.819 84.9083 127.665 84.7736 127.489 84.673C127.313 84.5725 127.119 84.508 126.918 84.4834C126.729 84.4704 126.54 84.4954 126.362 84.5571C126.183 84.6187 126.019 84.7157 125.879 84.8422C125.648 85.0552 125.461 85.3118 125.329 85.5973C125.197 85.8828 125.123 86.1915 125.11 86.5058C125.046 87.4738 125.493 88.389 126.196 88.7317C126.356 88.8054 126.486 88.9322 126.564 89.0907C126.642 89.2492 126.663 89.4296 126.623 89.6017C126.583 89.7737 126.485 89.9268 126.346 90.0351C126.206 90.1434 126.034 90.2002 125.857 90.1961L125.854 90.1785Z" fill="#F47B20"/>
<path d="M160.279 110.067C166.137 105.249 162.868 104.89 162.868 104.89C167.657 99.7997 162.954 101.784 162.954 101.266C162.954 100.747 166.406 97.253 165.025 96.3041C162.805 94.7782 159.364 97.6104 156.946 99.1729C152.815 101.844 149.477 101.699 148.159 101.844C137.658 102.992 135.47 91.0351 135.47 91.0351C135.002 88.4079 133.127 85.8628 130.557 85.8628C127.987 85.8628 125.724 87.5703 125.897 89.66C126.127 92.3634 127.914 92.6138 128.602 93.2728C130.614 95.1941 129.744 97.3922 128.864 100.088L128.83 100.186C127.489 104.107 129.324 108.61 131.581 112.026C132.845 113.932 134.497 115.548 136.429 116.771C138.39 127.315 145.624 120.981 145.624 120.981C151.091 123.484 154.803 118.478 154.803 118.478C160.585 116.667 160.238 108.383 160.238 108.383" fill="#FEEFD2"/>
<path d="M141.189 123.635C140.695 123.637 140.204 123.556 139.736 123.396C137.771 122.715 136.427 120.643 135.735 117.237C133.829 115.982 132.197 114.353 130.938 112.449C129.181 109.799 126.489 104.649 128.101 99.9375L128.268 99.4308C129.16 96.726 129.556 95.2484 128.068 93.8279C127.911 93.7012 127.742 93.5894 127.564 93.494C126.731 93.002 125.337 92.1761 125.129 89.7246C125.092 89.2071 125.164 88.6877 125.341 88.1999C125.518 87.7121 125.794 87.2667 126.154 86.8924C127.188 85.7678 128.831 85.0956 130.547 85.0956C133.589 85.0956 135.7 88.0156 136.216 90.9005C136.652 92.8852 137.437 94.7767 138.534 96.4873C140.83 99.9756 144.037 101.522 148.066 101.081C148.259 101.061 148.477 101.046 148.732 101.028C150.262 100.926 153.109 100.736 156.523 98.5287C156.852 98.3149 157.204 98.0777 157.574 97.8243C160.042 96.1476 163.111 94.0608 165.453 95.6702C165.621 95.7838 165.764 95.9309 165.873 96.1022C165.982 96.2735 166.055 96.4654 166.087 96.666C166.27 97.7467 165.402 99.0574 164.321 100.533C164.847 100.554 165.394 100.702 165.658 101.244C166.027 102.001 165.601 102.967 164.094 104.678C164.269 104.856 164.398 105.074 164.469 105.313C164.702 106.095 164.579 107.488 160.884 110.557C160.79 111.368 160.635 112.17 160.42 112.958C159.541 116.132 157.757 118.263 155.252 119.137C154.511 120.011 153.629 120.753 152.642 121.334C150.445 122.613 148.069 122.799 145.736 121.87C144.971 122.449 143.153 123.635 141.189 123.635ZM137.185 116.644C137.746 119.65 138.773 121.434 140.236 121.945C142.432 122.709 145.092 120.428 145.118 120.404C145.229 120.307 145.366 120.244 145.513 120.223C145.659 120.202 145.808 120.223 145.942 120.284C150.763 122.491 154.048 118.205 154.186 118.022C154.283 117.892 154.418 117.796 154.572 117.748C159.717 116.137 159.472 108.494 159.469 108.416C159.461 108.213 159.534 108.014 159.672 107.865C159.81 107.715 160.002 107.626 160.205 107.618C160.409 107.609 160.607 107.682 160.757 107.82C160.907 107.958 160.996 108.15 161.004 108.353C161.004 108.361 161.004 108.384 161.004 108.419C163.135 106.445 163.004 105.759 163.001 105.751C162.937 105.701 162.862 105.668 162.782 105.655C162.64 105.639 162.504 105.585 162.392 105.497C162.279 105.409 162.193 105.291 162.143 105.157C162.094 105.023 162.083 104.878 162.112 104.738C162.14 104.598 162.208 104.468 162.306 104.364C163.501 103.095 163.961 102.408 164.138 102.068C163.977 102.068 163.797 102.09 163.682 102.1C163.199 102.144 162.782 102.184 162.457 101.887C162.371 101.808 162.302 101.712 162.255 101.606C162.208 101.499 162.184 101.384 162.184 101.267C162.184 100.86 162.452 100.495 163.039 99.6944C163.464 99.1396 163.855 98.5601 164.211 97.959C164.59 97.2766 164.589 96.9984 164.582 96.934C163.098 95.9352 160.518 97.6881 158.444 99.0984C158.066 99.3561 157.712 99.5992 157.363 99.8218C153.614 102.245 150.51 102.458 148.84 102.565C148.605 102.581 148.401 102.594 148.239 102.612C143.639 103.114 139.831 101.276 137.231 97.2942C136.029 95.4236 135.176 93.3514 134.712 91.1773C134.179 88.1943 132.222 86.6376 130.554 86.6376C129.277 86.6376 128.027 87.1355 127.29 87.938C127.075 88.156 126.907 88.4165 126.799 88.703C126.69 88.9895 126.642 89.2956 126.659 89.6016C126.805 91.2666 127.586 91.7294 128.346 92.1775C128.627 92.3289 128.89 92.5122 129.129 92.7237C131.388 94.8808 130.581 97.3279 129.727 99.9184L129.554 100.43C128.154 104.52 130.623 109.184 132.218 111.599C133.418 113.413 134.99 114.951 136.829 116.112L136.886 116.152C137.046 116.27 137.153 116.447 137.185 116.644Z" fill="#F47B20"/>
<path d="M149.968 130.334C149.784 130.334 149.607 130.267 149.467 130.147C149.328 130.027 149.237 129.86 149.21 129.678L148.038 121.794C148.024 121.694 148.029 121.592 148.053 121.494C148.078 121.397 148.122 121.305 148.182 121.224C148.242 121.143 148.317 121.074 148.404 121.022C148.491 120.971 148.587 120.936 148.686 120.922C148.786 120.907 148.888 120.912 148.986 120.937C149.084 120.961 149.176 121.005 149.257 121.065C149.338 121.125 149.406 121.201 149.458 121.287C149.509 121.374 149.544 121.47 149.558 121.57L150.73 129.454C150.746 129.563 150.738 129.674 150.707 129.78C150.676 129.886 150.623 129.984 150.55 130.067C150.478 130.15 150.389 130.217 150.289 130.263C150.189 130.309 150.08 130.333 149.97 130.333L149.968 130.334Z" fill="#F47B20"/>
<path d="M149.969 130.334C149.881 130.335 149.794 130.32 149.711 130.291L146.519 129.154C146.424 129.12 146.336 129.068 146.261 129C146.187 128.933 146.126 128.851 146.083 128.76C146.039 128.669 146.014 128.57 146.009 128.469C146.004 128.369 146.019 128.268 146.053 128.173C146.087 128.078 146.139 127.991 146.207 127.916C146.274 127.841 146.356 127.78 146.447 127.737C146.538 127.694 146.637 127.669 146.738 127.664C146.838 127.659 146.939 127.673 147.034 127.707L150.227 128.844C150.398 128.903 150.543 129.022 150.636 129.179C150.728 129.335 150.762 129.52 150.731 129.699C150.7 129.878 150.606 130.041 150.467 130.157C150.327 130.274 150.151 130.337 149.969 130.336V130.334Z" fill="#F47B20"/>
<path d="M145.624 131.846C145.442 131.847 145.266 131.783 145.126 131.666C144.987 131.549 144.893 131.386 144.863 131.206C144.833 131.026 144.867 130.842 144.961 130.685C145.054 130.529 145.2 130.411 145.372 130.352L149.717 128.842C149.91 128.775 150.121 128.788 150.304 128.877C150.487 128.965 150.628 129.123 150.695 129.316C150.762 129.508 150.749 129.719 150.66 129.903C150.572 130.086 150.414 130.227 150.221 130.293L145.876 131.803C145.795 131.831 145.71 131.846 145.624 131.846Z" fill="#F47B20"/>
<path d="M152.299 130.334H149.969C149.765 130.334 149.57 130.253 149.426 130.109C149.281 129.965 149.201 129.77 149.201 129.566C149.201 129.363 149.281 129.167 149.426 129.023C149.57 128.879 149.765 128.798 149.969 128.798H152.299C152.502 128.798 152.698 128.879 152.842 129.023C152.986 129.167 153.067 129.363 153.067 129.566C153.067 129.77 152.986 129.965 152.842 130.109C152.698 130.253 152.502 130.334 152.299 130.334Z" fill="#F47B20"/>
<path d="M137.023 130.743C136.896 130.743 136.772 130.711 136.661 130.652C136.55 130.592 136.455 130.506 136.385 130.401C136.315 130.296 136.272 130.176 136.26 130.05C136.247 129.925 136.266 129.798 136.314 129.681L139.336 122.396C139.414 122.208 139.563 122.058 139.751 121.98C139.939 121.902 140.151 121.901 140.339 121.979C140.527 122.057 140.676 122.206 140.755 122.394C140.833 122.582 140.833 122.793 140.755 122.982L137.734 130.268C137.676 130.409 137.577 130.53 137.451 130.614C137.324 130.699 137.175 130.743 137.023 130.743Z" fill="#F47B20"/>
<path d="M131.457 132.729C131.276 132.73 131.099 132.666 130.96 132.549C130.821 132.433 130.727 132.27 130.697 132.091C130.666 131.912 130.7 131.728 130.792 131.571C130.884 131.415 131.029 131.296 131.201 131.236L134.606 130.031L132.669 129.418C132.474 129.356 132.312 129.22 132.219 129.04C132.125 128.859 132.106 128.648 132.168 128.454C132.229 128.26 132.365 128.098 132.546 128.004C132.726 127.91 132.937 127.892 133.131 127.953L137.254 129.258C137.407 129.306 137.542 129.402 137.638 129.531C137.734 129.66 137.788 129.816 137.791 129.977C137.793 130.138 137.745 130.296 137.653 130.428C137.562 130.56 137.43 130.66 137.279 130.714L131.714 132.683C131.631 132.713 131.545 132.728 131.457 132.729Z" fill="#F47B20"/>
<path d="M139.472 130.759H137.024C136.82 130.759 136.625 130.678 136.481 130.534C136.337 130.39 136.256 130.195 136.256 129.991C136.256 129.787 136.337 129.592 136.481 129.448C136.625 129.304 136.82 129.223 137.024 129.223H139.468C139.672 129.223 139.867 129.304 140.011 129.448C140.155 129.592 140.236 129.787 140.236 129.991C140.236 130.195 140.155 130.39 140.011 130.534C139.867 130.678 139.672 130.759 139.468 130.759H139.472Z" fill="#F47B20"/>
<path d="M147.682 114.792C146.407 114.792 144.687 114.194 142.467 112.982C141.18 112.272 139.934 111.49 138.735 110.639C138.569 110.52 138.459 110.34 138.426 110.139C138.394 109.938 138.442 109.732 138.562 109.567C138.681 109.402 138.861 109.291 139.062 109.259C139.263 109.227 139.469 109.275 139.634 109.395C140.786 110.207 141.981 110.955 143.216 111.635C146.527 113.441 147.801 113.316 148.195 113.179C148.31 113.141 148.413 113.072 148.493 112.981C148.573 112.889 148.626 112.777 148.647 112.657C148.677 112.553 148.728 112.455 148.798 112.372C148.867 112.288 148.954 112.221 149.052 112.174C149.15 112.126 149.257 112.1 149.365 112.097C149.474 112.094 149.582 112.114 149.683 112.156C150.602 112.537 151.879 112.777 152.253 112.512C152.355 112.439 152.364 112.233 152.352 112.073C152.343 111.951 152.364 111.828 152.412 111.715C152.461 111.602 152.536 111.503 152.63 111.425C152.725 111.347 152.837 111.293 152.957 111.268C153.077 111.242 153.202 111.245 153.32 111.278C154.152 111.5 155.132 111.506 155.337 111.29C155.373 111.25 155.408 111.076 155.281 110.692C155.249 110.596 155.236 110.495 155.243 110.395C155.251 110.294 155.277 110.196 155.322 110.106C155.368 110.015 155.43 109.935 155.506 109.869C155.582 109.803 155.671 109.752 155.766 109.72C155.862 109.689 155.963 109.676 156.064 109.683C156.164 109.69 156.263 109.717 156.353 109.762C156.443 109.807 156.524 109.869 156.59 109.946C156.656 110.022 156.706 110.11 156.738 110.206C157.112 111.328 156.789 111.988 156.453 112.344C155.789 113.047 154.601 113.042 153.771 112.93C153.654 113.264 153.437 113.554 153.149 113.76C152.216 114.431 150.693 114.112 149.781 113.823C149.517 114.201 149.139 114.483 148.703 114.63C148.374 114.741 148.029 114.796 147.682 114.792Z" fill="#F47B20"/>
<path d="M129.704 90.5799C130.211 90.5799 130.623 90.1682 130.623 89.6603C130.623 89.1523 130.211 88.7406 129.704 88.7406C129.196 88.7406 128.784 89.1523 128.784 89.6603C128.784 90.1682 129.196 90.5799 129.704 90.5799Z" fill="#FDDAA5"/>
<path d="M129.702 91.3501C129.368 91.3501 129.041 91.2511 128.764 91.0655C128.486 90.88 128.27 90.6163 128.142 90.3078C128.014 89.9992 127.981 89.6597 128.046 89.3322C128.111 89.0047 128.272 88.7038 128.508 88.4677C128.744 88.2316 129.045 88.0707 129.372 88.0056C129.7 87.9404 130.039 87.9739 130.348 88.1017C130.656 88.2295 130.92 88.4459 131.106 88.7236C131.291 89.0012 131.39 89.3277 131.39 89.6616C131.39 90.1093 131.212 90.5386 130.895 90.8551C130.579 91.1717 130.149 91.3497 129.702 91.3501ZM129.702 89.5093C129.673 89.5093 129.644 89.5179 129.62 89.534C129.596 89.5501 129.578 89.573 129.566 89.5997C129.555 89.6265 129.552 89.6559 129.558 89.6843C129.564 89.7127 129.578 89.7388 129.598 89.7593C129.619 89.7798 129.645 89.7937 129.673 89.7994C129.702 89.805 129.731 89.8021 129.758 89.7911C129.785 89.78 129.807 89.7612 129.823 89.7371C129.84 89.713 129.848 89.6847 129.848 89.6558C129.848 89.6364 129.845 89.6172 129.837 89.5993C129.83 89.5813 129.819 89.565 129.806 89.5513C129.792 89.5375 129.776 89.5266 129.758 89.5191C129.74 89.5117 129.721 89.5079 129.702 89.5079V89.5093Z" fill="#F47B20"/>
<path d="M87.1434 118.799C88.0034 118.458 88.2959 117.162 87.7967 115.904C87.2975 114.646 86.1956 113.903 85.3357 114.245C84.4757 114.586 84.1832 115.882 84.6824 117.14C85.1816 118.398 86.2835 119.14 87.1434 118.799Z" fill="#FDDAA5"/>
<path d="M86.7106 119.641C86.2244 119.633 85.7517 119.48 85.3531 119.202C84.7264 118.758 84.2461 118.138 83.9736 117.42C83.3073 115.743 83.7832 114.032 85.0572 113.527C85.706 113.27 86.4631 113.381 87.1352 113.835C87.7536 114.287 88.2317 114.905 88.5144 115.617C88.797 116.33 88.8728 117.107 88.7329 117.86C88.5543 118.651 88.0798 119.252 87.4311 119.509C87.2014 119.599 86.9569 119.643 86.7106 119.641ZM85.7792 114.923C85.7257 114.922 85.6725 114.932 85.6225 114.951C85.2242 115.109 85.0455 115.954 85.3999 116.854C85.5598 117.285 85.8417 117.659 86.2112 117.931C86.3269 118.008 86.6212 118.18 86.8643 118.077C87.1074 117.975 87.2041 117.654 87.2348 117.518C87.3172 117.067 87.2664 116.602 87.0884 116.179C86.9285 115.749 86.6466 115.375 86.2771 115.103C86.1304 115 85.9581 114.939 85.7792 114.927V114.923Z" fill="#F47B20"/>
<path d="M81.5358 116.392C81.4067 116.392 81.2794 116.361 81.164 116.304C81.0485 116.246 80.9481 116.162 80.8707 116.059C80.7933 115.955 80.7409 115.836 80.7178 115.709C80.6948 115.582 80.7016 115.451 80.7377 115.327C80.8226 114.986 81.4963 112.583 83.7969 111.063C83.9628 110.953 84.1649 110.912 84.3605 110.948C84.5561 110.984 84.73 111.095 84.8454 111.257L86.5632 113.66C86.6326 113.758 86.6783 113.87 86.6968 113.988C86.7153 114.106 86.7059 114.226 86.6695 114.34C86.6331 114.454 86.5706 114.558 86.4871 114.643C86.4035 114.728 86.3012 114.793 86.1883 114.832L81.795 116.348C81.7545 116.362 81.7129 116.373 81.6705 116.38C81.626 116.387 81.581 116.391 81.5358 116.392ZM84.0546 112.794C83.5404 113.248 83.1076 113.787 82.7747 114.387L84.7151 113.718L84.0546 112.794Z" fill="#F47B20"/>
<path d="M84.1966 112.496C84.0799 112.497 83.9647 112.47 83.8598 112.419C82.5931 111.799 81.8096 110.309 81.918 108.711C81.9439 108.192 82.0725 107.684 82.2962 107.215C82.5199 106.747 82.8343 106.327 83.2213 105.981C83.5166 105.721 83.8614 105.523 84.2351 105.399C84.6087 105.275 85.0036 105.227 85.396 105.259C85.7453 105.291 86.0859 105.387 86.4006 105.542C86.6158 105.023 86.9709 104.575 87.4263 104.246C87.8817 103.918 88.4194 103.722 88.9794 103.682C89.6807 103.643 90.3721 103.86 90.9256 104.293C91.2415 104.121 91.5916 104.021 91.9507 104C92.6346 103.962 93.3477 104.293 93.9086 104.914C94.5266 105.596 94.8239 106.467 94.7023 107.245C94.4534 108.837 93.3565 110.112 92.4486 110.503C92.356 110.543 92.2564 110.564 92.1556 110.566C92.0548 110.567 91.9547 110.549 91.861 110.512C91.7673 110.474 91.6819 110.419 91.6096 110.349C91.5373 110.278 91.4795 110.195 91.4396 110.102C91.3997 110.009 91.3784 109.91 91.377 109.809C91.3756 109.708 91.394 109.608 91.4313 109.514C91.4685 109.421 91.5239 109.335 91.5942 109.263C91.6644 109.191 91.7483 109.133 91.8409 109.093C92.2099 108.935 93.0124 108.135 93.1837 107.009C93.2321 106.7 93.0651 106.277 92.7693 105.945C92.5321 105.682 92.2436 105.518 92.0371 105.533C91.7939 105.553 91.5667 105.662 91.4001 105.841C91.3243 105.917 91.2331 105.977 91.1326 106.017C91.032 106.056 90.9243 106.073 90.8165 106.068C90.7087 106.063 90.6032 106.035 90.507 105.986C90.4107 105.937 90.3258 105.869 90.2578 105.785C90.1176 105.602 89.9357 105.456 89.7273 105.358C89.5189 105.26 89.2901 105.213 89.0599 105.221C88.2721 105.265 87.6512 106.005 87.6482 106.905C87.6479 107.064 87.5986 107.218 87.507 107.347C87.4153 107.477 87.286 107.574 87.1366 107.627C86.9872 107.68 86.8251 107.685 86.6726 107.642C86.5201 107.599 86.3847 107.51 86.2849 107.387C86.1615 107.226 86.0073 107.091 85.8313 106.991C85.6553 106.89 85.461 106.826 85.2598 106.801C85.0715 106.788 84.8825 106.813 84.7041 106.875C84.5257 106.936 84.3615 107.033 84.2215 107.16C83.9901 107.373 83.803 107.63 83.6711 107.915C83.5391 108.201 83.4649 108.509 83.4527 108.824C83.3883 109.792 83.8349 110.707 84.5378 111.05C84.6982 111.123 84.8284 111.25 84.9062 111.408C84.984 111.567 85.0048 111.747 84.9651 111.919C84.9254 112.092 84.8275 112.245 84.688 112.353C84.5486 112.461 84.3761 112.518 84.1995 112.514L84.1966 112.496Z" fill="#F47B20"/>
<path d="M118.619 132.383C124.477 127.565 121.208 127.206 121.208 127.206C125.997 122.116 121.294 124.1 121.294 123.582C121.294 123.064 124.746 119.57 123.365 118.621C121.145 117.095 117.704 119.927 115.286 121.489C111.155 124.16 107.817 124.015 106.499 124.16C95.9981 125.309 93.8103 113.352 93.8103 113.352C93.3416 110.724 91.4672 108.179 88.8971 108.179C86.3271 108.179 84.0645 109.887 84.2374 111.976C84.4673 114.68 86.2539 114.93 86.9421 115.589C88.9542 117.511 88.0844 119.709 87.2043 122.405L87.1706 122.503C85.8292 126.423 87.6641 130.926 89.9208 134.343C91.1847 136.248 92.8371 137.865 94.7694 139.087C96.7303 149.631 103.965 143.297 103.965 143.297C109.431 145.8 113.144 140.795 113.144 140.795C118.925 138.983 118.578 130.699 118.578 130.699" fill="#FEEFD2"/>
<path d="M99.5332 145.952C99.039 145.955 98.5479 145.874 98.0805 145.714C96.1152 145.033 94.7709 142.961 94.0797 139.554C92.173 138.3 90.5409 136.671 89.2822 134.767C87.5249 132.117 84.8348 126.966 86.4457 122.255L86.6126 121.749C87.5044 119.044 87.8998 117.566 86.412 116.144C86.2548 116.017 86.0862 115.906 85.9082 115.81C85.075 115.318 83.6808 114.492 83.4729 112.042C83.4364 111.525 83.5087 111.005 83.6853 110.518C83.8619 110.03 84.1387 109.584 84.498 109.21C85.5319 108.086 87.1749 107.413 88.8912 107.413C91.9328 107.413 94.0445 110.333 94.56 113.218C94.9965 115.203 95.7814 117.094 96.8782 118.805C99.1744 122.293 102.38 123.838 106.41 123.399C106.603 123.378 106.822 123.364 107.076 123.346C108.607 123.244 111.454 123.053 114.867 120.846C115.197 120.633 115.548 120.395 115.919 120.142C118.385 118.465 121.456 116.379 123.797 117.988C123.965 118.102 124.109 118.249 124.218 118.42C124.327 118.591 124.399 118.783 124.431 118.984C124.614 120.064 123.746 121.375 122.665 122.851C123.191 122.872 123.739 123.02 124.002 123.561C124.371 124.319 123.945 125.285 122.438 126.994C122.613 127.172 122.742 127.39 122.813 127.63C123.046 128.412 122.923 129.804 119.228 132.874C119.134 133.684 118.979 134.487 118.764 135.274C117.885 138.449 116.1 140.58 113.595 141.454C112.854 142.327 111.972 143.07 110.985 143.65C108.788 144.929 106.412 145.115 104.079 144.186C103.31 144.765 101.491 145.952 99.5332 145.952ZM95.5324 138.976C96.0947 141.974 97.1198 143.753 98.5798 144.261C100.776 145.027 103.436 142.744 103.462 142.72C103.574 142.624 103.711 142.561 103.857 142.539C104.003 142.518 104.152 142.539 104.287 142.6C106.313 143.527 108.309 143.435 110.221 142.322C111.104 141.807 111.886 141.135 112.528 140.339C112.625 140.209 112.76 140.113 112.915 140.064C118.061 138.453 117.815 130.81 117.812 130.733C117.804 130.529 117.877 130.331 118.015 130.181C118.153 130.031 118.344 129.942 118.548 129.934C118.751 129.926 118.95 129.998 119.1 130.136C119.25 130.274 119.338 130.466 119.347 130.67C119.347 130.677 119.347 130.701 119.347 130.736C121.478 128.762 121.347 128.075 121.344 128.068C121.28 128.018 121.205 127.985 121.125 127.971C120.982 127.956 120.847 127.901 120.735 127.813C120.622 127.725 120.536 127.608 120.486 127.473C120.437 127.339 120.426 127.194 120.454 127.054C120.483 126.914 120.55 126.785 120.649 126.681C121.844 125.411 122.303 124.726 122.481 124.384C122.32 124.384 122.139 124.406 122.025 124.417C121.542 124.461 121.125 124.5 120.799 124.203C120.714 124.124 120.645 124.029 120.598 123.922C120.551 123.815 120.527 123.7 120.527 123.583C120.527 123.176 120.795 122.812 121.382 122.011C121.807 121.456 122.198 120.876 122.554 120.275C122.933 119.593 122.932 119.315 122.924 119.25C121.439 118.252 118.861 120.004 116.787 121.413C116.409 121.671 116.055 121.914 115.706 122.137C111.957 124.56 108.853 124.773 107.183 124.879C106.948 124.896 106.744 124.909 106.581 124.926C101.982 125.429 98.1742 123.591 95.5734 119.609C94.3722 117.738 93.5189 115.666 93.0546 113.492C92.5215 110.509 90.5651 108.952 88.8971 108.952C87.6201 108.952 86.3695 109.45 85.6329 110.253C85.4175 110.471 85.25 110.731 85.1413 111.018C85.0326 111.304 84.9851 111.61 85.0017 111.916C85.1482 113.581 85.9287 114.044 86.6888 114.492C86.97 114.644 87.2329 114.827 87.4722 115.039C89.7304 117.196 88.9235 119.643 88.0697 122.233L87.8969 122.756C86.4969 126.846 88.9659 131.509 90.5607 133.925C91.7629 135.742 93.3379 137.283 95.1809 138.444C95.2729 138.503 95.3513 138.581 95.4109 138.672C95.4705 138.764 95.5099 138.867 95.5265 138.974L95.5324 138.976Z" fill="#F47B20"/>
<path d="M108.307 152.652C108.122 152.652 107.944 152.586 107.805 152.465C107.666 152.345 107.575 152.178 107.548 151.996L106.376 144.112C106.362 144.012 106.367 143.91 106.391 143.812C106.416 143.714 106.46 143.622 106.52 143.541C106.58 143.46 106.656 143.392 106.742 143.34C106.829 143.288 106.925 143.254 107.024 143.24C107.124 143.225 107.226 143.23 107.324 143.255C107.422 143.279 107.514 143.323 107.595 143.383C107.676 143.443 107.744 143.519 107.796 143.605C107.848 143.692 107.882 143.788 107.896 143.888L109.068 151.772C109.084 151.872 109.08 151.975 109.055 152.073C109.031 152.172 108.988 152.265 108.928 152.346C108.868 152.428 108.792 152.497 108.705 152.549C108.618 152.602 108.521 152.636 108.421 152.651C108.383 152.654 108.345 152.654 108.307 152.652Z" fill="#F47B20"/>
<path d="M108.307 152.652C108.219 152.652 108.132 152.638 108.049 152.608L104.857 151.472C104.762 151.438 104.674 151.386 104.599 151.318C104.525 151.251 104.464 151.169 104.421 151.078C104.377 150.987 104.352 150.888 104.347 150.787C104.342 150.686 104.357 150.586 104.391 150.491C104.425 150.396 104.477 150.308 104.545 150.233C104.612 150.159 104.694 150.098 104.785 150.055C104.876 150.011 104.975 149.987 105.076 149.981C105.176 149.976 105.277 149.991 105.372 150.025L108.565 151.161C108.736 151.221 108.881 151.34 108.974 151.497C109.066 151.653 109.1 151.838 109.069 152.017C109.038 152.196 108.944 152.359 108.805 152.475C108.665 152.592 108.489 152.655 108.307 152.654V152.652Z" fill="#F47B20"/>
<path d="M103.962 154.162C103.78 154.163 103.604 154.099 103.464 153.982C103.325 153.865 103.232 153.702 103.201 153.522C103.171 153.343 103.206 153.158 103.299 153.002C103.392 152.845 103.538 152.727 103.71 152.668L108.055 151.158C108.151 151.125 108.252 151.111 108.352 151.117C108.453 151.123 108.551 151.149 108.642 151.193C108.733 151.237 108.814 151.298 108.881 151.374C108.948 151.449 109 151.537 109.033 151.632C109.066 151.727 109.08 151.828 109.074 151.929C109.068 152.03 109.042 152.128 108.998 152.219C108.954 152.31 108.893 152.391 108.818 152.458C108.742 152.525 108.654 152.577 108.559 152.61L104.22 154.12C104.137 154.148 104.05 154.163 103.962 154.162Z" fill="#F47B20"/>
<path d="M110.637 152.652H108.307C108.103 152.652 107.908 152.571 107.764 152.427C107.62 152.283 107.539 152.088 107.539 151.884C107.539 151.68 107.62 151.485 107.764 151.341C107.908 151.197 108.103 151.116 108.307 151.116H110.637C110.84 151.116 111.036 151.197 111.18 151.341C111.324 151.485 111.405 151.68 111.405 151.884C111.405 152.088 111.324 152.283 111.18 152.427C111.036 152.571 110.84 152.652 110.637 152.652Z" fill="#F47B20"/>
<path d="M95.3647 153.062C95.2386 153.062 95.1145 153.031 95.0033 152.971C94.8922 152.911 94.7974 152.825 94.7274 152.72C94.6573 152.615 94.6142 152.495 94.6017 152.369C94.5893 152.244 94.6079 152.117 94.6559 152.001L97.677 144.715C97.7155 144.622 97.7719 144.537 97.8431 144.466C97.9143 144.394 97.9989 144.338 98.092 144.299C98.185 144.26 98.2848 144.24 98.3856 144.24C98.4864 144.24 98.5863 144.26 98.6794 144.298C98.7726 144.337 98.8573 144.393 98.9287 144.465C99 144.536 99.0567 144.62 99.0953 144.713C99.134 144.806 99.154 144.906 99.1541 145.007C99.1543 145.108 99.1345 145.208 99.0961 145.301L96.075 152.586C96.0171 152.727 95.9187 152.848 95.7923 152.932C95.6658 153.017 95.517 153.062 95.3647 153.062Z" fill="#F47B20"/>
<path d="M89.7997 155.052C89.6179 155.053 89.4416 154.99 89.3023 154.873C89.1629 154.756 89.0696 154.594 89.0388 154.415C89.008 154.236 89.0419 154.051 89.1343 153.895C89.2267 153.738 89.3717 153.62 89.5434 153.56L92.9482 152.355L91.0107 151.741C90.9146 151.711 90.8254 151.662 90.7482 151.597C90.671 151.532 90.6074 151.452 90.561 151.363C90.4672 151.182 90.4491 150.971 90.5106 150.777C90.5722 150.583 90.7084 150.421 90.8892 150.327C91.0701 150.233 91.2808 150.215 91.4749 150.277L95.5973 151.582C95.7509 151.63 95.8854 151.725 95.9818 151.854C96.0781 151.983 96.1314 152.14 96.1342 152.301C96.137 152.462 96.089 152.619 95.9971 152.752C95.9052 152.884 95.774 152.984 95.6222 153.037L90.0574 155.007C89.9747 155.037 89.8875 155.052 89.7997 155.052Z" fill="#F47B20"/>
<path d="M97.8102 153.075H95.3661C95.1623 153.075 94.967 152.994 94.8229 152.85C94.6789 152.706 94.598 152.511 94.598 152.307C94.598 152.103 94.6789 151.908 94.8229 151.764C94.967 151.62 95.1623 151.539 95.3661 151.539H97.8102C98.0139 151.539 98.2092 151.62 98.3533 151.764C98.4973 151.908 98.5782 152.103 98.5782 152.307C98.5782 152.511 98.4973 152.706 98.3533 152.85C98.2092 152.994 98.0139 153.075 97.8102 153.075Z" fill="#F47B20"/>
<path d="M106.02 137.109C104.745 137.109 103.025 136.51 100.805 135.299C99.5181 134.588 98.2718 133.806 97.0726 132.956C96.9075 132.836 96.7966 132.656 96.7642 132.455C96.7318 132.254 96.7806 132.049 96.8998 131.884C97.019 131.719 97.199 131.608 97.4 131.575C97.601 131.543 97.8067 131.592 97.9717 131.711C99.1236 132.523 100.319 133.271 101.554 133.951C104.865 135.757 106.139 135.633 106.533 135.495C106.648 135.457 106.752 135.388 106.831 135.296C106.911 135.204 106.964 135.092 106.985 134.972C107.015 134.867 107.066 134.77 107.136 134.687C107.205 134.603 107.292 134.536 107.39 134.488C107.488 134.441 107.595 134.415 107.703 134.412C107.812 134.409 107.92 134.429 108.021 134.471C108.94 134.852 110.217 135.092 110.591 134.827C110.693 134.754 110.702 134.547 110.69 134.388C110.682 134.266 110.703 134.143 110.751 134.03C110.8 133.918 110.874 133.819 110.969 133.741C111.064 133.663 111.176 133.609 111.296 133.584C111.416 133.558 111.54 133.562 111.658 133.594C112.49 133.817 113.47 133.823 113.675 133.606C113.711 133.566 113.746 133.392 113.619 133.008C113.587 132.913 113.574 132.812 113.582 132.711C113.589 132.61 113.615 132.512 113.661 132.422C113.706 132.332 113.768 132.251 113.844 132.185C113.92 132.119 114.009 132.069 114.105 132.037C114.2 132.005 114.301 131.992 114.402 131.999C114.502 132.006 114.601 132.033 114.691 132.078C114.781 132.123 114.862 132.186 114.928 132.262C114.994 132.338 115.044 132.426 115.076 132.522C115.45 133.644 115.127 134.304 114.791 134.66C114.127 135.363 112.94 135.357 112.109 135.246C111.992 135.58 111.775 135.87 111.487 136.076C110.553 136.747 109.031 136.428 108.119 136.139C107.855 136.517 107.477 136.8 107.041 136.946C106.712 137.058 106.367 137.112 106.02 137.109Z" fill="#F47B20"/>
<path d="M88.0416 112.896C88.5495 112.896 88.9613 112.484 88.9613 111.976C88.9613 111.469 88.5495 111.057 88.0416 111.057C87.5337 111.057 87.1219 111.469 87.1219 111.976C87.1219 112.484 87.5337 112.896 88.0416 112.896Z" fill="#FDDAA5"/>
<path d="M88.0419 113.665C87.7079 113.665 87.3815 113.566 87.1038 113.38C86.8262 113.195 86.6097 112.931 86.4819 112.623C86.3541 112.314 86.3207 111.975 86.3859 111.647C86.451 111.32 86.6118 111.019 86.848 110.783C87.0841 110.546 87.385 110.386 87.7125 110.321C88.04 110.255 88.3795 110.289 88.6881 110.417C88.9966 110.544 89.2603 110.761 89.4458 111.039C89.6313 111.316 89.7304 111.643 89.7304 111.977C89.73 112.424 89.552 112.853 89.2354 113.17C88.9188 113.487 88.4896 113.665 88.0419 113.665ZM88.0419 111.824C88.0129 111.824 87.9846 111.833 87.9605 111.849C87.9365 111.865 87.9177 111.888 87.9066 111.915C87.8955 111.941 87.8926 111.971 87.8983 111.999C87.9039 112.028 87.9179 112.054 87.9383 112.074C87.9588 112.095 87.9849 112.109 88.0133 112.114C88.0417 112.12 88.0712 112.117 88.0979 112.106C88.1247 112.095 88.1476 112.076 88.1637 112.052C88.1797 112.028 88.1883 112 88.1883 111.971C88.1883 111.951 88.1845 111.932 88.1772 111.915C88.1698 111.897 88.159 111.881 88.1454 111.867C88.1318 111.854 88.1157 111.843 88.0979 111.835C88.0802 111.828 88.0611 111.824 88.0419 111.824Z" fill="#F47B20"/>
<path d="M13.359 97.0157V144.801H30.6582H43.2976H73.1395V97.2104L75.8194 98.2809L43.3679 82.3773H43.3196L10.868 98.2809L13.359 97.0157Z" fill="#FDDAA5"/>
<path d="M73.1375 145.57H13.3569C13.2562 145.57 13.1564 145.55 13.0633 145.512C12.9702 145.473 12.8856 145.417 12.8143 145.345C12.7431 145.274 12.6866 145.19 12.648 145.097C12.6094 145.003 12.5896 144.904 12.5896 144.803V98.2914L11.2042 98.9651C11.0221 99.0559 10.8113 99.0707 10.6182 99.0062C10.4252 98.9417 10.2656 98.8031 10.1748 98.6209C10.0839 98.4388 10.0691 98.228 10.1336 98.0349C10.1982 97.8418 10.3367 97.6823 10.5189 97.5914L13.0084 96.3262C13.0864 96.2868 13.1706 96.2611 13.2574 96.25L42.9851 81.6834C43.0904 81.6321 43.2061 81.6055 43.3234 81.6058H43.3717C43.4889 81.6055 43.6046 81.6321 43.71 81.6834L76.1615 97.587C76.3475 97.6696 76.4932 97.8226 76.5664 98.0125C76.6396 98.2024 76.6343 98.4137 76.5518 98.5997C76.4692 98.7857 76.3162 98.9314 76.1263 99.0046C75.9364 99.0777 75.7252 99.0725 75.5391 98.99L73.9048 98.3442V144.801C73.905 144.902 73.8853 145.002 73.8468 145.095C73.8084 145.189 73.7519 145.274 73.6806 145.345C73.6093 145.416 73.5247 145.473 73.4315 145.512C73.3383 145.55 73.2384 145.57 73.1375 145.57ZM14.1214 144.034H72.3672V97.4465L43.3424 83.2196L14.1243 97.5387L14.1214 144.034Z" fill="#F47B20"/>
<path d="M49.6877 89.5898H38.1335V99.1627H49.6877V89.5898Z" fill="#FEEFD2"/>
<path d="M49.6901 99.9298H38.1359C37.9324 99.9298 37.7372 99.849 37.5933 99.7051C37.4494 99.5612 37.3685 99.366 37.3685 99.1625V89.5925C37.3685 89.389 37.4494 89.1938 37.5933 89.0499C37.7372 88.906 37.9324 88.8251 38.1359 88.8251H49.6901C49.8937 88.8251 50.0888 88.906 50.2327 89.0499C50.3766 89.1938 50.4575 89.389 50.4575 89.5925V99.1654C50.4567 99.3684 50.3755 99.5628 50.2317 99.7061C50.0879 99.8494 49.8932 99.9298 49.6901 99.9298ZM38.9076 98.3951H48.9257V90.3569H38.9076V98.3951Z" fill="#F47B20"/>
<path d="M43.1232 107.463H64.1435V144.801H43.1203" fill="#FEEFD2"/>
<path d="M64.1444 145.57H43.1212C42.9175 145.57 42.7221 145.489 42.5781 145.345C42.434 145.201 42.3531 145.006 42.3531 144.802C42.3531 144.598 42.434 144.403 42.5781 144.259C42.7221 144.115 42.9175 144.034 43.1212 144.034H63.3756V108.23H43.1241C42.9204 108.23 42.725 108.149 42.581 108.005C42.437 107.861 42.356 107.666 42.356 107.462C42.356 107.259 42.437 107.063 42.581 106.919C42.725 106.775 42.9204 106.694 43.1241 106.694H64.1429C64.3464 106.694 64.5416 106.775 64.6855 106.919C64.8295 107.063 64.9103 107.258 64.9103 107.462V144.804C64.9099 145.007 64.8291 145.202 64.6855 145.345C64.542 145.489 64.3474 145.57 64.1444 145.57Z" fill="#F47B20"/>
<path d="M22.1061 145.57C22.0048 145.571 21.9044 145.551 21.8107 145.513C21.717 145.475 21.6318 145.418 21.5601 145.347C21.4884 145.275 21.4315 145.19 21.3927 145.097C21.354 145.003 21.3341 144.903 21.3343 144.801V107.459C21.3343 107.255 21.4152 107.06 21.5591 106.916C21.703 106.772 21.8981 106.691 22.1017 106.691H43.1249C43.3286 106.691 43.5239 106.772 43.668 106.916C43.812 107.06 43.893 107.256 43.893 107.459C43.893 107.663 43.812 107.859 43.668 108.003C43.5239 108.147 43.3286 108.228 43.1249 108.228H22.8734V144.801C22.8736 144.902 22.8539 145.002 22.8154 145.096C22.7769 145.189 22.7204 145.274 22.6492 145.345C22.5779 145.416 22.4932 145.473 22.4001 145.512C22.3069 145.55 22.207 145.57 22.1061 145.57Z" fill="#F47B20"/>
<path d="M64.1451 145.57C64.0089 145.57 63.8751 145.534 63.7575 145.465C63.6399 145.396 63.5427 145.298 63.4759 145.179L53.6335 127.697L43.7897 145.18C43.7066 145.328 43.5768 145.445 43.4205 145.511C43.2642 145.578 43.0903 145.59 42.926 145.547C42.7617 145.504 42.6164 145.408 42.5127 145.273C42.409 145.139 42.3529 144.974 42.3531 144.804V107.461C42.3529 107.292 42.409 107.126 42.5127 106.992C42.6164 106.857 42.7617 106.761 42.926 106.718C43.0903 106.675 43.2642 106.688 43.4205 106.754C43.5768 106.821 43.7066 106.937 43.7897 107.085L53.6291 124.564L63.4715 107.085C63.521 106.997 63.5874 106.92 63.6667 106.858C63.7461 106.795 63.837 106.749 63.9341 106.722C64.0313 106.695 64.1329 106.687 64.233 106.699C64.3331 106.712 64.4299 106.743 64.5178 106.793C64.6057 106.842 64.683 106.909 64.7452 106.988C64.8075 107.067 64.8535 107.158 64.8806 107.255C64.9077 107.353 64.9155 107.454 64.9033 107.554C64.8912 107.654 64.8595 107.751 64.81 107.839L54.5107 126.13L64.81 144.425C64.8755 144.542 64.9095 144.673 64.9084 144.807C64.9073 144.941 64.8712 145.073 64.8037 145.188C64.7362 145.304 64.6397 145.4 64.5237 145.467C64.4077 145.534 64.2761 145.569 64.1422 145.57H64.1451ZM43.8849 110.387V141.872L52.749 126.13L43.8849 110.387Z" fill="#F47B20"/>
<path d="M43.1235 142.107H22.1047C21.901 142.107 21.7056 142.026 21.5615 141.882C21.4175 141.738 21.3366 141.542 21.3366 141.339C21.3366 141.135 21.4175 140.94 21.5615 140.796C21.7056 140.651 21.901 140.571 22.1047 140.571H43.1235C43.3272 140.571 43.5226 140.651 43.6666 140.796C43.8106 140.94 43.8916 141.135 43.8916 141.339C43.8916 141.542 43.8106 141.738 43.6666 141.882C43.5226 142.026 43.3272 142.107 43.1235 142.107Z" fill="#F47B20"/>
<path d="M43.1235 137.727H22.1047C21.901 137.727 21.7056 137.646 21.5615 137.502C21.4175 137.358 21.3366 137.162 21.3366 136.959C21.3366 136.755 21.4175 136.56 21.5615 136.416C21.7056 136.272 21.901 136.191 22.1047 136.191H43.1235C43.3272 136.191 43.5226 136.272 43.6666 136.416C43.8106 136.56 43.8916 136.755 43.8916 136.959C43.8916 137.162 43.8106 137.358 43.6666 137.502C43.5226 137.646 43.3272 137.727 43.1235 137.727Z" fill="#F47B20"/>
<path d="M43.1235 133.347H22.1047C21.901 133.347 21.7056 133.266 21.5615 133.122C21.4175 132.978 21.3366 132.782 21.3366 132.579C21.3366 132.375 21.4175 132.18 21.5615 132.036C21.7056 131.892 21.901 131.811 22.1047 131.811H43.1235C43.3272 131.811 43.5226 131.892 43.6666 132.036C43.8106 132.18 43.8916 132.375 43.8916 132.579C43.8916 132.782 43.8106 132.978 43.6666 133.122C43.5226 133.266 43.3272 133.347 43.1235 133.347Z" fill="#F47B20"/>
<path d="M77.715 145.57H8.88733C8.68363 145.57 8.48826 145.489 8.34421 145.345C8.20017 145.201 8.11925 145.006 8.11925 144.802C8.11925 144.598 8.20017 144.403 8.34421 144.259C8.48826 144.115 8.68363 144.034 8.88733 144.034H77.715C77.9188 144.034 78.1141 144.115 78.2582 144.259C78.4022 144.403 78.4831 144.598 78.4831 144.802C78.4831 145.006 78.4022 145.201 78.2582 145.345C78.1141 145.489 77.9188 145.57 77.715 145.57Z" fill="#F47B20"/>
<path d="M81.8439 58.9303C88.2496 58.8957 93.4795 54.8517 93.9513 49.7272H93.9195C92.044 49.4776 90.5536 48.1589 90.2521 46.4435L88.062 33.9856H75.6301L73.4371 46.4392C73.1356 48.1532 71.6453 49.4689 69.7683 49.7229H69.7365C70.2083 54.8474 75.4382 58.8914 81.8439 58.926" fill="#FDDAA5"/>
<path d="M81.8431 59.832C78.5595 59.8147 75.4273 58.7918 73.0208 56.9537C70.5783 55.0869 69.0937 52.5505 68.8369 49.8094C68.8154 49.575 68.8863 49.3415 69.0346 49.1588C69.1828 48.976 69.3967 48.8584 69.6304 48.8312H69.6535C71.1539 48.6321 72.3197 47.6092 72.5519 46.2862L74.7449 33.8326C74.7816 33.6236 74.8908 33.4342 75.0533 33.2978C75.2159 33.1613 75.4214 33.0866 75.6336 33.0867H88.0612C88.2735 33.0866 88.4789 33.1613 88.6415 33.2978C88.8041 33.4342 88.9133 33.6236 88.95 33.8326L91.1429 46.2862C91.3752 47.6092 92.5409 48.6321 94.0413 48.8312H94.0673C94.3003 48.8588 94.5131 48.9767 94.6599 49.1597C94.8067 49.3427 94.8757 49.576 94.8521 49.8094C94.5997 52.5505 93.1209 55.0869 90.6682 56.9537C88.2618 58.7918 85.1296 59.8147 81.846 59.832H81.8431ZM70.7485 50.4326C71.6272 54.7204 76.3189 57.9954 81.8417 58.0271C87.3644 57.9954 92.0562 54.7204 92.9333 50.4326C91.0737 49.8829 89.6829 48.4229 89.3611 46.595L87.2995 34.8873H76.3824L74.3207 46.595C74.0019 48.4229 72.6111 49.8844 70.7485 50.4326Z" fill="#F47B20"/>
<path d="M109.329 77.1501V64.1121C109.329 59.556 106.876 55.4082 102.993 52.8993C101.824 52.152 100.558 51.5695 99.23 51.168L93.951 49.7253C93.4793 54.8498 88.2494 58.8953 81.8437 58.9284C75.438 58.8953 70.2081 54.8498 69.7363 49.7253L64.4574 51.168C63.1296 51.5694 61.8634 52.152 60.6948 52.8993C56.8095 55.4067 54.3583 59.556 54.3583 64.1121V77.1501" fill="#FEEFD2"/>
<path d="M109.329 78.0522C109.09 78.0522 108.861 77.9572 108.691 77.7881C108.522 77.619 108.427 77.3897 108.427 77.1505V64.1126C108.427 59.9619 106.213 56.0535 102.503 53.6586C101.409 52.9575 100.224 52.4099 98.9803 52.0312L94.6897 50.8626C94.1962 53.1955 92.7954 55.335 90.6702 56.9538C88.2638 58.7918 85.1316 59.8147 81.848 59.832C78.5557 59.8147 75.4221 58.7933 73.0156 56.9538C70.889 55.3293 69.4896 53.2027 68.9962 50.8626L64.7055 52.0312C63.4611 52.4106 62.2746 52.9592 61.1795 53.6615C57.4731 56.0535 55.2643 59.9619 55.2643 64.114V77.1519C55.2643 77.3913 55.1692 77.6208 55 77.7901C54.8307 77.9593 54.6012 78.0544 54.3619 78.0544C54.1225 78.0544 53.893 77.9593 53.7238 77.7901C53.5545 77.6208 53.4595 77.3913 53.4595 77.1519V64.1126C53.4595 59.3516 55.9828 54.8705 60.2085 52.138C61.4477 51.3433 62.7906 50.7234 64.1991 50.2956H64.2236L69.5026 48.8529C69.6296 48.8182 69.7628 48.8118 69.8926 48.834C70.0224 48.8563 70.1458 48.9068 70.254 48.9819C70.3623 49.057 70.4527 49.1549 70.5191 49.2687C70.5854 49.3825 70.626 49.5094 70.638 49.6406C71.0708 54.3107 75.9934 57.9925 81.8523 58.0243C87.7011 57.994 92.6266 54.3107 93.0565 49.6406C93.0685 49.5094 93.1091 49.3825 93.1754 49.2687C93.2418 49.1549 93.3322 49.057 93.4405 48.9819C93.5487 48.9068 93.6721 48.8563 93.8019 48.834C93.9317 48.8118 94.0648 48.8182 94.1919 48.8529L99.4709 50.2956H99.4954C100.903 50.7227 102.245 51.3417 103.483 52.1351C107.713 54.8662 110.236 59.34 110.236 64.1097V77.1476C110.237 77.2668 110.214 77.3848 110.168 77.4949C110.123 77.605 110.056 77.705 109.971 77.7891C109.887 77.8733 109.787 77.9398 109.677 77.985C109.566 78.0301 109.448 78.053 109.329 78.0522Z" fill="#F47B20"/>
<path d="M97.2608 77.1507V67.6373L102.994 52.9013C101.824 52.1548 100.557 51.5722 99.2287 51.17C99.2287 51.17 93.9223 64.9769 93.9223 64.9769H69.7668C69.7668 64.9769 64.4604 51.1773 64.4604 51.17C63.1315 51.5722 61.864 52.1547 60.6935 52.9013L66.4211 67.6373V77.1507" fill="#F8A556"/>
<path d="M97.2618 78.052C97.0226 78.052 96.7933 77.957 96.6242 77.7879C96.4551 77.6188 96.3601 77.3895 96.3601 77.1503V67.637C96.3598 67.525 96.3803 67.414 96.4207 67.3095L101.88 53.2804C101.202 52.8942 100.494 52.5641 99.762 52.2936C99.6365 52.6225 99.4735 53.0611 99.2426 53.6469L94.7702 65.294C94.7044 65.464 94.5887 65.6101 94.4383 65.7131C94.2879 65.8161 94.1099 65.8712 93.9276 65.8711H69.7677C69.5854 65.8714 69.4073 65.8164 69.2569 65.7133C69.1065 65.6103 68.9908 65.4641 68.9252 65.294L64.4527 53.6469C64.2277 53.0611 64.0589 52.624 63.9334 52.2936C63.1982 52.5636 62.4864 52.8937 61.8054 53.2804L67.2632 67.3109C67.304 67.4153 67.3251 67.5264 67.3252 67.6384V77.1518C67.3252 77.3911 67.2301 77.6206 67.0609 77.7899C66.8917 77.9591 66.6621 78.0542 66.4228 78.0542C66.1835 78.0542 65.9539 77.9591 65.7847 77.7899C65.6154 77.6206 65.5204 77.3911 65.5204 77.1518V67.8058L59.849 53.227C59.7735 53.0328 59.7677 52.8185 59.8324 52.6205C59.8971 52.4224 60.0284 52.2529 60.2039 52.1407C61.4433 51.3477 62.7855 50.7283 64.1931 50.2998C64.4138 50.2322 64.652 50.2518 64.8587 50.3546C65.0653 50.4574 65.2247 50.6355 65.304 50.8523C65.4035 51.1149 68.5443 59.2865 70.3823 64.0663H93.2986C95.1352 59.2894 98.276 51.1236 98.377 50.8523C98.4563 50.6355 98.6156 50.4572 98.8222 50.3542C99.0288 50.2512 99.267 50.2312 99.4879 50.2983C100.895 50.7268 102.238 51.3462 103.477 52.1392C103.652 52.2516 103.784 52.4212 103.848 52.6191C103.913 52.8171 103.907 53.0314 103.832 53.2256L98.162 67.8058V77.1503C98.162 77.3892 98.0672 77.6184 97.8984 77.7874C97.7297 77.9565 97.5007 78.0517 97.2618 78.052Z" fill="#F47B20"/>
<path d="M74.449 43.7588C74.449 43.7588 80.8388 51.1268 89.2384 43.7588L89.7202 43.1615C91.0195 41.5334 91.8478 39.5804 92.1151 37.5146C92.1151 37.5146 93.3977 37.5276 93.5853 36.2393C94.1624 32.305 94.5736 32.1347 94.5736 30.4063C94.5736 28.6779 93.9965 28.2682 93.2953 28.7155C93.5148 27.8486 93.6339 26.9593 93.6502 26.0652C93.8897 16.7798 88.3496 10.6799 81.8429 10.6799C75.3161 10.6799 69.8236 17.8171 70.0357 26.0695C70.052 26.9636 70.1711 27.8529 70.3906 28.7198C69.6923 28.2725 69.1123 28.6837 69.1123 30.4107C69.1123 32.1376 69.5278 32.3093 70.1006 36.2436C70.2882 37.5305 71.5707 37.519 71.5707 37.519C71.838 39.5847 72.6664 41.5377 73.9657 43.1658L74.449 43.7588Z" fill="#FDDAA5"/>
<path d="M81.679 47.9421C81.4569 47.9421 81.2342 47.9344 81.0111 47.919C76.6468 47.6204 73.884 44.4896 73.7671 44.3555L73.7469 44.3309L73.2651 43.7337C71.9979 42.1521 71.1446 40.2798 70.7821 38.2859C70.3629 38.1541 69.9911 37.9031 69.7119 37.5637C69.4327 37.2243 69.2581 36.8111 69.2096 36.3743C68.9398 34.5204 68.7046 33.522 68.5344 32.7935C68.3396 31.9624 68.2112 31.4128 68.2112 30.4115C68.2112 29.0438 68.5416 28.1984 69.2211 27.8247L69.2817 27.793C69.1983 27.23 69.1502 26.6624 69.1374 26.0934C69.0148 21.3007 70.7735 16.5585 73.845 13.4075C76.126 11.0674 78.9682 9.77765 81.8479 9.77765C84.9338 9.77765 87.8813 11.0588 90.1478 13.3845C93.1227 16.4373 94.6896 20.9501 94.5568 26.0934C94.5441 26.6624 94.4959 27.23 94.4125 27.793L94.4731 27.8247C95.1541 28.1969 95.483 29.0424 95.483 30.4115C95.483 31.4128 95.3546 31.9625 95.1599 32.7949C94.9896 33.5235 94.7559 34.5262 94.4847 36.3743C94.4359 36.811 94.2614 37.2242 93.9822 37.5636C93.703 37.9029 93.3313 38.1539 92.9121 38.2859C92.549 40.2799 91.6952 42.1521 90.4277 43.7337L89.9372 44.3353C89.9049 44.3753 89.8691 44.4124 89.8305 44.4464C87.1845 46.7634 84.4433 47.9421 81.679 47.9421ZM75.1392 43.1811C76.2302 44.3155 77.5723 45.1779 79.0576 45.6986C82.2028 46.7648 85.4056 45.9035 88.5868 43.1378L89.0196 42.6026C90.2154 41.1055 90.9774 39.309 91.2227 37.4087C91.2439 37.1884 91.3487 36.9845 91.5156 36.8391C91.6826 36.6936 91.8989 36.6176 92.1201 36.6268C92.2632 36.6367 92.4043 36.5894 92.5125 36.4952C92.6208 36.4011 92.6872 36.2678 92.6971 36.1247C92.9857 34.1958 93.2223 33.1541 93.4012 32.3938C93.5844 31.609 93.6768 31.2151 93.6768 30.4216C93.6834 30.1398 93.6582 29.8581 93.6017 29.5819C93.4471 29.637 93.2805 29.6488 93.1197 29.6161C92.9589 29.5834 92.81 29.5075 92.6892 29.3964C92.5684 29.2854 92.4801 29.1435 92.434 28.986C92.3879 28.8286 92.3856 28.6615 92.4274 28.5028C92.6288 27.7032 92.7382 26.8832 92.7534 26.0588C92.8732 21.406 91.4881 17.3563 88.8581 14.6613C86.9335 12.6876 84.4447 11.5998 81.8493 11.5998C79.4616 11.5998 77.0782 12.6948 75.1392 14.6844C72.398 17.4933 70.8326 21.7537 70.9437 26.0646C70.9589 26.889 71.0683 27.709 71.2698 28.5086C71.3116 28.6672 71.3093 28.8343 71.2631 28.9918C71.217 29.1493 71.1288 29.2912 71.0079 29.4022C70.8871 29.5132 70.7383 29.5892 70.5775 29.6219C70.4167 29.6546 70.25 29.6428 70.0954 29.5877C70.0389 29.8639 70.0137 30.1456 70.0204 30.4274C70.0204 31.2194 70.1127 31.6133 70.2959 32.3982C70.4734 33.1585 70.7187 34.2001 71 36.1305C71.0118 36.2713 71.0775 36.4021 71.1834 36.4957C71.2893 36.5892 71.4272 36.6382 71.5684 36.6326H71.5771C71.7956 36.6324 72.0068 36.7116 72.1713 36.8554C72.3359 36.9992 72.4425 37.1979 72.4716 37.4145C72.7162 39.3147 73.4777 41.1112 74.6732 42.6083L75.1392 43.1811Z" fill="#F47B20"/>
<path d="M70.5844 21.7353V20.1916C70.5844 16.5848 73.4035 10.7331 77.6321 10.2224C78.052 10.1719 85.1863 10.2224 85.5094 10.2137C90.0035 10.1849 92.7793 16.038 93.0938 20.6013C93.1546 21.004 93.2512 21.4004 93.3824 21.7858C99.4995 22.7178 103.301 22.588 103.301 24.4924C103.301 27.4153 93.6955 29.7857 81.8464 29.7857C69.9973 29.7857 60.3916 27.4153 60.3916 24.4924C60.3916 22.588 64.4702 22.6688 70.5859 21.7368" fill="#FEEFD2"/>
<path d="M81.8447 30.686C76.0435 30.686 70.5799 30.1262 66.458 29.1091C61.8326 27.9679 59.4882 26.4141 59.4882 24.4924C59.4882 22.8232 61.2396 22.3124 61.8153 22.1436C62.9695 21.8075 64.5406 21.6142 66.533 21.3689C67.4895 21.2506 68.5528 21.1207 69.6825 20.9577V20.1931C69.6825 18.1617 70.4774 15.624 71.7571 13.571C73.2994 11.0967 75.3481 9.59049 77.528 9.32791C77.7704 9.29905 79.0443 9.28607 84.6378 9.30915H85.5034H85.5409C87.8666 9.30915 90.0278 10.6884 91.6292 13.2045C92.9277 15.2489 93.8178 17.9929 93.9939 20.5422C94.0125 20.6885 94.0419 20.8331 94.0819 20.975C95.3038 21.1525 96.4292 21.2895 97.4391 21.4079C99.3651 21.643 100.887 21.8291 101.982 22.1566C103.454 22.5981 104.2 23.3801 104.2 24.4837C104.2 26.4069 101.855 27.9607 97.2299 29.1005C93.1124 30.1262 87.6459 30.686 81.8447 30.686ZM77.7315 11.1198C75.5457 11.3881 74.0107 13.3675 73.2893 14.5261C72.1943 16.2818 71.4873 18.5051 71.4873 20.1931V21.7368C71.4874 21.9525 71.4101 22.161 71.2695 22.3246C71.129 22.4882 70.9345 22.596 70.7213 22.6284C69.2785 22.8491 67.9353 23.0136 66.7538 23.1593C64.3213 23.4594 61.293 23.8316 61.293 24.4924C61.293 25.2138 63.0445 26.4098 66.8908 27.3591C70.8742 28.3416 76.1849 28.8826 81.8447 28.8826C87.5045 28.8826 92.8094 28.3416 96.8 27.3591C100.646 26.4098 102.398 25.208 102.398 24.4924C102.398 23.8403 99.7676 23.5186 97.2227 23.2084C96.0454 23.0641 94.7123 22.9025 93.2451 22.6775C93.0803 22.6525 92.9257 22.5824 92.7984 22.475C92.671 22.3675 92.576 22.2268 92.5237 22.0686C92.368 21.6123 92.2583 21.1416 92.1962 20.6634C91.9192 16.6541 89.455 11.1183 85.5438 11.1183H85.4875H84.6219C83.0349 11.1053 78.2047 11.0851 77.7315 11.1198Z" fill="#F47B20"/>
<path d="M81.6162 24.5168C78.2113 24.5168 74.228 24.0623 70.2691 22.585C70.0449 22.5013 69.8631 22.3321 69.7636 22.1144C69.6642 21.8968 69.6553 21.6485 69.7389 21.4243C69.8225 21.2001 69.9918 21.0182 70.2094 20.9188C70.4271 20.8194 70.6754 20.8105 70.8996 20.8941C81.72 24.9337 92.9603 20.9792 93.0728 20.9388C93.1843 20.8984 93.3027 20.8803 93.4212 20.8856C93.5397 20.8909 93.656 20.9194 93.7634 20.9697C93.8709 21.0199 93.9674 21.0908 94.0474 21.1784C94.1274 21.2659 94.1895 21.3683 94.2299 21.4798C94.2704 21.5913 94.2885 21.7097 94.2832 21.8282C94.2779 21.9467 94.2493 22.063 94.199 22.1704C94.1488 22.2779 94.0779 22.3743 93.9904 22.4544C93.9028 22.5344 93.8004 22.5964 93.6889 22.6369C93.5677 22.6802 90.6592 23.7161 86.3151 24.2354C84.7557 24.4221 83.1867 24.516 81.6162 24.5168Z" fill="#F47B20"/>
<path d="M89.0697 78.052C88.8305 78.052 88.6012 77.957 88.4321 77.7879C88.263 77.6187 88.168 77.3894 88.168 77.1502V72.2652H75.5181V77.1502C75.5181 77.3896 75.4231 77.6191 75.2538 77.7884C75.0846 77.9576 74.8551 78.0527 74.6157 78.0527C74.3764 78.0527 74.1469 77.9576 73.9776 77.7884C73.8084 77.6191 73.7133 77.3896 73.7133 77.1502V71.362C73.7133 71.1229 73.8083 70.8935 73.9774 70.7244C74.1465 70.5553 74.3759 70.4603 74.615 70.4603H89.0697C89.3088 70.4603 89.5382 70.5553 89.7073 70.7244C89.8764 70.8935 89.9714 71.1229 89.9714 71.362V77.1502C89.9714 77.3894 89.8764 77.6187 89.7073 77.7879C89.5382 77.957 89.3088 78.052 89.0697 78.052Z" fill="#F47B20"/>
</svg>
