<svg width="20" height="20" viewBox="0 0 20 20" fill="none" xmlns="http://www.w3.org/2000/svg">
<g clip-path="url(#clip0_4463_12904)">
<path d="M5.37916 15.8333L1.66666 18.75V3.33333C1.66666 3.11232 1.75446 2.90036 1.91074 2.74408C2.06702 2.5878 2.27898 2.5 2.5 2.5H17.5C17.721 2.5 17.933 2.5878 18.0893 2.74408C18.2455 2.90036 18.3333 3.11232 18.3333 3.33333V15C18.3333 15.221 18.2455 15.433 18.0893 15.5893C17.933 15.7455 17.721 15.8333 17.5 15.8333H5.37916ZM4.8025 14.1667H16.6667V4.16667H3.33333V15.3208L4.8025 14.1667ZM5.83333 8.33333H7.5C7.5 8.99637 7.76339 9.63226 8.23223 10.1011C8.70107 10.5699 9.33696 10.8333 10 10.8333C10.663 10.8333 11.2989 10.5699 11.7678 10.1011C12.2366 9.63226 12.5 8.99637 12.5 8.33333H14.1667C14.1667 9.4384 13.7277 10.4982 12.9463 11.2796C12.1649 12.061 11.1051 12.5 10 12.5C8.89493 12.5 7.83512 12.061 7.05372 11.2796C6.27232 10.4982 5.83333 9.4384 5.83333 8.33333Z" fill="#F47B20"/>
</g>
<defs>
<clipPath id="clip0_4463_12904">
<rect width="20" height="20" fill="white"/>
</clipPath>
</defs>
</svg>
