<svg width="16" height="16" viewBox="0 0 16 16" fill="none" xmlns="http://www.w3.org/2000/svg">
<path d="M4.66671 4.66667C4.75511 4.66667 4.8399 4.63155 4.90241 4.56904C4.96492 4.50652 5.00004 4.42174 5.00004 4.33333C5.00004 4.24493 4.96492 4.16014 4.90241 4.09763C4.8399 4.03512 4.75511 4 4.66671 4C4.5783 4 4.49352 4.03512 4.43101 4.09763C4.36849 4.16014 4.33337 4.24493 4.33337 4.33333C4.33337 4.42174 4.36849 4.50652 4.43101 4.56904C4.49352 4.63155 4.5783 4.66667 4.66671 4.66667Z" fill="black"/>
<path fill-rule="evenodd" clip-rule="evenodd" d="M5.02861 2.00011C5.44861 1.58011 6.16661 1.87744 6.16661 2.47144V3.00011H6.69528C7.28928 3.00011 7.58661 3.71811 7.16661 4.13811L6.56894 4.73577C6.56492 4.73987 6.56081 4.74387 6.55661 4.74777L7.70861 6.69677C7.84494 6.92746 8.04762 7.11172 8.29021 7.22553C8.5328 7.33934 8.80406 7.3774 9.06861 7.33477L13.2619 6.65911C13.8053 6.57144 14.1753 7.19544 13.8379 7.63044C13.5146 8.04744 13.3516 8.58044 13.2339 9.16377C12.7946 11.3401 10.9513 13.0174 8.66661 13.2934V14.0001H9.49994V14.6668H6.33328V14.0001H7.99994V13.3334C6.19528 13.3334 4.59661 12.4644 3.63094 11.1308C2.85628 10.0608 2.98228 8.68577 3.29561 7.54177L3.46061 6.94011C3.54454 6.63393 3.56507 6.31383 3.52094 5.99944L3.49994 6.00011H2.63794C2.04394 6.00011 1.74661 5.28211 2.16661 4.86211L5.02861 2.00011ZM6.69528 3.66677L6.20661 4.15544L5.96328 3.74444C5.93225 3.69187 5.89808 3.64122 5.86094 3.59277C5.95261 3.64011 6.05628 3.66677 6.16661 3.66677H6.69528ZM5.49994 3.00011C5.49994 3.11144 5.52728 3.21677 5.57561 3.30877C5.38967 3.16751 5.17361 3.07112 4.94428 3.02711L5.49994 2.47144V3.00011ZM2.63794 5.33344L3.16961 4.80211C3.18294 4.87144 3.20161 4.94077 3.22561 5.01011L3.33694 5.33344H2.63794ZM3.85594 4.79277C3.78791 4.59399 3.79596 4.37705 3.87855 4.18386C3.96114 3.99068 4.11241 3.83496 4.30311 3.7468C4.49382 3.65863 4.71044 3.64428 4.91111 3.70652C5.11178 3.76876 5.28226 3.90317 5.38961 4.08377L7.13494 7.03611C7.33946 7.38202 7.64344 7.65831 8.00726 7.82895C8.37108 7.99959 8.77787 8.05668 9.17461 7.99277L13.2239 7.34044C12.8633 7.85944 12.6943 8.46811 12.5806 9.03211C12.4902 9.47807 12.3306 9.90714 12.1076 10.3038C12.0762 10.3237 12.0484 10.3487 12.0253 10.3778C11.3943 11.1711 10.4593 11.6668 9.42128 11.6668C7.55128 11.6668 5.99994 10.0454 5.99994 8.00011C5.99994 7.9117 5.96483 7.82692 5.90231 7.7644C5.8398 7.70189 5.75502 7.66677 5.66661 7.66677C5.57821 7.66677 5.49342 7.70189 5.43091 7.7644C5.3684 7.82692 5.33328 7.9117 5.33328 8.00011C5.33328 10.3734 7.14394 12.3334 9.42128 12.3334C9.55461 12.3334 9.68594 12.3268 9.81594 12.3134C9.23925 12.5478 8.62246 12.6679 7.99994 12.6668C6.41228 12.6668 5.01328 11.9031 4.17094 10.7401C3.58228 9.92711 3.63761 8.81577 3.93861 7.71811L4.10361 7.11611C4.26326 6.53371 4.2434 5.91669 4.04661 5.34577L3.85594 4.79277Z" fill="black"/>
</svg>
