<svg width="24" height="24" viewBox="0 0 24 24" fill="none" xmlns="http://www.w3.org/2000/svg">
<rect width="24" height="24" rx="4" fill="#FFF6ED"/>
<g clip-path="url(#clip0_5_1088)">
<path d="M14.6129 7.25129C14.6407 7.28669 14.6888 7.29911 14.7303 7.28161C15.1132 7.12019 15.5181 7.00069 15.9392 6.92885C15.9732 6.92305 16.0018 6.90014 16.0149 6.86823C16.028 6.83633 16.0237 6.79992 16.0036 6.77192C15.4674 6.02589 14.8714 5.38545 14.2579 4.90829C13.5664 4.37045 12.7836 3.9874 12 3.9874C11.2165 3.9874 10.4337 4.37045 9.74214 4.90829C9.0376 5.45627 8.35591 6.21975 7.76134 7.11161C6.57538 8.89055 5.67502 11.2734 5.67502 13.6874C5.67502 15.3649 6.34141 16.9737 7.52757 18.1599C8.71374 19.346 10.3225 20.0124 12 20.0124C13.6775 20.0124 15.2863 19.346 16.4725 18.1599L16.4018 18.0891L16.4725 18.1599C16.5065 18.1258 16.5401 18.0915 16.5732 18.0568C16.6001 18.0287 16.6082 17.9876 16.5941 17.9514C16.58 17.9152 16.5462 17.8905 16.5075 17.8879C16.0064 17.855 15.5236 17.7553 15.0679 17.5977C15.0364 17.5868 15.0015 17.5923 14.9748 17.6125C14.1237 18.2576 13.0802 18.6124 12 18.6124C10.6938 18.6124 9.44114 18.0935 8.51752 17.1699C7.59391 16.2463 7.07502 14.9936 7.07502 13.6874C7.07502 11.6014 7.86218 9.48424 8.92621 7.88819C9.45664 7.09255 10.0406 6.44978 10.6017 6.01339C11.1757 5.5669 11.6585 5.3874 12 5.3874C12.3415 5.3874 12.8243 5.5669 13.3984 6.01339C13.8006 6.32622 14.2148 6.74533 14.6129 7.25129Z" fill="#F47B20" stroke="#F47B20" stroke-width="0.2" stroke-linecap="round" stroke-linejoin="round"/>
<path d="M12.35 7.5V7.4H12.25H11.25H11.15V7.5C11.15 8.38523 11.8648 9.1 12.75 9.1H14.65L14.65 9.9436C12.67 10.234 11.15 11.9394 11.15 14V17C11.15 17.3314 11.4186 17.6 11.75 17.6H18.75C19.0814 17.6 19.35 17.3314 19.35 17V14C19.35 11.9396 17.8302 10.2342 15.8504 9.94367L15.85 9.1H17.75C18.6337 9.1 19.35 8.38365 19.35 7.5V7.4H19.25H18.25H18.15V7.5C18.15 7.59607 18.1034 7.69679 18.0254 7.77498C17.9473 7.85315 17.8467 7.9 17.75 7.9H12.75C12.6539 7.9 12.5532 7.85343 12.475 7.77538C12.3968 7.69736 12.35 7.59668 12.35 7.5ZM16.3367 12.3476L16.4279 12.2564L16.3168 12.1908C16.0041 12.006 15.6393 11.9 15.25 11.9C14.0902 11.9 13.15 12.8402 13.15 14C13.15 15.1598 14.0902 16.1 15.25 16.1C16.4098 16.1 17.35 15.1598 17.35 14C17.35 13.6107 17.244 13.2459 17.0592 12.9331L16.9936 12.8221L16.9024 12.9133L15.5351 14.2806L15.4927 14.318C15.336 14.438 15.1106 14.4263 14.9671 14.2828C14.8109 14.1266 14.8109 13.8734 14.9671 13.7172L16.3367 12.3476ZM12.35 14C12.35 12.4352 13.686 11.1 15.25 11.1C16.8139 11.1 18.15 12.436 18.15 14V16.4H12.35V14Z" fill="#F47B20" stroke="#F47B20" stroke-width="0.2"/>
</g>
<defs>
<clipPath id="clip0_5_1088">
<rect width="18" height="18" fill="white" transform="translate(3 3)"/>
</clipPath>
</defs>
</svg>
