<svg width="16" height="16" viewBox="0 0 16 16" fill="none" xmlns="http://www.w3.org/2000/svg">
<path d="M9.22871 10.58C9.63173 10.8381 10.0968 10.983 10.5751 10.9994C11.0534 11.0159 11.5273 10.9033 11.9471 10.6735C12.3669 10.4437 12.7171 10.1052 12.961 9.69348C13.2049 9.28174 13.3335 8.81194 13.3334 8.33337C13.3334 7.50804 12.918 6.24271 12.28 5.20137C11.6754 4.21471 11.016 3.66671 10.6667 3.66671C10.3174 3.66671 9.65804 4.21471 9.05337 5.20137C8.80987 5.60134 8.60132 6.02156 8.43004 6.45737C8.18977 5.98157 7.90471 5.52975 7.57871 5.10804C8.34804 3.60671 9.50671 2.33337 10.6667 2.33337C12.6667 2.33337 14.6667 6.12404 14.6667 8.33337C14.6669 9.03189 14.4841 9.71827 14.1366 10.3242C13.7891 10.9302 13.289 11.4345 12.686 11.7872C12.083 12.1398 11.3982 12.3284 10.6997 12.3341C10.0012 12.3399 9.31342 12.1627 8.70471 11.82C8.94471 11.4447 9.12471 11.0267 9.22871 10.58ZM5.33337 13.6667C4.27251 13.6667 3.25509 13.2453 2.50495 12.4951C1.7548 11.745 1.33337 10.7276 1.33337 9.66671C1.33337 7.45737 3.33337 3.66671 5.33337 3.66671C7.33337 3.66671 9.33337 7.45737 9.33337 9.66671C9.33337 10.7276 8.91195 11.745 8.1618 12.4951C7.41165 13.2453 6.39424 13.6667 5.33337 13.6667ZM5.33337 12.3334C6.04062 12.3334 6.71889 12.0524 7.21899 11.5523C7.71909 11.0522 8.00004 10.374 8.00004 9.66671C8.00004 8.84137 7.58471 7.57604 6.94671 6.53471C6.34204 5.54804 5.68271 5.00004 5.33337 5.00004C4.98404 5.00004 4.32471 5.54804 3.72004 6.53471C3.08204 7.57604 2.66671 8.84137 2.66671 9.66671C2.66671 10.374 2.94766 11.0522 3.44776 11.5523C3.94785 12.0524 4.62613 12.3334 5.33337 12.3334Z" fill="black"/>
</svg>
