<svg width="24" height="24" viewBox="0 0 24 24" fill="none" xmlns="http://www.w3.org/2000/svg">
<rect width="24" height="24" rx="4" fill="#FFF6ED"/>
<g clip-path="url(#clip0_600_2237)">
<path d="M14.6129 7.25129C14.6407 7.28669 14.6888 7.29911 14.7303 7.28161C15.1132 7.12019 15.5181 7.00069 15.9392 6.92885C15.9732 6.92305 16.0018 6.90014 16.0149 6.86823C16.028 6.83633 16.0237 6.79992 16.0036 6.77192C15.4674 6.02589 14.8714 5.38545 14.2579 4.90829C13.5664 4.37045 12.7836 3.9874 12 3.9874C11.2165 3.9874 10.4337 4.37045 9.74214 4.90829C9.0376 5.45627 8.35591 6.21975 7.76134 7.11161C6.57538 8.89055 5.67502 11.2734 5.67502 13.6874C5.67502 15.3649 6.34141 16.9737 7.52757 18.1599C8.71374 19.346 10.3225 20.0124 12 20.0124C13.6775 20.0124 15.2863 19.346 16.4725 18.1599C16.5065 18.1258 16.5401 18.0915 16.5732 18.0568C16.6001 18.0287 16.6082 17.9876 16.5941 17.9514C16.58 17.9152 16.5462 17.8905 16.5075 17.8879C16.0064 17.855 15.5236 17.7553 15.0679 17.5977C15.0364 17.5868 15.0015 17.5923 14.9748 17.6125C14.1237 18.2576 13.0802 18.6124 12 18.6124C10.6938 18.6124 9.44114 18.0935 8.51752 17.1699C7.59391 16.2463 7.07502 14.9936 7.07502 13.6874C7.07502 11.6014 7.86218 9.48424 8.92621 7.88819C9.45664 7.09255 10.0406 6.44978 10.6017 6.01339C11.1757 5.5669 11.6585 5.3874 12 5.3874C12.3415 5.3874 12.8243 5.5669 13.3984 6.01339C13.8006 6.32622 14.2148 6.74533 14.6129 7.25129Z" fill="#F47B20" stroke="#F47B20" stroke-width="0.2" stroke-linecap="round" stroke-linejoin="round"/>
<path d="M16.0624 8.00005L16.0625 7.9H15.9624H14.9098H14.8098L14.8098 7.99995L14.8095 8.60056L12.2782 9.44507L10.398 8.81834L10.3032 8.78671L10.2715 8.88158L9.93866 9.8802L9.90704 9.97505L10.0019 10.0067L11.4993 10.5061L9.90602 14.8895L9.88475 14.948L9.92787 14.9929C10.5206 15.6102 11.3546 15.9947 12.2782 15.9947C13.2018 15.9947 14.0358 15.6102 14.6286 14.9929L14.6717 14.948L14.6504 14.8895L13.0565 10.506L14.8095 9.9214V16.8474H12.8045H12.7045V16.9474V18V18.1H12.8045H18.0677H18.1677V18V16.9474V16.8474H18.0677H16.0621V9.9214L17.8151 10.5061L16.2218 14.8895L16.2005 14.948L16.2436 14.9929C16.8364 15.6102 17.6704 15.9947 18.594 15.9947C19.5176 15.9947 20.3516 15.6102 20.9444 14.9929L20.9875 14.948L20.9662 14.8895L19.3722 10.5061L20.8703 10.0067L20.9652 9.97507L20.9335 9.8802L20.6007 8.88159L20.5691 8.78671L20.4742 8.81834L18.594 9.44507L16.0621 8.60058L16.0624 8.00005ZM18.594 14.7421C18.2718 14.7421 17.9629 14.6663 17.6868 14.526L18.594 12.0309L19.5012 14.526C19.2251 14.6663 18.9162 14.7421 18.594 14.7421ZM12.2782 14.7421C11.9561 14.7421 11.6471 14.6663 11.371 14.526L12.2782 12.0309L13.1854 14.526C12.9093 14.6663 12.6004 14.7421 12.2782 14.7421Z" fill="#F47B20" stroke="#F47B20" stroke-width="0.2"/>
</g>
<defs>
<clipPath id="clip0_600_2237">
<rect width="18" height="18" fill="white" transform="translate(3 3)"/>
</clipPath>
</defs>
</svg>
