<svg width="24" height="24" viewBox="0 0 24 24" fill="none" xmlns="http://www.w3.org/2000/svg">
<rect width="24" height="24" rx="4" fill="#FFF6ED"/>
<path d="M16.5693 8.11243C16.5693 10.2079 14.5239 11.9062 11.9968 11.9062C9.47282 11.9062 7.42737 10.2079 7.42737 8.11243C7.42737 6.02006 11.9968 4.32178 11.9968 4.32178C11.9968 4.32178 16.5693 6.02006 16.5693 8.11243Z" fill="white"/>
<path d="M17.9673 18.7618C17.9673 18.9964 17.8766 19.2247 17.6984 19.4029C17.3449 19.7564 16.7726 19.7564 16.416 19.4029L16.0095 18.9964C13.9046 19.9002 10.0952 19.9002 7.99029 18.9964L7.58371 19.4029C7.23029 19.7564 6.65794 19.7564 6.30139 19.4029C5.93546 19.037 5.95423 18.4678 6.30139 18.1175L6.59539 17.8235C5.34122 15.2432 6.94568 8.50952 6.94568 8.50952C10.3141 10.1327 13.6825 10.1327 17.0509 8.50952C17.0509 8.50952 18.6585 15.237 17.4012 17.8204L17.6984 18.1175C17.8735 18.2958 17.9673 18.5303 17.9673 18.7618Z" fill="white"/>
<path d="M11.9999 11.0742C10.3266 11.0742 8.65333 10.7552 6.98632 10.1203C6.28261 9.85132 5.95734 9.03501 6.28261 8.35632C6.57035 7.76208 7.26467 7.46809 7.88081 7.70578C10.6425 8.76917 13.3541 8.76917 16.1126 7.70578C16.7288 7.46809 17.4262 7.76208 17.7109 8.35632C18.0392 9.03501 17.714 9.85132 17.0103 10.1203C15.3464 10.7552 13.6731 11.0742 11.9999 11.0742Z" fill="white"/>
<path d="M13.7231 14.9338C13.7231 15.8846 12.9506 16.6571 11.9998 16.6571C11.0491 16.6571 10.2797 15.8846 10.2797 14.9338C10.2797 13.983 11.0522 13.2136 11.9998 13.2136C12.9475 13.2136 13.7231 13.983 13.7231 14.9338Z" fill="white"/>
<path d="M15.8781 18.6962L15.8386 18.6043C14.8407 19.0333 13.4232 19.2506 11.9983 19.2506C10.5734 19.2506 9.1559 19.0333 8.158 18.6043L8.15762 18.6042C7.99504 18.5351 7.81083 18.5716 7.68812 18.6943L7.28153 19.1009C7.0954 19.287 6.78966 19.287 6.60353 19.1009C6.40906 18.9064 6.41633 18.6069 6.60353 18.4197L6.89752 18.1258C7.02402 17.9993 7.06085 17.8034 6.97932 17.636C6.59548 16.8456 6.50142 15.5934 6.55494 14.2547C6.6063 12.9699 6.79253 11.6231 6.97358 10.566C8.63654 11.183 10.3267 11.4964 11.9999 11.4964C13.6729 11.4964 15.363 11.1831 17.023 10.5661C17.2041 11.6217 17.3911 12.9668 17.4424 14.2508C17.4959 15.5885 17.4011 16.8404 17.0144 17.6323C16.9319 17.7979 16.9705 17.9932 17.0948 18.1215L17.0948 18.1215L17.0959 18.1226L17.3931 18.4197L17.3935 18.4202C17.5836 18.6077 17.5901 18.9095 17.3967 19.1004L17.3962 19.1009C17.2104 19.2867 16.9045 19.2874 16.7148 19.1007C16.7147 19.1006 16.7146 19.1005 16.7146 19.1004L16.3085 18.6943C16.1859 18.5717 15.9982 18.5347 15.8381 18.6045L15.8781 18.6962ZM15.8781 18.6962C16.0001 18.643 16.1439 18.6712 16.2378 18.765L16.6443 19.1716L6.87825 10.5303C6.50759 12.6882 6.11027 16.0753 6.88936 17.6797C6.95191 17.808 6.92376 17.9581 6.82681 18.055L6.53281 18.349C6.30763 18.5742 6.29824 18.937 6.53281 19.1716C6.758 19.3968 7.12706 19.3968 7.35225 19.1716L7.75883 18.765C7.85266 18.6712 7.9934 18.643 8.11851 18.6962C10.1483 19.5688 13.8483 19.5688 15.8781 18.6962ZM18.095 8.16929L18.095 8.16929C17.8379 7.63255 17.3266 7.2862 16.7743 7.20981C16.3355 6.28469 15.289 5.50782 14.3126 4.94471C13.3131 4.36818 12.363 4.0024 12.1442 3.92154C12.0467 3.88501 11.9437 3.88501 11.8461 3.92153C11.6295 4.00216 10.6799 4.36799 9.68001 4.94511C8.70373 5.50859 7.65662 6.28614 7.21618 7.21261C6.66659 7.28578 6.16119 7.62911 5.89993 8.16288L5.89635 8.16645L5.88895 8.18199C5.59373 8.80163 5.69453 9.55722 6.18448 10.0839C5.99403 11.1368 5.78157 12.5579 5.71047 13.9602C5.63989 15.3522 5.70763 16.7398 6.08438 17.7303L5.99609 17.8186L5.99586 17.8188C5.48614 18.3319 5.4616 19.1707 5.99609 19.7052L5.99632 19.7054C6.51684 20.2226 7.36188 20.2229 7.87959 19.7052L8.08723 19.4975C9.17614 19.9038 10.5857 20.1067 11.9936 20.1067C13.4016 20.1067 14.8114 19.9038 15.9004 19.4974L16.111 19.7054C16.6315 20.2226 17.4797 20.2229 17.9974 19.7052C18.5276 19.1781 18.521 18.3359 18.0004 17.8185C18.0004 17.8184 18.0003 17.8184 18.0003 17.8183L17.906 17.7241C18.2843 16.7336 18.3528 15.3459 18.2822 13.9544C18.2111 12.5525 17.9979 11.1321 17.8059 10.0807C18.3022 9.54707 18.3899 8.78504 18.095 8.16929ZM15.8726 7.33855C13.2647 8.32443 10.7293 8.32161 8.11818 7.3386C8.48041 6.79095 9.16199 6.26333 9.89844 5.81581C10.6593 5.35342 11.464 4.98524 11.9967 4.77626C12.5295 4.98525 13.3349 5.35344 14.0958 5.81581C14.8324 6.26342 15.5132 6.79104 15.8726 7.33855ZM6.66681 8.54027L6.6766 8.51979V8.51759C6.87447 8.13121 7.33361 7.95159 7.72606 8.10253C10.5984 9.20921 13.3951 9.20921 16.2644 8.10249L16.2646 8.1024C16.6638 7.94715 17.1325 8.13782 17.3268 8.54056C17.5454 8.99464 17.3294 9.54102 16.856 9.7203L16.8557 9.72043C15.2494 10.3356 13.6133 10.6458 11.9999 10.6458C10.3833 10.6458 8.75033 10.3356 7.13784 9.71732L7.13715 9.71706C6.66699 9.54075 6.44803 8.99745 6.66681 8.54027ZM5.89335 8.17469C5.89325 8.17491 5.89315 8.1751 5.89308 8.17525C5.89301 8.17539 5.89295 8.17551 5.89291 8.17559C5.89274 8.17594 5.89289 8.17558 5.89335 8.17469Z" fill="#F47B20" stroke="#F47B20" stroke-width="0.2"/>
<path d="M11.9999 12.785C10.8156 12.785 9.85129 13.7493 9.85129 14.9336C9.85129 16.1179 10.8156 17.0822 11.9999 17.0822C13.1842 17.0822 14.1484 16.1179 14.1484 14.9336C14.1484 13.7493 13.1842 12.785 11.9999 12.785ZM11.9999 16.2285C11.2857 16.2285 10.705 15.6477 10.705 14.9336C10.705 14.2194 11.2857 13.6387 11.9999 13.6387C12.714 13.6387 13.2948 14.2194 13.2948 14.9336C13.2948 15.6477 12.714 16.2285 11.9999 16.2285Z" fill="#F47B20" stroke="#F47B20" stroke-width="0.2"/>
</svg>
