<svg width="24" height="24" viewBox="0 0 24 24" fill="none" xmlns="http://www.w3.org/2000/svg">
<path d="M5.87502 0.916748C6.52616 0.916748 7.17092 1.045 7.7725 1.29418C8.37407 1.54336 8.92067 1.90859 9.38109 2.36901C9.84152 2.82943 10.2067 3.37604 10.4559 3.97761C10.7051 4.57918 10.8334 5.22394 10.8334 5.87508V10.8334H5.87502C4.55999 10.8334 3.29882 10.311 2.36895 9.38115C1.43908 8.45129 0.916689 7.19011 0.916689 5.87508C0.916689 4.56005 1.43908 3.29888 2.36895 2.36901C3.29882 1.43914 4.55999 0.916748 5.87502 0.916748ZM8.50002 8.50008V5.87508C8.50002 5.35591 8.34607 4.84839 8.05763 4.41671C7.76919 3.98503 7.35922 3.64858 6.87957 3.4499C6.39991 3.25122 5.87211 3.19923 5.36291 3.30052C4.85371 3.40181 4.38598 3.65181 4.01887 4.01893C3.65175 4.38604 3.40175 4.85377 3.30046 5.36297C3.19917 5.87217 3.25116 6.39997 3.44984 6.87963C3.64852 7.35928 3.98497 7.76925 4.41665 8.05769C4.84833 8.34613 5.35585 8.50008 5.87502 8.50008H8.50002ZM5.87502 13.1667H10.8334V18.1251C10.8334 19.1057 10.5426 20.0644 9.99773 20.8798C9.4529 21.6952 8.67851 22.3307 7.7725 22.706C6.86648 23.0813 5.86952 23.1795 4.9077 22.9881C3.94588 22.7968 3.06239 22.3246 2.36895 21.6312C1.67552 20.9377 1.20328 20.0542 1.01196 19.0924C0.820644 18.1306 0.918835 17.1336 1.29412 16.2276C1.6694 15.3216 2.30493 14.5472 3.12032 14.0024C3.93571 13.4576 4.89436 13.1667 5.87502 13.1667ZM5.87502 15.5001C5.35585 15.5001 4.84833 15.654 4.41665 15.9425C3.98497 16.2309 3.64852 16.6409 3.44984 17.1205C3.25116 17.6002 3.19917 18.128 3.30046 18.6372C3.40175 19.1464 3.65175 19.6141 4.01887 19.9812C4.38598 20.3484 4.85371 20.5984 5.36291 20.6996C5.87211 20.8009 6.39991 20.7489 6.87957 20.5503C7.35922 20.3516 7.76919 20.0151 8.05763 19.5835C8.34607 19.1518 8.50002 18.6443 8.50002 18.1251V15.5001H5.87502ZM18.125 0.916748C19.4401 0.916748 20.7012 1.43914 21.6311 2.36901C22.561 3.29888 23.0834 4.56005 23.0834 5.87508C23.0834 7.19011 22.561 8.45129 21.6311 9.38115C20.7012 10.311 19.4401 10.8334 18.125 10.8334H13.1667V5.87508C13.1667 4.56005 13.6891 3.29888 14.619 2.36901C15.5488 1.43914 16.81 0.916748 18.125 0.916748ZM18.125 8.50008C18.6442 8.50008 19.1517 8.34613 19.5834 8.05769C20.0151 7.76925 20.3515 7.35928 20.5502 6.87963C20.7489 6.39997 20.8009 5.87217 20.6996 5.36297C20.5983 4.85377 20.3483 4.38604 19.9812 4.01893C19.6141 3.65181 19.1463 3.40181 18.6371 3.30052C18.1279 3.19923 17.6001 3.25122 17.1205 3.4499C16.6408 3.64858 16.2309 3.98503 15.9424 4.41671C15.654 4.84839 15.5 5.35591 15.5 5.87508V8.50008H18.125ZM13.1667 13.1667H18.125C19.1057 13.1667 20.0643 13.4576 20.8797 14.0024C21.6951 14.5472 22.3306 15.3216 22.7059 16.2276C23.0812 17.1336 23.1794 18.1306 22.9881 19.0924C22.7968 20.0542 22.3245 20.9377 21.6311 21.6312C20.9377 22.3246 20.0542 22.7968 19.0923 22.9881C18.1305 23.1795 17.1336 23.0813 16.2276 22.706C15.3215 22.3307 14.5471 21.6952 14.0023 20.8798C13.4575 20.0644 13.1667 19.1057 13.1667 18.1251V13.1667ZM15.5 15.5001V18.1251C15.5 18.6443 15.654 19.1518 15.9424 19.5835C16.2309 20.0151 16.6408 20.3516 17.1205 20.5503C17.6001 20.7489 18.1279 20.8009 18.6371 20.6996C19.1463 20.5984 19.6141 20.3484 19.9812 19.9812C20.3483 19.6141 20.5983 19.1464 20.6996 18.6372C20.8009 18.128 20.7489 17.6002 20.5502 17.1205C20.3515 16.6409 20.0151 16.2309 19.5834 15.9425C19.1517 15.654 18.6442 15.5001 18.125 15.5001H15.5Z" fill="white"/>
</svg>
