<svg width="112" height="56" viewBox="0 0 112 56" fill="none" xmlns="http://www.w3.org/2000/svg">
<ellipse cx="56" cy="50" rx="56" ry="6" fill="#FEF6D2"/>
<path d="M63.3628 50.2586L67.524 50.5528C67.583 50.5584 67.6421 50.5443 67.6923 50.5128C67.7425 50.4812 67.7808 50.434 67.8014 50.3785C67.822 50.3229 67.8237 50.2621 67.8061 50.2055C67.7886 50.1489 67.7529 50.0996 67.7045 50.0654C67.412 49.8849 64.3756 49.2314 63.6571 49.0942C62.8194 48.9353 62.1533 48.4244 61.9962 47.5868L60.7975 41.1528L58.8027 41.3947L60.8102 48.3522C60.8806 48.7331 60.7705 48.8649 60.6098 49.0075C60.2199 49.3577 58.9851 50.2586 59.153 50.7659C59.2432 51.0367 59.7126 50.82 60.005 50.6774C61.0322 50.1791 61.4493 50.6954 61.702 50.9536C62.5595 51.8436 63.3989 52.2047 63.973 52.2047C64.659 52.2047 64.2474 51.7912 64.2474 51.7912C63.8701 51.58 63.5361 51.1937 63.1642 50.7911C63.1185 50.7502 63.0861 50.6964 63.0714 50.6368C63.0566 50.5772 63.0602 50.5146 63.0817 50.457C63.1031 50.3995 63.1414 50.3498 63.1916 50.3144C63.2418 50.279 63.3014 50.2595 63.3628 50.2586Z" fill="#FDEBA5"/>
<path d="M67.9833 49.5741C67.5139 49.2943 63.7879 48.5415 63.7518 48.5343C63.36 48.4603 62.6812 48.2238 62.5422 47.4782L61.3417 41.0515C61.3149 40.9103 61.2355 40.7844 61.1196 40.6994C61.0037 40.6143 60.8599 40.5763 60.7171 40.593L58.7223 40.8349C58.6407 40.8449 58.5622 40.8726 58.4924 40.9159C58.4226 40.9593 58.363 41.0174 58.3178 41.0861C58.2726 41.1548 58.243 41.2325 58.2308 41.3138C58.2187 41.3951 58.2244 41.4781 58.2475 41.557L60.264 48.4892C60.2656 48.515 60.2656 48.541 60.264 48.5668L60.2315 48.5957C60.1719 48.6499 60.0889 48.7185 59.995 48.7961C59.2729 49.4063 58.354 50.1645 58.6158 50.9534C58.6484 51.0546 58.7025 51.1475 58.7745 51.2257C58.8465 51.304 58.9346 51.3656 59.0328 51.4065C59.4227 51.5708 59.8668 51.383 60.2532 51.1971C60.8633 50.901 61.0366 51.0852 61.2587 51.318L61.2948 51.3559C62.1667 52.2586 63.1416 52.7803 63.972 52.7803C64.5605 52.7803 64.7916 52.5203 64.8746 52.3019C64.9294 52.1453 64.9364 51.976 64.895 51.8153C64.8535 51.6546 64.7654 51.5099 64.6417 51.3993C64.605 51.3616 64.563 51.3294 64.5172 51.3036C64.3292 51.1858 64.1579 51.0431 64.0081 50.8793L67.485 51.1249C67.6721 51.1338 67.8567 51.08 68.0098 50.9721C68.1628 50.8642 68.2755 50.7083 68.3299 50.5291C68.3834 50.3622 68.3814 50.1824 68.3241 50.0168C68.2668 49.8511 68.1574 49.7085 68.0122 49.6103L67.9833 49.5741ZM63.4015 49.6933C63.2342 49.6821 63.0675 49.7224 62.9238 49.8089C62.7802 49.8955 62.6665 50.024 62.5982 50.1771C62.5342 50.3164 62.5068 50.4698 62.5184 50.6226C62.5301 50.7755 62.5806 50.9229 62.665 51.0509C62.4731 50.9008 62.2921 50.7373 62.1234 50.5616L62.0927 50.5291C61.9343 50.3384 61.7367 50.1839 61.5134 50.0762C61.2901 49.9684 61.0462 49.9099 60.7983 49.9045C60.6617 49.9051 60.5256 49.9202 60.3922 49.9497C60.5312 49.8269 60.6593 49.7204 60.7352 49.6572C60.8417 49.5687 60.9337 49.4911 61.0023 49.4297C61.2551 49.2041 61.497 48.8882 61.3796 48.2509C61.3764 48.232 61.3722 48.2133 61.367 48.1949L59.5274 41.8765L60.3344 41.779L61.4356 47.6931C61.627 48.7058 62.4159 49.4388 63.5478 49.6536L63.99 49.742L63.4015 49.6933Z" fill="#AB6116"/>
<path d="M47.248 49.0847C46.4645 49.2328 44.5004 49.5379 44.188 49.6714C44.1358 49.6986 44.0938 49.7421 44.0687 49.7954C44.0435 49.8487 44.0366 49.9088 44.0489 49.9664C44.0612 50.024 44.0921 50.076 44.1368 50.1143C44.1815 50.1527 44.2376 50.1753 44.2964 50.1787L47.4881 50.3069C47.5482 50.3166 47.6041 50.3441 47.6485 50.3858C47.6928 50.4275 47.7237 50.4816 47.7371 50.541C47.7505 50.6004 47.7458 50.6625 47.7236 50.7192C47.7014 50.7759 47.6628 50.8247 47.6126 50.8593C47.1848 51.2095 46.8039 51.5489 46.4031 51.7078C46.4031 51.7078 45.9428 52.0688 46.6215 52.1537C47.1902 52.2313 48.0657 51.984 49.0388 51.2131C49.3186 50.9911 49.8042 50.5344 50.7574 51.1644C51.0282 51.3449 51.4651 51.6193 51.5896 51.363C51.8225 50.8828 50.77 49.9332 50.4288 49.5379C50.0876 49.1425 50.2718 48.433 50.3223 47.9564C50.4216 47.0015 50.9271 42.3186 50.9271 42.3186L48.7102 42.3583C48.7102 42.3583 49.2283 46.774 49.1038 47.8048C48.9901 48.6551 48.0856 48.9259 47.248 49.0847Z" fill="#FDEBA5"/>
<path d="M47.1421 48.529C46.9164 48.5723 46.5897 48.6283 46.2395 48.6896C44.8386 48.9297 44.2122 49.0507 43.9702 49.1518L43.9486 49.1608C43.7842 49.2353 43.6495 49.3627 43.5661 49.5228C43.4826 49.6828 43.4552 49.8662 43.4882 50.0436C43.5211 50.2316 43.6162 50.4031 43.7583 50.5304C43.9004 50.6578 44.0813 50.7337 44.2717 50.7458L46.7341 50.8451C46.5694 50.9818 46.3873 51.0959 46.1925 51.1845C46.1441 51.2041 46.0985 51.2302 46.0571 51.2621C45.9206 51.3554 45.8146 51.4868 45.7523 51.6399C45.69 51.7931 45.6742 51.9612 45.7069 52.1232C45.7665 52.3507 45.9615 52.6396 46.5446 52.7172C46.6403 52.7296 46.7368 52.7357 46.8334 52.7352C47.6043 52.7352 48.5177 52.3543 49.3897 51.6521L49.4312 51.6178C49.6803 51.4174 49.8771 51.2567 50.4439 51.6322C50.8194 51.8795 51.2184 52.1124 51.6264 51.9933C51.729 51.9658 51.8244 51.9163 51.906 51.8484C51.9877 51.7805 52.0537 51.6956 52.0994 51.5997C52.4604 50.856 51.6661 50.0165 51.0848 49.4027C50.9945 49.307 50.9151 49.2222 50.8573 49.1572C50.749 49.0308 50.814 48.5416 50.8573 48.278C50.87 48.1824 50.8826 48.0975 50.8916 48.0054C50.9909 47.0505 51.4964 42.3694 51.4964 42.3694C51.505 42.2897 51.4966 42.209 51.4717 42.1328C51.4468 42.0565 51.406 41.9864 51.352 41.9271C51.2962 41.8702 51.2296 41.8249 51.1562 41.7939C51.0827 41.7629 51.0038 41.7468 50.9241 41.7466L48.7073 41.7863C48.6283 41.7878 48.5504 41.8058 48.4788 41.8391C48.4071 41.8725 48.3432 41.9205 48.2912 41.98C48.2392 42.0395 48.2002 42.1092 48.1767 42.1846C48.1532 42.2601 48.1458 42.3396 48.1549 42.4181C48.3607 44.1656 48.6351 47.0234 48.5484 47.7292C48.4834 48.1228 48.0826 48.3503 47.1421 48.529ZM49.6604 47.8791C49.7651 47.0179 49.4799 44.2126 49.3373 42.92L50.2905 42.9038C50.1479 44.2198 49.8301 47.1696 49.7489 47.9061C49.7489 47.9802 49.7308 48.0596 49.7182 48.1445C49.646 48.6752 49.5485 49.4081 49.989 49.9154C50.0558 49.993 50.1479 50.0959 50.2526 50.2007L50.4223 50.3812C50.1311 50.2803 49.818 50.2606 49.5165 50.3242C49.215 50.3878 48.9365 50.5323 48.7109 50.7422L48.6748 50.7711C48.4851 50.923 48.2848 51.0611 48.0754 51.1845C48.1759 51.0687 48.2451 50.9292 48.2767 50.7791C48.3083 50.6291 48.3012 50.4735 48.256 50.327C48.2056 50.1632 48.1059 50.019 47.9705 49.914C47.8352 49.809 47.6707 49.7483 47.4995 49.7403L46.9092 49.7168L47.3515 49.6374C47.9924 49.5201 49.4889 49.2366 49.655 47.8773L49.6604 47.8791Z" fill="#AB6116"/>
<path d="M60.1283 43.0501C63.3778 42.1962 61.1429 35.468 61.1429 35.468L55.6855 36.979C55.6855 36.979 57.0196 43.8643 60.1283 43.0501Z" fill="#FDEBA5"/>
<path d="M58.2841 43.2758C58.6849 43.5372 59.1523 43.6782 59.6308 43.6819C59.8503 43.681 60.0687 43.6519 60.2807 43.5953C60.6379 43.5057 60.9719 43.341 61.2604 43.1122C61.549 42.8834 61.7855 42.5958 61.9542 42.2684C63.2179 39.9414 61.7502 35.468 61.687 35.2784C61.6403 35.1417 61.5429 35.0281 61.415 34.961C61.2871 34.8938 61.1383 34.8782 60.9992 34.9174L55.5419 36.4284C55.4045 36.4663 55.2865 36.5546 55.2115 36.6758C55.1365 36.797 55.1101 36.9421 55.1375 37.0819C55.1682 37.2733 56.0889 41.9019 58.2841 43.2758ZM60.7718 36.1504C61.1743 37.5946 61.7123 40.344 60.9523 41.7305C60.8562 41.9209 60.7202 42.0883 60.5535 42.2213C60.3868 42.3544 60.1934 42.4499 59.9865 42.5013C59.7999 42.5526 59.6044 42.563 59.4134 42.5319C59.2224 42.5007 59.0404 42.4287 58.8798 42.3208C57.5836 41.5066 56.7135 38.824 56.3525 37.3744L60.7718 36.1504Z" fill="#AB6116"/>
<path d="M52.6617 37.6363L46.9101 37.0803C46.9101 37.0803 46.4318 43.637 49.7986 43.7869C52.9939 43.9403 52.6617 37.6363 52.6617 37.6363Z" fill="#FDEBA5"/>
<path d="M49.7611 44.3606H49.8965C50.2393 44.3645 50.5792 44.2982 50.8953 44.1656C51.2114 44.033 51.4969 43.837 51.7343 43.5898C53.4312 41.8802 53.2362 37.7768 53.2272 37.6035C53.2222 37.4666 53.1676 37.3363 53.0736 37.2367C52.9796 37.137 52.8527 37.075 52.7163 37.0619L46.9557 36.5203C46.8806 36.5128 46.8048 36.5206 46.7328 36.5433C46.6608 36.5659 46.5942 36.603 46.5369 36.6521C46.4794 36.7009 46.4322 36.7607 46.3981 36.828C46.3641 36.8952 46.3437 36.9686 46.3383 37.0439C46.3257 37.2244 46.0369 41.4613 47.7501 43.3876C47.9994 43.6804 48.307 43.9182 48.6532 44.0857C48.9994 44.2532 49.3767 44.3469 49.7611 44.3606ZM47.4522 37.7082L52.117 38.1523C52.117 39.4376 51.9148 41.8134 50.94 42.7954C50.7968 42.9457 50.6223 43.0625 50.4288 43.1377C50.2354 43.2129 50.0278 43.2446 49.8207 43.2305C49.5881 43.2228 49.3597 43.1663 49.1504 43.0646C48.9411 42.9629 48.7555 42.8183 48.6058 42.6402C47.6038 41.5227 47.4251 39.0658 47.4522 37.7082Z" fill="#AB6116"/>
<path d="M57.0192 14.2166H57.0048C55.3295 14.5777 53.4737 15.4803 51.3489 16.7891C45.0196 20.7101 40.7935 29.583 44.7146 35.9123C48.6356 42.2415 54.5911 42.664 59.4635 39.4705C61.6407 38.1508 63.3376 36.7626 64.6356 35.349C64.6681 35.3147 64.7024 35.2822 64.7349 35.2443L64.7638 35.21C64.9443 35.006 65.1249 34.8002 65.2873 34.5944C71.196 27.4979 69.1452 21.7608 67.0348 18.2081C67.0348 18.2081 67.0348 18.1954 67.024 18.1882L66.9951 18.1413C66.8868 17.9595 66.7785 17.7838 66.6702 17.6141C65.2404 15.0868 65.3722 12.0016 67.5511 10.5574C67.8761 10.3425 68.0259 9.55363 67.8309 8.74126C67.8309 8.71057 67.8309 8.68169 67.8418 8.651C67.9099 7.621 67.6057 6.60081 66.9846 5.77631C66.3636 4.95182 65.467 4.37788 64.4582 4.1591C63.4494 3.94032 62.3955 4.09126 61.4887 4.58439C60.5819 5.07753 59.8824 5.88005 59.5177 6.84573C59.4403 7.01328 59.3757 7.18648 59.3245 7.36384C58.848 9.0987 60.0882 13.1696 57.0192 14.2166Z" fill="#FDEBA5"/>
<path d="M63.8808 3.51289C62.8427 3.43696 61.8077 3.6979 60.9296 4.25695C60.0515 4.816 59.3771 5.64335 59.0066 6.61614C58.9174 6.80934 58.8432 7.00911 58.7846 7.21368C58.6239 7.78776 58.6257 8.52611 58.6293 9.30779C58.6293 11.4994 58.5138 13.0988 56.8403 13.6783C55.2156 14.0448 53.3706 14.8752 51.0635 16.3194C47.7093 18.4326 45.1165 21.5604 43.6619 25.2483C42.1166 29.2307 42.3206 33.1264 44.236 36.2152C46.1026 39.2282 48.5686 41.149 51.3722 41.77C52.0414 41.918 52.7249 41.9919 53.4103 41.9903C55.5351 41.9903 57.7429 41.2952 59.7739 39.9612C61.9095 38.6668 63.6913 37.2533 65.0615 35.7459L65.0904 35.717C65.1174 35.6881 65.1463 35.661 65.1788 35.6231L65.2041 35.5924C65.3846 35.3812 65.5652 35.1682 65.7457 34.9624C70.4267 29.3408 71.0152 23.7698 67.5509 17.9261C67.5595 17.9408 67.5674 17.9558 67.5744 17.9713C67.5744 17.9514 67.5202 17.8756 67.5094 17.8575C67.3993 17.677 67.2874 17.4965 67.1917 17.343C66.0002 15.2291 65.8576 12.384 67.8921 11.0354C68.5168 10.622 68.6142 9.56595 68.4337 8.71928V8.69581C68.4756 8.05644 68.391 7.41508 68.1848 6.80844C67.9786 6.20179 67.6548 5.64175 67.2319 5.16036C66.809 4.67898 66.2954 4.28568 65.7204 4.00299C65.1454 3.7203 64.5203 3.55376 63.8808 3.51289ZM67.2585 10.0931C64.9532 11.6203 64.5073 14.9041 66.2114 17.9243C66.3161 18.0904 66.4226 18.2619 66.5436 18.4659V18.4785L66.558 18.5038C69.7534 23.8835 69.1991 29.0321 64.8575 34.2457C64.6974 34.4443 64.5295 34.6423 64.3538 34.8396L64.2293 34.9732C62.924 36.403 61.2253 37.7551 59.1655 39.0026C56.7139 40.6093 54.0367 41.1978 51.6267 40.6652C49.13 40.1128 46.9096 38.3671 45.2072 35.6105C43.485 32.8286 43.3135 29.2921 44.727 25.649C46.034 22.2786 48.6264 19.1501 51.6592 17.2672C53.8779 15.8916 55.6181 15.1009 57.1382 14.7669C57.1677 14.7607 57.1966 14.7523 57.2248 14.7416H57.2447C59.7865 13.8534 59.7721 11.2268 59.7721 9.30599C59.7721 8.60555 59.7721 7.94301 59.8858 7.52058C59.9342 7.35983 59.9945 7.20293 60.0663 7.05121C60.3889 6.21957 60.9981 5.5306 61.784 5.10857C62.5698 4.68655 63.4806 4.55927 64.3521 4.74968C65.2236 4.94009 65.9983 5.43567 66.5365 6.14701C67.0747 6.85835 67.341 7.73862 67.2874 8.62902C67.2874 8.65248 67.2874 8.67595 67.2874 8.70122C67.2819 8.76168 67.2862 8.82264 67.3 8.88175C67.4462 9.52622 67.3108 10.0191 67.2495 10.0931H67.2585Z" fill="#AB6116"/>
<path d="M63.1955 9.00816C63.7738 9.00816 64.2425 8.53938 64.2425 7.96111C64.2425 7.38284 63.7738 6.91406 63.1955 6.91406C62.6172 6.91406 62.1484 7.38284 62.1484 7.96111C62.1484 8.53938 62.6172 9.00816 63.1955 9.00816Z" fill="#AB6116"/>
<path d="M69.7685 11.7772C69.8859 11.8891 70.0159 11.8296 70.0086 11.6472C69.9292 9.84196 68.7034 8.71007 67.8676 8.14141C67.6491 7.99054 67.3809 7.92962 67.1187 7.97131C66.8565 8.01299 66.6204 8.15407 66.4595 8.36526C66.1939 8.70099 66.0228 9.10164 65.9641 9.5257C65.9054 9.94976 65.9611 10.3818 66.1255 10.7771C68.5428 10.6074 69.3967 11.4252 69.7685 11.7772Z" fill="#FDEBA5"/>
<path d="M66.1665 11.3441C68.3328 11.1907 69.0332 11.8622 69.3798 12.189C69.5157 12.323 69.6981 12.3993 69.8889 12.402C69.9855 12.4019 70.081 12.3809 70.1687 12.3406C70.3027 12.2768 70.4137 12.1732 70.4868 12.044C70.5598 11.9148 70.5912 11.7662 70.5767 11.6185C70.4847 9.53525 69.0405 8.24991 68.1884 7.67042C67.8487 7.43702 67.4318 7.34423 67.0252 7.41155C66.6187 7.47887 66.2539 7.70105 66.0076 8.03147C65.6791 8.45083 65.4697 8.95096 65.4014 9.47926C65.3331 10.0076 65.4084 10.5445 65.6195 11.0336C65.6692 11.1341 65.7479 11.2173 65.8454 11.2727C65.9429 11.328 66.0547 11.3529 66.1665 11.3441ZM66.9138 8.70664C66.9869 8.61175 67.0939 8.5488 67.2123 8.53097C67.3308 8.51314 67.4515 8.54179 67.5493 8.61095C68.1848 9.04422 68.9231 9.72841 69.2607 10.7087C68.7191 10.4307 67.9374 10.1906 66.7604 10.1906H66.5329C66.4885 9.93005 66.4995 9.66311 66.5651 9.40711C66.6307 9.15112 66.7496 8.91183 66.9138 8.70483V8.70664Z" fill="#AB6116"/>
<path d="M53.335 31.3664C54.9597 29.8644 55.7811 27.7053 55.9941 25.53L48.2008 20.0564C42.5774 23.4485 42.1911 29.3806 42.7579 32.186C48.9789 35.3343 51.6868 32.8882 53.335 31.3664Z" fill="#FDEBA5"/>
<path d="M48.4913 20.542C48.6095 20.4599 48.6921 20.3359 48.7223 20.1952C48.7524 20.0545 48.7279 19.9075 48.6538 19.7842C48.5796 19.6609 48.4612 19.5704 48.3228 19.5311C48.1843 19.4918 48.0361 19.5066 47.9082 19.5726C42.0917 23.0748 41.5898 29.2181 42.1982 32.2961C42.215 32.3801 42.2507 32.4592 42.3026 32.5274C42.3546 32.5955 42.4213 32.651 42.4978 32.6896C44.7869 33.8468 46.6499 34.2728 48.1591 34.2728C51.0205 34.2728 52.6723 32.7528 53.7193 31.7816C55.3026 30.3211 56.3099 28.1205 56.5572 25.5841C56.5691 25.5078 56.5653 25.43 56.546 25.3552C56.5268 25.2805 56.4924 25.2105 56.4452 25.1495C56.3979 25.0885 56.3387 25.0378 56.2711 25.0006C56.2035 24.9633 56.1291 24.9401 56.0523 24.9326C55.9755 24.9251 55.898 24.9334 55.8245 24.9569C55.751 24.9804 55.683 25.0187 55.6248 25.0693C55.5667 25.12 55.5194 25.1821 55.486 25.2516C55.4527 25.3212 55.4339 25.3969 55.4307 25.474C55.2141 27.7342 54.3277 29.6784 52.9503 30.9421C51.3689 32.4026 48.9914 34.5996 43.2579 31.796C42.7831 28.9401 43.3788 23.62 48.4913 20.542Z" fill="#AB6116"/>
</svg>
