<svg width="24" height="24" viewBox="0 0 24 24" fill="none" xmlns="http://www.w3.org/2000/svg">
<rect width="24" height="24" rx="4" fill="#FFF6ED"/>
<g clip-path="url(#clip0_5_1169)">
<path d="M14.6129 7.25129C14.6407 7.28669 14.6888 7.29911 14.7303 7.28161C15.1132 7.12019 15.5181 7.00069 15.9392 6.92885C15.9732 6.92305 16.0018 6.90014 16.0149 6.86823C16.028 6.83633 16.0237 6.79992 16.0036 6.77192C15.4674 6.02589 14.8714 5.38545 14.2579 4.90829C13.5664 4.37045 12.7836 3.9874 12 3.9874C11.2165 3.9874 10.4337 4.37045 9.74214 4.90829C9.0376 5.45627 8.35591 6.21975 7.76134 7.11161C6.57538 8.89055 5.67502 11.2734 5.67502 13.6874C5.67502 15.3649 6.34141 16.9737 7.52757 18.1599C8.71374 19.346 10.3225 20.0124 12 20.0124C13.6775 20.0124 15.2863 19.346 16.4725 18.1599L16.4018 18.0891L16.4725 18.1599C16.5065 18.1258 16.5401 18.0915 16.5732 18.0568C16.6001 18.0287 16.6082 17.9876 16.5941 17.9514C16.58 17.9152 16.5462 17.8905 16.5075 17.8879C16.0064 17.855 15.5236 17.7553 15.0679 17.5977C15.0364 17.5868 15.0015 17.5923 14.9748 17.6125C14.1237 18.2576 13.0802 18.6124 12 18.6124C10.6938 18.6124 9.44114 18.0935 8.51752 17.1699C7.59391 16.2463 7.07502 14.9936 7.07502 13.6874C7.07502 11.6014 7.86218 9.48424 8.92621 7.88819C9.45664 7.09255 10.0406 6.44978 10.6017 6.01339C11.1757 5.5669 11.6585 5.3874 12 5.3874C12.3415 5.3874 12.8243 5.5669 13.3984 6.01339C13.8006 6.32622 14.2148 6.74533 14.6129 7.25129Z" fill="#F47B20" stroke="#F47B20" stroke-width="0.2" stroke-linecap="round" stroke-linejoin="round"/>
<path d="M10.5 12.4H10.4V12.5C10.4 15.3166 12.6833 17.6 15.5 17.6C18.3166 17.6 20.6 15.3166 20.6 12.5C20.6 9.68335 18.3166 7.4 15.5 7.4C13.9354 7.4 12.5354 8.10464 11.6 9.21355L11.6 8.25L11.6 8.15H11.5H10.5H10.4V8.25V11.25V11.35H10.5H13.5H13.6V11.25V10.25V10.15L13.5 10.15L12.3872 10.1501C13.0993 9.20829 14.2286 8.6 15.5 8.6C17.6539 8.6 19.4 10.3461 19.4 12.5C19.4 14.6539 17.6539 16.4 15.5 16.4C13.3461 16.4 11.6 14.6539 11.6 12.5V12.4H11.5H10.5ZM16.1 10L16.1 9.9H16H15H14.9L14.9 10L14.8999 12.7065L14.8999 12.7479L14.9292 12.7772L16.8435 14.692L16.9142 14.7627L16.9849 14.692L17.692 13.9849L17.7627 13.9142L17.692 13.8435L16.0999 12.2511L16.1 10Z" fill="#F47B20" stroke="#F47B20" stroke-width="0.2"/>
</g>
<defs>
<clipPath id="clip0_5_1169">
<rect width="18" height="18" fill="white" transform="translate(3 3)"/>
</clipPath>
</defs>
</svg>
