<svg width="192" height="192" viewBox="0 0 192 192" fill="none" xmlns="http://www.w3.org/2000/svg">
<rect width="192" height="192" rx="38.4" fill="#F47B20"/>
<path fill-rule="evenodd" clip-rule="evenodd" d="M65.8902 168.56V175.887H60.8838V158.891C60.8838 153.909 63.3333 149.758 68.2641 147.707C70.0477 146.97 71.9736 146.595 73.9187 146.605C75.6108 146.583 77.2894 146.893 78.8498 147.515C80.4103 148.137 81.8193 149.057 82.989 150.219C84.1991 151.352 85.1555 152.705 85.8006 154.198C86.4457 155.691 86.7662 157.292 86.7428 158.906C86.7736 160.536 86.4594 162.155 85.8186 163.667C85.1779 165.18 84.2237 166.554 83.0129 167.71C81.8584 168.876 80.4613 169.802 78.9101 170.429C77.359 171.056 75.6877 171.37 74.0022 171.351C71.024 171.392 68.1342 170.389 65.8862 168.533L65.8902 168.56ZM92.616 146.62C93.0337 146.616 93.4479 146.692 93.8344 146.842C94.2209 146.993 94.5719 147.215 94.8667 147.496C95.1708 147.774 95.4116 148.108 95.5744 148.477C95.7371 148.847 95.8184 149.244 95.8131 149.645C95.8048 150.444 95.467 151.208 94.8722 151.773C94.2774 152.338 93.4731 152.659 92.632 152.666C92.2108 152.671 91.7932 152.594 91.4047 152.439C91.0163 152.284 90.6653 152.056 90.3733 151.768C89.9274 151.345 89.6239 150.805 89.5012 150.218C89.3785 149.631 89.4421 149.022 89.6841 148.47C89.9261 147.917 90.3354 147.445 90.8603 147.114C91.3851 146.782 92.0017 146.606 92.632 146.608L92.616 146.62ZM90.1109 154.306H95.1491V175.981H90.1109V154.302V154.306ZM103.754 154.306H109.182V158.683H103.774V166.898C103.738 168.174 103.933 170.24 105.293 170.905C106.315 171.407 107.846 171.589 108.896 171.052L109.957 170.512L110.355 171.589C110.649 172.344 110.94 173.099 111.258 173.855L111.655 174.791L110.661 175.169C109.231 175.729 107.699 176.013 106.152 176.004C103.428 175.856 101.221 174.761 99.7896 172.499C98.8909 170.988 98.6483 169.047 98.6762 167.34V146.616H103.718V154.302L103.754 154.306ZM116.014 146.62C116.431 146.616 116.846 146.691 117.232 146.842C117.619 146.992 117.97 147.215 118.264 147.496C118.56 147.777 118.795 148.111 118.955 148.478C119.116 148.846 119.198 149.24 119.198 149.637C119.198 150.035 119.116 150.429 118.955 150.796C118.795 151.164 118.56 151.498 118.264 151.779C117.968 152.06 117.617 152.283 117.23 152.435C116.843 152.588 116.428 152.666 116.01 152.666C115.591 152.666 115.176 152.588 114.789 152.435C114.403 152.283 114.051 152.06 113.755 151.779C113.309 151.356 113.006 150.817 112.883 150.229C112.76 149.642 112.824 149.034 113.066 148.481C113.308 147.928 113.717 147.456 114.242 147.125C114.767 146.794 115.383 146.618 116.014 146.62ZM113.504 154.306H118.531V175.981H113.504V154.302V154.306ZM127.522 161.508L136.226 154.332H143.662L133.049 163.487L142.728 175.981H136.107L128.746 166.418L127.522 167.377V175.977H122.479V146.616H127.522V161.508ZM73.6761 151.265C72.6187 151.243 71.568 151.431 70.5911 151.816C69.6142 152.201 68.7323 152.775 68.0017 153.501C67.2346 154.239 66.6333 155.118 66.2341 156.083C65.8349 157.048 65.6462 158.081 65.6794 159.117C65.6592 160.497 66.0154 161.858 66.7133 163.068C67.3983 164.233 68.4155 165.192 69.6479 165.833C70.8862 166.511 72.2905 166.868 73.7198 166.868C75.1053 166.87 76.4656 166.516 77.6565 165.844C78.8971 165.155 79.916 164.157 80.6031 162.958C81.3227 161.766 81.7036 160.416 81.7086 159.042C81.7097 157.674 81.3326 156.33 80.615 155.144C79.9272 153.964 78.9194 152.981 77.6963 152.296C76.4801 151.611 75.09 151.255 73.6761 151.265Z" fill="white"/>
<path d="M136.286 84.0015C136.286 102.066 120.936 116.711 102 116.711C83.0646 116.711 67.7144 102.066 67.7144 84.0015C67.7144 65.9367 85.9891 41.1776 102 41.1776C117.558 41.1776 136.286 65.9367 136.286 84.0015Z" fill="#F47B20"/>
<path fill-rule="evenodd" clip-rule="evenodd" d="M102.259 36.6784C121.676 36.6784 135.693 52.9606 141.141 69.22C147.352 87.7532 143.793 110.822 126.961 123.362C119.974 128.57 111.592 131.157 102.728 131.157H101.722C92.8625 131.157 84.4801 128.57 77.4934 123.362C60.6491 110.807 57.0861 87.7343 63.2974 69.2011C68.765 52.8926 82.7821 36.6595 102.267 36.6595L102.259 36.6784ZM102.259 44.0585C88.7389 44.0585 79.0919 57.1189 75.3779 68.2003C68.0214 90.1477 78.7818 114.441 101.71 114.441H102.704C125.633 114.441 136.393 90.1477 129.036 68.2003C125.37 57.202 115.719 44.0471 102.259 44.0471V44.0585Z" fill="white"/>
<path fill-rule="evenodd" clip-rule="evenodd" d="M76.7458 45.3275C72.5466 40.0399 76.5788 32.3577 84.3568 34.1328C85.4264 34.2499 85.832 33.6494 85.4582 32.6863C82.8855 23.9201 93.6498 19.7656 99.3162 26.1409C100.06 26.8774 101.066 26.8397 101.444 25.8766C101.778 12.5668 121.577 12.8614 120.344 25.8237C119.855 30.9565 113.894 34.0875 105.738 34.5105C94.0395 35.077 84.8459 37.4225 76.7458 45.3275Z" fill="white"/>
<path fill-rule="evenodd" clip-rule="evenodd" d="M66.7451 62.3083L48 68.5666L60.9752 79.0777L66.7451 62.3083Z" fill="white"/>
<path fill-rule="evenodd" clip-rule="evenodd" d="M107.079 63.1052C108.741 64.0177 110.081 65.3778 110.929 67.0135C111.777 68.6492 112.096 70.4872 111.844 72.2948C111.593 74.1025 110.783 75.7988 109.516 77.1691C108.25 78.5394 106.584 79.5223 104.729 79.9935C102.875 80.4646 100.915 80.4028 99.0971 79.8159C97.2795 79.2291 95.686 78.1435 94.5179 76.6964C93.3499 75.2493 92.6599 73.5058 92.5352 71.6863C92.4104 69.8667 92.8565 68.0529 93.8171 66.4742C94.4549 65.4259 95.3039 64.5072 96.3156 63.7705C97.3272 63.0339 98.4817 62.4937 99.7132 62.1809C100.945 61.868 102.229 61.7886 103.493 61.9472C104.756 62.1058 105.975 62.4993 107.079 63.1052ZM100.649 66.41C100.054 66.0811 99.3693 65.9273 98.6822 65.968C97.9951 66.0087 97.3362 66.2421 96.7888 66.6386C96.2414 67.0351 95.8301 67.577 95.607 68.1956C95.384 68.8142 95.3591 69.4817 95.5357 70.1137C95.7122 70.7457 96.0821 71.3138 96.5987 71.7461C97.1152 72.1783 97.7552 72.4553 98.4375 72.542C99.1199 72.6287 99.814 72.5211 100.432 72.233C101.05 71.9449 101.564 71.4891 101.909 70.9234C102.371 70.165 102.496 69.2636 102.258 68.4173C102.021 67.571 101.439 66.849 100.641 66.41H100.649Z" fill="white"/>
<path fill-rule="evenodd" clip-rule="evenodd" d="M48 68.5628L62.9396 70.2171C63.043 69.8848 63.1504 69.5524 63.2617 69.22C64.0313 66.9466 64.9477 64.7203 66.0055 62.5538L48 68.5628Z" fill="#F6F6F6"/>
<path fill-rule="evenodd" clip-rule="evenodd" d="M113.31 112.514L112.749 112.73L112.463 112.835C112.237 112.916 112.011 112.994 111.783 113.07L111.584 113.134C111.341 113.213 111.095 113.289 110.844 113.36L110.665 113.413C110.407 113.485 110.148 113.553 109.87 113.621L109.747 113.651C109.482 113.719 109.206 113.782 108.92 113.84L108.797 113.866C108.502 113.927 108.208 113.984 107.91 114.036H107.874C107.564 114.089 107.252 114.137 106.939 114.18H106.904C106.59 114.225 106.271 114.263 105.949 114.293H105.85C104.825 114.395 103.795 114.445 102.764 114.444H101.758C78.8298 114.444 68.0695 90.1514 75.4259 68.204L75.585 67.7394V67.6828L75.7361 67.2522L75.8117 67.0407L75.8991 66.8065L75.9628 66.6404L75.9906 66.5724L76.1695 66.1116L76.3604 65.6395V65.5942L76.4399 65.4015L76.5394 65.1636L76.5831 65.0616L76.6427 64.9257C76.7673 64.6361 76.8999 64.3478 77.0404 64.0607L77.0682 64.0003V63.9777L77.1 63.9135L77.2909 63.5018V63.4678L77.3863 63.2638L77.5017 63.0259L77.5454 62.9352V62.905L77.7323 62.5273L77.8397 62.3158L77.959 62.0779L78.0623 61.8739V61.8399L78.1856 61.602V61.568L78.4123 61.145L78.5395 60.9108L78.6588 60.6955V60.6767L78.79 60.4425V60.4198L78.9093 60.2083L79.0445 59.9742V59.9439L79.1638 59.7438L79.303 59.5096L79.5853 59.045L79.7285 58.8147L79.8716 58.5843L80.0188 58.3539C80.7544 57.2208 81.5457 56.0878 82.4047 55.0113L82.5756 54.7961L82.7466 54.5846L82.9216 54.3731L83.0966 54.1615L83.2715 53.9538L83.6294 53.5384C67.6877 64.4384 59.3332 89.3016 62.9517 103.114C64.0372 107.084 65.9238 110.817 68.5069 114.104C83.3312 126.032 110.51 121.881 121.633 107.336C133.375 96.9951 137.419 78.0541 131.478 60.3254C129.442 54.2522 125.911 47.6766 121.12 42.355C115.648 38.8501 109.317 36.6897 102.275 36.6897C101.716 36.6897 101.16 36.7036 100.609 36.7312V44.1604C101.158 44.115 101.71 44.0924 102.275 44.0924C115.735 44.0924 125.374 57.2322 129.061 68.2342C135.196 86.469 128.798 106.32 113.31 112.514Z" fill="#F6F6F6"/>
<path fill-rule="evenodd" clip-rule="evenodd" d="M133.18 163.676H122.479V146.616H127.522V161.508L136.226 154.332H143.662L133.049 163.487L133.196 163.676H133.18ZM118.531 163.676H113.504V154.302H118.531V163.676ZM103.774 163.676H98.7279V146.616H103.77V154.302H109.198V158.679H103.79V163.676H103.774ZM95.1371 163.676H90.1109V154.302H95.1491V163.676H95.1371ZM85.8282 163.676H80.122C80.2941 163.442 80.4534 163.2 80.5991 162.951C81.3187 161.758 81.6996 160.409 81.7046 159.034C81.7055 157.666 81.3284 156.322 80.6111 155.136C79.9232 153.957 78.9154 152.974 77.6923 152.289C76.4765 151.607 75.0879 151.253 73.6761 151.265C72.6187 151.244 71.5682 151.431 70.5912 151.816C69.6143 152.201 68.7325 152.775 68.0017 153.501C67.2346 154.239 66.6333 155.118 66.2341 156.083C65.8349 157.048 65.6462 158.081 65.6794 159.117C65.6594 160.497 66.0156 161.858 66.7133 163.068C66.835 163.277 66.9678 163.48 67.1109 163.676H60.8838V158.902C60.8838 153.92 63.3333 149.77 68.2641 147.719C70.0477 146.982 71.9736 146.606 73.9187 146.616C75.6108 146.595 77.2894 146.905 78.8498 147.527C80.4103 148.148 81.8193 149.069 82.989 150.23C84.1991 151.363 85.1555 152.717 85.8006 154.209C86.4457 155.702 86.7662 157.304 86.7428 158.917C86.7584 160.538 86.448 162.147 85.8282 163.657V163.676ZM92.616 146.62C93.0337 146.616 93.4479 146.692 93.8344 146.842C94.2209 146.993 94.5719 147.215 94.8667 147.496C95.1708 147.774 95.4116 148.108 95.5744 148.477C95.7371 148.847 95.8184 149.244 95.8131 149.645C95.8048 150.444 95.467 151.208 94.8722 151.773C94.2774 152.338 93.4731 152.659 92.632 152.666C92.2108 152.671 91.7932 152.593 91.4047 152.439C91.0163 152.284 90.6653 152.056 90.3733 151.768C89.9274 151.344 89.6239 150.805 89.5012 150.218C89.3785 149.631 89.4421 149.022 89.6841 148.47C89.9261 147.917 90.3354 147.445 90.8603 147.114C91.3851 146.782 92.0017 146.606 92.632 146.608L92.616 146.62ZM116.014 146.62C116.431 146.616 116.846 146.691 117.232 146.842C117.619 146.992 117.97 147.215 118.264 147.496C118.56 147.777 118.795 148.111 118.955 148.478C119.116 148.846 119.198 149.24 119.198 149.637C119.198 150.035 119.116 150.429 118.955 150.796C118.795 151.164 118.56 151.498 118.264 151.779C117.968 152.06 117.617 152.283 117.23 152.435C116.843 152.588 116.428 152.666 116.01 152.666C115.591 152.666 115.176 152.588 114.789 152.435C114.403 152.283 114.051 152.06 113.755 151.779C113.309 151.356 113.006 150.817 112.883 150.229C112.76 149.642 112.824 149.034 113.066 148.481C113.308 147.928 113.717 147.456 114.242 147.125C114.767 146.794 115.383 146.618 116.014 146.62Z" fill="#F6F6F6"/>
</svg>
