<svg width="112" height="96" viewBox="0 0 112 96" fill="none" xmlns="http://www.w3.org/2000/svg">
<ellipse cx="56" cy="84" rx="56" ry="6" fill="#FEF6D2"/>
<path d="M76.7426 11.1132C76.6948 11.1676 76.6626 11.2338 76.6493 11.305C76.6361 11.3761 76.6424 11.4496 76.6674 11.5175L77.3662 13.4129C77.3662 13.4129 84.482 9.78102 88.1076 16.2165L89.5865 13.9502C89.6549 13.8561 89.6879 13.7409 89.6796 13.6249C89.6713 13.5089 89.6222 13.3996 89.5411 13.3163C89.46 13.2329 89.352 13.181 89.2363 13.1696C89.1206 13.1581 89.0045 13.188 88.9087 13.2539L87.8316 13.9157L88.5291 11.4509C88.5653 11.3223 88.5569 11.1853 88.5053 11.0621C88.4538 10.9389 88.362 10.8368 88.245 10.7724C88.128 10.708 87.9927 10.685 87.861 10.7073C87.7293 10.7296 87.6091 10.7958 87.5198 10.8951L86.2541 12.3086L86.4279 9.14881C86.4419 9.00595 86.4056 8.86268 86.3252 8.74374C86.2448 8.6248 86.1255 8.53764 85.9877 8.49732C85.85 8.457 85.7024 8.46604 85.5706 8.52289C85.4388 8.57973 85.331 8.68081 85.2657 8.80867L83.8584 11.2956L83.5996 8.21959C83.5922 8.1286 83.5539 8.04288 83.491 7.97672C83.4281 7.91056 83.3444 7.86794 83.2539 7.85598C83.1634 7.84402 83.0715 7.86343 82.9936 7.91098C82.9157 7.95853 82.8564 8.03135 82.8256 8.11731L81.7929 10.9826L81.1064 8.15921C81.0852 8.07232 81.0354 7.99508 80.965 7.93989C80.8946 7.88469 80.8077 7.85473 80.7183 7.85481H80.595C80.4943 7.85484 80.3972 7.89296 80.3234 7.96153C80.2496 8.0301 80.2044 8.12405 80.1969 8.22452L80.0256 11.0393L79.1334 9.47786C79.0721 9.36902 78.9748 9.28494 78.8582 9.24009C78.7416 9.19523 78.613 9.1924 78.4946 9.23207C78.3761 9.27175 78.2752 9.35146 78.2092 9.45749C78.1431 9.56353 78.1161 9.68926 78.1327 9.81306L78.3903 11.8292L77.2811 11.0491C77.1996 10.9906 77.0991 10.9647 76.9994 10.9766C76.8997 10.9885 76.8081 11.0372 76.7426 11.1132Z" fill="#DD1E25"/>
<path d="M76.4533 10.8581C76.3598 10.9647 76.2968 11.0946 76.271 11.2341C76.2451 11.3736 76.2575 11.5174 76.3067 11.6505L77.0054 13.5459C77.0242 13.5973 77.0537 13.6441 77.0919 13.6832C77.1301 13.7223 77.1762 13.7528 77.2272 13.7727C77.2781 13.7927 77.3327 13.8015 77.3873 13.7988C77.4419 13.796 77.4953 13.7816 77.544 13.7566C77.8213 13.6149 84.3677 10.3627 87.7728 16.4063C87.8054 16.464 87.8523 16.5124 87.9091 16.5468C87.9659 16.5811 88.0306 16.6002 88.0969 16.6022H88.1092C88.1735 16.6024 88.2369 16.5865 88.2935 16.5559C88.3501 16.5253 88.3982 16.4811 88.4333 16.4272L89.9122 14.1609C90.0193 13.9925 90.0663 13.7929 90.0457 13.5944C90.0251 13.3959 89.938 13.2103 89.7985 13.0675C89.6591 12.9248 89.4755 12.8334 89.2775 12.8082C89.0796 12.7829 88.8789 12.8253 88.7081 12.9285L88.474 13.0727L88.9016 11.5605C88.9472 11.3964 88.9494 11.2233 88.9082 11.0581C88.8669 10.8929 88.7836 10.7412 88.6663 10.6178C88.5721 10.5219 88.4596 10.4459 88.3356 10.3943C88.2116 10.3427 88.0784 10.3164 87.9441 10.3171C87.8094 10.3198 87.6767 10.35 87.5542 10.406C87.4317 10.4619 87.322 10.5424 87.2317 10.6424L86.7006 11.2364L86.814 9.17463C86.8267 8.94742 86.7622 8.72257 86.6309 8.53668C86.4996 8.35079 86.3093 8.21479 86.0909 8.1508C85.8725 8.08681 85.6389 8.09859 85.4281 8.18424C85.2172 8.26989 85.0416 8.42436 84.9297 8.62253L84.1409 10.0164L83.9918 8.19612C83.9777 8.01698 83.9026 7.84811 83.7789 7.7177C83.6553 7.58729 83.4907 7.50323 83.3125 7.47958C83.1344 7.45592 82.9536 7.4941 82.8002 7.58772C82.6468 7.68135 82.5302 7.82476 82.4698 7.99401L81.8758 9.64294L81.4925 8.06672C81.4513 7.89554 81.3536 7.74322 81.2152 7.63434C81.0768 7.52546 80.9058 7.46636 80.7297 7.46655H80.6064C80.4062 7.46683 80.2136 7.54348 80.068 7.68089C79.9223 7.8183 79.8346 8.0061 79.8227 8.20598L79.729 9.72674L79.4825 9.28678C79.3764 9.10121 79.2091 8.95819 79.0093 8.88207C78.8096 8.80595 78.5896 8.80144 78.3868 8.86931C78.1841 8.93718 78.0112 9.07323 77.8975 9.25429C77.7838 9.43535 77.7364 9.65022 77.7633 9.8623L77.91 11.0121L77.512 10.7336C77.3521 10.6176 77.1545 10.566 76.9583 10.5891C76.7622 10.6121 76.5819 10.7082 76.4533 10.8581ZM78.1688 12.1447C78.2303 12.1884 78.3034 12.2131 78.3788 12.2157C78.4543 12.2183 78.5288 12.1987 78.5933 12.1593C78.6577 12.12 78.7091 12.0626 78.7412 11.9942C78.7733 11.9259 78.7847 11.8497 78.7739 11.775L78.5163 9.75878C78.5126 9.7244 78.5208 9.68979 78.5395 9.66069C78.5582 9.6316 78.5863 9.60977 78.6191 9.59884C78.6519 9.5879 78.6875 9.58851 78.7199 9.60057C78.7523 9.61263 78.7796 9.63541 78.7973 9.66512L79.6896 11.2266C79.7305 11.2991 79.7939 11.3564 79.8702 11.39C79.9465 11.4235 80.0316 11.4314 80.1127 11.4125C80.1939 11.3937 80.2668 11.349 80.3205 11.2853C80.3741 11.2215 80.4057 11.1421 80.4105 11.0589L80.5978 8.23679L80.7383 8.24665L81.4248 11.07C81.4446 11.1506 81.4899 11.2227 81.5538 11.2755C81.6178 11.3284 81.697 11.3594 81.7799 11.3638C81.8627 11.3682 81.9448 11.3459 82.014 11.3001C82.0832 11.2543 82.1359 11.1875 82.1642 11.1095L83.2216 8.24788L83.468 11.3202C83.4753 11.4022 83.5084 11.4798 83.5628 11.5417C83.6171 11.6035 83.6898 11.6465 83.7702 11.6642C83.8506 11.6819 83.9346 11.6735 84.0099 11.6403C84.0852 11.607 84.1479 11.5506 84.189 11.4792L85.5964 8.99224C85.622 8.94587 85.6625 8.90951 85.7114 8.88903C85.7603 8.86856 85.8146 8.86518 85.8657 8.87944C85.9167 8.89369 85.9615 8.92475 85.9926 8.96759C86.0238 9.01042 86.0397 9.06253 86.0376 9.11548L85.8687 12.2864C85.8644 12.3664 85.885 12.4457 85.9276 12.5135C85.9702 12.5812 86.0328 12.6341 86.1068 12.6648C86.1808 12.6955 86.2624 12.7025 86.3405 12.6848C86.4186 12.6671 86.4893 12.6257 86.5429 12.5662L87.8085 11.1526C87.8273 11.1316 87.8503 11.1147 87.8759 11.103C87.9016 11.0914 87.9294 11.0852 87.9576 11.0848C88.0143 11.0856 88.0686 11.1081 88.1092 11.1477C88.1338 11.1735 88.1512 11.2052 88.1599 11.2398C88.1685 11.2743 88.168 11.3105 88.1585 11.3449L87.461 13.8096C87.4396 13.8845 87.4413 13.9641 87.466 14.038C87.4907 14.1119 87.5372 14.1765 87.5993 14.2235C87.6615 14.2704 87.7364 14.2975 87.8142 14.301C87.892 14.3046 87.9691 14.2845 88.0353 14.2434L89.1124 13.5816C89.1265 13.5726 89.1426 13.567 89.1593 13.5653C89.176 13.5636 89.1928 13.5658 89.2085 13.5718C89.2243 13.5773 89.2386 13.5864 89.2504 13.5984C89.2621 13.6104 89.271 13.6249 89.2763 13.6408C89.2816 13.6569 89.2833 13.674 89.2812 13.6909C89.279 13.7077 89.2732 13.7239 89.2639 13.7382L88.1228 15.4906C86.3543 12.7621 83.9215 12.0202 81.7994 12.0202C80.3533 12.0421 78.9244 12.3378 77.5883 12.8915L77.0325 11.3831L76.6702 11.5174L77.0559 11.3658L78.1688 12.1447Z" fill="#AB6116"/>
<path d="M66.6435 83.991L74.3065 84.5321C74.7994 84.5567 75.0459 83.8937 74.6269 83.6336L74.6158 83.6263C74.0785 83.3071 68.4872 82.0907 67.1624 81.8393C65.6194 81.546 64.3944 80.6069 64.1036 79.0615L61.8964 67.2134L58.2227 67.6583L61.9518 80.4751C62.0751 81.1775 61.8791 81.4178 61.5821 81.6816C60.8661 82.3249 58.5911 83.9849 58.9005 84.9178C59.0656 85.4107 59.9307 85.0176 60.4693 84.7564C62.3622 83.8382 63.1374 84.7909 63.5934 85.2641C65.172 86.9044 66.7175 87.5699 67.7761 87.5674C69.0381 87.5674 68.2826 86.8058 68.2826 86.8058C67.5888 86.4176 66.975 85.7065 66.28 84.9572C65.9337 84.5974 66.1333 83.9664 66.6435 83.991Z" fill="#FDEBA5"/>
<path d="M66.6172 84.381L74.2888 84.9233C74.4881 84.9332 74.685 84.8759 74.8479 84.7606C75.0108 84.6453 75.1303 84.4786 75.1872 84.2873C75.2467 84.111 75.2454 83.9197 75.1835 83.7442C75.1216 83.5686 75.0028 83.4188 74.8458 83.3187L74.815 83.299C74.1421 82.9021 68.0012 81.6094 67.2371 81.4652C65.7299 81.1793 64.7279 80.2784 64.4864 79.0004L62.2817 67.1437C62.2636 67.0471 62.2095 66.961 62.1303 66.9029C62.0511 66.8448 61.9528 66.8189 61.8553 66.8306L58.1815 67.2755C58.1258 67.2824 58.0723 67.3013 58.0246 67.3309C57.9769 67.3605 57.9363 67.4001 57.9054 67.447C57.8746 67.4939 57.8543 67.5469 57.846 67.6025C57.8377 67.658 57.8416 67.7146 57.8574 67.7685L61.5805 80.5717C61.6729 81.0967 61.5435 81.2125 61.334 81.4023C61.2181 81.5059 61.0616 81.6365 60.8817 81.7868C59.4706 82.9638 58.2296 84.0976 58.5402 85.0477C58.5704 85.1454 58.6217 85.2352 58.6905 85.3108C58.7593 85.3864 58.8439 85.4459 58.9382 85.4852C59.4016 85.6812 60.035 85.4088 60.6438 85.1155C62.1979 84.3613 62.8104 85.0058 63.2565 85.4766L63.3206 85.5444C64.7994 87.0836 66.425 87.966 67.7757 87.966C67.9913 87.966 68.6482 87.966 68.8454 87.4903C69.0277 87.0503 68.6358 86.6276 68.5557 86.5451C68.5305 86.5198 68.5019 86.4982 68.4707 86.481C67.9124 86.168 67.3751 85.5887 66.807 84.9738L66.5605 84.7113C66.527 84.6769 66.5043 84.6336 66.4951 84.5865C66.4859 84.5395 66.4907 84.4907 66.5088 84.4463C66.5165 84.4246 66.5315 84.4062 66.5513 84.3943C66.5711 84.3824 66.5944 84.3777 66.6172 84.381ZM66.001 85.2437L66.2475 85.5037C66.8415 86.1445 67.4035 86.7521 68.0443 87.1268C68.0554 87.1415 68.0677 87.1576 68.08 87.1736C67.9808 87.1941 67.8794 87.202 67.7781 87.197C66.653 87.197 65.1901 86.3799 63.8801 85.012L63.8197 84.9479C63.4931 84.6041 62.9225 84.0014 61.912 84.0014C61.3529 84.0185 60.805 84.1627 60.3099 84.4229C59.6271 84.7544 59.3671 84.7926 59.2697 84.7852C59.1551 84.2381 60.8213 82.8479 61.3759 82.3858C61.5644 82.228 61.7283 82.0912 61.8503 81.9828C62.2016 81.6673 62.5023 81.3111 62.3433 80.4189C62.3433 80.4066 62.3433 80.393 62.3347 80.3807L58.7213 67.9903L61.5842 67.644L63.7248 79.136C64.0243 80.7245 65.2825 81.878 67.0904 82.2169C68.785 82.5386 73.9523 83.6958 74.4194 83.9571L74.6166 83.6243L74.4244 83.9595C74.4404 83.9694 74.4687 83.9866 74.449 84.0495C74.4415 84.0747 74.4267 84.0971 74.4065 84.1139C74.3864 84.1308 74.3617 84.1414 74.3356 84.1444L66.664 83.6021C66.4871 83.5915 66.311 83.6347 66.1591 83.726C66.0071 83.8172 65.8862 83.9524 65.8124 84.1136C65.7294 84.2982 65.703 84.5033 65.7365 84.7029C65.7701 84.9026 65.8621 85.0878 66.001 85.2351V85.2437Z" fill="#AB6116"/>
<path d="M50.792 83.991L58.4549 84.5321C58.9479 84.5567 59.1944 83.8937 58.7754 83.6336L58.7643 83.6263C58.2269 83.3071 52.6356 82.0907 51.3108 81.8393C49.7679 81.546 48.5429 80.6069 48.252 79.0615L46.0448 67.2134L42.3711 67.6583L46.0991 80.4751C46.2223 81.1775 46.0263 81.4178 45.7293 81.6816C45.0133 82.3249 42.7383 83.9849 43.0477 84.9178C43.2128 85.4107 44.0779 85.0176 44.6165 84.7564C46.5094 83.8382 47.2846 84.7909 47.7406 85.2641C49.3193 86.9044 50.8647 87.5699 51.9233 87.5674C53.1853 87.5674 52.4298 86.8058 52.4298 86.8058C51.736 86.4176 51.1223 85.7065 50.4272 84.9572C50.0821 84.5974 50.2818 83.9664 50.792 83.991Z" fill="#FDEBA5"/>
<path d="M50.7611 84.3807L58.4327 84.9229C58.632 84.9329 58.8289 84.8756 58.9918 84.7603C59.1548 84.645 59.2742 84.4783 59.3311 84.287C59.3906 84.1106 59.3893 83.9194 59.3274 83.7438C59.2656 83.5683 59.1467 83.4185 58.9897 83.3184L58.9589 83.2986C58.2873 82.9018 52.1451 81.6091 51.381 81.4649C49.8738 81.179 48.8719 80.2781 48.6303 79.0001L46.4231 67.152C46.4051 67.0554 46.3509 66.9693 46.2718 66.9112C46.1926 66.8531 46.0942 66.8272 45.9967 66.8389L42.3144 67.2764C42.2586 67.2833 42.2051 67.3022 42.1574 67.3318C42.1097 67.3614 42.0691 67.401 42.0382 67.4479C42.0074 67.4948 41.9871 67.5479 41.9788 67.6034C41.9706 67.6589 41.9745 67.7155 41.9903 67.7694L45.7133 80.5726C45.8057 81.0976 45.6763 81.2135 45.4668 81.4032C45.351 81.5068 45.1944 81.6374 45.0145 81.7877C43.6034 82.9647 42.3624 84.0985 42.673 85.0486C42.7032 85.1463 42.7546 85.2361 42.8233 85.3117C42.8921 85.3873 42.9767 85.4468 43.071 85.4861C43.5344 85.6821 44.1679 85.4097 44.7767 85.1164C46.3307 84.3622 46.9432 85.0067 47.3893 85.4775L47.4534 85.5453C48.9322 87.0845 50.5578 87.9669 51.9085 87.9669C52.1241 87.9669 52.781 87.9669 52.9782 87.4912C53.1606 87.0513 52.7687 86.6285 52.6886 86.546C52.6633 86.5207 52.6347 86.4992 52.6035 86.4819C52.0453 86.1689 51.5079 85.5896 50.9398 84.9747L50.6933 84.7122C50.6599 84.6778 50.6371 84.6345 50.6279 84.5874C50.6188 84.5404 50.6235 84.4917 50.6416 84.4472C50.6493 84.423 50.6659 84.4026 50.6882 84.3903C50.7104 84.3779 50.7365 84.3745 50.7611 84.3807ZM50.1449 85.2434L50.3914 85.5034C50.9854 86.1442 51.5474 86.7518 52.1882 87.1264C52.1993 87.1412 52.2116 87.1572 52.2239 87.1733C52.1247 87.1936 52.0232 87.2015 51.922 87.1967C50.7968 87.1967 49.334 86.3796 48.024 85.0117L47.9636 84.9476C47.637 84.6037 47.0664 84.0011 46.0559 84.0011C45.4968 84.0182 44.9489 84.1624 44.4538 84.4226C43.771 84.7541 43.5122 84.7923 43.4136 84.7849C43.299 84.2377 44.9652 82.8476 45.5198 82.3855C45.7083 82.2277 45.8723 82.0909 45.9943 81.9825C46.3455 81.667 46.6462 81.3108 46.4872 80.4186C46.4872 80.4062 46.4872 80.3927 46.4786 80.3804L42.8652 67.99L45.7281 67.6437L47.8687 79.1357C48.1682 80.7242 49.4264 81.8777 51.2356 82.2166C52.9301 82.5383 58.0975 83.6955 58.5646 83.9568L58.7617 83.624L58.5695 83.9592C58.5855 83.9691 58.6139 83.9863 58.5942 84.0492C58.5869 84.0745 58.5722 84.0971 58.552 84.114C58.5318 84.1309 58.507 84.1414 58.4808 84.1441L50.8092 83.6018C50.6322 83.5912 50.4562 83.6344 50.3042 83.7257C50.1522 83.8169 50.0314 83.952 49.9576 84.1133C49.8744 84.2977 49.8477 84.5028 49.8811 84.7024C49.9144 84.902 50.0063 85.0873 50.1449 85.2347V85.2434Z" fill="#AB6116"/>
<path d="M21.2868 30.0416C19.8683 30.4298 20.1443 35.0278 20.1616 35.2829C20.5313 50.8862 28.665 61.4095 28.665 61.4095L47.274 30.0811C34.0234 26.0351 31.8877 16.0873 31.8877 16.0873C31.4096 14.6257 30.6073 13.5178 29.8173 13.5326C28.5295 13.556 27.8381 16.5483 27.7543 16.9143C27.2441 19.1202 27.7629 21.0477 28.1795 22.1605C27.3747 20.3613 26.342 19.1572 25.6494 19.3199C24.6783 19.5479 24.6364 22.4009 24.6351 22.7028C24.6329 24.0284 24.933 25.3371 25.5126 26.5293C24.4256 25.366 23.86 25.3499 23.5827 25.4461C22.3626 25.87 22.7656 29.8457 22.879 30.8427C22.02 29.9701 21.5222 29.9775 21.2868 30.0416Z" fill="#FAFAFA"/>
<path d="M21.1834 29.6632C19.5579 30.1081 19.6947 34.0924 19.7748 35.2853C20.1445 50.8356 28.2708 61.5351 28.3521 61.6362C28.3882 61.683 28.4345 61.7208 28.4875 61.7469C28.5405 61.773 28.5987 61.7865 28.6578 61.7865H28.6812C28.744 61.7825 28.8049 61.7633 28.8586 61.7304C28.9123 61.6975 28.9571 61.6521 28.9893 61.598L47.5983 30.2695C47.6281 30.2192 47.646 30.1627 47.6508 30.1044C47.6557 30.0461 47.6472 29.9875 47.6261 29.9329C47.605 29.8783 47.5718 29.8293 47.529 29.7894C47.4861 29.7495 47.4348 29.7198 47.3789 29.7027C34.519 25.7763 32.2785 16.0947 32.2575 15.9973C32.2549 15.9844 32.2516 15.9717 32.2477 15.9591C31.8004 14.5912 30.9303 13.1382 29.8261 13.1382H29.8026C28.4199 13.1641 27.6854 15.4551 27.3699 16.8181C27.1477 17.7971 27.0931 18.8068 27.2085 19.8041C26.6786 19.188 26.0993 18.8047 25.5534 18.9341C24.3925 19.2064 24.2483 21.6453 24.2409 22.6892C24.2365 23.5596 24.3611 24.426 24.6106 25.2599C24.1781 25.0134 23.7948 24.9518 23.4534 25.0714C22.5168 25.3967 22.1631 27.0308 22.3997 29.9343C21.9561 29.6632 21.5494 29.5683 21.1834 29.6632ZM22.5981 31.11C22.6547 31.1669 22.7274 31.2049 22.8065 31.2186C22.8855 31.2324 22.9668 31.2212 23.0392 31.1867C23.1116 31.1522 23.1715 31.096 23.2106 31.026C23.2497 30.956 23.2661 30.8755 23.2575 30.7958C22.8964 27.6002 23.2353 25.9698 23.7048 25.8071C23.9254 25.7307 24.4443 25.9488 25.2256 26.793C25.2882 26.8615 25.3735 26.905 25.4656 26.9158C25.5578 26.9265 25.6507 26.9036 25.7274 26.8513C25.8041 26.7991 25.8594 26.7209 25.8831 26.6312C25.9068 26.5415 25.8974 26.4462 25.8566 26.3629C25.3005 25.2244 25.0133 23.9734 25.0173 22.7064C25.0296 21.1364 25.35 19.7869 25.7333 19.6969C26.0808 19.6144 27.0014 20.4807 27.8284 22.3194C27.8673 22.4142 27.9422 22.4897 28.0368 22.5292C28.1313 22.5687 28.2376 22.5691 28.3324 22.5302C28.4272 22.4913 28.5027 22.4163 28.5422 22.3218C28.5817 22.2273 28.5821 22.1209 28.5432 22.0261C27.9072 20.3291 27.7643 18.5915 28.1315 17.0029C28.5555 15.1704 29.2407 13.9318 29.8248 13.922H29.8322C30.2993 13.922 31.024 14.6996 31.5157 16.1945C31.6389 16.7355 34.1037 26.2483 46.6925 30.3065L28.627 60.702C27.0963 58.5035 20.863 48.7479 20.5462 35.257C20.4008 33.0782 20.6818 30.6072 21.3879 30.4137C21.4173 30.4061 21.4475 30.4024 21.4779 30.4026C21.6541 30.4026 22.0078 30.5099 22.5981 31.11Z" fill="#AB6116"/>
<path d="M61.9106 74.9368C68.7503 73.6588 65.3687 60.3552 65.1431 60.3552H51.0176C51.0176 60.3552 55.077 76.2148 61.9106 74.9368Z" fill="#FAFAFA"/>
<path d="M61.1271 75.3979C61.4165 75.3979 61.7053 75.3711 61.9898 75.3178C65.4269 74.6757 67.0167 71.0414 66.4658 65.089C66.3587 63.9398 66.1817 62.7981 65.9359 61.6704C65.5662 59.9734 65.4318 59.9734 65.1521 59.9734H51.0167C50.9581 59.974 50.9005 59.9879 50.8482 60.014C50.7958 60.0402 50.7501 60.0779 50.7145 60.1243C50.6788 60.1707 50.6542 60.2246 50.6426 60.282C50.6309 60.3393 50.6324 60.3986 50.6469 60.4552C50.8047 61.0887 54.5462 75.3979 61.1271 75.3979ZM64.9031 60.7424C65.3382 62.0167 66.6938 68.515 64.8908 72.1666C64.2327 73.4988 63.2086 74.3035 61.8468 74.5574C56.0904 75.637 52.27 63.355 51.5256 60.7424H64.9031Z" fill="#AB6116"/>
<path d="M46.1939 75.9881C53.0336 74.7101 49.652 61.4065 49.4264 61.4065H35.291C35.291 61.4065 39.3579 77.266 46.1939 75.9881Z" fill="#FAFAFA"/>
<path d="M45.4091 76.4475C45.6985 76.4475 45.9873 76.4207 46.2717 76.3674C49.7088 75.7253 51.2986 72.091 50.7477 66.1386C50.6405 64.9893 50.4636 63.8477 50.2178 62.7199C49.8481 61.023 49.7138 61.0229 49.434 61.0229H35.2936C35.2352 61.0238 35.1777 61.0378 35.1255 61.064C35.0733 61.0903 35.0276 61.128 34.9921 61.1743C34.9565 61.2207 34.9319 61.2745 34.9201 61.3318C34.9083 61.389 34.9096 61.4482 34.9239 61.5048C35.0866 62.1358 38.8281 76.4475 45.4091 76.4475ZM49.1851 61.792C49.6201 63.0662 50.9757 69.5646 49.1728 73.2162C48.5147 74.5484 47.4905 75.3531 46.1288 75.607C40.3723 76.6828 36.5519 64.4046 35.8075 61.792H49.1851Z" fill="#AB6116"/>
<path d="M84.5722 21.9466C88.3309 21.3452 90.4346 14.4438 84.4218 12.4893C78.409 10.5347 73.0716 14.8813 69.9154 21.116C66.7593 27.3506 63.5194 29.8757 63.5194 29.8757C60.6405 29.9817 56.4652 29.9324 49.9213 29.9103C46.1071 29.8977 42.3625 30.9314 39.0948 32.8988L26.9644 52.962C26.6563 59.7118 29.7114 65.976 37.2943 68.5603C57.1356 75.3248 78.0331 65.5385 82.3921 51.7087C82.7196 50.6747 82.9491 49.6122 83.0773 48.5353C83.1299 48.3949 83.1683 48.2495 83.1919 48.1015C84.0669 42.3894 82.6176 35.6248 81.1893 29.6157C79.761 23.6066 84.5722 21.9466 84.5722 21.9466Z" fill="#FAFAFA"/>
<path d="M26.982 52.5857C26.8795 52.5814 26.7795 52.6179 26.704 52.6872C26.6284 52.7565 26.5835 52.853 26.579 52.9555C26.2253 60.6973 30.0851 66.5228 37.1701 68.937C41.4953 70.4108 46.0336 71.1632 50.6031 71.1639C56.8882 71.1639 63.1191 69.7331 68.6994 66.9097C75.7388 63.3481 80.863 57.8542 82.7608 51.8365C83.0909 50.7921 83.3236 49.7195 83.4559 48.6323C83.5116 48.4816 83.5528 48.3261 83.5792 48.1677C84.4542 42.4556 83.0665 35.8278 81.5704 29.5291C80.2838 24.114 84.2644 22.4799 84.6747 22.327C86.7143 21.9795 88.3867 19.9338 88.5716 17.5516C88.7675 15.0375 87.2627 13.0102 84.5453 12.1291C78.9799 10.3199 73.2444 13.7016 69.5744 20.9517C66.7953 26.4444 63.9251 29.0398 63.3779 29.5044C61.0845 29.5845 57.9049 29.5698 53.5361 29.5488L49.9265 29.534H49.8476C45.9892 29.53 42.2033 30.5823 38.9003 32.5768C38.8172 32.6316 38.7584 32.7163 38.7361 32.8134C38.7139 32.9104 38.7299 33.0123 38.7808 33.0979C38.8318 33.1834 38.9137 33.246 39.0097 33.2727C39.1056 33.2994 39.2081 33.288 39.2959 33.241C42.4794 31.3181 46.1285 30.3033 49.8476 30.3067H49.9228L53.5312 30.3215C57.9937 30.3425 61.2176 30.3573 63.5369 30.2722C63.6179 30.2691 63.696 30.2407 63.76 30.1909C63.8955 30.0861 67.1034 27.545 70.2633 21.3005C72.9942 15.9026 78.1172 10.8523 84.3063 12.8636C87.7002 13.9666 87.8802 16.4683 87.8001 17.4924C87.6423 19.5098 86.198 21.3017 84.5145 21.5716C84.4928 21.5752 84.4713 21.5805 84.4504 21.5876C84.3987 21.6049 79.3262 23.4276 80.8174 29.709C82.2962 35.9338 83.6679 42.4777 82.8139 48.0518C82.794 48.1747 82.7617 48.2952 82.7177 48.4117C82.7074 48.4399 82.7003 48.4693 82.6968 48.4992C82.5708 49.5522 82.3464 50.5912 82.0264 51.6023C80.1913 57.4229 75.2076 62.7504 68.3531 66.2184C58.95 70.9766 47.6761 71.7 37.4203 68.2037C30.6853 65.9078 27.0152 60.3621 27.3517 52.9887C27.354 52.938 27.3463 52.8872 27.3289 52.8395C27.3116 52.7917 27.285 52.7478 27.2506 52.7104C27.2162 52.673 27.1748 52.6427 27.1287 52.6213C27.0826 52.5999 27.0328 52.5878 26.982 52.5857Z" fill="#AB6116"/>
<path d="M85.1055 21.8164C83.8609 22.0757 82.7519 22.776 81.9827 23.7882C81.3776 24.6065 80.9277 25.76 80.9277 27.3621C80.9277 27.3621 82.8157 27.9574 83.756 25.9658C84.6964 23.9743 83.1928 23.4875 85.1055 21.8164Z" fill="#DD1E25"/>
<path d="M85.3616 22.1073C85.4244 22.052 85.4675 21.9779 85.4846 21.896C85.5017 21.8141 85.4918 21.7289 85.4564 21.6532C85.421 21.5774 85.362 21.5151 85.2883 21.4757C85.2145 21.4362 85.13 21.4217 85.0473 21.4344C83.7011 21.7074 82.5011 22.463 81.6731 23.559C80.9226 24.5745 80.543 25.8537 80.543 27.3597C80.5428 27.442 80.5689 27.5222 80.6174 27.5887C80.6659 27.6552 80.7344 27.7045 80.8129 27.7294C81.0559 27.8023 81.3084 27.8385 81.5622 27.8366C82.3915 27.8366 83.4724 27.4743 84.107 26.1285C84.4263 25.4759 84.5516 24.7453 84.4681 24.0236C84.425 23.3778 84.3966 22.949 85.3616 22.1073ZM83.6967 24.0791C83.7287 24.5597 83.7607 25.0551 83.407 25.8044C82.8192 27.0516 81.8049 27.1058 81.3206 27.0503C81.3687 25.8512 81.6903 24.8321 82.2942 24.0248C82.7191 23.4579 83.2668 22.9945 83.8963 22.6692C83.6375 23.1794 83.6671 23.6243 83.6967 24.0729V24.0791Z" fill="#AB6116"/>
<path d="M91.3751 22.9995C89.6497 19.8803 87.2786 18.415 87.2786 18.415C84.873 19.0164 85.5126 21.3087 85.5126 21.3087C88.5196 23.5627 91.3751 22.9995 91.3751 22.9995Z" fill="#FDEBA5"/>
<path d="M90.509 23.4505C90.824 23.4547 91.1387 23.4304 91.4493 23.3778C91.509 23.3658 91.565 23.34 91.6128 23.3023C91.6606 23.2646 91.6989 23.2162 91.7245 23.161C91.75 23.1057 91.7622 23.0453 91.76 22.9844C91.7578 22.9236 91.7413 22.8642 91.7118 22.8109C89.9545 19.64 87.5809 18.1476 87.4811 18.0847C87.4372 18.0574 87.3884 18.0391 87.3373 18.0311C87.2863 18.023 87.2342 18.0253 87.1841 18.0379C86.3534 18.2462 85.7508 18.6602 85.3959 19.2703C84.8265 20.25 85.126 21.3653 85.1395 21.4085C85.1623 21.4907 85.2117 21.5631 85.28 21.6143C87.3664 23.1831 89.3765 23.4505 90.509 23.4505ZM86.0725 19.656C86.298 19.2727 86.6813 18.9967 87.2161 18.834C88.6349 19.866 89.8335 21.1707 90.7419 22.6716C89.8189 22.7025 87.8878 22.5484 85.8642 21.0843C85.8186 20.8243 85.7508 20.1945 86.0651 19.656H86.0725Z" fill="#AB6116"/>
<path d="M81.4257 19.4372C82.6346 19.2516 83.4641 18.1211 83.2785 16.9122C83.0928 15.7033 81.9623 14.8737 80.7534 15.0594C79.5445 15.245 78.7149 16.3755 78.9006 17.5844C79.0862 18.7934 80.2168 19.6229 81.4257 19.4372Z" fill="white"/>
<path d="M81.0857 19.8344C81.2185 19.8342 81.3512 19.8239 81.4825 19.8036C82.1466 19.7004 82.7449 19.344 83.1519 18.8092C83.5588 18.2743 83.7428 17.6026 83.6651 16.935C83.5875 16.2674 83.2543 15.6559 82.7354 15.2287C82.2165 14.8016 81.5523 14.592 80.8823 14.644C80.2122 14.6961 79.5883 15.0056 79.1416 15.5077C78.6949 16.0099 78.4601 16.6655 78.4864 17.3371C78.5127 18.0087 78.7981 18.6439 79.2828 19.1096C79.7674 19.5752 80.4136 19.835 81.0857 19.8344ZM79.6129 16.1521C79.863 15.8109 80.2236 15.5671 80.6334 15.4621C81.0431 15.3571 81.4765 15.3975 81.8598 15.5763C82.2431 15.7552 82.5525 16.0615 82.7353 16.4429C82.918 16.8244 82.9628 17.2574 82.8619 17.6682C82.7611 18.079 82.5209 18.4421 82.1823 18.6955C81.8438 18.949 81.4277 19.0773 81.0052 19.0583C80.5826 19.0394 80.1797 18.8745 79.8652 18.5917C79.5506 18.3089 79.3439 17.9258 79.2802 17.5077C79.2435 17.2709 79.2541 17.0293 79.3112 16.7966C79.3683 16.564 79.4708 16.3449 79.6129 16.1521Z" fill="#AB6116"/>
<path d="M81.2085 18.0396C81.639 17.9734 81.9345 17.5708 81.8683 17.1403C81.8022 16.7097 81.3996 16.4143 80.9691 16.4804C80.5385 16.5465 80.243 16.9491 80.3092 17.3797C80.3753 17.8102 80.7779 18.1057 81.2085 18.0396Z" fill="#AB6116"/>
</svg>
