<svg width="112" height="40" viewBox="0 0 112 40" fill="none" xmlns="http://www.w3.org/2000/svg">
<ellipse cx="56" cy="34" rx="56" ry="6" fill="#FEF6D2"/>
<path d="M55.362 25.4721L53.5657 25.2544L52.4875 31.0461C52.3451 31.8009 51.747 32.2667 50.9923 32.403C50.3454 32.5251 47.6112 33.1211 47.3488 33.2757C47.3056 33.3062 47.2735 33.35 47.2574 33.4004C47.2414 33.4508 47.2424 33.5051 47.2602 33.555C47.2779 33.6048 47.3115 33.6475 47.3558 33.6764C47.4001 33.7053 47.4527 33.7189 47.5055 33.7152L51.2507 33.4507C51.3055 33.4522 51.3586 33.47 51.4032 33.502C51.4478 33.5339 51.4818 33.5784 51.5008 33.6299C51.5198 33.6813 51.523 33.7373 51.51 33.7905C51.497 33.8438 51.4683 33.8919 51.4276 33.9288C51.1465 34.2747 50.817 34.5782 50.4491 34.83C50.4491 34.83 50.0789 35.2002 50.6973 35.2023C51.214 35.2023 51.9708 34.8788 52.7316 34.0773C52.9554 33.8454 53.3419 33.3795 54.2594 33.8291C54.5218 33.9572 54.945 34.1505 55.0264 33.9084C55.1769 33.4527 54.0662 32.641 53.7163 32.3257C53.628 32.2588 53.5631 32.1657 53.531 32.0598C53.4988 31.9538 53.501 31.8404 53.5372 31.7358L55.362 25.4721Z" fill="#FDEBA5"/>
<path d="M55.8912 25.12C55.8403 25.0425 55.7732 24.9771 55.6945 24.9283C55.6158 24.8794 55.5274 24.8483 55.4355 24.8372L53.6534 24.6134C53.4924 24.5941 53.3301 24.6368 53.1994 24.7327C53.0687 24.8287 52.9794 24.9708 52.9495 25.1302L51.8713 30.9198C51.7594 31.5159 51.2041 31.7071 50.8847 31.7682C50.8521 31.7682 47.6888 32.411 47.0825 32.6938H47.0703L47.0337 32.7141C46.8701 32.8144 46.7452 32.967 46.6791 33.1472C46.613 33.3274 46.6096 33.5245 46.6696 33.7069C46.7272 33.8979 46.8479 34.0637 47.012 34.1771C47.176 34.2906 47.3738 34.345 47.5728 34.3314L50.3273 34.128C50.2744 34.1713 50.2179 34.2101 50.1584 34.2439C50.107 34.2733 50.0597 34.3096 50.0181 34.3517C49.8891 34.4689 49.7976 34.6217 49.7552 34.7907C49.7129 34.9598 49.7215 35.1376 49.78 35.3018C49.8757 35.5337 50.1177 35.8104 50.7158 35.8124C51.4991 35.8124 52.4104 35.3303 53.2181 34.4921L53.2526 34.4555C53.4398 34.2521 53.5435 34.1483 54.0074 34.3741C54.3797 34.5552 54.8211 34.7342 55.2117 34.5654C55.3167 34.5213 55.4109 34.4551 55.4878 34.3711C55.5647 34.2872 55.6225 34.1876 55.6572 34.0792C55.9196 33.2858 55.0652 32.5738 54.3756 31.998L54.1864 31.8394L55.9949 25.6164C56.0125 25.5309 56.0124 25.4428 55.9946 25.3574C55.9767 25.272 55.9415 25.1912 55.8912 25.12ZM52.2802 33.6397L52.15 33.7699C52.1583 33.6173 52.1289 33.465 52.0646 33.3264C51.9742 33.1311 51.8148 32.976 51.617 32.8911C52.1612 32.7003 52.616 32.3157 52.8946 31.8109C52.8738 31.9972 52.9002 32.1857 52.9713 32.3592C53.0424 32.5327 53.1559 32.6855 53.3015 32.8036C53.3625 32.8586 53.4439 32.9277 53.5374 33.0071C53.2947 33.0178 53.057 33.0795 52.8397 33.1881C52.6224 33.2968 52.4304 33.45 52.2762 33.6377L52.2802 33.6397ZM53.2445 30.4845L54.0867 25.9622L54.5424 26.0171L53.2445 30.4845Z" fill="#AB6116"/>
<path d="M63.1534 28.6072C62.8795 28.6423 62.6037 28.6606 62.3275 28.6621C62.0834 28.6621 61.8454 28.6479 61.6094 28.6255L61.1008 31.3535C60.9584 32.1083 60.3603 32.5741 59.6056 32.7104C58.9587 32.8325 56.2245 33.4285 55.9621 33.5831C55.9188 33.6136 55.8867 33.6574 55.8707 33.7078C55.8547 33.7582 55.8557 33.8125 55.8734 33.8624C55.8912 33.9122 55.9248 33.9549 55.9691 33.9838C56.0134 34.0127 56.066 34.0263 56.1187 34.0225L59.8639 33.7581C59.9188 33.7596 59.9719 33.7774 60.0165 33.8094C60.061 33.8413 60.095 33.8858 60.1141 33.9373C60.1331 33.9887 60.1363 34.0446 60.1233 34.0979C60.1103 34.1512 60.0816 34.1993 60.0409 34.2362C59.7598 34.5821 59.4303 34.8856 59.0624 35.1374C59.0624 35.1374 58.6922 35.5076 59.3106 35.5097C59.8273 35.5097 60.5841 35.1862 61.3449 34.3847C61.5667 34.1528 61.9552 33.6869 62.8727 34.1365C63.1351 34.2646 63.5583 34.4579 63.6396 34.2158C63.7902 33.7601 62.6794 32.9484 62.3295 32.6331C62.2413 32.5662 62.1764 32.4731 62.1443 32.3672C62.1121 32.2612 62.1143 32.1478 62.1505 32.0432L63.1534 28.6072Z" fill="#FDEBA5"/>
<path d="M63.639 28.1943C63.5702 28.1144 63.4829 28.0526 63.3846 28.0143C63.2864 27.976 63.1803 27.9623 63.0755 27.9746C62.6093 28.0363 62.1374 28.0417 61.6698 27.9908C61.511 27.975 61.352 28.0196 61.2245 28.1157C61.0971 28.2119 61.0106 28.3525 60.9822 28.5096L60.4736 31.2376C60.3617 31.8337 59.8064 32.0249 59.487 32.0859C59.4544 32.0859 56.3521 32.7145 55.7031 33.0034L55.6523 33.0278H55.634H55.6177C55.4541 33.1282 55.3292 33.2808 55.2631 33.4609C55.197 33.6411 55.1936 33.8383 55.2535 34.0206C55.3115 34.2114 55.4323 34.377 55.5963 34.4904C55.7603 34.6038 55.9578 34.6583 56.1568 34.6451L58.9133 34.4417C58.8605 34.4851 58.804 34.5239 58.7445 34.5577C58.693 34.5871 58.6458 34.6233 58.6041 34.6655C58.4748 34.7825 58.3832 34.9352 58.3409 35.1044C58.2985 35.2735 58.3073 35.4514 58.3661 35.6155C58.4617 35.8474 58.7017 36.1241 59.3019 36.1261C60.083 36.1261 60.9964 35.644 61.8041 34.8038L61.8366 34.7692C62.0238 34.5658 62.1275 34.462 62.5914 34.6879C62.9636 34.8689 63.4051 35.0479 63.7957 34.8811C63.9006 34.837 63.9947 34.7707 64.0716 34.6868C64.1485 34.6028 64.2064 34.5033 64.2412 34.3949C64.5036 33.6015 63.6472 32.8895 62.9596 32.3158L62.7704 32.1551L63.757 28.7598C63.7833 28.6629 63.7864 28.5612 63.7659 28.4629C63.7454 28.3646 63.7019 28.2726 63.639 28.1943ZM60.8907 33.9474L60.7605 34.0776C60.7684 33.9256 60.739 33.7741 60.675 33.6361C60.5844 33.4397 60.4242 33.2839 60.2254 33.1987C60.7697 33.0081 61.2246 32.6235 61.503 32.1185C61.4824 32.3048 61.5089 32.4933 61.5799 32.6667C61.651 32.8401 61.7645 32.993 61.9099 33.1112C61.9709 33.1662 62.0523 33.2353 62.1458 33.3147C61.9037 33.3262 61.6666 33.3885 61.45 33.4975C61.2335 33.6065 61.0422 33.7597 60.8886 33.9474H60.8907ZM61.8549 30.7901L62.1336 29.2969H62.2882L61.8549 30.7901Z" fill="#AB6116"/>
<path d="M45.7589 19.6562C46.1658 23.0068 48.3893 26.3858 53.0459 29.0141C57.1918 31.5367 63.5511 31.9008 67.158 26.0806C70.7648 20.2604 67.6788 13.6977 61.4619 9.88335C60.2596 9.14692 58.4999 8.68716 56.6222 8.59765C56.0435 7.46031 55.1613 6.50525 54.0735 5.83816C52.9856 5.17107 51.7343 4.81795 50.4582 4.81787C46.6337 4.81787 44.2108 8.13789 44.4142 10.4367C44.7011 13.7058 45.7691 12.5992 45.824 16.9953C45.6785 17.8743 45.6573 18.7693 45.761 19.6542L45.7589 19.6562Z" fill="#FDEBA5"/>
<path d="M45.1208 19.6847C45.1224 19.7168 45.1265 19.7487 45.133 19.7803C45.4707 22.492 47.0697 26.3735 52.717 29.545C54.6149 30.7122 56.7953 31.3396 59.0234 31.3596C62.2926 31.3596 65.5332 29.897 67.7059 26.402C68.4533 25.2362 68.9578 23.9316 69.1893 22.5662C69.4207 21.2009 69.3742 19.8029 69.0526 18.4559C68.2246 14.9731 65.58 11.643 61.7962 9.32586C60.598 8.5935 58.8729 8.10526 57.0155 7.96896C56.3568 6.81222 55.403 5.85085 54.2516 5.18292C53.1001 4.51498 51.7921 4.16436 50.4609 4.16681C49.5055 4.16274 48.56 4.35989 47.6858 4.74545C46.8117 5.131 46.0285 5.6963 45.3873 6.40457C44.2644 7.62516 43.6642 9.15498 43.7822 10.4854C43.9185 12.0396 44.2399 12.7232 44.5227 13.3192C44.8482 14.0109 45.1554 14.6639 45.19 16.9403C45.0429 17.8478 45.0196 18.771 45.1208 19.6847ZM45.0476 10.3735C44.9621 9.40927 45.4544 8.21918 46.3231 7.26712C46.8465 6.69155 47.4848 6.23227 48.1969 5.91898C48.909 5.6057 49.6789 5.44539 50.4568 5.44843C51.6158 5.44703 52.7524 5.76729 53.7401 6.37356C54.7278 6.97984 55.5279 7.84834 56.0512 8.88237C56.1025 8.98209 56.1792 9.06655 56.2734 9.12725C56.3677 9.18796 56.4763 9.22278 56.5883 9.22821C58.3744 9.31365 60.0263 9.749 61.1248 10.4203C64.6219 12.5625 67.0569 15.6018 67.8056 18.7611C68.087 19.9447 68.1266 21.173 67.9221 22.3723C67.7176 23.5716 67.2732 24.7173 66.6155 25.7408C63.2833 31.1196 57.4163 30.9243 53.3578 28.4546C49.2139 26.1233 46.8052 23.0555 46.3902 19.585V19.5667C46.2946 18.744 46.3145 17.9121 46.4492 17.0949C46.4524 17.0584 46.4524 17.0216 46.4492 16.9851C46.4167 14.3893 46.0424 13.5715 45.6599 12.7822C45.4097 12.2248 45.1635 11.702 45.0476 10.3735Z" fill="#AB6116"/>
<path d="M65.3945 22.1727C66.2367 20.5615 65.9926 18.2566 65.01 16.1836L54.6512 16.564C54.5723 18.1169 55.0362 19.6489 55.9633 20.8971C57.6701 23.259 60.268 24.9027 65.3945 22.1727Z" fill="#FDEBA5"/>
<path d="M54.6872 15.9269C54.5177 15.9207 54.3526 15.9811 54.2272 16.0952C54.1017 16.2093 54.0259 16.3679 54.0159 16.5371C53.9272 18.235 54.4305 19.9111 55.4399 21.2792C56.8639 23.2464 58.5972 24.2269 60.6864 24.2269C62.1694 24.2269 63.8315 23.7326 65.6868 22.7439C65.8007 22.6833 65.8936 22.5897 65.9533 22.4753C66.8504 20.7563 66.7121 18.305 65.581 15.9167C65.497 15.7871 65.3688 15.6923 65.2202 15.65C65.0717 15.6076 64.9128 15.6205 64.773 15.6863C64.6333 15.7521 64.5221 15.8663 64.4601 16.0078C64.398 16.1493 64.3894 16.3084 64.4357 16.4558C65.343 18.3701 65.52 20.3576 64.9137 21.7043C60.0314 24.233 57.8445 22.4062 56.4815 20.5224C55.6386 19.393 55.2143 18.0058 55.2812 16.5982C55.2902 16.4307 55.2329 16.2664 55.1217 16.1408C55.0106 16.0152 54.8545 15.9384 54.6872 15.9269Z" fill="#AB6116"/>
<path d="M48.6235 10.6443C49.1707 10.6443 49.6142 10.2007 49.6142 9.65356C49.6142 9.1064 49.1707 8.66284 48.6235 8.66284C48.0764 8.66284 47.6328 9.1064 47.6328 9.65356C47.6328 10.2007 48.0764 10.6443 48.6235 10.6443Z" fill="#AB6116"/>
<path d="M45.9511 13.0389L45.2879 9.65381L42.5497 12.3228C42.5119 12.3613 42.486 12.4098 42.4748 12.4626C42.4637 12.5154 42.4679 12.5702 42.4869 12.6207C42.506 12.6712 42.539 12.7151 42.5822 12.7474C42.6255 12.7797 42.677 12.799 42.7308 12.8029L45.9511 13.0389Z" fill="#FDEBA5"/>
<path d="M45.746 9.20783C45.6279 9.08706 45.4668 9.01797 45.2979 9.01568C45.129 9.0134 44.9661 9.0781 44.8448 9.19562L42.0984 11.8728C41.9752 11.9979 41.8904 12.1556 41.854 12.3273C41.8176 12.499 41.8311 12.6776 41.8929 12.8419C41.9547 13.0062 42.0623 13.1494 42.2029 13.2545C42.3435 13.3597 42.5113 13.4223 42.6864 13.4352L45.9067 13.6732H45.9535C46.115 13.6676 46.2684 13.6011 46.3828 13.487C46.4972 13.3729 46.5641 13.2197 46.57 13.0582C46.5759 12.8968 46.5205 12.739 46.4147 12.6168C46.309 12.4946 46.1609 12.417 46.0003 12.3997L43.5591 12.2207L45.7277 10.107C45.8487 9.98981 45.9185 9.82958 45.9219 9.66118C45.9253 9.49278 45.8621 9.32985 45.746 9.20783Z" fill="#AB6116"/>
</svg>
