<svg width="133" height="143" viewBox="0 0 133 143" fill="none" xmlns="http://www.w3.org/2000/svg">
<path d="M62.1908 141.073C96.5379 141.073 124.382 139.162 124.382 136.804C124.382 134.446 96.5379 132.535 62.1908 132.535C27.8438 132.535 0 134.446 0 136.804C0 139.162 27.8438 141.073 62.1908 141.073Z" fill="#D1D3D4"/>
<path d="M72.1742 69.5862C73.4079 68.7961 74.5965 67.9279 75.7338 66.9864C78.1728 64.9642 78.8979 63.2246 79.605 60.0855C80.0784 57.9671 78.5863 55.9706 77.1181 54.462C75.6499 52.9535 73.978 51.2844 73.954 49.1082C73.954 47.4328 74.9308 45.9691 75.5241 44.4156C78.6582 36.2373 69.945 32.6296 68.2012 25.7993C66.4573 18.969 64.4019 13.352 56.5936 15.5282C54.6999 16.0482 52.8242 16.7415 50.8767 16.8121C49.0789 16.9084 47.3171 16.504 45.5313 16.4783C43.0346 16.4795 40.5843 17.2015 38.4383 18.5684C36.2923 19.9353 34.5299 21.8966 33.3364 24.2458C32.3836 26.1716 32.9469 28.7394 32.054 30.2608C29.7109 34.2537 24.1199 33.2779 25.3064 39.8065C25.7319 42.1303 26.6607 44.5761 25.8337 46.778C24.7791 49.5833 21.5251 50.4242 19.2419 52.2217C15.5205 55.1618 14.5498 61.0805 16.3295 65.6575C18.1093 70.2346 22.1243 73.4892 26.4869 75.1519C30.8495 76.8145 35.5537 77.0777 40.1859 77.0777C51.2362 77.1226 62.8198 75.6012 72.1742 69.5862Z" fill="white"/>
<path d="M40.3597 77.3991H40.1979C35.6556 77.3991 30.8495 77.1551 26.415 75.4732C21.5131 73.6052 17.7498 70.0873 16.0958 65.8441C14.1602 60.8626 15.4486 54.9311 19.0921 52.0552C19.8576 51.482 20.6584 50.9651 21.4891 50.5081C23.233 49.5002 24.8869 48.5822 25.5641 46.7399C26.1633 45.1093 25.7618 43.267 25.3543 41.4888C25.2405 40.9688 25.1206 40.4488 25.0307 39.9353C24.2457 35.6343 26.2832 34.4146 28.4405 33.1178C29.687 32.3732 30.9694 31.6029 31.8143 30.1713C32.188 29.3288 32.3824 28.4079 32.3836 27.4752C32.4095 26.339 32.6458 25.2196 33.0788 24.182C34.2836 21.8113 36.0562 19.8273 38.2143 18.4339C40.3724 17.0405 42.838 16.2881 45.3575 16.254H45.5193C46.3043 16.254 47.0894 16.3439 47.8504 16.4273C48.8445 16.5555 49.8458 16.6069 50.8467 16.5814C52.3386 16.4428 53.8117 16.1285 55.2393 15.6441L56.5157 15.2718C64.4918 13.0764 66.6371 18.7319 68.4528 25.7804C69.1 28.3033 70.766 30.4217 72.378 32.4695C75.0267 35.8397 77.7713 39.3254 75.7638 44.5637C75.596 45.0066 75.3862 45.456 75.1645 45.8861C74.6062 46.8716 74.2735 47.9847 74.1937 49.1343C74.1937 51.15 75.7997 52.7741 77.19 54.2121L77.2679 54.2827C79.3953 56.4653 80.2282 58.3911 79.8267 60.1886C79.1076 63.3983 78.3645 65.1701 75.8597 67.2499C74.7106 68.1985 73.51 69.0731 72.2641 69.8691C64.3959 74.9276 53.9449 77.3991 40.3597 77.3991ZM45.3695 16.8061C42.9502 16.8377 40.5824 17.5592 38.5097 18.8961C36.437 20.2331 34.7341 22.1374 33.5761 24.4131C33.1782 25.3858 32.9624 26.4327 32.9409 27.4944C32.9377 28.5194 32.7142 29.5298 32.2877 30.4474C31.3709 32.0009 30.0226 32.8097 28.6922 33.5929C26.6248 34.8318 24.839 35.9039 25.5461 39.7812C25.642 40.2883 25.7558 40.7955 25.8697 41.309C26.2952 43.1771 26.7326 45.1157 26.0555 46.9196C25.3004 48.9289 23.4847 49.9753 21.7288 50.9895C20.9172 51.4308 20.1343 51.9305 19.3858 52.4853C15.934 55.2135 14.7235 60.8305 16.5633 65.5809C18.1633 69.6957 21.8068 73.098 26.5589 74.9083C30.9214 76.571 35.6795 76.8342 40.168 76.8342H40.3298C53.813 76.8342 64.1742 74.3884 72.0064 69.3555C73.2286 68.5739 74.4072 67.7166 75.5361 66.7877C77.9331 64.817 78.6222 63.1158 79.3054 60.0473C79.6589 58.4746 78.8739 56.7285 76.9084 54.7064L76.8305 54.6358C75.3563 53.1208 73.6784 51.426 73.6604 49.1407C73.7375 47.8978 74.0887 46.6922 74.6851 45.6229C74.8829 45.1992 75.0806 44.7691 75.2484 44.339C77.1241 39.4346 74.6072 36.2377 71.9465 32.8482C70.2986 30.7555 68.5907 28.5857 67.9135 25.9345C66.1158 18.9502 64.1442 13.7761 56.6415 15.8432C56.216 15.9587 55.7966 16.0807 55.3771 16.2091C53.91 16.7044 52.397 17.0273 50.8647 17.172C49.8357 17.1962 48.8064 17.1425 47.7845 17.0115C47.0354 16.928 46.2624 16.851 45.5013 16.8382L45.3695 16.8061Z" fill="#F47B20"/>
<path d="M18.1995 88.9156C18.1995 88.9156 23.0894 60.6701 27.9793 55.8876C32.8693 51.1051 45.8432 51.1051 52.6447 50.874C59.4463 50.6429 69.4239 53.1529 73.9123 57.9354C78.4007 62.7179 83.051 93.0047 83.051 93.0047L73.6966 91.8621L79.6532 108.719C79.6532 108.719 59.0268 120.608 49.4567 119.896C39.8865 119.183 24.7913 105.317 24.7913 105.317L25.6422 86.6367L18.1995 88.9156Z" fill="#FDDAA5"/>
<path d="M71.1436 87.1569C71.1076 87.1553 71.0723 87.146 71.0398 87.1295C71.0072 87.1131 70.9781 87.0898 70.9541 87.0611C70.9301 87.0323 70.9117 86.9988 70.8999 86.9623C70.8882 86.9259 70.8835 86.8873 70.8859 86.8488C71.3054 78.1055 68.369 61.1197 68.3391 60.9528C68.3324 60.9153 68.3326 60.8767 68.3399 60.8393C68.3471 60.8019 68.3611 60.7664 68.3811 60.7348C68.4012 60.7032 68.4268 60.6762 68.4566 60.6552C68.4864 60.6342 68.5198 60.6197 68.5548 60.6126C68.5898 60.6054 68.6258 60.6057 68.6607 60.6135C68.6956 60.6212 68.7288 60.6362 68.7583 60.6577C68.7878 60.6791 68.813 60.7066 68.8326 60.7385C68.8522 60.7704 68.8657 60.8062 68.8724 60.8437C68.8724 61.017 71.8687 78.067 71.4312 86.8809C71.4297 86.9194 71.421 86.9572 71.4056 86.9921C71.3903 87.0269 71.3685 87.0581 71.3417 87.0839C71.3149 87.1096 71.2836 87.1293 71.2495 87.1419C71.2155 87.1544 71.1795 87.1595 71.1436 87.1569Z" fill="#F47B20"/>
<path d="M34.7867 81.2384C34.7146 81.2384 34.6454 81.2081 34.5938 81.1541C34.5423 81.1001 34.5126 81.0267 34.511 80.9495C34.511 80.8211 34.3252 68.2839 36.4346 60.1377C36.4555 60.0641 36.5019 60.0018 36.5643 59.9636C36.6267 59.9254 36.7004 59.9142 36.7702 59.9323C36.8051 59.9419 36.8378 59.959 36.8664 59.9824C36.8951 60.0058 36.919 60.0351 36.9369 60.0686C36.9548 60.1022 36.9662 60.1392 36.9705 60.1775C36.9748 60.2158 36.9719 60.2547 36.962 60.2918C34.8706 68.361 35.0563 80.8339 35.0563 80.9366C35.058 81.0139 35.0313 81.0887 34.982 81.1451C34.9327 81.2016 34.8647 81.235 34.7927 81.2384H34.7867Z" fill="#F47B20"/>
<path d="M56.4978 54.4885L57.4986 65.1576C57.4986 65.1576 57.0132 71.2304 50.7869 70.0235C48.9492 69.6492 47.2125 68.8408 45.7032 67.6571C44.1939 66.4733 42.9499 64.944 42.0617 63.1804C41.7681 62.5384 41.9599 61.139 41.9239 60.4329L41.6063 54.1739C41.4505 51.0348 41.037 47.7545 41.1269 44.6282C41.2168 41.502 41.1269 38.1703 41.2408 34.9092C41.2253 34.7186 41.2765 34.5287 41.3846 34.3764C41.4916 34.2709 41.629 34.2075 41.7741 34.1967C42.6166 34.0339 43.4814 34.0579 44.3149 34.2673C44.357 32.0525 44.1109 29.8423 43.5838 27.7002C45.3419 29.105 46.7042 31.0019 47.521 33.1824C49.5874 33.0729 51.659 33.1825 53.7053 33.5098C53.9693 31.9859 53.7719 30.4115 53.142 29.0162C54.016 30.1685 54.8168 31.3824 55.539 32.6496C55.539 32.8357 58.3136 33.253 58.5053 33.0668C58.9847 32.6111 58.8289 29.5362 58.8889 28.8043C60.3076 30.7121 61.2703 32.9619 61.6934 35.3586C62.1728 37.5476 62.1188 46.6054 62.1308 48.8907C62.1248 52.2609 59.8956 54.9635 56.4978 54.4885Z" fill="white"/>
<path d="M52.3452 70.4532C51.8063 70.449 51.2688 70.3931 50.7392 70.2863C48.8614 69.9059 47.0874 69.0785 45.5481 67.8652C44.0089 66.6518 42.7438 65.0836 41.8462 63.2762C41.6492 62.6045 41.5879 61.8955 41.6664 61.1963C41.6664 60.9011 41.6664 60.6314 41.6664 60.4196L41.3548 54.1671C41.3009 53.1271 41.217 52.0551 41.1391 51.0151C40.9385 48.8823 40.8485 46.7392 40.8694 44.5957C40.9114 43.0679 40.9174 41.4951 40.9234 39.9801C40.9234 38.3111 40.9234 36.5843 40.9833 34.8446C40.969 34.5806 41.0458 34.3201 41.199 34.1128C41.3508 33.9665 41.5415 33.8745 41.7443 33.8496C42.5112 33.7019 43.2966 33.7019 44.0635 33.8496C44.0743 31.7787 43.8305 29.7153 43.3384 27.7126C43.3248 27.6536 43.3285 27.5916 43.3491 27.535C43.3696 27.4784 43.4059 27.43 43.4531 27.3963C43.5003 27.3626 43.556 27.3453 43.6127 27.3468C43.6693 27.3482 43.7242 27.3684 43.7698 27.4045C45.5151 28.7993 46.8789 30.6704 47.7189 32.8225C49.6509 32.7345 51.5863 32.8333 53.5017 33.1178C53.6769 31.7401 53.4684 30.3377 52.9025 29.0864C52.8739 29.0213 52.8684 28.9474 52.887 28.8783C52.9057 28.8093 52.9472 28.7499 53.0038 28.7113C53.0604 28.6727 53.1283 28.6576 53.1945 28.6687C53.2608 28.6798 53.3211 28.7165 53.3639 28.7718C54.2257 29.9207 55.0145 31.1303 55.725 32.3924C56.5785 32.6177 57.4528 32.7404 58.3317 32.7583C58.5655 32.3924 58.5774 30.4601 58.5774 29.7155C58.5774 29.2725 58.5774 28.9195 58.5774 28.714C58.582 28.6573 58.602 28.6033 58.635 28.5588C58.6681 28.5143 58.7127 28.4812 58.7632 28.4637C58.8146 28.4476 58.8691 28.4469 58.9209 28.4616C58.9726 28.4763 59.0197 28.5059 59.0569 28.5471C60.3632 30.152 61.2681 32.2768 61.9153 35.2362C62.3468 37.162 62.3528 44.3004 62.3588 47.722V48.8325C62.3896 49.705 62.2451 50.5744 61.9349 51.3818C61.6248 52.1893 61.1562 52.9158 60.561 53.5123C60.0489 53.9865 59.4507 54.342 58.804 54.5564C58.1574 54.7707 57.4763 54.8392 56.8037 54.7577L57.7685 65.0737C57.6154 66.7279 56.8623 68.2516 55.6711 69.3169C54.7122 70.0833 53.5412 70.4833 52.3452 70.4532ZM42.8829 34.3567C42.5271 34.3553 42.172 34.3897 41.8222 34.4594C41.7365 34.4669 41.654 34.4979 41.5825 34.5493C41.5273 34.6546 41.5042 34.7759 41.5166 34.8959C41.4567 36.5907 41.4567 38.3175 41.4507 39.9801C41.4507 41.5015 41.4507 43.0743 41.3968 44.6085C41.3791 46.7328 41.4691 48.8564 41.6664 50.9702C41.7443 52.0101 41.8282 53.0886 41.8822 54.135L42.1938 60.3875C42.1938 60.6122 42.1938 60.9011 42.1938 61.2156C42.126 61.8217 42.1666 62.4361 42.3136 63.0259C43.1763 64.7522 44.3899 66.2488 45.8648 67.4055C47.3397 68.5621 49.0382 69.3492 50.8351 69.7085C52.7107 70.0744 54.2208 69.792 55.3355 68.8804C56.3872 67.9255 57.0617 66.5789 57.2231 65.1122L56.2284 54.488C56.2236 54.4441 56.2287 54.3997 56.2433 54.3583C56.2579 54.317 56.2815 54.28 56.3123 54.2505C56.3423 54.2198 56.3783 54.1965 56.4176 54.1821C56.4569 54.1677 56.4986 54.1625 56.54 54.1671C57.1854 54.2893 57.8481 54.2577 58.4809 54.0747C59.1137 53.8916 59.7011 53.5615 60.2014 53.1079C60.74 52.5661 61.1641 51.9072 61.4452 51.1753C61.7264 50.4434 61.8581 49.6555 61.8314 48.8646V47.7541C61.8314 44.6214 61.8314 37.2904 61.3999 35.4031C61.0197 33.3161 60.2448 31.3347 59.1228 29.5807V29.7476C59.1228 31.5001 59.0748 32.8674 58.6673 33.259C58.2598 33.6506 55.8568 33.1113 55.5093 32.9637C55.4564 32.9476 55.4072 32.9199 55.3649 32.8823C55.3226 32.8447 55.2881 32.7981 55.2636 32.7454C54.8501 32.0136 54.4066 31.2946 53.9392 30.6013C54.1308 31.5672 54.143 32.5641 53.9752 33.535C53.9634 33.6096 53.9248 33.6762 53.8676 33.7206C53.8105 33.7651 53.7394 33.7837 53.6695 33.7725C51.6388 33.4507 49.5835 33.3432 47.5332 33.4516C47.476 33.4574 47.4186 33.4422 47.3707 33.4083C47.3227 33.3744 47.287 33.324 47.2695 33.2654C46.5731 31.4018 45.4671 29.7458 44.0455 28.438C44.4399 30.334 44.6229 32.2733 44.5908 34.2155C44.5891 34.2591 44.5785 34.3017 44.5599 34.3405C44.5413 34.3793 44.515 34.4133 44.4829 34.4402C44.4508 34.4685 44.413 34.4884 44.3724 34.4984C44.3319 34.5084 44.2897 34.5083 44.2492 34.4979C43.8006 34.393 43.342 34.3456 42.8829 34.3567Z" fill="#F47B20"/>
<path d="M56.9051 59.7135C56.9051 59.7135 52.8721 60.3105 50.0197 57.6849C47.1672 55.0594 47.2931 52.1064 47.2931 52.1064C47.2931 52.1064 51.9433 54.809 56.4976 54.4624L56.9051 59.7135Z" fill="#F47B20"/>
<path d="M55.8507 60.0539C53.6793 60.1071 51.559 59.344 49.8581 57.897C46.9397 55.2137 47.0356 52.2222 47.0416 52.1195C47.0433 52.0715 47.0564 52.0247 47.0797 51.9836C47.103 51.9425 47.1357 51.9084 47.1747 51.8846C47.2137 51.8609 47.2577 51.8481 47.3026 51.8477C47.3475 51.8472 47.3917 51.859 47.4311 51.882C47.4791 51.882 52.0694 54.5461 56.4919 54.2058C56.5609 54.2005 56.6291 54.2244 56.6818 54.2725C56.7345 54.3205 56.7674 54.3888 56.7735 54.4626L57.181 59.7137C57.1848 59.7853 57.1636 59.8559 57.1215 59.9116C57.0794 59.9674 57.0195 60.0044 56.9533 60.0154C56.5869 60.0524 56.2186 60.0653 55.8507 60.0539ZM47.581 52.5625C47.8403 54.486 48.7721 56.2322 50.1877 57.4477C52.5188 59.5917 55.7129 59.5083 56.6177 59.4377L56.2582 54.7387C52.5068 54.9633 48.8034 53.2044 47.581 52.5625Z" fill="#F47B20"/>
<path d="M53.2618 46.1429C52.929 46.1413 52.5966 46.1155 52.267 46.0659C52.1974 46.0532 52.1352 46.0119 52.0938 45.9507C52.0523 45.8895 52.0349 45.8133 52.0453 45.7385C52.0504 45.7012 52.0624 45.6653 52.0806 45.6331C52.0988 45.6008 52.1229 45.5728 52.1514 45.5507C52.1799 45.5286 52.2122 45.5128 52.2465 45.5042C52.2807 45.4957 52.3163 45.4946 52.3509 45.501C52.9142 45.5972 54.4843 45.7 54.9697 45.0195C55.2993 44.5445 53.7053 41.8098 51.9734 39.5887C51.9518 39.5596 51.9357 39.5262 51.9261 39.4905C51.9165 39.4547 51.9135 39.4173 51.9174 39.3804C51.9213 39.3434 51.932 39.3076 51.9488 39.2751C51.9656 39.2425 51.9882 39.2138 52.0154 39.1907C52.0425 39.1675 52.0737 39.1502 52.107 39.14C52.1404 39.1297 52.1753 39.1265 52.2098 39.1307C52.2443 39.1349 52.2777 39.1463 52.3081 39.1643C52.3385 39.1823 52.3653 39.2065 52.3869 39.2356C53.2738 40.4039 56.1203 44.3005 55.3832 45.3597C54.9397 46.0017 53.9929 46.1429 53.2618 46.1429Z" fill="#F47B20"/>
<path d="M43.9734 38.78C43.4776 37.4864 42.737 36.317 41.7981 35.3456C40.7973 34.4533 39.2872 34.0617 38.2026 34.7871C37.004 35.5895 36.7044 37.3549 36.8422 38.9084C37.0341 40.6493 37.4789 42.3475 38.1606 43.9412C38.4828 44.9172 39.0338 45.7882 39.7606 46.4704C40.1307 46.8011 40.5915 46.9932 41.0728 47.0176C41.5542 47.0419 42.0298 46.8971 42.4273 46.6053" fill="white"/>
<path d="M41.2466 47.3172C40.6342 47.2994 40.0428 47.0747 39.5567 46.6753C38.7923 45.961 38.2124 45.048 37.8728 44.0241C37.1751 42.3989 36.722 40.6656 36.5305 38.8885C36.4466 37.9128 36.4166 35.5376 38.0226 34.4848C39.323 33.631 40.977 34.1895 41.9597 35.069C42.9297 36.0658 43.695 37.2683 44.2069 38.5997C44.2285 38.6347 44.2429 38.6743 44.249 38.7158C44.2552 38.7572 44.253 38.7996 44.2427 38.8401C44.2323 38.8806 44.2141 38.9183 44.189 38.9506C44.164 38.9829 44.1329 39.0092 44.0977 39.0276C44.0624 39.046 44.0239 39.0561 43.9848 39.0573C43.9456 39.0586 43.9066 39.0508 43.8705 39.0346C43.8343 39.0184 43.8018 38.9941 43.7751 38.9634C43.7484 38.9327 43.7281 38.8962 43.7156 38.8564C43.2331 37.6008 42.5152 36.4646 41.6062 35.5183C40.7672 34.7673 39.3769 34.2794 38.3103 34.9855C36.926 35.8907 37.0159 38.1567 37.0758 38.8372C37.2609 40.5485 37.6999 42.2171 38.3762 43.7801C38.6811 44.7101 39.203 45.541 39.8923 46.1938C40.2139 46.4826 40.614 46.6523 41.033 46.6777C41.4519 46.7032 41.8674 46.583 42.2174 46.3351C42.2448 46.3103 42.2765 46.2915 42.3108 46.28C42.345 46.2685 42.381 46.2644 42.4167 46.268C42.4524 46.2716 42.4871 46.2828 42.5188 46.3009C42.5504 46.319 42.5783 46.3437 42.6009 46.3736C42.6469 46.4327 42.6695 46.5088 42.6639 46.5855C42.6583 46.6623 42.625 46.7336 42.571 46.7844C42.2028 47.1253 41.7332 47.3142 41.2466 47.3172Z" fill="#F47B20"/>
<path d="M48.4498 40.6801C48.7742 40.6801 49.0371 39.9674 49.0371 39.0881C49.0371 38.2089 48.7742 37.4961 48.4498 37.4961C48.1255 37.4961 47.8625 38.2089 47.8625 39.0881C47.8625 39.9674 48.1255 40.6801 48.4498 40.6801Z" fill="#F47B20"/>
<path d="M57.3248 40.3393C57.6492 40.3393 57.9121 39.6265 57.9121 38.7473C57.9121 37.868 57.6492 37.1553 57.3248 37.1553C57.0005 37.1553 56.7375 37.868 56.7375 38.7473C56.7375 39.6265 57.0005 40.3393 57.3248 40.3393Z" fill="#F47B20"/>
<path d="M50.6071 64.8552C50.6071 64.8552 53.178 57.1005 51.9435 54.9565C50.709 52.8124 47.2753 50.7774 46.6101 48.8387C45.9449 46.9001 47.0835 42.2075 45.6573 41.6939C44.2311 41.1804 43.1824 45.5456 44.2311 49.0377C44.2311 49.0377 42.6071 46.9001 42.6071 44.8587C42.6071 42.8173 43.8475 40.2688 42.5112 39.6525C41.1749 39.0363 39.0835 43.7353 39.5629 47.5099C40.0423 51.2845 44.5127 56.587 44.2311 57.6077C43.9494 58.6284 19.4698 84.0621 17.2645 88.2283C15.2151 92.08 16.4915 100.765 23.5387 99.8475C30.586 98.9295 45.8491 78.015 50.6071 64.8552Z" fill="white"/>
<path d="M22.496 100.207C21.4913 100.246 20.4944 100.005 19.6027 99.5076C18.7109 99.0103 17.9549 98.2737 17.4083 97.3699C16.621 95.9825 16.1716 94.4054 16.1015 92.7835C16.0313 91.1616 16.3426 89.5468 17.0068 88.0874C18.3851 85.5196 27.8593 75.2485 35.4699 66.9739C39.7246 62.3519 43.7456 57.9867 43.9733 57.5052C44.0392 57.2228 43.2003 55.8297 42.5231 54.7063C41.2107 52.5366 39.5748 49.8276 39.2931 47.5487C38.9036 44.4738 40.186 40.6991 41.5044 39.6271C41.6501 39.4786 41.8319 39.3769 42.029 39.3338C42.2261 39.2907 42.4305 39.3078 42.619 39.3832C43.7036 39.8839 43.428 41.309 43.1583 42.7469C43.0019 43.4395 42.9096 44.1469 42.8827 44.8589C42.9306 45.7933 43.1853 46.7021 43.6257 47.5102C43.3141 45.09 43.8115 42.6314 44.6385 41.7327C44.7718 41.5678 44.9472 41.4483 45.1432 41.389C45.3391 41.3297 45.547 41.3331 45.7411 41.3989C46.7718 41.7648 46.7239 43.5815 46.6759 45.4945C46.5789 46.5685 46.6436 47.6522 46.8677 48.7042C47.1973 49.6671 48.3539 50.7456 49.4745 51.7855C50.5019 52.6395 51.4117 53.6444 52.1771 54.7705C53.4655 57.0045 50.9786 64.5987 50.8648 64.9197C48.5696 71.2556 43.6737 79.7485 38.1306 87.0859C32.1919 94.9241 26.8765 99.668 23.5506 100.098C23.2016 100.159 22.8493 100.195 22.496 100.207ZM42.2714 39.8967C42.1123 39.9108 41.9614 39.9782 41.84 40.0893C40.7673 40.9623 39.4429 44.4481 39.8384 47.4716C40.1081 49.6157 41.774 52.3761 42.9905 54.3918C44.1111 56.247 44.6445 57.165 44.4947 57.6914C44.3448 58.2178 42.0317 60.6892 35.8654 67.3847C28.6743 75.1779 18.8285 85.8598 17.4862 88.3762C16.8701 89.7417 16.5829 91.2508 16.651 92.7657C16.719 94.2805 17.1401 95.7531 17.8757 97.0489C18.7266 98.4162 20.3926 99.9633 23.4967 99.5589C30.4421 98.6538 45.6692 77.7328 50.3614 64.7528C51.0685 62.6279 52.6805 56.767 51.7217 55.1236C50.9841 54.0495 50.1108 53.0902 49.1269 52.2734C47.9284 51.1371 46.7299 50.0587 46.3643 48.9481C46.1129 47.8245 46.036 46.6641 46.1366 45.5137C46.1786 43.9666 46.2265 42.2141 45.5793 41.9894C45.5134 41.9894 45.3096 41.8867 45.04 42.182C44.1531 43.1193 43.7156 46.3547 44.5006 48.9609C44.5185 49.0257 44.515 49.0951 44.4909 49.1575C44.4668 49.2199 44.4234 49.2715 44.368 49.3038C44.3126 49.3361 44.2486 49.3471 44.1866 49.3349C44.1246 49.3228 44.0683 49.2882 44.0272 49.237C43.9613 49.1471 42.3493 46.9902 42.3493 44.8718C42.3752 44.1208 42.4716 43.3745 42.637 42.6442C42.9186 41.1549 43.0445 40.2241 42.4212 39.9352C42.3722 39.9113 42.3192 39.8982 42.2654 39.8967H42.2714Z" fill="#F47B20"/>
<path d="M56.336 64.3997C56.336 64.3997 53.7652 56.6451 55.0297 54.4881C56.1623 52.5623 58.1817 51.4068 59.56 49.68C61.0162 47.8504 60.8125 44.6664 61.6395 42.4068C61.8073 41.9446 62.1728 41.3925 62.6102 41.5658C62.7921 41.6614 62.9365 41.8229 63.0177 42.0216C63.6611 43.4174 64.0901 44.9153 64.2882 46.4574C64.5651 47.7816 64.7177 49.1321 64.7436 50.4888C64.7256 51.7125 64.4981 52.9223 64.0724 54.058C63.8088 54.777 62.5204 56.3433 62.7421 57.1393C63.0297 58.16 64.6477 63.3662 67.3144 66.9354C69.9811 70.5046 83.6082 84.5182 85.5198 93.4027C86.5326 98.0825 85.8734 103.712 78.8261 102.794C71.7789 101.876 61.1001 77.5596 56.336 64.3997Z" fill="white"/>
<path d="M80.2466 103.199C79.7519 103.197 79.2577 103.165 78.7665 103.103C71.5274 102.159 60.7888 77.4249 56.0846 64.5026C55.9767 64.1817 53.4838 56.5939 54.7782 54.3535C55.5027 53.2366 56.3887 52.2507 57.403 51.4327C58.0955 50.8499 58.741 50.2057 59.3326 49.5068C60.1775 48.4476 60.4472 46.8299 60.6989 45.27C60.832 44.2673 61.0548 43.2806 61.3641 42.3235C61.5918 41.6816 62.0712 41.0396 62.6884 41.3092C62.9323 41.4291 63.1279 41.6386 63.2397 41.8998C63.8981 43.3116 64.3354 44.8297 64.5341 46.3934C64.821 47.7376 64.9757 49.1103 64.9956 50.489C64.9807 51.7476 64.7491 52.9924 64.3124 54.1609C64.1607 54.4984 63.9844 54.8225 63.7851 55.1303C63.4195 55.7337 62.8742 56.6453 62.988 57.0561C63.054 57.2936 64.648 62.9235 67.5064 66.7494C68.0697 67.5005 69.1184 68.7138 70.4488 70.2544C75.6084 76.2438 84.2317 86.2581 85.7718 93.3323C86.2092 95.3608 86.6527 99.1098 84.741 101.389C83.7283 102.596 82.2242 103.199 80.2466 103.199ZM56.594 64.2972C61.9873 79.2031 72.3604 101.678 78.8324 102.519C81.3612 102.846 83.207 102.339 84.3276 101.004C86.0774 98.9236 85.6459 95.3994 85.2324 93.4799C83.7403 86.5855 74.8054 76.2181 70.0113 70.6717C68.675 69.1182 67.6143 67.8921 67.051 67.1282C64.1266 63.2123 62.4967 57.499 62.4307 57.2358C62.245 56.5939 62.8023 55.6438 63.2937 54.8286C63.4745 54.5559 63.6348 54.2683 63.7731 53.9684C64.1836 52.8623 64.4029 51.6855 64.4203 50.4954C64.3933 49.1582 64.2428 47.8272 63.9708 46.5218C63.7803 45.0135 63.3635 43.5481 62.7364 42.1823C62.6585 42.0411 62.5686 41.8934 62.4667 41.8549C62.227 41.7586 61.9573 42.2144 61.8674 42.5289C61.5712 43.4507 61.3585 44.4009 61.2322 45.3663C60.9626 47.0033 60.6869 48.698 59.7401 49.8599C59.1304 50.584 58.4649 51.2519 57.7505 51.8564C56.7773 52.6271 55.929 53.564 55.2397 54.6296C54.2809 56.3114 55.8929 62.1916 56.594 64.2972Z" fill="#F47B20"/>
<path d="M46.6938 111.467C46.6938 111.467 20.5363 85.0448 9.48 90.283C-1.57628 95.5213 -1.36054 110.556 4.59007 119.209C10.5407 127.862 32.6592 134.924 50.9485 133.107C69.2378 131.29 94.5324 123.991 99.4284 117.161C104.324 110.331 100.699 98.9364 91.9856 95.9771C83.2724 93.0177 60.9381 112.148 46.6938 111.467Z" fill="#F47B20"/>
<path d="M45.0879 133.665C28.5124 133.665 9.88756 127.387 4.3804 119.375C0.742913 114.092 -0.629387 106.755 0.874746 100.688C1.42465 98.3264 2.4789 96.1333 3.95448 94.282C5.43007 92.4306 7.2867 90.9714 9.37819 90.0193C20.2847 84.8838 44.974 109.355 46.8018 111.203C53.9928 111.505 63.4191 106.665 71.7548 102.396C79.9466 98.2041 87.677 94.2305 92.0636 95.7262C94.2276 96.4731 96.1923 97.7663 97.7921 99.4969C99.392 101.227 100.58 103.345 101.256 105.67C102.503 109.913 101.909 114.169 99.6382 117.353C94.7722 124.145 69.4836 131.559 50.9726 133.402C49.037 133.575 47.0894 133.665 45.0879 133.665ZM12.8119 89.8781C11.7073 89.8492 10.6091 90.0679 9.58793 90.52C7.57281 91.4369 5.78339 92.8415 4.36003 94.6235C2.93666 96.4056 1.91806 98.5166 1.38412 100.791C-0.0780675 106.703 1.26427 113.855 4.80587 119.003C10.8823 127.843 33.2945 134.538 50.9186 132.786C69.3278 130.95 94.4306 123.631 99.2187 116.949C101.388 113.919 101.945 109.849 100.753 105.785C100.103 103.545 98.9598 101.506 97.4192 99.8386C95.8787 98.1716 93.9863 96.9262 91.9018 96.2077C87.707 94.789 80.0784 98.7048 71.9825 102.852C63.551 107.166 54.0048 112.057 46.6819 111.711C46.6193 111.707 46.56 111.679 46.5141 111.634C46.2744 111.428 24.7851 89.8781 12.8119 89.8781Z" fill="#F47B20"/>
<path d="M30.4961 130.051L47.4131 138.794L54.9877 118.297C54.9877 118.297 30.7478 100.066 24.7911 105.317C18.8345 110.568 28.5784 128.459 30.4961 130.051Z" fill="#F47B20"/>
<path d="M47.4131 139.077C47.3756 139.087 47.3366 139.087 47.2992 139.077L30.3822 130.334L30.3343 130.302C28.8062 129.018 22.7177 118.22 22.6278 110.755C22.5919 108.187 23.269 106.319 24.6233 105.125C30.6639 99.8094 54.1427 117.322 55.1375 118.092C55.1853 118.129 55.2205 118.181 55.2378 118.242C55.2552 118.302 55.2536 118.367 55.2334 118.426L47.6588 138.904C47.6379 138.955 47.6035 138.999 47.5599 139.029C47.5163 139.06 47.4653 139.077 47.4131 139.077ZM30.6339 129.814L47.2692 138.409L54.6641 118.407C52.4888 116.795 30.4361 100.715 24.9589 105.568C23.7604 106.646 23.1252 108.392 23.1612 110.755C23.269 117.842 29.1597 128.53 30.6339 129.814Z" fill="#F47B20"/>
<path d="M54.137 136.978C54.137 136.978 65.6966 141.087 76.4593 139.366C88.5822 137.44 92.1957 131.624 86.0474 126.386C79.899 121.148 54.7902 125.59 54.7902 125.59L54.137 136.978Z" fill="#FDDAA5"/>
<path d="M70.9161 140.078C65.1971 139.99 59.5183 139.039 54.047 137.254C53.9903 137.233 53.9414 137.193 53.9079 137.139C53.8744 137.086 53.858 137.023 53.8612 136.958L54.5024 125.57C54.5058 125.504 54.5303 125.441 54.5717 125.392C54.6132 125.343 54.6691 125.311 54.7302 125.301C55.7549 125.115 80.0128 120.897 86.2031 126.155C88.6421 128.228 89.6548 130.449 89.1275 132.574C88.2885 135.925 83.6862 138.512 76.5011 139.635C74.6521 139.929 72.7854 140.077 70.9161 140.078ZM54.4305 136.766C56.0126 137.292 66.6194 140.617 76.4352 139.077C83.3926 137.966 87.8211 135.54 88.6061 132.42C89.0795 130.539 88.1327 128.536 85.8735 126.642C80.1686 121.796 57.5107 125.448 55.0478 125.866L54.4305 136.766Z" fill="#F47B20"/>
<path d="M48.4019 136.111C48.4019 136.111 58.3855 139.481 60.3031 133.331C62.2207 127.182 58.0679 126.61 52.8603 125.358L48.4019 136.111Z" fill="white"/>
<path d="M54.0111 137.299H53.6275C51.8306 137.224 50.0493 136.912 48.3241 136.368C48.2868 136.356 48.2525 136.336 48.2234 136.308C48.1944 136.28 48.1715 136.246 48.1563 136.208C48.1385 136.171 48.1292 136.13 48.1292 136.089C48.1292 136.048 48.1385 136.007 48.1563 135.97L52.6328 125.243C52.6579 125.181 52.703 125.129 52.76 125.099C52.8171 125.068 52.8824 125.06 52.9444 125.077L53.8433 125.288C56.9115 126.014 59.5662 126.636 60.6089 128.601C61.2081 129.782 61.2081 131.361 60.6089 133.422C59.7639 136.015 57.5047 137.299 54.0111 137.299ZM48.7796 135.9C50.4275 136.381 58.4156 138.467 60.0396 133.216C60.6388 131.291 60.6388 129.891 60.1115 128.864C59.1886 127.131 56.6418 126.527 53.6994 125.834L53.0163 125.674L48.7796 135.9Z" fill="#F47B20"/>
<path d="M28.0631 128.902C28.0126 128.899 27.9634 128.884 27.9193 128.857C27.7935 128.767 14.9334 120.281 7.5446 116.744C7.51171 116.728 7.482 116.706 7.45721 116.678C7.43241 116.651 7.41303 116.618 7.40019 116.582C7.38736 116.546 7.38133 116.508 7.38246 116.469C7.38359 116.431 7.39185 116.393 7.40677 116.358C7.42105 116.323 7.44175 116.291 7.46765 116.265C7.49355 116.238 7.52413 116.217 7.55761 116.204C7.59109 116.19 7.62679 116.184 7.66263 116.185C7.69847 116.186 7.73372 116.195 7.76632 116.211C15.1971 119.761 28.0811 128.273 28.2129 128.356C28.2441 128.376 28.2713 128.402 28.2928 128.434C28.3143 128.465 28.3297 128.5 28.3381 128.538C28.3464 128.576 28.3477 128.615 28.3416 128.653C28.3356 128.692 28.3224 128.728 28.3028 128.761C28.2774 128.804 28.242 128.84 28.2001 128.865C28.1581 128.889 28.111 128.902 28.0631 128.902Z" fill="white"/>
<path d="M21.2857 123.991C21.2857 123.991 15.8924 122.855 14.4782 127.201C13.0639 131.547 14.4782 140.04 18.0737 141.549C21.6692 143.057 27.2184 136.882 29.3457 136.31C31.4731 135.739 36.9383 133.415 36.9383 133.415L21.2857 123.991Z" fill="#FDDAA5"/>
<path d="M19.3201 142.056C18.868 142.06 18.4192 141.975 17.9957 141.805C14.1305 140.22 12.8181 131.47 14.2204 127.086C15.6646 122.592 21.2796 123.696 21.3336 123.702L21.4175 123.735L37.088 133.139C37.1349 133.164 37.1734 133.204 37.1981 133.253C37.2229 133.303 37.2325 133.359 37.2258 133.415C37.2228 133.47 37.2054 133.522 37.1757 133.566C37.146 133.611 37.1052 133.645 37.058 133.665C36.8303 133.762 31.5509 136.009 29.4295 136.58C28.7763 136.753 27.7216 137.536 26.4932 138.448C24.2879 140.085 21.6272 142.056 19.3201 142.056ZM19.7635 124.158C18.1275 124.158 15.5687 124.614 14.7358 127.278C14.0826 129.339 14.0586 132.51 14.6818 135.36C15.359 138.474 16.6414 140.624 18.1935 141.26C20.4826 142.197 23.6407 139.847 26.1816 137.96C27.452 137.023 28.5486 136.208 29.2977 136.034C30.9936 135.578 34.8887 133.974 36.315 133.37L21.1897 124.299C20.7185 124.213 20.2416 124.166 19.7635 124.158Z" fill="#F47B20"/>
<path d="M52.8606 125.654H52.7707C52.7366 125.642 52.7052 125.623 52.6782 125.597C52.6512 125.572 52.6292 125.541 52.6136 125.506C52.598 125.471 52.589 125.434 52.5871 125.395C52.5853 125.357 52.5907 125.318 52.6029 125.282L54.3288 119.903C53.0823 118.529 42.2238 106.582 34.8529 100.786C34.7949 100.74 34.7563 100.671 34.7457 100.594C34.735 100.518 34.7531 100.44 34.796 100.378C34.8389 100.316 34.9031 100.274 34.9745 100.263C35.0459 100.252 35.1185 100.271 35.1765 100.317C43.0028 106.467 54.7183 119.492 54.8381 119.627C54.8732 119.665 54.8975 119.713 54.9081 119.765C54.9187 119.817 54.9152 119.872 54.8981 119.922L53.1003 125.475C53.0807 125.526 53.0477 125.57 53.0052 125.602C52.9627 125.634 52.9125 125.652 52.8606 125.654Z" fill="white"/>
<path d="M53.3396 48.9481C51.9631 48.942 50.612 48.5503 49.4205 47.8119C49.3907 47.7923 49.3649 47.7665 49.3447 47.7359C49.3245 47.7053 49.3103 47.6707 49.303 47.634C49.2957 47.5974 49.2955 47.5596 49.3023 47.5228C49.3091 47.4861 49.3228 47.4512 49.3426 47.4203C49.3614 47.3891 49.3858 47.3621 49.4144 47.341C49.443 47.3198 49.4752 47.305 49.5092 47.2972C49.5431 47.2895 49.5782 47.289 49.6123 47.2958C49.6465 47.3026 49.679 47.3165 49.7081 47.3369C50.7621 47.992 51.9558 48.3456 53.1743 48.3636C54.3927 48.3816 55.595 48.0634 56.6655 47.4396C56.6958 47.4214 56.7291 47.4099 56.7636 47.4056C56.798 47.4012 56.833 47.4042 56.8664 47.4144C56.8997 47.4245 56.9309 47.4416 56.9582 47.4646C56.9854 47.4877 57.0081 47.5162 57.025 47.5487C57.042 47.5812 57.0527 47.6169 57.0568 47.6538C57.0608 47.6907 57.058 47.7281 57.0486 47.7639C57.0391 47.7997 57.0232 47.8331 57.0016 47.8622C56.9801 47.8914 56.9535 47.9157 56.9232 47.9339C55.8303 48.5975 54.5958 48.9469 53.3396 48.9481Z" fill="#F47B20"/>
<path d="M82.0504 8.4349C80.7951 9.00279 79.6958 9.90424 78.8563 11.054C74.9372 16.4014 77.4661 22.4614 80.5762 27.4878C83.92 32.8929 91.7703 32.3986 97.1217 30.2674C99.6385 33.8045 104.75 35.2553 109.197 34.119C111.235 33.5704 113.137 32.5545 114.773 31.1414C116.409 29.7283 117.739 27.9517 118.671 25.9343C119.702 27.8601 122.542 28.5855 124.813 27.95C132.741 25.7417 133.916 15.0341 127.941 10.3928C126.299 9.10894 123.585 8.75587 122.057 10.1489C121.673 7.81222 119.588 5.25728 117.125 4.3714C116.412 4.12104 109.874 3.88353 110.431 4.71805C108.573 1.93202 104.936 0.346421 101.346 0.282227C97.8041 0.306275 94.3428 1.4204 91.3748 3.49194C89.709 4.53001 88.2769 5.94799 87.18 7.64531C85.4358 7.46446 83.6765 7.73526 82.0504 8.4349Z" fill="white"/>
<path d="M106.14 34.8126C102.515 34.8126 98.9973 33.2719 97.0197 30.6528C91.2069 32.8932 83.5664 32.9124 80.3244 27.6677C77.5739 23.2127 74.3978 16.6135 78.6225 10.836C79.4898 9.64217 80.6288 8.70713 81.9304 8.12058C83.5514 7.42452 85.3021 7.14529 87.0421 7.30531C88.1579 5.64113 89.5868 4.24594 91.2369 3.20971C94.2628 1.13339 97.7769 0.0203033 101.37 0C105.104 0.0706137 108.531 1.66263 110.425 4.19189C110.749 4.02498 111.558 3.84524 113.709 3.85166C114.89 3.82725 116.071 3.91101 117.239 4.10202C118.417 4.54048 119.485 5.2662 120.358 6.22199C121.23 7.17778 121.884 8.33753 122.266 9.60989C123.986 8.44155 126.569 8.92301 128.139 10.1427C129.601 11.3047 130.726 12.8854 131.385 14.7025C132.045 16.5197 132.211 18.4995 131.866 20.4138C131.544 22.3078 130.713 24.0603 129.477 25.4577C128.24 26.8551 126.651 27.8371 124.903 28.284C122.8 28.8682 120.043 28.3675 118.725 26.5829C117.75 28.5243 116.406 30.2257 114.781 31.5778C113.155 32.9299 111.284 33.9027 109.286 34.4338C108.256 34.695 107.199 34.8221 106.14 34.8126ZM97.1216 29.9466C97.168 29.9471 97.2137 29.9589 97.2553 29.9812C97.2968 30.0034 97.3331 30.0355 97.3613 30.075C99.7224 33.3875 104.666 34.9538 109.125 33.7919C111.12 33.2602 112.984 32.2692 114.586 30.8879C116.188 29.5066 117.49 27.7681 118.401 25.7933C118.425 25.7402 118.463 25.6954 118.509 25.6637C118.556 25.6319 118.61 25.6146 118.665 25.6135C118.719 25.6122 118.773 25.6264 118.82 25.6546C118.867 25.6828 118.907 25.724 118.935 25.774C119.929 27.6485 122.722 28.2006 124.735 27.6421C126.373 27.2263 127.863 26.3076 129.021 24.9986C130.179 23.6896 130.955 22.0472 131.255 20.2726C131.581 18.4785 131.426 16.6224 130.809 14.9185C130.192 13.2146 129.138 11.7325 127.768 10.6434C126.257 9.46866 123.681 9.08349 122.254 10.3866C122.214 10.4235 122.164 10.4482 122.112 10.4583C122.059 10.4685 122.005 10.4637 121.955 10.4444C121.906 10.4252 121.862 10.3925 121.829 10.3498C121.795 10.307 121.772 10.2555 121.763 10.2005C121.385 7.90874 119.306 5.48861 117.035 4.69902C116.334 4.44866 111.54 4.34595 110.731 4.69902C110.735 4.76923 110.718 4.83913 110.682 4.89798C110.646 4.95683 110.593 5.00136 110.531 5.0247C110.469 5.04805 110.402 5.04893 110.339 5.0272C110.277 5.00547 110.223 4.96234 110.185 4.90444C108.489 2.33667 105.02 0.667622 101.34 0.603428C97.8573 0.639884 94.4563 1.74 91.5365 3.77463C89.9142 4.79129 88.5192 6.17606 87.4496 7.8317C87.4191 7.87936 87.3778 7.91791 87.3296 7.94374C87.2814 7.96958 87.2278 7.98183 87.1739 7.97935C85.4719 7.79117 83.7526 8.04892 82.1642 8.73042C80.9553 9.27353 79.8982 10.1427 79.096 11.2533C75.1529 16.6327 77.9514 22.6606 80.8278 27.3018C83.926 32.3154 91.3927 32.1934 97.0077 29.9531C97.0451 29.9441 97.0836 29.9419 97.1216 29.9466Z" fill="#D1D3D4"/>
<path d="M93.4782 36.6546C94.1787 36.3956 94.9282 36.3272 95.6595 36.4556C96.0977 36.4696 96.528 36.5847 96.9209 36.793C97.3139 37.0012 97.6604 37.2978 97.9367 37.6624C98.4041 38.452 98.0086 39.7937 97.1337 39.8065C98.3322 39.1646 99.9681 40.1275 100.31 41.5398C101.023 44.4863 97.4752 46.3223 95.1621 46.1361C94.0055 46.0462 92.8849 45.4556 91.7343 45.629C89.631 45.9435 88.1388 46.181 86.5568 44.1589C85.4182 42.6953 85.8137 40.6667 86.7485 39.2031C87.036 38.7096 87.4182 38.2873 87.8697 37.9641C88.3212 37.6409 88.8317 37.4243 89.3673 37.3286C89.7029 37.2773 92.2737 37.6303 92.0879 38.2915C92.1883 37.9234 92.3656 37.5847 92.6065 37.3011C92.8474 37.0174 93.1456 36.7963 93.4782 36.6546Z" fill="white"/>
<path d="M95.4736 46.4701C95.3618 46.4766 95.2498 46.4766 95.138 46.4701C94.6626 46.4177 94.1917 46.3254 93.7298 46.194C93.0981 45.9848 92.4355 45.9042 91.7762 45.9565C89.6488 46.2775 87.9949 46.5278 86.3289 44.3773C85.0166 42.689 85.6038 40.4486 86.5027 39.0364C86.8119 38.5043 87.2237 38.0492 87.7105 37.7016C88.1973 37.3539 88.7478 37.1218 89.3252 37.0207C90.2563 37.0282 91.1754 37.247 92.0219 37.6626C92.3169 37.081 92.7914 36.6271 93.3642 36.3787C94.1121 36.0984 94.9141 36.0255 95.6953 36.1669C96.8938 36.3274 97.7508 36.8088 98.1882 37.515C98.338 37.7885 98.4224 38.0975 98.4339 38.4145C98.4454 38.7314 98.3837 39.0464 98.2541 39.3317C98.5298 39.3656 98.7987 39.4458 99.0512 39.5692C99.4247 39.7494 99.7569 40.0152 100.024 40.348C100.291 40.6808 100.487 41.0723 100.597 41.495C100.724 42.0053 100.731 42.5411 100.618 43.0551C100.505 43.5691 100.276 44.0453 99.95 44.4415C99.3696 45.0848 98.674 45.596 97.9048 45.9446C97.1357 46.2931 96.3088 46.4719 95.4736 46.4701ZM92.1837 45.276C92.7595 45.2968 93.3309 45.3917 93.8856 45.5585C94.3158 45.6821 94.7547 45.768 95.1979 45.8153C95.9966 45.8649 96.7958 45.7275 97.5399 45.4127C98.284 45.0978 98.9551 44.6131 99.5066 43.9922C99.7745 43.6761 99.9633 43.2925 100.056 42.8772C100.148 42.4619 100.14 42.0284 100.034 41.617C99.9454 41.2913 99.7925 40.9897 99.5858 40.7328C99.379 40.4759 99.1231 40.2695 98.8354 40.1277C98.5036 39.9584 98.1336 39.8938 97.7688 39.9415C97.5898 40.0637 97.3818 40.1283 97.1695 40.1277C97.1015 40.1308 97.0347 40.108 96.981 40.0633C96.9272 40.0186 96.89 39.955 96.8758 39.8837C96.8617 39.8122 96.8698 39.7376 96.8991 39.6715C96.9283 39.6054 96.977 39.5514 97.0377 39.5178C97.1934 39.4351 97.3586 39.3747 97.5291 39.3381C97.6102 39.2623 97.6773 39.1708 97.7268 39.0685C97.8233 38.8795 97.8739 38.6676 97.8739 38.4522C97.8739 38.2368 97.8233 38.0249 97.7268 37.8359C97.3852 37.2646 96.6961 36.9115 95.6654 36.7767C94.9834 36.649 94.2824 36.7086 93.6279 36.95C93.3413 37.0798 93.0851 37.2761 92.8778 37.5248C92.6706 37.7734 92.5174 38.0683 92.4294 38.388C92.3999 38.4601 92.3468 38.5181 92.2801 38.551C92.2133 38.5839 92.1376 38.5893 92.0674 38.5664C91.9971 38.5434 91.9372 38.4936 91.899 38.4264C91.8607 38.3592 91.8469 38.2793 91.8601 38.2018C91.6803 37.9322 89.8106 37.6048 89.4631 37.6433C88.9715 37.7357 88.5038 37.9384 88.0907 38.2383C87.6775 38.5381 87.3283 38.9283 87.066 39.383C86.287 40.6091 85.7597 42.5414 86.8563 43.9536C88.3125 45.8281 89.6728 45.6227 91.7282 45.3146C91.8792 45.2917 92.0313 45.2788 92.1837 45.276Z" fill="#D1D3D4"/>
<path d="M82.11 46.3101C81.5419 46.0473 80.9057 46.0064 80.3123 46.1945C80.0216 46.2923 79.7653 46.4819 79.577 46.7386C79.3888 46.9952 79.2774 47.3068 79.2576 47.6325C79.2582 47.7944 79.2908 47.9543 79.3531 48.1017C79.4155 48.2491 79.5062 48.3808 79.6193 48.4881C79.7325 48.5954 79.8655 48.6758 80.0097 48.7242C80.1539 48.7725 80.306 48.7877 80.4561 48.7687C79.0538 49.7509 82.0621 52.3123 83.3924 49.5776C83.5437 49.2785 83.6304 48.9468 83.646 48.607C83.6616 48.2672 83.6058 47.928 83.4828 47.6144C83.3597 47.3008 83.1724 47.0208 82.9348 46.795C82.6973 46.5693 82.4154 46.4036 82.11 46.3101Z" fill="white"/>
<path d="M81.7686 51.1241C81.6828 51.1305 81.5967 51.1305 81.5109 51.1241C81.1324 51.0811 80.7732 50.9236 80.475 50.6702C80.1769 50.4167 79.9521 50.0777 79.827 49.6926C79.7816 49.4784 79.7983 49.2544 79.875 49.0507C79.7445 48.9972 79.623 48.9213 79.5154 48.826C79.3511 48.6869 79.2175 48.5106 79.1243 48.3097C79.0311 48.1088 78.9804 47.8884 78.9761 47.6641C78.9948 47.2711 79.1255 46.8937 79.3505 46.5827C79.5754 46.2717 79.884 46.0419 80.2345 45.9244C80.8884 45.717 81.589 45.7578 82.218 46.0399C82.5683 46.1724 82.8891 46.3811 83.1603 46.6529C83.4316 46.9246 83.6474 47.2536 83.7941 47.6191C83.9121 47.9612 83.9593 48.3267 83.9324 48.6903C83.9055 49.0538 83.8051 49.4068 83.6383 49.7247C83.4804 50.1222 83.2214 50.4642 82.8908 50.7117C82.5602 50.9591 82.1714 51.1021 81.7686 51.1241ZM80.4622 48.4472C80.5209 48.4462 80.5785 48.4639 80.6276 48.4983C80.6767 48.5326 80.7151 48.5819 80.7379 48.6398C80.7645 48.7091 80.7678 48.7861 80.747 48.8576C80.7262 48.9291 80.6827 48.9906 80.624 49.0314C80.5417 49.0762 80.4758 49.1492 80.4367 49.2387C80.3976 49.3283 80.3876 49.4293 80.4083 49.5257C80.5077 49.7859 80.6722 50.0117 80.8836 50.1781C81.0951 50.3446 81.3453 50.4454 81.6068 50.4694C81.9339 50.4969 82.2605 50.4106 82.538 50.2232C82.8155 50.0358 83.0291 49.7574 83.1469 49.4294C83.2747 49.1922 83.3522 48.9277 83.3739 48.6548C83.3957 48.3819 83.3611 48.1072 83.2727 47.8502C83.1592 47.5599 82.9894 47.2987 82.7745 47.084C82.5596 46.8693 82.3046 46.706 82.0263 46.6049C81.5249 46.3813 80.9683 46.3429 80.4443 46.4957C80.2117 46.5705 80.0057 46.7191 79.8538 46.9221C79.7018 47.125 79.611 47.3725 79.5933 47.632C79.5997 47.7572 79.6314 47.8795 79.6863 47.9903C79.7411 48.1011 79.8178 48.1979 79.9109 48.2739C79.9779 48.3398 80.0581 48.3886 80.1453 48.4164C80.2325 48.4442 80.3245 48.4503 80.4143 48.4344L80.4622 48.4472Z" fill="#D1D3D4"/>
<path d="M115.716 89.4097C115.814 87.9521 115.525 86.4945 114.884 85.205C114.356 84.2678 113.553 83.5295 113.122 82.5409C112.379 80.8334 112.9 78.8241 112.726 76.9496C112.568 75.3781 111.922 73.9088 110.892 72.777C109.976 71.7884 108.795 71.1079 107.896 70.0744C106.464 68.3797 106.05 65.9916 105.235 63.8796C104.08 60.887 102.076 58.3587 99.5066 56.6514C101.071 60.0216 97.5111 64.3033 99.1231 67.6478C99.6324 68.7071 100.609 69.4774 100.987 70.6008C101.892 73.3098 98.8714 76.2499 99.8422 78.946C100.322 80.2877 101.64 81.0645 102.287 82.3419C103.132 84.0559 102.467 86.1358 102.539 88.0745C102.635 90.745 104.151 93.1394 105.955 94.9882C107.075 96.1437 108.352 97.1387 109.55 98.1979C111 99.4818 111.612 100.766 112.894 98.7564C114.662 96.0008 115.643 92.7528 115.716 89.4097Z" fill="#D1D3D4"/>
<path d="M117.352 90.9381C116.885 88.8711 116.549 86.6243 117.352 84.6728C118.239 82.4645 120.457 80.9046 120.72 78.5165C120.888 76.9566 120.121 75.371 120.439 73.8239C120.756 72.2768 121.907 71.2241 122.878 70.0878C125.114 67.4546 126.444 64.0824 126.647 60.5293C128.049 62.5129 129.469 64.5414 130.242 66.891C131.015 69.2405 131.021 72.0265 129.721 74.0615C129.347 74.5417 129.04 75.0781 128.81 75.6535C128.373 77.1749 129.589 78.6 130.218 80.0444C130.591 80.8696 130.746 81.7878 130.668 82.7005C130.59 83.6132 130.281 84.4859 129.775 85.2248C128.499 86.9324 126.036 87.5936 125.412 89.6735C125.254 90.447 125.18 91.2376 125.191 92.0294C125.057 93.4017 124.544 94.6998 123.716 95.7569C122.889 96.8139 121.785 97.5815 120.546 97.961C119.036 98.3526 119.066 97.7106 118.797 96.3561C118.401 94.5266 117.748 92.7612 117.352 90.9381Z" fill="#D1D3D4"/>
<path d="M112.558 76.0637C111.486 72.0901 111.06 67.9367 109.928 63.9823C108.963 60.8991 107.789 57.8954 106.416 54.9951L111.018 57.075C112.492 57.717 114.092 58.5258 114.788 60.0729C115.986 62.7626 113.823 66.2034 115.093 68.8611C115.543 69.7919 116.352 70.4595 116.891 71.3133C118.245 73.3547 118.042 76.1536 117.293 78.5223C116.975 79.543 115.585 84.8134 114.338 83.3497C113.835 82.7656 113.793 80.5765 113.583 79.7805C113.266 78.5159 112.87 77.3026 112.558 76.0637Z" fill="#D1D3D4"/>
<path d="M115.045 128.844C114.134 122.354 111.258 99.4623 111.228 99.2312L112.019 99.1221C112.019 99.3532 114.919 122.232 115.836 128.722L115.045 128.844Z" fill="#D1D3D4"/>
<path d="M116.154 134.982H115.357C115.411 127.278 118.413 97.8004 120.151 95.7783L120.75 96.3496C119.557 97.6849 116.202 124.422 116.154 134.982Z" fill="#D1D3D4"/>
<path d="M117.688 133.512L116.891 133.473C117.58 116.847 114.29 81.9316 114.254 81.585L115.045 81.4951C115.081 81.8482 118.377 116.821 117.688 133.512Z" fill="#D1D3D4"/>
<path d="M107.165 113.193H124.292L123.093 131.765C122.995 133.313 122.351 134.764 121.291 135.823C120.232 136.883 118.837 137.472 117.388 137.472H114.074C112.625 137.472 111.229 136.883 110.169 135.824C109.109 134.765 108.464 133.314 108.364 131.765L107.165 113.193Z" fill="white"/>
<path d="M117.388 137.794H114.074C112.554 137.783 111.093 137.16 109.982 136.048C108.872 134.935 108.193 133.416 108.082 131.791L106.883 113.22C106.88 113.13 106.91 113.042 106.967 112.976C107.023 112.928 107.093 112.903 107.165 112.905H124.292C124.333 112.905 124.374 112.914 124.412 112.932C124.45 112.95 124.484 112.976 124.513 113.008C124.541 113.041 124.562 113.079 124.576 113.121C124.589 113.163 124.595 113.208 124.591 113.252L123.393 131.824C123.275 133.445 122.592 134.959 121.48 136.066C120.367 137.172 118.906 137.789 117.388 137.794ZM107.489 113.547L108.687 131.779C108.787 133.241 109.397 134.61 110.397 135.611C111.396 136.613 112.712 137.175 114.08 137.184H117.394C118.764 137.176 120.08 136.615 121.08 135.613C122.079 134.611 122.689 133.242 122.788 131.779L123.986 113.547H107.489Z" fill="#D1D3D4"/>
<path d="M102.494 21.0389V20.4957C102.494 19.2913 103.392 18.5828 104.549 17.7563C105.919 16.788 107.548 15.5836 107.548 13.0567C107.548 9.91574 105.423 7.88477 101.904 7.88477C98.4797 7.88477 96 10.27 96 13.6471H98.9992C98.9992 11.8286 100.156 10.577 101.833 10.577C103.486 10.577 104.478 11.6397 104.478 13.2456C104.478 14.6153 103.51 15.4183 102.447 16.2684C101.196 17.2367 99.873 18.3467 99.873 20.4957V21.0389H102.494ZM101.29 25.7621C102.329 25.7621 103.203 24.8883 103.203 23.8964C103.203 22.8573 102.329 22.0071 101.29 22.0071C100.227 22.0071 99.3771 22.8573 99.3771 23.8964C99.3771 24.9119 100.227 25.7621 101.29 25.7621Z" fill="#F47B20"/>
</svg>
