<svg width="20" height="20" viewBox="0 0 20 20" fill="none" xmlns="http://www.w3.org/2000/svg">
<g clip-path="url(#clip0_11279_26225)">
<path d="M4.99998 1.66663C4.99998 2.09413 5.40831 2.49996 5.83331 2.49996H14.1666C14.5941 2.49996 15 2.09163 15 1.66663H16.6666C16.6666 3.04746 15.5475 4.16663 14.1666 4.16663H10.8333L10.8341 5.88496C14.1225 6.29579 16.6666 9.10079 16.6666 12.5V17.5C16.6666 17.96 16.2933 18.3333 15.8333 18.3333H4.16665C3.70665 18.3333 3.33331 17.96 3.33331 17.5V12.5C3.33331 9.09996 5.87831 6.29496 9.16665 5.88496V4.16663H5.83331C4.44998 4.16663 3.33331 3.04996 3.33331 1.66663H4.99998ZM9.99998 7.49996C7.30165 7.49996 4.99998 9.79996 4.99998 12.5V16.6666H15V12.5C15 9.80163 12.6983 7.49996 9.99998 7.49996ZM9.99998 9.16663C10.6183 9.16663 11.1966 9.33496 11.6933 9.62829L9.40998 11.9108C9.08498 12.2358 9.08498 12.7641 9.40998 13.0891C9.71081 13.3891 10.1841 13.4125 10.51 13.1583L10.5891 13.0891L12.8725 10.8066C13.165 11.3033 13.3333 11.8816 13.3333 12.5C13.3333 14.3416 11.8416 15.8333 9.99998 15.8333C8.15831 15.8333 6.66665 14.3416 6.66665 12.5C6.66665 10.6583 8.15831 9.16663 9.99998 9.16663Z" fill="#F47B20"/>
</g>
<defs>
<clipPath id="clip0_11279_26225">
<rect width="20" height="20" fill="white"/>
</clipPath>
</defs>
</svg>
