<svg width="20" height="20" viewBox="0 0 20 20" fill="none" xmlns="http://www.w3.org/2000/svg">
<g clip-path="url(#clip0_11279_26220)">
<path d="M15 1.66663C15.221 1.66663 15.433 1.75442 15.5893 1.9107C15.7456 2.06698 15.8334 2.27895 15.8334 2.49996V17.5C15.8334 17.721 15.7456 17.9329 15.5893 18.0892C15.433 18.2455 15.221 18.3333 15 18.3333H5.00002C4.77901 18.3333 4.56705 18.2455 4.41076 18.0892C4.25448 17.9329 4.16669 17.721 4.16669 17.5V2.49996C4.16669 2.27895 4.25448 2.06698 4.41076 1.9107C4.56705 1.75442 4.77901 1.66663 5.00002 1.66663H15ZM14.1667 3.33329H5.83335V16.6666H14.1667V3.33329ZM12.5 12.5V14.1666H10.8334V12.5H12.5ZM9.16669 12.5V14.1666H7.50002V12.5H9.16669ZM10.8334 4.99996V6.66663H12.5V8.33329H10.8325L10.8334 9.99996H9.16669L9.16585 8.33329H7.50002V6.66663H9.16669V4.99996H10.8334Z" fill="#F47B20"/>
</g>
<defs>
<clipPath id="clip0_11279_26220">
<rect width="20" height="20" fill="white"/>
</clipPath>
</defs>
</svg>
